  0
SECTION
  2
BLOCKS
  0
ENDSEC
  0
SECTION
  2
ENTITIES
  0
LINE
  8
0
 10
20.8676
 20
295.353
 11
21.491
 21
296.083
  0
LINE
  8
0
 10
21.491
 20
296.083
 11
22.127
 21
296.802
  0
LINE
  8
0
 10
22.127
 20
296.802
 11
22.7755
 21
297.51
  0
LINE
  8
0
 10
22.7755
 20
297.51
 11
23.4363
 21
298.206
  0
LINE
  8
0
 10
23.4363
 20
298.206
 11
24.1091
 21
298.891
  0
LINE
  8
0
 10
24.1091
 20
298.891
 11
24.7938
 21
299.564
  0
LINE
  8
0
 10
24.7938
 20
299.564
 11
25.4901
 21
300.224
  0
LINE
  8
0
 10
25.4901
 20
300.224
 11
26.1978
 21
300.873
  0
LINE
  8
0
 10
26.1978
 20
300.873
 11
26.9167
 21
301.509
  0
LINE
  8
0
 10
26.9167
 20
301.509
 11
27.6467
 21
302.132
  0
LINE
  8
0
 10
27.6467
 20
302.132
 11
28.3874
 21
302.743
  0
LINE
  8
0
 10
28.3874
 20
302.743
 11
29.1386
 21
303.341
  0
LINE
  8
0
 10
29.1386
 20
303.341
 11
29.9002
 21
303.925
  0
LINE
  8
0
 10
29.9002
 20
303.925
 11
30.6718
 21
304.496
  0
LINE
  8
0
 10
30.6718
 20
304.496
 11
31.4533
 21
305.053
  0
LINE
  8
0
 10
31.4533
 20
305.053
 11
32.2444
 21
305.597
  0
LINE
  8
0
 10
32.2444
 20
305.597
 11
33.0448
 21
306.127
  0
LINE
  8
0
 10
33.0448
 20
306.127
 11
33.8544
 21
306.643
  0
LINE
  8
0
 10
33.8544
 20
306.643
 11
34.6729
 21
307.144
  0
LINE
  8
0
 10
34.6729
 20
307.144
 11
35.5
 21
307.631
  0
LINE
  8
0
 10
35.5
 20
307.631
 11
36.3355
 21
308.104
  0
LINE
  8
0
 10
36.3355
 20
308.104
 11
37.1791
 21
308.562
  0
LINE
  8
0
 10
37.1791
 20
308.562
 11
38.0305
 21
309.005
  0
LINE
  8
0
 10
38.0305
 20
309.005
 11
38.8896
 21
309.434
  0
LINE
  8
0
 10
38.8896
 20
309.434
 11
39.756
 21
309.847
  0
LINE
  8
0
 10
39.756
 20
309.847
 11
40.6295
 21
310.245
  0
LINE
  8
0
 10
40.6295
 20
310.245
 11
41.5098
 21
310.628
  0
LINE
  8
0
 10
41.5098
 20
310.628
 11
42.3966
 21
310.995
  0
LINE
  8
0
 10
42.3966
 20
310.995
 11
43.2897
 21
311.347
  0
LINE
  8
0
 10
43.2897
 20
311.347
 11
44.1889
 21
311.683
  0
LINE
  8
0
 10
44.1889
 20
311.683
 11
45.0938
 21
312.004
  0
LINE
  8
0
 10
45.0938
 20
312.004
 11
46.0041
 21
312.308
  0
LINE
  8
0
 10
46.0041
 20
312.308
 11
46.9196
 21
312.597
  0
LINE
  8
0
 10
46.9196
 20
312.597
 11
47.8399
 21
312.869
  0
LINE
  8
0
 10
47.8399
 20
312.869
 11
48.7649
 21
313.126
  0
LINE
  8
0
 10
48.7649
 20
313.126
 11
49.6943
 21
313.366
  0
LINE
  8
0
 10
49.6943
 20
313.366
 11
50.6277
 21
313.59
  0
LINE
  8
0
 10
50.6277
 20
313.59
 11
51.5648
 21
313.798
  0
LINE
  8
0
 10
51.5648
 20
313.798
 11
52.5055
 21
313.989
  0
LINE
  8
0
 10
52.5055
 20
313.989
 11
53.4493
 21
314.164
  0
LINE
  8
0
 10
53.4493
 20
314.164
 11
54.3961
 21
314.323
  0
LINE
  8
0
 10
54.3961
 20
314.323
 11
55.3455
 21
314.465
  0
LINE
  8
0
 10
55.3455
 20
314.465
 11
56.2972
 21
314.59
  0
LINE
  8
0
 10
56.2972
 20
314.59
 11
57.2509
 21
314.699
  0
LINE
  8
0
 10
57.2509
 20
314.699
 11
58.2064
 21
314.791
  0
LINE
  8
0
 10
58.2064
 20
314.791
 11
59.1634
 21
314.866
  0
LINE
  8
0
 10
59.1634
 20
314.866
 11
60.1215
 21
314.925
  0
LINE
  8
0
 10
60.1215
 20
314.925
 11
61.0805
 21
314.966
  0
LINE
  8
0
 10
61.0805
 20
314.966
 11
62.0401
 21
314.992
  0
LINE
  8
0
 10
62.0401
 20
314.992
 11
63
 21
315
  0
LINE
  8
0
 10
63
 20
315
 11
63.9599
 21
314.992
  0
LINE
  8
0
 10
63.9599
 20
314.992
 11
64.9195
 21
314.966
  0
LINE
  8
0
 10
64.9195
 20
314.966
 11
65.8785
 21
314.925
  0
LINE
  8
0
 10
65.8785
 20
314.925
 11
66.8366
 21
314.866
  0
LINE
  8
0
 10
66.8366
 20
314.866
 11
67.7936
 21
314.791
  0
LINE
  8
0
 10
67.7936
 20
314.791
 11
68.7491
 21
314.699
  0
LINE
  8
0
 10
68.7491
 20
314.699
 11
69.7028
 21
314.59
  0
LINE
  8
0
 10
69.7028
 20
314.59
 11
70.6545
 21
314.465
  0
LINE
  8
0
 10
70.6545
 20
314.465
 11
71.6039
 21
314.323
  0
LINE
  8
0
 10
71.6039
 20
314.323
 11
72.5506
 21
314.164
  0
LINE
  8
0
 10
72.5506
 20
314.164
 11
73.4945
 21
313.989
  0
LINE
  8
0
 10
73.4945
 20
313.989
 11
74.4351
 21
313.798
  0
LINE
  8
0
 10
74.4351
 20
313.798
 11
75.3723
 21
313.59
  0
LINE
  8
0
 10
75.3723
 20
313.59
 11
76.3057
 21
313.366
  0
LINE
  8
0
 10
76.3057
 20
313.366
 11
77.235
 21
313.126
  0
LINE
  8
0
 10
77.235
 20
313.126
 11
78.16
 21
312.869
  0
LINE
  8
0
 10
78.16
 20
312.869
 11
79.0804
 21
312.597
  0
LINE
  8
0
 10
79.0804
 20
312.597
 11
79.9959
 21
312.308
  0
LINE
  8
0
 10
79.9959
 20
312.308
 11
80.9062
 21
312.004
  0
LINE
  8
0
 10
80.9062
 20
312.004
 11
81.8111
 21
311.683
  0
LINE
  8
0
 10
81.8111
 20
311.683
 11
82.7102
 21
311.347
  0
LINE
  8
0
 10
82.7102
 20
311.347
 11
83.6033
 21
310.995
  0
LINE
  8
0
 10
83.6033
 20
310.995
 11
84.4902
 21
310.628
  0
LINE
  8
0
 10
84.4902
 20
310.628
 11
85.3705
 21
310.245
  0
LINE
  8
0
 10
85.3705
 20
310.245
 11
86.244
 21
309.847
  0
LINE
  8
0
 10
86.244
 20
309.847
 11
87.1104
 21
309.434
  0
LINE
  8
0
 10
87.1104
 20
309.434
 11
87.9695
 21
309.005
  0
LINE
  8
0
 10
87.9695
 20
309.005
 11
88.8209
 21
308.562
  0
LINE
  8
0
 10
88.8209
 20
308.562
 11
89.6645
 21
308.104
  0
LINE
  8
0
 10
89.6645
 20
308.104
 11
90.5
 21
307.631
  0
LINE
  8
0
 10
90.5
 20
307.631
 11
91.3271
 21
307.144
  0
LINE
  8
0
 10
91.3271
 20
307.144
 11
92.1456
 21
306.643
  0
LINE
  8
0
 10
92.1456
 20
306.643
 11
92.9551
 21
306.127
  0
LINE
  8
0
 10
92.9551
 20
306.127
 11
93.7556
 21
305.597
  0
LINE
  8
0
 10
93.7556
 20
305.597
 11
94.5467
 21
305.053
  0
LINE
  8
0
 10
94.5467
 20
305.053
 11
95.3282
 21
304.496
  0
LINE
  8
0
 10
95.3282
 20
304.496
 11
96.0998
 21
303.925
  0
LINE
  8
0
 10
96.0998
 20
303.925
 11
96.8614
 21
303.341
  0
LINE
  8
0
 10
96.8614
 20
303.341
 11
97.6126
 21
302.743
  0
LINE
  8
0
 10
97.6126
 20
302.743
 11
98.3533
 21
302.132
  0
LINE
  8
0
 10
98.3533
 20
302.132
 11
99.0832
 21
301.509
  0
LINE
  8
0
 10
99.0832
 20
301.509
 11
99.8022
 21
300.873
  0
LINE
  8
0
 10
99.8022
 20
300.873
 11
100.51
 21
300.224
  0
LINE
  8
0
 10
100.51
 20
300.224
 11
101.206
 21
299.564
  0
LINE
  8
0
 10
101.206
 20
299.564
 11
101.891
 21
298.891
  0
LINE
  8
0
 10
101.891
 20
298.891
 11
102.564
 21
298.206
  0
LINE
  8
0
 10
102.564
 20
298.206
 11
103.224
 21
297.51
  0
LINE
  8
0
 10
103.224
 20
297.51
 11
103.873
 21
296.802
  0
LINE
  8
0
 10
103.873
 20
296.802
 11
104.509
 21
296.083
  0
LINE
  8
0
 10
104.509
 20
296.083
 11
105.132
 21
295.353
  0
LINE
  8
0
 10
105.132
 20
295.353
 11
105.424
 21
295
  0
LINE
  8
0
 10
105.424
 20
295
 11
130
 21
295
  0
LINE
  8
0
 10
130
 20
295
 11
130
 21
275
  0
LINE
  8
0
 10
130
 20
275
 11
183.605
 21
275
  0
LINE
  8
0
 10
183.605
 20
275
 11
191.326
 21
282.995
  0
LINE
  8
0
 10
191.326
 20
282.995
 11
190.587
 21
285.34
  0
LINE
  8
0
 10
190.587
 20
285.34
 11
187.117
 21
297.054
  0
LINE
  8
0
 10
187.117
 20
297.054
 11
183.852
 21
308.827
  0
LINE
  8
0
 10
183.852
 20
308.827
 11
180.793
 21
320.655
  0
LINE
  8
0
 10
180.793
 20
320.655
 11
177.941
 21
332.534
  0
LINE
  8
0
 10
177.941
 20
332.534
 11
175.297
 21
344.462
  0
LINE
  8
0
 10
175.297
 20
344.462
 11
172.861
 21
356.434
  0
LINE
  8
0
 10
172.861
 20
356.434
 11
170.635
 21
368.446
  0
LINE
  8
0
 10
170.635
 20
368.446
 11
168.618
 21
380.496
  0
LINE
  8
0
 10
168.618
 20
380.496
 11
166.812
 21
392.579
  0
LINE
  8
0
 10
166.812
 20
392.579
 11
165.218
 21
404.691
  0
LINE
  8
0
 10
165.218
 20
404.691
 11
163.835
 21
416.83
  0
LINE
  8
0
 10
163.835
 20
416.83
 11
162.664
 21
428.991
  0
LINE
  8
0
 10
162.664
 20
428.991
 11
161.705
 21
441.17
  0
LINE
  8
0
 10
161.705
 20
441.17
 11
160.959
 21
453.365
  0
LINE
  8
0
 10
160.959
 20
453.365
 11
160.426
 21
465.57
  0
LINE
  8
0
 10
160.426
 20
465.57
 11
160.107
 21
477.783
  0
LINE
  8
0
 10
160.107
 20
477.783
 11
160
 21
490
  0
LINE
  8
0
 10
160
 20
490
 11
160.107
 21
502.217
  0
LINE
  8
0
 10
160.107
 20
502.217
 11
160.426
 21
514.43
  0
LINE
  8
0
 10
160.426
 20
514.43
 11
160.959
 21
526.635
  0
LINE
  8
0
 10
160.959
 20
526.635
 11
161.705
 21
538.83
  0
LINE
  8
0
 10
161.705
 20
538.83
 11
162.664
 21
551.009
  0
LINE
  8
0
 10
162.664
 20
551.009
 11
163.835
 21
563.17
  0
LINE
  8
0
 10
163.835
 20
563.17
 11
165.218
 21
575.309
  0
LINE
  8
0
 10
165.218
 20
575.309
 11
166.812
 21
587.421
  0
LINE
  8
0
 10
166.812
 20
587.421
 11
168.618
 21
599.504
  0
LINE
  8
0
 10
168.618
 20
599.504
 11
170.635
 21
611.554
  0
LINE
  8
0
 10
170.635
 20
611.554
 11
172.861
 21
623.566
  0
LINE
  8
0
 10
172.861
 20
623.566
 11
175.297
 21
635.538
  0
LINE
  8
0
 10
175.297
 20
635.538
 11
177.941
 21
647.466
  0
LINE
  8
0
 10
177.941
 20
647.466
 11
180.793
 21
659.345
  0
LINE
  8
0
 10
180.793
 20
659.345
 11
183.852
 21
671.173
  0
LINE
  8
0
 10
183.852
 20
671.173
 11
187.117
 21
682.946
  0
LINE
  8
0
 10
187.117
 20
682.946
 11
190.587
 21
694.66
  0
LINE
  8
0
 10
190.587
 20
694.66
 11
194.26
 21
706.312
  0
LINE
  8
0
 10
194.26
 20
706.312
 11
198.137
 21
717.898
  0
LINE
  8
0
 10
198.137
 20
717.898
 11
202.215
 21
729.414
  0
LINE
  8
0
 10
202.215
 20
729.414
 11
206.173
 21
740
  0
LINE
  8
0
 10
206.173
 20
740
 11
0
 21
740
  0
LINE
  8
0
 10
0
 20
740
 11
0
 21
295
  0
LINE
  8
0
 10
0
 20
295
 11
20.5763
 21
295
  0
LINE
  8
0
 10
20.5763
 20
295
 11
20.8676
 21
295.353
  0
LINE
  8
0
 10
132.564
 20
602.319
 11
164.982
 21
732.339
  0
LINE
  8
0
 10
164.982
 20
732.339
 11
194.091
 21
725.081
  0
LINE
  8
0
 10
194.091
 20
725.081
 11
161.673
 21
595.061
  0
LINE
  8
0
 10
161.673
 20
595.061
 11
132.564
 21
602.319
  0
LINE
  8
0
 10
13
 20
723
 11
12.8604
 21
723.002
  0
LINE
  8
0
 10
12.8604
 20
723.002
 11
12.721
 21
723.01
  0
LINE
  8
0
 10
12.721
 20
723.01
 11
12.5819
 21
723.022
  0
LINE
  8
0
 10
12.5819
 20
723.022
 11
12.4433
 21
723.039
  0
LINE
  8
0
 10
12.4433
 20
723.039
 11
12.3054
 21
723.061
  0
LINE
  8
0
 10
12.3054
 20
723.061
 11
12.1684
 21
723.087
  0
LINE
  8
0
 10
12.1684
 20
723.087
 11
12.0323
 21
723.119
  0
LINE
  8
0
 10
12.0323
 20
723.119
 11
11.8974
 21
723.155
  0
LINE
  8
0
 10
11.8974
 20
723.155
 11
11.7639
 21
723.196
  0
LINE
  8
0
 10
11.7639
 20
723.196
 11
11.6319
 21
723.241
  0
LINE
  8
0
 10
11.6319
 20
723.241
 11
11.5016
 21
723.291
  0
LINE
  8
0
 10
11.5016
 20
723.291
 11
11.373
 21
723.346
  0
LINE
  8
0
 10
11.373
 20
723.346
 11
11.2465
 21
723.405
  0
LINE
  8
0
 10
11.2465
 20
723.405
 11
11.1221
 21
723.468
  0
LINE
  8
0
 10
11.1221
 20
723.468
 11
11
 21
723.536
  0
LINE
  8
0
 10
11
 20
723.536
 11
10.8803
 21
723.608
  0
LINE
  8
0
 10
10.8803
 20
723.608
 11
10.7632
 21
723.684
  0
LINE
  8
0
 10
10.7632
 20
723.684
 11
10.6488
 21
723.764
  0
LINE
  8
0
 10
10.6488
 20
723.764
 11
10.5374
 21
723.848
  0
LINE
  8
0
 10
10.5374
 20
723.848
 11
10.4288
 21
723.936
  0
LINE
  8
0
 10
10.4288
 20
723.936
 11
10.3235
 21
724.027
  0
LINE
  8
0
 10
10.3235
 20
724.027
 11
10.2214
 21
724.123
  0
LINE
  8
0
 10
10.2214
 20
724.123
 11
10.1226
 21
724.221
  0
LINE
  8
0
 10
10.1226
 20
724.221
 11
10.0274
 21
724.323
  0
LINE
  8
0
 10
10.0274
 20
724.323
 11
9.93582
 21
724.429
  0
LINE
  8
0
 10
9.93582
 20
724.429
 11
9.84795
 21
724.537
  0
LINE
  8
0
 10
9.84795
 20
724.537
 11
9.76393
 21
724.649
  0
LINE
  8
0
 10
9.76393
 20
724.649
 11
9.68384
 21
724.763
  0
LINE
  8
0
 10
9.68384
 20
724.763
 11
9.6078
 21
724.88
  0
LINE
  8
0
 10
9.6078
 20
724.88
 11
9.53589
 21
725
  0
LINE
  8
0
 10
9.53589
 20
725
 11
9.4682
 21
725.122
  0
LINE
  8
0
 10
9.4682
 20
725.122
 11
9.40482
 21
725.247
  0
LINE
  8
0
 10
9.40482
 20
725.247
 11
9.34581
 21
725.373
  0
LINE
  8
0
 10
9.34581
 20
725.373
 11
9.29126
 21
725.502
  0
LINE
  8
0
 10
9.29126
 20
725.502
 11
9.24123
 21
725.632
  0
LINE
  8
0
 10
9.24123
 20
725.632
 11
9.19577
 21
725.764
  0
LINE
  8
0
 10
9.19577
 20
725.764
 11
9.15495
 21
725.897
  0
LINE
  8
0
 10
9.15495
 20
725.897
 11
9.1188
 21
726.032
  0
LINE
  8
0
 10
9.1188
 20
726.032
 11
9.0874
 21
726.168
  0
LINE
  8
0
 10
9.0874
 20
726.168
 11
9.06076
 21
726.305
  0
LINE
  8
0
 10
9.06076
 20
726.305
 11
9.03893
 21
726.443
  0
LINE
  8
0
 10
9.03893
 20
726.443
 11
9.02191
 21
726.582
  0
LINE
  8
0
 10
9.02191
 20
726.582
 11
9.00974
 21
726.721
  0
LINE
  8
0
 10
9.00974
 20
726.721
 11
9.00243
 21
726.86
  0
LINE
  8
0
 10
9.00243
 20
726.86
 11
9
 21
727
  0
LINE
  8
0
 10
9
 20
727
 11
9.00243
 21
727.14
  0
LINE
  8
0
 10
9.00243
 20
727.14
 11
9.00974
 21
727.279
  0
LINE
  8
0
 10
9.00974
 20
727.279
 11
9.02191
 21
727.418
  0
LINE
  8
0
 10
9.02191
 20
727.418
 11
9.03893
 21
727.557
  0
LINE
  8
0
 10
9.03893
 20
727.557
 11
9.06076
 21
727.695
  0
LINE
  8
0
 10
9.06076
 20
727.695
 11
9.0874
 21
727.832
  0
LINE
  8
0
 10
9.0874
 20
727.832
 11
9.1188
 21
727.968
  0
LINE
  8
0
 10
9.1188
 20
727.968
 11
9.15495
 21
728.103
  0
LINE
  8
0
 10
9.15495
 20
728.103
 11
9.19577
 21
728.236
  0
LINE
  8
0
 10
9.19577
 20
728.236
 11
9.24123
 21
728.368
  0
LINE
  8
0
 10
9.24123
 20
728.368
 11
9.29126
 21
728.498
  0
LINE
  8
0
 10
9.29126
 20
728.498
 11
9.34581
 21
728.627
  0
LINE
  8
0
 10
9.34581
 20
728.627
 11
9.40482
 21
728.753
  0
LINE
  8
0
 10
9.40482
 20
728.753
 11
9.4682
 21
728.878
  0
LINE
  8
0
 10
9.4682
 20
728.878
 11
9.53589
 21
729
  0
LINE
  8
0
 10
9.53589
 20
729
 11
9.6078
 21
729.12
  0
LINE
  8
0
 10
9.6078
 20
729.12
 11
9.68384
 21
729.237
  0
LINE
  8
0
 10
9.68384
 20
729.237
 11
9.76393
 21
729.351
  0
LINE
  8
0
 10
9.76393
 20
729.351
 11
9.84795
 21
729.463
  0
LINE
  8
0
 10
9.84795
 20
729.463
 11
9.93582
 21
729.571
  0
LINE
  8
0
 10
9.93582
 20
729.571
 11
10.0274
 21
729.677
  0
LINE
  8
0
 10
10.0274
 20
729.677
 11
10.1226
 21
729.779
  0
LINE
  8
0
 10
10.1226
 20
729.779
 11
10.2214
 21
729.877
  0
LINE
  8
0
 10
10.2214
 20
729.877
 11
10.3235
 21
729.973
  0
LINE
  8
0
 10
10.3235
 20
729.973
 11
10.4288
 21
730.064
  0
LINE
  8
0
 10
10.4288
 20
730.064
 11
10.5374
 21
730.152
  0
LINE
  8
0
 10
10.5374
 20
730.152
 11
10.6488
 21
730.236
  0
LINE
  8
0
 10
10.6488
 20
730.236
 11
10.7632
 21
730.316
  0
LINE
  8
0
 10
10.7632
 20
730.316
 11
10.8803
 21
730.392
  0
LINE
  8
0
 10
10.8803
 20
730.392
 11
11
 21
730.464
  0
LINE
  8
0
 10
11
 20
730.464
 11
11.1221
 21
730.532
  0
LINE
  8
0
 10
11.1221
 20
730.532
 11
11.2465
 21
730.595
  0
LINE
  8
0
 10
11.2465
 20
730.595
 11
11.373
 21
730.654
  0
LINE
  8
0
 10
11.373
 20
730.654
 11
11.5016
 21
730.709
  0
LINE
  8
0
 10
11.5016
 20
730.709
 11
11.6319
 21
730.759
  0
LINE
  8
0
 10
11.6319
 20
730.759
 11
11.7639
 21
730.804
  0
LINE
  8
0
 10
11.7639
 20
730.804
 11
11.8974
 21
730.845
  0
LINE
  8
0
 10
11.8974
 20
730.845
 11
12.0323
 21
730.881
  0
LINE
  8
0
 10
12.0323
 20
730.881
 11
12.1684
 21
730.913
  0
LINE
  8
0
 10
12.1684
 20
730.913
 11
12.3054
 21
730.939
  0
LINE
  8
0
 10
12.3054
 20
730.939
 11
12.4433
 21
730.961
  0
LINE
  8
0
 10
12.4433
 20
730.961
 11
12.5819
 21
730.978
  0
LINE
  8
0
 10
12.5819
 20
730.978
 11
12.721
 21
730.99
  0
LINE
  8
0
 10
12.721
 20
730.99
 11
12.8604
 21
730.998
  0
LINE
  8
0
 10
12.8604
 20
730.998
 11
13
 21
731
  0
LINE
  8
0
 10
13
 20
731
 11
13.1396
 21
730.998
  0
LINE
  8
0
 10
13.1396
 20
730.998
 11
13.279
 21
730.99
  0
LINE
  8
0
 10
13.279
 20
730.99
 11
13.4181
 21
730.978
  0
LINE
  8
0
 10
13.4181
 20
730.978
 11
13.5567
 21
730.961
  0
LINE
  8
0
 10
13.5567
 20
730.961
 11
13.6946
 21
730.939
  0
LINE
  8
0
 10
13.6946
 20
730.939
 11
13.8316
 21
730.913
  0
LINE
  8
0
 10
13.8316
 20
730.913
 11
13.9677
 21
730.881
  0
LINE
  8
0
 10
13.9677
 20
730.881
 11
14.1025
 21
730.845
  0
LINE
  8
0
 10
14.1025
 20
730.845
 11
14.2361
 21
730.804
  0
LINE
  8
0
 10
14.2361
 20
730.804
 11
14.3681
 21
730.759
  0
LINE
  8
0
 10
14.3681
 20
730.759
 11
14.4984
 21
730.709
  0
LINE
  8
0
 10
14.4984
 20
730.709
 11
14.6269
 21
730.654
  0
LINE
  8
0
 10
14.6269
 20
730.654
 11
14.7535
 21
730.595
  0
LINE
  8
0
 10
14.7535
 20
730.595
 11
14.8779
 21
730.532
  0
LINE
  8
0
 10
14.8779
 20
730.532
 11
15
 21
730.464
  0
LINE
  8
0
 10
15
 20
730.464
 11
15.1197
 21
730.392
  0
LINE
  8
0
 10
15.1197
 20
730.392
 11
15.2368
 21
730.316
  0
LINE
  8
0
 10
15.2368
 20
730.316
 11
15.3511
 21
730.236
  0
LINE
  8
0
 10
15.3511
 20
730.236
 11
15.4626
 21
730.152
  0
LINE
  8
0
 10
15.4626
 20
730.152
 11
15.5711
 21
730.064
  0
LINE
  8
0
 10
15.5711
 20
730.064
 11
15.6765
 21
729.973
  0
LINE
  8
0
 10
15.6765
 20
729.973
 11
15.7786
 21
729.877
  0
LINE
  8
0
 10
15.7786
 20
729.877
 11
15.8773
 21
729.779
  0
LINE
  8
0
 10
15.8773
 20
729.779
 11
15.9726
 21
729.677
  0
LINE
  8
0
 10
15.9726
 20
729.677
 11
16.0642
 21
729.571
  0
LINE
  8
0
 10
16.0642
 20
729.571
 11
16.152
 21
729.463
  0
LINE
  8
0
 10
16.152
 20
729.463
 11
16.2361
 21
729.351
  0
LINE
  8
0
 10
16.2361
 20
729.351
 11
16.3161
 21
729.237
  0
LINE
  8
0
 10
16.3161
 20
729.237
 11
16.3922
 21
729.12
  0
LINE
  8
0
 10
16.3922
 20
729.12
 11
16.4641
 21
729
  0
LINE
  8
0
 10
16.4641
 20
729
 11
16.5318
 21
728.878
  0
LINE
  8
0
 10
16.5318
 20
728.878
 11
16.5952
 21
728.753
  0
LINE
  8
0
 10
16.5952
 20
728.753
 11
16.6542
 21
728.627
  0
LINE
  8
0
 10
16.6542
 20
728.627
 11
16.7087
 21
728.498
  0
LINE
  8
0
 10
16.7087
 20
728.498
 11
16.7588
 21
728.368
  0
LINE
  8
0
 10
16.7588
 20
728.368
 11
16.8042
 21
728.236
  0
LINE
  8
0
 10
16.8042
 20
728.236
 11
16.845
 21
728.103
  0
LINE
  8
0
 10
16.845
 20
728.103
 11
16.8812
 21
727.968
  0
LINE
  8
0
 10
16.8812
 20
727.968
 11
16.9126
 21
727.832
  0
LINE
  8
0
 10
16.9126
 20
727.832
 11
16.9392
 21
727.695
  0
LINE
  8
0
 10
16.9392
 20
727.695
 11
16.9611
 21
727.557
  0
LINE
  8
0
 10
16.9611
 20
727.557
 11
16.9781
 21
727.418
  0
LINE
  8
0
 10
16.9781
 20
727.418
 11
16.9902
 21
727.279
  0
LINE
  8
0
 10
16.9902
 20
727.279
 11
16.9976
 21
727.14
  0
LINE
  8
0
 10
16.9976
 20
727.14
 11
17
 21
727
  0
LINE
  8
0
 10
17
 20
727
 11
16.9976
 21
726.86
  0
LINE
  8
0
 10
16.9976
 20
726.86
 11
16.9902
 21
726.721
  0
LINE
  8
0
 10
16.9902
 20
726.721
 11
16.9781
 21
726.582
  0
LINE
  8
0
 10
16.9781
 20
726.582
 11
16.9611
 21
726.443
  0
LINE
  8
0
 10
16.9611
 20
726.443
 11
16.9392
 21
726.305
  0
LINE
  8
0
 10
16.9392
 20
726.305
 11
16.9126
 21
726.168
  0
LINE
  8
0
 10
16.9126
 20
726.168
 11
16.8812
 21
726.032
  0
LINE
  8
0
 10
16.8812
 20
726.032
 11
16.845
 21
725.897
  0
LINE
  8
0
 10
16.845
 20
725.897
 11
16.8042
 21
725.764
  0
LINE
  8
0
 10
16.8042
 20
725.764
 11
16.7588
 21
725.632
  0
LINE
  8
0
 10
16.7588
 20
725.632
 11
16.7087
 21
725.502
  0
LINE
  8
0
 10
16.7087
 20
725.502
 11
16.6542
 21
725.373
  0
LINE
  8
0
 10
16.6542
 20
725.373
 11
16.5952
 21
725.247
  0
LINE
  8
0
 10
16.5952
 20
725.247
 11
16.5318
 21
725.122
  0
LINE
  8
0
 10
16.5318
 20
725.122
 11
16.4641
 21
725
  0
LINE
  8
0
 10
16.4641
 20
725
 11
16.3922
 21
724.88
  0
LINE
  8
0
 10
16.3922
 20
724.88
 11
16.3161
 21
724.763
  0
LINE
  8
0
 10
16.3161
 20
724.763
 11
16.2361
 21
724.649
  0
LINE
  8
0
 10
16.2361
 20
724.649
 11
16.152
 21
724.537
  0
LINE
  8
0
 10
16.152
 20
724.537
 11
16.0642
 21
724.429
  0
LINE
  8
0
 10
16.0642
 20
724.429
 11
15.9726
 21
724.323
  0
LINE
  8
0
 10
15.9726
 20
724.323
 11
15.8773
 21
724.221
  0
LINE
  8
0
 10
15.8773
 20
724.221
 11
15.7786
 21
724.123
  0
LINE
  8
0
 10
15.7786
 20
724.123
 11
15.6765
 21
724.027
  0
LINE
  8
0
 10
15.6765
 20
724.027
 11
15.5711
 21
723.936
  0
LINE
  8
0
 10
15.5711
 20
723.936
 11
15.4626
 21
723.848
  0
LINE
  8
0
 10
15.4626
 20
723.848
 11
15.3511
 21
723.764
  0
LINE
  8
0
 10
15.3511
 20
723.764
 11
15.2368
 21
723.684
  0
LINE
  8
0
 10
15.2368
 20
723.684
 11
15.1197
 21
723.608
  0
LINE
  8
0
 10
15.1197
 20
723.608
 11
15
 21
723.536
  0
LINE
  8
0
 10
15
 20
723.536
 11
14.8779
 21
723.468
  0
LINE
  8
0
 10
14.8779
 20
723.468
 11
14.7535
 21
723.405
  0
LINE
  8
0
 10
14.7535
 20
723.405
 11
14.6269
 21
723.346
  0
LINE
  8
0
 10
14.6269
 20
723.346
 11
14.4984
 21
723.291
  0
LINE
  8
0
 10
14.4984
 20
723.291
 11
14.3681
 21
723.241
  0
LINE
  8
0
 10
14.3681
 20
723.241
 11
14.2361
 21
723.196
  0
LINE
  8
0
 10
14.2361
 20
723.196
 11
14.1025
 21
723.155
  0
LINE
  8
0
 10
14.1025
 20
723.155
 11
13.9677
 21
723.119
  0
LINE
  8
0
 10
13.9677
 20
723.119
 11
13.8316
 21
723.087
  0
LINE
  8
0
 10
13.8316
 20
723.087
 11
13.6946
 21
723.061
  0
LINE
  8
0
 10
13.6946
 20
723.061
 11
13.5567
 21
723.039
  0
LINE
  8
0
 10
13.5567
 20
723.039
 11
13.4181
 21
723.022
  0
LINE
  8
0
 10
13.4181
 20
723.022
 11
13.279
 21
723.01
  0
LINE
  8
0
 10
13.279
 20
723.01
 11
13.1396
 21
723.002
  0
LINE
  8
0
 10
13.1396
 20
723.002
 11
13
 21
723
  0
LINE
  8
0
 10
62.3019
 20
638.006
 11
61.604
 21
638.024
  0
LINE
  8
0
 10
61.604
 20
638.024
 11
60.9066
 21
638.055
  0
LINE
  8
0
 10
60.9066
 20
638.055
 11
60.2097
 21
638.097
  0
LINE
  8
0
 10
60.2097
 20
638.097
 11
59.5138
 21
638.152
  0
LINE
  8
0
 10
59.5138
 20
638.152
 11
58.8188
 21
638.219
  0
LINE
  8
0
 10
58.8188
 20
638.219
 11
58.1252
 21
638.298
  0
LINE
  8
0
 10
58.1252
 20
638.298
 11
57.4331
 21
638.389
  0
LINE
  8
0
 10
57.4331
 20
638.389
 11
56.7426
 21
638.492
  0
LINE
  8
0
 10
56.7426
 20
638.492
 11
56.0541
 21
638.608
  0
LINE
  8
0
 10
56.0541
 20
638.608
 11
55.3676
 21
638.735
  0
LINE
  8
0
 10
55.3676
 20
638.735
 11
54.6835
 21
638.874
  0
LINE
  8
0
 10
54.6835
 20
638.874
 11
54.002
 21
639.025
  0
LINE
  8
0
 10
54.002
 20
639.025
 11
53.3231
 21
639.188
  0
LINE
  8
0
 10
53.3231
 20
639.188
 11
52.6472
 21
639.363
  0
LINE
  8
0
 10
52.6472
 20
639.363
 11
51.9745
 21
639.55
  0
LINE
  8
0
 10
51.9745
 20
639.55
 11
51.3051
 21
639.748
  0
LINE
  8
0
 10
51.3051
 20
639.748
 11
50.6393
 21
639.958
  0
LINE
  8
0
 10
50.6393
 20
639.958
 11
49.9773
 21
640.179
  0
LINE
  8
0
 10
49.9773
 20
640.179
 11
49.3192
 21
640.412
  0
LINE
  8
0
 10
49.3192
 20
640.412
 11
48.6653
 21
640.657
  0
LINE
  8
0
 10
48.6653
 20
640.657
 11
48.0157
 21
640.913
  0
LINE
  8
0
 10
48.0157
 20
640.913
 11
47.3707
 21
641.18
  0
LINE
  8
0
 10
47.3707
 20
641.18
 11
46.7305
 21
641.458
  0
LINE
  8
0
 10
46.7305
 20
641.458
 11
46.0953
 21
641.748
  0
LINE
  8
0
 10
46.0953
 20
641.748
 11
45.4651
 21
642.048
  0
LINE
  8
0
 10
45.4651
 20
642.048
 11
44.8404
 21
642.36
  0
LINE
  8
0
 10
44.8404
 20
642.36
 11
44.2211
 21
642.682
  0
LINE
  8
0
 10
44.2211
 20
642.682
 11
43.6076
 21
643.015
  0
LINE
  8
0
 10
43.6076
 20
643.015
 11
43
 21
643.359
  0
LINE
  8
0
 10
43
 20
643.359
 11
42.3985
 21
643.713
  0
LINE
  8
0
 10
42.3985
 20
643.713
 11
41.8032
 21
644.078
  0
LINE
  8
0
 10
41.8032
 20
644.078
 11
41.2144
 21
644.453
  0
LINE
  8
0
 10
41.2144
 20
644.453
 11
40.6323
 21
644.838
  0
LINE
  8
0
 10
40.6323
 20
644.838
 11
40.0569
 21
645.234
  0
LINE
  8
0
 10
40.0569
 20
645.234
 11
39.4886
 21
645.639
  0
LINE
  8
0
 10
39.4886
 20
645.639
 11
38.9274
 21
646.055
  0
LINE
  8
0
 10
38.9274
 20
646.055
 11
38.3735
 21
646.48
  0
LINE
  8
0
 10
38.3735
 20
646.48
 11
37.8272
 21
646.914
  0
LINE
  8
0
 10
37.8272
 20
646.914
 11
37.2885
 21
647.358
  0
LINE
  8
0
 10
37.2885
 20
647.358
 11
36.7576
 21
647.812
  0
LINE
  8
0
 10
36.7576
 20
647.812
 11
36.2348
 21
648.274
  0
LINE
  8
0
 10
36.2348
 20
648.274
 11
35.7201
 21
648.746
  0
LINE
  8
0
 10
35.7201
 20
648.746
 11
35.2137
 21
649.226
  0
LINE
  8
0
 10
35.2137
 20
649.226
 11
34.7157
 21
649.716
  0
LINE
  8
0
 10
34.7157
 20
649.716
 11
34.2264
 21
650.214
  0
LINE
  8
0
 10
34.2264
 20
650.214
 11
33.7458
 21
650.72
  0
LINE
  8
0
 10
33.7458
 20
650.72
 11
33.2742
 21
651.235
  0
LINE
  8
0
 10
33.2742
 20
651.235
 11
32.8116
 21
651.758
  0
LINE
  8
0
 10
32.8116
 20
651.758
 11
32.3582
 21
652.288
  0
LINE
  8
0
 10
32.3582
 20
652.288
 11
31.9142
 21
652.827
  0
LINE
  8
0
 10
31.9142
 20
652.827
 11
31.4796
 21
653.374
  0
LINE
  8
0
 10
31.4796
 20
653.374
 11
31.0546
 21
653.927
  0
LINE
  8
0
 10
31.0546
 20
653.927
 11
30.6393
 21
654.489
  0
LINE
  8
0
 10
30.6393
 20
654.489
 11
30.2339
 21
655.057
  0
LINE
  8
0
 10
30.2339
 20
655.057
 11
29.8385
 21
655.632
  0
LINE
  8
0
 10
29.8385
 20
655.632
 11
29.4532
 21
656.214
  0
LINE
  8
0
 10
29.4532
 20
656.214
 11
29.0781
 21
656.803
  0
LINE
  8
0
 10
29.0781
 20
656.803
 11
28.7133
 21
657.398
  0
LINE
  8
0
 10
28.7133
 20
657.398
 11
28.359
 21
658
  0
LINE
  8
0
 10
28.359
 20
658
 11
28.0152
 21
658.608
  0
LINE
  8
0
 10
28.0152
 20
658.608
 11
27.6821
 21
659.221
  0
LINE
  8
0
 10
27.6821
 20
659.221
 11
27.3597
 21
659.84
  0
LINE
  8
0
 10
27.3597
 20
659.84
 11
27.0482
 21
660.465
  0
LINE
  8
0
 10
27.0482
 20
660.465
 11
26.7477
 21
661.095
  0
LINE
  8
0
 10
26.7477
 20
661.095
 11
26.4582
 21
661.731
  0
LINE
  8
0
 10
26.4582
 20
661.731
 11
26.1798
 21
662.371
  0
LINE
  8
0
 10
26.1798
 20
662.371
 11
25.9126
 21
663.016
  0
LINE
  8
0
 10
25.9126
 20
663.016
 11
25.6568
 21
663.665
  0
LINE
  8
0
 10
25.6568
 20
663.665
 11
25.4123
 21
664.319
  0
LINE
  8
0
 10
25.4123
 20
664.319
 11
25.1792
 21
664.977
  0
LINE
  8
0
 10
25.1792
 20
664.977
 11
24.9577
 21
665.639
  0
LINE
  8
0
 10
24.9577
 20
665.639
 11
24.7478
 21
666.305
  0
LINE
  8
0
 10
24.7478
 20
666.305
 11
24.5495
 21
666.975
  0
LINE
  8
0
 10
24.5495
 20
666.975
 11
24.363
 21
667.647
  0
LINE
  8
0
 10
24.363
 20
667.647
 11
24.1882
 21
668.323
  0
LINE
  8
0
 10
24.1882
 20
668.323
 11
24.0252
 21
669.002
  0
LINE
  8
0
 10
24.0252
 20
669.002
 11
23.8741
 21
669.684
  0
LINE
  8
0
 10
23.8741
 20
669.684
 11
23.7349
 21
670.368
  0
LINE
  8
0
 10
23.7349
 20
670.368
 11
23.6077
 21
671.054
  0
LINE
  8
0
 10
23.6077
 20
671.054
 11
23.4925
 21
671.743
  0
LINE
  8
0
 10
23.4925
 20
671.743
 11
23.3893
 21
672.433
  0
LINE
  8
0
 10
23.3893
 20
672.433
 11
23.2981
 21
673.125
  0
LINE
  8
0
 10
23.2981
 20
673.125
 11
23.2191
 21
673.819
  0
LINE
  8
0
 10
23.2191
 20
673.819
 11
23.1522
 21
674.514
  0
LINE
  8
0
 10
23.1522
 20
674.514
 11
23.0974
 21
675.21
  0
LINE
  8
0
 10
23.0974
 20
675.21
 11
23.0548
 21
675.907
  0
LINE
  8
0
 10
23.0548
 20
675.907
 11
23.0244
 21
676.604
  0
LINE
  8
0
 10
23.0244
 20
676.604
 11
23.0061
 21
677.302
  0
LINE
  8
0
 10
23.0061
 20
677.302
 11
23
 21
678
  0
LINE
  8
0
 10
23
 20
678
 11
23.0061
 21
678.698
  0
LINE
  8
0
 10
23.0061
 20
678.698
 11
23.0244
 21
679.396
  0
LINE
  8
0
 10
23.0244
 20
679.396
 11
23.0548
 21
680.093
  0
LINE
  8
0
 10
23.0548
 20
680.093
 11
23.0974
 21
680.79
  0
LINE
  8
0
 10
23.0974
 20
680.79
 11
23.1522
 21
681.486
  0
LINE
  8
0
 10
23.1522
 20
681.486
 11
23.2191
 21
682.181
  0
LINE
  8
0
 10
23.2191
 20
682.181
 11
23.2981
 21
682.875
  0
LINE
  8
0
 10
23.2981
 20
682.875
 11
23.3893
 21
683.567
  0
LINE
  8
0
 10
23.3893
 20
683.567
 11
23.4925
 21
684.257
  0
LINE
  8
0
 10
23.4925
 20
684.257
 11
23.6077
 21
684.946
  0
LINE
  8
0
 10
23.6077
 20
684.946
 11
23.7349
 21
685.632
  0
LINE
  8
0
 10
23.7349
 20
685.632
 11
23.8741
 21
686.316
  0
LINE
  8
0
 10
23.8741
 20
686.316
 11
24.0252
 21
686.998
  0
LINE
  8
0
 10
24.0252
 20
686.998
 11
24.1882
 21
687.677
  0
LINE
  8
0
 10
24.1882
 20
687.677
 11
24.363
 21
688.353
  0
LINE
  8
0
 10
24.363
 20
688.353
 11
24.5495
 21
689.025
  0
LINE
  8
0
 10
24.5495
 20
689.025
 11
24.7478
 21
689.695
  0
LINE
  8
0
 10
24.7478
 20
689.695
 11
24.9577
 21
690.361
  0
LINE
  8
0
 10
24.9577
 20
690.361
 11
25.1792
 21
691.023
  0
LINE
  8
0
 10
25.1792
 20
691.023
 11
25.4123
 21
691.681
  0
LINE
  8
0
 10
25.4123
 20
691.681
 11
25.6568
 21
692.335
  0
LINE
  8
0
 10
25.6568
 20
692.335
 11
25.9126
 21
692.984
  0
LINE
  8
0
 10
25.9126
 20
692.984
 11
26.1798
 21
693.629
  0
LINE
  8
0
 10
26.1798
 20
693.629
 11
26.4582
 21
694.269
  0
LINE
  8
0
 10
26.4582
 20
694.269
 11
26.7477
 21
694.905
  0
LINE
  8
0
 10
26.7477
 20
694.905
 11
27.0482
 21
695.535
  0
LINE
  8
0
 10
27.0482
 20
695.535
 11
27.3597
 21
696.16
  0
LINE
  8
0
 10
27.3597
 20
696.16
 11
27.6821
 21
696.779
  0
LINE
  8
0
 10
27.6821
 20
696.779
 11
28.0152
 21
697.392
  0
LINE
  8
0
 10
28.0152
 20
697.392
 11
28.359
 21
698
  0
LINE
  8
0
 10
28.359
 20
698
 11
28.7133
 21
698.602
  0
LINE
  8
0
 10
28.7133
 20
698.602
 11
29.0781
 21
699.197
  0
LINE
  8
0
 10
29.0781
 20
699.197
 11
29.4532
 21
699.786
  0
LINE
  8
0
 10
29.4532
 20
699.786
 11
29.8385
 21
700.368
  0
LINE
  8
0
 10
29.8385
 20
700.368
 11
30.2339
 21
700.943
  0
LINE
  8
0
 10
30.2339
 20
700.943
 11
30.6393
 21
701.511
  0
LINE
  8
0
 10
30.6393
 20
701.511
 11
31.0546
 21
702.073
  0
LINE
  8
0
 10
31.0546
 20
702.073
 11
31.4796
 21
702.626
  0
LINE
  8
0
 10
31.4796
 20
702.626
 11
31.9142
 21
703.173
  0
LINE
  8
0
 10
31.9142
 20
703.173
 11
32.3582
 21
703.712
  0
LINE
  8
0
 10
32.3582
 20
703.712
 11
32.8116
 21
704.242
  0
LINE
  8
0
 10
32.8116
 20
704.242
 11
33.2742
 21
704.765
  0
LINE
  8
0
 10
33.2742
 20
704.765
 11
33.7458
 21
705.28
  0
LINE
  8
0
 10
33.7458
 20
705.28
 11
34.2264
 21
705.786
  0
LINE
  8
0
 10
34.2264
 20
705.786
 11
34.7157
 21
706.284
  0
LINE
  8
0
 10
34.7157
 20
706.284
 11
35.2137
 21
706.774
  0
LINE
  8
0
 10
35.2137
 20
706.774
 11
35.7201
 21
707.254
  0
LINE
  8
0
 10
35.7201
 20
707.254
 11
36.2348
 21
707.726
  0
LINE
  8
0
 10
36.2348
 20
707.726
 11
36.7576
 21
708.188
  0
LINE
  8
0
 10
36.7576
 20
708.188
 11
37.2885
 21
708.642
  0
LINE
  8
0
 10
37.2885
 20
708.642
 11
37.8272
 21
709.086
  0
LINE
  8
0
 10
37.8272
 20
709.086
 11
38.3735
 21
709.52
  0
LINE
  8
0
 10
38.3735
 20
709.52
 11
38.9274
 21
709.945
  0
LINE
  8
0
 10
38.9274
 20
709.945
 11
39.4886
 21
710.361
  0
LINE
  8
0
 10
39.4886
 20
710.361
 11
40.0569
 21
710.766
  0
LINE
  8
0
 10
40.0569
 20
710.766
 11
40.6323
 21
711.161
  0
LINE
  8
0
 10
40.6323
 20
711.161
 11
41.2144
 21
711.547
  0
LINE
  8
0
 10
41.2144
 20
711.547
 11
41.8032
 21
711.922
  0
LINE
  8
0
 10
41.8032
 20
711.922
 11
42.3985
 21
712.287
  0
LINE
  8
0
 10
42.3985
 20
712.287
 11
43
 21
712.641
  0
LINE
  8
0
 10
43
 20
712.641
 11
43.6076
 21
712.985
  0
LINE
  8
0
 10
43.6076
 20
712.985
 11
44.2211
 21
713.318
  0
LINE
  8
0
 10
44.2211
 20
713.318
 11
44.8404
 21
713.64
  0
LINE
  8
0
 10
44.8404
 20
713.64
 11
45.4651
 21
713.952
  0
LINE
  8
0
 10
45.4651
 20
713.952
 11
46.0953
 21
714.252
  0
LINE
  8
0
 10
46.0953
 20
714.252
 11
46.7305
 21
714.542
  0
LINE
  8
0
 10
46.7305
 20
714.542
 11
47.3707
 21
714.82
  0
LINE
  8
0
 10
47.3707
 20
714.82
 11
48.0157
 21
715.087
  0
LINE
  8
0
 10
48.0157
 20
715.087
 11
48.6653
 21
715.343
  0
LINE
  8
0
 10
48.6653
 20
715.343
 11
49.3192
 21
715.588
  0
LINE
  8
0
 10
49.3192
 20
715.588
 11
49.9773
 21
715.821
  0
LINE
  8
0
 10
49.9773
 20
715.821
 11
50.6393
 21
716.042
  0
LINE
  8
0
 10
50.6393
 20
716.042
 11
51.3051
 21
716.252
  0
LINE
  8
0
 10
51.3051
 20
716.252
 11
51.9745
 21
716.45
  0
LINE
  8
0
 10
51.9745
 20
716.45
 11
52.6472
 21
716.637
  0
LINE
  8
0
 10
52.6472
 20
716.637
 11
53.3231
 21
716.812
  0
LINE
  8
0
 10
53.3231
 20
716.812
 11
54.002
 21
716.975
  0
LINE
  8
0
 10
54.002
 20
716.975
 11
54.6835
 21
717.126
  0
LINE
  8
0
 10
54.6835
 20
717.126
 11
55.3676
 21
717.265
  0
LINE
  8
0
 10
55.3676
 20
717.265
 11
56.0541
 21
717.392
  0
LINE
  8
0
 10
56.0541
 20
717.392
 11
56.7426
 21
717.508
  0
LINE
  8
0
 10
56.7426
 20
717.508
 11
57.4331
 21
717.611
  0
LINE
  8
0
 10
57.4331
 20
717.611
 11
58.1252
 21
717.702
  0
LINE
  8
0
 10
58.1252
 20
717.702
 11
58.8188
 21
717.781
  0
LINE
  8
0
 10
58.8188
 20
717.781
 11
59.5138
 21
717.848
  0
LINE
  8
0
 10
59.5138
 20
717.848
 11
60.2097
 21
717.903
  0
LINE
  8
0
 10
60.2097
 20
717.903
 11
60.9066
 21
717.945
  0
LINE
  8
0
 10
60.9066
 20
717.945
 11
61.604
 21
717.976
  0
LINE
  8
0
 10
61.604
 20
717.976
 11
62.3019
 21
717.994
  0
LINE
  8
0
 10
62.3019
 20
717.994
 11
63
 21
718
  0
LINE
  8
0
 10
63
 20
718
 11
63.6981
 21
717.994
  0
LINE
  8
0
 10
63.6981
 20
717.994
 11
64.396
 21
717.976
  0
LINE
  8
0
 10
64.396
 20
717.976
 11
65.0934
 21
717.945
  0
LINE
  8
0
 10
65.0934
 20
717.945
 11
65.7903
 21
717.903
  0
LINE
  8
0
 10
65.7903
 20
717.903
 11
66.4862
 21
717.848
  0
LINE
  8
0
 10
66.4862
 20
717.848
 11
67.1811
 21
717.781
  0
LINE
  8
0
 10
67.1811
 20
717.781
 11
67.8748
 21
717.702
  0
LINE
  8
0
 10
67.8748
 20
717.702
 11
68.5669
 21
717.611
  0
LINE
  8
0
 10
68.5669
 20
717.611
 11
69.2574
 21
717.508
  0
LINE
  8
0
 10
69.2574
 20
717.508
 11
69.9459
 21
717.392
  0
LINE
  8
0
 10
69.9459
 20
717.392
 11
70.6324
 21
717.265
  0
LINE
  8
0
 10
70.6324
 20
717.265
 11
71.3165
 21
717.126
  0
LINE
  8
0
 10
71.3165
 20
717.126
 11
71.998
 21
716.975
  0
LINE
  8
0
 10
71.998
 20
716.975
 11
72.6769
 21
716.812
  0
LINE
  8
0
 10
72.6769
 20
716.812
 11
73.3528
 21
716.637
  0
LINE
  8
0
 10
73.3528
 20
716.637
 11
74.0255
 21
716.45
  0
LINE
  8
0
 10
74.0255
 20
716.45
 11
74.6949
 21
716.252
  0
LINE
  8
0
 10
74.6949
 20
716.252
 11
75.3607
 21
716.042
  0
LINE
  8
0
 10
75.3607
 20
716.042
 11
76.0227
 21
715.821
  0
LINE
  8
0
 10
76.0227
 20
715.821
 11
76.6808
 21
715.588
  0
LINE
  8
0
 10
76.6808
 20
715.588
 11
77.3347
 21
715.343
  0
LINE
  8
0
 10
77.3347
 20
715.343
 11
77.9843
 21
715.087
  0
LINE
  8
0
 10
77.9843
 20
715.087
 11
78.6292
 21
714.82
  0
LINE
  8
0
 10
78.6292
 20
714.82
 11
79.2695
 21
714.542
  0
LINE
  8
0
 10
79.2695
 20
714.542
 11
79.9047
 21
714.252
  0
LINE
  8
0
 10
79.9047
 20
714.252
 11
80.5348
 21
713.952
  0
LINE
  8
0
 10
80.5348
 20
713.952
 11
81.1596
 21
713.64
  0
LINE
  8
0
 10
81.1596
 20
713.64
 11
81.7789
 21
713.318
  0
LINE
  8
0
 10
81.7789
 20
713.318
 11
82.3924
 21
712.985
  0
LINE
  8
0
 10
82.3924
 20
712.985
 11
83
 21
712.641
  0
LINE
  8
0
 10
83
 20
712.641
 11
83.6015
 21
712.287
  0
LINE
  8
0
 10
83.6015
 20
712.287
 11
84.1968
 21
711.922
  0
LINE
  8
0
 10
84.1968
 20
711.922
 11
84.7856
 21
711.547
  0
LINE
  8
0
 10
84.7856
 20
711.547
 11
85.3677
 21
711.161
  0
LINE
  8
0
 10
85.3677
 20
711.161
 11
85.9431
 21
710.766
  0
LINE
  8
0
 10
85.9431
 20
710.766
 11
86.5114
 21
710.361
  0
LINE
  8
0
 10
86.5114
 20
710.361
 11
87.0726
 21
709.945
  0
LINE
  8
0
 10
87.0726
 20
709.945
 11
87.6264
 21
709.52
  0
LINE
  8
0
 10
87.6264
 20
709.52
 11
88.1728
 21
709.086
  0
LINE
  8
0
 10
88.1728
 20
709.086
 11
88.7115
 21
708.642
  0
LINE
  8
0
 10
88.7115
 20
708.642
 11
89.2424
 21
708.188
  0
LINE
  8
0
 10
89.2424
 20
708.188
 11
89.7652
 21
707.726
  0
LINE
  8
0
 10
89.7652
 20
707.726
 11
90.2799
 21
707.254
  0
LINE
  8
0
 10
90.2799
 20
707.254
 11
90.7863
 21
706.774
  0
LINE
  8
0
 10
90.7863
 20
706.774
 11
91.2843
 21
706.284
  0
LINE
  8
0
 10
91.2843
 20
706.284
 11
91.7736
 21
705.786
  0
LINE
  8
0
 10
91.7736
 20
705.786
 11
92.2541
 21
705.28
  0
LINE
  8
0
 10
92.2541
 20
705.28
 11
92.7258
 21
704.765
  0
LINE
  8
0
 10
92.7258
 20
704.765
 11
93.1884
 21
704.242
  0
LINE
  8
0
 10
93.1884
 20
704.242
 11
93.6418
 21
703.712
  0
LINE
  8
0
 10
93.6418
 20
703.712
 11
94.0858
 21
703.173
  0
LINE
  8
0
 10
94.0858
 20
703.173
 11
94.5204
 21
702.626
  0
LINE
  8
0
 10
94.5204
 20
702.626
 11
94.9454
 21
702.073
  0
LINE
  8
0
 10
94.9454
 20
702.073
 11
95.3607
 21
701.511
  0
LINE
  8
0
 10
95.3607
 20
701.511
 11
95.7661
 21
700.943
  0
LINE
  8
0
 10
95.7661
 20
700.943
 11
96.1615
 21
700.368
  0
LINE
  8
0
 10
96.1615
 20
700.368
 11
96.5468
 21
699.786
  0
LINE
  8
0
 10
96.5468
 20
699.786
 11
96.9219
 21
699.197
  0
LINE
  8
0
 10
96.9219
 20
699.197
 11
97.2867
 21
698.602
  0
LINE
  8
0
 10
97.2867
 20
698.602
 11
97.641
 21
698
  0
LINE
  8
0
 10
97.641
 20
698
 11
97.9848
 21
697.392
  0
LINE
  8
0
 10
97.9848
 20
697.392
 11
98.3179
 21
696.779
  0
LINE
  8
0
 10
98.3179
 20
696.779
 11
98.6403
 21
696.16
  0
LINE
  8
0
 10
98.6403
 20
696.16
 11
98.9518
 21
695.535
  0
LINE
  8
0
 10
98.9518
 20
695.535
 11
99.2523
 21
694.905
  0
LINE
  8
0
 10
99.2523
 20
694.905
 11
99.5418
 21
694.269
  0
LINE
  8
0
 10
99.5418
 20
694.269
 11
99.8202
 21
693.629
  0
LINE
  8
0
 10
99.8202
 20
693.629
 11
100.087
 21
692.984
  0
LINE
  8
0
 10
100.087
 20
692.984
 11
100.343
 21
692.335
  0
LINE
  8
0
 10
100.343
 20
692.335
 11
100.588
 21
691.681
  0
LINE
  8
0
 10
100.588
 20
691.681
 11
100.821
 21
691.023
  0
LINE
  8
0
 10
100.821
 20
691.023
 11
101.042
 21
690.361
  0
LINE
  8
0
 10
101.042
 20
690.361
 11
101.252
 21
689.695
  0
LINE
  8
0
 10
101.252
 20
689.695
 11
101.45
 21
689.025
  0
LINE
  8
0
 10
101.45
 20
689.025
 11
101.637
 21
688.353
  0
LINE
  8
0
 10
101.637
 20
688.353
 11
101.812
 21
687.677
  0
LINE
  8
0
 10
101.812
 20
687.677
 11
101.975
 21
686.998
  0
LINE
  8
0
 10
101.975
 20
686.998
 11
102.126
 21
686.316
  0
LINE
  8
0
 10
102.126
 20
686.316
 11
102.265
 21
685.632
  0
LINE
  8
0
 10
102.265
 20
685.632
 11
102.392
 21
684.946
  0
LINE
  8
0
 10
102.392
 20
684.946
 11
102.508
 21
684.257
  0
LINE
  8
0
 10
102.508
 20
684.257
 11
102.611
 21
683.567
  0
LINE
  8
0
 10
102.611
 20
683.567
 11
102.702
 21
682.875
  0
LINE
  8
0
 10
102.702
 20
682.875
 11
102.781
 21
682.181
  0
LINE
  8
0
 10
102.781
 20
682.181
 11
102.848
 21
681.486
  0
LINE
  8
0
 10
102.848
 20
681.486
 11
102.903
 21
680.79
  0
LINE
  8
0
 10
102.903
 20
680.79
 11
102.945
 21
680.093
  0
LINE
  8
0
 10
102.945
 20
680.093
 11
102.976
 21
679.396
  0
LINE
  8
0
 10
102.976
 20
679.396
 11
102.994
 21
678.698
  0
LINE
  8
0
 10
102.994
 20
678.698
 11
103
 21
678
  0
LINE
  8
0
 10
103
 20
678
 11
102.994
 21
677.302
  0
LINE
  8
0
 10
102.994
 20
677.302
 11
102.976
 21
676.604
  0
LINE
  8
0
 10
102.976
 20
676.604
 11
102.945
 21
675.907
  0
LINE
  8
0
 10
102.945
 20
675.907
 11
102.903
 21
675.21
  0
LINE
  8
0
 10
102.903
 20
675.21
 11
102.848
 21
674.514
  0
LINE
  8
0
 10
102.848
 20
674.514
 11
102.781
 21
673.819
  0
LINE
  8
0
 10
102.781
 20
673.819
 11
102.702
 21
673.125
  0
LINE
  8
0
 10
102.702
 20
673.125
 11
102.611
 21
672.433
  0
LINE
  8
0
 10
102.611
 20
672.433
 11
102.508
 21
671.743
  0
LINE
  8
0
 10
102.508
 20
671.743
 11
102.392
 21
671.054
  0
LINE
  8
0
 10
102.392
 20
671.054
 11
102.265
 21
670.368
  0
LINE
  8
0
 10
102.265
 20
670.368
 11
102.126
 21
669.684
  0
LINE
  8
0
 10
102.126
 20
669.684
 11
101.975
 21
669.002
  0
LINE
  8
0
 10
101.975
 20
669.002
 11
101.812
 21
668.323
  0
LINE
  8
0
 10
101.812
 20
668.323
 11
101.637
 21
667.647
  0
LINE
  8
0
 10
101.637
 20
667.647
 11
101.45
 21
666.975
  0
LINE
  8
0
 10
101.45
 20
666.975
 11
101.252
 21
666.305
  0
LINE
  8
0
 10
101.252
 20
666.305
 11
101.042
 21
665.639
  0
LINE
  8
0
 10
101.042
 20
665.639
 11
100.821
 21
664.977
  0
LINE
  8
0
 10
100.821
 20
664.977
 11
100.588
 21
664.319
  0
LINE
  8
0
 10
100.588
 20
664.319
 11
100.343
 21
663.665
  0
LINE
  8
0
 10
100.343
 20
663.665
 11
100.087
 21
663.016
  0
LINE
  8
0
 10
100.087
 20
663.016
 11
99.8202
 21
662.371
  0
LINE
  8
0
 10
99.8202
 20
662.371
 11
99.5418
 21
661.731
  0
LINE
  8
0
 10
99.5418
 20
661.731
 11
99.2523
 21
661.095
  0
LINE
  8
0
 10
99.2523
 20
661.095
 11
98.9518
 21
660.465
  0
LINE
  8
0
 10
98.9518
 20
660.465
 11
98.6403
 21
659.84
  0
LINE
  8
0
 10
98.6403
 20
659.84
 11
98.3179
 21
659.221
  0
LINE
  8
0
 10
98.3179
 20
659.221
 11
97.9848
 21
658.608
  0
LINE
  8
0
 10
97.9848
 20
658.608
 11
97.641
 21
658
  0
LINE
  8
0
 10
97.641
 20
658
 11
97.2867
 21
657.398
  0
LINE
  8
0
 10
97.2867
 20
657.398
 11
96.9219
 21
656.803
  0
LINE
  8
0
 10
96.9219
 20
656.803
 11
96.5468
 21
656.214
  0
LINE
  8
0
 10
96.5468
 20
656.214
 11
96.1615
 21
655.632
  0
LINE
  8
0
 10
96.1615
 20
655.632
 11
95.7661
 21
655.057
  0
LINE
  8
0
 10
95.7661
 20
655.057
 11
95.3607
 21
654.489
  0
LINE
  8
0
 10
95.3607
 20
654.489
 11
94.9454
 21
653.927
  0
LINE
  8
0
 10
94.9454
 20
653.927
 11
94.5204
 21
653.374
  0
LINE
  8
0
 10
94.5204
 20
653.374
 11
94.0858
 21
652.827
  0
LINE
  8
0
 10
94.0858
 20
652.827
 11
93.6418
 21
652.288
  0
LINE
  8
0
 10
93.6418
 20
652.288
 11
93.1884
 21
651.758
  0
LINE
  8
0
 10
93.1884
 20
651.758
 11
92.7258
 21
651.235
  0
LINE
  8
0
 10
92.7258
 20
651.235
 11
92.2541
 21
650.72
  0
LINE
  8
0
 10
92.2541
 20
650.72
 11
91.7736
 21
650.214
  0
LINE
  8
0
 10
91.7736
 20
650.214
 11
91.2843
 21
649.716
  0
LINE
  8
0
 10
91.2843
 20
649.716
 11
90.7863
 21
649.226
  0
LINE
  8
0
 10
90.7863
 20
649.226
 11
90.2799
 21
648.746
  0
LINE
  8
0
 10
90.2799
 20
648.746
 11
89.7652
 21
648.274
  0
LINE
  8
0
 10
89.7652
 20
648.274
 11
89.2424
 21
647.812
  0
LINE
  8
0
 10
89.2424
 20
647.812
 11
88.7115
 21
647.358
  0
LINE
  8
0
 10
88.7115
 20
647.358
 11
88.1728
 21
646.914
  0
LINE
  8
0
 10
88.1728
 20
646.914
 11
87.6264
 21
646.48
  0
LINE
  8
0
 10
87.6264
 20
646.48
 11
87.0726
 21
646.055
  0
LINE
  8
0
 10
87.0726
 20
646.055
 11
86.5114
 21
645.639
  0
LINE
  8
0
 10
86.5114
 20
645.639
 11
85.9431
 21
645.234
  0
LINE
  8
0
 10
85.9431
 20
645.234
 11
85.3677
 21
644.838
  0
LINE
  8
0
 10
85.3677
 20
644.838
 11
84.7856
 21
644.453
  0
LINE
  8
0
 10
84.7856
 20
644.453
 11
84.1968
 21
644.078
  0
LINE
  8
0
 10
84.1968
 20
644.078
 11
83.6015
 21
643.713
  0
LINE
  8
0
 10
83.6015
 20
643.713
 11
83
 21
643.359
  0
LINE
  8
0
 10
83
 20
643.359
 11
82.3924
 21
643.015
  0
LINE
  8
0
 10
82.3924
 20
643.015
 11
81.7789
 21
642.682
  0
LINE
  8
0
 10
81.7789
 20
642.682
 11
81.1596
 21
642.36
  0
LINE
  8
0
 10
81.1596
 20
642.36
 11
80.5348
 21
642.048
  0
LINE
  8
0
 10
80.5348
 20
642.048
 11
79.9047
 21
641.748
  0
LINE
  8
0
 10
79.9047
 20
641.748
 11
79.2695
 21
641.458
  0
LINE
  8
0
 10
79.2695
 20
641.458
 11
78.6292
 21
641.18
  0
LINE
  8
0
 10
78.6292
 20
641.18
 11
77.9843
 21
640.913
  0
LINE
  8
0
 10
77.9843
 20
640.913
 11
77.3347
 21
640.657
  0
LINE
  8
0
 10
77.3347
 20
640.657
 11
76.6808
 21
640.412
  0
LINE
  8
0
 10
76.6808
 20
640.412
 11
76.0227
 21
640.179
  0
LINE
  8
0
 10
76.0227
 20
640.179
 11
75.3607
 21
639.958
  0
LINE
  8
0
 10
75.3607
 20
639.958
 11
74.6949
 21
639.748
  0
LINE
  8
0
 10
74.6949
 20
639.748
 11
74.0255
 21
639.55
  0
LINE
  8
0
 10
74.0255
 20
639.55
 11
73.3528
 21
639.363
  0
LINE
  8
0
 10
73.3528
 20
639.363
 11
72.6769
 21
639.188
  0
LINE
  8
0
 10
72.6769
 20
639.188
 11
71.998
 21
639.025
  0
LINE
  8
0
 10
71.998
 20
639.025
 11
71.3165
 21
638.874
  0
LINE
  8
0
 10
71.3165
 20
638.874
 11
70.6324
 21
638.735
  0
LINE
  8
0
 10
70.6324
 20
638.735
 11
69.9459
 21
638.608
  0
LINE
  8
0
 10
69.9459
 20
638.608
 11
69.2574
 21
638.492
  0
LINE
  8
0
 10
69.2574
 20
638.492
 11
68.5669
 21
638.389
  0
LINE
  8
0
 10
68.5669
 20
638.389
 11
67.8748
 21
638.298
  0
LINE
  8
0
 10
67.8748
 20
638.298
 11
67.1811
 21
638.219
  0
LINE
  8
0
 10
67.1811
 20
638.219
 11
66.4862
 21
638.152
  0
LINE
  8
0
 10
66.4862
 20
638.152
 11
65.7903
 21
638.097
  0
LINE
  8
0
 10
65.7903
 20
638.097
 11
65.0934
 21
638.055
  0
LINE
  8
0
 10
65.0934
 20
638.055
 11
64.396
 21
638.024
  0
LINE
  8
0
 10
64.396
 20
638.024
 11
63.6981
 21
638.006
  0
LINE
  8
0
 10
63.6981
 20
638.006
 11
63
 21
638
  0
LINE
  8
0
 10
63
 20
638
 11
62.3019
 21
638.006
  0
LINE
  8
0
 10
124.498
 20
461.454
 11
131.511
 21
595.27
  0
LINE
  8
0
 10
131.511
 20
595.27
 11
161.47
 21
593.7
  0
LINE
  8
0
 10
161.47
 20
593.7
 11
154.457
 21
459.884
  0
LINE
  8
0
 10
154.457
 20
459.884
 11
124.498
 21
461.454
  0
LINE
  8
0
 10
62.3019
 20
489.006
 11
61.604
 21
489.024
  0
LINE
  8
0
 10
61.604
 20
489.024
 11
60.9066
 21
489.055
  0
LINE
  8
0
 10
60.9066
 20
489.055
 11
60.2097
 21
489.097
  0
LINE
  8
0
 10
60.2097
 20
489.097
 11
59.5138
 21
489.152
  0
LINE
  8
0
 10
59.5138
 20
489.152
 11
58.8188
 21
489.219
  0
LINE
  8
0
 10
58.8188
 20
489.219
 11
58.1252
 21
489.298
  0
LINE
  8
0
 10
58.1252
 20
489.298
 11
57.4331
 21
489.389
  0
LINE
  8
0
 10
57.4331
 20
489.389
 11
56.7426
 21
489.492
  0
LINE
  8
0
 10
56.7426
 20
489.492
 11
56.0541
 21
489.608
  0
LINE
  8
0
 10
56.0541
 20
489.608
 11
55.3676
 21
489.735
  0
LINE
  8
0
 10
55.3676
 20
489.735
 11
54.6835
 21
489.874
  0
LINE
  8
0
 10
54.6835
 20
489.874
 11
54.002
 21
490.025
  0
LINE
  8
0
 10
54.002
 20
490.025
 11
53.3231
 21
490.188
  0
LINE
  8
0
 10
53.3231
 20
490.188
 11
52.6472
 21
490.363
  0
LINE
  8
0
 10
52.6472
 20
490.363
 11
51.9745
 21
490.55
  0
LINE
  8
0
 10
51.9745
 20
490.55
 11
51.3051
 21
490.748
  0
LINE
  8
0
 10
51.3051
 20
490.748
 11
50.6393
 21
490.958
  0
LINE
  8
0
 10
50.6393
 20
490.958
 11
49.9773
 21
491.179
  0
LINE
  8
0
 10
49.9773
 20
491.179
 11
49.3192
 21
491.412
  0
LINE
  8
0
 10
49.3192
 20
491.412
 11
48.6653
 21
491.657
  0
LINE
  8
0
 10
48.6653
 20
491.657
 11
48.0157
 21
491.913
  0
LINE
  8
0
 10
48.0157
 20
491.913
 11
47.3707
 21
492.18
  0
LINE
  8
0
 10
47.3707
 20
492.18
 11
46.7305
 21
492.458
  0
LINE
  8
0
 10
46.7305
 20
492.458
 11
46.0953
 21
492.748
  0
LINE
  8
0
 10
46.0953
 20
492.748
 11
45.4651
 21
493.048
  0
LINE
  8
0
 10
45.4651
 20
493.048
 11
44.8404
 21
493.36
  0
LINE
  8
0
 10
44.8404
 20
493.36
 11
44.2211
 21
493.682
  0
LINE
  8
0
 10
44.2211
 20
493.682
 11
43.6076
 21
494.015
  0
LINE
  8
0
 10
43.6076
 20
494.015
 11
43
 21
494.359
  0
LINE
  8
0
 10
43
 20
494.359
 11
42.3985
 21
494.713
  0
LINE
  8
0
 10
42.3985
 20
494.713
 11
41.8032
 21
495.078
  0
LINE
  8
0
 10
41.8032
 20
495.078
 11
41.2144
 21
495.453
  0
LINE
  8
0
 10
41.2144
 20
495.453
 11
40.6323
 21
495.838
  0
LINE
  8
0
 10
40.6323
 20
495.838
 11
40.0569
 21
496.234
  0
LINE
  8
0
 10
40.0569
 20
496.234
 11
39.4886
 21
496.639
  0
LINE
  8
0
 10
39.4886
 20
496.639
 11
38.9274
 21
497.055
  0
LINE
  8
0
 10
38.9274
 20
497.055
 11
38.3735
 21
497.48
  0
LINE
  8
0
 10
38.3735
 20
497.48
 11
37.8272
 21
497.914
  0
LINE
  8
0
 10
37.8272
 20
497.914
 11
37.2885
 21
498.358
  0
LINE
  8
0
 10
37.2885
 20
498.358
 11
36.7576
 21
498.812
  0
LINE
  8
0
 10
36.7576
 20
498.812
 11
36.2348
 21
499.274
  0
LINE
  8
0
 10
36.2348
 20
499.274
 11
35.7201
 21
499.746
  0
LINE
  8
0
 10
35.7201
 20
499.746
 11
35.2137
 21
500.226
  0
LINE
  8
0
 10
35.2137
 20
500.226
 11
34.7157
 21
500.716
  0
LINE
  8
0
 10
34.7157
 20
500.716
 11
34.2264
 21
501.214
  0
LINE
  8
0
 10
34.2264
 20
501.214
 11
33.7458
 21
501.72
  0
LINE
  8
0
 10
33.7458
 20
501.72
 11
33.2742
 21
502.235
  0
LINE
  8
0
 10
33.2742
 20
502.235
 11
32.8116
 21
502.758
  0
LINE
  8
0
 10
32.8116
 20
502.758
 11
32.3582
 21
503.288
  0
LINE
  8
0
 10
32.3582
 20
503.288
 11
31.9142
 21
503.827
  0
LINE
  8
0
 10
31.9142
 20
503.827
 11
31.4796
 21
504.374
  0
LINE
  8
0
 10
31.4796
 20
504.374
 11
31.0546
 21
504.927
  0
LINE
  8
0
 10
31.0546
 20
504.927
 11
30.6393
 21
505.489
  0
LINE
  8
0
 10
30.6393
 20
505.489
 11
30.2339
 21
506.057
  0
LINE
  8
0
 10
30.2339
 20
506.057
 11
29.8385
 21
506.632
  0
LINE
  8
0
 10
29.8385
 20
506.632
 11
29.4532
 21
507.214
  0
LINE
  8
0
 10
29.4532
 20
507.214
 11
29.0781
 21
507.803
  0
LINE
  8
0
 10
29.0781
 20
507.803
 11
28.7133
 21
508.398
  0
LINE
  8
0
 10
28.7133
 20
508.398
 11
28.359
 21
509
  0
LINE
  8
0
 10
28.359
 20
509
 11
28.0152
 21
509.608
  0
LINE
  8
0
 10
28.0152
 20
509.608
 11
27.6821
 21
510.221
  0
LINE
  8
0
 10
27.6821
 20
510.221
 11
27.3597
 21
510.84
  0
LINE
  8
0
 10
27.3597
 20
510.84
 11
27.0482
 21
511.465
  0
LINE
  8
0
 10
27.0482
 20
511.465
 11
26.7477
 21
512.095
  0
LINE
  8
0
 10
26.7477
 20
512.095
 11
26.4582
 21
512.731
  0
LINE
  8
0
 10
26.4582
 20
512.731
 11
26.1798
 21
513.371
  0
LINE
  8
0
 10
26.1798
 20
513.371
 11
25.9126
 21
514.016
  0
LINE
  8
0
 10
25.9126
 20
514.016
 11
25.6568
 21
514.665
  0
LINE
  8
0
 10
25.6568
 20
514.665
 11
25.4123
 21
515.319
  0
LINE
  8
0
 10
25.4123
 20
515.319
 11
25.1792
 21
515.977
  0
LINE
  8
0
 10
25.1792
 20
515.977
 11
24.9577
 21
516.639
  0
LINE
  8
0
 10
24.9577
 20
516.639
 11
24.7478
 21
517.305
  0
LINE
  8
0
 10
24.7478
 20
517.305
 11
24.5495
 21
517.975
  0
LINE
  8
0
 10
24.5495
 20
517.975
 11
24.363
 21
518.647
  0
LINE
  8
0
 10
24.363
 20
518.647
 11
24.1882
 21
519.323
  0
LINE
  8
0
 10
24.1882
 20
519.323
 11
24.0252
 21
520.002
  0
LINE
  8
0
 10
24.0252
 20
520.002
 11
23.8741
 21
520.684
  0
LINE
  8
0
 10
23.8741
 20
520.684
 11
23.7349
 21
521.368
  0
LINE
  8
0
 10
23.7349
 20
521.368
 11
23.6077
 21
522.054
  0
LINE
  8
0
 10
23.6077
 20
522.054
 11
23.4925
 21
522.743
  0
LINE
  8
0
 10
23.4925
 20
522.743
 11
23.3893
 21
523.433
  0
LINE
  8
0
 10
23.3893
 20
523.433
 11
23.2981
 21
524.125
  0
LINE
  8
0
 10
23.2981
 20
524.125
 11
23.2191
 21
524.819
  0
LINE
  8
0
 10
23.2191
 20
524.819
 11
23.1522
 21
525.514
  0
LINE
  8
0
 10
23.1522
 20
525.514
 11
23.0974
 21
526.21
  0
LINE
  8
0
 10
23.0974
 20
526.21
 11
23.0548
 21
526.907
  0
LINE
  8
0
 10
23.0548
 20
526.907
 11
23.0244
 21
527.604
  0
LINE
  8
0
 10
23.0244
 20
527.604
 11
23.0061
 21
528.302
  0
LINE
  8
0
 10
23.0061
 20
528.302
 11
23
 21
529
  0
LINE
  8
0
 10
23
 20
529
 11
23.0061
 21
529.698
  0
LINE
  8
0
 10
23.0061
 20
529.698
 11
23.0244
 21
530.396
  0
LINE
  8
0
 10
23.0244
 20
530.396
 11
23.0548
 21
531.093
  0
LINE
  8
0
 10
23.0548
 20
531.093
 11
23.0974
 21
531.79
  0
LINE
  8
0
 10
23.0974
 20
531.79
 11
23.1522
 21
532.486
  0
LINE
  8
0
 10
23.1522
 20
532.486
 11
23.2191
 21
533.181
  0
LINE
  8
0
 10
23.2191
 20
533.181
 11
23.2981
 21
533.875
  0
LINE
  8
0
 10
23.2981
 20
533.875
 11
23.3893
 21
534.567
  0
LINE
  8
0
 10
23.3893
 20
534.567
 11
23.4925
 21
535.257
  0
LINE
  8
0
 10
23.4925
 20
535.257
 11
23.6077
 21
535.946
  0
LINE
  8
0
 10
23.6077
 20
535.946
 11
23.7349
 21
536.632
  0
LINE
  8
0
 10
23.7349
 20
536.632
 11
23.8741
 21
537.316
  0
LINE
  8
0
 10
23.8741
 20
537.316
 11
24.0252
 21
537.998
  0
LINE
  8
0
 10
24.0252
 20
537.998
 11
24.1882
 21
538.677
  0
LINE
  8
0
 10
24.1882
 20
538.677
 11
24.363
 21
539.353
  0
LINE
  8
0
 10
24.363
 20
539.353
 11
24.5495
 21
540.025
  0
LINE
  8
0
 10
24.5495
 20
540.025
 11
24.7478
 21
540.695
  0
LINE
  8
0
 10
24.7478
 20
540.695
 11
24.9577
 21
541.361
  0
LINE
  8
0
 10
24.9577
 20
541.361
 11
25.1792
 21
542.023
  0
LINE
  8
0
 10
25.1792
 20
542.023
 11
25.4123
 21
542.681
  0
LINE
  8
0
 10
25.4123
 20
542.681
 11
25.6568
 21
543.335
  0
LINE
  8
0
 10
25.6568
 20
543.335
 11
25.9126
 21
543.984
  0
LINE
  8
0
 10
25.9126
 20
543.984
 11
26.1798
 21
544.629
  0
LINE
  8
0
 10
26.1798
 20
544.629
 11
26.4582
 21
545.269
  0
LINE
  8
0
 10
26.4582
 20
545.269
 11
26.7477
 21
545.905
  0
LINE
  8
0
 10
26.7477
 20
545.905
 11
27.0482
 21
546.535
  0
LINE
  8
0
 10
27.0482
 20
546.535
 11
27.3597
 21
547.16
  0
LINE
  8
0
 10
27.3597
 20
547.16
 11
27.6821
 21
547.779
  0
LINE
  8
0
 10
27.6821
 20
547.779
 11
28.0152
 21
548.392
  0
LINE
  8
0
 10
28.0152
 20
548.392
 11
28.359
 21
549
  0
LINE
  8
0
 10
28.359
 20
549
 11
28.7133
 21
549.602
  0
LINE
  8
0
 10
28.7133
 20
549.602
 11
29.0781
 21
550.197
  0
LINE
  8
0
 10
29.0781
 20
550.197
 11
29.4532
 21
550.786
  0
LINE
  8
0
 10
29.4532
 20
550.786
 11
29.8385
 21
551.368
  0
LINE
  8
0
 10
29.8385
 20
551.368
 11
30.2339
 21
551.943
  0
LINE
  8
0
 10
30.2339
 20
551.943
 11
30.6393
 21
552.511
  0
LINE
  8
0
 10
30.6393
 20
552.511
 11
31.0546
 21
553.073
  0
LINE
  8
0
 10
31.0546
 20
553.073
 11
31.4796
 21
553.626
  0
LINE
  8
0
 10
31.4796
 20
553.626
 11
31.9142
 21
554.173
  0
LINE
  8
0
 10
31.9142
 20
554.173
 11
32.3582
 21
554.712
  0
LINE
  8
0
 10
32.3582
 20
554.712
 11
32.8116
 21
555.242
  0
LINE
  8
0
 10
32.8116
 20
555.242
 11
33.2742
 21
555.765
  0
LINE
  8
0
 10
33.2742
 20
555.765
 11
33.7458
 21
556.28
  0
LINE
  8
0
 10
33.7458
 20
556.28
 11
34.2264
 21
556.786
  0
LINE
  8
0
 10
34.2264
 20
556.786
 11
34.7157
 21
557.284
  0
LINE
  8
0
 10
34.7157
 20
557.284
 11
35.2137
 21
557.774
  0
LINE
  8
0
 10
35.2137
 20
557.774
 11
35.7201
 21
558.254
  0
LINE
  8
0
 10
35.7201
 20
558.254
 11
36.2348
 21
558.726
  0
LINE
  8
0
 10
36.2348
 20
558.726
 11
36.7576
 21
559.188
  0
LINE
  8
0
 10
36.7576
 20
559.188
 11
37.2885
 21
559.642
  0
LINE
  8
0
 10
37.2885
 20
559.642
 11
37.8272
 21
560.086
  0
LINE
  8
0
 10
37.8272
 20
560.086
 11
38.3735
 21
560.52
  0
LINE
  8
0
 10
38.3735
 20
560.52
 11
38.9274
 21
560.945
  0
LINE
  8
0
 10
38.9274
 20
560.945
 11
39.4886
 21
561.361
  0
LINE
  8
0
 10
39.4886
 20
561.361
 11
40.0569
 21
561.766
  0
LINE
  8
0
 10
40.0569
 20
561.766
 11
40.6323
 21
562.161
  0
LINE
  8
0
 10
40.6323
 20
562.161
 11
41.2144
 21
562.547
  0
LINE
  8
0
 10
41.2144
 20
562.547
 11
41.8032
 21
562.922
  0
LINE
  8
0
 10
41.8032
 20
562.922
 11
42.3985
 21
563.287
  0
LINE
  8
0
 10
42.3985
 20
563.287
 11
43
 21
563.641
  0
LINE
  8
0
 10
43
 20
563.641
 11
43.6076
 21
563.985
  0
LINE
  8
0
 10
43.6076
 20
563.985
 11
44.2211
 21
564.318
  0
LINE
  8
0
 10
44.2211
 20
564.318
 11
44.8404
 21
564.64
  0
LINE
  8
0
 10
44.8404
 20
564.64
 11
45.4651
 21
564.952
  0
LINE
  8
0
 10
45.4651
 20
564.952
 11
46.0953
 21
565.252
  0
LINE
  8
0
 10
46.0953
 20
565.252
 11
46.7305
 21
565.542
  0
LINE
  8
0
 10
46.7305
 20
565.542
 11
47.3707
 21
565.82
  0
LINE
  8
0
 10
47.3707
 20
565.82
 11
48.0157
 21
566.087
  0
LINE
  8
0
 10
48.0157
 20
566.087
 11
48.6653
 21
566.343
  0
LINE
  8
0
 10
48.6653
 20
566.343
 11
49.3192
 21
566.588
  0
LINE
  8
0
 10
49.3192
 20
566.588
 11
49.9773
 21
566.821
  0
LINE
  8
0
 10
49.9773
 20
566.821
 11
50.6393
 21
567.042
  0
LINE
  8
0
 10
50.6393
 20
567.042
 11
51.3051
 21
567.252
  0
LINE
  8
0
 10
51.3051
 20
567.252
 11
51.9745
 21
567.45
  0
LINE
  8
0
 10
51.9745
 20
567.45
 11
52.6472
 21
567.637
  0
LINE
  8
0
 10
52.6472
 20
567.637
 11
53.3231
 21
567.812
  0
LINE
  8
0
 10
53.3231
 20
567.812
 11
54.002
 21
567.975
  0
LINE
  8
0
 10
54.002
 20
567.975
 11
54.6835
 21
568.126
  0
LINE
  8
0
 10
54.6835
 20
568.126
 11
55.3676
 21
568.265
  0
LINE
  8
0
 10
55.3676
 20
568.265
 11
56.0541
 21
568.392
  0
LINE
  8
0
 10
56.0541
 20
568.392
 11
56.7426
 21
568.508
  0
LINE
  8
0
 10
56.7426
 20
568.508
 11
57.4331
 21
568.611
  0
LINE
  8
0
 10
57.4331
 20
568.611
 11
58.1252
 21
568.702
  0
LINE
  8
0
 10
58.1252
 20
568.702
 11
58.8188
 21
568.781
  0
LINE
  8
0
 10
58.8188
 20
568.781
 11
59.5138
 21
568.848
  0
LINE
  8
0
 10
59.5138
 20
568.848
 11
60.2097
 21
568.903
  0
LINE
  8
0
 10
60.2097
 20
568.903
 11
60.9066
 21
568.945
  0
LINE
  8
0
 10
60.9066
 20
568.945
 11
61.604
 21
568.976
  0
LINE
  8
0
 10
61.604
 20
568.976
 11
62.3019
 21
568.994
  0
LINE
  8
0
 10
62.3019
 20
568.994
 11
63
 21
569
  0
LINE
  8
0
 10
63
 20
569
 11
63.6981
 21
568.994
  0
LINE
  8
0
 10
63.6981
 20
568.994
 11
64.396
 21
568.976
  0
LINE
  8
0
 10
64.396
 20
568.976
 11
65.0934
 21
568.945
  0
LINE
  8
0
 10
65.0934
 20
568.945
 11
65.7903
 21
568.903
  0
LINE
  8
0
 10
65.7903
 20
568.903
 11
66.4862
 21
568.848
  0
LINE
  8
0
 10
66.4862
 20
568.848
 11
67.1811
 21
568.781
  0
LINE
  8
0
 10
67.1811
 20
568.781
 11
67.8748
 21
568.702
  0
LINE
  8
0
 10
67.8748
 20
568.702
 11
68.5669
 21
568.611
  0
LINE
  8
0
 10
68.5669
 20
568.611
 11
69.2574
 21
568.508
  0
LINE
  8
0
 10
69.2574
 20
568.508
 11
69.9459
 21
568.392
  0
LINE
  8
0
 10
69.9459
 20
568.392
 11
70.6324
 21
568.265
  0
LINE
  8
0
 10
70.6324
 20
568.265
 11
71.3165
 21
568.126
  0
LINE
  8
0
 10
71.3165
 20
568.126
 11
71.998
 21
567.975
  0
LINE
  8
0
 10
71.998
 20
567.975
 11
72.6769
 21
567.812
  0
LINE
  8
0
 10
72.6769
 20
567.812
 11
73.3528
 21
567.637
  0
LINE
  8
0
 10
73.3528
 20
567.637
 11
74.0255
 21
567.45
  0
LINE
  8
0
 10
74.0255
 20
567.45
 11
74.6949
 21
567.252
  0
LINE
  8
0
 10
74.6949
 20
567.252
 11
75.3607
 21
567.042
  0
LINE
  8
0
 10
75.3607
 20
567.042
 11
76.0227
 21
566.821
  0
LINE
  8
0
 10
76.0227
 20
566.821
 11
76.6808
 21
566.588
  0
LINE
  8
0
 10
76.6808
 20
566.588
 11
77.3347
 21
566.343
  0
LINE
  8
0
 10
77.3347
 20
566.343
 11
77.9843
 21
566.087
  0
LINE
  8
0
 10
77.9843
 20
566.087
 11
78.6292
 21
565.82
  0
LINE
  8
0
 10
78.6292
 20
565.82
 11
79.2695
 21
565.542
  0
LINE
  8
0
 10
79.2695
 20
565.542
 11
79.9047
 21
565.252
  0
LINE
  8
0
 10
79.9047
 20
565.252
 11
80.5348
 21
564.952
  0
LINE
  8
0
 10
80.5348
 20
564.952
 11
81.1596
 21
564.64
  0
LINE
  8
0
 10
81.1596
 20
564.64
 11
81.7789
 21
564.318
  0
LINE
  8
0
 10
81.7789
 20
564.318
 11
82.3924
 21
563.985
  0
LINE
  8
0
 10
82.3924
 20
563.985
 11
83
 21
563.641
  0
LINE
  8
0
 10
83
 20
563.641
 11
83.6015
 21
563.287
  0
LINE
  8
0
 10
83.6015
 20
563.287
 11
84.1968
 21
562.922
  0
LINE
  8
0
 10
84.1968
 20
562.922
 11
84.7856
 21
562.547
  0
LINE
  8
0
 10
84.7856
 20
562.547
 11
85.3677
 21
562.161
  0
LINE
  8
0
 10
85.3677
 20
562.161
 11
85.9431
 21
561.766
  0
LINE
  8
0
 10
85.9431
 20
561.766
 11
86.5114
 21
561.361
  0
LINE
  8
0
 10
86.5114
 20
561.361
 11
87.0726
 21
560.945
  0
LINE
  8
0
 10
87.0726
 20
560.945
 11
87.6264
 21
560.52
  0
LINE
  8
0
 10
87.6264
 20
560.52
 11
88.1728
 21
560.086
  0
LINE
  8
0
 10
88.1728
 20
560.086
 11
88.7115
 21
559.642
  0
LINE
  8
0
 10
88.7115
 20
559.642
 11
89.2424
 21
559.188
  0
LINE
  8
0
 10
89.2424
 20
559.188
 11
89.7652
 21
558.726
  0
LINE
  8
0
 10
89.7652
 20
558.726
 11
90.2799
 21
558.254
  0
LINE
  8
0
 10
90.2799
 20
558.254
 11
90.7863
 21
557.774
  0
LINE
  8
0
 10
90.7863
 20
557.774
 11
91.2843
 21
557.284
  0
LINE
  8
0
 10
91.2843
 20
557.284
 11
91.7736
 21
556.786
  0
LINE
  8
0
 10
91.7736
 20
556.786
 11
92.2541
 21
556.28
  0
LINE
  8
0
 10
92.2541
 20
556.28
 11
92.7258
 21
555.765
  0
LINE
  8
0
 10
92.7258
 20
555.765
 11
93.1884
 21
555.242
  0
LINE
  8
0
 10
93.1884
 20
555.242
 11
93.6418
 21
554.712
  0
LINE
  8
0
 10
93.6418
 20
554.712
 11
94.0858
 21
554.173
  0
LINE
  8
0
 10
94.0858
 20
554.173
 11
94.5204
 21
553.626
  0
LINE
  8
0
 10
94.5204
 20
553.626
 11
94.9454
 21
553.073
  0
LINE
  8
0
 10
94.9454
 20
553.073
 11
95.3607
 21
552.511
  0
LINE
  8
0
 10
95.3607
 20
552.511
 11
95.7661
 21
551.943
  0
LINE
  8
0
 10
95.7661
 20
551.943
 11
96.1615
 21
551.368
  0
LINE
  8
0
 10
96.1615
 20
551.368
 11
96.5468
 21
550.786
  0
LINE
  8
0
 10
96.5468
 20
550.786
 11
96.9219
 21
550.197
  0
LINE
  8
0
 10
96.9219
 20
550.197
 11
97.2867
 21
549.602
  0
LINE
  8
0
 10
97.2867
 20
549.602
 11
97.641
 21
549
  0
LINE
  8
0
 10
97.641
 20
549
 11
97.9848
 21
548.392
  0
LINE
  8
0
 10
97.9848
 20
548.392
 11
98.3179
 21
547.779
  0
LINE
  8
0
 10
98.3179
 20
547.779
 11
98.6403
 21
547.16
  0
LINE
  8
0
 10
98.6403
 20
547.16
 11
98.9518
 21
546.535
  0
LINE
  8
0
 10
98.9518
 20
546.535
 11
99.2523
 21
545.905
  0
LINE
  8
0
 10
99.2523
 20
545.905
 11
99.5418
 21
545.269
  0
LINE
  8
0
 10
99.5418
 20
545.269
 11
99.8202
 21
544.629
  0
LINE
  8
0
 10
99.8202
 20
544.629
 11
100.087
 21
543.984
  0
LINE
  8
0
 10
100.087
 20
543.984
 11
100.343
 21
543.335
  0
LINE
  8
0
 10
100.343
 20
543.335
 11
100.588
 21
542.681
  0
LINE
  8
0
 10
100.588
 20
542.681
 11
100.821
 21
542.023
  0
LINE
  8
0
 10
100.821
 20
542.023
 11
101.042
 21
541.361
  0
LINE
  8
0
 10
101.042
 20
541.361
 11
101.252
 21
540.695
  0
LINE
  8
0
 10
101.252
 20
540.695
 11
101.45
 21
540.025
  0
LINE
  8
0
 10
101.45
 20
540.025
 11
101.637
 21
539.353
  0
LINE
  8
0
 10
101.637
 20
539.353
 11
101.812
 21
538.677
  0
LINE
  8
0
 10
101.812
 20
538.677
 11
101.975
 21
537.998
  0
LINE
  8
0
 10
101.975
 20
537.998
 11
102.126
 21
537.316
  0
LINE
  8
0
 10
102.126
 20
537.316
 11
102.265
 21
536.632
  0
LINE
  8
0
 10
102.265
 20
536.632
 11
102.392
 21
535.946
  0
LINE
  8
0
 10
102.392
 20
535.946
 11
102.508
 21
535.257
  0
LINE
  8
0
 10
102.508
 20
535.257
 11
102.611
 21
534.567
  0
LINE
  8
0
 10
102.611
 20
534.567
 11
102.702
 21
533.875
  0
LINE
  8
0
 10
102.702
 20
533.875
 11
102.781
 21
533.181
  0
LINE
  8
0
 10
102.781
 20
533.181
 11
102.848
 21
532.486
  0
LINE
  8
0
 10
102.848
 20
532.486
 11
102.903
 21
531.79
  0
LINE
  8
0
 10
102.903
 20
531.79
 11
102.945
 21
531.093
  0
LINE
  8
0
 10
102.945
 20
531.093
 11
102.976
 21
530.396
  0
LINE
  8
0
 10
102.976
 20
530.396
 11
102.994
 21
529.698
  0
LINE
  8
0
 10
102.994
 20
529.698
 11
103
 21
529
  0
LINE
  8
0
 10
103
 20
529
 11
102.994
 21
528.302
  0
LINE
  8
0
 10
102.994
 20
528.302
 11
102.976
 21
527.604
  0
LINE
  8
0
 10
102.976
 20
527.604
 11
102.945
 21
526.907
  0
LINE
  8
0
 10
102.945
 20
526.907
 11
102.903
 21
526.21
  0
LINE
  8
0
 10
102.903
 20
526.21
 11
102.848
 21
525.514
  0
LINE
  8
0
 10
102.848
 20
525.514
 11
102.781
 21
524.819
  0
LINE
  8
0
 10
102.781
 20
524.819
 11
102.702
 21
524.125
  0
LINE
  8
0
 10
102.702
 20
524.125
 11
102.611
 21
523.433
  0
LINE
  8
0
 10
102.611
 20
523.433
 11
102.508
 21
522.743
  0
LINE
  8
0
 10
102.508
 20
522.743
 11
102.392
 21
522.054
  0
LINE
  8
0
 10
102.392
 20
522.054
 11
102.265
 21
521.368
  0
LINE
  8
0
 10
102.265
 20
521.368
 11
102.126
 21
520.684
  0
LINE
  8
0
 10
102.126
 20
520.684
 11
101.975
 21
520.002
  0
LINE
  8
0
 10
101.975
 20
520.002
 11
101.812
 21
519.323
  0
LINE
  8
0
 10
101.812
 20
519.323
 11
101.637
 21
518.647
  0
LINE
  8
0
 10
101.637
 20
518.647
 11
101.45
 21
517.975
  0
LINE
  8
0
 10
101.45
 20
517.975
 11
101.252
 21
517.305
  0
LINE
  8
0
 10
101.252
 20
517.305
 11
101.042
 21
516.639
  0
LINE
  8
0
 10
101.042
 20
516.639
 11
100.821
 21
515.977
  0
LINE
  8
0
 10
100.821
 20
515.977
 11
100.588
 21
515.319
  0
LINE
  8
0
 10
100.588
 20
515.319
 11
100.343
 21
514.665
  0
LINE
  8
0
 10
100.343
 20
514.665
 11
100.087
 21
514.016
  0
LINE
  8
0
 10
100.087
 20
514.016
 11
99.8202
 21
513.371
  0
LINE
  8
0
 10
99.8202
 20
513.371
 11
99.5418
 21
512.731
  0
LINE
  8
0
 10
99.5418
 20
512.731
 11
99.2523
 21
512.095
  0
LINE
  8
0
 10
99.2523
 20
512.095
 11
98.9518
 21
511.465
  0
LINE
  8
0
 10
98.9518
 20
511.465
 11
98.6403
 21
510.84
  0
LINE
  8
0
 10
98.6403
 20
510.84
 11
98.3179
 21
510.221
  0
LINE
  8
0
 10
98.3179
 20
510.221
 11
97.9848
 21
509.608
  0
LINE
  8
0
 10
97.9848
 20
509.608
 11
97.641
 21
509
  0
LINE
  8
0
 10
97.641
 20
509
 11
97.2867
 21
508.398
  0
LINE
  8
0
 10
97.2867
 20
508.398
 11
96.9219
 21
507.803
  0
LINE
  8
0
 10
96.9219
 20
507.803
 11
96.5468
 21
507.214
  0
LINE
  8
0
 10
96.5468
 20
507.214
 11
96.1615
 21
506.632
  0
LINE
  8
0
 10
96.1615
 20
506.632
 11
95.7661
 21
506.057
  0
LINE
  8
0
 10
95.7661
 20
506.057
 11
95.3607
 21
505.489
  0
LINE
  8
0
 10
95.3607
 20
505.489
 11
94.9454
 21
504.927
  0
LINE
  8
0
 10
94.9454
 20
504.927
 11
94.5204
 21
504.374
  0
LINE
  8
0
 10
94.5204
 20
504.374
 11
94.0858
 21
503.827
  0
LINE
  8
0
 10
94.0858
 20
503.827
 11
93.6418
 21
503.288
  0
LINE
  8
0
 10
93.6418
 20
503.288
 11
93.1884
 21
502.758
  0
LINE
  8
0
 10
93.1884
 20
502.758
 11
92.7258
 21
502.235
  0
LINE
  8
0
 10
92.7258
 20
502.235
 11
92.2541
 21
501.72
  0
LINE
  8
0
 10
92.2541
 20
501.72
 11
91.7736
 21
501.214
  0
LINE
  8
0
 10
91.7736
 20
501.214
 11
91.2843
 21
500.716
  0
LINE
  8
0
 10
91.2843
 20
500.716
 11
90.7863
 21
500.226
  0
LINE
  8
0
 10
90.7863
 20
500.226
 11
90.2799
 21
499.746
  0
LINE
  8
0
 10
90.2799
 20
499.746
 11
89.7652
 21
499.274
  0
LINE
  8
0
 10
89.7652
 20
499.274
 11
89.2424
 21
498.812
  0
LINE
  8
0
 10
89.2424
 20
498.812
 11
88.7115
 21
498.358
  0
LINE
  8
0
 10
88.7115
 20
498.358
 11
88.1728
 21
497.914
  0
LINE
  8
0
 10
88.1728
 20
497.914
 11
87.6264
 21
497.48
  0
LINE
  8
0
 10
87.6264
 20
497.48
 11
87.0726
 21
497.055
  0
LINE
  8
0
 10
87.0726
 20
497.055
 11
86.5114
 21
496.639
  0
LINE
  8
0
 10
86.5114
 20
496.639
 11
85.9431
 21
496.234
  0
LINE
  8
0
 10
85.9431
 20
496.234
 11
85.3677
 21
495.838
  0
LINE
  8
0
 10
85.3677
 20
495.838
 11
84.7856
 21
495.453
  0
LINE
  8
0
 10
84.7856
 20
495.453
 11
84.1968
 21
495.078
  0
LINE
  8
0
 10
84.1968
 20
495.078
 11
83.6015
 21
494.713
  0
LINE
  8
0
 10
83.6015
 20
494.713
 11
83
 21
494.359
  0
LINE
  8
0
 10
83
 20
494.359
 11
82.3924
 21
494.015
  0
LINE
  8
0
 10
82.3924
 20
494.015
 11
81.7789
 21
493.682
  0
LINE
  8
0
 10
81.7789
 20
493.682
 11
81.1596
 21
493.36
  0
LINE
  8
0
 10
81.1596
 20
493.36
 11
80.5348
 21
493.048
  0
LINE
  8
0
 10
80.5348
 20
493.048
 11
79.9047
 21
492.748
  0
LINE
  8
0
 10
79.9047
 20
492.748
 11
79.2695
 21
492.458
  0
LINE
  8
0
 10
79.2695
 20
492.458
 11
78.6292
 21
492.18
  0
LINE
  8
0
 10
78.6292
 20
492.18
 11
77.9843
 21
491.913
  0
LINE
  8
0
 10
77.9843
 20
491.913
 11
77.3347
 21
491.657
  0
LINE
  8
0
 10
77.3347
 20
491.657
 11
76.6808
 21
491.412
  0
LINE
  8
0
 10
76.6808
 20
491.412
 11
76.0227
 21
491.179
  0
LINE
  8
0
 10
76.0227
 20
491.179
 11
75.3607
 21
490.958
  0
LINE
  8
0
 10
75.3607
 20
490.958
 11
74.6949
 21
490.748
  0
LINE
  8
0
 10
74.6949
 20
490.748
 11
74.0255
 21
490.55
  0
LINE
  8
0
 10
74.0255
 20
490.55
 11
73.3528
 21
490.363
  0
LINE
  8
0
 10
73.3528
 20
490.363
 11
72.6769
 21
490.188
  0
LINE
  8
0
 10
72.6769
 20
490.188
 11
71.998
 21
490.025
  0
LINE
  8
0
 10
71.998
 20
490.025
 11
71.3165
 21
489.874
  0
LINE
  8
0
 10
71.3165
 20
489.874
 11
70.6324
 21
489.735
  0
LINE
  8
0
 10
70.6324
 20
489.735
 11
69.9459
 21
489.608
  0
LINE
  8
0
 10
69.9459
 20
489.608
 11
69.2574
 21
489.492
  0
LINE
  8
0
 10
69.2574
 20
489.492
 11
68.5669
 21
489.389
  0
LINE
  8
0
 10
68.5669
 20
489.389
 11
67.8748
 21
489.298
  0
LINE
  8
0
 10
67.8748
 20
489.298
 11
67.1811
 21
489.219
  0
LINE
  8
0
 10
67.1811
 20
489.219
 11
66.4862
 21
489.152
  0
LINE
  8
0
 10
66.4862
 20
489.152
 11
65.7903
 21
489.097
  0
LINE
  8
0
 10
65.7903
 20
489.097
 11
65.0934
 21
489.055
  0
LINE
  8
0
 10
65.0934
 20
489.055
 11
64.396
 21
489.024
  0
LINE
  8
0
 10
64.396
 20
489.024
 11
63.6981
 21
489.006
  0
LINE
  8
0
 10
63.6981
 20
489.006
 11
63
 21
489
  0
LINE
  8
0
 10
63
 20
489
 11
62.3019
 21
489.006
  0
LINE
  8
0
 10
124.809
 20
454.334
 11
154.517
 21
458.509
  0
LINE
  8
0
 10
154.517
 20
458.509
 11
173.166
 21
325.813
  0
LINE
  8
0
 10
173.166
 20
325.813
 11
143.458
 21
321.638
  0
LINE
  8
0
 10
143.458
 20
321.638
 11
124.809
 21
454.334
  0
LINE
  8
0
 10
62.3019
 20
340.006
 11
61.604
 21
340.024
  0
LINE
  8
0
 10
61.604
 20
340.024
 11
60.9066
 21
340.055
  0
LINE
  8
0
 10
60.9066
 20
340.055
 11
60.2097
 21
340.097
  0
LINE
  8
0
 10
60.2097
 20
340.097
 11
59.5138
 21
340.152
  0
LINE
  8
0
 10
59.5138
 20
340.152
 11
58.8188
 21
340.219
  0
LINE
  8
0
 10
58.8188
 20
340.219
 11
58.1252
 21
340.298
  0
LINE
  8
0
 10
58.1252
 20
340.298
 11
57.4331
 21
340.389
  0
LINE
  8
0
 10
57.4331
 20
340.389
 11
56.7426
 21
340.492
  0
LINE
  8
0
 10
56.7426
 20
340.492
 11
56.0541
 21
340.608
  0
LINE
  8
0
 10
56.0541
 20
340.608
 11
55.3676
 21
340.735
  0
LINE
  8
0
 10
55.3676
 20
340.735
 11
54.6835
 21
340.874
  0
LINE
  8
0
 10
54.6835
 20
340.874
 11
54.002
 21
341.025
  0
LINE
  8
0
 10
54.002
 20
341.025
 11
53.3231
 21
341.188
  0
LINE
  8
0
 10
53.3231
 20
341.188
 11
52.6472
 21
341.363
  0
LINE
  8
0
 10
52.6472
 20
341.363
 11
51.9745
 21
341.55
  0
LINE
  8
0
 10
51.9745
 20
341.55
 11
51.3051
 21
341.748
  0
LINE
  8
0
 10
51.3051
 20
341.748
 11
50.6393
 21
341.958
  0
LINE
  8
0
 10
50.6393
 20
341.958
 11
49.9773
 21
342.179
  0
LINE
  8
0
 10
49.9773
 20
342.179
 11
49.3192
 21
342.412
  0
LINE
  8
0
 10
49.3192
 20
342.412
 11
48.6653
 21
342.657
  0
LINE
  8
0
 10
48.6653
 20
342.657
 11
48.0157
 21
342.913
  0
LINE
  8
0
 10
48.0157
 20
342.913
 11
47.3707
 21
343.18
  0
LINE
  8
0
 10
47.3707
 20
343.18
 11
46.7305
 21
343.458
  0
LINE
  8
0
 10
46.7305
 20
343.458
 11
46.0953
 21
343.748
  0
LINE
  8
0
 10
46.0953
 20
343.748
 11
45.4651
 21
344.048
  0
LINE
  8
0
 10
45.4651
 20
344.048
 11
44.8404
 21
344.36
  0
LINE
  8
0
 10
44.8404
 20
344.36
 11
44.2211
 21
344.682
  0
LINE
  8
0
 10
44.2211
 20
344.682
 11
43.6076
 21
345.015
  0
LINE
  8
0
 10
43.6076
 20
345.015
 11
43
 21
345.359
  0
LINE
  8
0
 10
43
 20
345.359
 11
42.3985
 21
345.713
  0
LINE
  8
0
 10
42.3985
 20
345.713
 11
41.8032
 21
346.078
  0
LINE
  8
0
 10
41.8032
 20
346.078
 11
41.2144
 21
346.453
  0
LINE
  8
0
 10
41.2144
 20
346.453
 11
40.6323
 21
346.838
  0
LINE
  8
0
 10
40.6323
 20
346.838
 11
40.0569
 21
347.234
  0
LINE
  8
0
 10
40.0569
 20
347.234
 11
39.4886
 21
347.639
  0
LINE
  8
0
 10
39.4886
 20
347.639
 11
38.9274
 21
348.055
  0
LINE
  8
0
 10
38.9274
 20
348.055
 11
38.3735
 21
348.48
  0
LINE
  8
0
 10
38.3735
 20
348.48
 11
37.8272
 21
348.914
  0
LINE
  8
0
 10
37.8272
 20
348.914
 11
37.2885
 21
349.358
  0
LINE
  8
0
 10
37.2885
 20
349.358
 11
36.7576
 21
349.812
  0
LINE
  8
0
 10
36.7576
 20
349.812
 11
36.2348
 21
350.274
  0
LINE
  8
0
 10
36.2348
 20
350.274
 11
35.7201
 21
350.746
  0
LINE
  8
0
 10
35.7201
 20
350.746
 11
35.2137
 21
351.226
  0
LINE
  8
0
 10
35.2137
 20
351.226
 11
34.7157
 21
351.716
  0
LINE
  8
0
 10
34.7157
 20
351.716
 11
34.2264
 21
352.214
  0
LINE
  8
0
 10
34.2264
 20
352.214
 11
33.7458
 21
352.72
  0
LINE
  8
0
 10
33.7458
 20
352.72
 11
33.2742
 21
353.235
  0
LINE
  8
0
 10
33.2742
 20
353.235
 11
32.8116
 21
353.758
  0
LINE
  8
0
 10
32.8116
 20
353.758
 11
32.3582
 21
354.288
  0
LINE
  8
0
 10
32.3582
 20
354.288
 11
31.9142
 21
354.827
  0
LINE
  8
0
 10
31.9142
 20
354.827
 11
31.4796
 21
355.374
  0
LINE
  8
0
 10
31.4796
 20
355.374
 11
31.0546
 21
355.927
  0
LINE
  8
0
 10
31.0546
 20
355.927
 11
30.6393
 21
356.489
  0
LINE
  8
0
 10
30.6393
 20
356.489
 11
30.2339
 21
357.057
  0
LINE
  8
0
 10
30.2339
 20
357.057
 11
29.8385
 21
357.632
  0
LINE
  8
0
 10
29.8385
 20
357.632
 11
29.4532
 21
358.214
  0
LINE
  8
0
 10
29.4532
 20
358.214
 11
29.0781
 21
358.803
  0
LINE
  8
0
 10
29.0781
 20
358.803
 11
28.7133
 21
359.398
  0
LINE
  8
0
 10
28.7133
 20
359.398
 11
28.359
 21
360
  0
LINE
  8
0
 10
28.359
 20
360
 11
28.0152
 21
360.608
  0
LINE
  8
0
 10
28.0152
 20
360.608
 11
27.6821
 21
361.221
  0
LINE
  8
0
 10
27.6821
 20
361.221
 11
27.3597
 21
361.84
  0
LINE
  8
0
 10
27.3597
 20
361.84
 11
27.0482
 21
362.465
  0
LINE
  8
0
 10
27.0482
 20
362.465
 11
26.7477
 21
363.095
  0
LINE
  8
0
 10
26.7477
 20
363.095
 11
26.4582
 21
363.731
  0
LINE
  8
0
 10
26.4582
 20
363.731
 11
26.1798
 21
364.371
  0
LINE
  8
0
 10
26.1798
 20
364.371
 11
25.9126
 21
365.016
  0
LINE
  8
0
 10
25.9126
 20
365.016
 11
25.6568
 21
365.665
  0
LINE
  8
0
 10
25.6568
 20
365.665
 11
25.4123
 21
366.319
  0
LINE
  8
0
 10
25.4123
 20
366.319
 11
25.1792
 21
366.977
  0
LINE
  8
0
 10
25.1792
 20
366.977
 11
24.9577
 21
367.639
  0
LINE
  8
0
 10
24.9577
 20
367.639
 11
24.7478
 21
368.305
  0
LINE
  8
0
 10
24.7478
 20
368.305
 11
24.5495
 21
368.975
  0
LINE
  8
0
 10
24.5495
 20
368.975
 11
24.363
 21
369.647
  0
LINE
  8
0
 10
24.363
 20
369.647
 11
24.1882
 21
370.323
  0
LINE
  8
0
 10
24.1882
 20
370.323
 11
24.0252
 21
371.002
  0
LINE
  8
0
 10
24.0252
 20
371.002
 11
23.8741
 21
371.684
  0
LINE
  8
0
 10
23.8741
 20
371.684
 11
23.7349
 21
372.368
  0
LINE
  8
0
 10
23.7349
 20
372.368
 11
23.6077
 21
373.054
  0
LINE
  8
0
 10
23.6077
 20
373.054
 11
23.4925
 21
373.743
  0
LINE
  8
0
 10
23.4925
 20
373.743
 11
23.3893
 21
374.433
  0
LINE
  8
0
 10
23.3893
 20
374.433
 11
23.2981
 21
375.125
  0
LINE
  8
0
 10
23.2981
 20
375.125
 11
23.2191
 21
375.819
  0
LINE
  8
0
 10
23.2191
 20
375.819
 11
23.1522
 21
376.514
  0
LINE
  8
0
 10
23.1522
 20
376.514
 11
23.0974
 21
377.21
  0
LINE
  8
0
 10
23.0974
 20
377.21
 11
23.0548
 21
377.907
  0
LINE
  8
0
 10
23.0548
 20
377.907
 11
23.0244
 21
378.604
  0
LINE
  8
0
 10
23.0244
 20
378.604
 11
23.0061
 21
379.302
  0
LINE
  8
0
 10
23.0061
 20
379.302
 11
23
 21
380
  0
LINE
  8
0
 10
23
 20
380
 11
23.0061
 21
380.698
  0
LINE
  8
0
 10
23.0061
 20
380.698
 11
23.0244
 21
381.396
  0
LINE
  8
0
 10
23.0244
 20
381.396
 11
23.0548
 21
382.093
  0
LINE
  8
0
 10
23.0548
 20
382.093
 11
23.0974
 21
382.79
  0
LINE
  8
0
 10
23.0974
 20
382.79
 11
23.1522
 21
383.486
  0
LINE
  8
0
 10
23.1522
 20
383.486
 11
23.2191
 21
384.181
  0
LINE
  8
0
 10
23.2191
 20
384.181
 11
23.2981
 21
384.875
  0
LINE
  8
0
 10
23.2981
 20
384.875
 11
23.3893
 21
385.567
  0
LINE
  8
0
 10
23.3893
 20
385.567
 11
23.4925
 21
386.257
  0
LINE
  8
0
 10
23.4925
 20
386.257
 11
23.6077
 21
386.946
  0
LINE
  8
0
 10
23.6077
 20
386.946
 11
23.7349
 21
387.632
  0
LINE
  8
0
 10
23.7349
 20
387.632
 11
23.8741
 21
388.316
  0
LINE
  8
0
 10
23.8741
 20
388.316
 11
24.0252
 21
388.998
  0
LINE
  8
0
 10
24.0252
 20
388.998
 11
24.1882
 21
389.677
  0
LINE
  8
0
 10
24.1882
 20
389.677
 11
24.363
 21
390.353
  0
LINE
  8
0
 10
24.363
 20
390.353
 11
24.5495
 21
391.025
  0
LINE
  8
0
 10
24.5495
 20
391.025
 11
24.7478
 21
391.695
  0
LINE
  8
0
 10
24.7478
 20
391.695
 11
24.9577
 21
392.361
  0
LINE
  8
0
 10
24.9577
 20
392.361
 11
25.1792
 21
393.023
  0
LINE
  8
0
 10
25.1792
 20
393.023
 11
25.4123
 21
393.681
  0
LINE
  8
0
 10
25.4123
 20
393.681
 11
25.6568
 21
394.335
  0
LINE
  8
0
 10
25.6568
 20
394.335
 11
25.9126
 21
394.984
  0
LINE
  8
0
 10
25.9126
 20
394.984
 11
26.1798
 21
395.629
  0
LINE
  8
0
 10
26.1798
 20
395.629
 11
26.4582
 21
396.269
  0
LINE
  8
0
 10
26.4582
 20
396.269
 11
26.7477
 21
396.905
  0
LINE
  8
0
 10
26.7477
 20
396.905
 11
27.0482
 21
397.535
  0
LINE
  8
0
 10
27.0482
 20
397.535
 11
27.3597
 21
398.16
  0
LINE
  8
0
 10
27.3597
 20
398.16
 11
27.6821
 21
398.779
  0
LINE
  8
0
 10
27.6821
 20
398.779
 11
28.0152
 21
399.392
  0
LINE
  8
0
 10
28.0152
 20
399.392
 11
28.359
 21
400
  0
LINE
  8
0
 10
28.359
 20
400
 11
28.7133
 21
400.602
  0
LINE
  8
0
 10
28.7133
 20
400.602
 11
29.0781
 21
401.197
  0
LINE
  8
0
 10
29.0781
 20
401.197
 11
29.4532
 21
401.786
  0
LINE
  8
0
 10
29.4532
 20
401.786
 11
29.8385
 21
402.368
  0
LINE
  8
0
 10
29.8385
 20
402.368
 11
30.2339
 21
402.943
  0
LINE
  8
0
 10
30.2339
 20
402.943
 11
30.6393
 21
403.511
  0
LINE
  8
0
 10
30.6393
 20
403.511
 11
31.0546
 21
404.073
  0
LINE
  8
0
 10
31.0546
 20
404.073
 11
31.4796
 21
404.626
  0
LINE
  8
0
 10
31.4796
 20
404.626
 11
31.9142
 21
405.173
  0
LINE
  8
0
 10
31.9142
 20
405.173
 11
32.3582
 21
405.712
  0
LINE
  8
0
 10
32.3582
 20
405.712
 11
32.8116
 21
406.242
  0
LINE
  8
0
 10
32.8116
 20
406.242
 11
33.2742
 21
406.765
  0
LINE
  8
0
 10
33.2742
 20
406.765
 11
33.7458
 21
407.28
  0
LINE
  8
0
 10
33.7458
 20
407.28
 11
34.2264
 21
407.786
  0
LINE
  8
0
 10
34.2264
 20
407.786
 11
34.7157
 21
408.284
  0
LINE
  8
0
 10
34.7157
 20
408.284
 11
35.2137
 21
408.774
  0
LINE
  8
0
 10
35.2137
 20
408.774
 11
35.7201
 21
409.254
  0
LINE
  8
0
 10
35.7201
 20
409.254
 11
36.2348
 21
409.726
  0
LINE
  8
0
 10
36.2348
 20
409.726
 11
36.7576
 21
410.188
  0
LINE
  8
0
 10
36.7576
 20
410.188
 11
37.2885
 21
410.642
  0
LINE
  8
0
 10
37.2885
 20
410.642
 11
37.8272
 21
411.086
  0
LINE
  8
0
 10
37.8272
 20
411.086
 11
38.3735
 21
411.52
  0
LINE
  8
0
 10
38.3735
 20
411.52
 11
38.9274
 21
411.945
  0
LINE
  8
0
 10
38.9274
 20
411.945
 11
39.4886
 21
412.361
  0
LINE
  8
0
 10
39.4886
 20
412.361
 11
40.0569
 21
412.766
  0
LINE
  8
0
 10
40.0569
 20
412.766
 11
40.6323
 21
413.161
  0
LINE
  8
0
 10
40.6323
 20
413.161
 11
41.2144
 21
413.547
  0
LINE
  8
0
 10
41.2144
 20
413.547
 11
41.8032
 21
413.922
  0
LINE
  8
0
 10
41.8032
 20
413.922
 11
42.3985
 21
414.287
  0
LINE
  8
0
 10
42.3985
 20
414.287
 11
43
 21
414.641
  0
LINE
  8
0
 10
43
 20
414.641
 11
43.6076
 21
414.985
  0
LINE
  8
0
 10
43.6076
 20
414.985
 11
44.2211
 21
415.318
  0
LINE
  8
0
 10
44.2211
 20
415.318
 11
44.8404
 21
415.64
  0
LINE
  8
0
 10
44.8404
 20
415.64
 11
45.4651
 21
415.952
  0
LINE
  8
0
 10
45.4651
 20
415.952
 11
46.0953
 21
416.252
  0
LINE
  8
0
 10
46.0953
 20
416.252
 11
46.7305
 21
416.542
  0
LINE
  8
0
 10
46.7305
 20
416.542
 11
47.3707
 21
416.82
  0
LINE
  8
0
 10
47.3707
 20
416.82
 11
48.0157
 21
417.087
  0
LINE
  8
0
 10
48.0157
 20
417.087
 11
48.6653
 21
417.343
  0
LINE
  8
0
 10
48.6653
 20
417.343
 11
49.3192
 21
417.588
  0
LINE
  8
0
 10
49.3192
 20
417.588
 11
49.9773
 21
417.821
  0
LINE
  8
0
 10
49.9773
 20
417.821
 11
50.6393
 21
418.042
  0
LINE
  8
0
 10
50.6393
 20
418.042
 11
51.3051
 21
418.252
  0
LINE
  8
0
 10
51.3051
 20
418.252
 11
51.9745
 21
418.45
  0
LINE
  8
0
 10
51.9745
 20
418.45
 11
52.6472
 21
418.637
  0
LINE
  8
0
 10
52.6472
 20
418.637
 11
53.3231
 21
418.812
  0
LINE
  8
0
 10
53.3231
 20
418.812
 11
54.002
 21
418.975
  0
LINE
  8
0
 10
54.002
 20
418.975
 11
54.6835
 21
419.126
  0
LINE
  8
0
 10
54.6835
 20
419.126
 11
55.3676
 21
419.265
  0
LINE
  8
0
 10
55.3676
 20
419.265
 11
56.0541
 21
419.392
  0
LINE
  8
0
 10
56.0541
 20
419.392
 11
56.7426
 21
419.508
  0
LINE
  8
0
 10
56.7426
 20
419.508
 11
57.4331
 21
419.611
  0
LINE
  8
0
 10
57.4331
 20
419.611
 11
58.1252
 21
419.702
  0
LINE
  8
0
 10
58.1252
 20
419.702
 11
58.8188
 21
419.781
  0
LINE
  8
0
 10
58.8188
 20
419.781
 11
59.5138
 21
419.848
  0
LINE
  8
0
 10
59.5138
 20
419.848
 11
60.2097
 21
419.903
  0
LINE
  8
0
 10
60.2097
 20
419.903
 11
60.9066
 21
419.945
  0
LINE
  8
0
 10
60.9066
 20
419.945
 11
61.604
 21
419.976
  0
LINE
  8
0
 10
61.604
 20
419.976
 11
62.3019
 21
419.994
  0
LINE
  8
0
 10
62.3019
 20
419.994
 11
63
 21
420
  0
LINE
  8
0
 10
63
 20
420
 11
63.6981
 21
419.994
  0
LINE
  8
0
 10
63.6981
 20
419.994
 11
64.396
 21
419.976
  0
LINE
  8
0
 10
64.396
 20
419.976
 11
65.0934
 21
419.945
  0
LINE
  8
0
 10
65.0934
 20
419.945
 11
65.7903
 21
419.903
  0
LINE
  8
0
 10
65.7903
 20
419.903
 11
66.4862
 21
419.848
  0
LINE
  8
0
 10
66.4862
 20
419.848
 11
67.1811
 21
419.781
  0
LINE
  8
0
 10
67.1811
 20
419.781
 11
67.8748
 21
419.702
  0
LINE
  8
0
 10
67.8748
 20
419.702
 11
68.5669
 21
419.611
  0
LINE
  8
0
 10
68.5669
 20
419.611
 11
69.2574
 21
419.508
  0
LINE
  8
0
 10
69.2574
 20
419.508
 11
69.9459
 21
419.392
  0
LINE
  8
0
 10
69.9459
 20
419.392
 11
70.6324
 21
419.265
  0
LINE
  8
0
 10
70.6324
 20
419.265
 11
71.3165
 21
419.126
  0
LINE
  8
0
 10
71.3165
 20
419.126
 11
71.998
 21
418.975
  0
LINE
  8
0
 10
71.998
 20
418.975
 11
72.6769
 21
418.812
  0
LINE
  8
0
 10
72.6769
 20
418.812
 11
73.3528
 21
418.637
  0
LINE
  8
0
 10
73.3528
 20
418.637
 11
74.0255
 21
418.45
  0
LINE
  8
0
 10
74.0255
 20
418.45
 11
74.6949
 21
418.252
  0
LINE
  8
0
 10
74.6949
 20
418.252
 11
75.3607
 21
418.042
  0
LINE
  8
0
 10
75.3607
 20
418.042
 11
76.0227
 21
417.821
  0
LINE
  8
0
 10
76.0227
 20
417.821
 11
76.6808
 21
417.588
  0
LINE
  8
0
 10
76.6808
 20
417.588
 11
77.3347
 21
417.343
  0
LINE
  8
0
 10
77.3347
 20
417.343
 11
77.9843
 21
417.087
  0
LINE
  8
0
 10
77.9843
 20
417.087
 11
78.6292
 21
416.82
  0
LINE
  8
0
 10
78.6292
 20
416.82
 11
79.2695
 21
416.542
  0
LINE
  8
0
 10
79.2695
 20
416.542
 11
79.9047
 21
416.252
  0
LINE
  8
0
 10
79.9047
 20
416.252
 11
80.5348
 21
415.952
  0
LINE
  8
0
 10
80.5348
 20
415.952
 11
81.1596
 21
415.64
  0
LINE
  8
0
 10
81.1596
 20
415.64
 11
81.7789
 21
415.318
  0
LINE
  8
0
 10
81.7789
 20
415.318
 11
82.3924
 21
414.985
  0
LINE
  8
0
 10
82.3924
 20
414.985
 11
83
 21
414.641
  0
LINE
  8
0
 10
83
 20
414.641
 11
83.6015
 21
414.287
  0
LINE
  8
0
 10
83.6015
 20
414.287
 11
84.1968
 21
413.922
  0
LINE
  8
0
 10
84.1968
 20
413.922
 11
84.7856
 21
413.547
  0
LINE
  8
0
 10
84.7856
 20
413.547
 11
85.3677
 21
413.161
  0
LINE
  8
0
 10
85.3677
 20
413.161
 11
85.9431
 21
412.766
  0
LINE
  8
0
 10
85.9431
 20
412.766
 11
86.5114
 21
412.361
  0
LINE
  8
0
 10
86.5114
 20
412.361
 11
87.0726
 21
411.945
  0
LINE
  8
0
 10
87.0726
 20
411.945
 11
87.6264
 21
411.52
  0
LINE
  8
0
 10
87.6264
 20
411.52
 11
88.1728
 21
411.086
  0
LINE
  8
0
 10
88.1728
 20
411.086
 11
88.7115
 21
410.642
  0
LINE
  8
0
 10
88.7115
 20
410.642
 11
89.2424
 21
410.188
  0
LINE
  8
0
 10
89.2424
 20
410.188
 11
89.7652
 21
409.726
  0
LINE
  8
0
 10
89.7652
 20
409.726
 11
90.2799
 21
409.254
  0
LINE
  8
0
 10
90.2799
 20
409.254
 11
90.7863
 21
408.774
  0
LINE
  8
0
 10
90.7863
 20
408.774
 11
91.2843
 21
408.284
  0
LINE
  8
0
 10
91.2843
 20
408.284
 11
91.7736
 21
407.786
  0
LINE
  8
0
 10
91.7736
 20
407.786
 11
92.2541
 21
407.28
  0
LINE
  8
0
 10
92.2541
 20
407.28
 11
92.7258
 21
406.765
  0
LINE
  8
0
 10
92.7258
 20
406.765
 11
93.1884
 21
406.242
  0
LINE
  8
0
 10
93.1884
 20
406.242
 11
93.6418
 21
405.712
  0
LINE
  8
0
 10
93.6418
 20
405.712
 11
94.0858
 21
405.173
  0
LINE
  8
0
 10
94.0858
 20
405.173
 11
94.5204
 21
404.626
  0
LINE
  8
0
 10
94.5204
 20
404.626
 11
94.9454
 21
404.073
  0
LINE
  8
0
 10
94.9454
 20
404.073
 11
95.3607
 21
403.511
  0
LINE
  8
0
 10
95.3607
 20
403.511
 11
95.7661
 21
402.943
  0
LINE
  8
0
 10
95.7661
 20
402.943
 11
96.1615
 21
402.368
  0
LINE
  8
0
 10
96.1615
 20
402.368
 11
96.5468
 21
401.786
  0
LINE
  8
0
 10
96.5468
 20
401.786
 11
96.9219
 21
401.197
  0
LINE
  8
0
 10
96.9219
 20
401.197
 11
97.2867
 21
400.602
  0
LINE
  8
0
 10
97.2867
 20
400.602
 11
97.641
 21
400
  0
LINE
  8
0
 10
97.641
 20
400
 11
97.9848
 21
399.392
  0
LINE
  8
0
 10
97.9848
 20
399.392
 11
98.3179
 21
398.779
  0
LINE
  8
0
 10
98.3179
 20
398.779
 11
98.6403
 21
398.16
  0
LINE
  8
0
 10
98.6403
 20
398.16
 11
98.9518
 21
397.535
  0
LINE
  8
0
 10
98.9518
 20
397.535
 11
99.2523
 21
396.905
  0
LINE
  8
0
 10
99.2523
 20
396.905
 11
99.5418
 21
396.269
  0
LINE
  8
0
 10
99.5418
 20
396.269
 11
99.8202
 21
395.629
  0
LINE
  8
0
 10
99.8202
 20
395.629
 11
100.087
 21
394.984
  0
LINE
  8
0
 10
100.087
 20
394.984
 11
100.343
 21
394.335
  0
LINE
  8
0
 10
100.343
 20
394.335
 11
100.588
 21
393.681
  0
LINE
  8
0
 10
100.588
 20
393.681
 11
100.821
 21
393.023
  0
LINE
  8
0
 10
100.821
 20
393.023
 11
101.042
 21
392.361
  0
LINE
  8
0
 10
101.042
 20
392.361
 11
101.252
 21
391.695
  0
LINE
  8
0
 10
101.252
 20
391.695
 11
101.45
 21
391.025
  0
LINE
  8
0
 10
101.45
 20
391.025
 11
101.637
 21
390.353
  0
LINE
  8
0
 10
101.637
 20
390.353
 11
101.812
 21
389.677
  0
LINE
  8
0
 10
101.812
 20
389.677
 11
101.975
 21
388.998
  0
LINE
  8
0
 10
101.975
 20
388.998
 11
102.126
 21
388.316
  0
LINE
  8
0
 10
102.126
 20
388.316
 11
102.265
 21
387.632
  0
LINE
  8
0
 10
102.265
 20
387.632
 11
102.392
 21
386.946
  0
LINE
  8
0
 10
102.392
 20
386.946
 11
102.508
 21
386.257
  0
LINE
  8
0
 10
102.508
 20
386.257
 11
102.611
 21
385.567
  0
LINE
  8
0
 10
102.611
 20
385.567
 11
102.702
 21
384.875
  0
LINE
  8
0
 10
102.702
 20
384.875
 11
102.781
 21
384.181
  0
LINE
  8
0
 10
102.781
 20
384.181
 11
102.848
 21
383.486
  0
LINE
  8
0
 10
102.848
 20
383.486
 11
102.903
 21
382.79
  0
LINE
  8
0
 10
102.903
 20
382.79
 11
102.945
 21
382.093
  0
LINE
  8
0
 10
102.945
 20
382.093
 11
102.976
 21
381.396
  0
LINE
  8
0
 10
102.976
 20
381.396
 11
102.994
 21
380.698
  0
LINE
  8
0
 10
102.994
 20
380.698
 11
103
 21
380
  0
LINE
  8
0
 10
103
 20
380
 11
102.994
 21
379.302
  0
LINE
  8
0
 10
102.994
 20
379.302
 11
102.976
 21
378.604
  0
LINE
  8
0
 10
102.976
 20
378.604
 11
102.945
 21
377.907
  0
LINE
  8
0
 10
102.945
 20
377.907
 11
102.903
 21
377.21
  0
LINE
  8
0
 10
102.903
 20
377.21
 11
102.848
 21
376.514
  0
LINE
  8
0
 10
102.848
 20
376.514
 11
102.781
 21
375.819
  0
LINE
  8
0
 10
102.781
 20
375.819
 11
102.702
 21
375.125
  0
LINE
  8
0
 10
102.702
 20
375.125
 11
102.611
 21
374.433
  0
LINE
  8
0
 10
102.611
 20
374.433
 11
102.508
 21
373.743
  0
LINE
  8
0
 10
102.508
 20
373.743
 11
102.392
 21
373.054
  0
LINE
  8
0
 10
102.392
 20
373.054
 11
102.265
 21
372.368
  0
LINE
  8
0
 10
102.265
 20
372.368
 11
102.126
 21
371.684
  0
LINE
  8
0
 10
102.126
 20
371.684
 11
101.975
 21
371.002
  0
LINE
  8
0
 10
101.975
 20
371.002
 11
101.812
 21
370.323
  0
LINE
  8
0
 10
101.812
 20
370.323
 11
101.637
 21
369.647
  0
LINE
  8
0
 10
101.637
 20
369.647
 11
101.45
 21
368.975
  0
LINE
  8
0
 10
101.45
 20
368.975
 11
101.252
 21
368.305
  0
LINE
  8
0
 10
101.252
 20
368.305
 11
101.042
 21
367.639
  0
LINE
  8
0
 10
101.042
 20
367.639
 11
100.821
 21
366.977
  0
LINE
  8
0
 10
100.821
 20
366.977
 11
100.588
 21
366.319
  0
LINE
  8
0
 10
100.588
 20
366.319
 11
100.343
 21
365.665
  0
LINE
  8
0
 10
100.343
 20
365.665
 11
100.087
 21
365.016
  0
LINE
  8
0
 10
100.087
 20
365.016
 11
99.8202
 21
364.371
  0
LINE
  8
0
 10
99.8202
 20
364.371
 11
99.5418
 21
363.731
  0
LINE
  8
0
 10
99.5418
 20
363.731
 11
99.2523
 21
363.095
  0
LINE
  8
0
 10
99.2523
 20
363.095
 11
98.9518
 21
362.465
  0
LINE
  8
0
 10
98.9518
 20
362.465
 11
98.6403
 21
361.84
  0
LINE
  8
0
 10
98.6403
 20
361.84
 11
98.3179
 21
361.221
  0
LINE
  8
0
 10
98.3179
 20
361.221
 11
97.9848
 21
360.608
  0
LINE
  8
0
 10
97.9848
 20
360.608
 11
97.641
 21
360
  0
LINE
  8
0
 10
97.641
 20
360
 11
97.2867
 21
359.398
  0
LINE
  8
0
 10
97.2867
 20
359.398
 11
96.9219
 21
358.803
  0
LINE
  8
0
 10
96.9219
 20
358.803
 11
96.5468
 21
358.214
  0
LINE
  8
0
 10
96.5468
 20
358.214
 11
96.1615
 21
357.632
  0
LINE
  8
0
 10
96.1615
 20
357.632
 11
95.7661
 21
357.057
  0
LINE
  8
0
 10
95.7661
 20
357.057
 11
95.3607
 21
356.489
  0
LINE
  8
0
 10
95.3607
 20
356.489
 11
94.9454
 21
355.927
  0
LINE
  8
0
 10
94.9454
 20
355.927
 11
94.5204
 21
355.374
  0
LINE
  8
0
 10
94.5204
 20
355.374
 11
94.0858
 21
354.827
  0
LINE
  8
0
 10
94.0858
 20
354.827
 11
93.6418
 21
354.288
  0
LINE
  8
0
 10
93.6418
 20
354.288
 11
93.1884
 21
353.758
  0
LINE
  8
0
 10
93.1884
 20
353.758
 11
92.7258
 21
353.235
  0
LINE
  8
0
 10
92.7258
 20
353.235
 11
92.2541
 21
352.72
  0
LINE
  8
0
 10
92.2541
 20
352.72
 11
91.7736
 21
352.214
  0
LINE
  8
0
 10
91.7736
 20
352.214
 11
91.2843
 21
351.716
  0
LINE
  8
0
 10
91.2843
 20
351.716
 11
90.7863
 21
351.226
  0
LINE
  8
0
 10
90.7863
 20
351.226
 11
90.2799
 21
350.746
  0
LINE
  8
0
 10
90.2799
 20
350.746
 11
89.7652
 21
350.274
  0
LINE
  8
0
 10
89.7652
 20
350.274
 11
89.2424
 21
349.812
  0
LINE
  8
0
 10
89.2424
 20
349.812
 11
88.7115
 21
349.358
  0
LINE
  8
0
 10
88.7115
 20
349.358
 11
88.1728
 21
348.914
  0
LINE
  8
0
 10
88.1728
 20
348.914
 11
87.6264
 21
348.48
  0
LINE
  8
0
 10
87.6264
 20
348.48
 11
87.0726
 21
348.055
  0
LINE
  8
0
 10
87.0726
 20
348.055
 11
86.5114
 21
347.639
  0
LINE
  8
0
 10
86.5114
 20
347.639
 11
85.9431
 21
347.234
  0
LINE
  8
0
 10
85.9431
 20
347.234
 11
85.3677
 21
346.838
  0
LINE
  8
0
 10
85.3677
 20
346.838
 11
84.7856
 21
346.453
  0
LINE
  8
0
 10
84.7856
 20
346.453
 11
84.1968
 21
346.078
  0
LINE
  8
0
 10
84.1968
 20
346.078
 11
83.6015
 21
345.713
  0
LINE
  8
0
 10
83.6015
 20
345.713
 11
83
 21
345.359
  0
LINE
  8
0
 10
83
 20
345.359
 11
82.3924
 21
345.015
  0
LINE
  8
0
 10
82.3924
 20
345.015
 11
81.7789
 21
344.682
  0
LINE
  8
0
 10
81.7789
 20
344.682
 11
81.1596
 21
344.36
  0
LINE
  8
0
 10
81.1596
 20
344.36
 11
80.5348
 21
344.048
  0
LINE
  8
0
 10
80.5348
 20
344.048
 11
79.9047
 21
343.748
  0
LINE
  8
0
 10
79.9047
 20
343.748
 11
79.2695
 21
343.458
  0
LINE
  8
0
 10
79.2695
 20
343.458
 11
78.6292
 21
343.18
  0
LINE
  8
0
 10
78.6292
 20
343.18
 11
77.9843
 21
342.913
  0
LINE
  8
0
 10
77.9843
 20
342.913
 11
77.3347
 21
342.657
  0
LINE
  8
0
 10
77.3347
 20
342.657
 11
76.6808
 21
342.412
  0
LINE
  8
0
 10
76.6808
 20
342.412
 11
76.0227
 21
342.179
  0
LINE
  8
0
 10
76.0227
 20
342.179
 11
75.3607
 21
341.958
  0
LINE
  8
0
 10
75.3607
 20
341.958
 11
74.6949
 21
341.748
  0
LINE
  8
0
 10
74.6949
 20
341.748
 11
74.0255
 21
341.55
  0
LINE
  8
0
 10
74.0255
 20
341.55
 11
73.3528
 21
341.363
  0
LINE
  8
0
 10
73.3528
 20
341.363
 11
72.6769
 21
341.188
  0
LINE
  8
0
 10
72.6769
 20
341.188
 11
71.998
 21
341.025
  0
LINE
  8
0
 10
71.998
 20
341.025
 11
71.3165
 21
340.874
  0
LINE
  8
0
 10
71.3165
 20
340.874
 11
70.6324
 21
340.735
  0
LINE
  8
0
 10
70.6324
 20
340.735
 11
69.9459
 21
340.608
  0
LINE
  8
0
 10
69.9459
 20
340.608
 11
69.2574
 21
340.492
  0
LINE
  8
0
 10
69.2574
 20
340.492
 11
68.5669
 21
340.389
  0
LINE
  8
0
 10
68.5669
 20
340.389
 11
67.8748
 21
340.298
  0
LINE
  8
0
 10
67.8748
 20
340.298
 11
67.1811
 21
340.219
  0
LINE
  8
0
 10
67.1811
 20
340.219
 11
66.4862
 21
340.152
  0
LINE
  8
0
 10
66.4862
 20
340.152
 11
65.7903
 21
340.097
  0
LINE
  8
0
 10
65.7903
 20
340.097
 11
65.0934
 21
340.055
  0
LINE
  8
0
 10
65.0934
 20
340.055
 11
64.396
 21
340.024
  0
LINE
  8
0
 10
64.396
 20
340.024
 11
63.6981
 21
340.006
  0
LINE
  8
0
 10
63.6981
 20
340.006
 11
63
 21
340
  0
LINE
  8
0
 10
63
 20
340
 11
62.3019
 21
340.006
  0
LINE
  8
0
 10
13
 20
304
 11
12.8604
 21
304.002
  0
LINE
  8
0
 10
12.8604
 20
304.002
 11
12.721
 21
304.01
  0
LINE
  8
0
 10
12.721
 20
304.01
 11
12.5819
 21
304.022
  0
LINE
  8
0
 10
12.5819
 20
304.022
 11
12.4433
 21
304.039
  0
LINE
  8
0
 10
12.4433
 20
304.039
 11
12.3054
 21
304.061
  0
LINE
  8
0
 10
12.3054
 20
304.061
 11
12.1684
 21
304.087
  0
LINE
  8
0
 10
12.1684
 20
304.087
 11
12.0323
 21
304.119
  0
LINE
  8
0
 10
12.0323
 20
304.119
 11
11.8974
 21
304.155
  0
LINE
  8
0
 10
11.8974
 20
304.155
 11
11.7639
 21
304.196
  0
LINE
  8
0
 10
11.7639
 20
304.196
 11
11.6319
 21
304.241
  0
LINE
  8
0
 10
11.6319
 20
304.241
 11
11.5016
 21
304.291
  0
LINE
  8
0
 10
11.5016
 20
304.291
 11
11.373
 21
304.346
  0
LINE
  8
0
 10
11.373
 20
304.346
 11
11.2465
 21
304.405
  0
LINE
  8
0
 10
11.2465
 20
304.405
 11
11.1221
 21
304.468
  0
LINE
  8
0
 10
11.1221
 20
304.468
 11
11
 21
304.536
  0
LINE
  8
0
 10
11
 20
304.536
 11
10.8803
 21
304.608
  0
LINE
  8
0
 10
10.8803
 20
304.608
 11
10.7632
 21
304.684
  0
LINE
  8
0
 10
10.7632
 20
304.684
 11
10.6488
 21
304.764
  0
LINE
  8
0
 10
10.6488
 20
304.764
 11
10.5374
 21
304.848
  0
LINE
  8
0
 10
10.5374
 20
304.848
 11
10.4288
 21
304.936
  0
LINE
  8
0
 10
10.4288
 20
304.936
 11
10.3235
 21
305.027
  0
LINE
  8
0
 10
10.3235
 20
305.027
 11
10.2214
 21
305.123
  0
LINE
  8
0
 10
10.2214
 20
305.123
 11
10.1226
 21
305.221
  0
LINE
  8
0
 10
10.1226
 20
305.221
 11
10.0274
 21
305.323
  0
LINE
  8
0
 10
10.0274
 20
305.323
 11
9.93582
 21
305.429
  0
LINE
  8
0
 10
9.93582
 20
305.429
 11
9.84795
 21
305.537
  0
LINE
  8
0
 10
9.84795
 20
305.537
 11
9.76393
 21
305.649
  0
LINE
  8
0
 10
9.76393
 20
305.649
 11
9.68384
 21
305.763
  0
LINE
  8
0
 10
9.68384
 20
305.763
 11
9.6078
 21
305.88
  0
LINE
  8
0
 10
9.6078
 20
305.88
 11
9.53589
 21
306
  0
LINE
  8
0
 10
9.53589
 20
306
 11
9.4682
 21
306.122
  0
LINE
  8
0
 10
9.4682
 20
306.122
 11
9.40482
 21
306.247
  0
LINE
  8
0
 10
9.40482
 20
306.247
 11
9.34581
 21
306.373
  0
LINE
  8
0
 10
9.34581
 20
306.373
 11
9.29126
 21
306.502
  0
LINE
  8
0
 10
9.29126
 20
306.502
 11
9.24123
 21
306.632
  0
LINE
  8
0
 10
9.24123
 20
306.632
 11
9.19577
 21
306.764
  0
LINE
  8
0
 10
9.19577
 20
306.764
 11
9.15495
 21
306.897
  0
LINE
  8
0
 10
9.15495
 20
306.897
 11
9.1188
 21
307.032
  0
LINE
  8
0
 10
9.1188
 20
307.032
 11
9.0874
 21
307.168
  0
LINE
  8
0
 10
9.0874
 20
307.168
 11
9.06076
 21
307.305
  0
LINE
  8
0
 10
9.06076
 20
307.305
 11
9.03893
 21
307.443
  0
LINE
  8
0
 10
9.03893
 20
307.443
 11
9.02191
 21
307.582
  0
LINE
  8
0
 10
9.02191
 20
307.582
 11
9.00974
 21
307.721
  0
LINE
  8
0
 10
9.00974
 20
307.721
 11
9.00243
 21
307.86
  0
LINE
  8
0
 10
9.00243
 20
307.86
 11
9
 21
308
  0
LINE
  8
0
 10
9
 20
308
 11
9.00243
 21
308.14
  0
LINE
  8
0
 10
9.00243
 20
308.14
 11
9.00974
 21
308.279
  0
LINE
  8
0
 10
9.00974
 20
308.279
 11
9.02191
 21
308.418
  0
LINE
  8
0
 10
9.02191
 20
308.418
 11
9.03893
 21
308.557
  0
LINE
  8
0
 10
9.03893
 20
308.557
 11
9.06076
 21
308.695
  0
LINE
  8
0
 10
9.06076
 20
308.695
 11
9.0874
 21
308.832
  0
LINE
  8
0
 10
9.0874
 20
308.832
 11
9.1188
 21
308.968
  0
LINE
  8
0
 10
9.1188
 20
308.968
 11
9.15495
 21
309.103
  0
LINE
  8
0
 10
9.15495
 20
309.103
 11
9.19577
 21
309.236
  0
LINE
  8
0
 10
9.19577
 20
309.236
 11
9.24123
 21
309.368
  0
LINE
  8
0
 10
9.24123
 20
309.368
 11
9.29126
 21
309.498
  0
LINE
  8
0
 10
9.29126
 20
309.498
 11
9.34581
 21
309.627
  0
LINE
  8
0
 10
9.34581
 20
309.627
 11
9.40482
 21
309.753
  0
LINE
  8
0
 10
9.40482
 20
309.753
 11
9.4682
 21
309.878
  0
LINE
  8
0
 10
9.4682
 20
309.878
 11
9.53589
 21
310
  0
LINE
  8
0
 10
9.53589
 20
310
 11
9.6078
 21
310.12
  0
LINE
  8
0
 10
9.6078
 20
310.12
 11
9.68384
 21
310.237
  0
LINE
  8
0
 10
9.68384
 20
310.237
 11
9.76393
 21
310.351
  0
LINE
  8
0
 10
9.76393
 20
310.351
 11
9.84795
 21
310.463
  0
LINE
  8
0
 10
9.84795
 20
310.463
 11
9.93582
 21
310.571
  0
LINE
  8
0
 10
9.93582
 20
310.571
 11
10.0274
 21
310.677
  0
LINE
  8
0
 10
10.0274
 20
310.677
 11
10.1226
 21
310.779
  0
LINE
  8
0
 10
10.1226
 20
310.779
 11
10.2214
 21
310.877
  0
LINE
  8
0
 10
10.2214
 20
310.877
 11
10.3235
 21
310.973
  0
LINE
  8
0
 10
10.3235
 20
310.973
 11
10.4288
 21
311.064
  0
LINE
  8
0
 10
10.4288
 20
311.064
 11
10.5374
 21
311.152
  0
LINE
  8
0
 10
10.5374
 20
311.152
 11
10.6488
 21
311.236
  0
LINE
  8
0
 10
10.6488
 20
311.236
 11
10.7632
 21
311.316
  0
LINE
  8
0
 10
10.7632
 20
311.316
 11
10.8803
 21
311.392
  0
LINE
  8
0
 10
10.8803
 20
311.392
 11
11
 21
311.464
  0
LINE
  8
0
 10
11
 20
311.464
 11
11.1221
 21
311.532
  0
LINE
  8
0
 10
11.1221
 20
311.532
 11
11.2465
 21
311.595
  0
LINE
  8
0
 10
11.2465
 20
311.595
 11
11.373
 21
311.654
  0
LINE
  8
0
 10
11.373
 20
311.654
 11
11.5016
 21
311.709
  0
LINE
  8
0
 10
11.5016
 20
311.709
 11
11.6319
 21
311.759
  0
LINE
  8
0
 10
11.6319
 20
311.759
 11
11.7639
 21
311.804
  0
LINE
  8
0
 10
11.7639
 20
311.804
 11
11.8974
 21
311.845
  0
LINE
  8
0
 10
11.8974
 20
311.845
 11
12.0323
 21
311.881
  0
LINE
  8
0
 10
12.0323
 20
311.881
 11
12.1684
 21
311.913
  0
LINE
  8
0
 10
12.1684
 20
311.913
 11
12.3054
 21
311.939
  0
LINE
  8
0
 10
12.3054
 20
311.939
 11
12.4433
 21
311.961
  0
LINE
  8
0
 10
12.4433
 20
311.961
 11
12.5819
 21
311.978
  0
LINE
  8
0
 10
12.5819
 20
311.978
 11
12.721
 21
311.99
  0
LINE
  8
0
 10
12.721
 20
311.99
 11
12.8604
 21
311.998
  0
LINE
  8
0
 10
12.8604
 20
311.998
 11
13
 21
312
  0
LINE
  8
0
 10
13
 20
312
 11
13.1396
 21
311.998
  0
LINE
  8
0
 10
13.1396
 20
311.998
 11
13.279
 21
311.99
  0
LINE
  8
0
 10
13.279
 20
311.99
 11
13.4181
 21
311.978
  0
LINE
  8
0
 10
13.4181
 20
311.978
 11
13.5567
 21
311.961
  0
LINE
  8
0
 10
13.5567
 20
311.961
 11
13.6946
 21
311.939
  0
LINE
  8
0
 10
13.6946
 20
311.939
 11
13.8316
 21
311.913
  0
LINE
  8
0
 10
13.8316
 20
311.913
 11
13.9677
 21
311.881
  0
LINE
  8
0
 10
13.9677
 20
311.881
 11
14.1025
 21
311.845
  0
LINE
  8
0
 10
14.1025
 20
311.845
 11
14.2361
 21
311.804
  0
LINE
  8
0
 10
14.2361
 20
311.804
 11
14.3681
 21
311.759
  0
LINE
  8
0
 10
14.3681
 20
311.759
 11
14.4984
 21
311.709
  0
LINE
  8
0
 10
14.4984
 20
311.709
 11
14.6269
 21
311.654
  0
LINE
  8
0
 10
14.6269
 20
311.654
 11
14.7535
 21
311.595
  0
LINE
  8
0
 10
14.7535
 20
311.595
 11
14.8779
 21
311.532
  0
LINE
  8
0
 10
14.8779
 20
311.532
 11
15
 21
311.464
  0
LINE
  8
0
 10
15
 20
311.464
 11
15.1197
 21
311.392
  0
LINE
  8
0
 10
15.1197
 20
311.392
 11
15.2368
 21
311.316
  0
LINE
  8
0
 10
15.2368
 20
311.316
 11
15.3511
 21
311.236
  0
LINE
  8
0
 10
15.3511
 20
311.236
 11
15.4626
 21
311.152
  0
LINE
  8
0
 10
15.4626
 20
311.152
 11
15.5711
 21
311.064
  0
LINE
  8
0
 10
15.5711
 20
311.064
 11
15.6765
 21
310.973
  0
LINE
  8
0
 10
15.6765
 20
310.973
 11
15.7786
 21
310.877
  0
LINE
  8
0
 10
15.7786
 20
310.877
 11
15.8773
 21
310.779
  0
LINE
  8
0
 10
15.8773
 20
310.779
 11
15.9726
 21
310.677
  0
LINE
  8
0
 10
15.9726
 20
310.677
 11
16.0642
 21
310.571
  0
LINE
  8
0
 10
16.0642
 20
310.571
 11
16.152
 21
310.463
  0
LINE
  8
0
 10
16.152
 20
310.463
 11
16.2361
 21
310.351
  0
LINE
  8
0
 10
16.2361
 20
310.351
 11
16.3161
 21
310.237
  0
LINE
  8
0
 10
16.3161
 20
310.237
 11
16.3922
 21
310.12
  0
LINE
  8
0
 10
16.3922
 20
310.12
 11
16.4641
 21
310
  0
LINE
  8
0
 10
16.4641
 20
310
 11
16.5318
 21
309.878
  0
LINE
  8
0
 10
16.5318
 20
309.878
 11
16.5952
 21
309.753
  0
LINE
  8
0
 10
16.5952
 20
309.753
 11
16.6542
 21
309.627
  0
LINE
  8
0
 10
16.6542
 20
309.627
 11
16.7087
 21
309.498
  0
LINE
  8
0
 10
16.7087
 20
309.498
 11
16.7588
 21
309.368
  0
LINE
  8
0
 10
16.7588
 20
309.368
 11
16.8042
 21
309.236
  0
LINE
  8
0
 10
16.8042
 20
309.236
 11
16.845
 21
309.103
  0
LINE
  8
0
 10
16.845
 20
309.103
 11
16.8812
 21
308.968
  0
LINE
  8
0
 10
16.8812
 20
308.968
 11
16.9126
 21
308.832
  0
LINE
  8
0
 10
16.9126
 20
308.832
 11
16.9392
 21
308.695
  0
LINE
  8
0
 10
16.9392
 20
308.695
 11
16.9611
 21
308.557
  0
LINE
  8
0
 10
16.9611
 20
308.557
 11
16.9781
 21
308.418
  0
LINE
  8
0
 10
16.9781
 20
308.418
 11
16.9902
 21
308.279
  0
LINE
  8
0
 10
16.9902
 20
308.279
 11
16.9976
 21
308.14
  0
LINE
  8
0
 10
16.9976
 20
308.14
 11
17
 21
308
  0
LINE
  8
0
 10
17
 20
308
 11
16.9976
 21
307.86
  0
LINE
  8
0
 10
16.9976
 20
307.86
 11
16.9902
 21
307.721
  0
LINE
  8
0
 10
16.9902
 20
307.721
 11
16.9781
 21
307.582
  0
LINE
  8
0
 10
16.9781
 20
307.582
 11
16.9611
 21
307.443
  0
LINE
  8
0
 10
16.9611
 20
307.443
 11
16.9392
 21
307.305
  0
LINE
  8
0
 10
16.9392
 20
307.305
 11
16.9126
 21
307.168
  0
LINE
  8
0
 10
16.9126
 20
307.168
 11
16.8812
 21
307.032
  0
LINE
  8
0
 10
16.8812
 20
307.032
 11
16.845
 21
306.897
  0
LINE
  8
0
 10
16.845
 20
306.897
 11
16.8042
 21
306.764
  0
LINE
  8
0
 10
16.8042
 20
306.764
 11
16.7588
 21
306.632
  0
LINE
  8
0
 10
16.7588
 20
306.632
 11
16.7087
 21
306.502
  0
LINE
  8
0
 10
16.7087
 20
306.502
 11
16.6542
 21
306.373
  0
LINE
  8
0
 10
16.6542
 20
306.373
 11
16.5952
 21
306.247
  0
LINE
  8
0
 10
16.5952
 20
306.247
 11
16.5318
 21
306.122
  0
LINE
  8
0
 10
16.5318
 20
306.122
 11
16.4641
 21
306
  0
LINE
  8
0
 10
16.4641
 20
306
 11
16.3922
 21
305.88
  0
LINE
  8
0
 10
16.3922
 20
305.88
 11
16.3161
 21
305.763
  0
LINE
  8
0
 10
16.3161
 20
305.763
 11
16.2361
 21
305.649
  0
LINE
  8
0
 10
16.2361
 20
305.649
 11
16.152
 21
305.537
  0
LINE
  8
0
 10
16.152
 20
305.537
 11
16.0642
 21
305.429
  0
LINE
  8
0
 10
16.0642
 20
305.429
 11
15.9726
 21
305.323
  0
LINE
  8
0
 10
15.9726
 20
305.323
 11
15.8773
 21
305.221
  0
LINE
  8
0
 10
15.8773
 20
305.221
 11
15.7786
 21
305.123
  0
LINE
  8
0
 10
15.7786
 20
305.123
 11
15.6765
 21
305.027
  0
LINE
  8
0
 10
15.6765
 20
305.027
 11
15.5711
 21
304.936
  0
LINE
  8
0
 10
15.5711
 20
304.936
 11
15.4626
 21
304.848
  0
LINE
  8
0
 10
15.4626
 20
304.848
 11
15.3511
 21
304.764
  0
LINE
  8
0
 10
15.3511
 20
304.764
 11
15.2368
 21
304.684
  0
LINE
  8
0
 10
15.2368
 20
304.684
 11
15.1197
 21
304.608
  0
LINE
  8
0
 10
15.1197
 20
304.608
 11
15
 21
304.536
  0
LINE
  8
0
 10
15
 20
304.536
 11
14.8779
 21
304.468
  0
LINE
  8
0
 10
14.8779
 20
304.468
 11
14.7535
 21
304.405
  0
LINE
  8
0
 10
14.7535
 20
304.405
 11
14.6269
 21
304.346
  0
LINE
  8
0
 10
14.6269
 20
304.346
 11
14.4984
 21
304.291
  0
LINE
  8
0
 10
14.4984
 20
304.291
 11
14.3681
 21
304.241
  0
LINE
  8
0
 10
14.3681
 20
304.241
 11
14.2361
 21
304.196
  0
LINE
  8
0
 10
14.2361
 20
304.196
 11
14.1025
 21
304.155
  0
LINE
  8
0
 10
14.1025
 20
304.155
 11
13.9677
 21
304.119
  0
LINE
  8
0
 10
13.9677
 20
304.119
 11
13.8316
 21
304.087
  0
LINE
  8
0
 10
13.8316
 20
304.087
 11
13.6946
 21
304.061
  0
LINE
  8
0
 10
13.6946
 20
304.061
 11
13.5567
 21
304.039
  0
LINE
  8
0
 10
13.5567
 20
304.039
 11
13.4181
 21
304.022
  0
LINE
  8
0
 10
13.4181
 20
304.022
 11
13.279
 21
304.01
  0
LINE
  8
0
 10
13.279
 20
304.01
 11
13.1396
 21
304.002
  0
LINE
  8
0
 10
13.1396
 20
304.002
 11
13
 21
304
  0
ENDSEC
  0
SECTION
  2
OBJECTS
  0
DICTIONARY
  0
ENDSEC
  0
EOF
