  0
SECTION
  2
BLOCKS
  0
ENDSEC
  0
SECTION
  2
ENTITIES
  0
LINE
  8
0
 10
274.173
 20
45.2335
 11
271.769
 21
48.0487
  0
LINE
  8
0
 10
271.769
 20
48.0487
 11
263.998
 21
57.4757
  0
LINE
  8
0
 10
263.998
 20
57.4757
 11
256.392
 21
67.037
  0
LINE
  8
0
 10
256.392
 20
67.037
 11
248.955
 21
76.7295
  0
LINE
  8
0
 10
248.955
 20
76.7295
 11
241.688
 21
86.5503
  0
LINE
  8
0
 10
241.688
 20
86.5503
 11
234.594
 21
96.4965
  0
LINE
  8
0
 10
234.594
 20
96.4965
 11
227.674
 21
106.565
  0
LINE
  8
0
 10
227.674
 20
106.565
 11
220.931
 21
116.753
  0
LINE
  8
0
 10
220.931
 20
116.753
 11
214.366
 21
127.057
  0
LINE
  8
0
 10
214.366
 20
127.057
 11
207.983
 21
137.473
  0
LINE
  8
0
 10
207.983
 20
137.473
 11
201.782
 21
148
  0
LINE
  8
0
 10
201.782
 20
148
 11
195.766
 21
158.633
  0
LINE
  8
0
 10
195.766
 20
158.633
 11
189.937
 21
169.37
  0
LINE
  8
0
 10
189.937
 20
169.37
 11
184.295
 21
180.207
  0
LINE
  8
0
 10
184.295
 20
180.207
 11
178.844
 21
191.14
  0
LINE
  8
0
 10
178.844
 20
191.14
 11
173.585
 21
202.167
  0
LINE
  8
0
 10
173.585
 20
202.167
 11
168.518
 21
213.284
  0
LINE
  8
0
 10
168.518
 20
213.284
 11
163.647
 21
224.488
  0
LINE
  8
0
 10
163.647
 20
224.488
 11
158.971
 21
235.775
  0
LINE
  8
0
 10
158.971
 20
235.775
 11
154.494
 21
247.142
  0
LINE
  8
0
 10
154.494
 20
247.142
 11
150.215
 21
258.586
  0
LINE
  8
0
 10
150.215
 20
258.586
 11
146.137
 21
270.102
  0
LINE
  8
0
 10
146.137
 20
270.102
 11
142.26
 21
281.688
  0
LINE
  8
0
 10
142.26
 20
281.688
 11
138.587
 21
293.34
  0
LINE
  8
0
 10
138.587
 20
293.34
 11
135.117
 21
305.054
  0
LINE
  8
0
 10
135.117
 20
305.054
 11
131.852
 21
316.827
  0
LINE
  8
0
 10
131.852
 20
316.827
 11
128.793
 21
328.655
  0
LINE
  8
0
 10
128.793
 20
328.655
 11
125.941
 21
340.534
  0
LINE
  8
0
 10
125.941
 20
340.534
 11
123.297
 21
352.462
  0
LINE
  8
0
 10
123.297
 20
352.462
 11
122.984
 21
354
  0
LINE
  8
0
 10
122.984
 20
354
 11
0
 21
354
  0
LINE
  8
0
 10
0
 20
354
 11
0
 21
0
  0
LINE
  8
0
 10
0
 20
0
 11
40.001
 21
0
  0
LINE
  8
0
 10
40.001
 20
0
 11
40.6573
 21
1.20882
  0
LINE
  8
0
 10
40.6573
 20
1.20882
 11
41.3878
 21
2.49998
  0
LINE
  8
0
 10
41.3878
 20
2.49998
 11
42.1408
 21
3.77823
  0
LINE
  8
0
 10
42.1408
 20
3.77823
 11
42.9159
 21
5.04314
  0
LINE
  8
0
 10
42.9159
 20
5.04314
 11
43.713
 21
6.29431
  0
LINE
  8
0
 10
43.713
 20
6.29431
 11
44.5318
 21
7.53139
  0
LINE
  8
0
 10
44.5318
 20
7.53139
 11
45.3721
 21
8.75398
  0
LINE
  8
0
 10
45.3721
 20
8.75398
 11
46.2336
 21
9.96175
  0
LINE
  8
0
 10
46.2336
 20
9.96175
 11
47.116
 21
11.1543
  0
LINE
  8
0
 10
47.116
 20
11.1543
 11
48.0191
 21
12.3312
  0
LINE
  8
0
 10
48.0191
 20
12.3312
 11
48.9426
 21
13.4922
  0
LINE
  8
0
 10
48.9426
 20
13.4922
 11
49.8862
 21
14.6369
  0
LINE
  8
0
 10
49.8862
 20
14.6369
 11
50.8497
 21
15.765
  0
LINE
  8
0
 10
50.8497
 20
15.765
 11
51.8327
 21
16.8761
  0
LINE
  8
0
 10
51.8327
 20
16.8761
 11
52.8349
 21
17.9698
  0
LINE
  8
0
 10
52.8349
 20
17.9698
 11
53.8561
 21
19.046
  0
LINE
  8
0
 10
53.8561
 20
19.046
 11
54.8959
 21
20.1041
  0
LINE
  8
0
 10
54.8959
 20
20.1041
 11
55.954
 21
21.1439
  0
LINE
  8
0
 10
55.954
 20
21.1439
 11
57.0301
 21
22.1651
  0
LINE
  8
0
 10
57.0301
 20
22.1651
 11
58.1239
 21
23.1673
  0
LINE
  8
0
 10
58.1239
 20
23.1673
 11
59.235
 21
24.1503
  0
LINE
  8
0
 10
59.235
 20
24.1503
 11
60.3631
 21
25.1138
  0
LINE
  8
0
 10
60.3631
 20
25.1138
 11
61.5078
 21
26.0574
  0
LINE
  8
0
 10
61.5078
 20
26.0574
 11
62.6688
 21
26.9809
  0
LINE
  8
0
 10
62.6688
 20
26.9809
 11
63.8457
 21
27.884
  0
LINE
  8
0
 10
63.8457
 20
27.884
 11
65.0382
 21
28.7664
  0
LINE
  8
0
 10
65.0382
 20
28.7664
 11
66.246
 21
29.6279
  0
LINE
  8
0
 10
66.246
 20
29.6279
 11
67.4686
 21
30.4682
  0
LINE
  8
0
 10
67.4686
 20
30.4682
 11
68.7057
 21
31.287
  0
LINE
  8
0
 10
68.7057
 20
31.287
 11
69.9568
 21
32.0841
  0
LINE
  8
0
 10
69.9568
 20
32.0841
 11
71.2218
 21
32.8592
  0
LINE
  8
0
 10
71.2218
 20
32.8592
 11
72.5
 21
33.6122
  0
LINE
  8
0
 10
72.5
 20
33.6122
 11
73.7912
 21
34.3427
  0
LINE
  8
0
 10
73.7912
 20
34.3427
 11
75.0949
 21
35.0505
  0
LINE
  8
0
 10
75.0949
 20
35.0505
 11
76.4108
 21
35.7355
  0
LINE
  8
0
 10
76.4108
 20
35.7355
 11
77.7384
 21
36.3975
  0
LINE
  8
0
 10
77.7384
 20
36.3975
 11
79.0774
 21
37.0361
  0
LINE
  8
0
 10
79.0774
 20
37.0361
 11
80.4274
 21
37.6514
  0
LINE
  8
0
 10
80.4274
 20
37.6514
 11
81.7878
 21
38.2429
  0
LINE
  8
0
 10
81.7878
 20
38.2429
 11
83.1584
 21
38.8106
  0
LINE
  8
0
 10
83.1584
 20
38.8106
 11
84.5387
 21
39.3543
  0
LINE
  8
0
 10
84.5387
 20
39.3543
 11
85.9283
 21
39.8739
  0
LINE
  8
0
 10
85.9283
 20
39.8739
 11
87.3267
 21
40.3691
  0
LINE
  8
0
 10
87.3267
 20
40.3691
 11
88.7336
 21
40.8398
  0
LINE
  8
0
 10
88.7336
 20
40.8398
 11
90.1484
 21
41.2859
  0
LINE
  8
0
 10
90.1484
 20
41.2859
 11
91.5708
 21
41.7072
  0
LINE
  8
0
 10
91.5708
 20
41.7072
 11
93.0004
 21
42.1037
  0
LINE
  8
0
 10
93.0004
 20
42.1037
 11
94.4366
 21
42.4751
  0
LINE
  8
0
 10
94.4366
 20
42.4751
 11
95.8792
 21
42.8214
  0
LINE
  8
0
 10
95.8792
 20
42.8214
 11
97.3275
 21
43.1425
  0
LINE
  8
0
 10
97.3275
 20
43.1425
 11
98.7812
 21
43.4383
  0
LINE
  8
0
 10
98.7812
 20
43.4383
 11
100.24
 21
43.7086
  0
LINE
  8
0
 10
100.24
 20
43.7086
 11
101.703
 21
43.9535
  0
LINE
  8
0
 10
101.703
 20
43.9535
 11
103.17
 21
44.1728
  0
LINE
  8
0
 10
103.17
 20
44.1728
 11
104.641
 21
44.3664
  0
LINE
  8
0
 10
104.641
 20
44.3664
 11
106.115
 21
44.5343
  0
LINE
  8
0
 10
106.115
 20
44.5343
 11
107.592
 21
44.6765
  0
LINE
  8
0
 10
107.592
 20
44.6765
 11
109.071
 21
44.7929
  0
LINE
  8
0
 10
109.071
 20
44.7929
 11
110.551
 21
44.8835
  0
LINE
  8
0
 10
110.551
 20
44.8835
 11
112.034
 21
44.9482
  0
LINE
  8
0
 10
112.034
 20
44.9482
 11
113.517
 21
44.987
  0
LINE
  8
0
 10
113.517
 20
44.987
 11
115
 21
45
  0
LINE
  8
0
 10
115
 20
45
 11
116.483
 21
44.987
  0
LINE
  8
0
 10
116.483
 20
44.987
 11
117.966
 21
44.9482
  0
LINE
  8
0
 10
117.966
 20
44.9482
 11
119.449
 21
44.8835
  0
LINE
  8
0
 10
119.449
 20
44.8835
 11
120.929
 21
44.7929
  0
LINE
  8
0
 10
120.929
 20
44.7929
 11
122.408
 21
44.6765
  0
LINE
  8
0
 10
122.408
 20
44.6765
 11
123.885
 21
44.5343
  0
LINE
  8
0
 10
123.885
 20
44.5343
 11
125.359
 21
44.3664
  0
LINE
  8
0
 10
125.359
 20
44.3664
 11
126.83
 21
44.1728
  0
LINE
  8
0
 10
126.83
 20
44.1728
 11
128.297
 21
43.9535
  0
LINE
  8
0
 10
128.297
 20
43.9535
 11
129.76
 21
43.7086
  0
LINE
  8
0
 10
129.76
 20
43.7086
 11
131.219
 21
43.4383
  0
LINE
  8
0
 10
131.219
 20
43.4383
 11
132.672
 21
43.1425
  0
LINE
  8
0
 10
132.672
 20
43.1425
 11
134.121
 21
42.8214
  0
LINE
  8
0
 10
134.121
 20
42.8214
 11
135.563
 21
42.4751
  0
LINE
  8
0
 10
135.563
 20
42.4751
 11
137
 21
42.1037
  0
LINE
  8
0
 10
137
 20
42.1037
 11
138.429
 21
41.7072
  0
LINE
  8
0
 10
138.429
 20
41.7072
 11
139.852
 21
41.2859
  0
LINE
  8
0
 10
139.852
 20
41.2859
 11
141.266
 21
40.8398
  0
LINE
  8
0
 10
141.266
 20
40.8398
 11
142.673
 21
40.3691
  0
LINE
  8
0
 10
142.673
 20
40.3691
 11
144.072
 21
39.8739
  0
LINE
  8
0
 10
144.072
 20
39.8739
 11
145.461
 21
39.3543
  0
LINE
  8
0
 10
145.461
 20
39.3543
 11
146.842
 21
38.8106
  0
LINE
  8
0
 10
146.842
 20
38.8106
 11
148.212
 21
38.2429
  0
LINE
  8
0
 10
148.212
 20
38.2429
 11
149.573
 21
37.6514
  0
LINE
  8
0
 10
149.573
 20
37.6514
 11
150.923
 21
37.0361
  0
LINE
  8
0
 10
150.923
 20
37.0361
 11
152.262
 21
36.3975
  0
LINE
  8
0
 10
152.262
 20
36.3975
 11
153.589
 21
35.7355
  0
LINE
  8
0
 10
153.589
 20
35.7355
 11
154.905
 21
35.0505
  0
LINE
  8
0
 10
154.905
 20
35.0505
 11
156.209
 21
34.3427
  0
LINE
  8
0
 10
156.209
 20
34.3427
 11
157.5
 21
33.6122
  0
LINE
  8
0
 10
157.5
 20
33.6122
 11
158.778
 21
32.8592
  0
LINE
  8
0
 10
158.778
 20
32.8592
 11
160.043
 21
32.0841
  0
LINE
  8
0
 10
160.043
 20
32.0841
 11
161.294
 21
31.287
  0
LINE
  8
0
 10
161.294
 20
31.287
 11
162.531
 21
30.4682
  0
LINE
  8
0
 10
162.531
 20
30.4682
 11
163.754
 21
29.6279
  0
LINE
  8
0
 10
163.754
 20
29.6279
 11
164.962
 21
28.7664
  0
LINE
  8
0
 10
164.962
 20
28.7664
 11
166.154
 21
27.884
  0
LINE
  8
0
 10
166.154
 20
27.884
 11
167.331
 21
26.9809
  0
LINE
  8
0
 10
167.331
 20
26.9809
 11
168.492
 21
26.0574
  0
LINE
  8
0
 10
168.492
 20
26.0574
 11
169.637
 21
25.1138
  0
LINE
  8
0
 10
169.637
 20
25.1138
 11
170.765
 21
24.1503
  0
LINE
  8
0
 10
170.765
 20
24.1503
 11
171.876
 21
23.1673
  0
LINE
  8
0
 10
171.876
 20
23.1673
 11
172.97
 21
22.1651
  0
LINE
  8
0
 10
172.97
 20
22.1651
 11
174.046
 21
21.1439
  0
LINE
  8
0
 10
174.046
 20
21.1439
 11
175.104
 21
20.1041
  0
LINE
  8
0
 10
175.104
 20
20.1041
 11
176.144
 21
19.046
  0
LINE
  8
0
 10
176.144
 20
19.046
 11
177.165
 21
17.9698
  0
LINE
  8
0
 10
177.165
 20
17.9698
 11
178.167
 21
16.8761
  0
LINE
  8
0
 10
178.167
 20
16.8761
 11
179.15
 21
15.765
  0
LINE
  8
0
 10
179.15
 20
15.765
 11
180.114
 21
14.6369
  0
LINE
  8
0
 10
180.114
 20
14.6369
 11
181.057
 21
13.4922
  0
LINE
  8
0
 10
181.057
 20
13.4922
 11
181.981
 21
12.3312
  0
LINE
  8
0
 10
181.981
 20
12.3312
 11
182.884
 21
11.1543
  0
LINE
  8
0
 10
182.884
 20
11.1543
 11
183.766
 21
9.96175
  0
LINE
  8
0
 10
183.766
 20
9.96175
 11
184.628
 21
8.75398
  0
LINE
  8
0
 10
184.628
 20
8.75398
 11
185.468
 21
7.53139
  0
LINE
  8
0
 10
185.468
 20
7.53139
 11
186.287
 21
6.29431
  0
LINE
  8
0
 10
186.287
 20
6.29431
 11
187.084
 21
5.04314
  0
LINE
  8
0
 10
187.084
 20
5.04314
 11
187.859
 21
3.77823
  0
LINE
  8
0
 10
187.859
 20
3.77823
 11
188.612
 21
2.49998
  0
LINE
  8
0
 10
188.612
 20
2.49998
 11
189.343
 21
1.20882
  0
LINE
  8
0
 10
189.343
 20
1.20882
 11
189.999
 21
0
  0
LINE
  8
0
 10
189.999
 20
0
 11
230.492
 21
0
  0
LINE
  8
0
 10
230.492
 20
0
 11
274.173
 21
45.2335
  0
LINE
  8
0
 10
13
 20
338
 11
12.8604
 21
338.002
  0
LINE
  8
0
 10
12.8604
 20
338.002
 11
12.721
 21
338.01
  0
LINE
  8
0
 10
12.721
 20
338.01
 11
12.5819
 21
338.022
  0
LINE
  8
0
 10
12.5819
 20
338.022
 11
12.4433
 21
338.039
  0
LINE
  8
0
 10
12.4433
 20
338.039
 11
12.3054
 21
338.061
  0
LINE
  8
0
 10
12.3054
 20
338.061
 11
12.1684
 21
338.087
  0
LINE
  8
0
 10
12.1684
 20
338.087
 11
12.0323
 21
338.119
  0
LINE
  8
0
 10
12.0323
 20
338.119
 11
11.8974
 21
338.155
  0
LINE
  8
0
 10
11.8974
 20
338.155
 11
11.7639
 21
338.196
  0
LINE
  8
0
 10
11.7639
 20
338.196
 11
11.6319
 21
338.241
  0
LINE
  8
0
 10
11.6319
 20
338.241
 11
11.5016
 21
338.291
  0
LINE
  8
0
 10
11.5016
 20
338.291
 11
11.373
 21
338.346
  0
LINE
  8
0
 10
11.373
 20
338.346
 11
11.2465
 21
338.405
  0
LINE
  8
0
 10
11.2465
 20
338.405
 11
11.1221
 21
338.468
  0
LINE
  8
0
 10
11.1221
 20
338.468
 11
11
 21
338.536
  0
LINE
  8
0
 10
11
 20
338.536
 11
10.8803
 21
338.608
  0
LINE
  8
0
 10
10.8803
 20
338.608
 11
10.7632
 21
338.684
  0
LINE
  8
0
 10
10.7632
 20
338.684
 11
10.6488
 21
338.764
  0
LINE
  8
0
 10
10.6488
 20
338.764
 11
10.5374
 21
338.848
  0
LINE
  8
0
 10
10.5374
 20
338.848
 11
10.4288
 21
338.936
  0
LINE
  8
0
 10
10.4288
 20
338.936
 11
10.3235
 21
339.027
  0
LINE
  8
0
 10
10.3235
 20
339.027
 11
10.2214
 21
339.123
  0
LINE
  8
0
 10
10.2214
 20
339.123
 11
10.1226
 21
339.221
  0
LINE
  8
0
 10
10.1226
 20
339.221
 11
10.0274
 21
339.323
  0
LINE
  8
0
 10
10.0274
 20
339.323
 11
9.93582
 21
339.429
  0
LINE
  8
0
 10
9.93582
 20
339.429
 11
9.84795
 21
339.537
  0
LINE
  8
0
 10
9.84795
 20
339.537
 11
9.76393
 21
339.649
  0
LINE
  8
0
 10
9.76393
 20
339.649
 11
9.68384
 21
339.763
  0
LINE
  8
0
 10
9.68384
 20
339.763
 11
9.6078
 21
339.88
  0
LINE
  8
0
 10
9.6078
 20
339.88
 11
9.53589
 21
340
  0
LINE
  8
0
 10
9.53589
 20
340
 11
9.4682
 21
340.122
  0
LINE
  8
0
 10
9.4682
 20
340.122
 11
9.40482
 21
340.247
  0
LINE
  8
0
 10
9.40482
 20
340.247
 11
9.34581
 21
340.373
  0
LINE
  8
0
 10
9.34581
 20
340.373
 11
9.29126
 21
340.502
  0
LINE
  8
0
 10
9.29126
 20
340.502
 11
9.24123
 21
340.632
  0
LINE
  8
0
 10
9.24123
 20
340.632
 11
9.19577
 21
340.764
  0
LINE
  8
0
 10
9.19577
 20
340.764
 11
9.15495
 21
340.897
  0
LINE
  8
0
 10
9.15495
 20
340.897
 11
9.1188
 21
341.032
  0
LINE
  8
0
 10
9.1188
 20
341.032
 11
9.0874
 21
341.168
  0
LINE
  8
0
 10
9.0874
 20
341.168
 11
9.06076
 21
341.305
  0
LINE
  8
0
 10
9.06076
 20
341.305
 11
9.03893
 21
341.443
  0
LINE
  8
0
 10
9.03893
 20
341.443
 11
9.02191
 21
341.582
  0
LINE
  8
0
 10
9.02191
 20
341.582
 11
9.00974
 21
341.721
  0
LINE
  8
0
 10
9.00974
 20
341.721
 11
9.00243
 21
341.86
  0
LINE
  8
0
 10
9.00243
 20
341.86
 11
9
 21
342
  0
LINE
  8
0
 10
9
 20
342
 11
9.00243
 21
342.14
  0
LINE
  8
0
 10
9.00243
 20
342.14
 11
9.00974
 21
342.279
  0
LINE
  8
0
 10
9.00974
 20
342.279
 11
9.02191
 21
342.418
  0
LINE
  8
0
 10
9.02191
 20
342.418
 11
9.03893
 21
342.557
  0
LINE
  8
0
 10
9.03893
 20
342.557
 11
9.06076
 21
342.695
  0
LINE
  8
0
 10
9.06076
 20
342.695
 11
9.0874
 21
342.832
  0
LINE
  8
0
 10
9.0874
 20
342.832
 11
9.1188
 21
342.968
  0
LINE
  8
0
 10
9.1188
 20
342.968
 11
9.15495
 21
343.103
  0
LINE
  8
0
 10
9.15495
 20
343.103
 11
9.19577
 21
343.236
  0
LINE
  8
0
 10
9.19577
 20
343.236
 11
9.24123
 21
343.368
  0
LINE
  8
0
 10
9.24123
 20
343.368
 11
9.29126
 21
343.498
  0
LINE
  8
0
 10
9.29126
 20
343.498
 11
9.34581
 21
343.627
  0
LINE
  8
0
 10
9.34581
 20
343.627
 11
9.40482
 21
343.753
  0
LINE
  8
0
 10
9.40482
 20
343.753
 11
9.4682
 21
343.878
  0
LINE
  8
0
 10
9.4682
 20
343.878
 11
9.53589
 21
344
  0
LINE
  8
0
 10
9.53589
 20
344
 11
9.6078
 21
344.12
  0
LINE
  8
0
 10
9.6078
 20
344.12
 11
9.68384
 21
344.237
  0
LINE
  8
0
 10
9.68384
 20
344.237
 11
9.76393
 21
344.351
  0
LINE
  8
0
 10
9.76393
 20
344.351
 11
9.84795
 21
344.463
  0
LINE
  8
0
 10
9.84795
 20
344.463
 11
9.93582
 21
344.571
  0
LINE
  8
0
 10
9.93582
 20
344.571
 11
10.0274
 21
344.677
  0
LINE
  8
0
 10
10.0274
 20
344.677
 11
10.1226
 21
344.779
  0
LINE
  8
0
 10
10.1226
 20
344.779
 11
10.2214
 21
344.877
  0
LINE
  8
0
 10
10.2214
 20
344.877
 11
10.3235
 21
344.973
  0
LINE
  8
0
 10
10.3235
 20
344.973
 11
10.4288
 21
345.064
  0
LINE
  8
0
 10
10.4288
 20
345.064
 11
10.5374
 21
345.152
  0
LINE
  8
0
 10
10.5374
 20
345.152
 11
10.6488
 21
345.236
  0
LINE
  8
0
 10
10.6488
 20
345.236
 11
10.7632
 21
345.316
  0
LINE
  8
0
 10
10.7632
 20
345.316
 11
10.8803
 21
345.392
  0
LINE
  8
0
 10
10.8803
 20
345.392
 11
11
 21
345.464
  0
LINE
  8
0
 10
11
 20
345.464
 11
11.1221
 21
345.532
  0
LINE
  8
0
 10
11.1221
 20
345.532
 11
11.2465
 21
345.595
  0
LINE
  8
0
 10
11.2465
 20
345.595
 11
11.373
 21
345.654
  0
LINE
  8
0
 10
11.373
 20
345.654
 11
11.5016
 21
345.709
  0
LINE
  8
0
 10
11.5016
 20
345.709
 11
11.6319
 21
345.759
  0
LINE
  8
0
 10
11.6319
 20
345.759
 11
11.7639
 21
345.804
  0
LINE
  8
0
 10
11.7639
 20
345.804
 11
11.8974
 21
345.845
  0
LINE
  8
0
 10
11.8974
 20
345.845
 11
12.0323
 21
345.881
  0
LINE
  8
0
 10
12.0323
 20
345.881
 11
12.1684
 21
345.913
  0
LINE
  8
0
 10
12.1684
 20
345.913
 11
12.3054
 21
345.939
  0
LINE
  8
0
 10
12.3054
 20
345.939
 11
12.4433
 21
345.961
  0
LINE
  8
0
 10
12.4433
 20
345.961
 11
12.5819
 21
345.978
  0
LINE
  8
0
 10
12.5819
 20
345.978
 11
12.721
 21
345.99
  0
LINE
  8
0
 10
12.721
 20
345.99
 11
12.8604
 21
345.998
  0
LINE
  8
0
 10
12.8604
 20
345.998
 11
13
 21
346
  0
LINE
  8
0
 10
13
 20
346
 11
13.1396
 21
345.998
  0
LINE
  8
0
 10
13.1396
 20
345.998
 11
13.279
 21
345.99
  0
LINE
  8
0
 10
13.279
 20
345.99
 11
13.4181
 21
345.978
  0
LINE
  8
0
 10
13.4181
 20
345.978
 11
13.5567
 21
345.961
  0
LINE
  8
0
 10
13.5567
 20
345.961
 11
13.6946
 21
345.939
  0
LINE
  8
0
 10
13.6946
 20
345.939
 11
13.8316
 21
345.913
  0
LINE
  8
0
 10
13.8316
 20
345.913
 11
13.9677
 21
345.881
  0
LINE
  8
0
 10
13.9677
 20
345.881
 11
14.1025
 21
345.845
  0
LINE
  8
0
 10
14.1025
 20
345.845
 11
14.2361
 21
345.804
  0
LINE
  8
0
 10
14.2361
 20
345.804
 11
14.3681
 21
345.759
  0
LINE
  8
0
 10
14.3681
 20
345.759
 11
14.4984
 21
345.709
  0
LINE
  8
0
 10
14.4984
 20
345.709
 11
14.6269
 21
345.654
  0
LINE
  8
0
 10
14.6269
 20
345.654
 11
14.7535
 21
345.595
  0
LINE
  8
0
 10
14.7535
 20
345.595
 11
14.8779
 21
345.532
  0
LINE
  8
0
 10
14.8779
 20
345.532
 11
15
 21
345.464
  0
LINE
  8
0
 10
15
 20
345.464
 11
15.1197
 21
345.392
  0
LINE
  8
0
 10
15.1197
 20
345.392
 11
15.2368
 21
345.316
  0
LINE
  8
0
 10
15.2368
 20
345.316
 11
15.3511
 21
345.236
  0
LINE
  8
0
 10
15.3511
 20
345.236
 11
15.4626
 21
345.152
  0
LINE
  8
0
 10
15.4626
 20
345.152
 11
15.5711
 21
345.064
  0
LINE
  8
0
 10
15.5711
 20
345.064
 11
15.6765
 21
344.973
  0
LINE
  8
0
 10
15.6765
 20
344.973
 11
15.7786
 21
344.877
  0
LINE
  8
0
 10
15.7786
 20
344.877
 11
15.8773
 21
344.779
  0
LINE
  8
0
 10
15.8773
 20
344.779
 11
15.9726
 21
344.677
  0
LINE
  8
0
 10
15.9726
 20
344.677
 11
16.0642
 21
344.571
  0
LINE
  8
0
 10
16.0642
 20
344.571
 11
16.152
 21
344.463
  0
LINE
  8
0
 10
16.152
 20
344.463
 11
16.2361
 21
344.351
  0
LINE
  8
0
 10
16.2361
 20
344.351
 11
16.3161
 21
344.237
  0
LINE
  8
0
 10
16.3161
 20
344.237
 11
16.3922
 21
344.12
  0
LINE
  8
0
 10
16.3922
 20
344.12
 11
16.4641
 21
344
  0
LINE
  8
0
 10
16.4641
 20
344
 11
16.5318
 21
343.878
  0
LINE
  8
0
 10
16.5318
 20
343.878
 11
16.5952
 21
343.753
  0
LINE
  8
0
 10
16.5952
 20
343.753
 11
16.6542
 21
343.627
  0
LINE
  8
0
 10
16.6542
 20
343.627
 11
16.7087
 21
343.498
  0
LINE
  8
0
 10
16.7087
 20
343.498
 11
16.7588
 21
343.368
  0
LINE
  8
0
 10
16.7588
 20
343.368
 11
16.8042
 21
343.236
  0
LINE
  8
0
 10
16.8042
 20
343.236
 11
16.845
 21
343.103
  0
LINE
  8
0
 10
16.845
 20
343.103
 11
16.8812
 21
342.968
  0
LINE
  8
0
 10
16.8812
 20
342.968
 11
16.9126
 21
342.832
  0
LINE
  8
0
 10
16.9126
 20
342.832
 11
16.9392
 21
342.695
  0
LINE
  8
0
 10
16.9392
 20
342.695
 11
16.9611
 21
342.557
  0
LINE
  8
0
 10
16.9611
 20
342.557
 11
16.9781
 21
342.418
  0
LINE
  8
0
 10
16.9781
 20
342.418
 11
16.9902
 21
342.279
  0
LINE
  8
0
 10
16.9902
 20
342.279
 11
16.9976
 21
342.14
  0
LINE
  8
0
 10
16.9976
 20
342.14
 11
17
 21
342
  0
LINE
  8
0
 10
17
 20
342
 11
16.9976
 21
341.86
  0
LINE
  8
0
 10
16.9976
 20
341.86
 11
16.9902
 21
341.721
  0
LINE
  8
0
 10
16.9902
 20
341.721
 11
16.9781
 21
341.582
  0
LINE
  8
0
 10
16.9781
 20
341.582
 11
16.9611
 21
341.443
  0
LINE
  8
0
 10
16.9611
 20
341.443
 11
16.9392
 21
341.305
  0
LINE
  8
0
 10
16.9392
 20
341.305
 11
16.9126
 21
341.168
  0
LINE
  8
0
 10
16.9126
 20
341.168
 11
16.8812
 21
341.032
  0
LINE
  8
0
 10
16.8812
 20
341.032
 11
16.845
 21
340.897
  0
LINE
  8
0
 10
16.845
 20
340.897
 11
16.8042
 21
340.764
  0
LINE
  8
0
 10
16.8042
 20
340.764
 11
16.7588
 21
340.632
  0
LINE
  8
0
 10
16.7588
 20
340.632
 11
16.7087
 21
340.502
  0
LINE
  8
0
 10
16.7087
 20
340.502
 11
16.6542
 21
340.373
  0
LINE
  8
0
 10
16.6542
 20
340.373
 11
16.5952
 21
340.247
  0
LINE
  8
0
 10
16.5952
 20
340.247
 11
16.5318
 21
340.122
  0
LINE
  8
0
 10
16.5318
 20
340.122
 11
16.4641
 21
340
  0
LINE
  8
0
 10
16.4641
 20
340
 11
16.3922
 21
339.88
  0
LINE
  8
0
 10
16.3922
 20
339.88
 11
16.3161
 21
339.763
  0
LINE
  8
0
 10
16.3161
 20
339.763
 11
16.2361
 21
339.649
  0
LINE
  8
0
 10
16.2361
 20
339.649
 11
16.152
 21
339.537
  0
LINE
  8
0
 10
16.152
 20
339.537
 11
16.0642
 21
339.429
  0
LINE
  8
0
 10
16.0642
 20
339.429
 11
15.9726
 21
339.323
  0
LINE
  8
0
 10
15.9726
 20
339.323
 11
15.8773
 21
339.221
  0
LINE
  8
0
 10
15.8773
 20
339.221
 11
15.7786
 21
339.123
  0
LINE
  8
0
 10
15.7786
 20
339.123
 11
15.6765
 21
339.027
  0
LINE
  8
0
 10
15.6765
 20
339.027
 11
15.5711
 21
338.936
  0
LINE
  8
0
 10
15.5711
 20
338.936
 11
15.4626
 21
338.848
  0
LINE
  8
0
 10
15.4626
 20
338.848
 11
15.3511
 21
338.764
  0
LINE
  8
0
 10
15.3511
 20
338.764
 11
15.2368
 21
338.684
  0
LINE
  8
0
 10
15.2368
 20
338.684
 11
15.1197
 21
338.608
  0
LINE
  8
0
 10
15.1197
 20
338.608
 11
15
 21
338.536
  0
LINE
  8
0
 10
15
 20
338.536
 11
14.8779
 21
338.468
  0
LINE
  8
0
 10
14.8779
 20
338.468
 11
14.7535
 21
338.405
  0
LINE
  8
0
 10
14.7535
 20
338.405
 11
14.6269
 21
338.346
  0
LINE
  8
0
 10
14.6269
 20
338.346
 11
14.4984
 21
338.291
  0
LINE
  8
0
 10
14.4984
 20
338.291
 11
14.3681
 21
338.241
  0
LINE
  8
0
 10
14.3681
 20
338.241
 11
14.2361
 21
338.196
  0
LINE
  8
0
 10
14.2361
 20
338.196
 11
14.1025
 21
338.155
  0
LINE
  8
0
 10
14.1025
 20
338.155
 11
13.9677
 21
338.119
  0
LINE
  8
0
 10
13.9677
 20
338.119
 11
13.8316
 21
338.087
  0
LINE
  8
0
 10
13.8316
 20
338.087
 11
13.6946
 21
338.061
  0
LINE
  8
0
 10
13.6946
 20
338.061
 11
13.5567
 21
338.039
  0
LINE
  8
0
 10
13.5567
 20
338.039
 11
13.4181
 21
338.022
  0
LINE
  8
0
 10
13.4181
 20
338.022
 11
13.279
 21
338.01
  0
LINE
  8
0
 10
13.279
 20
338.01
 11
13.1396
 21
338.002
  0
LINE
  8
0
 10
13.1396
 20
338.002
 11
13
 21
338
  0
LINE
  8
0
 10
81.8659
 20
326.157
 11
110.145
 21
337.583
  0
LINE
  8
0
 10
110.145
 20
337.583
 11
178.698
 21
167.908
  0
LINE
  8
0
 10
178.698
 20
167.908
 11
150.419
 21
156.482
  0
LINE
  8
0
 10
150.419
 20
156.482
 11
81.8659
 21
326.157
  0
LINE
  8
0
 10
13.206
 20
290.017
 11
13.0687
 21
290.035
  0
LINE
  8
0
 10
13.0687
 20
290.035
 11
12.9335
 21
290.065
  0
LINE
  8
0
 10
12.9335
 20
290.065
 11
12.8014
 21
290.106
  0
LINE
  8
0
 10
12.8014
 20
290.106
 11
12.6734
 21
290.159
  0
LINE
  8
0
 10
12.6734
 20
290.159
 11
12.5506
 21
290.223
  0
LINE
  8
0
 10
12.5506
 20
290.223
 11
12.4338
 21
290.298
  0
LINE
  8
0
 10
12.4338
 20
290.298
 11
12.3239
 21
290.382
  0
LINE
  8
0
 10
12.3239
 20
290.382
 11
12.2218
 21
290.476
  0
LINE
  8
0
 10
12.2218
 20
290.476
 11
12.1283
 21
290.578
  0
LINE
  8
0
 10
12.1283
 20
290.578
 11
12.044
 21
290.688
  0
LINE
  8
0
 10
12.044
 20
290.688
 11
11.9695
 21
290.804
  0
LINE
  8
0
 10
11.9695
 20
290.804
 11
11.9056
 21
290.927
  0
LINE
  8
0
 10
11.9056
 20
290.927
 11
11.8526
 21
291.055
  0
LINE
  8
0
 10
11.8526
 20
291.055
 11
11.811
 21
291.187
  0
LINE
  8
0
 10
11.811
 20
291.187
 11
11.781
 21
291.323
  0
LINE
  8
0
 10
11.781
 20
291.323
 11
11.7629
 21
291.46
  0
LINE
  8
0
 10
11.7629
 20
291.46
 11
11.7569
 21
291.598
  0
LINE
  8
0
 10
11.7569
 20
291.598
 11
11.7629
 21
291.737
  0
LINE
  8
0
 10
11.7629
 20
291.737
 11
11.781
 21
291.874
  0
LINE
  8
0
 10
11.781
 20
291.874
 11
11.811
 21
292.009
  0
LINE
  8
0
 10
11.811
 20
292.009
 11
11.8526
 21
292.141
  0
LINE
  8
0
 10
11.8526
 20
292.141
 11
11.9056
 21
292.269
  0
LINE
  8
0
 10
11.9056
 20
292.269
 11
11.9695
 21
292.392
  0
LINE
  8
0
 10
11.9695
 20
292.392
 11
12.044
 21
292.509
  0
LINE
  8
0
 10
12.044
 20
292.509
 11
12.1283
 21
292.619
  0
LINE
  8
0
 10
12.1283
 20
292.619
 11
12.2218
 21
292.721
  0
LINE
  8
0
 10
12.2218
 20
292.721
 11
12.3239
 21
292.814
  0
LINE
  8
0
 10
12.3239
 20
292.814
 11
12.4338
 21
292.899
  0
LINE
  8
0
 10
12.4338
 20
292.899
 11
12.5506
 21
292.973
  0
LINE
  8
0
 10
12.5506
 20
292.973
 11
12.6734
 21
293.037
  0
LINE
  8
0
 10
12.6734
 20
293.037
 11
12.8014
 21
293.09
  0
LINE
  8
0
 10
12.8014
 20
293.09
 11
12.9335
 21
293.132
  0
LINE
  8
0
 10
12.9335
 20
293.132
 11
13.0687
 21
293.162
  0
LINE
  8
0
 10
13.0687
 20
293.162
 11
13.206
 21
293.18
  0
LINE
  8
0
 10
13.206
 20
293.18
 11
13.3444
 21
293.186
  0
LINE
  8
0
 10
13.3444
 20
293.186
 11
13.4827
 21
293.18
  0
LINE
  8
0
 10
13.4827
 20
293.18
 11
13.62
 21
293.162
  0
LINE
  8
0
 10
13.62
 20
293.162
 11
13.7552
 21
293.132
  0
LINE
  8
0
 10
13.7552
 20
293.132
 11
13.8873
 21
293.09
  0
LINE
  8
0
 10
13.8873
 20
293.09
 11
14.0153
 21
293.037
  0
LINE
  8
0
 10
14.0153
 20
293.037
 11
14.1381
 21
292.973
  0
LINE
  8
0
 10
14.1381
 20
292.973
 11
14.2549
 21
292.899
  0
LINE
  8
0
 10
14.2549
 20
292.899
 11
14.3648
 21
292.814
  0
LINE
  8
0
 10
14.3648
 20
292.814
 11
14.4669
 21
292.721
  0
LINE
  8
0
 10
14.4669
 20
292.721
 11
14.5605
 21
292.619
  0
LINE
  8
0
 10
14.5605
 20
292.619
 11
14.6448
 21
292.509
  0
LINE
  8
0
 10
14.6448
 20
292.509
 11
14.7192
 21
292.392
  0
LINE
  8
0
 10
14.7192
 20
292.392
 11
14.7831
 21
292.269
  0
LINE
  8
0
 10
14.7831
 20
292.269
 11
14.8361
 21
292.141
  0
LINE
  8
0
 10
14.8361
 20
292.141
 11
14.8778
 21
292.009
  0
LINE
  8
0
 10
14.8778
 20
292.009
 11
14.9077
 21
291.874
  0
LINE
  8
0
 10
14.9077
 20
291.874
 11
14.9258
 21
291.737
  0
LINE
  8
0
 10
14.9258
 20
291.737
 11
14.9319
 21
291.598
  0
LINE
  8
0
 10
14.9319
 20
291.598
 11
14.9258
 21
291.46
  0
LINE
  8
0
 10
14.9258
 20
291.46
 11
14.9077
 21
291.323
  0
LINE
  8
0
 10
14.9077
 20
291.323
 11
14.8778
 21
291.187
  0
LINE
  8
0
 10
14.8778
 20
291.187
 11
14.8361
 21
291.055
  0
LINE
  8
0
 10
14.8361
 20
291.055
 11
14.7831
 21
290.927
  0
LINE
  8
0
 10
14.7831
 20
290.927
 11
14.7192
 21
290.804
  0
LINE
  8
0
 10
14.7192
 20
290.804
 11
14.6448
 21
290.688
  0
LINE
  8
0
 10
14.6448
 20
290.688
 11
14.5605
 21
290.578
  0
LINE
  8
0
 10
14.5605
 20
290.578
 11
14.4669
 21
290.476
  0
LINE
  8
0
 10
14.4669
 20
290.476
 11
14.3648
 21
290.382
  0
LINE
  8
0
 10
14.3648
 20
290.382
 11
14.2549
 21
290.298
  0
LINE
  8
0
 10
14.2549
 20
290.298
 11
14.1381
 21
290.223
  0
LINE
  8
0
 10
14.1381
 20
290.223
 11
14.0153
 21
290.159
  0
LINE
  8
0
 10
14.0153
 20
290.159
 11
13.8873
 21
290.106
  0
LINE
  8
0
 10
13.8873
 20
290.106
 11
13.7552
 21
290.065
  0
LINE
  8
0
 10
13.7552
 20
290.065
 11
13.62
 21
290.035
  0
LINE
  8
0
 10
13.62
 20
290.035
 11
13.4827
 21
290.017
  0
LINE
  8
0
 10
13.4827
 20
290.017
 11
13.3444
 21
290.011
  0
LINE
  8
0
 10
13.3444
 20
290.011
 11
13.206
 21
290.017
  0
LINE
  8
0
 10
58.4415
 20
206.005
 11
57.8832
 21
206.019
  0
LINE
  8
0
 10
57.8832
 20
206.019
 11
57.3252
 21
206.044
  0
LINE
  8
0
 10
57.3252
 20
206.044
 11
56.7678
 21
206.078
  0
LINE
  8
0
 10
56.7678
 20
206.078
 11
56.211
 21
206.122
  0
LINE
  8
0
 10
56.211
 20
206.122
 11
55.6551
 21
206.175
  0
LINE
  8
0
 10
55.6551
 20
206.175
 11
55.1002
 21
206.239
  0
LINE
  8
0
 10
55.1002
 20
206.239
 11
54.5464
 21
206.311
  0
LINE
  8
0
 10
54.5464
 20
206.311
 11
53.9941
 21
206.394
  0
LINE
  8
0
 10
53.9941
 20
206.394
 11
53.4433
 21
206.486
  0
LINE
  8
0
 10
53.4433
 20
206.486
 11
52.8941
 21
206.588
  0
LINE
  8
0
 10
52.8941
 20
206.588
 11
52.3468
 21
206.699
  0
LINE
  8
0
 10
52.3468
 20
206.699
 11
51.8016
 21
206.82
  0
LINE
  8
0
 10
51.8016
 20
206.82
 11
51.2585
 21
206.951
  0
LINE
  8
0
 10
51.2585
 20
206.951
 11
50.7178
 21
207.09
  0
LINE
  8
0
 10
50.7178
 20
207.09
 11
50.1796
 21
207.24
  0
LINE
  8
0
 10
50.1796
 20
207.24
 11
49.6441
 21
207.398
  0
LINE
  8
0
 10
49.6441
 20
207.398
 11
49.1115
 21
207.566
  0
LINE
  8
0
 10
49.1115
 20
207.566
 11
48.5818
 21
207.743
  0
LINE
  8
0
 10
48.5818
 20
207.743
 11
48.0553
 21
207.93
  0
LINE
  8
0
 10
48.0553
 20
207.93
 11
47.5322
 21
208.125
  0
LINE
  8
0
 10
47.5322
 20
208.125
 11
47.0126
 21
208.33
  0
LINE
  8
0
 10
47.0126
 20
208.33
 11
46.4966
 21
208.544
  0
LINE
  8
0
 10
46.4966
 20
208.544
 11
45.9844
 21
208.767
  0
LINE
  8
0
 10
45.9844
 20
208.767
 11
45.4762
 21
208.998
  0
LINE
  8
0
 10
45.4762
 20
208.998
 11
44.9721
 21
209.239
  0
LINE
  8
0
 10
44.9721
 20
209.239
 11
44.4723
 21
209.488
  0
LINE
  8
0
 10
44.4723
 20
209.488
 11
43.9769
 21
209.746
  0
LINE
  8
0
 10
43.9769
 20
209.746
 11
43.4861
 21
210.012
  0
LINE
  8
0
 10
43.4861
 20
210.012
 11
43
 21
210.287
  0
LINE
  8
0
 10
43
 20
210.287
 11
42.5188
 21
210.571
  0
LINE
  8
0
 10
42.5188
 20
210.571
 11
42.0426
 21
210.862
  0
LINE
  8
0
 10
42.0426
 20
210.862
 11
41.5715
 21
211.163
  0
LINE
  8
0
 10
41.5715
 20
211.163
 11
41.1058
 21
211.471
  0
LINE
  8
0
 10
41.1058
 20
211.471
 11
40.6456
 21
211.787
  0
LINE
  8
0
 10
40.6456
 20
211.787
 11
40.1909
 21
212.111
  0
LINE
  8
0
 10
40.1909
 20
212.111
 11
39.7419
 21
212.444
  0
LINE
  8
0
 10
39.7419
 20
212.444
 11
39.2988
 21
212.784
  0
LINE
  8
0
 10
39.2988
 20
212.784
 11
38.8617
 21
213.131
  0
LINE
  8
0
 10
38.8617
 20
213.131
 11
38.4308
 21
213.487
  0
LINE
  8
0
 10
38.4308
 20
213.487
 11
38.0061
 21
213.849
  0
LINE
  8
0
 10
38.0061
 20
213.849
 11
37.5878
 21
214.219
  0
LINE
  8
0
 10
37.5878
 20
214.219
 11
37.176
 21
214.597
  0
LINE
  8
0
 10
37.176
 20
214.597
 11
36.7709
 21
214.981
  0
LINE
  8
0
 10
36.7709
 20
214.981
 11
36.3726
 21
215.373
  0
LINE
  8
0
 10
36.3726
 20
215.373
 11
35.9811
 21
215.771
  0
LINE
  8
0
 10
35.9811
 20
215.771
 11
35.5967
 21
216.176
  0
LINE
  8
0
 10
35.5967
 20
216.176
 11
35.2194
 21
216.588
  0
LINE
  8
0
 10
35.2194
 20
216.588
 11
34.8493
 21
217.006
  0
LINE
  8
0
 10
34.8493
 20
217.006
 11
34.4866
 21
217.431
  0
LINE
  8
0
 10
34.4866
 20
217.431
 11
34.1313
 21
217.862
  0
LINE
  8
0
 10
34.1313
 20
217.862
 11
33.7836
 21
218.299
  0
LINE
  8
0
 10
33.7836
 20
218.299
 11
33.4436
 21
218.742
  0
LINE
  8
0
 10
33.4436
 20
218.742
 11
33.1115
 21
219.191
  0
LINE
  8
0
 10
33.1115
 20
219.191
 11
32.7871
 21
219.646
  0
LINE
  8
0
 10
32.7871
 20
219.646
 11
32.4708
 21
220.106
  0
LINE
  8
0
 10
32.4708
 20
220.106
 11
32.1625
 21
220.572
  0
LINE
  8
0
 10
32.1625
 20
220.572
 11
31.8625
 21
221.043
  0
LINE
  8
0
 10
31.8625
 20
221.043
 11
31.5706
 21
221.519
  0
LINE
  8
0
 10
31.5706
 20
221.519
 11
31.2872
 21
222
  0
LINE
  8
0
 10
31.2872
 20
222
 11
31.0122
 21
222.486
  0
LINE
  8
0
 10
31.0122
 20
222.486
 11
30.7457
 21
222.977
  0
LINE
  8
0
 10
30.7457
 20
222.977
 11
30.4878
 21
223.472
  0
LINE
  8
0
 10
30.4878
 20
223.472
 11
30.2386
 21
223.972
  0
LINE
  8
0
 10
30.2386
 20
223.972
 11
29.9981
 21
224.476
  0
LINE
  8
0
 10
29.9981
 20
224.476
 11
29.7665
 21
224.984
  0
LINE
  8
0
 10
29.7665
 20
224.984
 11
29.5438
 21
225.497
  0
LINE
  8
0
 10
29.5438
 20
225.497
 11
29.3301
 21
226.013
  0
LINE
  8
0
 10
29.3301
 20
226.013
 11
29.1254
 21
226.532
  0
LINE
  8
0
 10
29.1254
 20
226.532
 11
28.9298
 21
227.055
  0
LINE
  8
0
 10
28.9298
 20
227.055
 11
28.7434
 21
227.582
  0
LINE
  8
0
 10
28.7434
 20
227.582
 11
28.5662
 21
228.111
  0
LINE
  8
0
 10
28.5662
 20
228.111
 11
28.3982
 21
228.644
  0
LINE
  8
0
 10
28.3982
 20
228.644
 11
28.2396
 21
229.18
  0
LINE
  8
0
 10
28.2396
 20
229.18
 11
28.0904
 21
229.718
  0
LINE
  8
0
 10
28.0904
 20
229.718
 11
27.9505
 21
230.258
  0
LINE
  8
0
 10
27.9505
 20
230.258
 11
27.8201
 21
230.802
  0
LINE
  8
0
 10
27.8201
 20
230.802
 11
27.6993
 21
231.347
  0
LINE
  8
0
 10
27.6993
 20
231.347
 11
27.5879
 21
231.894
  0
LINE
  8
0
 10
27.5879
 20
231.894
 11
27.4861
 21
232.443
  0
LINE
  8
0
 10
27.4861
 20
232.443
 11
27.394
 21
232.994
  0
LINE
  8
0
 10
27.394
 20
232.994
 11
27.3114
 21
233.546
  0
LINE
  8
0
 10
27.3114
 20
233.546
 11
27.2385
 21
234.1
  0
LINE
  8
0
 10
27.2385
 20
234.1
 11
27.1753
 21
234.655
  0
LINE
  8
0
 10
27.1753
 20
234.655
 11
27.1218
 21
235.211
  0
LINE
  8
0
 10
27.1218
 20
235.211
 11
27.0779
 21
235.768
  0
LINE
  8
0
 10
27.0779
 20
235.768
 11
27.0439
 21
236.325
  0
LINE
  8
0
 10
27.0439
 20
236.325
 11
27.0195
 21
236.883
  0
LINE
  8
0
 10
27.0195
 20
236.883
 11
27.0049
 21
237.442
  0
LINE
  8
0
 10
27.0049
 20
237.442
 11
27
 21
238
  0
LINE
  8
0
 10
27
 20
238
 11
27.0049
 21
238.558
  0
LINE
  8
0
 10
27.0049
 20
238.558
 11
27.0195
 21
239.117
  0
LINE
  8
0
 10
27.0195
 20
239.117
 11
27.0439
 21
239.675
  0
LINE
  8
0
 10
27.0439
 20
239.675
 11
27.0779
 21
240.232
  0
LINE
  8
0
 10
27.0779
 20
240.232
 11
27.1218
 21
240.789
  0
LINE
  8
0
 10
27.1218
 20
240.789
 11
27.1753
 21
241.345
  0
LINE
  8
0
 10
27.1753
 20
241.345
 11
27.2385
 21
241.9
  0
LINE
  8
0
 10
27.2385
 20
241.9
 11
27.3114
 21
242.454
  0
LINE
  8
0
 10
27.3114
 20
242.454
 11
27.394
 21
243.006
  0
LINE
  8
0
 10
27.394
 20
243.006
 11
27.4861
 21
243.557
  0
LINE
  8
0
 10
27.4861
 20
243.557
 11
27.5879
 21
244.106
  0
LINE
  8
0
 10
27.5879
 20
244.106
 11
27.6993
 21
244.653
  0
LINE
  8
0
 10
27.6993
 20
244.653
 11
27.8201
 21
245.198
  0
LINE
  8
0
 10
27.8201
 20
245.198
 11
27.9505
 21
245.741
  0
LINE
  8
0
 10
27.9505
 20
245.741
 11
28.0904
 21
246.282
  0
LINE
  8
0
 10
28.0904
 20
246.282
 11
28.2396
 21
246.82
  0
LINE
  8
0
 10
28.2396
 20
246.82
 11
28.3982
 21
247.356
  0
LINE
  8
0
 10
28.3982
 20
247.356
 11
28.5662
 21
247.889
  0
LINE
  8
0
 10
28.5662
 20
247.889
 11
28.7434
 21
248.418
  0
LINE
  8
0
 10
28.7434
 20
248.418
 11
28.9298
 21
248.945
  0
LINE
  8
0
 10
28.9298
 20
248.945
 11
29.1254
 21
249.468
  0
LINE
  8
0
 10
29.1254
 20
249.468
 11
29.3301
 21
249.987
  0
LINE
  8
0
 10
29.3301
 20
249.987
 11
29.5438
 21
250.503
  0
LINE
  8
0
 10
29.5438
 20
250.503
 11
29.7665
 21
251.016
  0
LINE
  8
0
 10
29.7665
 20
251.016
 11
29.9981
 21
251.524
  0
LINE
  8
0
 10
29.9981
 20
251.524
 11
30.2386
 21
252.028
  0
LINE
  8
0
 10
30.2386
 20
252.028
 11
30.4878
 21
252.528
  0
LINE
  8
0
 10
30.4878
 20
252.528
 11
30.7457
 21
253.023
  0
LINE
  8
0
 10
30.7457
 20
253.023
 11
31.0122
 21
253.514
  0
LINE
  8
0
 10
31.0122
 20
253.514
 11
31.2872
 21
254
  0
LINE
  8
0
 10
31.2872
 20
254
 11
31.5706
 21
254.481
  0
LINE
  8
0
 10
31.5706
 20
254.481
 11
31.8625
 21
254.957
  0
LINE
  8
0
 10
31.8625
 20
254.957
 11
32.1625
 21
255.428
  0
LINE
  8
0
 10
32.1625
 20
255.428
 11
32.4708
 21
255.894
  0
LINE
  8
0
 10
32.4708
 20
255.894
 11
32.7871
 21
256.354
  0
LINE
  8
0
 10
32.7871
 20
256.354
 11
33.1115
 21
256.809
  0
LINE
  8
0
 10
33.1115
 20
256.809
 11
33.4436
 21
257.258
  0
LINE
  8
0
 10
33.4436
 20
257.258
 11
33.7836
 21
257.701
  0
LINE
  8
0
 10
33.7836
 20
257.701
 11
34.1313
 21
258.138
  0
LINE
  8
0
 10
34.1313
 20
258.138
 11
34.4866
 21
258.569
  0
LINE
  8
0
 10
34.4866
 20
258.569
 11
34.8493
 21
258.994
  0
LINE
  8
0
 10
34.8493
 20
258.994
 11
35.2194
 21
259.412
  0
LINE
  8
0
 10
35.2194
 20
259.412
 11
35.5967
 21
259.824
  0
LINE
  8
0
 10
35.5967
 20
259.824
 11
35.9811
 21
260.229
  0
LINE
  8
0
 10
35.9811
 20
260.229
 11
36.3726
 21
260.627
  0
LINE
  8
0
 10
36.3726
 20
260.627
 11
36.7709
 21
261.019
  0
LINE
  8
0
 10
36.7709
 20
261.019
 11
37.176
 21
261.403
  0
LINE
  8
0
 10
37.176
 20
261.403
 11
37.5878
 21
261.781
  0
LINE
  8
0
 10
37.5878
 20
261.781
 11
38.0061
 21
262.151
  0
LINE
  8
0
 10
38.0061
 20
262.151
 11
38.4308
 21
262.513
  0
LINE
  8
0
 10
38.4308
 20
262.513
 11
38.8617
 21
262.869
  0
LINE
  8
0
 10
38.8617
 20
262.869
 11
39.2988
 21
263.216
  0
LINE
  8
0
 10
39.2988
 20
263.216
 11
39.7419
 21
263.556
  0
LINE
  8
0
 10
39.7419
 20
263.556
 11
40.1909
 21
263.889
  0
LINE
  8
0
 10
40.1909
 20
263.889
 11
40.6456
 21
264.213
  0
LINE
  8
0
 10
40.6456
 20
264.213
 11
41.1058
 21
264.529
  0
LINE
  8
0
 10
41.1058
 20
264.529
 11
41.5715
 21
264.837
  0
LINE
  8
0
 10
41.5715
 20
264.837
 11
42.0426
 21
265.138
  0
LINE
  8
0
 10
42.0426
 20
265.138
 11
42.5188
 21
265.429
  0
LINE
  8
0
 10
42.5188
 20
265.429
 11
43
 21
265.713
  0
LINE
  8
0
 10
43
 20
265.713
 11
43.4861
 21
265.988
  0
LINE
  8
0
 10
43.4861
 20
265.988
 11
43.9769
 21
266.254
  0
LINE
  8
0
 10
43.9769
 20
266.254
 11
44.4723
 21
266.512
  0
LINE
  8
0
 10
44.4723
 20
266.512
 11
44.9721
 21
266.761
  0
LINE
  8
0
 10
44.9721
 20
266.761
 11
45.4762
 21
267.002
  0
LINE
  8
0
 10
45.4762
 20
267.002
 11
45.9844
 21
267.233
  0
LINE
  8
0
 10
45.9844
 20
267.233
 11
46.4966
 21
267.456
  0
LINE
  8
0
 10
46.4966
 20
267.456
 11
47.0126
 21
267.67
  0
LINE
  8
0
 10
47.0126
 20
267.67
 11
47.5322
 21
267.875
  0
LINE
  8
0
 10
47.5322
 20
267.875
 11
48.0553
 21
268.07
  0
LINE
  8
0
 10
48.0553
 20
268.07
 11
48.5818
 21
268.257
  0
LINE
  8
0
 10
48.5818
 20
268.257
 11
49.1115
 21
268.434
  0
LINE
  8
0
 10
49.1115
 20
268.434
 11
49.6441
 21
268.602
  0
LINE
  8
0
 10
49.6441
 20
268.602
 11
50.1796
 21
268.76
  0
LINE
  8
0
 10
50.1796
 20
268.76
 11
50.7178
 21
268.91
  0
LINE
  8
0
 10
50.7178
 20
268.91
 11
51.2585
 21
269.049
  0
LINE
  8
0
 10
51.2585
 20
269.049
 11
51.8016
 21
269.18
  0
LINE
  8
0
 10
51.8016
 20
269.18
 11
52.3468
 21
269.301
  0
LINE
  8
0
 10
52.3468
 20
269.301
 11
52.8941
 21
269.412
  0
LINE
  8
0
 10
52.8941
 20
269.412
 11
53.4433
 21
269.514
  0
LINE
  8
0
 10
53.4433
 20
269.514
 11
53.9941
 21
269.606
  0
LINE
  8
0
 10
53.9941
 20
269.606
 11
54.5464
 21
269.689
  0
LINE
  8
0
 10
54.5464
 20
269.689
 11
55.1002
 21
269.761
  0
LINE
  8
0
 10
55.1002
 20
269.761
 11
55.6551
 21
269.825
  0
LINE
  8
0
 10
55.6551
 20
269.825
 11
56.211
 21
269.878
  0
LINE
  8
0
 10
56.211
 20
269.878
 11
56.7678
 21
269.922
  0
LINE
  8
0
 10
56.7678
 20
269.922
 11
57.3252
 21
269.956
  0
LINE
  8
0
 10
57.3252
 20
269.956
 11
57.8832
 21
269.98
  0
LINE
  8
0
 10
57.8832
 20
269.98
 11
58.4415
 21
269.995
  0
LINE
  8
0
 10
58.4415
 20
269.995
 11
59
 21
270
  0
LINE
  8
0
 10
59
 20
270
 11
59.5585
 21
269.995
  0
LINE
  8
0
 10
59.5585
 20
269.995
 11
60.1168
 21
269.98
  0
LINE
  8
0
 10
60.1168
 20
269.98
 11
60.6747
 21
269.956
  0
LINE
  8
0
 10
60.6747
 20
269.956
 11
61.2322
 21
269.922
  0
LINE
  8
0
 10
61.2322
 20
269.922
 11
61.789
 21
269.878
  0
LINE
  8
0
 10
61.789
 20
269.878
 11
62.3449
 21
269.825
  0
LINE
  8
0
 10
62.3449
 20
269.825
 11
62.8998
 21
269.761
  0
LINE
  8
0
 10
62.8998
 20
269.761
 11
63.4535
 21
269.689
  0
LINE
  8
0
 10
63.4535
 20
269.689
 11
64.0059
 21
269.606
  0
LINE
  8
0
 10
64.0059
 20
269.606
 11
64.5567
 21
269.514
  0
LINE
  8
0
 10
64.5567
 20
269.514
 11
65.1059
 21
269.412
  0
LINE
  8
0
 10
65.1059
 20
269.412
 11
65.6532
 21
269.301
  0
LINE
  8
0
 10
65.6532
 20
269.301
 11
66.1984
 21
269.18
  0
LINE
  8
0
 10
66.1984
 20
269.18
 11
66.7415
 21
269.049
  0
LINE
  8
0
 10
66.7415
 20
269.049
 11
67.2822
 21
268.91
  0
LINE
  8
0
 10
67.2822
 20
268.91
 11
67.8204
 21
268.76
  0
LINE
  8
0
 10
67.8204
 20
268.76
 11
68.3559
 21
268.602
  0
LINE
  8
0
 10
68.3559
 20
268.602
 11
68.8885
 21
268.434
  0
LINE
  8
0
 10
68.8885
 20
268.434
 11
69.4182
 21
268.257
  0
LINE
  8
0
 10
69.4182
 20
268.257
 11
69.9446
 21
268.07
  0
LINE
  8
0
 10
69.9446
 20
268.07
 11
70.4678
 21
267.875
  0
LINE
  8
0
 10
70.4678
 20
267.875
 11
70.9874
 21
267.67
  0
LINE
  8
0
 10
70.9874
 20
267.67
 11
71.5034
 21
267.456
  0
LINE
  8
0
 10
71.5034
 20
267.456
 11
72.0156
 21
267.233
  0
LINE
  8
0
 10
72.0156
 20
267.233
 11
72.5238
 21
267.002
  0
LINE
  8
0
 10
72.5238
 20
267.002
 11
73.0279
 21
266.761
  0
LINE
  8
0
 10
73.0279
 20
266.761
 11
73.5277
 21
266.512
  0
LINE
  8
0
 10
73.5277
 20
266.512
 11
74.0231
 21
266.254
  0
LINE
  8
0
 10
74.0231
 20
266.254
 11
74.5139
 21
265.988
  0
LINE
  8
0
 10
74.5139
 20
265.988
 11
75
 21
265.713
  0
LINE
  8
0
 10
75
 20
265.713
 11
75.4812
 21
265.429
  0
LINE
  8
0
 10
75.4812
 20
265.429
 11
75.9574
 21
265.138
  0
LINE
  8
0
 10
75.9574
 20
265.138
 11
76.4284
 21
264.837
  0
LINE
  8
0
 10
76.4284
 20
264.837
 11
76.8942
 21
264.529
  0
LINE
  8
0
 10
76.8942
 20
264.529
 11
77.3544
 21
264.213
  0
LINE
  8
0
 10
77.3544
 20
264.213
 11
77.8091
 21
263.889
  0
LINE
  8
0
 10
77.8091
 20
263.889
 11
78.2581
 21
263.556
  0
LINE
  8
0
 10
78.2581
 20
263.556
 11
78.7012
 21
263.216
  0
LINE
  8
0
 10
78.7012
 20
263.216
 11
79.1382
 21
262.869
  0
LINE
  8
0
 10
79.1382
 20
262.869
 11
79.5692
 21
262.513
  0
LINE
  8
0
 10
79.5692
 20
262.513
 11
79.9939
 21
262.151
  0
LINE
  8
0
 10
79.9939
 20
262.151
 11
80.4122
 21
261.781
  0
LINE
  8
0
 10
80.4122
 20
261.781
 11
80.8239
 21
261.403
  0
LINE
  8
0
 10
80.8239
 20
261.403
 11
81.2291
 21
261.019
  0
LINE
  8
0
 10
81.2291
 20
261.019
 11
81.6274
 21
260.627
  0
LINE
  8
0
 10
81.6274
 20
260.627
 11
82.0189
 21
260.229
  0
LINE
  8
0
 10
82.0189
 20
260.229
 11
82.4033
 21
259.824
  0
LINE
  8
0
 10
82.4033
 20
259.824
 11
82.7806
 21
259.412
  0
LINE
  8
0
 10
82.7806
 20
259.412
 11
83.1507
 21
258.994
  0
LINE
  8
0
 10
83.1507
 20
258.994
 11
83.5134
 21
258.569
  0
LINE
  8
0
 10
83.5134
 20
258.569
 11
83.8687
 21
258.138
  0
LINE
  8
0
 10
83.8687
 20
258.138
 11
84.2163
 21
257.701
  0
LINE
  8
0
 10
84.2163
 20
257.701
 11
84.5563
 21
257.258
  0
LINE
  8
0
 10
84.5563
 20
257.258
 11
84.8885
 21
256.809
  0
LINE
  8
0
 10
84.8885
 20
256.809
 11
85.2129
 21
256.354
  0
LINE
  8
0
 10
85.2129
 20
256.354
 11
85.5292
 21
255.894
  0
LINE
  8
0
 10
85.5292
 20
255.894
 11
85.8374
 21
255.428
  0
LINE
  8
0
 10
85.8374
 20
255.428
 11
86.1375
 21
254.957
  0
LINE
  8
0
 10
86.1375
 20
254.957
 11
86.4294
 21
254.481
  0
LINE
  8
0
 10
86.4294
 20
254.481
 11
86.7128
 21
254
  0
LINE
  8
0
 10
86.7128
 20
254
 11
86.9878
 21
253.514
  0
LINE
  8
0
 10
86.9878
 20
253.514
 11
87.2543
 21
253.023
  0
LINE
  8
0
 10
87.2543
 20
253.023
 11
87.5122
 21
252.528
  0
LINE
  8
0
 10
87.5122
 20
252.528
 11
87.7614
 21
252.028
  0
LINE
  8
0
 10
87.7614
 20
252.028
 11
88.0018
 21
251.524
  0
LINE
  8
0
 10
88.0018
 20
251.524
 11
88.2334
 21
251.016
  0
LINE
  8
0
 10
88.2334
 20
251.016
 11
88.4561
 21
250.503
  0
LINE
  8
0
 10
88.4561
 20
250.503
 11
88.6699
 21
249.987
  0
LINE
  8
0
 10
88.6699
 20
249.987
 11
88.8746
 21
249.468
  0
LINE
  8
0
 10
88.8746
 20
249.468
 11
89.0702
 21
248.945
  0
LINE
  8
0
 10
89.0702
 20
248.945
 11
89.2566
 21
248.418
  0
LINE
  8
0
 10
89.2566
 20
248.418
 11
89.4338
 21
247.889
  0
LINE
  8
0
 10
89.4338
 20
247.889
 11
89.6017
 21
247.356
  0
LINE
  8
0
 10
89.6017
 20
247.356
 11
89.7604
 21
246.82
  0
LINE
  8
0
 10
89.7604
 20
246.82
 11
89.9096
 21
246.282
  0
LINE
  8
0
 10
89.9096
 20
246.282
 11
90.0495
 21
245.741
  0
LINE
  8
0
 10
90.0495
 20
245.741
 11
90.1798
 21
245.198
  0
LINE
  8
0
 10
90.1798
 20
245.198
 11
90.3007
 21
244.653
  0
LINE
  8
0
 10
90.3007
 20
244.653
 11
90.4121
 21
244.106
  0
LINE
  8
0
 10
90.4121
 20
244.106
 11
90.5138
 21
243.557
  0
LINE
  8
0
 10
90.5138
 20
243.557
 11
90.606
 21
243.006
  0
LINE
  8
0
 10
90.606
 20
243.006
 11
90.6886
 21
242.454
  0
LINE
  8
0
 10
90.6886
 20
242.454
 11
90.7615
 21
241.9
  0
LINE
  8
0
 10
90.7615
 20
241.9
 11
90.8247
 21
241.345
  0
LINE
  8
0
 10
90.8247
 20
241.345
 11
90.8782
 21
240.789
  0
LINE
  8
0
 10
90.8782
 20
240.789
 11
90.922
 21
240.232
  0
LINE
  8
0
 10
90.922
 20
240.232
 11
90.9561
 21
239.675
  0
LINE
  8
0
 10
90.9561
 20
239.675
 11
90.9805
 21
239.117
  0
LINE
  8
0
 10
90.9805
 20
239.117
 11
90.9951
 21
238.558
  0
LINE
  8
0
 10
90.9951
 20
238.558
 11
91
 21
238
  0
LINE
  8
0
 10
91
 20
238
 11
90.9951
 21
237.442
  0
LINE
  8
0
 10
90.9951
 20
237.442
 11
90.9805
 21
236.883
  0
LINE
  8
0
 10
90.9805
 20
236.883
 11
90.9561
 21
236.325
  0
LINE
  8
0
 10
90.9561
 20
236.325
 11
90.922
 21
235.768
  0
LINE
  8
0
 10
90.922
 20
235.768
 11
90.8782
 21
235.211
  0
LINE
  8
0
 10
90.8782
 20
235.211
 11
90.8247
 21
234.655
  0
LINE
  8
0
 10
90.8247
 20
234.655
 11
90.7615
 21
234.1
  0
LINE
  8
0
 10
90.7615
 20
234.1
 11
90.6886
 21
233.546
  0
LINE
  8
0
 10
90.6886
 20
233.546
 11
90.606
 21
232.994
  0
LINE
  8
0
 10
90.606
 20
232.994
 11
90.5138
 21
232.443
  0
LINE
  8
0
 10
90.5138
 20
232.443
 11
90.4121
 21
231.894
  0
LINE
  8
0
 10
90.4121
 20
231.894
 11
90.3007
 21
231.347
  0
LINE
  8
0
 10
90.3007
 20
231.347
 11
90.1798
 21
230.802
  0
LINE
  8
0
 10
90.1798
 20
230.802
 11
90.0495
 21
230.258
  0
LINE
  8
0
 10
90.0495
 20
230.258
 11
89.9096
 21
229.718
  0
LINE
  8
0
 10
89.9096
 20
229.718
 11
89.7604
 21
229.18
  0
LINE
  8
0
 10
89.7604
 20
229.18
 11
89.6017
 21
228.644
  0
LINE
  8
0
 10
89.6017
 20
228.644
 11
89.4338
 21
228.111
  0
LINE
  8
0
 10
89.4338
 20
228.111
 11
89.2566
 21
227.582
  0
LINE
  8
0
 10
89.2566
 20
227.582
 11
89.0702
 21
227.055
  0
LINE
  8
0
 10
89.0702
 20
227.055
 11
88.8746
 21
226.532
  0
LINE
  8
0
 10
88.8746
 20
226.532
 11
88.6699
 21
226.013
  0
LINE
  8
0
 10
88.6699
 20
226.013
 11
88.4561
 21
225.497
  0
LINE
  8
0
 10
88.4561
 20
225.497
 11
88.2334
 21
224.984
  0
LINE
  8
0
 10
88.2334
 20
224.984
 11
88.0018
 21
224.476
  0
LINE
  8
0
 10
88.0018
 20
224.476
 11
87.7614
 21
223.972
  0
LINE
  8
0
 10
87.7614
 20
223.972
 11
87.5122
 21
223.472
  0
LINE
  8
0
 10
87.5122
 20
223.472
 11
87.2543
 21
222.977
  0
LINE
  8
0
 10
87.2543
 20
222.977
 11
86.9878
 21
222.486
  0
LINE
  8
0
 10
86.9878
 20
222.486
 11
86.7128
 21
222
  0
LINE
  8
0
 10
86.7128
 20
222
 11
86.4294
 21
221.519
  0
LINE
  8
0
 10
86.4294
 20
221.519
 11
86.1375
 21
221.043
  0
LINE
  8
0
 10
86.1375
 20
221.043
 11
85.8374
 21
220.572
  0
LINE
  8
0
 10
85.8374
 20
220.572
 11
85.5292
 21
220.106
  0
LINE
  8
0
 10
85.5292
 20
220.106
 11
85.2129
 21
219.646
  0
LINE
  8
0
 10
85.2129
 20
219.646
 11
84.8885
 21
219.191
  0
LINE
  8
0
 10
84.8885
 20
219.191
 11
84.5563
 21
218.742
  0
LINE
  8
0
 10
84.5563
 20
218.742
 11
84.2163
 21
218.299
  0
LINE
  8
0
 10
84.2163
 20
218.299
 11
83.8687
 21
217.862
  0
LINE
  8
0
 10
83.8687
 20
217.862
 11
83.5134
 21
217.431
  0
LINE
  8
0
 10
83.5134
 20
217.431
 11
83.1507
 21
217.006
  0
LINE
  8
0
 10
83.1507
 20
217.006
 11
82.7806
 21
216.588
  0
LINE
  8
0
 10
82.7806
 20
216.588
 11
82.4033
 21
216.176
  0
LINE
  8
0
 10
82.4033
 20
216.176
 11
82.0189
 21
215.771
  0
LINE
  8
0
 10
82.0189
 20
215.771
 11
81.6274
 21
215.373
  0
LINE
  8
0
 10
81.6274
 20
215.373
 11
81.2291
 21
214.981
  0
LINE
  8
0
 10
81.2291
 20
214.981
 11
80.8239
 21
214.597
  0
LINE
  8
0
 10
80.8239
 20
214.597
 11
80.4122
 21
214.219
  0
LINE
  8
0
 10
80.4122
 20
214.219
 11
79.9939
 21
213.849
  0
LINE
  8
0
 10
79.9939
 20
213.849
 11
79.5692
 21
213.487
  0
LINE
  8
0
 10
79.5692
 20
213.487
 11
79.1382
 21
213.131
  0
LINE
  8
0
 10
79.1382
 20
213.131
 11
78.7012
 21
212.784
  0
LINE
  8
0
 10
78.7012
 20
212.784
 11
78.2581
 21
212.444
  0
LINE
  8
0
 10
78.2581
 20
212.444
 11
77.8091
 21
212.111
  0
LINE
  8
0
 10
77.8091
 20
212.111
 11
77.3544
 21
211.787
  0
LINE
  8
0
 10
77.3544
 20
211.787
 11
76.8942
 21
211.471
  0
LINE
  8
0
 10
76.8942
 20
211.471
 11
76.4284
 21
211.163
  0
LINE
  8
0
 10
76.4284
 20
211.163
 11
75.9574
 21
210.862
  0
LINE
  8
0
 10
75.9574
 20
210.862
 11
75.4812
 21
210.571
  0
LINE
  8
0
 10
75.4812
 20
210.571
 11
75
 21
210.287
  0
LINE
  8
0
 10
75
 20
210.287
 11
74.5139
 21
210.012
  0
LINE
  8
0
 10
74.5139
 20
210.012
 11
74.0231
 21
209.746
  0
LINE
  8
0
 10
74.0231
 20
209.746
 11
73.5277
 21
209.488
  0
LINE
  8
0
 10
73.5277
 20
209.488
 11
73.0279
 21
209.239
  0
LINE
  8
0
 10
73.0279
 20
209.239
 11
72.5238
 21
208.998
  0
LINE
  8
0
 10
72.5238
 20
208.998
 11
72.0156
 21
208.767
  0
LINE
  8
0
 10
72.0156
 20
208.767
 11
71.5034
 21
208.544
  0
LINE
  8
0
 10
71.5034
 20
208.544
 11
70.9874
 21
208.33
  0
LINE
  8
0
 10
70.9874
 20
208.33
 11
70.4678
 21
208.125
  0
LINE
  8
0
 10
70.4678
 20
208.125
 11
69.9446
 21
207.93
  0
LINE
  8
0
 10
69.9446
 20
207.93
 11
69.4182
 21
207.743
  0
LINE
  8
0
 10
69.4182
 20
207.743
 11
68.8885
 21
207.566
  0
LINE
  8
0
 10
68.8885
 20
207.566
 11
68.3559
 21
207.398
  0
LINE
  8
0
 10
68.3559
 20
207.398
 11
67.8204
 21
207.24
  0
LINE
  8
0
 10
67.8204
 20
207.24
 11
67.2822
 21
207.09
  0
LINE
  8
0
 10
67.2822
 20
207.09
 11
66.7415
 21
206.951
  0
LINE
  8
0
 10
66.7415
 20
206.951
 11
66.1984
 21
206.82
  0
LINE
  8
0
 10
66.1984
 20
206.82
 11
65.6532
 21
206.699
  0
LINE
  8
0
 10
65.6532
 20
206.699
 11
65.1059
 21
206.588
  0
LINE
  8
0
 10
65.1059
 20
206.588
 11
64.5567
 21
206.486
  0
LINE
  8
0
 10
64.5567
 20
206.486
 11
64.0059
 21
206.394
  0
LINE
  8
0
 10
64.0059
 20
206.394
 11
63.4535
 21
206.311
  0
LINE
  8
0
 10
63.4535
 20
206.311
 11
62.8998
 21
206.239
  0
LINE
  8
0
 10
62.8998
 20
206.239
 11
62.3449
 21
206.175
  0
LINE
  8
0
 10
62.3449
 20
206.175
 11
61.789
 21
206.122
  0
LINE
  8
0
 10
61.789
 20
206.122
 11
61.2322
 21
206.078
  0
LINE
  8
0
 10
61.2322
 20
206.078
 11
60.6747
 21
206.044
  0
LINE
  8
0
 10
60.6747
 20
206.044
 11
60.1168
 21
206.019
  0
LINE
  8
0
 10
60.1168
 20
206.019
 11
59.5585
 21
206.005
  0
LINE
  8
0
 10
59.5585
 20
206.005
 11
59
 21
206
  0
LINE
  8
0
 10
59
 20
206
 11
58.4415
 21
206.005
  0
LINE
  8
0
 10
11.7567
 20
242.129
 11
11.6193
 21
242.146
  0
LINE
  8
0
 10
11.6193
 20
242.146
 11
11.4838
 21
242.175
  0
LINE
  8
0
 10
11.4838
 20
242.175
 11
11.3514
 21
242.215
  0
LINE
  8
0
 10
11.3514
 20
242.215
 11
11.2229
 21
242.267
  0
LINE
  8
0
 10
11.2229
 20
242.267
 11
11.0996
 21
242.33
  0
LINE
  8
0
 10
11.0996
 20
242.33
 11
10.9821
 21
242.403
  0
LINE
  8
0
 10
10.9821
 20
242.403
 11
10.8715
 21
242.486
  0
LINE
  8
0
 10
10.8715
 20
242.486
 11
10.7686
 21
242.579
  0
LINE
  8
0
 10
10.7686
 20
242.579
 11
10.6741
 21
242.68
  0
LINE
  8
0
 10
10.6741
 20
242.68
 11
10.5889
 21
242.79
  0
LINE
  8
0
 10
10.5889
 20
242.79
 11
10.5135
 21
242.906
  0
LINE
  8
0
 10
10.5135
 20
242.906
 11
10.4484
 21
243.028
  0
LINE
  8
0
 10
10.4484
 20
243.028
 11
10.3943
 21
243.155
  0
LINE
  8
0
 10
10.3943
 20
243.155
 11
10.3515
 21
243.287
  0
LINE
  8
0
 10
10.3515
 20
243.287
 11
10.3204
 21
243.422
  0
LINE
  8
0
 10
10.3204
 20
243.422
 11
10.3011
 21
243.559
  0
LINE
  8
0
 10
10.3011
 20
243.559
 11
10.2938
 21
243.698
  0
LINE
  8
0
 10
10.2938
 20
243.698
 11
10.2987
 21
243.836
  0
LINE
  8
0
 10
10.2987
 20
243.836
 11
10.3156
 21
243.973
  0
LINE
  8
0
 10
10.3156
 20
243.973
 11
10.3444
 21
244.109
  0
LINE
  8
0
 10
10.3444
 20
244.109
 11
10.3848
 21
244.241
  0
LINE
  8
0
 10
10.3848
 20
244.241
 11
10.4367
 21
244.37
  0
LINE
  8
0
 10
10.4367
 20
244.37
 11
10.4996
 21
244.493
  0
LINE
  8
0
 10
10.4996
 20
244.493
 11
10.573
 21
244.611
  0
LINE
  8
0
 10
10.573
 20
244.611
 11
10.6563
 21
244.721
  0
LINE
  8
0
 10
10.6563
 20
244.721
 11
10.749
 21
244.824
  0
LINE
  8
0
 10
10.749
 20
244.824
 11
10.8503
 21
244.919
  0
LINE
  8
0
 10
10.8503
 20
244.919
 11
10.9594
 21
245.004
  0
LINE
  8
0
 10
10.9594
 20
245.004
 11
11.0756
 21
245.079
  0
LINE
  8
0
 10
11.0756
 20
245.079
 11
11.1978
 21
245.144
  0
LINE
  8
0
 10
11.1978
 20
245.144
 11
11.3253
 21
245.198
  0
LINE
  8
0
 10
11.3253
 20
245.198
 11
11.457
 21
245.241
  0
LINE
  8
0
 10
11.457
 20
245.241
 11
11.592
 21
245.272
  0
LINE
  8
0
 10
11.592
 20
245.272
 11
11.7291
 21
245.292
  0
LINE
  8
0
 10
11.7291
 20
245.292
 11
11.8674
 21
245.299
  0
LINE
  8
0
 10
11.8674
 20
245.299
 11
12.0058
 21
245.294
  0
LINE
  8
0
 10
12.0058
 20
245.294
 11
12.1433
 21
245.277
  0
LINE
  8
0
 10
12.1433
 20
245.277
 11
12.2788
 21
245.248
  0
LINE
  8
0
 10
12.2788
 20
245.248
 11
12.4112
 21
245.208
  0
LINE
  8
0
 10
12.4112
 20
245.208
 11
12.5396
 21
245.156
  0
LINE
  8
0
 10
12.5396
 20
245.156
 11
12.663
 21
245.093
  0
LINE
  8
0
 10
12.663
 20
245.093
 11
12.7805
 21
245.02
  0
LINE
  8
0
 10
12.7805
 20
245.02
 11
12.8911
 21
244.936
  0
LINE
  8
0
 10
12.8911
 20
244.936
 11
12.994
 21
244.844
  0
LINE
  8
0
 10
12.994
 20
244.844
 11
13.0884
 21
244.742
  0
LINE
  8
0
 10
13.0884
 20
244.742
 11
13.1737
 21
244.633
  0
LINE
  8
0
 10
13.1737
 20
244.633
 11
13.2491
 21
244.517
  0
LINE
  8
0
 10
13.2491
 20
244.517
 11
13.3141
 21
244.395
  0
LINE
  8
0
 10
13.3141
 20
244.395
 11
13.3683
 21
244.267
  0
LINE
  8
0
 10
13.3683
 20
244.267
 11
13.4111
 21
244.136
  0
LINE
  8
0
 10
13.4111
 20
244.136
 11
13.4422
 21
244.001
  0
LINE
  8
0
 10
13.4422
 20
244.001
 11
13.4615
 21
243.864
  0
LINE
  8
0
 10
13.4615
 20
243.864
 11
13.4687
 21
243.725
  0
LINE
  8
0
 10
13.4687
 20
243.725
 11
13.4639
 21
243.587
  0
LINE
  8
0
 10
13.4639
 20
243.587
 11
13.447
 21
243.449
  0
LINE
  8
0
 10
13.447
 20
243.449
 11
13.4182
 21
243.314
  0
LINE
  8
0
 10
13.4182
 20
243.314
 11
13.3777
 21
243.182
  0
LINE
  8
0
 10
13.3777
 20
243.182
 11
13.3259
 21
243.053
  0
LINE
  8
0
 10
13.3259
 20
243.053
 11
13.263
 21
242.93
  0
LINE
  8
0
 10
13.263
 20
242.93
 11
13.1896
 21
242.812
  0
LINE
  8
0
 10
13.1896
 20
242.812
 11
13.1062
 21
242.702
  0
LINE
  8
0
 10
13.1062
 20
242.702
 11
13.0136
 21
242.599
  0
LINE
  8
0
 10
13.0136
 20
242.599
 11
12.9123
 21
242.504
  0
LINE
  8
0
 10
12.9123
 20
242.504
 11
12.8031
 21
242.419
  0
LINE
  8
0
 10
12.8031
 20
242.419
 11
12.687
 21
242.344
  0
LINE
  8
0
 10
12.687
 20
242.344
 11
12.5647
 21
242.279
  0
LINE
  8
0
 10
12.5647
 20
242.279
 11
12.4372
 21
242.224
  0
LINE
  8
0
 10
12.4372
 20
242.224
 11
12.3055
 21
242.182
  0
LINE
  8
0
 10
12.3055
 20
242.182
 11
12.1706
 21
242.151
  0
LINE
  8
0
 10
12.1706
 20
242.151
 11
12.0334
 21
242.131
  0
LINE
  8
0
 10
12.0334
 20
242.131
 11
11.8951
 21
242.124
  0
LINE
  8
0
 10
11.8951
 20
242.124
 11
11.7567
 21
242.129
  0
LINE
  8
0
 10
10.7254
 20
194.23
 11
10.5878
 21
194.246
  0
LINE
  8
0
 10
10.5878
 20
194.246
 11
10.4521
 21
194.273
  0
LINE
  8
0
 10
10.4521
 20
194.273
 11
10.3193
 21
194.313
  0
LINE
  8
0
 10
10.3193
 20
194.313
 11
10.1904
 21
194.363
  0
LINE
  8
0
 10
10.1904
 20
194.363
 11
10.0665
 21
194.425
  0
LINE
  8
0
 10
10.0665
 20
194.425
 11
9.94844
 21
194.498
  0
LINE
  8
0
 10
9.94844
 20
194.498
 11
9.83711
 21
194.58
  0
LINE
  8
0
 10
9.83711
 20
194.58
 11
9.73338
 21
194.672
  0
LINE
  8
0
 10
9.73338
 20
194.672
 11
9.63805
 21
194.772
  0
LINE
  8
0
 10
9.63805
 20
194.772
 11
9.55185
 21
194.881
  0
LINE
  8
0
 10
9.55185
 20
194.881
 11
9.4754
 21
194.996
  0
LINE
  8
0
 10
9.4754
 20
194.996
 11
9.40932
 21
195.118
  0
LINE
  8
0
 10
9.40932
 20
195.118
 11
9.3541
 21
195.245
  0
LINE
  8
0
 10
9.3541
 20
195.245
 11
9.31015
 21
195.376
  0
LINE
  8
0
 10
9.31015
 20
195.376
 11
9.27783
 21
195.511
  0
LINE
  8
0
 10
9.27783
 20
195.511
 11
9.25735
 21
195.648
  0
LINE
  8
0
 10
9.25735
 20
195.648
 11
9.24889
 21
195.786
  0
LINE
  8
0
 10
9.24889
 20
195.786
 11
9.25252
 21
195.924
  0
LINE
  8
0
 10
9.25252
 20
195.924
 11
9.2682
 21
196.062
  0
LINE
  8
0
 10
9.2682
 20
196.062
 11
9.29582
 21
196.198
  0
LINE
  8
0
 10
9.29582
 20
196.198
 11
9.33514
 21
196.331
  0
LINE
  8
0
 10
9.33514
 20
196.331
 11
9.38591
 21
196.459
  0
LINE
  8
0
 10
9.38591
 20
196.459
 11
9.44769
 21
196.583
  0
LINE
  8
0
 10
9.44769
 20
196.583
 11
9.52007
 21
196.701
  0
LINE
  8
0
 10
9.52007
 20
196.701
 11
9.60243
 21
196.813
  0
LINE
  8
0
 10
9.60243
 20
196.813
 11
9.69421
 21
196.916
  0
LINE
  8
0
 10
9.69421
 20
196.916
 11
9.79466
 21
197.012
  0
LINE
  8
0
 10
9.79466
 20
197.012
 11
9.90305
 21
197.098
  0
LINE
  8
0
 10
9.90305
 20
197.098
 11
10.0185
 21
197.174
  0
LINE
  8
0
 10
10.0185
 20
197.174
 11
10.1402
 21
197.241
  0
LINE
  8
0
 10
10.1402
 20
197.241
 11
10.2672
 21
197.296
  0
LINE
  8
0
 10
10.2672
 20
197.296
 11
10.3986
 21
197.34
  0
LINE
  8
0
 10
10.3986
 20
197.34
 11
10.5332
 21
197.372
  0
LINE
  8
0
 10
10.5332
 20
197.372
 11
10.6702
 21
197.392
  0
LINE
  8
0
 10
10.6702
 20
197.392
 11
10.8085
 21
197.401
  0
LINE
  8
0
 10
10.8085
 20
197.401
 11
10.9469
 21
197.397
  0
LINE
  8
0
 10
10.9469
 20
197.397
 11
11.0845
 21
197.382
  0
LINE
  8
0
 10
11.0845
 20
197.382
 11
11.2202
 21
197.354
  0
LINE
  8
0
 10
11.2202
 20
197.354
 11
11.353
 21
197.315
  0
LINE
  8
0
 10
11.353
 20
197.315
 11
11.4819
 21
197.264
  0
LINE
  8
0
 10
11.4819
 20
197.264
 11
11.6058
 21
197.202
  0
LINE
  8
0
 10
11.6058
 20
197.202
 11
11.7239
 21
197.13
  0
LINE
  8
0
 10
11.7239
 20
197.13
 11
11.8352
 21
197.047
  0
LINE
  8
0
 10
11.8352
 20
197.047
 11
11.9389
 21
196.956
  0
LINE
  8
0
 10
11.9389
 20
196.956
 11
12.0343
 21
196.855
  0
LINE
  8
0
 10
12.0343
 20
196.855
 11
12.1205
 21
196.747
  0
LINE
  8
0
 10
12.1205
 20
196.747
 11
12.1969
 21
196.631
  0
LINE
  8
0
 10
12.1969
 20
196.631
 11
12.263
 21
196.51
  0
LINE
  8
0
 10
12.263
 20
196.51
 11
12.3182
 21
196.383
  0
LINE
  8
0
 10
12.3182
 20
196.383
 11
12.3622
 21
196.251
  0
LINE
  8
0
 10
12.3622
 20
196.251
 11
12.3945
 21
196.117
  0
LINE
  8
0
 10
12.3945
 20
196.117
 11
12.4149
 21
195.98
  0
LINE
  8
0
 10
12.4149
 20
195.98
 11
12.4234
 21
195.841
  0
LINE
  8
0
 10
12.4234
 20
195.841
 11
12.4198
 21
195.703
  0
LINE
  8
0
 10
12.4198
 20
195.703
 11
12.4041
 21
195.565
  0
LINE
  8
0
 10
12.4041
 20
195.565
 11
12.3765
 21
195.43
  0
LINE
  8
0
 10
12.3765
 20
195.43
 11
12.3372
 21
195.297
  0
LINE
  8
0
 10
12.3372
 20
195.297
 11
12.2864
 21
195.168
  0
LINE
  8
0
 10
12.2864
 20
195.168
 11
12.2246
 21
195.044
  0
LINE
  8
0
 10
12.2246
 20
195.044
 11
12.1522
 21
194.926
  0
LINE
  8
0
 10
12.1522
 20
194.926
 11
12.0699
 21
194.815
  0
LINE
  8
0
 10
12.0699
 20
194.815
 11
11.9781
 21
194.711
  0
LINE
  8
0
 10
11.9781
 20
194.711
 11
11.8777
 21
194.616
  0
LINE
  8
0
 10
11.8777
 20
194.616
 11
11.7693
 21
194.529
  0
LINE
  8
0
 10
11.7693
 20
194.529
 11
11.6538
 21
194.453
  0
LINE
  8
0
 10
11.6538
 20
194.453
 11
11.5321
 21
194.387
  0
LINE
  8
0
 10
11.5321
 20
194.387
 11
11.4051
 21
194.332
  0
LINE
  8
0
 10
11.4051
 20
194.332
 11
11.2737
 21
194.288
  0
LINE
  8
0
 10
11.2737
 20
194.288
 11
11.1391
 21
194.255
  0
LINE
  8
0
 10
11.1391
 20
194.255
 11
11.0021
 21
194.235
  0
LINE
  8
0
 10
11.0021
 20
194.235
 11
10.8638
 21
194.226
  0
LINE
  8
0
 10
10.8638
 20
194.226
 11
10.7254
 21
194.23
  0
LINE
  8
0
 10
79.1274
 20
74.0076
 11
78.255
 21
74.0305
  0
LINE
  8
0
 10
78.255
 20
74.0305
 11
77.3832
 21
74.0685
  0
LINE
  8
0
 10
77.3832
 20
74.0685
 11
76.5122
 21
74.1218
  0
LINE
  8
0
 10
76.5122
 20
74.1218
 11
75.6422
 21
74.1903
  0
LINE
  8
0
 10
75.6422
 20
74.1903
 11
74.7736
 21
74.2739
  0
LINE
  8
0
 10
74.7736
 20
74.2739
 11
73.9065
 21
74.3727
  0
LINE
  8
0
 10
73.9065
 20
74.3727
 11
73.0413
 21
74.4866
  0
LINE
  8
0
 10
73.0413
 20
74.4866
 11
72.1783
 21
74.6156
  0
LINE
  8
0
 10
72.1783
 20
74.6156
 11
71.3176
 21
74.7596
  0
LINE
  8
0
 10
71.3176
 20
74.7596
 11
70.4595
 21
74.9186
  0
LINE
  8
0
 10
70.4595
 20
74.9186
 11
69.6044
 21
75.0926
  0
LINE
  8
0
 10
69.6044
 20
75.0926
 11
68.7524
 21
75.2815
  0
LINE
  8
0
 10
68.7524
 20
75.2815
 11
67.9039
 21
75.4852
  0
LINE
  8
0
 10
67.9039
 20
75.4852
 11
67.059
 21
75.7037
  0
LINE
  8
0
 10
67.059
 20
75.7037
 11
66.2181
 21
75.9369
  0
LINE
  8
0
 10
66.2181
 20
75.9369
 11
65.3814
 21
76.1848
  0
LINE
  8
0
 10
65.3814
 20
76.1848
 11
64.5491
 21
76.4472
  0
LINE
  8
0
 10
64.5491
 20
76.4472
 11
63.7216
 21
76.7241
  0
LINE
  8
0
 10
63.7216
 20
76.7241
 11
62.899
 21
77.0154
  0
LINE
  8
0
 10
62.899
 20
77.0154
 11
62.0816
 21
77.321
  0
LINE
  8
0
 10
62.0816
 20
77.321
 11
61.2697
 21
77.6408
  0
LINE
  8
0
 10
61.2697
 20
77.6408
 11
60.4634
 21
77.9747
  0
LINE
  8
0
 10
60.4634
 20
77.9747
 11
59.6632
 21
78.3227
  0
LINE
  8
0
 10
59.6632
 20
78.3227
 11
58.8691
 21
78.6846
  0
LINE
  8
0
 10
58.8691
 20
78.6846
 11
58.0814
 21
79.0603
  0
LINE
  8
0
 10
58.0814
 20
79.0603
 11
57.3005
 21
79.4497
  0
LINE
  8
0
 10
57.3005
 20
79.4497
 11
56.5264
 21
79.8526
  0
LINE
  8
0
 10
56.5264
 20
79.8526
 11
55.7595
 21
80.269
  0
LINE
  8
0
 10
55.7595
 20
80.269
 11
55
 21
80.6987
  0
LINE
  8
0
 10
55
 20
80.6987
 11
54.2481
 21
81.1416
  0
LINE
  8
0
 10
54.2481
 20
81.1416
 11
53.504
 21
81.5976
  0
LINE
  8
0
 10
53.504
 20
81.5976
 11
52.768
 21
82.0665
  0
LINE
  8
0
 10
52.768
 20
82.0665
 11
52.0403
 21
82.5481
  0
LINE
  8
0
 10
52.0403
 20
82.5481
 11
51.3212
 21
83.0424
  0
LINE
  8
0
 10
51.3212
 20
83.0424
 11
50.6107
 21
83.5491
  0
LINE
  8
0
 10
50.6107
 20
83.5491
 11
49.9092
 21
84.0682
  0
LINE
  8
0
 10
49.9092
 20
84.0682
 11
49.2169
 21
84.5995
  0
LINE
  8
0
 10
49.2169
 20
84.5995
 11
48.534
 21
85.1427
  0
LINE
  8
0
 10
48.534
 20
85.1427
 11
47.8606
 21
85.6978
  0
LINE
  8
0
 10
47.8606
 20
85.6978
 11
47.197
 21
86.2645
  0
LINE
  8
0
 10
47.197
 20
86.2645
 11
46.5435
 21
86.8428
  0
LINE
  8
0
 10
46.5435
 20
86.8428
 11
45.9001
 21
87.4323
  0
LINE
  8
0
 10
45.9001
 20
87.4323
 11
45.2671
 21
88.033
  0
LINE
  8
0
 10
45.2671
 20
88.033
 11
44.6447
 21
88.6447
  0
LINE
  8
0
 10
44.6447
 20
88.6447
 11
44.033
 21
89.2671
  0
LINE
  8
0
 10
44.033
 20
89.2671
 11
43.4323
 21
89.9001
  0
LINE
  8
0
 10
43.4323
 20
89.9001
 11
42.8428
 21
90.5435
  0
LINE
  8
0
 10
42.8428
 20
90.5435
 11
42.2645
 21
91.197
  0
LINE
  8
0
 10
42.2645
 20
91.197
 11
41.6978
 21
91.8606
  0
LINE
  8
0
 10
41.6978
 20
91.8606
 11
41.1427
 21
92.534
  0
LINE
  8
0
 10
41.1427
 20
92.534
 11
40.5995
 21
93.2169
  0
LINE
  8
0
 10
40.5995
 20
93.2169
 11
40.0682
 21
93.9092
  0
LINE
  8
0
 10
40.0682
 20
93.9092
 11
39.5491
 21
94.6107
  0
LINE
  8
0
 10
39.5491
 20
94.6107
 11
39.0424
 21
95.3212
  0
LINE
  8
0
 10
39.0424
 20
95.3212
 11
38.5481
 21
96.0403
  0
LINE
  8
0
 10
38.5481
 20
96.0403
 11
38.0665
 21
96.768
  0
LINE
  8
0
 10
38.0665
 20
96.768
 11
37.5976
 21
97.504
  0
LINE
  8
0
 10
37.5976
 20
97.504
 11
37.1416
 21
98.2481
  0
LINE
  8
0
 10
37.1416
 20
98.2481
 11
36.6987
 21
99
  0
LINE
  8
0
 10
36.6987
 20
99
 11
36.269
 21
99.7595
  0
LINE
  8
0
 10
36.269
 20
99.7595
 11
35.8526
 21
100.526
  0
LINE
  8
0
 10
35.8526
 20
100.526
 11
35.4497
 21
101.3
  0
LINE
  8
0
 10
35.4497
 20
101.3
 11
35.0603
 21
102.081
  0
LINE
  8
0
 10
35.0603
 20
102.081
 11
34.6846
 21
102.869
  0
LINE
  8
0
 10
34.6846
 20
102.869
 11
34.3227
 21
103.663
  0
LINE
  8
0
 10
34.3227
 20
103.663
 11
33.9747
 21
104.463
  0
LINE
  8
0
 10
33.9747
 20
104.463
 11
33.6408
 21
105.27
  0
LINE
  8
0
 10
33.6408
 20
105.27
 11
33.321
 21
106.082
  0
LINE
  8
0
 10
33.321
 20
106.082
 11
33.0154
 21
106.899
  0
LINE
  8
0
 10
33.0154
 20
106.899
 11
32.7241
 21
107.722
  0
LINE
  8
0
 10
32.7241
 20
107.722
 11
32.4472
 21
108.549
  0
LINE
  8
0
 10
32.4472
 20
108.549
 11
32.1848
 21
109.381
  0
LINE
  8
0
 10
32.1848
 20
109.381
 11
31.9369
 21
110.218
  0
LINE
  8
0
 10
31.9369
 20
110.218
 11
31.7037
 21
111.059
  0
LINE
  8
0
 10
31.7037
 20
111.059
 11
31.4852
 21
111.904
  0
LINE
  8
0
 10
31.4852
 20
111.904
 11
31.2815
 21
112.752
  0
LINE
  8
0
 10
31.2815
 20
112.752
 11
31.0926
 21
113.604
  0
LINE
  8
0
 10
31.0926
 20
113.604
 11
30.9186
 21
114.46
  0
LINE
  8
0
 10
30.9186
 20
114.46
 11
30.7596
 21
115.318
  0
LINE
  8
0
 10
30.7596
 20
115.318
 11
30.6156
 21
116.178
  0
LINE
  8
0
 10
30.6156
 20
116.178
 11
30.4866
 21
117.041
  0
LINE
  8
0
 10
30.4866
 20
117.041
 11
30.3727
 21
117.907
  0
LINE
  8
0
 10
30.3727
 20
117.907
 11
30.2739
 21
118.774
  0
LINE
  8
0
 10
30.2739
 20
118.774
 11
30.1903
 21
119.642
  0
LINE
  8
0
 10
30.1903
 20
119.642
 11
30.1218
 21
120.512
  0
LINE
  8
0
 10
30.1218
 20
120.512
 11
30.0685
 21
121.383
  0
LINE
  8
0
 10
30.0685
 20
121.383
 11
30.0305
 21
122.255
  0
LINE
  8
0
 10
30.0305
 20
122.255
 11
30.0076
 21
123.127
  0
LINE
  8
0
 10
30.0076
 20
123.127
 11
30
 21
124
  0
LINE
  8
0
 10
30
 20
124
 11
30.0076
 21
124.873
  0
LINE
  8
0
 10
30.0076
 20
124.873
 11
30.0305
 21
125.745
  0
LINE
  8
0
 10
30.0305
 20
125.745
 11
30.0685
 21
126.617
  0
LINE
  8
0
 10
30.0685
 20
126.617
 11
30.1218
 21
127.488
  0
LINE
  8
0
 10
30.1218
 20
127.488
 11
30.1903
 21
128.358
  0
LINE
  8
0
 10
30.1903
 20
128.358
 11
30.2739
 21
129.226
  0
LINE
  8
0
 10
30.2739
 20
129.226
 11
30.3727
 21
130.093
  0
LINE
  8
0
 10
30.3727
 20
130.093
 11
30.4866
 21
130.959
  0
LINE
  8
0
 10
30.4866
 20
130.959
 11
30.6156
 21
131.822
  0
LINE
  8
0
 10
30.6156
 20
131.822
 11
30.7596
 21
132.682
  0
LINE
  8
0
 10
30.7596
 20
132.682
 11
30.9186
 21
133.54
  0
LINE
  8
0
 10
30.9186
 20
133.54
 11
31.0926
 21
134.396
  0
LINE
  8
0
 10
31.0926
 20
134.396
 11
31.2815
 21
135.248
  0
LINE
  8
0
 10
31.2815
 20
135.248
 11
31.4852
 21
136.096
  0
LINE
  8
0
 10
31.4852
 20
136.096
 11
31.7037
 21
136.941
  0
LINE
  8
0
 10
31.7037
 20
136.941
 11
31.9369
 21
137.782
  0
LINE
  8
0
 10
31.9369
 20
137.782
 11
32.1848
 21
138.619
  0
LINE
  8
0
 10
32.1848
 20
138.619
 11
32.4472
 21
139.451
  0
LINE
  8
0
 10
32.4472
 20
139.451
 11
32.7241
 21
140.278
  0
LINE
  8
0
 10
32.7241
 20
140.278
 11
33.0154
 21
141.101
  0
LINE
  8
0
 10
33.0154
 20
141.101
 11
33.321
 21
141.918
  0
LINE
  8
0
 10
33.321
 20
141.918
 11
33.6408
 21
142.73
  0
LINE
  8
0
 10
33.6408
 20
142.73
 11
33.9747
 21
143.537
  0
LINE
  8
0
 10
33.9747
 20
143.537
 11
34.3227
 21
144.337
  0
LINE
  8
0
 10
34.3227
 20
144.337
 11
34.6846
 21
145.131
  0
LINE
  8
0
 10
34.6846
 20
145.131
 11
35.0603
 21
145.919
  0
LINE
  8
0
 10
35.0603
 20
145.919
 11
35.4497
 21
146.7
  0
LINE
  8
0
 10
35.4497
 20
146.7
 11
35.8526
 21
147.474
  0
LINE
  8
0
 10
35.8526
 20
147.474
 11
36.269
 21
148.24
  0
LINE
  8
0
 10
36.269
 20
148.24
 11
36.6987
 21
149
  0
LINE
  8
0
 10
36.6987
 20
149
 11
37.1416
 21
149.752
  0
LINE
  8
0
 10
37.1416
 20
149.752
 11
37.5976
 21
150.496
  0
LINE
  8
0
 10
37.5976
 20
150.496
 11
38.0665
 21
151.232
  0
LINE
  8
0
 10
38.0665
 20
151.232
 11
38.5481
 21
151.96
  0
LINE
  8
0
 10
38.5481
 20
151.96
 11
39.0424
 21
152.679
  0
LINE
  8
0
 10
39.0424
 20
152.679
 11
39.5491
 21
153.389
  0
LINE
  8
0
 10
39.5491
 20
153.389
 11
40.0682
 21
154.091
  0
LINE
  8
0
 10
40.0682
 20
154.091
 11
40.5995
 21
154.783
  0
LINE
  8
0
 10
40.5995
 20
154.783
 11
41.1427
 21
155.466
  0
LINE
  8
0
 10
41.1427
 20
155.466
 11
41.6978
 21
156.139
  0
LINE
  8
0
 10
41.6978
 20
156.139
 11
42.2645
 21
156.803
  0
LINE
  8
0
 10
42.2645
 20
156.803
 11
42.8428
 21
157.457
  0
LINE
  8
0
 10
42.8428
 20
157.457
 11
43.4323
 21
158.1
  0
LINE
  8
0
 10
43.4323
 20
158.1
 11
44.033
 21
158.733
  0
LINE
  8
0
 10
44.033
 20
158.733
 11
44.6447
 21
159.355
  0
LINE
  8
0
 10
44.6447
 20
159.355
 11
45.2671
 21
159.967
  0
LINE
  8
0
 10
45.2671
 20
159.967
 11
45.9001
 21
160.568
  0
LINE
  8
0
 10
45.9001
 20
160.568
 11
46.5435
 21
161.157
  0
LINE
  8
0
 10
46.5435
 20
161.157
 11
47.197
 21
161.735
  0
LINE
  8
0
 10
47.197
 20
161.735
 11
47.8606
 21
162.302
  0
LINE
  8
0
 10
47.8606
 20
162.302
 11
48.534
 21
162.857
  0
LINE
  8
0
 10
48.534
 20
162.857
 11
49.2169
 21
163.401
  0
LINE
  8
0
 10
49.2169
 20
163.401
 11
49.9092
 21
163.932
  0
LINE
  8
0
 10
49.9092
 20
163.932
 11
50.6107
 21
164.451
  0
LINE
  8
0
 10
50.6107
 20
164.451
 11
51.3212
 21
164.958
  0
LINE
  8
0
 10
51.3212
 20
164.958
 11
52.0403
 21
165.452
  0
LINE
  8
0
 10
52.0403
 20
165.452
 11
52.768
 21
165.934
  0
LINE
  8
0
 10
52.768
 20
165.934
 11
53.504
 21
166.402
  0
LINE
  8
0
 10
53.504
 20
166.402
 11
54.2481
 21
166.858
  0
LINE
  8
0
 10
54.2481
 20
166.858
 11
55
 21
167.301
  0
LINE
  8
0
 10
55
 20
167.301
 11
55.7595
 21
167.731
  0
LINE
  8
0
 10
55.7595
 20
167.731
 11
56.5264
 21
168.147
  0
LINE
  8
0
 10
56.5264
 20
168.147
 11
57.3005
 21
168.55
  0
LINE
  8
0
 10
57.3005
 20
168.55
 11
58.0814
 21
168.94
  0
LINE
  8
0
 10
58.0814
 20
168.94
 11
58.8691
 21
169.315
  0
LINE
  8
0
 10
58.8691
 20
169.315
 11
59.6632
 21
169.677
  0
LINE
  8
0
 10
59.6632
 20
169.677
 11
60.4634
 21
170.025
  0
LINE
  8
0
 10
60.4634
 20
170.025
 11
61.2697
 21
170.359
  0
LINE
  8
0
 10
61.2697
 20
170.359
 11
62.0816
 21
170.679
  0
LINE
  8
0
 10
62.0816
 20
170.679
 11
62.899
 21
170.985
  0
LINE
  8
0
 10
62.899
 20
170.985
 11
63.7216
 21
171.276
  0
LINE
  8
0
 10
63.7216
 20
171.276
 11
64.5491
 21
171.553
  0
LINE
  8
0
 10
64.5491
 20
171.553
 11
65.3814
 21
171.815
  0
LINE
  8
0
 10
65.3814
 20
171.815
 11
66.2181
 21
172.063
  0
LINE
  8
0
 10
66.2181
 20
172.063
 11
67.059
 21
172.296
  0
LINE
  8
0
 10
67.059
 20
172.296
 11
67.9039
 21
172.515
  0
LINE
  8
0
 10
67.9039
 20
172.515
 11
68.7524
 21
172.718
  0
LINE
  8
0
 10
68.7524
 20
172.718
 11
69.6044
 21
172.907
  0
LINE
  8
0
 10
69.6044
 20
172.907
 11
70.4595
 21
173.081
  0
LINE
  8
0
 10
70.4595
 20
173.081
 11
71.3176
 21
173.24
  0
LINE
  8
0
 10
71.3176
 20
173.24
 11
72.1783
 21
173.384
  0
LINE
  8
0
 10
72.1783
 20
173.384
 11
73.0413
 21
173.513
  0
LINE
  8
0
 10
73.0413
 20
173.513
 11
73.9065
 21
173.627
  0
LINE
  8
0
 10
73.9065
 20
173.627
 11
74.7736
 21
173.726
  0
LINE
  8
0
 10
74.7736
 20
173.726
 11
75.6422
 21
173.81
  0
LINE
  8
0
 10
75.6422
 20
173.81
 11
76.5122
 21
173.878
  0
LINE
  8
0
 10
76.5122
 20
173.878
 11
77.3832
 21
173.931
  0
LINE
  8
0
 10
77.3832
 20
173.931
 11
78.255
 21
173.97
  0
LINE
  8
0
 10
78.255
 20
173.97
 11
79.1274
 21
173.992
  0
LINE
  8
0
 10
79.1274
 20
173.992
 11
80
 21
174
  0
LINE
  8
0
 10
80
 20
174
 11
80.8726
 21
173.992
  0
LINE
  8
0
 10
80.8726
 20
173.992
 11
81.745
 21
173.97
  0
LINE
  8
0
 10
81.745
 20
173.97
 11
82.6168
 21
173.931
  0
LINE
  8
0
 10
82.6168
 20
173.931
 11
83.4878
 21
173.878
  0
LINE
  8
0
 10
83.4878
 20
173.878
 11
84.3578
 21
173.81
  0
LINE
  8
0
 10
84.3578
 20
173.81
 11
85.2264
 21
173.726
  0
LINE
  8
0
 10
85.2264
 20
173.726
 11
86.0935
 21
173.627
  0
LINE
  8
0
 10
86.0935
 20
173.627
 11
86.9586
 21
173.513
  0
LINE
  8
0
 10
86.9586
 20
173.513
 11
87.8217
 21
173.384
  0
LINE
  8
0
 10
87.8217
 20
173.384
 11
88.6824
 21
173.24
  0
LINE
  8
0
 10
88.6824
 20
173.24
 11
89.5404
 21
173.081
  0
LINE
  8
0
 10
89.5404
 20
173.081
 11
90.3956
 21
172.907
  0
LINE
  8
0
 10
90.3956
 20
172.907
 11
91.2475
 21
172.718
  0
LINE
  8
0
 10
91.2475
 20
172.718
 11
92.0961
 21
172.515
  0
LINE
  8
0
 10
92.0961
 20
172.515
 11
92.9409
 21
172.296
  0
LINE
  8
0
 10
92.9409
 20
172.296
 11
93.7819
 21
172.063
  0
LINE
  8
0
 10
93.7819
 20
172.063
 11
94.6186
 21
171.815
  0
LINE
  8
0
 10
94.6186
 20
171.815
 11
95.4508
 21
171.553
  0
LINE
  8
0
 10
95.4508
 20
171.553
 11
96.2784
 21
171.276
  0
LINE
  8
0
 10
96.2784
 20
171.276
 11
97.101
 21
170.985
  0
LINE
  8
0
 10
97.101
 20
170.985
 11
97.9184
 21
170.679
  0
LINE
  8
0
 10
97.9184
 20
170.679
 11
98.7303
 21
170.359
  0
LINE
  8
0
 10
98.7303
 20
170.359
 11
99.5365
 21
170.025
  0
LINE
  8
0
 10
99.5365
 20
170.025
 11
100.337
 21
169.677
  0
LINE
  8
0
 10
100.337
 20
169.677
 11
101.131
 21
169.315
  0
LINE
  8
0
 10
101.131
 20
169.315
 11
101.919
 21
168.94
  0
LINE
  8
0
 10
101.919
 20
168.94
 11
102.7
 21
168.55
  0
LINE
  8
0
 10
102.7
 20
168.55
 11
103.474
 21
168.147
  0
LINE
  8
0
 10
103.474
 20
168.147
 11
104.24
 21
167.731
  0
LINE
  8
0
 10
104.24
 20
167.731
 11
105
 21
167.301
  0
LINE
  8
0
 10
105
 20
167.301
 11
105.752
 21
166.858
  0
LINE
  8
0
 10
105.752
 20
166.858
 11
106.496
 21
166.402
  0
LINE
  8
0
 10
106.496
 20
166.402
 11
107.232
 21
165.934
  0
LINE
  8
0
 10
107.232
 20
165.934
 11
107.96
 21
165.452
  0
LINE
  8
0
 10
107.96
 20
165.452
 11
108.679
 21
164.958
  0
LINE
  8
0
 10
108.679
 20
164.958
 11
109.389
 21
164.451
  0
LINE
  8
0
 10
109.389
 20
164.451
 11
110.091
 21
163.932
  0
LINE
  8
0
 10
110.091
 20
163.932
 11
110.783
 21
163.401
  0
LINE
  8
0
 10
110.783
 20
163.401
 11
111.466
 21
162.857
  0
LINE
  8
0
 10
111.466
 20
162.857
 11
112.139
 21
162.302
  0
LINE
  8
0
 10
112.139
 20
162.302
 11
112.803
 21
161.735
  0
LINE
  8
0
 10
112.803
 20
161.735
 11
113.457
 21
161.157
  0
LINE
  8
0
 10
113.457
 20
161.157
 11
114.1
 21
160.568
  0
LINE
  8
0
 10
114.1
 20
160.568
 11
114.733
 21
159.967
  0
LINE
  8
0
 10
114.733
 20
159.967
 11
115.355
 21
159.355
  0
LINE
  8
0
 10
115.355
 20
159.355
 11
115.967
 21
158.733
  0
LINE
  8
0
 10
115.967
 20
158.733
 11
116.568
 21
158.1
  0
LINE
  8
0
 10
116.568
 20
158.1
 11
117.157
 21
157.457
  0
LINE
  8
0
 10
117.157
 20
157.457
 11
117.735
 21
156.803
  0
LINE
  8
0
 10
117.735
 20
156.803
 11
118.302
 21
156.139
  0
LINE
  8
0
 10
118.302
 20
156.139
 11
118.857
 21
155.466
  0
LINE
  8
0
 10
118.857
 20
155.466
 11
119.401
 21
154.783
  0
LINE
  8
0
 10
119.401
 20
154.783
 11
119.932
 21
154.091
  0
LINE
  8
0
 10
119.932
 20
154.091
 11
120.451
 21
153.389
  0
LINE
  8
0
 10
120.451
 20
153.389
 11
120.958
 21
152.679
  0
LINE
  8
0
 10
120.958
 20
152.679
 11
121.452
 21
151.96
  0
LINE
  8
0
 10
121.452
 20
151.96
 11
121.934
 21
151.232
  0
LINE
  8
0
 10
121.934
 20
151.232
 11
122.402
 21
150.496
  0
LINE
  8
0
 10
122.402
 20
150.496
 11
122.858
 21
149.752
  0
LINE
  8
0
 10
122.858
 20
149.752
 11
123.301
 21
149
  0
LINE
  8
0
 10
123.301
 20
149
 11
123.731
 21
148.24
  0
LINE
  8
0
 10
123.731
 20
148.24
 11
124.147
 21
147.474
  0
LINE
  8
0
 10
124.147
 20
147.474
 11
124.55
 21
146.7
  0
LINE
  8
0
 10
124.55
 20
146.7
 11
124.94
 21
145.919
  0
LINE
  8
0
 10
124.94
 20
145.919
 11
125.315
 21
145.131
  0
LINE
  8
0
 10
125.315
 20
145.131
 11
125.677
 21
144.337
  0
LINE
  8
0
 10
125.677
 20
144.337
 11
126.025
 21
143.537
  0
LINE
  8
0
 10
126.025
 20
143.537
 11
126.359
 21
142.73
  0
LINE
  8
0
 10
126.359
 20
142.73
 11
126.679
 21
141.918
  0
LINE
  8
0
 10
126.679
 20
141.918
 11
126.985
 21
141.101
  0
LINE
  8
0
 10
126.985
 20
141.101
 11
127.276
 21
140.278
  0
LINE
  8
0
 10
127.276
 20
140.278
 11
127.553
 21
139.451
  0
LINE
  8
0
 10
127.553
 20
139.451
 11
127.815
 21
138.619
  0
LINE
  8
0
 10
127.815
 20
138.619
 11
128.063
 21
137.782
  0
LINE
  8
0
 10
128.063
 20
137.782
 11
128.296
 21
136.941
  0
LINE
  8
0
 10
128.296
 20
136.941
 11
128.515
 21
136.096
  0
LINE
  8
0
 10
128.515
 20
136.096
 11
128.718
 21
135.248
  0
LINE
  8
0
 10
128.718
 20
135.248
 11
128.907
 21
134.396
  0
LINE
  8
0
 10
128.907
 20
134.396
 11
129.081
 21
133.54
  0
LINE
  8
0
 10
129.081
 20
133.54
 11
129.24
 21
132.682
  0
LINE
  8
0
 10
129.24
 20
132.682
 11
129.384
 21
131.822
  0
LINE
  8
0
 10
129.384
 20
131.822
 11
129.513
 21
130.959
  0
LINE
  8
0
 10
129.513
 20
130.959
 11
129.627
 21
130.093
  0
LINE
  8
0
 10
129.627
 20
130.093
 11
129.726
 21
129.226
  0
LINE
  8
0
 10
129.726
 20
129.226
 11
129.81
 21
128.358
  0
LINE
  8
0
 10
129.81
 20
128.358
 11
129.878
 21
127.488
  0
LINE
  8
0
 10
129.878
 20
127.488
 11
129.931
 21
126.617
  0
LINE
  8
0
 10
129.931
 20
126.617
 11
129.97
 21
125.745
  0
LINE
  8
0
 10
129.97
 20
125.745
 11
129.992
 21
124.873
  0
LINE
  8
0
 10
129.992
 20
124.873
 11
130
 21
124
  0
LINE
  8
0
 10
130
 20
124
 11
129.992
 21
123.127
  0
LINE
  8
0
 10
129.992
 20
123.127
 11
129.97
 21
122.255
  0
LINE
  8
0
 10
129.97
 20
122.255
 11
129.931
 21
121.383
  0
LINE
  8
0
 10
129.931
 20
121.383
 11
129.878
 21
120.512
  0
LINE
  8
0
 10
129.878
 20
120.512
 11
129.81
 21
119.642
  0
LINE
  8
0
 10
129.81
 20
119.642
 11
129.726
 21
118.774
  0
LINE
  8
0
 10
129.726
 20
118.774
 11
129.627
 21
117.907
  0
LINE
  8
0
 10
129.627
 20
117.907
 11
129.513
 21
117.041
  0
LINE
  8
0
 10
129.513
 20
117.041
 11
129.384
 21
116.178
  0
LINE
  8
0
 10
129.384
 20
116.178
 11
129.24
 21
115.318
  0
LINE
  8
0
 10
129.24
 20
115.318
 11
129.081
 21
114.46
  0
LINE
  8
0
 10
129.081
 20
114.46
 11
128.907
 21
113.604
  0
LINE
  8
0
 10
128.907
 20
113.604
 11
128.718
 21
112.752
  0
LINE
  8
0
 10
128.718
 20
112.752
 11
128.515
 21
111.904
  0
LINE
  8
0
 10
128.515
 20
111.904
 11
128.296
 21
111.059
  0
LINE
  8
0
 10
128.296
 20
111.059
 11
128.063
 21
110.218
  0
LINE
  8
0
 10
128.063
 20
110.218
 11
127.815
 21
109.381
  0
LINE
  8
0
 10
127.815
 20
109.381
 11
127.553
 21
108.549
  0
LINE
  8
0
 10
127.553
 20
108.549
 11
127.276
 21
107.722
  0
LINE
  8
0
 10
127.276
 20
107.722
 11
126.985
 21
106.899
  0
LINE
  8
0
 10
126.985
 20
106.899
 11
126.679
 21
106.082
  0
LINE
  8
0
 10
126.679
 20
106.082
 11
126.359
 21
105.27
  0
LINE
  8
0
 10
126.359
 20
105.27
 11
126.025
 21
104.463
  0
LINE
  8
0
 10
126.025
 20
104.463
 11
125.677
 21
103.663
  0
LINE
  8
0
 10
125.677
 20
103.663
 11
125.315
 21
102.869
  0
LINE
  8
0
 10
125.315
 20
102.869
 11
124.94
 21
102.081
  0
LINE
  8
0
 10
124.94
 20
102.081
 11
124.55
 21
101.3
  0
LINE
  8
0
 10
124.55
 20
101.3
 11
124.147
 21
100.526
  0
LINE
  8
0
 10
124.147
 20
100.526
 11
123.731
 21
99.7595
  0
LINE
  8
0
 10
123.731
 20
99.7595
 11
123.301
 21
99
  0
LINE
  8
0
 10
123.301
 20
99
 11
122.858
 21
98.2481
  0
LINE
  8
0
 10
122.858
 20
98.2481
 11
122.402
 21
97.504
  0
LINE
  8
0
 10
122.402
 20
97.504
 11
121.934
 21
96.768
  0
LINE
  8
0
 10
121.934
 20
96.768
 11
121.452
 21
96.0403
  0
LINE
  8
0
 10
121.452
 20
96.0403
 11
120.958
 21
95.3212
  0
LINE
  8
0
 10
120.958
 20
95.3212
 11
120.451
 21
94.6107
  0
LINE
  8
0
 10
120.451
 20
94.6107
 11
119.932
 21
93.9092
  0
LINE
  8
0
 10
119.932
 20
93.9092
 11
119.401
 21
93.2169
  0
LINE
  8
0
 10
119.401
 20
93.2169
 11
118.857
 21
92.534
  0
LINE
  8
0
 10
118.857
 20
92.534
 11
118.302
 21
91.8606
  0
LINE
  8
0
 10
118.302
 20
91.8606
 11
117.735
 21
91.197
  0
LINE
  8
0
 10
117.735
 20
91.197
 11
117.157
 21
90.5435
  0
LINE
  8
0
 10
117.157
 20
90.5435
 11
116.568
 21
89.9001
  0
LINE
  8
0
 10
116.568
 20
89.9001
 11
115.967
 21
89.2671
  0
LINE
  8
0
 10
115.967
 20
89.2671
 11
115.355
 21
88.6447
  0
LINE
  8
0
 10
115.355
 20
88.6447
 11
114.733
 21
88.033
  0
LINE
  8
0
 10
114.733
 20
88.033
 11
114.1
 21
87.4323
  0
LINE
  8
0
 10
114.1
 20
87.4323
 11
113.457
 21
86.8428
  0
LINE
  8
0
 10
113.457
 20
86.8428
 11
112.803
 21
86.2645
  0
LINE
  8
0
 10
112.803
 20
86.2645
 11
112.139
 21
85.6978
  0
LINE
  8
0
 10
112.139
 20
85.6978
 11
111.466
 21
85.1427
  0
LINE
  8
0
 10
111.466
 20
85.1427
 11
110.783
 21
84.5995
  0
LINE
  8
0
 10
110.783
 20
84.5995
 11
110.091
 21
84.0682
  0
LINE
  8
0
 10
110.091
 20
84.0682
 11
109.389
 21
83.5491
  0
LINE
  8
0
 10
109.389
 20
83.5491
 11
108.679
 21
83.0424
  0
LINE
  8
0
 10
108.679
 20
83.0424
 11
107.96
 21
82.5481
  0
LINE
  8
0
 10
107.96
 20
82.5481
 11
107.232
 21
82.0665
  0
LINE
  8
0
 10
107.232
 20
82.0665
 11
106.496
 21
81.5976
  0
LINE
  8
0
 10
106.496
 20
81.5976
 11
105.752
 21
81.1416
  0
LINE
  8
0
 10
105.752
 20
81.1416
 11
105
 21
80.6987
  0
LINE
  8
0
 10
105
 20
80.6987
 11
104.24
 21
80.269
  0
LINE
  8
0
 10
104.24
 20
80.269
 11
103.474
 21
79.8526
  0
LINE
  8
0
 10
103.474
 20
79.8526
 11
102.7
 21
79.4497
  0
LINE
  8
0
 10
102.7
 20
79.4497
 11
101.919
 21
79.0603
  0
LINE
  8
0
 10
101.919
 20
79.0603
 11
101.131
 21
78.6846
  0
LINE
  8
0
 10
101.131
 20
78.6846
 11
100.337
 21
78.3227
  0
LINE
  8
0
 10
100.337
 20
78.3227
 11
99.5365
 21
77.9747
  0
LINE
  8
0
 10
99.5365
 20
77.9747
 11
98.7303
 21
77.6408
  0
LINE
  8
0
 10
98.7303
 20
77.6408
 11
97.9184
 21
77.321
  0
LINE
  8
0
 10
97.9184
 20
77.321
 11
97.101
 21
77.0154
  0
LINE
  8
0
 10
97.101
 20
77.0154
 11
96.2784
 21
76.7241
  0
LINE
  8
0
 10
96.2784
 20
76.7241
 11
95.4508
 21
76.4472
  0
LINE
  8
0
 10
95.4508
 20
76.4472
 11
94.6186
 21
76.1848
  0
LINE
  8
0
 10
94.6186
 20
76.1848
 11
93.7819
 21
75.9369
  0
LINE
  8
0
 10
93.7819
 20
75.9369
 11
92.9409
 21
75.7037
  0
LINE
  8
0
 10
92.9409
 20
75.7037
 11
92.0961
 21
75.4852
  0
LINE
  8
0
 10
92.0961
 20
75.4852
 11
91.2475
 21
75.2815
  0
LINE
  8
0
 10
91.2475
 20
75.2815
 11
90.3956
 21
75.0926
  0
LINE
  8
0
 10
90.3956
 20
75.0926
 11
89.5404
 21
74.9186
  0
LINE
  8
0
 10
89.5404
 20
74.9186
 11
88.6824
 21
74.7596
  0
LINE
  8
0
 10
88.6824
 20
74.7596
 11
87.8217
 21
74.6156
  0
LINE
  8
0
 10
87.8217
 20
74.6156
 11
86.9586
 21
74.4866
  0
LINE
  8
0
 10
86.9586
 20
74.4866
 11
86.0935
 21
74.3727
  0
LINE
  8
0
 10
86.0935
 20
74.3727
 11
85.2264
 21
74.2739
  0
LINE
  8
0
 10
85.2264
 20
74.2739
 11
84.3578
 21
74.1903
  0
LINE
  8
0
 10
84.3578
 20
74.1903
 11
83.4878
 21
74.1218
  0
LINE
  8
0
 10
83.4878
 20
74.1218
 11
82.6168
 21
74.0685
  0
LINE
  8
0
 10
82.6168
 20
74.0685
 11
81.745
 21
74.0305
  0
LINE
  8
0
 10
81.745
 20
74.0305
 11
80.8726
 21
74.0076
  0
LINE
  8
0
 10
80.8726
 20
74.0076
 11
80
 21
74
  0
LINE
  8
0
 10
80
 20
74
 11
79.1274
 21
74.0076
  0
LINE
  8
0
 10
155.554
 20
146.834
 11
181.133
 21
163.446
  0
LINE
  8
0
 10
181.133
 20
163.446
 11
254.115
 21
51.064
  0
LINE
  8
0
 10
254.115
 20
51.064
 11
228.536
 21
34.4525
  0
LINE
  8
0
 10
228.536
 20
34.4525
 11
155.554
 21
146.834
  0
LINE
  8
0
 10
10.1121
 20
146.324
 11
9.9744
 21
146.339
  0
LINE
  8
0
 10
9.9744
 20
146.339
 11
9.83846
 21
146.365
  0
LINE
  8
0
 10
9.83846
 20
146.365
 11
9.70532
 21
146.403
  0
LINE
  8
0
 10
9.70532
 20
146.403
 11
9.57602
 21
146.453
  0
LINE
  8
0
 10
9.57602
 20
146.453
 11
9.45155
 21
146.514
  0
LINE
  8
0
 10
9.45155
 20
146.514
 11
9.33284
 21
146.585
  0
LINE
  8
0
 10
9.33284
 20
146.585
 11
9.22079
 21
146.666
  0
LINE
  8
0
 10
9.22079
 20
146.666
 11
9.11627
 21
146.757
  0
LINE
  8
0
 10
9.11627
 20
146.757
 11
9.02008
 21
146.857
  0
LINE
  8
0
 10
9.02008
 20
146.857
 11
8.93292
 21
146.964
  0
LINE
  8
0
 10
8.93292
 20
146.964
 11
8.85548
 21
147.079
  0
LINE
  8
0
 10
8.85548
 20
147.079
 11
8.78835
 21
147.2
  0
LINE
  8
0
 10
8.78835
 20
147.2
 11
8.73201
 21
147.327
  0
LINE
  8
0
 10
8.73201
 20
147.327
 11
8.68692
 21
147.458
  0
LINE
  8
0
 10
8.68692
 20
147.458
 11
8.65341
 21
147.592
  0
LINE
  8
0
 10
8.65341
 20
147.592
 11
8.63176
 21
147.729
  0
LINE
  8
0
 10
8.63176
 20
147.729
 11
8.62209
 21
147.867
  0
LINE
  8
0
 10
8.62209
 20
147.867
 11
8.62451
 21
148.006
  0
LINE
  8
0
 10
8.62451
 20
148.006
 11
8.63899
 21
148.143
  0
LINE
  8
0
 10
8.63899
 20
148.143
 11
8.66541
 21
148.279
  0
LINE
  8
0
 10
8.66541
 20
148.279
 11
8.70358
 21
148.412
  0
LINE
  8
0
 10
8.70358
 20
148.412
 11
8.75322
 21
148.542
  0
LINE
  8
0
 10
8.75322
 20
148.542
 11
8.81392
 21
148.666
  0
LINE
  8
0
 10
8.81392
 20
148.666
 11
8.88525
 21
148.785
  0
LINE
  8
0
 10
8.88525
 20
148.785
 11
8.96664
 21
148.897
  0
LINE
  8
0
 10
8.96664
 20
148.897
 11
9.05751
 21
149.001
  0
LINE
  8
0
 10
9.05751
 20
149.001
 11
9.15714
 21
149.098
  0
LINE
  8
0
 10
9.15714
 20
149.098
 11
9.26477
 21
149.185
  0
LINE
  8
0
 10
9.26477
 20
149.185
 11
9.37958
 21
149.262
  0
LINE
  8
0
 10
9.37958
 20
149.262
 11
9.5007
 21
149.329
  0
LINE
  8
0
 10
9.5007
 20
149.329
 11
9.62723
 21
149.386
  0
LINE
  8
0
 10
9.62723
 20
149.386
 11
9.75818
 21
149.431
  0
LINE
  8
0
 10
9.75818
 20
149.431
 11
9.89255
 21
149.464
  0
LINE
  8
0
 10
9.89255
 20
149.464
 11
10.0293
 21
149.486
  0
LINE
  8
0
 10
10.0293
 20
149.486
 11
10.1675
 21
149.496
  0
LINE
  8
0
 10
10.1675
 20
149.496
 11
10.306
 21
149.493
  0
LINE
  8
0
 10
10.306
 20
149.493
 11
10.4437
 21
149.479
  0
LINE
  8
0
 10
10.4437
 20
149.479
 11
10.5796
 21
149.452
  0
LINE
  8
0
 10
10.5796
 20
149.452
 11
10.7128
 21
149.414
  0
LINE
  8
0
 10
10.7128
 20
149.414
 11
10.8421
 21
149.364
  0
LINE
  8
0
 10
10.8421
 20
149.364
 11
10.9665
 21
149.304
  0
LINE
  8
0
 10
10.9665
 20
149.304
 11
11.0853
 21
149.232
  0
LINE
  8
0
 10
11.0853
 20
149.232
 11
11.1973
 21
149.151
  0
LINE
  8
0
 10
11.1973
 20
149.151
 11
11.3018
 21
149.06
  0
LINE
  8
0
 10
11.3018
 20
149.06
 11
11.398
 21
148.961
  0
LINE
  8
0
 10
11.398
 20
148.961
 11
11.4852
 21
148.853
  0
LINE
  8
0
 10
11.4852
 20
148.853
 11
11.5626
 21
148.738
  0
LINE
  8
0
 10
11.5626
 20
148.738
 11
11.6297
 21
148.617
  0
LINE
  8
0
 10
11.6297
 20
148.617
 11
11.6861
 21
148.49
  0
LINE
  8
0
 10
11.6861
 20
148.49
 11
11.7312
 21
148.36
  0
LINE
  8
0
 10
11.7312
 20
148.36
 11
11.7647
 21
148.225
  0
LINE
  8
0
 10
11.7647
 20
148.225
 11
11.7863
 21
148.088
  0
LINE
  8
0
 10
11.7863
 20
148.088
 11
11.796
 21
147.95
  0
LINE
  8
0
 10
11.796
 20
147.95
 11
11.7936
 21
147.812
  0
LINE
  8
0
 10
11.7936
 20
147.812
 11
11.7791
 21
147.674
  0
LINE
  8
0
 10
11.7791
 20
147.674
 11
11.7527
 21
147.538
  0
LINE
  8
0
 10
11.7527
 20
147.538
 11
11.7145
 21
147.405
  0
LINE
  8
0
 10
11.7145
 20
147.405
 11
11.6649
 21
147.276
  0
LINE
  8
0
 10
11.6649
 20
147.276
 11
11.6042
 21
147.151
  0
LINE
  8
0
 10
11.6042
 20
147.151
 11
11.5328
 21
147.032
  0
LINE
  8
0
 10
11.5328
 20
147.032
 11
11.4514
 21
146.92
  0
LINE
  8
0
 10
11.4514
 20
146.92
 11
11.3606
 21
146.816
  0
LINE
  8
0
 10
11.3606
 20
146.816
 11
11.261
 21
146.72
  0
LINE
  8
0
 10
11.261
 20
146.72
 11
11.1533
 21
146.633
  0
LINE
  8
0
 10
11.1533
 20
146.633
 11
11.0385
 21
146.555
  0
LINE
  8
0
 10
11.0385
 20
146.555
 11
10.9174
 21
146.488
  0
LINE
  8
0
 10
10.9174
 20
146.488
 11
10.7909
 21
146.432
  0
LINE
  8
0
 10
10.7909
 20
146.432
 11
10.6599
 21
146.387
  0
LINE
  8
0
 10
10.6599
 20
146.387
 11
10.5255
 21
146.353
  0
LINE
  8
0
 10
10.5255
 20
146.353
 11
10.3888
 21
146.331
  0
LINE
  8
0
 10
10.3888
 20
146.331
 11
10.2506
 21
146.322
  0
LINE
  8
0
 10
10.2506
 20
146.322
 11
10.1121
 21
146.324
  0
LINE
  8
0
 10
9.91693
 20
98.4147
 11
9.77907
 21
98.428
  0
LINE
  8
0
 10
9.77907
 20
98.428
 11
9.6429
 21
98.4532
  0
LINE
  8
0
 10
9.6429
 20
98.4532
 11
9.50945
 21
98.4902
  0
LINE
  8
0
 10
9.50945
 20
98.4902
 11
9.37971
 21
98.5387
  0
LINE
  8
0
 10
9.37971
 20
98.5387
 11
9.25471
 21
98.5983
  0
LINE
  8
0
 10
9.25471
 20
98.5983
 11
9.13539
 21
98.6686
  0
LINE
  8
0
 10
9.13539
 20
98.6686
 11
9.02264
 21
98.749
  0
LINE
  8
0
 10
9.02264
 20
98.749
 11
8.91733
 21
98.839
  0
LINE
  8
0
 10
8.91733
 20
98.839
 11
8.82027
 21
98.9378
  0
LINE
  8
0
 10
8.82027
 20
98.9378
 11
8.73218
 21
99.0446
  0
LINE
  8
0
 10
8.73218
 20
99.0446
 11
8.65373
 21
99.1588
  0
LINE
  8
0
 10
8.65373
 20
99.1588
 11
8.58554
 21
99.2793
  0
LINE
  8
0
 10
8.58554
 20
99.2793
 11
8.52811
 21
99.4053
  0
LINE
  8
0
 10
8.52811
 20
99.4053
 11
8.48187
 21
99.5359
  0
LINE
  8
0
 10
8.48187
 20
99.5359
 11
8.4472
 21
99.67
  0
LINE
  8
0
 10
8.4472
 20
99.67
 11
8.42435
 21
99.8065
  0
LINE
  8
0
 10
8.42435
 20
99.8065
 11
8.41347
 21
99.9446
  0
LINE
  8
0
 10
8.41347
 20
99.9446
 11
8.41469
 21
100.083
  0
LINE
  8
0
 10
8.41469
 20
100.083
 11
8.42796
 21
100.221
  0
LINE
  8
0
 10
8.42796
 20
100.221
 11
8.4532
 21
100.357
  0
LINE
  8
0
 10
8.4532
 20
100.357
 11
8.4902
 21
100.491
  0
LINE
  8
0
 10
8.4902
 20
100.491
 11
8.53871
 21
100.62
  0
LINE
  8
0
 10
8.53871
 20
100.62
 11
8.59833
 21
100.745
  0
LINE
  8
0
 10
8.59833
 20
100.745
 11
8.66862
 21
100.865
  0
LINE
  8
0
 10
8.66862
 20
100.865
 11
8.74904
 21
100.977
  0
LINE
  8
0
 10
8.74904
 20
100.977
 11
8.83899
 21
101.083
  0
LINE
  8
0
 10
8.83899
 20
101.083
 11
8.93776
 21
101.18
  0
LINE
  8
0
 10
8.93776
 20
101.18
 11
9.04463
 21
101.268
  0
LINE
  8
0
 10
9.04463
 20
101.268
 11
9.15877
 21
101.346
  0
LINE
  8
0
 10
9.15877
 20
101.346
 11
9.2793
 21
101.414
  0
LINE
  8
0
 10
9.2793
 20
101.414
 11
9.40532
 21
101.472
  0
LINE
  8
0
 10
9.40532
 20
101.472
 11
9.53587
 21
101.518
  0
LINE
  8
0
 10
9.53587
 20
101.518
 11
9.66995
 21
101.553
  0
LINE
  8
0
 10
9.66995
 20
101.553
 11
9.80653
 21
101.576
  0
LINE
  8
0
 10
9.80653
 20
101.576
 11
9.94461
 21
101.587
  0
LINE
  8
0
 10
9.94461
 20
101.587
 11
10.0831
 21
101.585
  0
LINE
  8
0
 10
10.0831
 20
101.585
 11
10.2209
 21
101.572
  0
LINE
  8
0
 10
10.2209
 20
101.572
 11
10.3571
 21
101.547
  0
LINE
  8
0
 10
10.3571
 20
101.547
 11
10.4906
 21
101.51
  0
LINE
  8
0
 10
10.4906
 20
101.51
 11
10.6203
 21
101.461
  0
LINE
  8
0
 10
10.6203
 20
101.461
 11
10.7453
 21
101.402
  0
LINE
  8
0
 10
10.7453
 20
101.402
 11
10.8646
 21
101.331
  0
LINE
  8
0
 10
10.8646
 20
101.331
 11
10.9774
 21
101.251
  0
LINE
  8
0
 10
10.9774
 20
101.251
 11
11.0827
 21
101.161
  0
LINE
  8
0
 10
11.0827
 20
101.161
 11
11.1797
 21
101.062
  0
LINE
  8
0
 10
11.1797
 20
101.062
 11
11.2678
 21
100.955
  0
LINE
  8
0
 10
11.2678
 20
100.955
 11
11.3463
 21
100.841
  0
LINE
  8
0
 10
11.3463
 20
100.841
 11
11.4145
 21
100.721
  0
LINE
  8
0
 10
11.4145
 20
100.721
 11
11.4719
 21
100.595
  0
LINE
  8
0
 10
11.4719
 20
100.595
 11
11.5181
 21
100.464
  0
LINE
  8
0
 10
11.5181
 20
100.464
 11
11.5528
 21
100.33
  0
LINE
  8
0
 10
11.5528
 20
100.33
 11
11.5757
 21
100.193
  0
LINE
  8
0
 10
11.5757
 20
100.193
 11
11.5865
 21
100.055
  0
LINE
  8
0
 10
11.5865
 20
100.055
 11
11.5853
 21
99.9169
  0
LINE
  8
0
 10
11.5853
 20
99.9169
 11
11.5721
 21
99.7791
  0
LINE
  8
0
 10
11.5721
 20
99.7791
 11
11.5468
 21
99.6429
  0
LINE
  8
0
 10
11.5468
 20
99.6429
 11
11.5098
 21
99.5094
  0
LINE
  8
0
 10
11.5098
 20
99.5094
 11
11.4613
 21
99.3797
  0
LINE
  8
0
 10
11.4613
 20
99.3797
 11
11.4017
 21
99.2547
  0
LINE
  8
0
 10
11.4017
 20
99.2547
 11
11.3314
 21
99.1354
  0
LINE
  8
0
 10
11.3314
 20
99.1354
 11
11.251
 21
99.0226
  0
LINE
  8
0
 10
11.251
 20
99.0226
 11
11.161
 21
98.9173
  0
LINE
  8
0
 10
11.161
 20
98.9173
 11
11.0623
 21
98.8203
  0
LINE
  8
0
 10
11.0623
 20
98.8203
 11
10.9554
 21
98.7322
  0
LINE
  8
0
 10
10.9554
 20
98.7322
 11
10.8412
 21
98.6537
  0
LINE
  8
0
 10
10.8412
 20
98.6537
 11
10.7207
 21
98.5855
  0
LINE
  8
0
 10
10.7207
 20
98.5855
 11
10.5947
 21
98.5281
  0
LINE
  8
0
 10
10.5947
 20
98.5281
 11
10.4641
 21
98.4819
  0
LINE
  8
0
 10
10.4641
 20
98.4819
 11
10.3301
 21
98.4472
  0
LINE
  8
0
 10
10.3301
 20
98.4472
 11
10.1935
 21
98.4243
  0
LINE
  8
0
 10
10.1935
 20
98.4243
 11
10.0554
 21
98.4135
  0
LINE
  8
0
 10
10.0554
 20
98.4135
 11
9.91693
 21
98.4147
  0
LINE
  8
0
 10
10.1398
 20
50.5053
 11
10.0018
 21
50.5174
  0
LINE
  8
0
 10
10.0018
 20
50.5174
 11
9.86545
 21
50.5415
  0
LINE
  8
0
 10
9.86545
 20
50.5415
 11
9.73167
 21
50.5773
  0
LINE
  8
0
 10
9.73167
 20
50.5773
 11
9.60153
 21
50.6247
  0
LINE
  8
0
 10
9.60153
 20
50.6247
 11
9.47601
 21
50.6832
  0
LINE
  8
0
 10
9.47601
 20
50.6832
 11
9.35608
 21
50.7524
  0
LINE
  8
0
 10
9.35608
 20
50.7524
 11
9.24263
 21
50.8319
  0
LINE
  8
0
 10
9.24263
 20
50.8319
 11
9.13654
 21
50.9209
  0
LINE
  8
0
 10
9.13654
 20
50.9209
 11
9.03862
 21
51.0188
  0
LINE
  8
0
 10
9.03862
 20
51.0188
 11
8.9496
 21
51.1249
  0
LINE
  8
0
 10
8.9496
 20
51.1249
 11
8.87016
 21
51.2384
  0
LINE
  8
0
 10
8.87016
 20
51.2384
 11
8.80092
 21
51.3583
  0
LINE
  8
0
 10
8.80092
 20
51.3583
 11
8.74239
 21
51.4838
  0
LINE
  8
0
 10
8.74239
 20
51.4838
 11
8.69502
 21
51.614
  0
LINE
  8
0
 10
8.69502
 20
51.614
 11
8.65918
 21
51.7477
  0
LINE
  8
0
 10
8.65918
 20
51.7477
 11
8.63513
 21
51.8841
  0
LINE
  8
0
 10
8.63513
 20
51.8841
 11
8.62305
 21
52.0221
  0
LINE
  8
0
 10
8.62305
 20
52.0221
 11
8.62306
 21
52.1605
  0
LINE
  8
0
 10
8.62306
 20
52.1605
 11
8.63513
 21
52.2985
  0
LINE
  8
0
 10
8.63513
 20
52.2985
 11
8.65918
 21
52.4349
  0
LINE
  8
0
 10
8.65918
 20
52.4349
 11
8.69502
 21
52.5687
  0
LINE
  8
0
 10
8.69502
 20
52.5687
 11
8.74239
 21
52.6988
  0
LINE
  8
0
 10
8.74239
 20
52.6988
 11
8.80092
 21
52.8243
  0
LINE
  8
0
 10
8.80092
 20
52.8243
 11
8.87016
 21
52.9443
  0
LINE
  8
0
 10
8.87016
 20
52.9443
 11
8.94958
 21
53.0577
  0
LINE
  8
0
 10
8.94958
 20
53.0577
 11
9.03862
 21
53.1638
  0
LINE
  8
0
 10
9.03862
 20
53.1638
 11
9.13654
 21
53.2617
  0
LINE
  8
0
 10
9.13654
 20
53.2617
 11
9.24265
 21
53.3508
  0
LINE
  8
0
 10
9.24265
 20
53.3508
 11
9.35608
 21
53.4302
  0
LINE
  8
0
 10
9.35608
 20
53.4302
 11
9.47601
 21
53.4994
  0
LINE
  8
0
 10
9.47601
 20
53.4994
 11
9.60153
 21
53.558
  0
LINE
  8
0
 10
9.60153
 20
53.558
 11
9.73167
 21
53.6053
  0
LINE
  8
0
 10
9.73167
 20
53.6053
 11
9.86545
 21
53.6412
  0
LINE
  8
0
 10
9.86545
 20
53.6412
 11
10.0018
 21
53.6652
  0
LINE
  8
0
 10
10.0018
 20
53.6652
 11
10.1398
 21
53.6773
  0
LINE
  8
0
 10
10.1398
 20
53.6773
 11
10.2783
 21
53.6773
  0
LINE
  8
0
 10
10.2783
 20
53.6773
 11
10.4163
 21
53.6652
  0
LINE
  8
0
 10
10.4163
 20
53.6652
 11
10.5526
 21
53.6412
  0
LINE
  8
0
 10
10.5526
 20
53.6412
 11
10.6864
 21
53.6053
  0
LINE
  8
0
 10
10.6864
 20
53.6053
 11
10.8166
 21
53.558
  0
LINE
  8
0
 10
10.8166
 20
53.558
 11
10.9421
 21
53.4994
  0
LINE
  8
0
 10
10.9421
 20
53.4994
 11
11.062
 21
53.4302
  0
LINE
  8
0
 10
11.062
 20
53.4302
 11
11.1754
 21
53.3508
  0
LINE
  8
0
 10
11.1754
 20
53.3508
 11
11.2816
 21
53.2617
  0
LINE
  8
0
 10
11.2816
 20
53.2617
 11
11.3795
 21
53.1638
  0
LINE
  8
0
 10
11.3795
 20
53.1638
 11
11.4685
 21
53.0577
  0
LINE
  8
0
 10
11.4685
 20
53.0577
 11
11.5479
 21
52.9443
  0
LINE
  8
0
 10
11.5479
 20
52.9443
 11
11.6172
 21
52.8243
  0
LINE
  8
0
 10
11.6172
 20
52.8243
 11
11.6757
 21
52.6988
  0
LINE
  8
0
 10
11.6757
 20
52.6988
 11
11.7231
 21
52.5687
  0
LINE
  8
0
 10
11.7231
 20
52.5687
 11
11.7589
 21
52.4349
  0
LINE
  8
0
 10
11.7589
 20
52.4349
 11
11.783
 21
52.2985
  0
LINE
  8
0
 10
11.783
 20
52.2985
 11
11.795
 21
52.1605
  0
LINE
  8
0
 10
11.795
 20
52.1605
 11
11.795
 21
52.0221
  0
LINE
  8
0
 10
11.795
 20
52.0221
 11
11.783
 21
51.8841
  0
LINE
  8
0
 10
11.783
 20
51.8841
 11
11.7589
 21
51.7477
  0
LINE
  8
0
 10
11.7589
 20
51.7477
 11
11.7231
 21
51.614
  0
LINE
  8
0
 10
11.7231
 20
51.614
 11
11.6757
 21
51.4838
  0
LINE
  8
0
 10
11.6757
 20
51.4838
 11
11.6172
 21
51.3583
  0
LINE
  8
0
 10
11.6172
 20
51.3583
 11
11.5479
 21
51.2384
  0
LINE
  8
0
 10
11.5479
 20
51.2384
 11
11.4685
 21
51.1249
  0
LINE
  8
0
 10
11.4685
 20
51.1249
 11
11.3795
 21
51.0188
  0
LINE
  8
0
 10
11.3795
 20
51.0188
 11
11.2815
 21
50.9209
  0
LINE
  8
0
 10
11.2815
 20
50.9209
 11
11.1754
 21
50.8319
  0
LINE
  8
0
 10
11.1754
 20
50.8319
 11
11.062
 21
50.7524
  0
LINE
  8
0
 10
11.062
 20
50.7524
 11
10.9421
 21
50.6832
  0
LINE
  8
0
 10
10.9421
 20
50.6832
 11
10.8166
 21
50.6247
  0
LINE
  8
0
 10
10.8166
 20
50.6247
 11
10.6864
 21
50.5773
  0
LINE
  8
0
 10
10.6864
 20
50.5773
 11
10.5526
 21
50.5415
  0
LINE
  8
0
 10
10.5526
 20
50.5415
 11
10.4163
 21
50.5174
  0
LINE
  8
0
 10
10.4163
 20
50.5174
 11
10.2783
 21
50.5053
  0
LINE
  8
0
 10
10.2783
 20
50.5053
 11
10.1398
 21
50.5053
  0
LINE
  8
0
 10
13
 20
8
 11
12.8604
 21
8.00243
  0
LINE
  8
0
 10
12.8604
 20
8.00243
 11
12.721
 21
8.00974
  0
LINE
  8
0
 10
12.721
 20
8.00974
 11
12.5819
 21
8.02191
  0
LINE
  8
0
 10
12.5819
 20
8.02191
 11
12.4433
 21
8.03893
  0
LINE
  8
0
 10
12.4433
 20
8.03893
 11
12.3054
 21
8.06076
  0
LINE
  8
0
 10
12.3054
 20
8.06076
 11
12.1684
 21
8.0874
  0
LINE
  8
0
 10
12.1684
 20
8.0874
 11
12.0323
 21
8.1188
  0
LINE
  8
0
 10
12.0323
 20
8.1188
 11
11.8974
 21
8.15495
  0
LINE
  8
0
 10
11.8974
 20
8.15495
 11
11.7639
 21
8.19577
  0
LINE
  8
0
 10
11.7639
 20
8.19577
 11
11.6319
 21
8.24123
  0
LINE
  8
0
 10
11.6319
 20
8.24123
 11
11.5016
 21
8.29126
  0
LINE
  8
0
 10
11.5016
 20
8.29126
 11
11.373
 21
8.34581
  0
LINE
  8
0
 10
11.373
 20
8.34581
 11
11.2465
 21
8.40482
  0
LINE
  8
0
 10
11.2465
 20
8.40482
 11
11.1221
 21
8.4682
  0
LINE
  8
0
 10
11.1221
 20
8.4682
 11
11
 21
8.53589
  0
LINE
  8
0
 10
11
 20
8.53589
 11
10.8803
 21
8.6078
  0
LINE
  8
0
 10
10.8803
 20
8.6078
 11
10.7632
 21
8.68384
  0
LINE
  8
0
 10
10.7632
 20
8.68384
 11
10.6488
 21
8.76393
  0
LINE
  8
0
 10
10.6488
 20
8.76393
 11
10.5374
 21
8.84795
  0
LINE
  8
0
 10
10.5374
 20
8.84795
 11
10.4288
 21
8.93582
  0
LINE
  8
0
 10
10.4288
 20
8.93582
 11
10.3235
 21
9.02742
  0
LINE
  8
0
 10
10.3235
 20
9.02742
 11
10.2214
 21
9.12263
  0
LINE
  8
0
 10
10.2214
 20
9.12263
 11
10.1226
 21
9.22136
  0
LINE
  8
0
 10
10.1226
 20
9.22136
 11
10.0274
 21
9.32347
  0
LINE
  8
0
 10
10.0274
 20
9.32347
 11
9.93582
 21
9.42885
  0
LINE
  8
0
 10
9.93582
 20
9.42885
 11
9.84795
 21
9.53735
  0
LINE
  8
0
 10
9.84795
 20
9.53735
 11
9.76393
 21
9.64885
  0
LINE
  8
0
 10
9.76393
 20
9.64885
 11
9.68384
 21
9.76321
  0
LINE
  8
0
 10
9.68384
 20
9.76321
 11
9.6078
 21
9.88031
  0
LINE
  8
0
 10
9.6078
 20
9.88031
 11
9.53589
 21
10
  0
LINE
  8
0
 10
9.53589
 20
10
 11
9.4682
 21
10.1221
  0
LINE
  8
0
 10
9.4682
 20
10.1221
 11
9.40482
 21
10.2465
  0
LINE
  8
0
 10
9.40482
 20
10.2465
 11
9.34581
 21
10.373
  0
LINE
  8
0
 10
9.34581
 20
10.373
 11
9.29126
 21
10.5016
  0
LINE
  8
0
 10
9.29126
 20
10.5016
 11
9.24123
 21
10.6319
  0
LINE
  8
0
 10
9.24123
 20
10.6319
 11
9.19577
 21
10.7639
  0
LINE
  8
0
 10
9.19577
 20
10.7639
 11
9.15495
 21
10.8974
  0
LINE
  8
0
 10
9.15495
 20
10.8974
 11
9.1188
 21
11.0323
  0
LINE
  8
0
 10
9.1188
 20
11.0323
 11
9.0874
 21
11.1684
  0
LINE
  8
0
 10
9.0874
 20
11.1684
 11
9.06076
 21
11.3054
  0
LINE
  8
0
 10
9.06076
 20
11.3054
 11
9.03893
 21
11.4433
  0
LINE
  8
0
 10
9.03893
 20
11.4433
 11
9.02191
 21
11.5819
  0
LINE
  8
0
 10
9.02191
 20
11.5819
 11
9.00974
 21
11.721
  0
LINE
  8
0
 10
9.00974
 20
11.721
 11
9.00243
 21
11.8604
  0
LINE
  8
0
 10
9.00243
 20
11.8604
 11
9
 21
12
  0
LINE
  8
0
 10
9
 20
12
 11
9.00243
 21
12.1396
  0
LINE
  8
0
 10
9.00243
 20
12.1396
 11
9.00974
 21
12.279
  0
LINE
  8
0
 10
9.00974
 20
12.279
 11
9.02191
 21
12.4181
  0
LINE
  8
0
 10
9.02191
 20
12.4181
 11
9.03893
 21
12.5567
  0
LINE
  8
0
 10
9.03893
 20
12.5567
 11
9.06076
 21
12.6946
  0
LINE
  8
0
 10
9.06076
 20
12.6946
 11
9.0874
 21
12.8316
  0
LINE
  8
0
 10
9.0874
 20
12.8316
 11
9.1188
 21
12.9677
  0
LINE
  8
0
 10
9.1188
 20
12.9677
 11
9.15495
 21
13.1025
  0
LINE
  8
0
 10
9.15495
 20
13.1025
 11
9.19577
 21
13.2361
  0
LINE
  8
0
 10
9.19577
 20
13.2361
 11
9.24123
 21
13.3681
  0
LINE
  8
0
 10
9.24123
 20
13.3681
 11
9.29126
 21
13.4984
  0
LINE
  8
0
 10
9.29126
 20
13.4984
 11
9.34581
 21
13.6269
  0
LINE
  8
0
 10
9.34581
 20
13.6269
 11
9.40482
 21
13.7535
  0
LINE
  8
0
 10
9.40482
 20
13.7535
 11
9.4682
 21
13.8779
  0
LINE
  8
0
 10
9.4682
 20
13.8779
 11
9.53589
 21
14
  0
LINE
  8
0
 10
9.53589
 20
14
 11
9.6078
 21
14.1197
  0
LINE
  8
0
 10
9.6078
 20
14.1197
 11
9.68384
 21
14.2368
  0
LINE
  8
0
 10
9.68384
 20
14.2368
 11
9.76393
 21
14.3511
  0
LINE
  8
0
 10
9.76393
 20
14.3511
 11
9.84795
 21
14.4626
  0
LINE
  8
0
 10
9.84795
 20
14.4626
 11
9.93582
 21
14.5711
  0
LINE
  8
0
 10
9.93582
 20
14.5711
 11
10.0274
 21
14.6765
  0
LINE
  8
0
 10
10.0274
 20
14.6765
 11
10.1226
 21
14.7786
  0
LINE
  8
0
 10
10.1226
 20
14.7786
 11
10.2214
 21
14.8773
  0
LINE
  8
0
 10
10.2214
 20
14.8773
 11
10.3235
 21
14.9726
  0
LINE
  8
0
 10
10.3235
 20
14.9726
 11
10.4288
 21
15.0642
  0
LINE
  8
0
 10
10.4288
 20
15.0642
 11
10.5374
 21
15.152
  0
LINE
  8
0
 10
10.5374
 20
15.152
 11
10.6488
 21
15.2361
  0
LINE
  8
0
 10
10.6488
 20
15.2361
 11
10.7632
 21
15.3161
  0
LINE
  8
0
 10
10.7632
 20
15.3161
 11
10.8803
 21
15.3922
  0
LINE
  8
0
 10
10.8803
 20
15.3922
 11
11
 21
15.4641
  0
LINE
  8
0
 10
11
 20
15.4641
 11
11.1221
 21
15.5318
  0
LINE
  8
0
 10
11.1221
 20
15.5318
 11
11.2465
 21
15.5952
  0
LINE
  8
0
 10
11.2465
 20
15.5952
 11
11.373
 21
15.6542
  0
LINE
  8
0
 10
11.373
 20
15.6542
 11
11.5016
 21
15.7087
  0
LINE
  8
0
 10
11.5016
 20
15.7087
 11
11.6319
 21
15.7588
  0
LINE
  8
0
 10
11.6319
 20
15.7588
 11
11.7639
 21
15.8042
  0
LINE
  8
0
 10
11.7639
 20
15.8042
 11
11.8974
 21
15.845
  0
LINE
  8
0
 10
11.8974
 20
15.845
 11
12.0323
 21
15.8812
  0
LINE
  8
0
 10
12.0323
 20
15.8812
 11
12.1684
 21
15.9126
  0
LINE
  8
0
 10
12.1684
 20
15.9126
 11
12.3054
 21
15.9392
  0
LINE
  8
0
 10
12.3054
 20
15.9392
 11
12.4433
 21
15.9611
  0
LINE
  8
0
 10
12.4433
 20
15.9611
 11
12.5819
 21
15.9781
  0
LINE
  8
0
 10
12.5819
 20
15.9781
 11
12.721
 21
15.9902
  0
LINE
  8
0
 10
12.721
 20
15.9902
 11
12.8604
 21
15.9976
  0
LINE
  8
0
 10
12.8604
 20
15.9976
 11
13
 21
16
  0
LINE
  8
0
 10
13
 20
16
 11
13.1396
 21
15.9976
  0
LINE
  8
0
 10
13.1396
 20
15.9976
 11
13.279
 21
15.9902
  0
LINE
  8
0
 10
13.279
 20
15.9902
 11
13.4181
 21
15.9781
  0
LINE
  8
0
 10
13.4181
 20
15.9781
 11
13.5567
 21
15.9611
  0
LINE
  8
0
 10
13.5567
 20
15.9611
 11
13.6946
 21
15.9392
  0
LINE
  8
0
 10
13.6946
 20
15.9392
 11
13.8316
 21
15.9126
  0
LINE
  8
0
 10
13.8316
 20
15.9126
 11
13.9677
 21
15.8812
  0
LINE
  8
0
 10
13.9677
 20
15.8812
 11
14.1025
 21
15.845
  0
LINE
  8
0
 10
14.1025
 20
15.845
 11
14.2361
 21
15.8042
  0
LINE
  8
0
 10
14.2361
 20
15.8042
 11
14.3681
 21
15.7588
  0
LINE
  8
0
 10
14.3681
 20
15.7588
 11
14.4984
 21
15.7087
  0
LINE
  8
0
 10
14.4984
 20
15.7087
 11
14.6269
 21
15.6542
  0
LINE
  8
0
 10
14.6269
 20
15.6542
 11
14.7535
 21
15.5952
  0
LINE
  8
0
 10
14.7535
 20
15.5952
 11
14.8779
 21
15.5318
  0
LINE
  8
0
 10
14.8779
 20
15.5318
 11
15
 21
15.4641
  0
LINE
  8
0
 10
15
 20
15.4641
 11
15.1197
 21
15.3922
  0
LINE
  8
0
 10
15.1197
 20
15.3922
 11
15.2368
 21
15.3161
  0
LINE
  8
0
 10
15.2368
 20
15.3161
 11
15.3511
 21
15.2361
  0
LINE
  8
0
 10
15.3511
 20
15.2361
 11
15.4626
 21
15.152
  0
LINE
  8
0
 10
15.4626
 20
15.152
 11
15.5711
 21
15.0642
  0
LINE
  8
0
 10
15.5711
 20
15.0642
 11
15.6765
 21
14.9726
  0
LINE
  8
0
 10
15.6765
 20
14.9726
 11
15.7786
 21
14.8773
  0
LINE
  8
0
 10
15.7786
 20
14.8773
 11
15.8773
 21
14.7786
  0
LINE
  8
0
 10
15.8773
 20
14.7786
 11
15.9726
 21
14.6765
  0
LINE
  8
0
 10
15.9726
 20
14.6765
 11
16.0642
 21
14.5711
  0
LINE
  8
0
 10
16.0642
 20
14.5711
 11
16.152
 21
14.4626
  0
LINE
  8
0
 10
16.152
 20
14.4626
 11
16.2361
 21
14.3511
  0
LINE
  8
0
 10
16.2361
 20
14.3511
 11
16.3161
 21
14.2368
  0
LINE
  8
0
 10
16.3161
 20
14.2368
 11
16.3922
 21
14.1197
  0
LINE
  8
0
 10
16.3922
 20
14.1197
 11
16.4641
 21
14
  0
LINE
  8
0
 10
16.4641
 20
14
 11
16.5318
 21
13.8779
  0
LINE
  8
0
 10
16.5318
 20
13.8779
 11
16.5952
 21
13.7535
  0
LINE
  8
0
 10
16.5952
 20
13.7535
 11
16.6542
 21
13.6269
  0
LINE
  8
0
 10
16.6542
 20
13.6269
 11
16.7087
 21
13.4984
  0
LINE
  8
0
 10
16.7087
 20
13.4984
 11
16.7588
 21
13.3681
  0
LINE
  8
0
 10
16.7588
 20
13.3681
 11
16.8042
 21
13.2361
  0
LINE
  8
0
 10
16.8042
 20
13.2361
 11
16.845
 21
13.1025
  0
LINE
  8
0
 10
16.845
 20
13.1025
 11
16.8812
 21
12.9677
  0
LINE
  8
0
 10
16.8812
 20
12.9677
 11
16.9126
 21
12.8316
  0
LINE
  8
0
 10
16.9126
 20
12.8316
 11
16.9392
 21
12.6946
  0
LINE
  8
0
 10
16.9392
 20
12.6946
 11
16.9611
 21
12.5567
  0
LINE
  8
0
 10
16.9611
 20
12.5567
 11
16.9781
 21
12.4181
  0
LINE
  8
0
 10
16.9781
 20
12.4181
 11
16.9902
 21
12.279
  0
LINE
  8
0
 10
16.9902
 20
12.279
 11
16.9976
 21
12.1396
  0
LINE
  8
0
 10
16.9976
 20
12.1396
 11
17
 21
12
  0
LINE
  8
0
 10
17
 20
12
 11
16.9976
 21
11.8604
  0
LINE
  8
0
 10
16.9976
 20
11.8604
 11
16.9902
 21
11.721
  0
LINE
  8
0
 10
16.9902
 20
11.721
 11
16.9781
 21
11.5819
  0
LINE
  8
0
 10
16.9781
 20
11.5819
 11
16.9611
 21
11.4433
  0
LINE
  8
0
 10
16.9611
 20
11.4433
 11
16.9392
 21
11.3054
  0
LINE
  8
0
 10
16.9392
 20
11.3054
 11
16.9126
 21
11.1684
  0
LINE
  8
0
 10
16.9126
 20
11.1684
 11
16.8812
 21
11.0323
  0
LINE
  8
0
 10
16.8812
 20
11.0323
 11
16.845
 21
10.8974
  0
LINE
  8
0
 10
16.845
 20
10.8974
 11
16.8042
 21
10.7639
  0
LINE
  8
0
 10
16.8042
 20
10.7639
 11
16.7588
 21
10.6319
  0
LINE
  8
0
 10
16.7588
 20
10.6319
 11
16.7087
 21
10.5016
  0
LINE
  8
0
 10
16.7087
 20
10.5016
 11
16.6542
 21
10.373
  0
LINE
  8
0
 10
16.6542
 20
10.373
 11
16.5952
 21
10.2465
  0
LINE
  8
0
 10
16.5952
 20
10.2465
 11
16.5318
 21
10.1221
  0
LINE
  8
0
 10
16.5318
 20
10.1221
 11
16.4641
 21
9.99998
  0
LINE
  8
0
 10
16.4641
 20
9.99998
 11
16.3922
 21
9.88031
  0
LINE
  8
0
 10
16.3922
 20
9.88031
 11
16.3161
 21
9.76321
  0
LINE
  8
0
 10
16.3161
 20
9.76321
 11
16.2361
 21
9.64885
  0
LINE
  8
0
 10
16.2361
 20
9.64885
 11
16.152
 21
9.53735
  0
LINE
  8
0
 10
16.152
 20
9.53735
 11
16.0642
 21
9.42885
  0
LINE
  8
0
 10
16.0642
 20
9.42885
 11
15.9726
 21
9.32347
  0
LINE
  8
0
 10
15.9726
 20
9.32347
 11
15.8773
 21
9.22136
  0
LINE
  8
0
 10
15.8773
 20
9.22136
 11
15.7786
 21
9.12263
  0
LINE
  8
0
 10
15.7786
 20
9.12263
 11
15.6765
 21
9.02742
  0
LINE
  8
0
 10
15.6765
 20
9.02742
 11
15.5711
 21
8.93582
  0
LINE
  8
0
 10
15.5711
 20
8.93582
 11
15.4626
 21
8.84795
  0
LINE
  8
0
 10
15.4626
 20
8.84795
 11
15.3511
 21
8.76393
  0
LINE
  8
0
 10
15.3511
 20
8.76393
 11
15.2368
 21
8.68384
  0
LINE
  8
0
 10
15.2368
 20
8.68384
 11
15.1197
 21
8.6078
  0
LINE
  8
0
 10
15.1197
 20
8.6078
 11
15
 21
8.53589
  0
LINE
  8
0
 10
15
 20
8.53589
 11
14.8779
 21
8.4682
  0
LINE
  8
0
 10
14.8779
 20
8.4682
 11
14.7535
 21
8.40482
  0
LINE
  8
0
 10
14.7535
 20
8.40482
 11
14.6269
 21
8.34581
  0
LINE
  8
0
 10
14.6269
 20
8.34581
 11
14.4984
 21
8.29126
  0
LINE
  8
0
 10
14.4984
 20
8.29126
 11
14.3681
 21
8.24123
  0
LINE
  8
0
 10
14.3681
 20
8.24123
 11
14.2361
 21
8.19577
  0
LINE
  8
0
 10
14.2361
 20
8.19577
 11
14.1025
 21
8.15495
  0
LINE
  8
0
 10
14.1025
 20
8.15495
 11
13.9677
 21
8.1188
  0
LINE
  8
0
 10
13.9677
 20
8.1188
 11
13.8316
 21
8.0874
  0
LINE
  8
0
 10
13.8316
 20
8.0874
 11
13.6946
 21
8.06076
  0
LINE
  8
0
 10
13.6946
 20
8.06076
 11
13.5567
 21
8.03893
  0
LINE
  8
0
 10
13.5567
 20
8.03893
 11
13.4181
 21
8.02191
  0
LINE
  8
0
 10
13.4181
 20
8.02191
 11
13.279
 21
8.00974
  0
LINE
  8
0
 10
13.279
 20
8.00974
 11
13.1396
 21
8.00243
  0
LINE
  8
0
 10
13.1396
 20
8.00243
 11
13
 21
8
  0
LINE
  8
0
 10
198
 20
8
 11
197.86
 21
8.00243
  0
LINE
  8
0
 10
197.86
 20
8.00243
 11
197.721
 21
8.00974
  0
LINE
  8
0
 10
197.721
 20
8.00974
 11
197.582
 21
8.02191
  0
LINE
  8
0
 10
197.582
 20
8.02191
 11
197.443
 21
8.03893
  0
LINE
  8
0
 10
197.443
 20
8.03893
 11
197.305
 21
8.06076
  0
LINE
  8
0
 10
197.305
 20
8.06076
 11
197.168
 21
8.0874
  0
LINE
  8
0
 10
197.168
 20
8.0874
 11
197.032
 21
8.1188
  0
LINE
  8
0
 10
197.032
 20
8.1188
 11
196.897
 21
8.15495
  0
LINE
  8
0
 10
196.897
 20
8.15495
 11
196.764
 21
8.19577
  0
LINE
  8
0
 10
196.764
 20
8.19577
 11
196.632
 21
8.24123
  0
LINE
  8
0
 10
196.632
 20
8.24123
 11
196.502
 21
8.29126
  0
LINE
  8
0
 10
196.502
 20
8.29126
 11
196.373
 21
8.34581
  0
LINE
  8
0
 10
196.373
 20
8.34581
 11
196.247
 21
8.40482
  0
LINE
  8
0
 10
196.247
 20
8.40482
 11
196.122
 21
8.4682
  0
LINE
  8
0
 10
196.122
 20
8.4682
 11
196
 21
8.53589
  0
LINE
  8
0
 10
196
 20
8.53589
 11
195.88
 21
8.6078
  0
LINE
  8
0
 10
195.88
 20
8.6078
 11
195.763
 21
8.68384
  0
LINE
  8
0
 10
195.763
 20
8.68384
 11
195.649
 21
8.76393
  0
LINE
  8
0
 10
195.649
 20
8.76393
 11
195.537
 21
8.84795
  0
LINE
  8
0
 10
195.537
 20
8.84795
 11
195.429
 21
8.93582
  0
LINE
  8
0
 10
195.429
 20
8.93582
 11
195.323
 21
9.02742
  0
LINE
  8
0
 10
195.323
 20
9.02742
 11
195.221
 21
9.12263
  0
LINE
  8
0
 10
195.221
 20
9.12263
 11
195.123
 21
9.22136
  0
LINE
  8
0
 10
195.123
 20
9.22136
 11
195.027
 21
9.32347
  0
LINE
  8
0
 10
195.027
 20
9.32347
 11
194.936
 21
9.42885
  0
LINE
  8
0
 10
194.936
 20
9.42885
 11
194.848
 21
9.53735
  0
LINE
  8
0
 10
194.848
 20
9.53735
 11
194.764
 21
9.64885
  0
LINE
  8
0
 10
194.764
 20
9.64885
 11
194.684
 21
9.76321
  0
LINE
  8
0
 10
194.684
 20
9.76321
 11
194.608
 21
9.88031
  0
LINE
  8
0
 10
194.608
 20
9.88031
 11
194.536
 21
10
  0
LINE
  8
0
 10
194.536
 20
10
 11
194.468
 21
10.1221
  0
LINE
  8
0
 10
194.468
 20
10.1221
 11
194.405
 21
10.2465
  0
LINE
  8
0
 10
194.405
 20
10.2465
 11
194.346
 21
10.373
  0
LINE
  8
0
 10
194.346
 20
10.373
 11
194.291
 21
10.5016
  0
LINE
  8
0
 10
194.291
 20
10.5016
 11
194.241
 21
10.6319
  0
LINE
  8
0
 10
194.241
 20
10.6319
 11
194.196
 21
10.7639
  0
LINE
  8
0
 10
194.196
 20
10.7639
 11
194.155
 21
10.8974
  0
LINE
  8
0
 10
194.155
 20
10.8974
 11
194.119
 21
11.0323
  0
LINE
  8
0
 10
194.119
 20
11.0323
 11
194.087
 21
11.1684
  0
LINE
  8
0
 10
194.087
 20
11.1684
 11
194.061
 21
11.3054
  0
LINE
  8
0
 10
194.061
 20
11.3054
 11
194.039
 21
11.4433
  0
LINE
  8
0
 10
194.039
 20
11.4433
 11
194.022
 21
11.5819
  0
LINE
  8
0
 10
194.022
 20
11.5819
 11
194.01
 21
11.721
  0
LINE
  8
0
 10
194.01
 20
11.721
 11
194.002
 21
11.8604
  0
LINE
  8
0
 10
194.002
 20
11.8604
 11
194
 21
12
  0
LINE
  8
0
 10
194
 20
12
 11
194.002
 21
12.1396
  0
LINE
  8
0
 10
194.002
 20
12.1396
 11
194.01
 21
12.279
  0
LINE
  8
0
 10
194.01
 20
12.279
 11
194.022
 21
12.4181
  0
LINE
  8
0
 10
194.022
 20
12.4181
 11
194.039
 21
12.5567
  0
LINE
  8
0
 10
194.039
 20
12.5567
 11
194.061
 21
12.6946
  0
LINE
  8
0
 10
194.061
 20
12.6946
 11
194.087
 21
12.8316
  0
LINE
  8
0
 10
194.087
 20
12.8316
 11
194.119
 21
12.9677
  0
LINE
  8
0
 10
194.119
 20
12.9677
 11
194.155
 21
13.1025
  0
LINE
  8
0
 10
194.155
 20
13.1025
 11
194.196
 21
13.2361
  0
LINE
  8
0
 10
194.196
 20
13.2361
 11
194.241
 21
13.3681
  0
LINE
  8
0
 10
194.241
 20
13.3681
 11
194.291
 21
13.4984
  0
LINE
  8
0
 10
194.291
 20
13.4984
 11
194.346
 21
13.6269
  0
LINE
  8
0
 10
194.346
 20
13.6269
 11
194.405
 21
13.7535
  0
LINE
  8
0
 10
194.405
 20
13.7535
 11
194.468
 21
13.8779
  0
LINE
  8
0
 10
194.468
 20
13.8779
 11
194.536
 21
14
  0
LINE
  8
0
 10
194.536
 20
14
 11
194.608
 21
14.1197
  0
LINE
  8
0
 10
194.608
 20
14.1197
 11
194.684
 21
14.2368
  0
LINE
  8
0
 10
194.684
 20
14.2368
 11
194.764
 21
14.3511
  0
LINE
  8
0
 10
194.764
 20
14.3511
 11
194.848
 21
14.4626
  0
LINE
  8
0
 10
194.848
 20
14.4626
 11
194.936
 21
14.5711
  0
LINE
  8
0
 10
194.936
 20
14.5711
 11
195.027
 21
14.6765
  0
LINE
  8
0
 10
195.027
 20
14.6765
 11
195.123
 21
14.7786
  0
LINE
  8
0
 10
195.123
 20
14.7786
 11
195.221
 21
14.8773
  0
LINE
  8
0
 10
195.221
 20
14.8773
 11
195.323
 21
14.9726
  0
LINE
  8
0
 10
195.323
 20
14.9726
 11
195.429
 21
15.0642
  0
LINE
  8
0
 10
195.429
 20
15.0642
 11
195.537
 21
15.152
  0
LINE
  8
0
 10
195.537
 20
15.152
 11
195.649
 21
15.2361
  0
LINE
  8
0
 10
195.649
 20
15.2361
 11
195.763
 21
15.3161
  0
LINE
  8
0
 10
195.763
 20
15.3161
 11
195.88
 21
15.3922
  0
LINE
  8
0
 10
195.88
 20
15.3922
 11
196
 21
15.4641
  0
LINE
  8
0
 10
196
 20
15.4641
 11
196.122
 21
15.5318
  0
LINE
  8
0
 10
196.122
 20
15.5318
 11
196.247
 21
15.5952
  0
LINE
  8
0
 10
196.247
 20
15.5952
 11
196.373
 21
15.6542
  0
LINE
  8
0
 10
196.373
 20
15.6542
 11
196.502
 21
15.7087
  0
LINE
  8
0
 10
196.502
 20
15.7087
 11
196.632
 21
15.7588
  0
LINE
  8
0
 10
196.632
 20
15.7588
 11
196.764
 21
15.8042
  0
LINE
  8
0
 10
196.764
 20
15.8042
 11
196.897
 21
15.845
  0
LINE
  8
0
 10
196.897
 20
15.845
 11
197.032
 21
15.8812
  0
LINE
  8
0
 10
197.032
 20
15.8812
 11
197.168
 21
15.9126
  0
LINE
  8
0
 10
197.168
 20
15.9126
 11
197.305
 21
15.9392
  0
LINE
  8
0
 10
197.305
 20
15.9392
 11
197.443
 21
15.9611
  0
LINE
  8
0
 10
197.443
 20
15.9611
 11
197.582
 21
15.9781
  0
LINE
  8
0
 10
197.582
 20
15.9781
 11
197.721
 21
15.9902
  0
LINE
  8
0
 10
197.721
 20
15.9902
 11
197.86
 21
15.9976
  0
LINE
  8
0
 10
197.86
 20
15.9976
 11
198
 21
16
  0
LINE
  8
0
 10
198
 20
16
 11
198.14
 21
15.9976
  0
LINE
  8
0
 10
198.14
 20
15.9976
 11
198.279
 21
15.9902
  0
LINE
  8
0
 10
198.279
 20
15.9902
 11
198.418
 21
15.9781
  0
LINE
  8
0
 10
198.418
 20
15.9781
 11
198.557
 21
15.9611
  0
LINE
  8
0
 10
198.557
 20
15.9611
 11
198.695
 21
15.9392
  0
LINE
  8
0
 10
198.695
 20
15.9392
 11
198.832
 21
15.9126
  0
LINE
  8
0
 10
198.832
 20
15.9126
 11
198.968
 21
15.8812
  0
LINE
  8
0
 10
198.968
 20
15.8812
 11
199.103
 21
15.845
  0
LINE
  8
0
 10
199.103
 20
15.845
 11
199.236
 21
15.8042
  0
LINE
  8
0
 10
199.236
 20
15.8042
 11
199.368
 21
15.7588
  0
LINE
  8
0
 10
199.368
 20
15.7588
 11
199.498
 21
15.7087
  0
LINE
  8
0
 10
199.498
 20
15.7087
 11
199.627
 21
15.6542
  0
LINE
  8
0
 10
199.627
 20
15.6542
 11
199.753
 21
15.5952
  0
LINE
  8
0
 10
199.753
 20
15.5952
 11
199.878
 21
15.5318
  0
LINE
  8
0
 10
199.878
 20
15.5318
 11
200
 21
15.4641
  0
LINE
  8
0
 10
200
 20
15.4641
 11
200.12
 21
15.3922
  0
LINE
  8
0
 10
200.12
 20
15.3922
 11
200.237
 21
15.3161
  0
LINE
  8
0
 10
200.237
 20
15.3161
 11
200.351
 21
15.2361
  0
LINE
  8
0
 10
200.351
 20
15.2361
 11
200.463
 21
15.152
  0
LINE
  8
0
 10
200.463
 20
15.152
 11
200.571
 21
15.0642
  0
LINE
  8
0
 10
200.571
 20
15.0642
 11
200.677
 21
14.9726
  0
LINE
  8
0
 10
200.677
 20
14.9726
 11
200.779
 21
14.8773
  0
LINE
  8
0
 10
200.779
 20
14.8773
 11
200.877
 21
14.7786
  0
LINE
  8
0
 10
200.877
 20
14.7786
 11
200.973
 21
14.6765
  0
LINE
  8
0
 10
200.973
 20
14.6765
 11
201.064
 21
14.5711
  0
LINE
  8
0
 10
201.064
 20
14.5711
 11
201.152
 21
14.4626
  0
LINE
  8
0
 10
201.152
 20
14.4626
 11
201.236
 21
14.3511
  0
LINE
  8
0
 10
201.236
 20
14.3511
 11
201.316
 21
14.2368
  0
LINE
  8
0
 10
201.316
 20
14.2368
 11
201.392
 21
14.1197
  0
LINE
  8
0
 10
201.392
 20
14.1197
 11
201.464
 21
14
  0
LINE
  8
0
 10
201.464
 20
14
 11
201.532
 21
13.8779
  0
LINE
  8
0
 10
201.532
 20
13.8779
 11
201.595
 21
13.7535
  0
LINE
  8
0
 10
201.595
 20
13.7535
 11
201.654
 21
13.6269
  0
LINE
  8
0
 10
201.654
 20
13.6269
 11
201.709
 21
13.4984
  0
LINE
  8
0
 10
201.709
 20
13.4984
 11
201.759
 21
13.3681
  0
LINE
  8
0
 10
201.759
 20
13.3681
 11
201.804
 21
13.2361
  0
LINE
  8
0
 10
201.804
 20
13.2361
 11
201.845
 21
13.1025
  0
LINE
  8
0
 10
201.845
 20
13.1025
 11
201.881
 21
12.9677
  0
LINE
  8
0
 10
201.881
 20
12.9677
 11
201.913
 21
12.8316
  0
LINE
  8
0
 10
201.913
 20
12.8316
 11
201.939
 21
12.6946
  0
LINE
  8
0
 10
201.939
 20
12.6946
 11
201.961
 21
12.5567
  0
LINE
  8
0
 10
201.961
 20
12.5567
 11
201.978
 21
12.4181
  0
LINE
  8
0
 10
201.978
 20
12.4181
 11
201.99
 21
12.279
  0
LINE
  8
0
 10
201.99
 20
12.279
 11
201.998
 21
12.1396
  0
LINE
  8
0
 10
201.998
 20
12.1396
 11
202
 21
12
  0
LINE
  8
0
 10
202
 20
12
 11
201.998
 21
11.8604
  0
LINE
  8
0
 10
201.998
 20
11.8604
 11
201.99
 21
11.721
  0
LINE
  8
0
 10
201.99
 20
11.721
 11
201.978
 21
11.5819
  0
LINE
  8
0
 10
201.978
 20
11.5819
 11
201.961
 21
11.4433
  0
LINE
  8
0
 10
201.961
 20
11.4433
 11
201.939
 21
11.3054
  0
LINE
  8
0
 10
201.939
 20
11.3054
 11
201.913
 21
11.1684
  0
LINE
  8
0
 10
201.913
 20
11.1684
 11
201.881
 21
11.0323
  0
LINE
  8
0
 10
201.881
 20
11.0323
 11
201.845
 21
10.8974
  0
LINE
  8
0
 10
201.845
 20
10.8974
 11
201.804
 21
10.7639
  0
LINE
  8
0
 10
201.804
 20
10.7639
 11
201.759
 21
10.6319
  0
LINE
  8
0
 10
201.759
 20
10.6319
 11
201.709
 21
10.5016
  0
LINE
  8
0
 10
201.709
 20
10.5016
 11
201.654
 21
10.373
  0
LINE
  8
0
 10
201.654
 20
10.373
 11
201.595
 21
10.2465
  0
LINE
  8
0
 10
201.595
 20
10.2465
 11
201.532
 21
10.1221
  0
LINE
  8
0
 10
201.532
 20
10.1221
 11
201.464
 21
9.99998
  0
LINE
  8
0
 10
201.464
 20
9.99998
 11
201.392
 21
9.88031
  0
LINE
  8
0
 10
201.392
 20
9.88031
 11
201.316
 21
9.76321
  0
LINE
  8
0
 10
201.316
 20
9.76321
 11
201.236
 21
9.64885
  0
LINE
  8
0
 10
201.236
 20
9.64885
 11
201.152
 21
9.53735
  0
LINE
  8
0
 10
201.152
 20
9.53735
 11
201.064
 21
9.42885
  0
LINE
  8
0
 10
201.064
 20
9.42885
 11
200.973
 21
9.32347
  0
LINE
  8
0
 10
200.973
 20
9.32347
 11
200.877
 21
9.22136
  0
LINE
  8
0
 10
200.877
 20
9.22136
 11
200.779
 21
9.12263
  0
LINE
  8
0
 10
200.779
 20
9.12263
 11
200.677
 21
9.02742
  0
LINE
  8
0
 10
200.677
 20
9.02742
 11
200.571
 21
8.93582
  0
LINE
  8
0
 10
200.571
 20
8.93582
 11
200.463
 21
8.84795
  0
LINE
  8
0
 10
200.463
 20
8.84795
 11
200.351
 21
8.76393
  0
LINE
  8
0
 10
200.351
 20
8.76393
 11
200.237
 21
8.68384
  0
LINE
  8
0
 10
200.237
 20
8.68384
 11
200.12
 21
8.6078
  0
LINE
  8
0
 10
200.12
 20
8.6078
 11
200
 21
8.53589
  0
LINE
  8
0
 10
200
 20
8.53589
 11
199.878
 21
8.4682
  0
LINE
  8
0
 10
199.878
 20
8.4682
 11
199.753
 21
8.40482
  0
LINE
  8
0
 10
199.753
 20
8.40482
 11
199.627
 21
8.34581
  0
LINE
  8
0
 10
199.627
 20
8.34581
 11
199.498
 21
8.29126
  0
LINE
  8
0
 10
199.498
 20
8.29126
 11
199.368
 21
8.24123
  0
LINE
  8
0
 10
199.368
 20
8.24123
 11
199.236
 21
8.19577
  0
LINE
  8
0
 10
199.236
 20
8.19577
 11
199.103
 21
8.15495
  0
LINE
  8
0
 10
199.103
 20
8.15495
 11
198.968
 21
8.1188
  0
LINE
  8
0
 10
198.968
 20
8.1188
 11
198.832
 21
8.0874
  0
LINE
  8
0
 10
198.832
 20
8.0874
 11
198.695
 21
8.06076
  0
LINE
  8
0
 10
198.695
 20
8.06076
 11
198.557
 21
8.03893
  0
LINE
  8
0
 10
198.557
 20
8.03893
 11
198.418
 21
8.02191
  0
LINE
  8
0
 10
198.418
 20
8.02191
 11
198.279
 21
8.00974
  0
LINE
  8
0
 10
198.279
 20
8.00974
 11
198.14
 21
8.00243
  0
LINE
  8
0
 10
198.14
 20
8.00243
 11
198
 21
8
  0
ENDSEC
  0
SECTION
  2
OBJECTS
  0
DICTIONARY
  0
ENDSEC
  0
EOF
