  0
SECTION
  2
BLOCKS
  0
ENDSEC
  0
SECTION
  2
ENTITIES
  0
LINE
  8
0
 10
273.524
 20
44.5616
 11
268.872
 21
50.4105
  0
LINE
  8
0
 10
268.872
 20
50.4105
 11
261.01
 21
60.6569
  0
LINE
  8
0
 10
261.01
 20
60.6569
 11
253.327
 21
71.0389
  0
LINE
  8
0
 10
253.327
 20
71.0389
 11
245.827
 21
81.5534
  0
LINE
  8
0
 10
245.827
 20
81.5534
 11
238.512
 21
92.1973
  0
LINE
  8
0
 10
238.512
 20
92.1973
 11
231.384
 21
102.967
  0
LINE
  8
0
 10
231.384
 20
102.967
 11
224.444
 21
113.86
  0
LINE
  8
0
 10
224.444
 20
113.86
 11
217.696
 21
124.872
  0
LINE
  8
0
 10
217.696
 20
124.872
 11
211.141
 21
136
  0
LINE
  8
0
 10
211.141
 20
136
 11
204.781
 21
147.241
  0
LINE
  8
0
 10
204.781
 20
147.241
 11
198.619
 21
158.591
  0
LINE
  8
0
 10
198.619
 20
158.591
 11
192.655
 21
170.047
  0
LINE
  8
0
 10
192.655
 20
170.047
 11
186.892
 21
181.605
  0
LINE
  8
0
 10
186.892
 20
181.605
 11
181.332
 21
193.262
  0
LINE
  8
0
 10
181.332
 20
193.262
 11
175.976
 21
205.015
  0
LINE
  8
0
 10
175.976
 20
205.015
 11
170.826
 21
216.859
  0
LINE
  8
0
 10
170.826
 20
216.859
 11
165.884
 21
228.791
  0
LINE
  8
0
 10
165.884
 20
228.791
 11
161.15
 21
240.808
  0
LINE
  8
0
 10
161.15
 20
240.808
 11
156.627
 21
252.905
  0
LINE
  8
0
 10
156.627
 20
252.905
 11
152.316
 21
265.08
  0
LINE
  8
0
 10
152.316
 20
265.08
 11
148.218
 21
277.327
  0
LINE
  8
0
 10
148.218
 20
277.327
 11
144.334
 21
289.645
  0
LINE
  8
0
 10
144.334
 20
289.645
 11
140.666
 21
302.028
  0
LINE
  8
0
 10
140.666
 20
302.028
 11
137.215
 21
314.474
  0
LINE
  8
0
 10
137.215
 20
314.474
 11
133.981
 21
326.978
  0
LINE
  8
0
 10
133.981
 20
326.978
 11
130.966
 21
339.536
  0
LINE
  8
0
 10
130.966
 20
339.536
 11
128.171
 21
352.145
  0
LINE
  8
0
 10
128.171
 20
352.145
 11
125.596
 21
364.801
  0
LINE
  8
0
 10
125.596
 20
364.801
 11
123.242
 21
377.5
  0
LINE
  8
0
 10
123.242
 20
377.5
 11
121.111
 21
390.238
  0
LINE
  8
0
 10
121.111
 20
390.238
 11
119.202
 21
403.012
  0
LINE
  8
0
 10
119.202
 20
403.012
 11
117.516
 21
415.817
  0
LINE
  8
0
 10
117.516
 20
415.817
 11
116.054
 21
428.649
  0
LINE
  8
0
 10
116.054
 20
428.649
 11
114.816
 21
441.505
  0
LINE
  8
0
 10
114.816
 20
441.505
 11
113.803
 21
454.38
  0
LINE
  8
0
 10
113.803
 20
454.38
 11
113.014
 21
467.271
  0
LINE
  8
0
 10
113.014
 20
467.271
 11
112.458
 21
480
  0
LINE
  8
0
 10
112.458
 20
480
 11
0
 21
480
  0
LINE
  8
0
 10
0
 20
480
 11
0
 21
0
  0
LINE
  8
0
 10
0
 20
0
 11
43.5255
 21
0
  0
LINE
  8
0
 10
43.5255
 20
0
 11
43.713
 21
0.294312
  0
LINE
  8
0
 10
43.713
 20
0.294312
 11
44.5318
 21
1.53139
  0
LINE
  8
0
 10
44.5318
 20
1.53139
 11
45.3721
 21
2.75398
  0
LINE
  8
0
 10
45.3721
 20
2.75398
 11
46.2336
 21
3.96175
  0
LINE
  8
0
 10
46.2336
 20
3.96175
 11
47.116
 21
5.15427
  0
LINE
  8
0
 10
47.116
 20
5.15427
 11
48.0191
 21
6.33122
  0
LINE
  8
0
 10
48.0191
 20
6.33122
 11
48.9426
 21
7.49222
  0
LINE
  8
0
 10
48.9426
 20
7.49222
 11
49.8862
 21
8.63693
  0
LINE
  8
0
 10
49.8862
 20
8.63693
 11
50.8497
 21
9.76501
  0
LINE
  8
0
 10
50.8497
 20
9.76501
 11
51.8327
 21
10.8761
  0
LINE
  8
0
 10
51.8327
 20
10.8761
 11
52.8349
 21
11.9698
  0
LINE
  8
0
 10
52.8349
 20
11.9698
 11
53.8561
 21
13.046
  0
LINE
  8
0
 10
53.8561
 20
13.046
 11
54.8959
 21
14.1041
  0
LINE
  8
0
 10
54.8959
 20
14.1041
 11
55.954
 21
15.1439
  0
LINE
  8
0
 10
55.954
 20
15.1439
 11
57.0301
 21
16.1651
  0
LINE
  8
0
 10
57.0301
 20
16.1651
 11
58.1239
 21
17.1673
  0
LINE
  8
0
 10
58.1239
 20
17.1673
 11
59.235
 21
18.1503
  0
LINE
  8
0
 10
59.235
 20
18.1503
 11
60.3631
 21
19.1138
  0
LINE
  8
0
 10
60.3631
 20
19.1138
 11
61.5078
 21
20.0574
  0
LINE
  8
0
 10
61.5078
 20
20.0574
 11
62.6688
 21
20.9809
  0
LINE
  8
0
 10
62.6688
 20
20.9809
 11
63.8457
 21
21.884
  0
LINE
  8
0
 10
63.8457
 20
21.884
 11
65.0382
 21
22.7664
  0
LINE
  8
0
 10
65.0382
 20
22.7664
 11
66.246
 21
23.6279
  0
LINE
  8
0
 10
66.246
 20
23.6279
 11
67.4686
 21
24.4682
  0
LINE
  8
0
 10
67.4686
 20
24.4682
 11
68.7057
 21
25.287
  0
LINE
  8
0
 10
68.7057
 20
25.287
 11
69.9568
 21
26.0841
  0
LINE
  8
0
 10
69.9568
 20
26.0841
 11
71.2218
 21
26.8592
  0
LINE
  8
0
 10
71.2218
 20
26.8592
 11
72.5
 21
27.6122
  0
LINE
  8
0
 10
72.5
 20
27.6122
 11
73.7912
 21
28.3427
  0
LINE
  8
0
 10
73.7912
 20
28.3427
 11
75.0949
 21
29.0505
  0
LINE
  8
0
 10
75.0949
 20
29.0505
 11
76.4108
 21
29.7355
  0
LINE
  8
0
 10
76.4108
 20
29.7355
 11
77.7384
 21
30.3975
  0
LINE
  8
0
 10
77.7384
 20
30.3975
 11
79.0774
 21
31.0361
  0
LINE
  8
0
 10
79.0774
 20
31.0361
 11
80.4274
 21
31.6514
  0
LINE
  8
0
 10
80.4274
 20
31.6514
 11
81.7878
 21
32.2429
  0
LINE
  8
0
 10
81.7878
 20
32.2429
 11
83.1584
 21
32.8106
  0
LINE
  8
0
 10
83.1584
 20
32.8106
 11
84.5387
 21
33.3543
  0
LINE
  8
0
 10
84.5387
 20
33.3543
 11
85.9283
 21
33.8739
  0
LINE
  8
0
 10
85.9283
 20
33.8739
 11
87.3267
 21
34.3691
  0
LINE
  8
0
 10
87.3267
 20
34.3691
 11
88.7336
 21
34.8398
  0
LINE
  8
0
 10
88.7336
 20
34.8398
 11
90.1484
 21
35.2859
  0
LINE
  8
0
 10
90.1484
 20
35.2859
 11
91.5708
 21
35.7072
  0
LINE
  8
0
 10
91.5708
 20
35.7072
 11
93.0004
 21
36.1037
  0
LINE
  8
0
 10
93.0004
 20
36.1037
 11
94.4366
 21
36.4751
  0
LINE
  8
0
 10
94.4366
 20
36.4751
 11
95.8792
 21
36.8214
  0
LINE
  8
0
 10
95.8792
 20
36.8214
 11
97.3275
 21
37.1425
  0
LINE
  8
0
 10
97.3275
 20
37.1425
 11
98.7812
 21
37.4383
  0
LINE
  8
0
 10
98.7812
 20
37.4383
 11
100.24
 21
37.7086
  0
LINE
  8
0
 10
100.24
 20
37.7086
 11
101.703
 21
37.9535
  0
LINE
  8
0
 10
101.703
 20
37.9535
 11
103.17
 21
38.1728
  0
LINE
  8
0
 10
103.17
 20
38.1728
 11
104.641
 21
38.3664
  0
LINE
  8
0
 10
104.641
 20
38.3664
 11
106.115
 21
38.5343
  0
LINE
  8
0
 10
106.115
 20
38.5343
 11
107.592
 21
38.6765
  0
LINE
  8
0
 10
107.592
 20
38.6765
 11
109.071
 21
38.7929
  0
LINE
  8
0
 10
109.071
 20
38.7929
 11
110.551
 21
38.8835
  0
LINE
  8
0
 10
110.551
 20
38.8835
 11
112.034
 21
38.9482
  0
LINE
  8
0
 10
112.034
 20
38.9482
 11
113.517
 21
38.987
  0
LINE
  8
0
 10
113.517
 20
38.987
 11
115
 21
39
  0
LINE
  8
0
 10
115
 20
39
 11
116.483
 21
38.987
  0
LINE
  8
0
 10
116.483
 20
38.987
 11
117.966
 21
38.9482
  0
LINE
  8
0
 10
117.966
 20
38.9482
 11
119.449
 21
38.8835
  0
LINE
  8
0
 10
119.449
 20
38.8835
 11
120.929
 21
38.7929
  0
LINE
  8
0
 10
120.929
 20
38.7929
 11
122.408
 21
38.6765
  0
LINE
  8
0
 10
122.408
 20
38.6765
 11
123.885
 21
38.5343
  0
LINE
  8
0
 10
123.885
 20
38.5343
 11
125.359
 21
38.3664
  0
LINE
  8
0
 10
125.359
 20
38.3664
 11
126.83
 21
38.1728
  0
LINE
  8
0
 10
126.83
 20
38.1728
 11
128.297
 21
37.9535
  0
LINE
  8
0
 10
128.297
 20
37.9535
 11
129.76
 21
37.7086
  0
LINE
  8
0
 10
129.76
 20
37.7086
 11
131.219
 21
37.4383
  0
LINE
  8
0
 10
131.219
 20
37.4383
 11
132.672
 21
37.1425
  0
LINE
  8
0
 10
132.672
 20
37.1425
 11
134.121
 21
36.8214
  0
LINE
  8
0
 10
134.121
 20
36.8214
 11
135.563
 21
36.4751
  0
LINE
  8
0
 10
135.563
 20
36.4751
 11
137
 21
36.1037
  0
LINE
  8
0
 10
137
 20
36.1037
 11
138.429
 21
35.7072
  0
LINE
  8
0
 10
138.429
 20
35.7072
 11
139.852
 21
35.2859
  0
LINE
  8
0
 10
139.852
 20
35.2859
 11
141.266
 21
34.8398
  0
LINE
  8
0
 10
141.266
 20
34.8398
 11
142.673
 21
34.3691
  0
LINE
  8
0
 10
142.673
 20
34.3691
 11
144.072
 21
33.8739
  0
LINE
  8
0
 10
144.072
 20
33.8739
 11
145.461
 21
33.3543
  0
LINE
  8
0
 10
145.461
 20
33.3543
 11
146.842
 21
32.8106
  0
LINE
  8
0
 10
146.842
 20
32.8106
 11
148.212
 21
32.2429
  0
LINE
  8
0
 10
148.212
 20
32.2429
 11
149.573
 21
31.6514
  0
LINE
  8
0
 10
149.573
 20
31.6514
 11
150.923
 21
31.0361
  0
LINE
  8
0
 10
150.923
 20
31.0361
 11
152.262
 21
30.3975
  0
LINE
  8
0
 10
152.262
 20
30.3975
 11
153.589
 21
29.7355
  0
LINE
  8
0
 10
153.589
 20
29.7355
 11
154.905
 21
29.0505
  0
LINE
  8
0
 10
154.905
 20
29.0505
 11
156.209
 21
28.3427
  0
LINE
  8
0
 10
156.209
 20
28.3427
 11
157.5
 21
27.6122
  0
LINE
  8
0
 10
157.5
 20
27.6122
 11
158.778
 21
26.8592
  0
LINE
  8
0
 10
158.778
 20
26.8592
 11
160.043
 21
26.0841
  0
LINE
  8
0
 10
160.043
 20
26.0841
 11
161.294
 21
25.287
  0
LINE
  8
0
 10
161.294
 20
25.287
 11
162.531
 21
24.4682
  0
LINE
  8
0
 10
162.531
 20
24.4682
 11
163.754
 21
23.6279
  0
LINE
  8
0
 10
163.754
 20
23.6279
 11
164.962
 21
22.7664
  0
LINE
  8
0
 10
164.962
 20
22.7664
 11
166.154
 21
21.884
  0
LINE
  8
0
 10
166.154
 20
21.884
 11
167.331
 21
20.9809
  0
LINE
  8
0
 10
167.331
 20
20.9809
 11
168.492
 21
20.0574
  0
LINE
  8
0
 10
168.492
 20
20.0574
 11
169.637
 21
19.1138
  0
LINE
  8
0
 10
169.637
 20
19.1138
 11
170.765
 21
18.1503
  0
LINE
  8
0
 10
170.765
 20
18.1503
 11
171.876
 21
17.1673
  0
LINE
  8
0
 10
171.876
 20
17.1673
 11
172.97
 21
16.1651
  0
LINE
  8
0
 10
172.97
 20
16.1651
 11
174.046
 21
15.1439
  0
LINE
  8
0
 10
174.046
 20
15.1439
 11
175.104
 21
14.1041
  0
LINE
  8
0
 10
175.104
 20
14.1041
 11
176.144
 21
13.046
  0
LINE
  8
0
 10
176.144
 20
13.046
 11
177.165
 21
11.9698
  0
LINE
  8
0
 10
177.165
 20
11.9698
 11
178.167
 21
10.8761
  0
LINE
  8
0
 10
178.167
 20
10.8761
 11
179.15
 21
9.76501
  0
LINE
  8
0
 10
179.15
 20
9.76501
 11
180.114
 21
8.63693
  0
LINE
  8
0
 10
180.114
 20
8.63693
 11
181.057
 21
7.49222
  0
LINE
  8
0
 10
181.057
 20
7.49222
 11
181.981
 21
6.33122
  0
LINE
  8
0
 10
181.981
 20
6.33122
 11
182.884
 21
5.15427
  0
LINE
  8
0
 10
182.884
 20
5.15427
 11
183.766
 21
3.96175
  0
LINE
  8
0
 10
183.766
 20
3.96175
 11
184.628
 21
2.75398
  0
LINE
  8
0
 10
184.628
 20
2.75398
 11
185.468
 21
1.53139
  0
LINE
  8
0
 10
185.468
 20
1.53139
 11
186.287
 21
0.294312
  0
LINE
  8
0
 10
186.287
 20
0.294312
 11
186.474
 21
0
  0
LINE
  8
0
 10
186.474
 20
0
 11
230.492
 21
0
  0
LINE
  8
0
 10
230.492
 20
0
 11
273.524
 21
44.5616
  0
LINE
  8
0
 10
13
 20
466
 11
12.8604
 21
466.002
  0
LINE
  8
0
 10
12.8604
 20
466.002
 11
12.721
 21
466.01
  0
LINE
  8
0
 10
12.721
 20
466.01
 11
12.5819
 21
466.022
  0
LINE
  8
0
 10
12.5819
 20
466.022
 11
12.4433
 21
466.039
  0
LINE
  8
0
 10
12.4433
 20
466.039
 11
12.3054
 21
466.061
  0
LINE
  8
0
 10
12.3054
 20
466.061
 11
12.1684
 21
466.087
  0
LINE
  8
0
 10
12.1684
 20
466.087
 11
12.0323
 21
466.119
  0
LINE
  8
0
 10
12.0323
 20
466.119
 11
11.8974
 21
466.155
  0
LINE
  8
0
 10
11.8974
 20
466.155
 11
11.7639
 21
466.196
  0
LINE
  8
0
 10
11.7639
 20
466.196
 11
11.6319
 21
466.241
  0
LINE
  8
0
 10
11.6319
 20
466.241
 11
11.5016
 21
466.291
  0
LINE
  8
0
 10
11.5016
 20
466.291
 11
11.373
 21
466.346
  0
LINE
  8
0
 10
11.373
 20
466.346
 11
11.2465
 21
466.405
  0
LINE
  8
0
 10
11.2465
 20
466.405
 11
11.1221
 21
466.468
  0
LINE
  8
0
 10
11.1221
 20
466.468
 11
11
 21
466.536
  0
LINE
  8
0
 10
11
 20
466.536
 11
10.8803
 21
466.608
  0
LINE
  8
0
 10
10.8803
 20
466.608
 11
10.7632
 21
466.684
  0
LINE
  8
0
 10
10.7632
 20
466.684
 11
10.6488
 21
466.764
  0
LINE
  8
0
 10
10.6488
 20
466.764
 11
10.5374
 21
466.848
  0
LINE
  8
0
 10
10.5374
 20
466.848
 11
10.4288
 21
466.936
  0
LINE
  8
0
 10
10.4288
 20
466.936
 11
10.3235
 21
467.027
  0
LINE
  8
0
 10
10.3235
 20
467.027
 11
10.2214
 21
467.123
  0
LINE
  8
0
 10
10.2214
 20
467.123
 11
10.1226
 21
467.221
  0
LINE
  8
0
 10
10.1226
 20
467.221
 11
10.0274
 21
467.323
  0
LINE
  8
0
 10
10.0274
 20
467.323
 11
9.93582
 21
467.429
  0
LINE
  8
0
 10
9.93582
 20
467.429
 11
9.84795
 21
467.537
  0
LINE
  8
0
 10
9.84795
 20
467.537
 11
9.76393
 21
467.649
  0
LINE
  8
0
 10
9.76393
 20
467.649
 11
9.68384
 21
467.763
  0
LINE
  8
0
 10
9.68384
 20
467.763
 11
9.6078
 21
467.88
  0
LINE
  8
0
 10
9.6078
 20
467.88
 11
9.53589
 21
468
  0
LINE
  8
0
 10
9.53589
 20
468
 11
9.4682
 21
468.122
  0
LINE
  8
0
 10
9.4682
 20
468.122
 11
9.40482
 21
468.247
  0
LINE
  8
0
 10
9.40482
 20
468.247
 11
9.34581
 21
468.373
  0
LINE
  8
0
 10
9.34581
 20
468.373
 11
9.29126
 21
468.502
  0
LINE
  8
0
 10
9.29126
 20
468.502
 11
9.24123
 21
468.632
  0
LINE
  8
0
 10
9.24123
 20
468.632
 11
9.19577
 21
468.764
  0
LINE
  8
0
 10
9.19577
 20
468.764
 11
9.15495
 21
468.897
  0
LINE
  8
0
 10
9.15495
 20
468.897
 11
9.1188
 21
469.032
  0
LINE
  8
0
 10
9.1188
 20
469.032
 11
9.0874
 21
469.168
  0
LINE
  8
0
 10
9.0874
 20
469.168
 11
9.06076
 21
469.305
  0
LINE
  8
0
 10
9.06076
 20
469.305
 11
9.03893
 21
469.443
  0
LINE
  8
0
 10
9.03893
 20
469.443
 11
9.02191
 21
469.582
  0
LINE
  8
0
 10
9.02191
 20
469.582
 11
9.00974
 21
469.721
  0
LINE
  8
0
 10
9.00974
 20
469.721
 11
9.00243
 21
469.86
  0
LINE
  8
0
 10
9.00243
 20
469.86
 11
9
 21
470
  0
LINE
  8
0
 10
9
 20
470
 11
9.00243
 21
470.14
  0
LINE
  8
0
 10
9.00243
 20
470.14
 11
9.00974
 21
470.279
  0
LINE
  8
0
 10
9.00974
 20
470.279
 11
9.02191
 21
470.418
  0
LINE
  8
0
 10
9.02191
 20
470.418
 11
9.03893
 21
470.557
  0
LINE
  8
0
 10
9.03893
 20
470.557
 11
9.06076
 21
470.695
  0
LINE
  8
0
 10
9.06076
 20
470.695
 11
9.0874
 21
470.832
  0
LINE
  8
0
 10
9.0874
 20
470.832
 11
9.1188
 21
470.968
  0
LINE
  8
0
 10
9.1188
 20
470.968
 11
9.15495
 21
471.103
  0
LINE
  8
0
 10
9.15495
 20
471.103
 11
9.19577
 21
471.236
  0
LINE
  8
0
 10
9.19577
 20
471.236
 11
9.24123
 21
471.368
  0
LINE
  8
0
 10
9.24123
 20
471.368
 11
9.29126
 21
471.498
  0
LINE
  8
0
 10
9.29126
 20
471.498
 11
9.34581
 21
471.627
  0
LINE
  8
0
 10
9.34581
 20
471.627
 11
9.40482
 21
471.753
  0
LINE
  8
0
 10
9.40482
 20
471.753
 11
9.4682
 21
471.878
  0
LINE
  8
0
 10
9.4682
 20
471.878
 11
9.53589
 21
472
  0
LINE
  8
0
 10
9.53589
 20
472
 11
9.6078
 21
472.12
  0
LINE
  8
0
 10
9.6078
 20
472.12
 11
9.68384
 21
472.237
  0
LINE
  8
0
 10
9.68384
 20
472.237
 11
9.76393
 21
472.351
  0
LINE
  8
0
 10
9.76393
 20
472.351
 11
9.84795
 21
472.463
  0
LINE
  8
0
 10
9.84795
 20
472.463
 11
9.93582
 21
472.571
  0
LINE
  8
0
 10
9.93582
 20
472.571
 11
10.0274
 21
472.677
  0
LINE
  8
0
 10
10.0274
 20
472.677
 11
10.1226
 21
472.779
  0
LINE
  8
0
 10
10.1226
 20
472.779
 11
10.2214
 21
472.877
  0
LINE
  8
0
 10
10.2214
 20
472.877
 11
10.3235
 21
472.973
  0
LINE
  8
0
 10
10.3235
 20
472.973
 11
10.4288
 21
473.064
  0
LINE
  8
0
 10
10.4288
 20
473.064
 11
10.5374
 21
473.152
  0
LINE
  8
0
 10
10.5374
 20
473.152
 11
10.6488
 21
473.236
  0
LINE
  8
0
 10
10.6488
 20
473.236
 11
10.7632
 21
473.316
  0
LINE
  8
0
 10
10.7632
 20
473.316
 11
10.8803
 21
473.392
  0
LINE
  8
0
 10
10.8803
 20
473.392
 11
11
 21
473.464
  0
LINE
  8
0
 10
11
 20
473.464
 11
11.1221
 21
473.532
  0
LINE
  8
0
 10
11.1221
 20
473.532
 11
11.2465
 21
473.595
  0
LINE
  8
0
 10
11.2465
 20
473.595
 11
11.373
 21
473.654
  0
LINE
  8
0
 10
11.373
 20
473.654
 11
11.5016
 21
473.709
  0
LINE
  8
0
 10
11.5016
 20
473.709
 11
11.6319
 21
473.759
  0
LINE
  8
0
 10
11.6319
 20
473.759
 11
11.7639
 21
473.804
  0
LINE
  8
0
 10
11.7639
 20
473.804
 11
11.8974
 21
473.845
  0
LINE
  8
0
 10
11.8974
 20
473.845
 11
12.0323
 21
473.881
  0
LINE
  8
0
 10
12.0323
 20
473.881
 11
12.1684
 21
473.913
  0
LINE
  8
0
 10
12.1684
 20
473.913
 11
12.3054
 21
473.939
  0
LINE
  8
0
 10
12.3054
 20
473.939
 11
12.4433
 21
473.961
  0
LINE
  8
0
 10
12.4433
 20
473.961
 11
12.5819
 21
473.978
  0
LINE
  8
0
 10
12.5819
 20
473.978
 11
12.721
 21
473.99
  0
LINE
  8
0
 10
12.721
 20
473.99
 11
12.8604
 21
473.998
  0
LINE
  8
0
 10
12.8604
 20
473.998
 11
13
 21
474
  0
LINE
  8
0
 10
13
 20
474
 11
13.1396
 21
473.998
  0
LINE
  8
0
 10
13.1396
 20
473.998
 11
13.279
 21
473.99
  0
LINE
  8
0
 10
13.279
 20
473.99
 11
13.4181
 21
473.978
  0
LINE
  8
0
 10
13.4181
 20
473.978
 11
13.5567
 21
473.961
  0
LINE
  8
0
 10
13.5567
 20
473.961
 11
13.6946
 21
473.939
  0
LINE
  8
0
 10
13.6946
 20
473.939
 11
13.8316
 21
473.913
  0
LINE
  8
0
 10
13.8316
 20
473.913
 11
13.9677
 21
473.881
  0
LINE
  8
0
 10
13.9677
 20
473.881
 11
14.1025
 21
473.845
  0
LINE
  8
0
 10
14.1025
 20
473.845
 11
14.2361
 21
473.804
  0
LINE
  8
0
 10
14.2361
 20
473.804
 11
14.3681
 21
473.759
  0
LINE
  8
0
 10
14.3681
 20
473.759
 11
14.4984
 21
473.709
  0
LINE
  8
0
 10
14.4984
 20
473.709
 11
14.6269
 21
473.654
  0
LINE
  8
0
 10
14.6269
 20
473.654
 11
14.7535
 21
473.595
  0
LINE
  8
0
 10
14.7535
 20
473.595
 11
14.8779
 21
473.532
  0
LINE
  8
0
 10
14.8779
 20
473.532
 11
15
 21
473.464
  0
LINE
  8
0
 10
15
 20
473.464
 11
15.1197
 21
473.392
  0
LINE
  8
0
 10
15.1197
 20
473.392
 11
15.2368
 21
473.316
  0
LINE
  8
0
 10
15.2368
 20
473.316
 11
15.3511
 21
473.236
  0
LINE
  8
0
 10
15.3511
 20
473.236
 11
15.4626
 21
473.152
  0
LINE
  8
0
 10
15.4626
 20
473.152
 11
15.5711
 21
473.064
  0
LINE
  8
0
 10
15.5711
 20
473.064
 11
15.6765
 21
472.973
  0
LINE
  8
0
 10
15.6765
 20
472.973
 11
15.7786
 21
472.877
  0
LINE
  8
0
 10
15.7786
 20
472.877
 11
15.8773
 21
472.779
  0
LINE
  8
0
 10
15.8773
 20
472.779
 11
15.9726
 21
472.677
  0
LINE
  8
0
 10
15.9726
 20
472.677
 11
16.0642
 21
472.571
  0
LINE
  8
0
 10
16.0642
 20
472.571
 11
16.152
 21
472.463
  0
LINE
  8
0
 10
16.152
 20
472.463
 11
16.2361
 21
472.351
  0
LINE
  8
0
 10
16.2361
 20
472.351
 11
16.3161
 21
472.237
  0
LINE
  8
0
 10
16.3161
 20
472.237
 11
16.3922
 21
472.12
  0
LINE
  8
0
 10
16.3922
 20
472.12
 11
16.4641
 21
472
  0
LINE
  8
0
 10
16.4641
 20
472
 11
16.5318
 21
471.878
  0
LINE
  8
0
 10
16.5318
 20
471.878
 11
16.5952
 21
471.753
  0
LINE
  8
0
 10
16.5952
 20
471.753
 11
16.6542
 21
471.627
  0
LINE
  8
0
 10
16.6542
 20
471.627
 11
16.7087
 21
471.498
  0
LINE
  8
0
 10
16.7087
 20
471.498
 11
16.7588
 21
471.368
  0
LINE
  8
0
 10
16.7588
 20
471.368
 11
16.8042
 21
471.236
  0
LINE
  8
0
 10
16.8042
 20
471.236
 11
16.845
 21
471.103
  0
LINE
  8
0
 10
16.845
 20
471.103
 11
16.8812
 21
470.968
  0
LINE
  8
0
 10
16.8812
 20
470.968
 11
16.9126
 21
470.832
  0
LINE
  8
0
 10
16.9126
 20
470.832
 11
16.9392
 21
470.695
  0
LINE
  8
0
 10
16.9392
 20
470.695
 11
16.9611
 21
470.557
  0
LINE
  8
0
 10
16.9611
 20
470.557
 11
16.9781
 21
470.418
  0
LINE
  8
0
 10
16.9781
 20
470.418
 11
16.9902
 21
470.279
  0
LINE
  8
0
 10
16.9902
 20
470.279
 11
16.9976
 21
470.14
  0
LINE
  8
0
 10
16.9976
 20
470.14
 11
17
 21
470
  0
LINE
  8
0
 10
17
 20
470
 11
16.9976
 21
469.86
  0
LINE
  8
0
 10
16.9976
 20
469.86
 11
16.9902
 21
469.721
  0
LINE
  8
0
 10
16.9902
 20
469.721
 11
16.9781
 21
469.582
  0
LINE
  8
0
 10
16.9781
 20
469.582
 11
16.9611
 21
469.443
  0
LINE
  8
0
 10
16.9611
 20
469.443
 11
16.9392
 21
469.305
  0
LINE
  8
0
 10
16.9392
 20
469.305
 11
16.9126
 21
469.168
  0
LINE
  8
0
 10
16.9126
 20
469.168
 11
16.8812
 21
469.032
  0
LINE
  8
0
 10
16.8812
 20
469.032
 11
16.845
 21
468.897
  0
LINE
  8
0
 10
16.845
 20
468.897
 11
16.8042
 21
468.764
  0
LINE
  8
0
 10
16.8042
 20
468.764
 11
16.7588
 21
468.632
  0
LINE
  8
0
 10
16.7588
 20
468.632
 11
16.7087
 21
468.502
  0
LINE
  8
0
 10
16.7087
 20
468.502
 11
16.6542
 21
468.373
  0
LINE
  8
0
 10
16.6542
 20
468.373
 11
16.5952
 21
468.247
  0
LINE
  8
0
 10
16.5952
 20
468.247
 11
16.5318
 21
468.122
  0
LINE
  8
0
 10
16.5318
 20
468.122
 11
16.4641
 21
468
  0
LINE
  8
0
 10
16.4641
 20
468
 11
16.3922
 21
467.88
  0
LINE
  8
0
 10
16.3922
 20
467.88
 11
16.3161
 21
467.763
  0
LINE
  8
0
 10
16.3161
 20
467.763
 11
16.2361
 21
467.649
  0
LINE
  8
0
 10
16.2361
 20
467.649
 11
16.152
 21
467.537
  0
LINE
  8
0
 10
16.152
 20
467.537
 11
16.0642
 21
467.429
  0
LINE
  8
0
 10
16.0642
 20
467.429
 11
15.9726
 21
467.323
  0
LINE
  8
0
 10
15.9726
 20
467.323
 11
15.8773
 21
467.221
  0
LINE
  8
0
 10
15.8773
 20
467.221
 11
15.7786
 21
467.123
  0
LINE
  8
0
 10
15.7786
 20
467.123
 11
15.6765
 21
467.027
  0
LINE
  8
0
 10
15.6765
 20
467.027
 11
15.5711
 21
466.936
  0
LINE
  8
0
 10
15.5711
 20
466.936
 11
15.4626
 21
466.848
  0
LINE
  8
0
 10
15.4626
 20
466.848
 11
15.3511
 21
466.764
  0
LINE
  8
0
 10
15.3511
 20
466.764
 11
15.2368
 21
466.684
  0
LINE
  8
0
 10
15.2368
 20
466.684
 11
15.1197
 21
466.608
  0
LINE
  8
0
 10
15.1197
 20
466.608
 11
15
 21
466.536
  0
LINE
  8
0
 10
15
 20
466.536
 11
14.8779
 21
466.468
  0
LINE
  8
0
 10
14.8779
 20
466.468
 11
14.7535
 21
466.405
  0
LINE
  8
0
 10
14.7535
 20
466.405
 11
14.6269
 21
466.346
  0
LINE
  8
0
 10
14.6269
 20
466.346
 11
14.4984
 21
466.291
  0
LINE
  8
0
 10
14.4984
 20
466.291
 11
14.3681
 21
466.241
  0
LINE
  8
0
 10
14.3681
 20
466.241
 11
14.2361
 21
466.196
  0
LINE
  8
0
 10
14.2361
 20
466.196
 11
14.1025
 21
466.155
  0
LINE
  8
0
 10
14.1025
 20
466.155
 11
13.9677
 21
466.119
  0
LINE
  8
0
 10
13.9677
 20
466.119
 11
13.8316
 21
466.087
  0
LINE
  8
0
 10
13.8316
 20
466.087
 11
13.6946
 21
466.061
  0
LINE
  8
0
 10
13.6946
 20
466.061
 11
13.5567
 21
466.039
  0
LINE
  8
0
 10
13.5567
 20
466.039
 11
13.4181
 21
466.022
  0
LINE
  8
0
 10
13.4181
 20
466.022
 11
13.279
 21
466.01
  0
LINE
  8
0
 10
13.279
 20
466.01
 11
13.1396
 21
466.002
  0
LINE
  8
0
 10
13.1396
 20
466.002
 11
13
 21
466
  0
LINE
  8
0
 10
71.0153
 20
459.574
 11
100.518
 21
465.015
  0
LINE
  8
0
 10
100.518
 20
465.015
 11
132.803
 21
289.968
  0
LINE
  8
0
 10
132.803
 20
289.968
 11
103.3
 21
284.527
  0
LINE
  8
0
 10
103.3
 20
284.527
 11
71.0153
 21
459.574
  0
LINE
  8
0
 10
10.0831
 20
398.415
 11
9.9446
 21
398.413
  0
LINE
  8
0
 10
9.9446
 20
398.413
 11
9.80652
 21
398.424
  0
LINE
  8
0
 10
9.80652
 20
398.424
 11
9.66994
 21
398.447
  0
LINE
  8
0
 10
9.66994
 20
398.447
 11
9.53586
 21
398.482
  0
LINE
  8
0
 10
9.53586
 20
398.482
 11
9.4053
 21
398.528
  0
LINE
  8
0
 10
9.4053
 20
398.528
 11
9.27928
 21
398.586
  0
LINE
  8
0
 10
9.27928
 20
398.586
 11
9.15875
 21
398.654
  0
LINE
  8
0
 10
9.15875
 20
398.654
 11
9.04462
 21
398.732
  0
LINE
  8
0
 10
9.04462
 20
398.732
 11
8.93774
 21
398.82
  0
LINE
  8
0
 10
8.93774
 20
398.82
 11
8.83897
 21
398.917
  0
LINE
  8
0
 10
8.83897
 20
398.917
 11
8.74902
 21
399.023
  0
LINE
  8
0
 10
8.74902
 20
399.023
 11
8.66861
 21
399.135
  0
LINE
  8
0
 10
8.66861
 20
399.135
 11
8.59831
 21
399.255
  0
LINE
  8
0
 10
8.59831
 20
399.255
 11
8.5387
 21
399.38
  0
LINE
  8
0
 10
8.5387
 20
399.38
 11
8.49019
 21
399.509
  0
LINE
  8
0
 10
8.49019
 20
399.509
 11
8.45319
 21
399.643
  0
LINE
  8
0
 10
8.45319
 20
399.643
 11
8.42795
 21
399.779
  0
LINE
  8
0
 10
8.42795
 20
399.779
 11
8.41467
 21
399.917
  0
LINE
  8
0
 10
8.41467
 20
399.917
 11
8.41345
 21
400.055
  0
LINE
  8
0
 10
8.41345
 20
400.055
 11
8.42433
 21
400.193
  0
LINE
  8
0
 10
8.42433
 20
400.193
 11
8.44719
 21
400.33
  0
LINE
  8
0
 10
8.44719
 20
400.33
 11
8.48186
 21
400.464
  0
LINE
  8
0
 10
8.48186
 20
400.464
 11
8.52809
 21
400.595
  0
LINE
  8
0
 10
8.52809
 20
400.595
 11
8.58553
 21
400.721
  0
LINE
  8
0
 10
8.58553
 20
400.721
 11
8.65372
 21
400.841
  0
LINE
  8
0
 10
8.65372
 20
400.841
 11
8.73216
 21
400.955
  0
LINE
  8
0
 10
8.73216
 20
400.955
 11
8.82025
 21
401.062
  0
LINE
  8
0
 10
8.82025
 20
401.062
 11
8.91731
 21
401.161
  0
LINE
  8
0
 10
8.91731
 20
401.161
 11
9.02263
 21
401.251
  0
LINE
  8
0
 10
9.02263
 20
401.251
 11
9.13538
 21
401.331
  0
LINE
  8
0
 10
9.13538
 20
401.331
 11
9.2547
 21
401.402
  0
LINE
  8
0
 10
9.2547
 20
401.402
 11
9.3797
 21
401.461
  0
LINE
  8
0
 10
9.3797
 20
401.461
 11
9.50943
 21
401.51
  0
LINE
  8
0
 10
9.50943
 20
401.51
 11
9.64288
 21
401.547
  0
LINE
  8
0
 10
9.64288
 20
401.547
 11
9.77905
 21
401.572
  0
LINE
  8
0
 10
9.77905
 20
401.572
 11
9.91692
 21
401.585
  0
LINE
  8
0
 10
9.91692
 20
401.585
 11
10.0554
 21
401.587
  0
LINE
  8
0
 10
10.0554
 20
401.587
 11
10.1935
 21
401.576
  0
LINE
  8
0
 10
10.1935
 20
401.576
 11
10.33
 21
401.553
  0
LINE
  8
0
 10
10.33
 20
401.553
 11
10.4641
 21
401.518
  0
LINE
  8
0
 10
10.4641
 20
401.518
 11
10.5947
 21
401.472
  0
LINE
  8
0
 10
10.5947
 20
401.472
 11
10.7207
 21
401.414
  0
LINE
  8
0
 10
10.7207
 20
401.414
 11
10.8412
 21
401.346
  0
LINE
  8
0
 10
10.8412
 20
401.346
 11
10.9554
 21
401.268
  0
LINE
  8
0
 10
10.9554
 20
401.268
 11
11.0622
 21
401.18
  0
LINE
  8
0
 10
11.0622
 20
401.18
 11
11.161
 21
401.083
  0
LINE
  8
0
 10
11.161
 20
401.083
 11
11.251
 21
400.977
  0
LINE
  8
0
 10
11.251
 20
400.977
 11
11.3314
 21
400.865
  0
LINE
  8
0
 10
11.3314
 20
400.865
 11
11.4017
 21
400.745
  0
LINE
  8
0
 10
11.4017
 20
400.745
 11
11.4613
 21
400.62
  0
LINE
  8
0
 10
11.4613
 20
400.62
 11
11.5098
 21
400.491
  0
LINE
  8
0
 10
11.5098
 20
400.491
 11
11.5468
 21
400.357
  0
LINE
  8
0
 10
11.5468
 20
400.357
 11
11.572
 21
400.221
  0
LINE
  8
0
 10
11.572
 20
400.221
 11
11.5853
 21
400.083
  0
LINE
  8
0
 10
11.5853
 20
400.083
 11
11.5865
 21
399.945
  0
LINE
  8
0
 10
11.5865
 20
399.945
 11
11.5757
 21
399.807
  0
LINE
  8
0
 10
11.5757
 20
399.807
 11
11.5528
 21
399.67
  0
LINE
  8
0
 10
11.5528
 20
399.67
 11
11.5181
 21
399.536
  0
LINE
  8
0
 10
11.5181
 20
399.536
 11
11.4719
 21
399.405
  0
LINE
  8
0
 10
11.4719
 20
399.405
 11
11.4145
 21
399.279
  0
LINE
  8
0
 10
11.4145
 20
399.279
 11
11.3463
 21
399.159
  0
LINE
  8
0
 10
11.3463
 20
399.159
 11
11.2678
 21
399.045
  0
LINE
  8
0
 10
11.2678
 20
399.045
 11
11.1797
 21
398.938
  0
LINE
  8
0
 10
11.1797
 20
398.938
 11
11.0827
 21
398.839
  0
LINE
  8
0
 10
11.0827
 20
398.839
 11
10.9774
 21
398.749
  0
LINE
  8
0
 10
10.9774
 20
398.749
 11
10.8646
 21
398.669
  0
LINE
  8
0
 10
10.8646
 20
398.669
 11
10.7453
 21
398.598
  0
LINE
  8
0
 10
10.7453
 20
398.598
 11
10.6203
 21
398.539
  0
LINE
  8
0
 10
10.6203
 20
398.539
 11
10.4906
 21
398.49
  0
LINE
  8
0
 10
10.4906
 20
398.49
 11
10.3571
 21
398.453
  0
LINE
  8
0
 10
10.3571
 20
398.453
 11
10.2209
 21
398.428
  0
LINE
  8
0
 10
10.2209
 20
398.428
 11
10.0831
 21
398.415
  0
LINE
  8
0
 10
49.5986
 20
302.003
 11
49.1973
 21
302.014
  0
LINE
  8
0
 10
49.1973
 20
302.014
 11
48.7963
 21
302.032
  0
LINE
  8
0
 10
48.7963
 20
302.032
 11
48.3956
 21
302.056
  0
LINE
  8
0
 10
48.3956
 20
302.056
 11
47.9954
 21
302.088
  0
LINE
  8
0
 10
47.9954
 20
302.088
 11
47.5958
 21
302.126
  0
LINE
  8
0
 10
47.5958
 20
302.126
 11
47.197
 21
302.171
  0
LINE
  8
0
 10
47.197
 20
302.171
 11
46.799
 21
302.224
  0
LINE
  8
0
 10
46.799
 20
302.224
 11
46.402
 21
302.283
  0
LINE
  8
0
 10
46.402
 20
302.283
 11
46.0061
 21
302.349
  0
LINE
  8
0
 10
46.0061
 20
302.349
 11
45.6114
 21
302.423
  0
LINE
  8
0
 10
45.6114
 20
302.423
 11
45.218
 21
302.503
  0
LINE
  8
0
 10
45.218
 20
302.503
 11
44.8261
 21
302.589
  0
LINE
  8
0
 10
44.8261
 20
302.589
 11
44.4358
 21
302.683
  0
LINE
  8
0
 10
44.4358
 20
302.683
 11
44.0471
 21
302.784
  0
LINE
  8
0
 10
44.0471
 20
302.784
 11
43.6603
 21
302.891
  0
LINE
  8
0
 10
43.6603
 20
302.891
 11
43.2754
 21
303.005
  0
LINE
  8
0
 10
43.2754
 20
303.005
 11
42.8926
 21
303.126
  0
LINE
  8
0
 10
42.8926
 20
303.126
 11
42.5119
 21
303.253
  0
LINE
  8
0
 10
42.5119
 20
303.253
 11
42.1335
 21
303.387
  0
LINE
  8
0
 10
42.1335
 20
303.387
 11
41.7575
 21
303.528
  0
LINE
  8
0
 10
41.7575
 20
303.528
 11
41.384
 21
303.675
  0
LINE
  8
0
 10
41.384
 20
303.675
 11
41.0132
 21
303.828
  0
LINE
  8
0
 10
41.0132
 20
303.828
 11
40.6451
 21
303.988
  0
LINE
  8
0
 10
40.6451
 20
303.988
 11
40.2798
 21
304.155
  0
LINE
  8
0
 10
40.2798
 20
304.155
 11
39.9174
 21
304.328
  0
LINE
  8
0
 10
39.9174
 20
304.328
 11
39.5582
 21
304.507
  0
LINE
  8
0
 10
39.5582
 20
304.507
 11
39.2021
 21
304.692
  0
LINE
  8
0
 10
39.2021
 20
304.692
 11
38.8494
 21
304.884
  0
LINE
  8
0
 10
38.8494
 20
304.884
 11
38.5
 21
305.081
  0
LINE
  8
0
 10
38.5
 20
305.081
 11
38.1541
 21
305.285
  0
LINE
  8
0
 10
38.1541
 20
305.285
 11
37.8118
 21
305.495
  0
LINE
  8
0
 10
37.8118
 20
305.495
 11
37.4733
 21
305.711
  0
LINE
  8
0
 10
37.4733
 20
305.711
 11
37.1385
 21
305.932
  0
LINE
  8
0
 10
37.1385
 20
305.932
 11
36.8077
 21
306.16
  0
LINE
  8
0
 10
36.8077
 20
306.16
 11
36.4809
 21
306.393
  0
LINE
  8
0
 10
36.4809
 20
306.393
 11
36.1582
 21
306.631
  0
LINE
  8
0
 10
36.1582
 20
306.631
 11
35.8398
 21
306.876
  0
LINE
  8
0
 10
35.8398
 20
306.876
 11
35.5256
 21
307.126
  0
LINE
  8
0
 10
35.5256
 20
307.126
 11
35.2159
 21
307.381
  0
LINE
  8
0
 10
35.2159
 20
307.381
 11
34.9106
 21
307.642
  0
LINE
  8
0
 10
34.9106
 20
307.642
 11
34.61
 21
307.908
  0
LINE
  8
0
 10
34.61
 20
307.908
 11
34.314
 21
308.179
  0
LINE
  8
0
 10
34.314
 20
308.179
 11
34.0228
 21
308.455
  0
LINE
  8
0
 10
34.0228
 20
308.455
 11
33.7365
 21
308.737
  0
LINE
  8
0
 10
33.7365
 20
308.737
 11
33.4552
 21
309.023
  0
LINE
  8
0
 10
33.4552
 20
309.023
 11
33.1789
 21
309.314
  0
LINE
  8
0
 10
33.1789
 20
309.314
 11
32.9077
 21
309.61
  0
LINE
  8
0
 10
32.9077
 20
309.61
 11
32.6417
 21
309.911
  0
LINE
  8
0
 10
32.6417
 20
309.911
 11
32.381
 21
310.216
  0
LINE
  8
0
 10
32.381
 20
310.216
 11
32.1256
 21
310.526
  0
LINE
  8
0
 10
32.1256
 20
310.526
 11
31.8757
 21
310.84
  0
LINE
  8
0
 10
31.8757
 20
310.84
 11
31.6314
 21
311.158
  0
LINE
  8
0
 10
31.6314
 20
311.158
 11
31.3926
 21
311.481
  0
LINE
  8
0
 10
31.3926
 20
311.481
 11
31.1595
 21
311.808
  0
LINE
  8
0
 10
31.1595
 20
311.808
 11
30.9321
 21
312.139
  0
LINE
  8
0
 10
30.9321
 20
312.139
 11
30.7106
 21
312.473
  0
LINE
  8
0
 10
30.7106
 20
312.473
 11
30.4949
 21
312.812
  0
LINE
  8
0
 10
30.4949
 20
312.812
 11
30.2851
 21
313.154
  0
LINE
  8
0
 10
30.2851
 20
313.154
 11
30.0814
 21
313.5
  0
LINE
  8
0
 10
30.0814
 20
313.5
 11
29.8837
 21
313.849
  0
LINE
  8
0
 10
29.8837
 20
313.849
 11
29.6922
 21
314.202
  0
LINE
  8
0
 10
29.6922
 20
314.202
 11
29.5068
 21
314.558
  0
LINE
  8
0
 10
29.5068
 20
314.558
 11
29.3277
 21
314.917
  0
LINE
  8
0
 10
29.3277
 20
314.917
 11
29.1549
 21
315.28
  0
LINE
  8
0
 10
29.1549
 20
315.28
 11
28.9884
 21
315.645
  0
LINE
  8
0
 10
28.9884
 20
315.645
 11
28.8284
 21
316.013
  0
LINE
  8
0
 10
28.8284
 20
316.013
 11
28.6748
 21
316.384
  0
LINE
  8
0
 10
28.6748
 20
316.384
 11
28.5276
 21
316.758
  0
LINE
  8
0
 10
28.5276
 20
316.758
 11
28.3871
 21
317.134
  0
LINE
  8
0
 10
28.3871
 20
317.134
 11
28.2531
 21
317.512
  0
LINE
  8
0
 10
28.2531
 20
317.512
 11
28.1257
 21
317.893
  0
LINE
  8
0
 10
28.1257
 20
317.893
 11
28.005
 21
318.275
  0
LINE
  8
0
 10
28.005
 20
318.275
 11
27.891
 21
318.66
  0
LINE
  8
0
 10
27.891
 20
318.66
 11
27.7837
 21
319.047
  0
LINE
  8
0
 10
27.7837
 20
319.047
 11
27.6832
 21
319.436
  0
LINE
  8
0
 10
27.6832
 20
319.436
 11
27.5895
 21
319.826
  0
LINE
  8
0
 10
27.5895
 20
319.826
 11
27.5026
 21
320.218
  0
LINE
  8
0
 10
27.5026
 20
320.218
 11
27.4226
 21
320.611
  0
LINE
  8
0
 10
27.4226
 20
320.611
 11
27.3494
 21
321.006
  0
LINE
  8
0
 10
27.3494
 20
321.006
 11
27.2832
 21
321.402
  0
LINE
  8
0
 10
27.2832
 20
321.402
 11
27.2238
 21
321.799
  0
LINE
  8
0
 10
27.2238
 20
321.799
 11
27.1714
 21
322.197
  0
LINE
  8
0
 10
27.1714
 20
322.197
 11
27.126
 21
322.596
  0
LINE
  8
0
 10
27.126
 20
322.596
 11
27.0875
 21
322.995
  0
LINE
  8
0
 10
27.0875
 20
322.995
 11
27.056
 21
323.396
  0
LINE
  8
0
 10
27.056
 20
323.396
 11
27.0315
 21
323.796
  0
LINE
  8
0
 10
27.0315
 20
323.796
 11
27.014
 21
324.197
  0
LINE
  8
0
 10
27.014
 20
324.197
 11
27.0035
 21
324.599
  0
LINE
  8
0
 10
27.0035
 20
324.599
 11
27
 21
325
  0
LINE
  8
0
 10
27
 20
325
 11
27.0035
 21
325.401
  0
LINE
  8
0
 10
27.0035
 20
325.401
 11
27.014
 21
325.803
  0
LINE
  8
0
 10
27.014
 20
325.803
 11
27.0315
 21
326.204
  0
LINE
  8
0
 10
27.0315
 20
326.204
 11
27.056
 21
326.604
  0
LINE
  8
0
 10
27.056
 20
326.604
 11
27.0875
 21
327.005
  0
LINE
  8
0
 10
27.0875
 20
327.005
 11
27.126
 21
327.404
  0
LINE
  8
0
 10
27.126
 20
327.404
 11
27.1714
 21
327.803
  0
LINE
  8
0
 10
27.1714
 20
327.803
 11
27.2238
 21
328.201
  0
LINE
  8
0
 10
27.2238
 20
328.201
 11
27.2832
 21
328.598
  0
LINE
  8
0
 10
27.2832
 20
328.598
 11
27.3494
 21
328.994
  0
LINE
  8
0
 10
27.3494
 20
328.994
 11
27.4226
 21
329.389
  0
LINE
  8
0
 10
27.4226
 20
329.389
 11
27.5026
 21
329.782
  0
LINE
  8
0
 10
27.5026
 20
329.782
 11
27.5895
 21
330.174
  0
LINE
  8
0
 10
27.5895
 20
330.174
 11
27.6832
 21
330.564
  0
LINE
  8
0
 10
27.6832
 20
330.564
 11
27.7837
 21
330.953
  0
LINE
  8
0
 10
27.7837
 20
330.953
 11
27.891
 21
331.34
  0
LINE
  8
0
 10
27.891
 20
331.34
 11
28.005
 21
331.725
  0
LINE
  8
0
 10
28.005
 20
331.725
 11
28.1257
 21
332.107
  0
LINE
  8
0
 10
28.1257
 20
332.107
 11
28.2531
 21
332.488
  0
LINE
  8
0
 10
28.2531
 20
332.488
 11
28.3871
 21
332.866
  0
LINE
  8
0
 10
28.3871
 20
332.866
 11
28.5276
 21
333.242
  0
LINE
  8
0
 10
28.5276
 20
333.242
 11
28.6748
 21
333.616
  0
LINE
  8
0
 10
28.6748
 20
333.616
 11
28.8284
 21
333.987
  0
LINE
  8
0
 10
28.8284
 20
333.987
 11
28.9884
 21
334.355
  0
LINE
  8
0
 10
28.9884
 20
334.355
 11
29.1549
 21
334.72
  0
LINE
  8
0
 10
29.1549
 20
334.72
 11
29.3277
 21
335.083
  0
LINE
  8
0
 10
29.3277
 20
335.083
 11
29.5068
 21
335.442
  0
LINE
  8
0
 10
29.5068
 20
335.442
 11
29.6922
 21
335.798
  0
LINE
  8
0
 10
29.6922
 20
335.798
 11
29.8837
 21
336.151
  0
LINE
  8
0
 10
29.8837
 20
336.151
 11
30.0814
 21
336.5
  0
LINE
  8
0
 10
30.0814
 20
336.5
 11
30.2851
 21
336.846
  0
LINE
  8
0
 10
30.2851
 20
336.846
 11
30.4949
 21
337.188
  0
LINE
  8
0
 10
30.4949
 20
337.188
 11
30.7106
 21
337.527
  0
LINE
  8
0
 10
30.7106
 20
337.527
 11
30.9321
 21
337.861
  0
LINE
  8
0
 10
30.9321
 20
337.861
 11
31.1595
 21
338.192
  0
LINE
  8
0
 10
31.1595
 20
338.192
 11
31.3926
 21
338.519
  0
LINE
  8
0
 10
31.3926
 20
338.519
 11
31.6314
 21
338.842
  0
LINE
  8
0
 10
31.6314
 20
338.842
 11
31.8757
 21
339.16
  0
LINE
  8
0
 10
31.8757
 20
339.16
 11
32.1256
 21
339.474
  0
LINE
  8
0
 10
32.1256
 20
339.474
 11
32.381
 21
339.784
  0
LINE
  8
0
 10
32.381
 20
339.784
 11
32.6417
 21
340.089
  0
LINE
  8
0
 10
32.6417
 20
340.089
 11
32.9077
 21
340.39
  0
LINE
  8
0
 10
32.9077
 20
340.39
 11
33.1789
 21
340.686
  0
LINE
  8
0
 10
33.1789
 20
340.686
 11
33.4552
 21
340.977
  0
LINE
  8
0
 10
33.4552
 20
340.977
 11
33.7365
 21
341.263
  0
LINE
  8
0
 10
33.7365
 20
341.263
 11
34.0228
 21
341.545
  0
LINE
  8
0
 10
34.0228
 20
341.545
 11
34.314
 21
341.821
  0
LINE
  8
0
 10
34.314
 20
341.821
 11
34.61
 21
342.092
  0
LINE
  8
0
 10
34.61
 20
342.092
 11
34.9106
 21
342.358
  0
LINE
  8
0
 10
34.9106
 20
342.358
 11
35.2159
 21
342.619
  0
LINE
  8
0
 10
35.2159
 20
342.619
 11
35.5256
 21
342.874
  0
LINE
  8
0
 10
35.5256
 20
342.874
 11
35.8398
 21
343.124
  0
LINE
  8
0
 10
35.8398
 20
343.124
 11
36.1582
 21
343.369
  0
LINE
  8
0
 10
36.1582
 20
343.369
 11
36.4809
 21
343.607
  0
LINE
  8
0
 10
36.4809
 20
343.607
 11
36.8077
 21
343.84
  0
LINE
  8
0
 10
36.8077
 20
343.84
 11
37.1385
 21
344.068
  0
LINE
  8
0
 10
37.1385
 20
344.068
 11
37.4733
 21
344.289
  0
LINE
  8
0
 10
37.4733
 20
344.289
 11
37.8118
 21
344.505
  0
LINE
  8
0
 10
37.8118
 20
344.505
 11
38.1541
 21
344.715
  0
LINE
  8
0
 10
38.1541
 20
344.715
 11
38.5
 21
344.919
  0
LINE
  8
0
 10
38.5
 20
344.919
 11
38.8494
 21
345.116
  0
LINE
  8
0
 10
38.8494
 20
345.116
 11
39.2021
 21
345.308
  0
LINE
  8
0
 10
39.2021
 20
345.308
 11
39.5582
 21
345.493
  0
LINE
  8
0
 10
39.5582
 20
345.493
 11
39.9174
 21
345.672
  0
LINE
  8
0
 10
39.9174
 20
345.672
 11
40.2798
 21
345.845
  0
LINE
  8
0
 10
40.2798
 20
345.845
 11
40.6451
 21
346.012
  0
LINE
  8
0
 10
40.6451
 20
346.012
 11
41.0132
 21
346.172
  0
LINE
  8
0
 10
41.0132
 20
346.172
 11
41.384
 21
346.325
  0
LINE
  8
0
 10
41.384
 20
346.325
 11
41.7575
 21
346.472
  0
LINE
  8
0
 10
41.7575
 20
346.472
 11
42.1335
 21
346.613
  0
LINE
  8
0
 10
42.1335
 20
346.613
 11
42.5119
 21
346.747
  0
LINE
  8
0
 10
42.5119
 20
346.747
 11
42.8926
 21
346.874
  0
LINE
  8
0
 10
42.8926
 20
346.874
 11
43.2754
 21
346.995
  0
LINE
  8
0
 10
43.2754
 20
346.995
 11
43.6603
 21
347.109
  0
LINE
  8
0
 10
43.6603
 20
347.109
 11
44.0471
 21
347.216
  0
LINE
  8
0
 10
44.0471
 20
347.216
 11
44.4358
 21
347.317
  0
LINE
  8
0
 10
44.4358
 20
347.317
 11
44.8261
 21
347.411
  0
LINE
  8
0
 10
44.8261
 20
347.411
 11
45.218
 21
347.497
  0
LINE
  8
0
 10
45.218
 20
347.497
 11
45.6114
 21
347.577
  0
LINE
  8
0
 10
45.6114
 20
347.577
 11
46.0061
 21
347.651
  0
LINE
  8
0
 10
46.0061
 20
347.651
 11
46.402
 21
347.717
  0
LINE
  8
0
 10
46.402
 20
347.717
 11
46.799
 21
347.776
  0
LINE
  8
0
 10
46.799
 20
347.776
 11
47.197
 21
347.829
  0
LINE
  8
0
 10
47.197
 20
347.829
 11
47.5958
 21
347.874
  0
LINE
  8
0
 10
47.5958
 20
347.874
 11
47.9954
 21
347.912
  0
LINE
  8
0
 10
47.9954
 20
347.912
 11
48.3956
 21
347.944
  0
LINE
  8
0
 10
48.3956
 20
347.944
 11
48.7963
 21
347.968
  0
LINE
  8
0
 10
48.7963
 20
347.968
 11
49.1973
 21
347.986
  0
LINE
  8
0
 10
49.1973
 20
347.986
 11
49.5986
 21
347.996
  0
LINE
  8
0
 10
49.5986
 20
347.996
 11
50
 21
348
  0
LINE
  8
0
 10
50
 20
348
 11
50.4014
 21
347.996
  0
LINE
  8
0
 10
50.4014
 20
347.996
 11
50.8027
 21
347.986
  0
LINE
  8
0
 10
50.8027
 20
347.986
 11
51.2037
 21
347.968
  0
LINE
  8
0
 10
51.2037
 20
347.968
 11
51.6044
 21
347.944
  0
LINE
  8
0
 10
51.6044
 20
347.944
 11
52.0046
 21
347.912
  0
LINE
  8
0
 10
52.0046
 20
347.912
 11
52.4041
 21
347.874
  0
LINE
  8
0
 10
52.4041
 20
347.874
 11
52.803
 21
347.829
  0
LINE
  8
0
 10
52.803
 20
347.829
 11
53.201
 21
347.776
  0
LINE
  8
0
 10
53.201
 20
347.776
 11
53.598
 21
347.717
  0
LINE
  8
0
 10
53.598
 20
347.717
 11
53.9939
 21
347.651
  0
LINE
  8
0
 10
53.9939
 20
347.651
 11
54.3886
 21
347.577
  0
LINE
  8
0
 10
54.3886
 20
347.577
 11
54.782
 21
347.497
  0
LINE
  8
0
 10
54.782
 20
347.497
 11
55.1739
 21
347.411
  0
LINE
  8
0
 10
55.1739
 20
347.411
 11
55.5642
 21
347.317
  0
LINE
  8
0
 10
55.5642
 20
347.317
 11
55.9528
 21
347.216
  0
LINE
  8
0
 10
55.9528
 20
347.216
 11
56.3396
 21
347.109
  0
LINE
  8
0
 10
56.3396
 20
347.109
 11
56.7245
 21
346.995
  0
LINE
  8
0
 10
56.7245
 20
346.995
 11
57.1074
 21
346.874
  0
LINE
  8
0
 10
57.1074
 20
346.874
 11
57.4881
 21
346.747
  0
LINE
  8
0
 10
57.4881
 20
346.747
 11
57.8665
 21
346.613
  0
LINE
  8
0
 10
57.8665
 20
346.613
 11
58.2425
 21
346.472
  0
LINE
  8
0
 10
58.2425
 20
346.472
 11
58.616
 21
346.325
  0
LINE
  8
0
 10
58.616
 20
346.325
 11
58.9868
 21
346.172
  0
LINE
  8
0
 10
58.9868
 20
346.172
 11
59.3549
 21
346.012
  0
LINE
  8
0
 10
59.3549
 20
346.012
 11
59.7202
 21
345.845
  0
LINE
  8
0
 10
59.7202
 20
345.845
 11
60.0825
 21
345.672
  0
LINE
  8
0
 10
60.0825
 20
345.672
 11
60.4418
 21
345.493
  0
LINE
  8
0
 10
60.4418
 20
345.493
 11
60.7978
 21
345.308
  0
LINE
  8
0
 10
60.7978
 20
345.308
 11
61.1506
 21
345.116
  0
LINE
  8
0
 10
61.1506
 20
345.116
 11
61.5
 21
344.919
  0
LINE
  8
0
 10
61.5
 20
344.919
 11
61.8459
 21
344.715
  0
LINE
  8
0
 10
61.8459
 20
344.715
 11
62.1881
 21
344.505
  0
LINE
  8
0
 10
62.1881
 20
344.505
 11
62.5267
 21
344.289
  0
LINE
  8
0
 10
62.5267
 20
344.289
 11
62.8614
 21
344.068
  0
LINE
  8
0
 10
62.8614
 20
344.068
 11
63.1922
 21
343.84
  0
LINE
  8
0
 10
63.1922
 20
343.84
 11
63.5191
 21
343.607
  0
LINE
  8
0
 10
63.5191
 20
343.607
 11
63.8417
 21
343.369
  0
LINE
  8
0
 10
63.8417
 20
343.369
 11
64.1602
 21
343.124
  0
LINE
  8
0
 10
64.1602
 20
343.124
 11
64.4744
 21
342.874
  0
LINE
  8
0
 10
64.4744
 20
342.874
 11
64.7841
 21
342.619
  0
LINE
  8
0
 10
64.7841
 20
342.619
 11
65.0894
 21
342.358
  0
LINE
  8
0
 10
65.0894
 20
342.358
 11
65.39
 21
342.092
  0
LINE
  8
0
 10
65.39
 20
342.092
 11
65.686
 21
341.821
  0
LINE
  8
0
 10
65.686
 20
341.821
 11
65.9771
 21
341.545
  0
LINE
  8
0
 10
65.9771
 20
341.545
 11
66.2634
 21
341.263
  0
LINE
  8
0
 10
66.2634
 20
341.263
 11
66.5448
 21
340.977
  0
LINE
  8
0
 10
66.5448
 20
340.977
 11
66.8211
 21
340.686
  0
LINE
  8
0
 10
66.8211
 20
340.686
 11
67.0923
 21
340.39
  0
LINE
  8
0
 10
67.0923
 20
340.39
 11
67.3583
 21
340.089
  0
LINE
  8
0
 10
67.3583
 20
340.089
 11
67.619
 21
339.784
  0
LINE
  8
0
 10
67.619
 20
339.784
 11
67.8743
 21
339.474
  0
LINE
  8
0
 10
67.8743
 20
339.474
 11
68.1242
 21
339.16
  0
LINE
  8
0
 10
68.1242
 20
339.16
 11
68.3686
 21
338.842
  0
LINE
  8
0
 10
68.3686
 20
338.842
 11
68.6074
 21
338.519
  0
LINE
  8
0
 10
68.6074
 20
338.519
 11
68.8405
 21
338.192
  0
LINE
  8
0
 10
68.8405
 20
338.192
 11
69.0679
 21
337.861
  0
LINE
  8
0
 10
69.0679
 20
337.861
 11
69.2894
 21
337.527
  0
LINE
  8
0
 10
69.2894
 20
337.527
 11
69.5051
 21
337.188
  0
LINE
  8
0
 10
69.5051
 20
337.188
 11
69.7148
 21
336.846
  0
LINE
  8
0
 10
69.7148
 20
336.846
 11
69.9186
 21
336.5
  0
LINE
  8
0
 10
69.9186
 20
336.5
 11
70.1162
 21
336.151
  0
LINE
  8
0
 10
70.1162
 20
336.151
 11
70.3078
 21
335.798
  0
LINE
  8
0
 10
70.3078
 20
335.798
 11
70.4931
 21
335.442
  0
LINE
  8
0
 10
70.4931
 20
335.442
 11
70.6723
 21
335.083
  0
LINE
  8
0
 10
70.6723
 20
335.083
 11
70.8451
 21
334.72
  0
LINE
  8
0
 10
70.8451
 20
334.72
 11
71.0115
 21
334.355
  0
LINE
  8
0
 10
71.0115
 20
334.355
 11
71.1716
 21
333.987
  0
LINE
  8
0
 10
71.1716
 20
333.987
 11
71.3252
 21
333.616
  0
LINE
  8
0
 10
71.3252
 20
333.616
 11
71.4723
 21
333.242
  0
LINE
  8
0
 10
71.4723
 20
333.242
 11
71.6129
 21
332.866
  0
LINE
  8
0
 10
71.6129
 20
332.866
 11
71.7469
 21
332.488
  0
LINE
  8
0
 10
71.7469
 20
332.488
 11
71.8743
 21
332.107
  0
LINE
  8
0
 10
71.8743
 20
332.107
 11
71.995
 21
331.725
  0
LINE
  8
0
 10
71.995
 20
331.725
 11
72.109
 21
331.34
  0
LINE
  8
0
 10
72.109
 20
331.34
 11
72.2163
 21
330.953
  0
LINE
  8
0
 10
72.2163
 20
330.953
 11
72.3168
 21
330.564
  0
LINE
  8
0
 10
72.3168
 20
330.564
 11
72.4105
 21
330.174
  0
LINE
  8
0
 10
72.4105
 20
330.174
 11
72.4974
 21
329.782
  0
LINE
  8
0
 10
72.4974
 20
329.782
 11
72.5774
 21
329.389
  0
LINE
  8
0
 10
72.5774
 20
329.389
 11
72.6506
 21
328.994
  0
LINE
  8
0
 10
72.6506
 20
328.994
 11
72.7168
 21
328.598
  0
LINE
  8
0
 10
72.7168
 20
328.598
 11
72.7762
 21
328.201
  0
LINE
  8
0
 10
72.7762
 20
328.201
 11
72.8286
 21
327.803
  0
LINE
  8
0
 10
72.8286
 20
327.803
 11
72.874
 21
327.404
  0
LINE
  8
0
 10
72.874
 20
327.404
 11
72.9125
 21
327.005
  0
LINE
  8
0
 10
72.9125
 20
327.005
 11
72.944
 21
326.604
  0
LINE
  8
0
 10
72.944
 20
326.604
 11
72.9685
 21
326.204
  0
LINE
  8
0
 10
72.9685
 20
326.204
 11
72.986
 21
325.803
  0
LINE
  8
0
 10
72.986
 20
325.803
 11
72.9965
 21
325.401
  0
LINE
  8
0
 10
72.9965
 20
325.401
 11
73
 21
325
  0
LINE
  8
0
 10
73
 20
325
 11
72.9965
 21
324.599
  0
LINE
  8
0
 10
72.9965
 20
324.599
 11
72.986
 21
324.197
  0
LINE
  8
0
 10
72.986
 20
324.197
 11
72.9685
 21
323.796
  0
LINE
  8
0
 10
72.9685
 20
323.796
 11
72.944
 21
323.396
  0
LINE
  8
0
 10
72.944
 20
323.396
 11
72.9125
 21
322.995
  0
LINE
  8
0
 10
72.9125
 20
322.995
 11
72.874
 21
322.596
  0
LINE
  8
0
 10
72.874
 20
322.596
 11
72.8286
 21
322.197
  0
LINE
  8
0
 10
72.8286
 20
322.197
 11
72.7762
 21
321.799
  0
LINE
  8
0
 10
72.7762
 20
321.799
 11
72.7168
 21
321.402
  0
LINE
  8
0
 10
72.7168
 20
321.402
 11
72.6506
 21
321.006
  0
LINE
  8
0
 10
72.6506
 20
321.006
 11
72.5774
 21
320.611
  0
LINE
  8
0
 10
72.5774
 20
320.611
 11
72.4974
 21
320.218
  0
LINE
  8
0
 10
72.4974
 20
320.218
 11
72.4105
 21
319.826
  0
LINE
  8
0
 10
72.4105
 20
319.826
 11
72.3168
 21
319.436
  0
LINE
  8
0
 10
72.3168
 20
319.436
 11
72.2163
 21
319.047
  0
LINE
  8
0
 10
72.2163
 20
319.047
 11
72.109
 21
318.66
  0
LINE
  8
0
 10
72.109
 20
318.66
 11
71.995
 21
318.275
  0
LINE
  8
0
 10
71.995
 20
318.275
 11
71.8743
 21
317.893
  0
LINE
  8
0
 10
71.8743
 20
317.893
 11
71.7469
 21
317.512
  0
LINE
  8
0
 10
71.7469
 20
317.512
 11
71.6129
 21
317.134
  0
LINE
  8
0
 10
71.6129
 20
317.134
 11
71.4723
 21
316.758
  0
LINE
  8
0
 10
71.4723
 20
316.758
 11
71.3252
 21
316.384
  0
LINE
  8
0
 10
71.3252
 20
316.384
 11
71.1716
 21
316.013
  0
LINE
  8
0
 10
71.1716
 20
316.013
 11
71.0115
 21
315.645
  0
LINE
  8
0
 10
71.0115
 20
315.645
 11
70.8451
 21
315.28
  0
LINE
  8
0
 10
70.8451
 20
315.28
 11
70.6723
 21
314.917
  0
LINE
  8
0
 10
70.6723
 20
314.917
 11
70.4931
 21
314.558
  0
LINE
  8
0
 10
70.4931
 20
314.558
 11
70.3078
 21
314.202
  0
LINE
  8
0
 10
70.3078
 20
314.202
 11
70.1162
 21
313.849
  0
LINE
  8
0
 10
70.1162
 20
313.849
 11
69.9186
 21
313.5
  0
LINE
  8
0
 10
69.9186
 20
313.5
 11
69.7148
 21
313.154
  0
LINE
  8
0
 10
69.7148
 20
313.154
 11
69.5051
 21
312.812
  0
LINE
  8
0
 10
69.5051
 20
312.812
 11
69.2894
 21
312.473
  0
LINE
  8
0
 10
69.2894
 20
312.473
 11
69.0679
 21
312.139
  0
LINE
  8
0
 10
69.0679
 20
312.139
 11
68.8405
 21
311.808
  0
LINE
  8
0
 10
68.8405
 20
311.808
 11
68.6074
 21
311.481
  0
LINE
  8
0
 10
68.6074
 20
311.481
 11
68.3686
 21
311.158
  0
LINE
  8
0
 10
68.3686
 20
311.158
 11
68.1242
 21
310.84
  0
LINE
  8
0
 10
68.1242
 20
310.84
 11
67.8743
 21
310.526
  0
LINE
  8
0
 10
67.8743
 20
310.526
 11
67.619
 21
310.216
  0
LINE
  8
0
 10
67.619
 20
310.216
 11
67.3583
 21
309.911
  0
LINE
  8
0
 10
67.3583
 20
309.911
 11
67.0923
 21
309.61
  0
LINE
  8
0
 10
67.0923
 20
309.61
 11
66.8211
 21
309.314
  0
LINE
  8
0
 10
66.8211
 20
309.314
 11
66.5448
 21
309.023
  0
LINE
  8
0
 10
66.5448
 20
309.023
 11
66.2634
 21
308.737
  0
LINE
  8
0
 10
66.2634
 20
308.737
 11
65.9771
 21
308.455
  0
LINE
  8
0
 10
65.9771
 20
308.455
 11
65.686
 21
308.179
  0
LINE
  8
0
 10
65.686
 20
308.179
 11
65.39
 21
307.908
  0
LINE
  8
0
 10
65.39
 20
307.908
 11
65.0894
 21
307.642
  0
LINE
  8
0
 10
65.0894
 20
307.642
 11
64.7841
 21
307.381
  0
LINE
  8
0
 10
64.7841
 20
307.381
 11
64.4744
 21
307.126
  0
LINE
  8
0
 10
64.4744
 20
307.126
 11
64.1602
 21
306.876
  0
LINE
  8
0
 10
64.1602
 20
306.876
 11
63.8417
 21
306.631
  0
LINE
  8
0
 10
63.8417
 20
306.631
 11
63.5191
 21
306.393
  0
LINE
  8
0
 10
63.5191
 20
306.393
 11
63.1922
 21
306.16
  0
LINE
  8
0
 10
63.1922
 20
306.16
 11
62.8614
 21
305.932
  0
LINE
  8
0
 10
62.8614
 20
305.932
 11
62.5267
 21
305.711
  0
LINE
  8
0
 10
62.5267
 20
305.711
 11
62.1881
 21
305.495
  0
LINE
  8
0
 10
62.1881
 20
305.495
 11
61.8459
 21
305.285
  0
LINE
  8
0
 10
61.8459
 20
305.285
 11
61.5
 21
305.081
  0
LINE
  8
0
 10
61.5
 20
305.081
 11
61.1506
 21
304.884
  0
LINE
  8
0
 10
61.1506
 20
304.884
 11
60.7978
 21
304.692
  0
LINE
  8
0
 10
60.7978
 20
304.692
 11
60.4418
 21
304.507
  0
LINE
  8
0
 10
60.4418
 20
304.507
 11
60.0825
 21
304.328
  0
LINE
  8
0
 10
60.0825
 20
304.328
 11
59.7202
 21
304.155
  0
LINE
  8
0
 10
59.7202
 20
304.155
 11
59.3549
 21
303.988
  0
LINE
  8
0
 10
59.3549
 20
303.988
 11
58.9868
 21
303.828
  0
LINE
  8
0
 10
58.9868
 20
303.828
 11
58.616
 21
303.675
  0
LINE
  8
0
 10
58.616
 20
303.675
 11
58.2425
 21
303.528
  0
LINE
  8
0
 10
58.2425
 20
303.528
 11
57.8665
 21
303.387
  0
LINE
  8
0
 10
57.8665
 20
303.387
 11
57.4881
 21
303.253
  0
LINE
  8
0
 10
57.4881
 20
303.253
 11
57.1074
 21
303.126
  0
LINE
  8
0
 10
57.1074
 20
303.126
 11
56.7245
 21
303.005
  0
LINE
  8
0
 10
56.7245
 20
303.005
 11
56.3396
 21
302.891
  0
LINE
  8
0
 10
56.3396
 20
302.891
 11
55.9528
 21
302.784
  0
LINE
  8
0
 10
55.9528
 20
302.784
 11
55.5642
 21
302.683
  0
LINE
  8
0
 10
55.5642
 20
302.683
 11
55.1739
 21
302.589
  0
LINE
  8
0
 10
55.1739
 20
302.589
 11
54.782
 21
302.503
  0
LINE
  8
0
 10
54.782
 20
302.503
 11
54.3886
 21
302.423
  0
LINE
  8
0
 10
54.3886
 20
302.423
 11
53.9939
 21
302.349
  0
LINE
  8
0
 10
53.9939
 20
302.349
 11
53.598
 21
302.283
  0
LINE
  8
0
 10
53.598
 20
302.283
 11
53.201
 21
302.224
  0
LINE
  8
0
 10
53.201
 20
302.224
 11
52.803
 21
302.171
  0
LINE
  8
0
 10
52.803
 20
302.171
 11
52.4041
 21
302.126
  0
LINE
  8
0
 10
52.4041
 20
302.126
 11
52.0046
 21
302.088
  0
LINE
  8
0
 10
52.0046
 20
302.088
 11
51.6044
 21
302.056
  0
LINE
  8
0
 10
51.6044
 20
302.056
 11
51.2037
 21
302.032
  0
LINE
  8
0
 10
51.2037
 20
302.032
 11
50.8027
 21
302.014
  0
LINE
  8
0
 10
50.8027
 20
302.014
 11
50.4014
 21
302.003
  0
LINE
  8
0
 10
50.4014
 20
302.003
 11
50
 21
302
  0
LINE
  8
0
 10
50
 20
302
 11
49.5986
 21
302.003
  0
LINE
  8
0
 10
10.0831
 20
298.415
 11
9.9446
 21
298.413
  0
LINE
  8
0
 10
9.9446
 20
298.413
 11
9.80652
 21
298.424
  0
LINE
  8
0
 10
9.80652
 20
298.424
 11
9.66994
 21
298.447
  0
LINE
  8
0
 10
9.66994
 20
298.447
 11
9.53586
 21
298.482
  0
LINE
  8
0
 10
9.53586
 20
298.482
 11
9.4053
 21
298.528
  0
LINE
  8
0
 10
9.4053
 20
298.528
 11
9.27928
 21
298.586
  0
LINE
  8
0
 10
9.27928
 20
298.586
 11
9.15875
 21
298.654
  0
LINE
  8
0
 10
9.15875
 20
298.654
 11
9.04462
 21
298.732
  0
LINE
  8
0
 10
9.04462
 20
298.732
 11
8.93774
 21
298.82
  0
LINE
  8
0
 10
8.93774
 20
298.82
 11
8.83897
 21
298.917
  0
LINE
  8
0
 10
8.83897
 20
298.917
 11
8.74902
 21
299.023
  0
LINE
  8
0
 10
8.74902
 20
299.023
 11
8.66861
 21
299.135
  0
LINE
  8
0
 10
8.66861
 20
299.135
 11
8.59831
 21
299.255
  0
LINE
  8
0
 10
8.59831
 20
299.255
 11
8.5387
 21
299.38
  0
LINE
  8
0
 10
8.5387
 20
299.38
 11
8.49019
 21
299.509
  0
LINE
  8
0
 10
8.49019
 20
299.509
 11
8.45319
 21
299.643
  0
LINE
  8
0
 10
8.45319
 20
299.643
 11
8.42795
 21
299.779
  0
LINE
  8
0
 10
8.42795
 20
299.779
 11
8.41467
 21
299.917
  0
LINE
  8
0
 10
8.41467
 20
299.917
 11
8.41345
 21
300.055
  0
LINE
  8
0
 10
8.41345
 20
300.055
 11
8.42433
 21
300.193
  0
LINE
  8
0
 10
8.42433
 20
300.193
 11
8.44719
 21
300.33
  0
LINE
  8
0
 10
8.44719
 20
300.33
 11
8.48186
 21
300.464
  0
LINE
  8
0
 10
8.48186
 20
300.464
 11
8.52809
 21
300.595
  0
LINE
  8
0
 10
8.52809
 20
300.595
 11
8.58553
 21
300.721
  0
LINE
  8
0
 10
8.58553
 20
300.721
 11
8.65372
 21
300.841
  0
LINE
  8
0
 10
8.65372
 20
300.841
 11
8.73216
 21
300.955
  0
LINE
  8
0
 10
8.73216
 20
300.955
 11
8.82025
 21
301.062
  0
LINE
  8
0
 10
8.82025
 20
301.062
 11
8.91731
 21
301.161
  0
LINE
  8
0
 10
8.91731
 20
301.161
 11
9.02263
 21
301.251
  0
LINE
  8
0
 10
9.02263
 20
301.251
 11
9.13538
 21
301.331
  0
LINE
  8
0
 10
9.13538
 20
301.331
 11
9.2547
 21
301.402
  0
LINE
  8
0
 10
9.2547
 20
301.402
 11
9.3797
 21
301.461
  0
LINE
  8
0
 10
9.3797
 20
301.461
 11
9.50943
 21
301.51
  0
LINE
  8
0
 10
9.50943
 20
301.51
 11
9.64288
 21
301.547
  0
LINE
  8
0
 10
9.64288
 20
301.547
 11
9.77905
 21
301.572
  0
LINE
  8
0
 10
9.77905
 20
301.572
 11
9.91692
 21
301.585
  0
LINE
  8
0
 10
9.91692
 20
301.585
 11
10.0554
 21
301.587
  0
LINE
  8
0
 10
10.0554
 20
301.587
 11
10.1935
 21
301.576
  0
LINE
  8
0
 10
10.1935
 20
301.576
 11
10.33
 21
301.553
  0
LINE
  8
0
 10
10.33
 20
301.553
 11
10.4641
 21
301.518
  0
LINE
  8
0
 10
10.4641
 20
301.518
 11
10.5947
 21
301.472
  0
LINE
  8
0
 10
10.5947
 20
301.472
 11
10.7207
 21
301.414
  0
LINE
  8
0
 10
10.7207
 20
301.414
 11
10.8412
 21
301.346
  0
LINE
  8
0
 10
10.8412
 20
301.346
 11
10.9554
 21
301.268
  0
LINE
  8
0
 10
10.9554
 20
301.268
 11
11.0622
 21
301.18
  0
LINE
  8
0
 10
11.0622
 20
301.18
 11
11.161
 21
301.083
  0
LINE
  8
0
 10
11.161
 20
301.083
 11
11.251
 21
300.977
  0
LINE
  8
0
 10
11.251
 20
300.977
 11
11.3314
 21
300.865
  0
LINE
  8
0
 10
11.3314
 20
300.865
 11
11.4017
 21
300.745
  0
LINE
  8
0
 10
11.4017
 20
300.745
 11
11.4613
 21
300.62
  0
LINE
  8
0
 10
11.4613
 20
300.62
 11
11.5098
 21
300.491
  0
LINE
  8
0
 10
11.5098
 20
300.491
 11
11.5468
 21
300.357
  0
LINE
  8
0
 10
11.5468
 20
300.357
 11
11.572
 21
300.221
  0
LINE
  8
0
 10
11.572
 20
300.221
 11
11.5853
 21
300.083
  0
LINE
  8
0
 10
11.5853
 20
300.083
 11
11.5865
 21
299.945
  0
LINE
  8
0
 10
11.5865
 20
299.945
 11
11.5757
 21
299.807
  0
LINE
  8
0
 10
11.5757
 20
299.807
 11
11.5528
 21
299.67
  0
LINE
  8
0
 10
11.5528
 20
299.67
 11
11.5181
 21
299.536
  0
LINE
  8
0
 10
11.5181
 20
299.536
 11
11.4719
 21
299.405
  0
LINE
  8
0
 10
11.4719
 20
299.405
 11
11.4145
 21
299.279
  0
LINE
  8
0
 10
11.4145
 20
299.279
 11
11.3463
 21
299.159
  0
LINE
  8
0
 10
11.3463
 20
299.159
 11
11.2678
 21
299.045
  0
LINE
  8
0
 10
11.2678
 20
299.045
 11
11.1797
 21
298.938
  0
LINE
  8
0
 10
11.1797
 20
298.938
 11
11.0827
 21
298.839
  0
LINE
  8
0
 10
11.0827
 20
298.839
 11
10.9774
 21
298.749
  0
LINE
  8
0
 10
10.9774
 20
298.749
 11
10.8646
 21
298.669
  0
LINE
  8
0
 10
10.8646
 20
298.669
 11
10.7453
 21
298.598
  0
LINE
  8
0
 10
10.7453
 20
298.598
 11
10.6203
 21
298.539
  0
LINE
  8
0
 10
10.6203
 20
298.539
 11
10.4906
 21
298.49
  0
LINE
  8
0
 10
10.4906
 20
298.49
 11
10.3571
 21
298.453
  0
LINE
  8
0
 10
10.3571
 20
298.453
 11
10.2209
 21
298.428
  0
LINE
  8
0
 10
10.2209
 20
298.428
 11
10.0831
 21
298.415
  0
LINE
  8
0
 10
105.276
 20
277.535
 11
133.091
 21
288.773
  0
LINE
  8
0
 10
133.091
 20
288.773
 11
183.288
 21
164.53
  0
LINE
  8
0
 10
183.288
 20
164.53
 11
155.473
 21
153.292
  0
LINE
  8
0
 10
155.473
 20
153.292
 11
105.276
 21
277.535
  0
LINE
  8
0
 10
58.4415
 20
206.005
 11
57.8832
 21
206.019
  0
LINE
  8
0
 10
57.8832
 20
206.019
 11
57.3252
 21
206.044
  0
LINE
  8
0
 10
57.3252
 20
206.044
 11
56.7678
 21
206.078
  0
LINE
  8
0
 10
56.7678
 20
206.078
 11
56.211
 21
206.122
  0
LINE
  8
0
 10
56.211
 20
206.122
 11
55.6551
 21
206.175
  0
LINE
  8
0
 10
55.6551
 20
206.175
 11
55.1002
 21
206.239
  0
LINE
  8
0
 10
55.1002
 20
206.239
 11
54.5464
 21
206.311
  0
LINE
  8
0
 10
54.5464
 20
206.311
 11
53.9941
 21
206.394
  0
LINE
  8
0
 10
53.9941
 20
206.394
 11
53.4433
 21
206.486
  0
LINE
  8
0
 10
53.4433
 20
206.486
 11
52.8941
 21
206.588
  0
LINE
  8
0
 10
52.8941
 20
206.588
 11
52.3468
 21
206.699
  0
LINE
  8
0
 10
52.3468
 20
206.699
 11
51.8016
 21
206.82
  0
LINE
  8
0
 10
51.8016
 20
206.82
 11
51.2585
 21
206.951
  0
LINE
  8
0
 10
51.2585
 20
206.951
 11
50.7178
 21
207.09
  0
LINE
  8
0
 10
50.7178
 20
207.09
 11
50.1796
 21
207.24
  0
LINE
  8
0
 10
50.1796
 20
207.24
 11
49.6441
 21
207.398
  0
LINE
  8
0
 10
49.6441
 20
207.398
 11
49.1115
 21
207.566
  0
LINE
  8
0
 10
49.1115
 20
207.566
 11
48.5818
 21
207.743
  0
LINE
  8
0
 10
48.5818
 20
207.743
 11
48.0553
 21
207.93
  0
LINE
  8
0
 10
48.0553
 20
207.93
 11
47.5322
 21
208.125
  0
LINE
  8
0
 10
47.5322
 20
208.125
 11
47.0126
 21
208.33
  0
LINE
  8
0
 10
47.0126
 20
208.33
 11
46.4966
 21
208.544
  0
LINE
  8
0
 10
46.4966
 20
208.544
 11
45.9844
 21
208.767
  0
LINE
  8
0
 10
45.9844
 20
208.767
 11
45.4762
 21
208.998
  0
LINE
  8
0
 10
45.4762
 20
208.998
 11
44.9721
 21
209.239
  0
LINE
  8
0
 10
44.9721
 20
209.239
 11
44.4723
 21
209.488
  0
LINE
  8
0
 10
44.4723
 20
209.488
 11
43.9769
 21
209.746
  0
LINE
  8
0
 10
43.9769
 20
209.746
 11
43.4861
 21
210.012
  0
LINE
  8
0
 10
43.4861
 20
210.012
 11
43
 21
210.287
  0
LINE
  8
0
 10
43
 20
210.287
 11
42.5188
 21
210.571
  0
LINE
  8
0
 10
42.5188
 20
210.571
 11
42.0426
 21
210.862
  0
LINE
  8
0
 10
42.0426
 20
210.862
 11
41.5715
 21
211.163
  0
LINE
  8
0
 10
41.5715
 20
211.163
 11
41.1058
 21
211.471
  0
LINE
  8
0
 10
41.1058
 20
211.471
 11
40.6456
 21
211.787
  0
LINE
  8
0
 10
40.6456
 20
211.787
 11
40.1909
 21
212.111
  0
LINE
  8
0
 10
40.1909
 20
212.111
 11
39.7419
 21
212.444
  0
LINE
  8
0
 10
39.7419
 20
212.444
 11
39.2988
 21
212.784
  0
LINE
  8
0
 10
39.2988
 20
212.784
 11
38.8617
 21
213.131
  0
LINE
  8
0
 10
38.8617
 20
213.131
 11
38.4308
 21
213.487
  0
LINE
  8
0
 10
38.4308
 20
213.487
 11
38.0061
 21
213.849
  0
LINE
  8
0
 10
38.0061
 20
213.849
 11
37.5878
 21
214.219
  0
LINE
  8
0
 10
37.5878
 20
214.219
 11
37.176
 21
214.597
  0
LINE
  8
0
 10
37.176
 20
214.597
 11
36.7709
 21
214.981
  0
LINE
  8
0
 10
36.7709
 20
214.981
 11
36.3726
 21
215.373
  0
LINE
  8
0
 10
36.3726
 20
215.373
 11
35.9811
 21
215.771
  0
LINE
  8
0
 10
35.9811
 20
215.771
 11
35.5967
 21
216.176
  0
LINE
  8
0
 10
35.5967
 20
216.176
 11
35.2194
 21
216.588
  0
LINE
  8
0
 10
35.2194
 20
216.588
 11
34.8493
 21
217.006
  0
LINE
  8
0
 10
34.8493
 20
217.006
 11
34.4866
 21
217.431
  0
LINE
  8
0
 10
34.4866
 20
217.431
 11
34.1313
 21
217.862
  0
LINE
  8
0
 10
34.1313
 20
217.862
 11
33.7836
 21
218.299
  0
LINE
  8
0
 10
33.7836
 20
218.299
 11
33.4436
 21
218.742
  0
LINE
  8
0
 10
33.4436
 20
218.742
 11
33.1115
 21
219.191
  0
LINE
  8
0
 10
33.1115
 20
219.191
 11
32.7871
 21
219.646
  0
LINE
  8
0
 10
32.7871
 20
219.646
 11
32.4708
 21
220.106
  0
LINE
  8
0
 10
32.4708
 20
220.106
 11
32.1625
 21
220.572
  0
LINE
  8
0
 10
32.1625
 20
220.572
 11
31.8625
 21
221.043
  0
LINE
  8
0
 10
31.8625
 20
221.043
 11
31.5706
 21
221.519
  0
LINE
  8
0
 10
31.5706
 20
221.519
 11
31.2872
 21
222
  0
LINE
  8
0
 10
31.2872
 20
222
 11
31.0122
 21
222.486
  0
LINE
  8
0
 10
31.0122
 20
222.486
 11
30.7457
 21
222.977
  0
LINE
  8
0
 10
30.7457
 20
222.977
 11
30.4878
 21
223.472
  0
LINE
  8
0
 10
30.4878
 20
223.472
 11
30.2386
 21
223.972
  0
LINE
  8
0
 10
30.2386
 20
223.972
 11
29.9981
 21
224.476
  0
LINE
  8
0
 10
29.9981
 20
224.476
 11
29.7665
 21
224.984
  0
LINE
  8
0
 10
29.7665
 20
224.984
 11
29.5438
 21
225.497
  0
LINE
  8
0
 10
29.5438
 20
225.497
 11
29.3301
 21
226.013
  0
LINE
  8
0
 10
29.3301
 20
226.013
 11
29.1254
 21
226.532
  0
LINE
  8
0
 10
29.1254
 20
226.532
 11
28.9298
 21
227.055
  0
LINE
  8
0
 10
28.9298
 20
227.055
 11
28.7434
 21
227.582
  0
LINE
  8
0
 10
28.7434
 20
227.582
 11
28.5662
 21
228.111
  0
LINE
  8
0
 10
28.5662
 20
228.111
 11
28.3982
 21
228.644
  0
LINE
  8
0
 10
28.3982
 20
228.644
 11
28.2396
 21
229.18
  0
LINE
  8
0
 10
28.2396
 20
229.18
 11
28.0904
 21
229.718
  0
LINE
  8
0
 10
28.0904
 20
229.718
 11
27.9505
 21
230.258
  0
LINE
  8
0
 10
27.9505
 20
230.258
 11
27.8201
 21
230.802
  0
LINE
  8
0
 10
27.8201
 20
230.802
 11
27.6993
 21
231.347
  0
LINE
  8
0
 10
27.6993
 20
231.347
 11
27.5879
 21
231.894
  0
LINE
  8
0
 10
27.5879
 20
231.894
 11
27.4861
 21
232.443
  0
LINE
  8
0
 10
27.4861
 20
232.443
 11
27.394
 21
232.994
  0
LINE
  8
0
 10
27.394
 20
232.994
 11
27.3114
 21
233.546
  0
LINE
  8
0
 10
27.3114
 20
233.546
 11
27.2385
 21
234.1
  0
LINE
  8
0
 10
27.2385
 20
234.1
 11
27.1753
 21
234.655
  0
LINE
  8
0
 10
27.1753
 20
234.655
 11
27.1218
 21
235.211
  0
LINE
  8
0
 10
27.1218
 20
235.211
 11
27.0779
 21
235.768
  0
LINE
  8
0
 10
27.0779
 20
235.768
 11
27.0439
 21
236.325
  0
LINE
  8
0
 10
27.0439
 20
236.325
 11
27.0195
 21
236.883
  0
LINE
  8
0
 10
27.0195
 20
236.883
 11
27.0049
 21
237.442
  0
LINE
  8
0
 10
27.0049
 20
237.442
 11
27
 21
238
  0
LINE
  8
0
 10
27
 20
238
 11
27.0049
 21
238.558
  0
LINE
  8
0
 10
27.0049
 20
238.558
 11
27.0195
 21
239.117
  0
LINE
  8
0
 10
27.0195
 20
239.117
 11
27.0439
 21
239.675
  0
LINE
  8
0
 10
27.0439
 20
239.675
 11
27.0779
 21
240.232
  0
LINE
  8
0
 10
27.0779
 20
240.232
 11
27.1218
 21
240.789
  0
LINE
  8
0
 10
27.1218
 20
240.789
 11
27.1753
 21
241.345
  0
LINE
  8
0
 10
27.1753
 20
241.345
 11
27.2385
 21
241.9
  0
LINE
  8
0
 10
27.2385
 20
241.9
 11
27.3114
 21
242.454
  0
LINE
  8
0
 10
27.3114
 20
242.454
 11
27.394
 21
243.006
  0
LINE
  8
0
 10
27.394
 20
243.006
 11
27.4861
 21
243.557
  0
LINE
  8
0
 10
27.4861
 20
243.557
 11
27.5879
 21
244.106
  0
LINE
  8
0
 10
27.5879
 20
244.106
 11
27.6993
 21
244.653
  0
LINE
  8
0
 10
27.6993
 20
244.653
 11
27.8201
 21
245.198
  0
LINE
  8
0
 10
27.8201
 20
245.198
 11
27.9505
 21
245.741
  0
LINE
  8
0
 10
27.9505
 20
245.741
 11
28.0904
 21
246.282
  0
LINE
  8
0
 10
28.0904
 20
246.282
 11
28.2396
 21
246.82
  0
LINE
  8
0
 10
28.2396
 20
246.82
 11
28.3982
 21
247.356
  0
LINE
  8
0
 10
28.3982
 20
247.356
 11
28.5662
 21
247.889
  0
LINE
  8
0
 10
28.5662
 20
247.889
 11
28.7434
 21
248.418
  0
LINE
  8
0
 10
28.7434
 20
248.418
 11
28.9298
 21
248.945
  0
LINE
  8
0
 10
28.9298
 20
248.945
 11
29.1254
 21
249.468
  0
LINE
  8
0
 10
29.1254
 20
249.468
 11
29.3301
 21
249.987
  0
LINE
  8
0
 10
29.3301
 20
249.987
 11
29.5438
 21
250.503
  0
LINE
  8
0
 10
29.5438
 20
250.503
 11
29.7665
 21
251.016
  0
LINE
  8
0
 10
29.7665
 20
251.016
 11
29.9981
 21
251.524
  0
LINE
  8
0
 10
29.9981
 20
251.524
 11
30.2386
 21
252.028
  0
LINE
  8
0
 10
30.2386
 20
252.028
 11
30.4878
 21
252.528
  0
LINE
  8
0
 10
30.4878
 20
252.528
 11
30.7457
 21
253.023
  0
LINE
  8
0
 10
30.7457
 20
253.023
 11
31.0122
 21
253.514
  0
LINE
  8
0
 10
31.0122
 20
253.514
 11
31.2872
 21
254
  0
LINE
  8
0
 10
31.2872
 20
254
 11
31.5706
 21
254.481
  0
LINE
  8
0
 10
31.5706
 20
254.481
 11
31.8625
 21
254.957
  0
LINE
  8
0
 10
31.8625
 20
254.957
 11
32.1625
 21
255.428
  0
LINE
  8
0
 10
32.1625
 20
255.428
 11
32.4708
 21
255.894
  0
LINE
  8
0
 10
32.4708
 20
255.894
 11
32.7871
 21
256.354
  0
LINE
  8
0
 10
32.7871
 20
256.354
 11
33.1115
 21
256.809
  0
LINE
  8
0
 10
33.1115
 20
256.809
 11
33.4436
 21
257.258
  0
LINE
  8
0
 10
33.4436
 20
257.258
 11
33.7836
 21
257.701
  0
LINE
  8
0
 10
33.7836
 20
257.701
 11
34.1313
 21
258.138
  0
LINE
  8
0
 10
34.1313
 20
258.138
 11
34.4866
 21
258.569
  0
LINE
  8
0
 10
34.4866
 20
258.569
 11
34.8493
 21
258.994
  0
LINE
  8
0
 10
34.8493
 20
258.994
 11
35.2194
 21
259.412
  0
LINE
  8
0
 10
35.2194
 20
259.412
 11
35.5967
 21
259.824
  0
LINE
  8
0
 10
35.5967
 20
259.824
 11
35.9811
 21
260.229
  0
LINE
  8
0
 10
35.9811
 20
260.229
 11
36.3726
 21
260.627
  0
LINE
  8
0
 10
36.3726
 20
260.627
 11
36.7709
 21
261.019
  0
LINE
  8
0
 10
36.7709
 20
261.019
 11
37.176
 21
261.403
  0
LINE
  8
0
 10
37.176
 20
261.403
 11
37.5878
 21
261.781
  0
LINE
  8
0
 10
37.5878
 20
261.781
 11
38.0061
 21
262.151
  0
LINE
  8
0
 10
38.0061
 20
262.151
 11
38.4308
 21
262.513
  0
LINE
  8
0
 10
38.4308
 20
262.513
 11
38.8617
 21
262.869
  0
LINE
  8
0
 10
38.8617
 20
262.869
 11
39.2988
 21
263.216
  0
LINE
  8
0
 10
39.2988
 20
263.216
 11
39.7419
 21
263.556
  0
LINE
  8
0
 10
39.7419
 20
263.556
 11
40.1909
 21
263.889
  0
LINE
  8
0
 10
40.1909
 20
263.889
 11
40.6456
 21
264.213
  0
LINE
  8
0
 10
40.6456
 20
264.213
 11
41.1058
 21
264.529
  0
LINE
  8
0
 10
41.1058
 20
264.529
 11
41.5715
 21
264.837
  0
LINE
  8
0
 10
41.5715
 20
264.837
 11
42.0426
 21
265.138
  0
LINE
  8
0
 10
42.0426
 20
265.138
 11
42.5188
 21
265.429
  0
LINE
  8
0
 10
42.5188
 20
265.429
 11
43
 21
265.713
  0
LINE
  8
0
 10
43
 20
265.713
 11
43.4861
 21
265.988
  0
LINE
  8
0
 10
43.4861
 20
265.988
 11
43.9769
 21
266.254
  0
LINE
  8
0
 10
43.9769
 20
266.254
 11
44.4723
 21
266.512
  0
LINE
  8
0
 10
44.4723
 20
266.512
 11
44.9721
 21
266.761
  0
LINE
  8
0
 10
44.9721
 20
266.761
 11
45.4762
 21
267.002
  0
LINE
  8
0
 10
45.4762
 20
267.002
 11
45.9844
 21
267.233
  0
LINE
  8
0
 10
45.9844
 20
267.233
 11
46.4966
 21
267.456
  0
LINE
  8
0
 10
46.4966
 20
267.456
 11
47.0126
 21
267.67
  0
LINE
  8
0
 10
47.0126
 20
267.67
 11
47.5322
 21
267.875
  0
LINE
  8
0
 10
47.5322
 20
267.875
 11
48.0553
 21
268.07
  0
LINE
  8
0
 10
48.0553
 20
268.07
 11
48.5818
 21
268.257
  0
LINE
  8
0
 10
48.5818
 20
268.257
 11
49.1115
 21
268.434
  0
LINE
  8
0
 10
49.1115
 20
268.434
 11
49.6441
 21
268.602
  0
LINE
  8
0
 10
49.6441
 20
268.602
 11
50.1796
 21
268.76
  0
LINE
  8
0
 10
50.1796
 20
268.76
 11
50.7178
 21
268.91
  0
LINE
  8
0
 10
50.7178
 20
268.91
 11
51.2585
 21
269.049
  0
LINE
  8
0
 10
51.2585
 20
269.049
 11
51.8016
 21
269.18
  0
LINE
  8
0
 10
51.8016
 20
269.18
 11
52.3468
 21
269.301
  0
LINE
  8
0
 10
52.3468
 20
269.301
 11
52.8941
 21
269.412
  0
LINE
  8
0
 10
52.8941
 20
269.412
 11
53.4433
 21
269.514
  0
LINE
  8
0
 10
53.4433
 20
269.514
 11
53.9941
 21
269.606
  0
LINE
  8
0
 10
53.9941
 20
269.606
 11
54.5464
 21
269.689
  0
LINE
  8
0
 10
54.5464
 20
269.689
 11
55.1002
 21
269.761
  0
LINE
  8
0
 10
55.1002
 20
269.761
 11
55.6551
 21
269.825
  0
LINE
  8
0
 10
55.6551
 20
269.825
 11
56.211
 21
269.878
  0
LINE
  8
0
 10
56.211
 20
269.878
 11
56.7678
 21
269.922
  0
LINE
  8
0
 10
56.7678
 20
269.922
 11
57.3252
 21
269.956
  0
LINE
  8
0
 10
57.3252
 20
269.956
 11
57.8832
 21
269.98
  0
LINE
  8
0
 10
57.8832
 20
269.98
 11
58.4415
 21
269.995
  0
LINE
  8
0
 10
58.4415
 20
269.995
 11
59
 21
270
  0
LINE
  8
0
 10
59
 20
270
 11
59.5585
 21
269.995
  0
LINE
  8
0
 10
59.5585
 20
269.995
 11
60.1168
 21
269.98
  0
LINE
  8
0
 10
60.1168
 20
269.98
 11
60.6747
 21
269.956
  0
LINE
  8
0
 10
60.6747
 20
269.956
 11
61.2322
 21
269.922
  0
LINE
  8
0
 10
61.2322
 20
269.922
 11
61.789
 21
269.878
  0
LINE
  8
0
 10
61.789
 20
269.878
 11
62.3449
 21
269.825
  0
LINE
  8
0
 10
62.3449
 20
269.825
 11
62.8998
 21
269.761
  0
LINE
  8
0
 10
62.8998
 20
269.761
 11
63.4535
 21
269.689
  0
LINE
  8
0
 10
63.4535
 20
269.689
 11
64.0059
 21
269.606
  0
LINE
  8
0
 10
64.0059
 20
269.606
 11
64.5567
 21
269.514
  0
LINE
  8
0
 10
64.5567
 20
269.514
 11
65.1059
 21
269.412
  0
LINE
  8
0
 10
65.1059
 20
269.412
 11
65.6532
 21
269.301
  0
LINE
  8
0
 10
65.6532
 20
269.301
 11
66.1984
 21
269.18
  0
LINE
  8
0
 10
66.1984
 20
269.18
 11
66.7415
 21
269.049
  0
LINE
  8
0
 10
66.7415
 20
269.049
 11
67.2822
 21
268.91
  0
LINE
  8
0
 10
67.2822
 20
268.91
 11
67.8204
 21
268.76
  0
LINE
  8
0
 10
67.8204
 20
268.76
 11
68.3559
 21
268.602
  0
LINE
  8
0
 10
68.3559
 20
268.602
 11
68.8885
 21
268.434
  0
LINE
  8
0
 10
68.8885
 20
268.434
 11
69.4182
 21
268.257
  0
LINE
  8
0
 10
69.4182
 20
268.257
 11
69.9446
 21
268.07
  0
LINE
  8
0
 10
69.9446
 20
268.07
 11
70.4678
 21
267.875
  0
LINE
  8
0
 10
70.4678
 20
267.875
 11
70.9874
 21
267.67
  0
LINE
  8
0
 10
70.9874
 20
267.67
 11
71.5034
 21
267.456
  0
LINE
  8
0
 10
71.5034
 20
267.456
 11
72.0156
 21
267.233
  0
LINE
  8
0
 10
72.0156
 20
267.233
 11
72.5238
 21
267.002
  0
LINE
  8
0
 10
72.5238
 20
267.002
 11
73.0279
 21
266.761
  0
LINE
  8
0
 10
73.0279
 20
266.761
 11
73.5277
 21
266.512
  0
LINE
  8
0
 10
73.5277
 20
266.512
 11
74.0231
 21
266.254
  0
LINE
  8
0
 10
74.0231
 20
266.254
 11
74.5139
 21
265.988
  0
LINE
  8
0
 10
74.5139
 20
265.988
 11
75
 21
265.713
  0
LINE
  8
0
 10
75
 20
265.713
 11
75.4812
 21
265.429
  0
LINE
  8
0
 10
75.4812
 20
265.429
 11
75.9574
 21
265.138
  0
LINE
  8
0
 10
75.9574
 20
265.138
 11
76.4284
 21
264.837
  0
LINE
  8
0
 10
76.4284
 20
264.837
 11
76.8942
 21
264.529
  0
LINE
  8
0
 10
76.8942
 20
264.529
 11
77.3544
 21
264.213
  0
LINE
  8
0
 10
77.3544
 20
264.213
 11
77.8091
 21
263.889
  0
LINE
  8
0
 10
77.8091
 20
263.889
 11
78.2581
 21
263.556
  0
LINE
  8
0
 10
78.2581
 20
263.556
 11
78.7012
 21
263.216
  0
LINE
  8
0
 10
78.7012
 20
263.216
 11
79.1382
 21
262.869
  0
LINE
  8
0
 10
79.1382
 20
262.869
 11
79.5692
 21
262.513
  0
LINE
  8
0
 10
79.5692
 20
262.513
 11
79.9939
 21
262.151
  0
LINE
  8
0
 10
79.9939
 20
262.151
 11
80.4122
 21
261.781
  0
LINE
  8
0
 10
80.4122
 20
261.781
 11
80.8239
 21
261.403
  0
LINE
  8
0
 10
80.8239
 20
261.403
 11
81.2291
 21
261.019
  0
LINE
  8
0
 10
81.2291
 20
261.019
 11
81.6274
 21
260.627
  0
LINE
  8
0
 10
81.6274
 20
260.627
 11
82.0189
 21
260.229
  0
LINE
  8
0
 10
82.0189
 20
260.229
 11
82.4033
 21
259.824
  0
LINE
  8
0
 10
82.4033
 20
259.824
 11
82.7806
 21
259.412
  0
LINE
  8
0
 10
82.7806
 20
259.412
 11
83.1507
 21
258.994
  0
LINE
  8
0
 10
83.1507
 20
258.994
 11
83.5134
 21
258.569
  0
LINE
  8
0
 10
83.5134
 20
258.569
 11
83.8687
 21
258.138
  0
LINE
  8
0
 10
83.8687
 20
258.138
 11
84.2163
 21
257.701
  0
LINE
  8
0
 10
84.2163
 20
257.701
 11
84.5563
 21
257.258
  0
LINE
  8
0
 10
84.5563
 20
257.258
 11
84.8885
 21
256.809
  0
LINE
  8
0
 10
84.8885
 20
256.809
 11
85.2129
 21
256.354
  0
LINE
  8
0
 10
85.2129
 20
256.354
 11
85.5292
 21
255.894
  0
LINE
  8
0
 10
85.5292
 20
255.894
 11
85.8374
 21
255.428
  0
LINE
  8
0
 10
85.8374
 20
255.428
 11
86.1375
 21
254.957
  0
LINE
  8
0
 10
86.1375
 20
254.957
 11
86.4294
 21
254.481
  0
LINE
  8
0
 10
86.4294
 20
254.481
 11
86.7128
 21
254
  0
LINE
  8
0
 10
86.7128
 20
254
 11
86.9878
 21
253.514
  0
LINE
  8
0
 10
86.9878
 20
253.514
 11
87.2543
 21
253.023
  0
LINE
  8
0
 10
87.2543
 20
253.023
 11
87.5122
 21
252.528
  0
LINE
  8
0
 10
87.5122
 20
252.528
 11
87.7614
 21
252.028
  0
LINE
  8
0
 10
87.7614
 20
252.028
 11
88.0018
 21
251.524
  0
LINE
  8
0
 10
88.0018
 20
251.524
 11
88.2334
 21
251.016
  0
LINE
  8
0
 10
88.2334
 20
251.016
 11
88.4561
 21
250.503
  0
LINE
  8
0
 10
88.4561
 20
250.503
 11
88.6699
 21
249.987
  0
LINE
  8
0
 10
88.6699
 20
249.987
 11
88.8746
 21
249.468
  0
LINE
  8
0
 10
88.8746
 20
249.468
 11
89.0702
 21
248.945
  0
LINE
  8
0
 10
89.0702
 20
248.945
 11
89.2566
 21
248.418
  0
LINE
  8
0
 10
89.2566
 20
248.418
 11
89.4338
 21
247.889
  0
LINE
  8
0
 10
89.4338
 20
247.889
 11
89.6017
 21
247.356
  0
LINE
  8
0
 10
89.6017
 20
247.356
 11
89.7604
 21
246.82
  0
LINE
  8
0
 10
89.7604
 20
246.82
 11
89.9096
 21
246.282
  0
LINE
  8
0
 10
89.9096
 20
246.282
 11
90.0495
 21
245.741
  0
LINE
  8
0
 10
90.0495
 20
245.741
 11
90.1798
 21
245.198
  0
LINE
  8
0
 10
90.1798
 20
245.198
 11
90.3007
 21
244.653
  0
LINE
  8
0
 10
90.3007
 20
244.653
 11
90.4121
 21
244.106
  0
LINE
  8
0
 10
90.4121
 20
244.106
 11
90.5138
 21
243.557
  0
LINE
  8
0
 10
90.5138
 20
243.557
 11
90.606
 21
243.006
  0
LINE
  8
0
 10
90.606
 20
243.006
 11
90.6886
 21
242.454
  0
LINE
  8
0
 10
90.6886
 20
242.454
 11
90.7615
 21
241.9
  0
LINE
  8
0
 10
90.7615
 20
241.9
 11
90.8247
 21
241.345
  0
LINE
  8
0
 10
90.8247
 20
241.345
 11
90.8782
 21
240.789
  0
LINE
  8
0
 10
90.8782
 20
240.789
 11
90.922
 21
240.232
  0
LINE
  8
0
 10
90.922
 20
240.232
 11
90.9561
 21
239.675
  0
LINE
  8
0
 10
90.9561
 20
239.675
 11
90.9805
 21
239.117
  0
LINE
  8
0
 10
90.9805
 20
239.117
 11
90.9951
 21
238.558
  0
LINE
  8
0
 10
90.9951
 20
238.558
 11
91
 21
238
  0
LINE
  8
0
 10
91
 20
238
 11
90.9951
 21
237.442
  0
LINE
  8
0
 10
90.9951
 20
237.442
 11
90.9805
 21
236.883
  0
LINE
  8
0
 10
90.9805
 20
236.883
 11
90.9561
 21
236.325
  0
LINE
  8
0
 10
90.9561
 20
236.325
 11
90.922
 21
235.768
  0
LINE
  8
0
 10
90.922
 20
235.768
 11
90.8782
 21
235.211
  0
LINE
  8
0
 10
90.8782
 20
235.211
 11
90.8247
 21
234.655
  0
LINE
  8
0
 10
90.8247
 20
234.655
 11
90.7615
 21
234.1
  0
LINE
  8
0
 10
90.7615
 20
234.1
 11
90.6886
 21
233.546
  0
LINE
  8
0
 10
90.6886
 20
233.546
 11
90.606
 21
232.994
  0
LINE
  8
0
 10
90.606
 20
232.994
 11
90.5138
 21
232.443
  0
LINE
  8
0
 10
90.5138
 20
232.443
 11
90.4121
 21
231.894
  0
LINE
  8
0
 10
90.4121
 20
231.894
 11
90.3007
 21
231.347
  0
LINE
  8
0
 10
90.3007
 20
231.347
 11
90.1798
 21
230.802
  0
LINE
  8
0
 10
90.1798
 20
230.802
 11
90.0495
 21
230.258
  0
LINE
  8
0
 10
90.0495
 20
230.258
 11
89.9096
 21
229.718
  0
LINE
  8
0
 10
89.9096
 20
229.718
 11
89.7604
 21
229.18
  0
LINE
  8
0
 10
89.7604
 20
229.18
 11
89.6017
 21
228.644
  0
LINE
  8
0
 10
89.6017
 20
228.644
 11
89.4338
 21
228.111
  0
LINE
  8
0
 10
89.4338
 20
228.111
 11
89.2566
 21
227.582
  0
LINE
  8
0
 10
89.2566
 20
227.582
 11
89.0702
 21
227.055
  0
LINE
  8
0
 10
89.0702
 20
227.055
 11
88.8746
 21
226.532
  0
LINE
  8
0
 10
88.8746
 20
226.532
 11
88.6699
 21
226.013
  0
LINE
  8
0
 10
88.6699
 20
226.013
 11
88.4561
 21
225.497
  0
LINE
  8
0
 10
88.4561
 20
225.497
 11
88.2334
 21
224.984
  0
LINE
  8
0
 10
88.2334
 20
224.984
 11
88.0018
 21
224.476
  0
LINE
  8
0
 10
88.0018
 20
224.476
 11
87.7614
 21
223.972
  0
LINE
  8
0
 10
87.7614
 20
223.972
 11
87.5122
 21
223.472
  0
LINE
  8
0
 10
87.5122
 20
223.472
 11
87.2543
 21
222.977
  0
LINE
  8
0
 10
87.2543
 20
222.977
 11
86.9878
 21
222.486
  0
LINE
  8
0
 10
86.9878
 20
222.486
 11
86.7128
 21
222
  0
LINE
  8
0
 10
86.7128
 20
222
 11
86.4294
 21
221.519
  0
LINE
  8
0
 10
86.4294
 20
221.519
 11
86.1375
 21
221.043
  0
LINE
  8
0
 10
86.1375
 20
221.043
 11
85.8374
 21
220.572
  0
LINE
  8
0
 10
85.8374
 20
220.572
 11
85.5292
 21
220.106
  0
LINE
  8
0
 10
85.5292
 20
220.106
 11
85.2129
 21
219.646
  0
LINE
  8
0
 10
85.2129
 20
219.646
 11
84.8885
 21
219.191
  0
LINE
  8
0
 10
84.8885
 20
219.191
 11
84.5563
 21
218.742
  0
LINE
  8
0
 10
84.5563
 20
218.742
 11
84.2163
 21
218.299
  0
LINE
  8
0
 10
84.2163
 20
218.299
 11
83.8687
 21
217.862
  0
LINE
  8
0
 10
83.8687
 20
217.862
 11
83.5134
 21
217.431
  0
LINE
  8
0
 10
83.5134
 20
217.431
 11
83.1507
 21
217.006
  0
LINE
  8
0
 10
83.1507
 20
217.006
 11
82.7806
 21
216.588
  0
LINE
  8
0
 10
82.7806
 20
216.588
 11
82.4033
 21
216.176
  0
LINE
  8
0
 10
82.4033
 20
216.176
 11
82.0189
 21
215.771
  0
LINE
  8
0
 10
82.0189
 20
215.771
 11
81.6274
 21
215.373
  0
LINE
  8
0
 10
81.6274
 20
215.373
 11
81.2291
 21
214.981
  0
LINE
  8
0
 10
81.2291
 20
214.981
 11
80.8239
 21
214.597
  0
LINE
  8
0
 10
80.8239
 20
214.597
 11
80.4122
 21
214.219
  0
LINE
  8
0
 10
80.4122
 20
214.219
 11
79.9939
 21
213.849
  0
LINE
  8
0
 10
79.9939
 20
213.849
 11
79.5692
 21
213.487
  0
LINE
  8
0
 10
79.5692
 20
213.487
 11
79.1382
 21
213.131
  0
LINE
  8
0
 10
79.1382
 20
213.131
 11
78.7012
 21
212.784
  0
LINE
  8
0
 10
78.7012
 20
212.784
 11
78.2581
 21
212.444
  0
LINE
  8
0
 10
78.2581
 20
212.444
 11
77.8091
 21
212.111
  0
LINE
  8
0
 10
77.8091
 20
212.111
 11
77.3544
 21
211.787
  0
LINE
  8
0
 10
77.3544
 20
211.787
 11
76.8942
 21
211.471
  0
LINE
  8
0
 10
76.8942
 20
211.471
 11
76.4284
 21
211.163
  0
LINE
  8
0
 10
76.4284
 20
211.163
 11
75.9574
 21
210.862
  0
LINE
  8
0
 10
75.9574
 20
210.862
 11
75.4812
 21
210.571
  0
LINE
  8
0
 10
75.4812
 20
210.571
 11
75
 21
210.287
  0
LINE
  8
0
 10
75
 20
210.287
 11
74.5139
 21
210.012
  0
LINE
  8
0
 10
74.5139
 20
210.012
 11
74.0231
 21
209.746
  0
LINE
  8
0
 10
74.0231
 20
209.746
 11
73.5277
 21
209.488
  0
LINE
  8
0
 10
73.5277
 20
209.488
 11
73.0279
 21
209.239
  0
LINE
  8
0
 10
73.0279
 20
209.239
 11
72.5238
 21
208.998
  0
LINE
  8
0
 10
72.5238
 20
208.998
 11
72.0156
 21
208.767
  0
LINE
  8
0
 10
72.0156
 20
208.767
 11
71.5034
 21
208.544
  0
LINE
  8
0
 10
71.5034
 20
208.544
 11
70.9874
 21
208.33
  0
LINE
  8
0
 10
70.9874
 20
208.33
 11
70.4678
 21
208.125
  0
LINE
  8
0
 10
70.4678
 20
208.125
 11
69.9446
 21
207.93
  0
LINE
  8
0
 10
69.9446
 20
207.93
 11
69.4182
 21
207.743
  0
LINE
  8
0
 10
69.4182
 20
207.743
 11
68.8885
 21
207.566
  0
LINE
  8
0
 10
68.8885
 20
207.566
 11
68.3559
 21
207.398
  0
LINE
  8
0
 10
68.3559
 20
207.398
 11
67.8204
 21
207.24
  0
LINE
  8
0
 10
67.8204
 20
207.24
 11
67.2822
 21
207.09
  0
LINE
  8
0
 10
67.2822
 20
207.09
 11
66.7415
 21
206.951
  0
LINE
  8
0
 10
66.7415
 20
206.951
 11
66.1984
 21
206.82
  0
LINE
  8
0
 10
66.1984
 20
206.82
 11
65.6532
 21
206.699
  0
LINE
  8
0
 10
65.6532
 20
206.699
 11
65.1059
 21
206.588
  0
LINE
  8
0
 10
65.1059
 20
206.588
 11
64.5567
 21
206.486
  0
LINE
  8
0
 10
64.5567
 20
206.486
 11
64.0059
 21
206.394
  0
LINE
  8
0
 10
64.0059
 20
206.394
 11
63.4535
 21
206.311
  0
LINE
  8
0
 10
63.4535
 20
206.311
 11
62.8998
 21
206.239
  0
LINE
  8
0
 10
62.8998
 20
206.239
 11
62.3449
 21
206.175
  0
LINE
  8
0
 10
62.3449
 20
206.175
 11
61.789
 21
206.122
  0
LINE
  8
0
 10
61.789
 20
206.122
 11
61.2322
 21
206.078
  0
LINE
  8
0
 10
61.2322
 20
206.078
 11
60.6747
 21
206.044
  0
LINE
  8
0
 10
60.6747
 20
206.044
 11
60.1168
 21
206.019
  0
LINE
  8
0
 10
60.1168
 20
206.019
 11
59.5585
 21
206.005
  0
LINE
  8
0
 10
59.5585
 20
206.005
 11
59
 21
206
  0
LINE
  8
0
 10
59
 20
206
 11
58.4415
 21
206.005
  0
LINE
  8
0
 10
10.0831
 20
198.415
 11
9.9446
 21
198.413
  0
LINE
  8
0
 10
9.9446
 20
198.413
 11
9.80652
 21
198.424
  0
LINE
  8
0
 10
9.80652
 20
198.424
 11
9.66994
 21
198.447
  0
LINE
  8
0
 10
9.66994
 20
198.447
 11
9.53586
 21
198.482
  0
LINE
  8
0
 10
9.53586
 20
198.482
 11
9.4053
 21
198.528
  0
LINE
  8
0
 10
9.4053
 20
198.528
 11
9.27928
 21
198.586
  0
LINE
  8
0
 10
9.27928
 20
198.586
 11
9.15875
 21
198.654
  0
LINE
  8
0
 10
9.15875
 20
198.654
 11
9.04462
 21
198.732
  0
LINE
  8
0
 10
9.04462
 20
198.732
 11
8.93774
 21
198.82
  0
LINE
  8
0
 10
8.93774
 20
198.82
 11
8.83897
 21
198.917
  0
LINE
  8
0
 10
8.83897
 20
198.917
 11
8.74902
 21
199.023
  0
LINE
  8
0
 10
8.74902
 20
199.023
 11
8.66861
 21
199.135
  0
LINE
  8
0
 10
8.66861
 20
199.135
 11
8.59831
 21
199.255
  0
LINE
  8
0
 10
8.59831
 20
199.255
 11
8.5387
 21
199.38
  0
LINE
  8
0
 10
8.5387
 20
199.38
 11
8.49019
 21
199.509
  0
LINE
  8
0
 10
8.49019
 20
199.509
 11
8.45319
 21
199.643
  0
LINE
  8
0
 10
8.45319
 20
199.643
 11
8.42795
 21
199.779
  0
LINE
  8
0
 10
8.42795
 20
199.779
 11
8.41467
 21
199.917
  0
LINE
  8
0
 10
8.41467
 20
199.917
 11
8.41345
 21
200.055
  0
LINE
  8
0
 10
8.41345
 20
200.055
 11
8.42433
 21
200.193
  0
LINE
  8
0
 10
8.42433
 20
200.193
 11
8.44719
 21
200.33
  0
LINE
  8
0
 10
8.44719
 20
200.33
 11
8.48186
 21
200.464
  0
LINE
  8
0
 10
8.48186
 20
200.464
 11
8.52809
 21
200.595
  0
LINE
  8
0
 10
8.52809
 20
200.595
 11
8.58553
 21
200.721
  0
LINE
  8
0
 10
8.58553
 20
200.721
 11
8.65372
 21
200.841
  0
LINE
  8
0
 10
8.65372
 20
200.841
 11
8.73216
 21
200.955
  0
LINE
  8
0
 10
8.73216
 20
200.955
 11
8.82025
 21
201.062
  0
LINE
  8
0
 10
8.82025
 20
201.062
 11
8.91731
 21
201.161
  0
LINE
  8
0
 10
8.91731
 20
201.161
 11
9.02263
 21
201.251
  0
LINE
  8
0
 10
9.02263
 20
201.251
 11
9.13538
 21
201.331
  0
LINE
  8
0
 10
9.13538
 20
201.331
 11
9.2547
 21
201.402
  0
LINE
  8
0
 10
9.2547
 20
201.402
 11
9.3797
 21
201.461
  0
LINE
  8
0
 10
9.3797
 20
201.461
 11
9.50943
 21
201.51
  0
LINE
  8
0
 10
9.50943
 20
201.51
 11
9.64288
 21
201.547
  0
LINE
  8
0
 10
9.64288
 20
201.547
 11
9.77905
 21
201.572
  0
LINE
  8
0
 10
9.77905
 20
201.572
 11
9.91692
 21
201.585
  0
LINE
  8
0
 10
9.91692
 20
201.585
 11
10.0554
 21
201.587
  0
LINE
  8
0
 10
10.0554
 20
201.587
 11
10.1935
 21
201.576
  0
LINE
  8
0
 10
10.1935
 20
201.576
 11
10.33
 21
201.553
  0
LINE
  8
0
 10
10.33
 20
201.553
 11
10.4641
 21
201.518
  0
LINE
  8
0
 10
10.4641
 20
201.518
 11
10.5947
 21
201.472
  0
LINE
  8
0
 10
10.5947
 20
201.472
 11
10.7207
 21
201.414
  0
LINE
  8
0
 10
10.7207
 20
201.414
 11
10.8412
 21
201.346
  0
LINE
  8
0
 10
10.8412
 20
201.346
 11
10.9554
 21
201.268
  0
LINE
  8
0
 10
10.9554
 20
201.268
 11
11.0622
 21
201.18
  0
LINE
  8
0
 10
11.0622
 20
201.18
 11
11.161
 21
201.083
  0
LINE
  8
0
 10
11.161
 20
201.083
 11
11.251
 21
200.977
  0
LINE
  8
0
 10
11.251
 20
200.977
 11
11.3314
 21
200.865
  0
LINE
  8
0
 10
11.3314
 20
200.865
 11
11.4017
 21
200.745
  0
LINE
  8
0
 10
11.4017
 20
200.745
 11
11.4613
 21
200.62
  0
LINE
  8
0
 10
11.4613
 20
200.62
 11
11.5098
 21
200.491
  0
LINE
  8
0
 10
11.5098
 20
200.491
 11
11.5468
 21
200.357
  0
LINE
  8
0
 10
11.5468
 20
200.357
 11
11.572
 21
200.221
  0
LINE
  8
0
 10
11.572
 20
200.221
 11
11.5853
 21
200.083
  0
LINE
  8
0
 10
11.5853
 20
200.083
 11
11.5865
 21
199.945
  0
LINE
  8
0
 10
11.5865
 20
199.945
 11
11.5757
 21
199.807
  0
LINE
  8
0
 10
11.5757
 20
199.807
 11
11.5528
 21
199.67
  0
LINE
  8
0
 10
11.5528
 20
199.67
 11
11.5181
 21
199.536
  0
LINE
  8
0
 10
11.5181
 20
199.536
 11
11.4719
 21
199.405
  0
LINE
  8
0
 10
11.4719
 20
199.405
 11
11.4145
 21
199.279
  0
LINE
  8
0
 10
11.4145
 20
199.279
 11
11.3463
 21
199.159
  0
LINE
  8
0
 10
11.3463
 20
199.159
 11
11.2678
 21
199.045
  0
LINE
  8
0
 10
11.2678
 20
199.045
 11
11.1797
 21
198.938
  0
LINE
  8
0
 10
11.1797
 20
198.938
 11
11.0827
 21
198.839
  0
LINE
  8
0
 10
11.0827
 20
198.839
 11
10.9774
 21
198.749
  0
LINE
  8
0
 10
10.9774
 20
198.749
 11
10.8646
 21
198.669
  0
LINE
  8
0
 10
10.8646
 20
198.669
 11
10.7453
 21
198.598
  0
LINE
  8
0
 10
10.7453
 20
198.598
 11
10.6203
 21
198.539
  0
LINE
  8
0
 10
10.6203
 20
198.539
 11
10.4906
 21
198.49
  0
LINE
  8
0
 10
10.4906
 20
198.49
 11
10.3571
 21
198.453
  0
LINE
  8
0
 10
10.3571
 20
198.453
 11
10.2209
 21
198.428
  0
LINE
  8
0
 10
10.2209
 20
198.428
 11
10.0831
 21
198.415
  0
LINE
  8
0
 10
79.1274
 20
74.0076
 11
78.255
 21
74.0305
  0
LINE
  8
0
 10
78.255
 20
74.0305
 11
77.3832
 21
74.0685
  0
LINE
  8
0
 10
77.3832
 20
74.0685
 11
76.5122
 21
74.1218
  0
LINE
  8
0
 10
76.5122
 20
74.1218
 11
75.6422
 21
74.1903
  0
LINE
  8
0
 10
75.6422
 20
74.1903
 11
74.7736
 21
74.2739
  0
LINE
  8
0
 10
74.7736
 20
74.2739
 11
73.9065
 21
74.3727
  0
LINE
  8
0
 10
73.9065
 20
74.3727
 11
73.0413
 21
74.4866
  0
LINE
  8
0
 10
73.0413
 20
74.4866
 11
72.1783
 21
74.6156
  0
LINE
  8
0
 10
72.1783
 20
74.6156
 11
71.3176
 21
74.7596
  0
LINE
  8
0
 10
71.3176
 20
74.7596
 11
70.4595
 21
74.9186
  0
LINE
  8
0
 10
70.4595
 20
74.9186
 11
69.6044
 21
75.0926
  0
LINE
  8
0
 10
69.6044
 20
75.0926
 11
68.7524
 21
75.2815
  0
LINE
  8
0
 10
68.7524
 20
75.2815
 11
67.9039
 21
75.4852
  0
LINE
  8
0
 10
67.9039
 20
75.4852
 11
67.059
 21
75.7037
  0
LINE
  8
0
 10
67.059
 20
75.7037
 11
66.2181
 21
75.9369
  0
LINE
  8
0
 10
66.2181
 20
75.9369
 11
65.3814
 21
76.1848
  0
LINE
  8
0
 10
65.3814
 20
76.1848
 11
64.5491
 21
76.4472
  0
LINE
  8
0
 10
64.5491
 20
76.4472
 11
63.7216
 21
76.7241
  0
LINE
  8
0
 10
63.7216
 20
76.7241
 11
62.899
 21
77.0154
  0
LINE
  8
0
 10
62.899
 20
77.0154
 11
62.0816
 21
77.321
  0
LINE
  8
0
 10
62.0816
 20
77.321
 11
61.2697
 21
77.6408
  0
LINE
  8
0
 10
61.2697
 20
77.6408
 11
60.4634
 21
77.9747
  0
LINE
  8
0
 10
60.4634
 20
77.9747
 11
59.6632
 21
78.3227
  0
LINE
  8
0
 10
59.6632
 20
78.3227
 11
58.8691
 21
78.6846
  0
LINE
  8
0
 10
58.8691
 20
78.6846
 11
58.0814
 21
79.0603
  0
LINE
  8
0
 10
58.0814
 20
79.0603
 11
57.3005
 21
79.4497
  0
LINE
  8
0
 10
57.3005
 20
79.4497
 11
56.5264
 21
79.8526
  0
LINE
  8
0
 10
56.5264
 20
79.8526
 11
55.7595
 21
80.269
  0
LINE
  8
0
 10
55.7595
 20
80.269
 11
55
 21
80.6987
  0
LINE
  8
0
 10
55
 20
80.6987
 11
54.2481
 21
81.1416
  0
LINE
  8
0
 10
54.2481
 20
81.1416
 11
53.504
 21
81.5976
  0
LINE
  8
0
 10
53.504
 20
81.5976
 11
52.768
 21
82.0665
  0
LINE
  8
0
 10
52.768
 20
82.0665
 11
52.0403
 21
82.5481
  0
LINE
  8
0
 10
52.0403
 20
82.5481
 11
51.3212
 21
83.0424
  0
LINE
  8
0
 10
51.3212
 20
83.0424
 11
50.6107
 21
83.5491
  0
LINE
  8
0
 10
50.6107
 20
83.5491
 11
49.9092
 21
84.0682
  0
LINE
  8
0
 10
49.9092
 20
84.0682
 11
49.2169
 21
84.5995
  0
LINE
  8
0
 10
49.2169
 20
84.5995
 11
48.534
 21
85.1427
  0
LINE
  8
0
 10
48.534
 20
85.1427
 11
47.8606
 21
85.6978
  0
LINE
  8
0
 10
47.8606
 20
85.6978
 11
47.197
 21
86.2645
  0
LINE
  8
0
 10
47.197
 20
86.2645
 11
46.5435
 21
86.8428
  0
LINE
  8
0
 10
46.5435
 20
86.8428
 11
45.9001
 21
87.4323
  0
LINE
  8
0
 10
45.9001
 20
87.4323
 11
45.2671
 21
88.033
  0
LINE
  8
0
 10
45.2671
 20
88.033
 11
44.6447
 21
88.6447
  0
LINE
  8
0
 10
44.6447
 20
88.6447
 11
44.033
 21
89.2671
  0
LINE
  8
0
 10
44.033
 20
89.2671
 11
43.4323
 21
89.9001
  0
LINE
  8
0
 10
43.4323
 20
89.9001
 11
42.8428
 21
90.5435
  0
LINE
  8
0
 10
42.8428
 20
90.5435
 11
42.2645
 21
91.197
  0
LINE
  8
0
 10
42.2645
 20
91.197
 11
41.6978
 21
91.8606
  0
LINE
  8
0
 10
41.6978
 20
91.8606
 11
41.1427
 21
92.534
  0
LINE
  8
0
 10
41.1427
 20
92.534
 11
40.5995
 21
93.2169
  0
LINE
  8
0
 10
40.5995
 20
93.2169
 11
40.0682
 21
93.9092
  0
LINE
  8
0
 10
40.0682
 20
93.9092
 11
39.5491
 21
94.6107
  0
LINE
  8
0
 10
39.5491
 20
94.6107
 11
39.0424
 21
95.3212
  0
LINE
  8
0
 10
39.0424
 20
95.3212
 11
38.5481
 21
96.0403
  0
LINE
  8
0
 10
38.5481
 20
96.0403
 11
38.0665
 21
96.768
  0
LINE
  8
0
 10
38.0665
 20
96.768
 11
37.5976
 21
97.504
  0
LINE
  8
0
 10
37.5976
 20
97.504
 11
37.1416
 21
98.2481
  0
LINE
  8
0
 10
37.1416
 20
98.2481
 11
36.6987
 21
99
  0
LINE
  8
0
 10
36.6987
 20
99
 11
36.269
 21
99.7595
  0
LINE
  8
0
 10
36.269
 20
99.7595
 11
35.8526
 21
100.526
  0
LINE
  8
0
 10
35.8526
 20
100.526
 11
35.4497
 21
101.3
  0
LINE
  8
0
 10
35.4497
 20
101.3
 11
35.0603
 21
102.081
  0
LINE
  8
0
 10
35.0603
 20
102.081
 11
34.6846
 21
102.869
  0
LINE
  8
0
 10
34.6846
 20
102.869
 11
34.3227
 21
103.663
  0
LINE
  8
0
 10
34.3227
 20
103.663
 11
33.9747
 21
104.463
  0
LINE
  8
0
 10
33.9747
 20
104.463
 11
33.6408
 21
105.27
  0
LINE
  8
0
 10
33.6408
 20
105.27
 11
33.321
 21
106.082
  0
LINE
  8
0
 10
33.321
 20
106.082
 11
33.0154
 21
106.899
  0
LINE
  8
0
 10
33.0154
 20
106.899
 11
32.7241
 21
107.722
  0
LINE
  8
0
 10
32.7241
 20
107.722
 11
32.4472
 21
108.549
  0
LINE
  8
0
 10
32.4472
 20
108.549
 11
32.1848
 21
109.381
  0
LINE
  8
0
 10
32.1848
 20
109.381
 11
31.9369
 21
110.218
  0
LINE
  8
0
 10
31.9369
 20
110.218
 11
31.7037
 21
111.059
  0
LINE
  8
0
 10
31.7037
 20
111.059
 11
31.4852
 21
111.904
  0
LINE
  8
0
 10
31.4852
 20
111.904
 11
31.2815
 21
112.752
  0
LINE
  8
0
 10
31.2815
 20
112.752
 11
31.0926
 21
113.604
  0
LINE
  8
0
 10
31.0926
 20
113.604
 11
30.9186
 21
114.46
  0
LINE
  8
0
 10
30.9186
 20
114.46
 11
30.7596
 21
115.318
  0
LINE
  8
0
 10
30.7596
 20
115.318
 11
30.6156
 21
116.178
  0
LINE
  8
0
 10
30.6156
 20
116.178
 11
30.4866
 21
117.041
  0
LINE
  8
0
 10
30.4866
 20
117.041
 11
30.3727
 21
117.907
  0
LINE
  8
0
 10
30.3727
 20
117.907
 11
30.2739
 21
118.774
  0
LINE
  8
0
 10
30.2739
 20
118.774
 11
30.1903
 21
119.642
  0
LINE
  8
0
 10
30.1903
 20
119.642
 11
30.1218
 21
120.512
  0
LINE
  8
0
 10
30.1218
 20
120.512
 11
30.0685
 21
121.383
  0
LINE
  8
0
 10
30.0685
 20
121.383
 11
30.0305
 21
122.255
  0
LINE
  8
0
 10
30.0305
 20
122.255
 11
30.0076
 21
123.127
  0
LINE
  8
0
 10
30.0076
 20
123.127
 11
30
 21
124
  0
LINE
  8
0
 10
30
 20
124
 11
30.0076
 21
124.873
  0
LINE
  8
0
 10
30.0076
 20
124.873
 11
30.0305
 21
125.745
  0
LINE
  8
0
 10
30.0305
 20
125.745
 11
30.0685
 21
126.617
  0
LINE
  8
0
 10
30.0685
 20
126.617
 11
30.1218
 21
127.488
  0
LINE
  8
0
 10
30.1218
 20
127.488
 11
30.1903
 21
128.358
  0
LINE
  8
0
 10
30.1903
 20
128.358
 11
30.2739
 21
129.226
  0
LINE
  8
0
 10
30.2739
 20
129.226
 11
30.3727
 21
130.093
  0
LINE
  8
0
 10
30.3727
 20
130.093
 11
30.4866
 21
130.959
  0
LINE
  8
0
 10
30.4866
 20
130.959
 11
30.6156
 21
131.822
  0
LINE
  8
0
 10
30.6156
 20
131.822
 11
30.7596
 21
132.682
  0
LINE
  8
0
 10
30.7596
 20
132.682
 11
30.9186
 21
133.54
  0
LINE
  8
0
 10
30.9186
 20
133.54
 11
31.0926
 21
134.396
  0
LINE
  8
0
 10
31.0926
 20
134.396
 11
31.2815
 21
135.248
  0
LINE
  8
0
 10
31.2815
 20
135.248
 11
31.4852
 21
136.096
  0
LINE
  8
0
 10
31.4852
 20
136.096
 11
31.7037
 21
136.941
  0
LINE
  8
0
 10
31.7037
 20
136.941
 11
31.9369
 21
137.782
  0
LINE
  8
0
 10
31.9369
 20
137.782
 11
32.1848
 21
138.619
  0
LINE
  8
0
 10
32.1848
 20
138.619
 11
32.4472
 21
139.451
  0
LINE
  8
0
 10
32.4472
 20
139.451
 11
32.7241
 21
140.278
  0
LINE
  8
0
 10
32.7241
 20
140.278
 11
33.0154
 21
141.101
  0
LINE
  8
0
 10
33.0154
 20
141.101
 11
33.321
 21
141.918
  0
LINE
  8
0
 10
33.321
 20
141.918
 11
33.6408
 21
142.73
  0
LINE
  8
0
 10
33.6408
 20
142.73
 11
33.9747
 21
143.537
  0
LINE
  8
0
 10
33.9747
 20
143.537
 11
34.3227
 21
144.337
  0
LINE
  8
0
 10
34.3227
 20
144.337
 11
34.6846
 21
145.131
  0
LINE
  8
0
 10
34.6846
 20
145.131
 11
35.0603
 21
145.919
  0
LINE
  8
0
 10
35.0603
 20
145.919
 11
35.4497
 21
146.7
  0
LINE
  8
0
 10
35.4497
 20
146.7
 11
35.8526
 21
147.474
  0
LINE
  8
0
 10
35.8526
 20
147.474
 11
36.269
 21
148.24
  0
LINE
  8
0
 10
36.269
 20
148.24
 11
36.6987
 21
149
  0
LINE
  8
0
 10
36.6987
 20
149
 11
37.1416
 21
149.752
  0
LINE
  8
0
 10
37.1416
 20
149.752
 11
37.5976
 21
150.496
  0
LINE
  8
0
 10
37.5976
 20
150.496
 11
38.0665
 21
151.232
  0
LINE
  8
0
 10
38.0665
 20
151.232
 11
38.5481
 21
151.96
  0
LINE
  8
0
 10
38.5481
 20
151.96
 11
39.0424
 21
152.679
  0
LINE
  8
0
 10
39.0424
 20
152.679
 11
39.5491
 21
153.389
  0
LINE
  8
0
 10
39.5491
 20
153.389
 11
40.0682
 21
154.091
  0
LINE
  8
0
 10
40.0682
 20
154.091
 11
40.5995
 21
154.783
  0
LINE
  8
0
 10
40.5995
 20
154.783
 11
41.1427
 21
155.466
  0
LINE
  8
0
 10
41.1427
 20
155.466
 11
41.6978
 21
156.139
  0
LINE
  8
0
 10
41.6978
 20
156.139
 11
42.2645
 21
156.803
  0
LINE
  8
0
 10
42.2645
 20
156.803
 11
42.8428
 21
157.457
  0
LINE
  8
0
 10
42.8428
 20
157.457
 11
43.4323
 21
158.1
  0
LINE
  8
0
 10
43.4323
 20
158.1
 11
44.033
 21
158.733
  0
LINE
  8
0
 10
44.033
 20
158.733
 11
44.6447
 21
159.355
  0
LINE
  8
0
 10
44.6447
 20
159.355
 11
45.2671
 21
159.967
  0
LINE
  8
0
 10
45.2671
 20
159.967
 11
45.9001
 21
160.568
  0
LINE
  8
0
 10
45.9001
 20
160.568
 11
46.5435
 21
161.157
  0
LINE
  8
0
 10
46.5435
 20
161.157
 11
47.197
 21
161.735
  0
LINE
  8
0
 10
47.197
 20
161.735
 11
47.8606
 21
162.302
  0
LINE
  8
0
 10
47.8606
 20
162.302
 11
48.534
 21
162.857
  0
LINE
  8
0
 10
48.534
 20
162.857
 11
49.2169
 21
163.401
  0
LINE
  8
0
 10
49.2169
 20
163.401
 11
49.9092
 21
163.932
  0
LINE
  8
0
 10
49.9092
 20
163.932
 11
50.6107
 21
164.451
  0
LINE
  8
0
 10
50.6107
 20
164.451
 11
51.3212
 21
164.958
  0
LINE
  8
0
 10
51.3212
 20
164.958
 11
52.0403
 21
165.452
  0
LINE
  8
0
 10
52.0403
 20
165.452
 11
52.768
 21
165.934
  0
LINE
  8
0
 10
52.768
 20
165.934
 11
53.504
 21
166.402
  0
LINE
  8
0
 10
53.504
 20
166.402
 11
54.2481
 21
166.858
  0
LINE
  8
0
 10
54.2481
 20
166.858
 11
55
 21
167.301
  0
LINE
  8
0
 10
55
 20
167.301
 11
55.7595
 21
167.731
  0
LINE
  8
0
 10
55.7595
 20
167.731
 11
56.5264
 21
168.147
  0
LINE
  8
0
 10
56.5264
 20
168.147
 11
57.3005
 21
168.55
  0
LINE
  8
0
 10
57.3005
 20
168.55
 11
58.0814
 21
168.94
  0
LINE
  8
0
 10
58.0814
 20
168.94
 11
58.8691
 21
169.315
  0
LINE
  8
0
 10
58.8691
 20
169.315
 11
59.6632
 21
169.677
  0
LINE
  8
0
 10
59.6632
 20
169.677
 11
60.4634
 21
170.025
  0
LINE
  8
0
 10
60.4634
 20
170.025
 11
61.2697
 21
170.359
  0
LINE
  8
0
 10
61.2697
 20
170.359
 11
62.0816
 21
170.679
  0
LINE
  8
0
 10
62.0816
 20
170.679
 11
62.899
 21
170.985
  0
LINE
  8
0
 10
62.899
 20
170.985
 11
63.7216
 21
171.276
  0
LINE
  8
0
 10
63.7216
 20
171.276
 11
64.5491
 21
171.553
  0
LINE
  8
0
 10
64.5491
 20
171.553
 11
65.3814
 21
171.815
  0
LINE
  8
0
 10
65.3814
 20
171.815
 11
66.2181
 21
172.063
  0
LINE
  8
0
 10
66.2181
 20
172.063
 11
67.059
 21
172.296
  0
LINE
  8
0
 10
67.059
 20
172.296
 11
67.9039
 21
172.515
  0
LINE
  8
0
 10
67.9039
 20
172.515
 11
68.7524
 21
172.718
  0
LINE
  8
0
 10
68.7524
 20
172.718
 11
69.6044
 21
172.907
  0
LINE
  8
0
 10
69.6044
 20
172.907
 11
70.4595
 21
173.081
  0
LINE
  8
0
 10
70.4595
 20
173.081
 11
71.3176
 21
173.24
  0
LINE
  8
0
 10
71.3176
 20
173.24
 11
72.1783
 21
173.384
  0
LINE
  8
0
 10
72.1783
 20
173.384
 11
73.0413
 21
173.513
  0
LINE
  8
0
 10
73.0413
 20
173.513
 11
73.9065
 21
173.627
  0
LINE
  8
0
 10
73.9065
 20
173.627
 11
74.7736
 21
173.726
  0
LINE
  8
0
 10
74.7736
 20
173.726
 11
75.6422
 21
173.81
  0
LINE
  8
0
 10
75.6422
 20
173.81
 11
76.5122
 21
173.878
  0
LINE
  8
0
 10
76.5122
 20
173.878
 11
77.3832
 21
173.931
  0
LINE
  8
0
 10
77.3832
 20
173.931
 11
78.255
 21
173.97
  0
LINE
  8
0
 10
78.255
 20
173.97
 11
79.1274
 21
173.992
  0
LINE
  8
0
 10
79.1274
 20
173.992
 11
80
 21
174
  0
LINE
  8
0
 10
80
 20
174
 11
80.8726
 21
173.992
  0
LINE
  8
0
 10
80.8726
 20
173.992
 11
81.745
 21
173.97
  0
LINE
  8
0
 10
81.745
 20
173.97
 11
82.6168
 21
173.931
  0
LINE
  8
0
 10
82.6168
 20
173.931
 11
83.4878
 21
173.878
  0
LINE
  8
0
 10
83.4878
 20
173.878
 11
84.3578
 21
173.81
  0
LINE
  8
0
 10
84.3578
 20
173.81
 11
85.2264
 21
173.726
  0
LINE
  8
0
 10
85.2264
 20
173.726
 11
86.0935
 21
173.627
  0
LINE
  8
0
 10
86.0935
 20
173.627
 11
86.9586
 21
173.513
  0
LINE
  8
0
 10
86.9586
 20
173.513
 11
87.8217
 21
173.384
  0
LINE
  8
0
 10
87.8217
 20
173.384
 11
88.6824
 21
173.24
  0
LINE
  8
0
 10
88.6824
 20
173.24
 11
89.5404
 21
173.081
  0
LINE
  8
0
 10
89.5404
 20
173.081
 11
90.3956
 21
172.907
  0
LINE
  8
0
 10
90.3956
 20
172.907
 11
91.2475
 21
172.718
  0
LINE
  8
0
 10
91.2475
 20
172.718
 11
92.0961
 21
172.515
  0
LINE
  8
0
 10
92.0961
 20
172.515
 11
92.9409
 21
172.296
  0
LINE
  8
0
 10
92.9409
 20
172.296
 11
93.7819
 21
172.063
  0
LINE
  8
0
 10
93.7819
 20
172.063
 11
94.6186
 21
171.815
  0
LINE
  8
0
 10
94.6186
 20
171.815
 11
95.4508
 21
171.553
  0
LINE
  8
0
 10
95.4508
 20
171.553
 11
96.2784
 21
171.276
  0
LINE
  8
0
 10
96.2784
 20
171.276
 11
97.101
 21
170.985
  0
LINE
  8
0
 10
97.101
 20
170.985
 11
97.9184
 21
170.679
  0
LINE
  8
0
 10
97.9184
 20
170.679
 11
98.7303
 21
170.359
  0
LINE
  8
0
 10
98.7303
 20
170.359
 11
99.5365
 21
170.025
  0
LINE
  8
0
 10
99.5365
 20
170.025
 11
100.337
 21
169.677
  0
LINE
  8
0
 10
100.337
 20
169.677
 11
101.131
 21
169.315
  0
LINE
  8
0
 10
101.131
 20
169.315
 11
101.919
 21
168.94
  0
LINE
  8
0
 10
101.919
 20
168.94
 11
102.7
 21
168.55
  0
LINE
  8
0
 10
102.7
 20
168.55
 11
103.474
 21
168.147
  0
LINE
  8
0
 10
103.474
 20
168.147
 11
104.24
 21
167.731
  0
LINE
  8
0
 10
104.24
 20
167.731
 11
105
 21
167.301
  0
LINE
  8
0
 10
105
 20
167.301
 11
105.752
 21
166.858
  0
LINE
  8
0
 10
105.752
 20
166.858
 11
106.496
 21
166.402
  0
LINE
  8
0
 10
106.496
 20
166.402
 11
107.232
 21
165.934
  0
LINE
  8
0
 10
107.232
 20
165.934
 11
107.96
 21
165.452
  0
LINE
  8
0
 10
107.96
 20
165.452
 11
108.679
 21
164.958
  0
LINE
  8
0
 10
108.679
 20
164.958
 11
109.389
 21
164.451
  0
LINE
  8
0
 10
109.389
 20
164.451
 11
110.091
 21
163.932
  0
LINE
  8
0
 10
110.091
 20
163.932
 11
110.783
 21
163.401
  0
LINE
  8
0
 10
110.783
 20
163.401
 11
111.466
 21
162.857
  0
LINE
  8
0
 10
111.466
 20
162.857
 11
112.139
 21
162.302
  0
LINE
  8
0
 10
112.139
 20
162.302
 11
112.803
 21
161.735
  0
LINE
  8
0
 10
112.803
 20
161.735
 11
113.457
 21
161.157
  0
LINE
  8
0
 10
113.457
 20
161.157
 11
114.1
 21
160.568
  0
LINE
  8
0
 10
114.1
 20
160.568
 11
114.733
 21
159.967
  0
LINE
  8
0
 10
114.733
 20
159.967
 11
115.355
 21
159.355
  0
LINE
  8
0
 10
115.355
 20
159.355
 11
115.967
 21
158.733
  0
LINE
  8
0
 10
115.967
 20
158.733
 11
116.568
 21
158.1
  0
LINE
  8
0
 10
116.568
 20
158.1
 11
117.157
 21
157.457
  0
LINE
  8
0
 10
117.157
 20
157.457
 11
117.735
 21
156.803
  0
LINE
  8
0
 10
117.735
 20
156.803
 11
118.302
 21
156.139
  0
LINE
  8
0
 10
118.302
 20
156.139
 11
118.857
 21
155.466
  0
LINE
  8
0
 10
118.857
 20
155.466
 11
119.401
 21
154.783
  0
LINE
  8
0
 10
119.401
 20
154.783
 11
119.932
 21
154.091
  0
LINE
  8
0
 10
119.932
 20
154.091
 11
120.451
 21
153.389
  0
LINE
  8
0
 10
120.451
 20
153.389
 11
120.958
 21
152.679
  0
LINE
  8
0
 10
120.958
 20
152.679
 11
121.452
 21
151.96
  0
LINE
  8
0
 10
121.452
 20
151.96
 11
121.934
 21
151.232
  0
LINE
  8
0
 10
121.934
 20
151.232
 11
122.402
 21
150.496
  0
LINE
  8
0
 10
122.402
 20
150.496
 11
122.858
 21
149.752
  0
LINE
  8
0
 10
122.858
 20
149.752
 11
123.301
 21
149
  0
LINE
  8
0
 10
123.301
 20
149
 11
123.731
 21
148.24
  0
LINE
  8
0
 10
123.731
 20
148.24
 11
124.147
 21
147.474
  0
LINE
  8
0
 10
124.147
 20
147.474
 11
124.55
 21
146.7
  0
LINE
  8
0
 10
124.55
 20
146.7
 11
124.94
 21
145.919
  0
LINE
  8
0
 10
124.94
 20
145.919
 11
125.315
 21
145.131
  0
LINE
  8
0
 10
125.315
 20
145.131
 11
125.677
 21
144.337
  0
LINE
  8
0
 10
125.677
 20
144.337
 11
126.025
 21
143.537
  0
LINE
  8
0
 10
126.025
 20
143.537
 11
126.359
 21
142.73
  0
LINE
  8
0
 10
126.359
 20
142.73
 11
126.679
 21
141.918
  0
LINE
  8
0
 10
126.679
 20
141.918
 11
126.985
 21
141.101
  0
LINE
  8
0
 10
126.985
 20
141.101
 11
127.276
 21
140.278
  0
LINE
  8
0
 10
127.276
 20
140.278
 11
127.553
 21
139.451
  0
LINE
  8
0
 10
127.553
 20
139.451
 11
127.815
 21
138.619
  0
LINE
  8
0
 10
127.815
 20
138.619
 11
128.063
 21
137.782
  0
LINE
  8
0
 10
128.063
 20
137.782
 11
128.296
 21
136.941
  0
LINE
  8
0
 10
128.296
 20
136.941
 11
128.515
 21
136.096
  0
LINE
  8
0
 10
128.515
 20
136.096
 11
128.718
 21
135.248
  0
LINE
  8
0
 10
128.718
 20
135.248
 11
128.907
 21
134.396
  0
LINE
  8
0
 10
128.907
 20
134.396
 11
129.081
 21
133.54
  0
LINE
  8
0
 10
129.081
 20
133.54
 11
129.24
 21
132.682
  0
LINE
  8
0
 10
129.24
 20
132.682
 11
129.384
 21
131.822
  0
LINE
  8
0
 10
129.384
 20
131.822
 11
129.513
 21
130.959
  0
LINE
  8
0
 10
129.513
 20
130.959
 11
129.627
 21
130.093
  0
LINE
  8
0
 10
129.627
 20
130.093
 11
129.726
 21
129.226
  0
LINE
  8
0
 10
129.726
 20
129.226
 11
129.81
 21
128.358
  0
LINE
  8
0
 10
129.81
 20
128.358
 11
129.878
 21
127.488
  0
LINE
  8
0
 10
129.878
 20
127.488
 11
129.931
 21
126.617
  0
LINE
  8
0
 10
129.931
 20
126.617
 11
129.97
 21
125.745
  0
LINE
  8
0
 10
129.97
 20
125.745
 11
129.992
 21
124.873
  0
LINE
  8
0
 10
129.992
 20
124.873
 11
130
 21
124
  0
LINE
  8
0
 10
130
 20
124
 11
129.992
 21
123.127
  0
LINE
  8
0
 10
129.992
 20
123.127
 11
129.97
 21
122.255
  0
LINE
  8
0
 10
129.97
 20
122.255
 11
129.931
 21
121.383
  0
LINE
  8
0
 10
129.931
 20
121.383
 11
129.878
 21
120.512
  0
LINE
  8
0
 10
129.878
 20
120.512
 11
129.81
 21
119.642
  0
LINE
  8
0
 10
129.81
 20
119.642
 11
129.726
 21
118.774
  0
LINE
  8
0
 10
129.726
 20
118.774
 11
129.627
 21
117.907
  0
LINE
  8
0
 10
129.627
 20
117.907
 11
129.513
 21
117.041
  0
LINE
  8
0
 10
129.513
 20
117.041
 11
129.384
 21
116.178
  0
LINE
  8
0
 10
129.384
 20
116.178
 11
129.24
 21
115.318
  0
LINE
  8
0
 10
129.24
 20
115.318
 11
129.081
 21
114.46
  0
LINE
  8
0
 10
129.081
 20
114.46
 11
128.907
 21
113.604
  0
LINE
  8
0
 10
128.907
 20
113.604
 11
128.718
 21
112.752
  0
LINE
  8
0
 10
128.718
 20
112.752
 11
128.515
 21
111.904
  0
LINE
  8
0
 10
128.515
 20
111.904
 11
128.296
 21
111.059
  0
LINE
  8
0
 10
128.296
 20
111.059
 11
128.063
 21
110.218
  0
LINE
  8
0
 10
128.063
 20
110.218
 11
127.815
 21
109.381
  0
LINE
  8
0
 10
127.815
 20
109.381
 11
127.553
 21
108.549
  0
LINE
  8
0
 10
127.553
 20
108.549
 11
127.276
 21
107.722
  0
LINE
  8
0
 10
127.276
 20
107.722
 11
126.985
 21
106.899
  0
LINE
  8
0
 10
126.985
 20
106.899
 11
126.679
 21
106.082
  0
LINE
  8
0
 10
126.679
 20
106.082
 11
126.359
 21
105.27
  0
LINE
  8
0
 10
126.359
 20
105.27
 11
126.025
 21
104.463
  0
LINE
  8
0
 10
126.025
 20
104.463
 11
125.677
 21
103.663
  0
LINE
  8
0
 10
125.677
 20
103.663
 11
125.315
 21
102.869
  0
LINE
  8
0
 10
125.315
 20
102.869
 11
124.94
 21
102.081
  0
LINE
  8
0
 10
124.94
 20
102.081
 11
124.55
 21
101.3
  0
LINE
  8
0
 10
124.55
 20
101.3
 11
124.147
 21
100.526
  0
LINE
  8
0
 10
124.147
 20
100.526
 11
123.731
 21
99.7595
  0
LINE
  8
0
 10
123.731
 20
99.7595
 11
123.301
 21
99
  0
LINE
  8
0
 10
123.301
 20
99
 11
122.858
 21
98.2481
  0
LINE
  8
0
 10
122.858
 20
98.2481
 11
122.402
 21
97.504
  0
LINE
  8
0
 10
122.402
 20
97.504
 11
121.934
 21
96.768
  0
LINE
  8
0
 10
121.934
 20
96.768
 11
121.452
 21
96.0403
  0
LINE
  8
0
 10
121.452
 20
96.0403
 11
120.958
 21
95.3212
  0
LINE
  8
0
 10
120.958
 20
95.3212
 11
120.451
 21
94.6107
  0
LINE
  8
0
 10
120.451
 20
94.6107
 11
119.932
 21
93.9092
  0
LINE
  8
0
 10
119.932
 20
93.9092
 11
119.401
 21
93.2169
  0
LINE
  8
0
 10
119.401
 20
93.2169
 11
118.857
 21
92.534
  0
LINE
  8
0
 10
118.857
 20
92.534
 11
118.302
 21
91.8606
  0
LINE
  8
0
 10
118.302
 20
91.8606
 11
117.735
 21
91.197
  0
LINE
  8
0
 10
117.735
 20
91.197
 11
117.157
 21
90.5435
  0
LINE
  8
0
 10
117.157
 20
90.5435
 11
116.568
 21
89.9001
  0
LINE
  8
0
 10
116.568
 20
89.9001
 11
115.967
 21
89.2671
  0
LINE
  8
0
 10
115.967
 20
89.2671
 11
115.355
 21
88.6447
  0
LINE
  8
0
 10
115.355
 20
88.6447
 11
114.733
 21
88.033
  0
LINE
  8
0
 10
114.733
 20
88.033
 11
114.1
 21
87.4323
  0
LINE
  8
0
 10
114.1
 20
87.4323
 11
113.457
 21
86.8428
  0
LINE
  8
0
 10
113.457
 20
86.8428
 11
112.803
 21
86.2645
  0
LINE
  8
0
 10
112.803
 20
86.2645
 11
112.139
 21
85.6978
  0
LINE
  8
0
 10
112.139
 20
85.6978
 11
111.466
 21
85.1427
  0
LINE
  8
0
 10
111.466
 20
85.1427
 11
110.783
 21
84.5995
  0
LINE
  8
0
 10
110.783
 20
84.5995
 11
110.091
 21
84.0682
  0
LINE
  8
0
 10
110.091
 20
84.0682
 11
109.389
 21
83.5491
  0
LINE
  8
0
 10
109.389
 20
83.5491
 11
108.679
 21
83.0424
  0
LINE
  8
0
 10
108.679
 20
83.0424
 11
107.96
 21
82.5481
  0
LINE
  8
0
 10
107.96
 20
82.5481
 11
107.232
 21
82.0665
  0
LINE
  8
0
 10
107.232
 20
82.0665
 11
106.496
 21
81.5976
  0
LINE
  8
0
 10
106.496
 20
81.5976
 11
105.752
 21
81.1416
  0
LINE
  8
0
 10
105.752
 20
81.1416
 11
105
 21
80.6987
  0
LINE
  8
0
 10
105
 20
80.6987
 11
104.24
 21
80.269
  0
LINE
  8
0
 10
104.24
 20
80.269
 11
103.474
 21
79.8526
  0
LINE
  8
0
 10
103.474
 20
79.8526
 11
102.7
 21
79.4497
  0
LINE
  8
0
 10
102.7
 20
79.4497
 11
101.919
 21
79.0603
  0
LINE
  8
0
 10
101.919
 20
79.0603
 11
101.131
 21
78.6846
  0
LINE
  8
0
 10
101.131
 20
78.6846
 11
100.337
 21
78.3227
  0
LINE
  8
0
 10
100.337
 20
78.3227
 11
99.5365
 21
77.9747
  0
LINE
  8
0
 10
99.5365
 20
77.9747
 11
98.7303
 21
77.6408
  0
LINE
  8
0
 10
98.7303
 20
77.6408
 11
97.9184
 21
77.321
  0
LINE
  8
0
 10
97.9184
 20
77.321
 11
97.101
 21
77.0154
  0
LINE
  8
0
 10
97.101
 20
77.0154
 11
96.2784
 21
76.7241
  0
LINE
  8
0
 10
96.2784
 20
76.7241
 11
95.4508
 21
76.4472
  0
LINE
  8
0
 10
95.4508
 20
76.4472
 11
94.6186
 21
76.1848
  0
LINE
  8
0
 10
94.6186
 20
76.1848
 11
93.7819
 21
75.9369
  0
LINE
  8
0
 10
93.7819
 20
75.9369
 11
92.9409
 21
75.7037
  0
LINE
  8
0
 10
92.9409
 20
75.7037
 11
92.0961
 21
75.4852
  0
LINE
  8
0
 10
92.0961
 20
75.4852
 11
91.2475
 21
75.2815
  0
LINE
  8
0
 10
91.2475
 20
75.2815
 11
90.3956
 21
75.0926
  0
LINE
  8
0
 10
90.3956
 20
75.0926
 11
89.5404
 21
74.9186
  0
LINE
  8
0
 10
89.5404
 20
74.9186
 11
88.6824
 21
74.7596
  0
LINE
  8
0
 10
88.6824
 20
74.7596
 11
87.8217
 21
74.6156
  0
LINE
  8
0
 10
87.8217
 20
74.6156
 11
86.9586
 21
74.4866
  0
LINE
  8
0
 10
86.9586
 20
74.4866
 11
86.0935
 21
74.3727
  0
LINE
  8
0
 10
86.0935
 20
74.3727
 11
85.2264
 21
74.2739
  0
LINE
  8
0
 10
85.2264
 20
74.2739
 11
84.3578
 21
74.1903
  0
LINE
  8
0
 10
84.3578
 20
74.1903
 11
83.4878
 21
74.1218
  0
LINE
  8
0
 10
83.4878
 20
74.1218
 11
82.6168
 21
74.0685
  0
LINE
  8
0
 10
82.6168
 20
74.0685
 11
81.745
 21
74.0305
  0
LINE
  8
0
 10
81.745
 20
74.0305
 11
80.8726
 21
74.0076
  0
LINE
  8
0
 10
80.8726
 20
74.0076
 11
80
 21
74
  0
LINE
  8
0
 10
80
 20
74
 11
79.1274
 21
74.0076
  0
LINE
  8
0
 10
158.764
 20
146.971
 11
183.924
 21
163.31
  0
LINE
  8
0
 10
183.924
 20
163.31
 11
256.905
 21
50.9278
  0
LINE
  8
0
 10
256.905
 20
50.9278
 11
231.745
 21
34.5887
  0
LINE
  8
0
 10
231.745
 20
34.5887
 11
158.764
 21
146.971
  0
LINE
  8
0
 10
10.0831
 20
98.4147
 11
9.9446
 21
98.4135
  0
LINE
  8
0
 10
9.9446
 20
98.4135
 11
9.80652
 21
98.4243
  0
LINE
  8
0
 10
9.80652
 20
98.4243
 11
9.66994
 21
98.4472
  0
LINE
  8
0
 10
9.66994
 20
98.4472
 11
9.53586
 21
98.4819
  0
LINE
  8
0
 10
9.53586
 20
98.4819
 11
9.4053
 21
98.5281
  0
LINE
  8
0
 10
9.4053
 20
98.5281
 11
9.27928
 21
98.5855
  0
LINE
  8
0
 10
9.27928
 20
98.5855
 11
9.15875
 21
98.6537
  0
LINE
  8
0
 10
9.15875
 20
98.6537
 11
9.04462
 21
98.7322
  0
LINE
  8
0
 10
9.04462
 20
98.7322
 11
8.93774
 21
98.8203
  0
LINE
  8
0
 10
8.93774
 20
98.8203
 11
8.83897
 21
98.9173
  0
LINE
  8
0
 10
8.83897
 20
98.9173
 11
8.74902
 21
99.0226
  0
LINE
  8
0
 10
8.74902
 20
99.0226
 11
8.66861
 21
99.1354
  0
LINE
  8
0
 10
8.66861
 20
99.1354
 11
8.59831
 21
99.2547
  0
LINE
  8
0
 10
8.59831
 20
99.2547
 11
8.5387
 21
99.3797
  0
LINE
  8
0
 10
8.5387
 20
99.3797
 11
8.49019
 21
99.5094
  0
LINE
  8
0
 10
8.49019
 20
99.5094
 11
8.45319
 21
99.6429
  0
LINE
  8
0
 10
8.45319
 20
99.6429
 11
8.42795
 21
99.7791
  0
LINE
  8
0
 10
8.42795
 20
99.7791
 11
8.41467
 21
99.9169
  0
LINE
  8
0
 10
8.41467
 20
99.9169
 11
8.41345
 21
100.055
  0
LINE
  8
0
 10
8.41345
 20
100.055
 11
8.42433
 21
100.193
  0
LINE
  8
0
 10
8.42433
 20
100.193
 11
8.44719
 21
100.33
  0
LINE
  8
0
 10
8.44719
 20
100.33
 11
8.48186
 21
100.464
  0
LINE
  8
0
 10
8.48186
 20
100.464
 11
8.52809
 21
100.595
  0
LINE
  8
0
 10
8.52809
 20
100.595
 11
8.58553
 21
100.721
  0
LINE
  8
0
 10
8.58553
 20
100.721
 11
8.65372
 21
100.841
  0
LINE
  8
0
 10
8.65372
 20
100.841
 11
8.73216
 21
100.955
  0
LINE
  8
0
 10
8.73216
 20
100.955
 11
8.82025
 21
101.062
  0
LINE
  8
0
 10
8.82025
 20
101.062
 11
8.91731
 21
101.161
  0
LINE
  8
0
 10
8.91731
 20
101.161
 11
9.02263
 21
101.251
  0
LINE
  8
0
 10
9.02263
 20
101.251
 11
9.13538
 21
101.331
  0
LINE
  8
0
 10
9.13538
 20
101.331
 11
9.2547
 21
101.402
  0
LINE
  8
0
 10
9.2547
 20
101.402
 11
9.3797
 21
101.461
  0
LINE
  8
0
 10
9.3797
 20
101.461
 11
9.50943
 21
101.51
  0
LINE
  8
0
 10
9.50943
 20
101.51
 11
9.64288
 21
101.547
  0
LINE
  8
0
 10
9.64288
 20
101.547
 11
9.77905
 21
101.572
  0
LINE
  8
0
 10
9.77905
 20
101.572
 11
9.91692
 21
101.585
  0
LINE
  8
0
 10
9.91692
 20
101.585
 11
10.0554
 21
101.587
  0
LINE
  8
0
 10
10.0554
 20
101.587
 11
10.1935
 21
101.576
  0
LINE
  8
0
 10
10.1935
 20
101.576
 11
10.33
 21
101.553
  0
LINE
  8
0
 10
10.33
 20
101.553
 11
10.4641
 21
101.518
  0
LINE
  8
0
 10
10.4641
 20
101.518
 11
10.5947
 21
101.472
  0
LINE
  8
0
 10
10.5947
 20
101.472
 11
10.7207
 21
101.414
  0
LINE
  8
0
 10
10.7207
 20
101.414
 11
10.8412
 21
101.346
  0
LINE
  8
0
 10
10.8412
 20
101.346
 11
10.9554
 21
101.268
  0
LINE
  8
0
 10
10.9554
 20
101.268
 11
11.0622
 21
101.18
  0
LINE
  8
0
 10
11.0622
 20
101.18
 11
11.161
 21
101.083
  0
LINE
  8
0
 10
11.161
 20
101.083
 11
11.251
 21
100.977
  0
LINE
  8
0
 10
11.251
 20
100.977
 11
11.3314
 21
100.865
  0
LINE
  8
0
 10
11.3314
 20
100.865
 11
11.4017
 21
100.745
  0
LINE
  8
0
 10
11.4017
 20
100.745
 11
11.4613
 21
100.62
  0
LINE
  8
0
 10
11.4613
 20
100.62
 11
11.5098
 21
100.491
  0
LINE
  8
0
 10
11.5098
 20
100.491
 11
11.5468
 21
100.357
  0
LINE
  8
0
 10
11.5468
 20
100.357
 11
11.572
 21
100.221
  0
LINE
  8
0
 10
11.572
 20
100.221
 11
11.5853
 21
100.083
  0
LINE
  8
0
 10
11.5853
 20
100.083
 11
11.5865
 21
99.9446
  0
LINE
  8
0
 10
11.5865
 20
99.9446
 11
11.5757
 21
99.8065
  0
LINE
  8
0
 10
11.5757
 20
99.8065
 11
11.5528
 21
99.6699
  0
LINE
  8
0
 10
11.5528
 20
99.6699
 11
11.5181
 21
99.5359
  0
LINE
  8
0
 10
11.5181
 20
99.5359
 11
11.4719
 21
99.4053
  0
LINE
  8
0
 10
11.4719
 20
99.4053
 11
11.4145
 21
99.2793
  0
LINE
  8
0
 10
11.4145
 20
99.2793
 11
11.3463
 21
99.1588
  0
LINE
  8
0
 10
11.3463
 20
99.1588
 11
11.2678
 21
99.0446
  0
LINE
  8
0
 10
11.2678
 20
99.0446
 11
11.1797
 21
98.9377
  0
LINE
  8
0
 10
11.1797
 20
98.9377
 11
11.0827
 21
98.839
  0
LINE
  8
0
 10
11.0827
 20
98.839
 11
10.9774
 21
98.749
  0
LINE
  8
0
 10
10.9774
 20
98.749
 11
10.8646
 21
98.6686
  0
LINE
  8
0
 10
10.8646
 20
98.6686
 11
10.7453
 21
98.5983
  0
LINE
  8
0
 10
10.7453
 20
98.5983
 11
10.6203
 21
98.5387
  0
LINE
  8
0
 10
10.6203
 20
98.5387
 11
10.4906
 21
98.4902
  0
LINE
  8
0
 10
10.4906
 20
98.4902
 11
10.3571
 21
98.4532
  0
LINE
  8
0
 10
10.3571
 20
98.4532
 11
10.2209
 21
98.4279
  0
LINE
  8
0
 10
10.2209
 20
98.4279
 11
10.0831
 21
98.4147
  0
LINE
  8
0
 10
13
 20
8
 11
12.8604
 21
8.00243
  0
LINE
  8
0
 10
12.8604
 20
8.00243
 11
12.721
 21
8.00974
  0
LINE
  8
0
 10
12.721
 20
8.00974
 11
12.5819
 21
8.02191
  0
LINE
  8
0
 10
12.5819
 20
8.02191
 11
12.4433
 21
8.03893
  0
LINE
  8
0
 10
12.4433
 20
8.03893
 11
12.3054
 21
8.06076
  0
LINE
  8
0
 10
12.3054
 20
8.06076
 11
12.1684
 21
8.0874
  0
LINE
  8
0
 10
12.1684
 20
8.0874
 11
12.0323
 21
8.1188
  0
LINE
  8
0
 10
12.0323
 20
8.1188
 11
11.8974
 21
8.15495
  0
LINE
  8
0
 10
11.8974
 20
8.15495
 11
11.7639
 21
8.19577
  0
LINE
  8
0
 10
11.7639
 20
8.19577
 11
11.6319
 21
8.24123
  0
LINE
  8
0
 10
11.6319
 20
8.24123
 11
11.5016
 21
8.29126
  0
LINE
  8
0
 10
11.5016
 20
8.29126
 11
11.373
 21
8.34581
  0
LINE
  8
0
 10
11.373
 20
8.34581
 11
11.2465
 21
8.40482
  0
LINE
  8
0
 10
11.2465
 20
8.40482
 11
11.1221
 21
8.4682
  0
LINE
  8
0
 10
11.1221
 20
8.4682
 11
11
 21
8.53589
  0
LINE
  8
0
 10
11
 20
8.53589
 11
10.8803
 21
8.6078
  0
LINE
  8
0
 10
10.8803
 20
8.6078
 11
10.7632
 21
8.68384
  0
LINE
  8
0
 10
10.7632
 20
8.68384
 11
10.6488
 21
8.76393
  0
LINE
  8
0
 10
10.6488
 20
8.76393
 11
10.5374
 21
8.84795
  0
LINE
  8
0
 10
10.5374
 20
8.84795
 11
10.4288
 21
8.93582
  0
LINE
  8
0
 10
10.4288
 20
8.93582
 11
10.3235
 21
9.02742
  0
LINE
  8
0
 10
10.3235
 20
9.02742
 11
10.2214
 21
9.12263
  0
LINE
  8
0
 10
10.2214
 20
9.12263
 11
10.1226
 21
9.22136
  0
LINE
  8
0
 10
10.1226
 20
9.22136
 11
10.0274
 21
9.32347
  0
LINE
  8
0
 10
10.0274
 20
9.32347
 11
9.93582
 21
9.42885
  0
LINE
  8
0
 10
9.93582
 20
9.42885
 11
9.84795
 21
9.53735
  0
LINE
  8
0
 10
9.84795
 20
9.53735
 11
9.76393
 21
9.64885
  0
LINE
  8
0
 10
9.76393
 20
9.64885
 11
9.68384
 21
9.76321
  0
LINE
  8
0
 10
9.68384
 20
9.76321
 11
9.6078
 21
9.88031
  0
LINE
  8
0
 10
9.6078
 20
9.88031
 11
9.53589
 21
10
  0
LINE
  8
0
 10
9.53589
 20
10
 11
9.4682
 21
10.1221
  0
LINE
  8
0
 10
9.4682
 20
10.1221
 11
9.40482
 21
10.2465
  0
LINE
  8
0
 10
9.40482
 20
10.2465
 11
9.34581
 21
10.373
  0
LINE
  8
0
 10
9.34581
 20
10.373
 11
9.29126
 21
10.5016
  0
LINE
  8
0
 10
9.29126
 20
10.5016
 11
9.24123
 21
10.6319
  0
LINE
  8
0
 10
9.24123
 20
10.6319
 11
9.19577
 21
10.7639
  0
LINE
  8
0
 10
9.19577
 20
10.7639
 11
9.15495
 21
10.8974
  0
LINE
  8
0
 10
9.15495
 20
10.8974
 11
9.1188
 21
11.0323
  0
LINE
  8
0
 10
9.1188
 20
11.0323
 11
9.0874
 21
11.1684
  0
LINE
  8
0
 10
9.0874
 20
11.1684
 11
9.06076
 21
11.3054
  0
LINE
  8
0
 10
9.06076
 20
11.3054
 11
9.03893
 21
11.4433
  0
LINE
  8
0
 10
9.03893
 20
11.4433
 11
9.02191
 21
11.5819
  0
LINE
  8
0
 10
9.02191
 20
11.5819
 11
9.00974
 21
11.721
  0
LINE
  8
0
 10
9.00974
 20
11.721
 11
9.00243
 21
11.8604
  0
LINE
  8
0
 10
9.00243
 20
11.8604
 11
9
 21
12
  0
LINE
  8
0
 10
9
 20
12
 11
9.00243
 21
12.1396
  0
LINE
  8
0
 10
9.00243
 20
12.1396
 11
9.00974
 21
12.279
  0
LINE
  8
0
 10
9.00974
 20
12.279
 11
9.02191
 21
12.4181
  0
LINE
  8
0
 10
9.02191
 20
12.4181
 11
9.03893
 21
12.5567
  0
LINE
  8
0
 10
9.03893
 20
12.5567
 11
9.06076
 21
12.6946
  0
LINE
  8
0
 10
9.06076
 20
12.6946
 11
9.0874
 21
12.8316
  0
LINE
  8
0
 10
9.0874
 20
12.8316
 11
9.1188
 21
12.9677
  0
LINE
  8
0
 10
9.1188
 20
12.9677
 11
9.15495
 21
13.1025
  0
LINE
  8
0
 10
9.15495
 20
13.1025
 11
9.19577
 21
13.2361
  0
LINE
  8
0
 10
9.19577
 20
13.2361
 11
9.24123
 21
13.3681
  0
LINE
  8
0
 10
9.24123
 20
13.3681
 11
9.29126
 21
13.4984
  0
LINE
  8
0
 10
9.29126
 20
13.4984
 11
9.34581
 21
13.6269
  0
LINE
  8
0
 10
9.34581
 20
13.6269
 11
9.40482
 21
13.7535
  0
LINE
  8
0
 10
9.40482
 20
13.7535
 11
9.4682
 21
13.8779
  0
LINE
  8
0
 10
9.4682
 20
13.8779
 11
9.53589
 21
14
  0
LINE
  8
0
 10
9.53589
 20
14
 11
9.6078
 21
14.1197
  0
LINE
  8
0
 10
9.6078
 20
14.1197
 11
9.68384
 21
14.2368
  0
LINE
  8
0
 10
9.68384
 20
14.2368
 11
9.76393
 21
14.3511
  0
LINE
  8
0
 10
9.76393
 20
14.3511
 11
9.84795
 21
14.4626
  0
LINE
  8
0
 10
9.84795
 20
14.4626
 11
9.93582
 21
14.5711
  0
LINE
  8
0
 10
9.93582
 20
14.5711
 11
10.0274
 21
14.6765
  0
LINE
  8
0
 10
10.0274
 20
14.6765
 11
10.1226
 21
14.7786
  0
LINE
  8
0
 10
10.1226
 20
14.7786
 11
10.2214
 21
14.8773
  0
LINE
  8
0
 10
10.2214
 20
14.8773
 11
10.3235
 21
14.9726
  0
LINE
  8
0
 10
10.3235
 20
14.9726
 11
10.4288
 21
15.0642
  0
LINE
  8
0
 10
10.4288
 20
15.0642
 11
10.5374
 21
15.152
  0
LINE
  8
0
 10
10.5374
 20
15.152
 11
10.6488
 21
15.2361
  0
LINE
  8
0
 10
10.6488
 20
15.2361
 11
10.7632
 21
15.3161
  0
LINE
  8
0
 10
10.7632
 20
15.3161
 11
10.8803
 21
15.3922
  0
LINE
  8
0
 10
10.8803
 20
15.3922
 11
11
 21
15.4641
  0
LINE
  8
0
 10
11
 20
15.4641
 11
11.1221
 21
15.5318
  0
LINE
  8
0
 10
11.1221
 20
15.5318
 11
11.2465
 21
15.5952
  0
LINE
  8
0
 10
11.2465
 20
15.5952
 11
11.373
 21
15.6542
  0
LINE
  8
0
 10
11.373
 20
15.6542
 11
11.5016
 21
15.7087
  0
LINE
  8
0
 10
11.5016
 20
15.7087
 11
11.6319
 21
15.7588
  0
LINE
  8
0
 10
11.6319
 20
15.7588
 11
11.7639
 21
15.8042
  0
LINE
  8
0
 10
11.7639
 20
15.8042
 11
11.8974
 21
15.845
  0
LINE
  8
0
 10
11.8974
 20
15.845
 11
12.0323
 21
15.8812
  0
LINE
  8
0
 10
12.0323
 20
15.8812
 11
12.1684
 21
15.9126
  0
LINE
  8
0
 10
12.1684
 20
15.9126
 11
12.3054
 21
15.9392
  0
LINE
  8
0
 10
12.3054
 20
15.9392
 11
12.4433
 21
15.9611
  0
LINE
  8
0
 10
12.4433
 20
15.9611
 11
12.5819
 21
15.9781
  0
LINE
  8
0
 10
12.5819
 20
15.9781
 11
12.721
 21
15.9902
  0
LINE
  8
0
 10
12.721
 20
15.9902
 11
12.8604
 21
15.9976
  0
LINE
  8
0
 10
12.8604
 20
15.9976
 11
13
 21
16
  0
LINE
  8
0
 10
13
 20
16
 11
13.1396
 21
15.9976
  0
LINE
  8
0
 10
13.1396
 20
15.9976
 11
13.279
 21
15.9902
  0
LINE
  8
0
 10
13.279
 20
15.9902
 11
13.4181
 21
15.9781
  0
LINE
  8
0
 10
13.4181
 20
15.9781
 11
13.5567
 21
15.9611
  0
LINE
  8
0
 10
13.5567
 20
15.9611
 11
13.6946
 21
15.9392
  0
LINE
  8
0
 10
13.6946
 20
15.9392
 11
13.8316
 21
15.9126
  0
LINE
  8
0
 10
13.8316
 20
15.9126
 11
13.9677
 21
15.8812
  0
LINE
  8
0
 10
13.9677
 20
15.8812
 11
14.1025
 21
15.845
  0
LINE
  8
0
 10
14.1025
 20
15.845
 11
14.2361
 21
15.8042
  0
LINE
  8
0
 10
14.2361
 20
15.8042
 11
14.3681
 21
15.7588
  0
LINE
  8
0
 10
14.3681
 20
15.7588
 11
14.4984
 21
15.7087
  0
LINE
  8
0
 10
14.4984
 20
15.7087
 11
14.6269
 21
15.6542
  0
LINE
  8
0
 10
14.6269
 20
15.6542
 11
14.7535
 21
15.5952
  0
LINE
  8
0
 10
14.7535
 20
15.5952
 11
14.8779
 21
15.5318
  0
LINE
  8
0
 10
14.8779
 20
15.5318
 11
15
 21
15.4641
  0
LINE
  8
0
 10
15
 20
15.4641
 11
15.1197
 21
15.3922
  0
LINE
  8
0
 10
15.1197
 20
15.3922
 11
15.2368
 21
15.3161
  0
LINE
  8
0
 10
15.2368
 20
15.3161
 11
15.3511
 21
15.2361
  0
LINE
  8
0
 10
15.3511
 20
15.2361
 11
15.4626
 21
15.152
  0
LINE
  8
0
 10
15.4626
 20
15.152
 11
15.5711
 21
15.0642
  0
LINE
  8
0
 10
15.5711
 20
15.0642
 11
15.6765
 21
14.9726
  0
LINE
  8
0
 10
15.6765
 20
14.9726
 11
15.7786
 21
14.8773
  0
LINE
  8
0
 10
15.7786
 20
14.8773
 11
15.8773
 21
14.7786
  0
LINE
  8
0
 10
15.8773
 20
14.7786
 11
15.9726
 21
14.6765
  0
LINE
  8
0
 10
15.9726
 20
14.6765
 11
16.0642
 21
14.5711
  0
LINE
  8
0
 10
16.0642
 20
14.5711
 11
16.152
 21
14.4626
  0
LINE
  8
0
 10
16.152
 20
14.4626
 11
16.2361
 21
14.3511
  0
LINE
  8
0
 10
16.2361
 20
14.3511
 11
16.3161
 21
14.2368
  0
LINE
  8
0
 10
16.3161
 20
14.2368
 11
16.3922
 21
14.1197
  0
LINE
  8
0
 10
16.3922
 20
14.1197
 11
16.4641
 21
14
  0
LINE
  8
0
 10
16.4641
 20
14
 11
16.5318
 21
13.8779
  0
LINE
  8
0
 10
16.5318
 20
13.8779
 11
16.5952
 21
13.7535
  0
LINE
  8
0
 10
16.5952
 20
13.7535
 11
16.6542
 21
13.6269
  0
LINE
  8
0
 10
16.6542
 20
13.6269
 11
16.7087
 21
13.4984
  0
LINE
  8
0
 10
16.7087
 20
13.4984
 11
16.7588
 21
13.3681
  0
LINE
  8
0
 10
16.7588
 20
13.3681
 11
16.8042
 21
13.2361
  0
LINE
  8
0
 10
16.8042
 20
13.2361
 11
16.845
 21
13.1025
  0
LINE
  8
0
 10
16.845
 20
13.1025
 11
16.8812
 21
12.9677
  0
LINE
  8
0
 10
16.8812
 20
12.9677
 11
16.9126
 21
12.8316
  0
LINE
  8
0
 10
16.9126
 20
12.8316
 11
16.9392
 21
12.6946
  0
LINE
  8
0
 10
16.9392
 20
12.6946
 11
16.9611
 21
12.5567
  0
LINE
  8
0
 10
16.9611
 20
12.5567
 11
16.9781
 21
12.4181
  0
LINE
  8
0
 10
16.9781
 20
12.4181
 11
16.9902
 21
12.279
  0
LINE
  8
0
 10
16.9902
 20
12.279
 11
16.9976
 21
12.1396
  0
LINE
  8
0
 10
16.9976
 20
12.1396
 11
17
 21
12
  0
LINE
  8
0
 10
17
 20
12
 11
16.9976
 21
11.8604
  0
LINE
  8
0
 10
16.9976
 20
11.8604
 11
16.9902
 21
11.721
  0
LINE
  8
0
 10
16.9902
 20
11.721
 11
16.9781
 21
11.5819
  0
LINE
  8
0
 10
16.9781
 20
11.5819
 11
16.9611
 21
11.4433
  0
LINE
  8
0
 10
16.9611
 20
11.4433
 11
16.9392
 21
11.3054
  0
LINE
  8
0
 10
16.9392
 20
11.3054
 11
16.9126
 21
11.1684
  0
LINE
  8
0
 10
16.9126
 20
11.1684
 11
16.8812
 21
11.0323
  0
LINE
  8
0
 10
16.8812
 20
11.0323
 11
16.845
 21
10.8974
  0
LINE
  8
0
 10
16.845
 20
10.8974
 11
16.8042
 21
10.7639
  0
LINE
  8
0
 10
16.8042
 20
10.7639
 11
16.7588
 21
10.6319
  0
LINE
  8
0
 10
16.7588
 20
10.6319
 11
16.7087
 21
10.5016
  0
LINE
  8
0
 10
16.7087
 20
10.5016
 11
16.6542
 21
10.373
  0
LINE
  8
0
 10
16.6542
 20
10.373
 11
16.5952
 21
10.2465
  0
LINE
  8
0
 10
16.5952
 20
10.2465
 11
16.5318
 21
10.1221
  0
LINE
  8
0
 10
16.5318
 20
10.1221
 11
16.4641
 21
9.99998
  0
LINE
  8
0
 10
16.4641
 20
9.99998
 11
16.3922
 21
9.88031
  0
LINE
  8
0
 10
16.3922
 20
9.88031
 11
16.3161
 21
9.76321
  0
LINE
  8
0
 10
16.3161
 20
9.76321
 11
16.2361
 21
9.64885
  0
LINE
  8
0
 10
16.2361
 20
9.64885
 11
16.152
 21
9.53735
  0
LINE
  8
0
 10
16.152
 20
9.53735
 11
16.0642
 21
9.42885
  0
LINE
  8
0
 10
16.0642
 20
9.42885
 11
15.9726
 21
9.32347
  0
LINE
  8
0
 10
15.9726
 20
9.32347
 11
15.8773
 21
9.22136
  0
LINE
  8
0
 10
15.8773
 20
9.22136
 11
15.7786
 21
9.12263
  0
LINE
  8
0
 10
15.7786
 20
9.12263
 11
15.6765
 21
9.02742
  0
LINE
  8
0
 10
15.6765
 20
9.02742
 11
15.5711
 21
8.93582
  0
LINE
  8
0
 10
15.5711
 20
8.93582
 11
15.4626
 21
8.84795
  0
LINE
  8
0
 10
15.4626
 20
8.84795
 11
15.3511
 21
8.76393
  0
LINE
  8
0
 10
15.3511
 20
8.76393
 11
15.2368
 21
8.68384
  0
LINE
  8
0
 10
15.2368
 20
8.68384
 11
15.1197
 21
8.6078
  0
LINE
  8
0
 10
15.1197
 20
8.6078
 11
15
 21
8.53589
  0
LINE
  8
0
 10
15
 20
8.53589
 11
14.8779
 21
8.4682
  0
LINE
  8
0
 10
14.8779
 20
8.4682
 11
14.7535
 21
8.40482
  0
LINE
  8
0
 10
14.7535
 20
8.40482
 11
14.6269
 21
8.34581
  0
LINE
  8
0
 10
14.6269
 20
8.34581
 11
14.4984
 21
8.29126
  0
LINE
  8
0
 10
14.4984
 20
8.29126
 11
14.3681
 21
8.24123
  0
LINE
  8
0
 10
14.3681
 20
8.24123
 11
14.2361
 21
8.19577
  0
LINE
  8
0
 10
14.2361
 20
8.19577
 11
14.1025
 21
8.15495
  0
LINE
  8
0
 10
14.1025
 20
8.15495
 11
13.9677
 21
8.1188
  0
LINE
  8
0
 10
13.9677
 20
8.1188
 11
13.8316
 21
8.0874
  0
LINE
  8
0
 10
13.8316
 20
8.0874
 11
13.6946
 21
8.06076
  0
LINE
  8
0
 10
13.6946
 20
8.06076
 11
13.5567
 21
8.03893
  0
LINE
  8
0
 10
13.5567
 20
8.03893
 11
13.4181
 21
8.02191
  0
LINE
  8
0
 10
13.4181
 20
8.02191
 11
13.279
 21
8.00974
  0
LINE
  8
0
 10
13.279
 20
8.00974
 11
13.1396
 21
8.00243
  0
LINE
  8
0
 10
13.1396
 20
8.00243
 11
13
 21
8
  0
LINE
  8
0
 10
198
 20
8
 11
197.86
 21
8.00243
  0
LINE
  8
0
 10
197.86
 20
8.00243
 11
197.721
 21
8.00974
  0
LINE
  8
0
 10
197.721
 20
8.00974
 11
197.582
 21
8.02191
  0
LINE
  8
0
 10
197.582
 20
8.02191
 11
197.443
 21
8.03893
  0
LINE
  8
0
 10
197.443
 20
8.03893
 11
197.305
 21
8.06076
  0
LINE
  8
0
 10
197.305
 20
8.06076
 11
197.168
 21
8.0874
  0
LINE
  8
0
 10
197.168
 20
8.0874
 11
197.032
 21
8.1188
  0
LINE
  8
0
 10
197.032
 20
8.1188
 11
196.897
 21
8.15495
  0
LINE
  8
0
 10
196.897
 20
8.15495
 11
196.764
 21
8.19577
  0
LINE
  8
0
 10
196.764
 20
8.19577
 11
196.632
 21
8.24123
  0
LINE
  8
0
 10
196.632
 20
8.24123
 11
196.502
 21
8.29126
  0
LINE
  8
0
 10
196.502
 20
8.29126
 11
196.373
 21
8.34581
  0
LINE
  8
0
 10
196.373
 20
8.34581
 11
196.247
 21
8.40482
  0
LINE
  8
0
 10
196.247
 20
8.40482
 11
196.122
 21
8.4682
  0
LINE
  8
0
 10
196.122
 20
8.4682
 11
196
 21
8.53589
  0
LINE
  8
0
 10
196
 20
8.53589
 11
195.88
 21
8.6078
  0
LINE
  8
0
 10
195.88
 20
8.6078
 11
195.763
 21
8.68384
  0
LINE
  8
0
 10
195.763
 20
8.68384
 11
195.649
 21
8.76393
  0
LINE
  8
0
 10
195.649
 20
8.76393
 11
195.537
 21
8.84795
  0
LINE
  8
0
 10
195.537
 20
8.84795
 11
195.429
 21
8.93582
  0
LINE
  8
0
 10
195.429
 20
8.93582
 11
195.323
 21
9.02742
  0
LINE
  8
0
 10
195.323
 20
9.02742
 11
195.221
 21
9.12263
  0
LINE
  8
0
 10
195.221
 20
9.12263
 11
195.123
 21
9.22136
  0
LINE
  8
0
 10
195.123
 20
9.22136
 11
195.027
 21
9.32347
  0
LINE
  8
0
 10
195.027
 20
9.32347
 11
194.936
 21
9.42885
  0
LINE
  8
0
 10
194.936
 20
9.42885
 11
194.848
 21
9.53735
  0
LINE
  8
0
 10
194.848
 20
9.53735
 11
194.764
 21
9.64885
  0
LINE
  8
0
 10
194.764
 20
9.64885
 11
194.684
 21
9.76321
  0
LINE
  8
0
 10
194.684
 20
9.76321
 11
194.608
 21
9.88031
  0
LINE
  8
0
 10
194.608
 20
9.88031
 11
194.536
 21
10
  0
LINE
  8
0
 10
194.536
 20
10
 11
194.468
 21
10.1221
  0
LINE
  8
0
 10
194.468
 20
10.1221
 11
194.405
 21
10.2465
  0
LINE
  8
0
 10
194.405
 20
10.2465
 11
194.346
 21
10.373
  0
LINE
  8
0
 10
194.346
 20
10.373
 11
194.291
 21
10.5016
  0
LINE
  8
0
 10
194.291
 20
10.5016
 11
194.241
 21
10.6319
  0
LINE
  8
0
 10
194.241
 20
10.6319
 11
194.196
 21
10.7639
  0
LINE
  8
0
 10
194.196
 20
10.7639
 11
194.155
 21
10.8974
  0
LINE
  8
0
 10
194.155
 20
10.8974
 11
194.119
 21
11.0323
  0
LINE
  8
0
 10
194.119
 20
11.0323
 11
194.087
 21
11.1684
  0
LINE
  8
0
 10
194.087
 20
11.1684
 11
194.061
 21
11.3054
  0
LINE
  8
0
 10
194.061
 20
11.3054
 11
194.039
 21
11.4433
  0
LINE
  8
0
 10
194.039
 20
11.4433
 11
194.022
 21
11.5819
  0
LINE
  8
0
 10
194.022
 20
11.5819
 11
194.01
 21
11.721
  0
LINE
  8
0
 10
194.01
 20
11.721
 11
194.002
 21
11.8604
  0
LINE
  8
0
 10
194.002
 20
11.8604
 11
194
 21
12
  0
LINE
  8
0
 10
194
 20
12
 11
194.002
 21
12.1396
  0
LINE
  8
0
 10
194.002
 20
12.1396
 11
194.01
 21
12.279
  0
LINE
  8
0
 10
194.01
 20
12.279
 11
194.022
 21
12.4181
  0
LINE
  8
0
 10
194.022
 20
12.4181
 11
194.039
 21
12.5567
  0
LINE
  8
0
 10
194.039
 20
12.5567
 11
194.061
 21
12.6946
  0
LINE
  8
0
 10
194.061
 20
12.6946
 11
194.087
 21
12.8316
  0
LINE
  8
0
 10
194.087
 20
12.8316
 11
194.119
 21
12.9677
  0
LINE
  8
0
 10
194.119
 20
12.9677
 11
194.155
 21
13.1025
  0
LINE
  8
0
 10
194.155
 20
13.1025
 11
194.196
 21
13.2361
  0
LINE
  8
0
 10
194.196
 20
13.2361
 11
194.241
 21
13.3681
  0
LINE
  8
0
 10
194.241
 20
13.3681
 11
194.291
 21
13.4984
  0
LINE
  8
0
 10
194.291
 20
13.4984
 11
194.346
 21
13.6269
  0
LINE
  8
0
 10
194.346
 20
13.6269
 11
194.405
 21
13.7535
  0
LINE
  8
0
 10
194.405
 20
13.7535
 11
194.468
 21
13.8779
  0
LINE
  8
0
 10
194.468
 20
13.8779
 11
194.536
 21
14
  0
LINE
  8
0
 10
194.536
 20
14
 11
194.608
 21
14.1197
  0
LINE
  8
0
 10
194.608
 20
14.1197
 11
194.684
 21
14.2368
  0
LINE
  8
0
 10
194.684
 20
14.2368
 11
194.764
 21
14.3511
  0
LINE
  8
0
 10
194.764
 20
14.3511
 11
194.848
 21
14.4626
  0
LINE
  8
0
 10
194.848
 20
14.4626
 11
194.936
 21
14.5711
  0
LINE
  8
0
 10
194.936
 20
14.5711
 11
195.027
 21
14.6765
  0
LINE
  8
0
 10
195.027
 20
14.6765
 11
195.123
 21
14.7786
  0
LINE
  8
0
 10
195.123
 20
14.7786
 11
195.221
 21
14.8773
  0
LINE
  8
0
 10
195.221
 20
14.8773
 11
195.323
 21
14.9726
  0
LINE
  8
0
 10
195.323
 20
14.9726
 11
195.429
 21
15.0642
  0
LINE
  8
0
 10
195.429
 20
15.0642
 11
195.537
 21
15.152
  0
LINE
  8
0
 10
195.537
 20
15.152
 11
195.649
 21
15.2361
  0
LINE
  8
0
 10
195.649
 20
15.2361
 11
195.763
 21
15.3161
  0
LINE
  8
0
 10
195.763
 20
15.3161
 11
195.88
 21
15.3922
  0
LINE
  8
0
 10
195.88
 20
15.3922
 11
196
 21
15.4641
  0
LINE
  8
0
 10
196
 20
15.4641
 11
196.122
 21
15.5318
  0
LINE
  8
0
 10
196.122
 20
15.5318
 11
196.247
 21
15.5952
  0
LINE
  8
0
 10
196.247
 20
15.5952
 11
196.373
 21
15.6542
  0
LINE
  8
0
 10
196.373
 20
15.6542
 11
196.502
 21
15.7087
  0
LINE
  8
0
 10
196.502
 20
15.7087
 11
196.632
 21
15.7588
  0
LINE
  8
0
 10
196.632
 20
15.7588
 11
196.764
 21
15.8042
  0
LINE
  8
0
 10
196.764
 20
15.8042
 11
196.897
 21
15.845
  0
LINE
  8
0
 10
196.897
 20
15.845
 11
197.032
 21
15.8812
  0
LINE
  8
0
 10
197.032
 20
15.8812
 11
197.168
 21
15.9126
  0
LINE
  8
0
 10
197.168
 20
15.9126
 11
197.305
 21
15.9392
  0
LINE
  8
0
 10
197.305
 20
15.9392
 11
197.443
 21
15.9611
  0
LINE
  8
0
 10
197.443
 20
15.9611
 11
197.582
 21
15.9781
  0
LINE
  8
0
 10
197.582
 20
15.9781
 11
197.721
 21
15.9902
  0
LINE
  8
0
 10
197.721
 20
15.9902
 11
197.86
 21
15.9976
  0
LINE
  8
0
 10
197.86
 20
15.9976
 11
198
 21
16
  0
LINE
  8
0
 10
198
 20
16
 11
198.14
 21
15.9976
  0
LINE
  8
0
 10
198.14
 20
15.9976
 11
198.279
 21
15.9902
  0
LINE
  8
0
 10
198.279
 20
15.9902
 11
198.418
 21
15.9781
  0
LINE
  8
0
 10
198.418
 20
15.9781
 11
198.557
 21
15.9611
  0
LINE
  8
0
 10
198.557
 20
15.9611
 11
198.695
 21
15.9392
  0
LINE
  8
0
 10
198.695
 20
15.9392
 11
198.832
 21
15.9126
  0
LINE
  8
0
 10
198.832
 20
15.9126
 11
198.968
 21
15.8812
  0
LINE
  8
0
 10
198.968
 20
15.8812
 11
199.103
 21
15.845
  0
LINE
  8
0
 10
199.103
 20
15.845
 11
199.236
 21
15.8042
  0
LINE
  8
0
 10
199.236
 20
15.8042
 11
199.368
 21
15.7588
  0
LINE
  8
0
 10
199.368
 20
15.7588
 11
199.498
 21
15.7087
  0
LINE
  8
0
 10
199.498
 20
15.7087
 11
199.627
 21
15.6542
  0
LINE
  8
0
 10
199.627
 20
15.6542
 11
199.753
 21
15.5952
  0
LINE
  8
0
 10
199.753
 20
15.5952
 11
199.878
 21
15.5318
  0
LINE
  8
0
 10
199.878
 20
15.5318
 11
200
 21
15.4641
  0
LINE
  8
0
 10
200
 20
15.4641
 11
200.12
 21
15.3922
  0
LINE
  8
0
 10
200.12
 20
15.3922
 11
200.237
 21
15.3161
  0
LINE
  8
0
 10
200.237
 20
15.3161
 11
200.351
 21
15.2361
  0
LINE
  8
0
 10
200.351
 20
15.2361
 11
200.463
 21
15.152
  0
LINE
  8
0
 10
200.463
 20
15.152
 11
200.571
 21
15.0642
  0
LINE
  8
0
 10
200.571
 20
15.0642
 11
200.677
 21
14.9726
  0
LINE
  8
0
 10
200.677
 20
14.9726
 11
200.779
 21
14.8773
  0
LINE
  8
0
 10
200.779
 20
14.8773
 11
200.877
 21
14.7786
  0
LINE
  8
0
 10
200.877
 20
14.7786
 11
200.973
 21
14.6765
  0
LINE
  8
0
 10
200.973
 20
14.6765
 11
201.064
 21
14.5711
  0
LINE
  8
0
 10
201.064
 20
14.5711
 11
201.152
 21
14.4626
  0
LINE
  8
0
 10
201.152
 20
14.4626
 11
201.236
 21
14.3511
  0
LINE
  8
0
 10
201.236
 20
14.3511
 11
201.316
 21
14.2368
  0
LINE
  8
0
 10
201.316
 20
14.2368
 11
201.392
 21
14.1197
  0
LINE
  8
0
 10
201.392
 20
14.1197
 11
201.464
 21
14
  0
LINE
  8
0
 10
201.464
 20
14
 11
201.532
 21
13.8779
  0
LINE
  8
0
 10
201.532
 20
13.8779
 11
201.595
 21
13.7535
  0
LINE
  8
0
 10
201.595
 20
13.7535
 11
201.654
 21
13.6269
  0
LINE
  8
0
 10
201.654
 20
13.6269
 11
201.709
 21
13.4984
  0
LINE
  8
0
 10
201.709
 20
13.4984
 11
201.759
 21
13.3681
  0
LINE
  8
0
 10
201.759
 20
13.3681
 11
201.804
 21
13.2361
  0
LINE
  8
0
 10
201.804
 20
13.2361
 11
201.845
 21
13.1025
  0
LINE
  8
0
 10
201.845
 20
13.1025
 11
201.881
 21
12.9677
  0
LINE
  8
0
 10
201.881
 20
12.9677
 11
201.913
 21
12.8316
  0
LINE
  8
0
 10
201.913
 20
12.8316
 11
201.939
 21
12.6946
  0
LINE
  8
0
 10
201.939
 20
12.6946
 11
201.961
 21
12.5567
  0
LINE
  8
0
 10
201.961
 20
12.5567
 11
201.978
 21
12.4181
  0
LINE
  8
0
 10
201.978
 20
12.4181
 11
201.99
 21
12.279
  0
LINE
  8
0
 10
201.99
 20
12.279
 11
201.998
 21
12.1396
  0
LINE
  8
0
 10
201.998
 20
12.1396
 11
202
 21
12
  0
LINE
  8
0
 10
202
 20
12
 11
201.998
 21
11.8604
  0
LINE
  8
0
 10
201.998
 20
11.8604
 11
201.99
 21
11.721
  0
LINE
  8
0
 10
201.99
 20
11.721
 11
201.978
 21
11.5819
  0
LINE
  8
0
 10
201.978
 20
11.5819
 11
201.961
 21
11.4433
  0
LINE
  8
0
 10
201.961
 20
11.4433
 11
201.939
 21
11.3054
  0
LINE
  8
0
 10
201.939
 20
11.3054
 11
201.913
 21
11.1684
  0
LINE
  8
0
 10
201.913
 20
11.1684
 11
201.881
 21
11.0323
  0
LINE
  8
0
 10
201.881
 20
11.0323
 11
201.845
 21
10.8974
  0
LINE
  8
0
 10
201.845
 20
10.8974
 11
201.804
 21
10.7639
  0
LINE
  8
0
 10
201.804
 20
10.7639
 11
201.759
 21
10.6319
  0
LINE
  8
0
 10
201.759
 20
10.6319
 11
201.709
 21
10.5016
  0
LINE
  8
0
 10
201.709
 20
10.5016
 11
201.654
 21
10.373
  0
LINE
  8
0
 10
201.654
 20
10.373
 11
201.595
 21
10.2465
  0
LINE
  8
0
 10
201.595
 20
10.2465
 11
201.532
 21
10.1221
  0
LINE
  8
0
 10
201.532
 20
10.1221
 11
201.464
 21
9.99998
  0
LINE
  8
0
 10
201.464
 20
9.99998
 11
201.392
 21
9.88031
  0
LINE
  8
0
 10
201.392
 20
9.88031
 11
201.316
 21
9.76321
  0
LINE
  8
0
 10
201.316
 20
9.76321
 11
201.236
 21
9.64885
  0
LINE
  8
0
 10
201.236
 20
9.64885
 11
201.152
 21
9.53735
  0
LINE
  8
0
 10
201.152
 20
9.53735
 11
201.064
 21
9.42885
  0
LINE
  8
0
 10
201.064
 20
9.42885
 11
200.973
 21
9.32347
  0
LINE
  8
0
 10
200.973
 20
9.32347
 11
200.877
 21
9.22136
  0
LINE
  8
0
 10
200.877
 20
9.22136
 11
200.779
 21
9.12263
  0
LINE
  8
0
 10
200.779
 20
9.12263
 11
200.677
 21
9.02742
  0
LINE
  8
0
 10
200.677
 20
9.02742
 11
200.571
 21
8.93582
  0
LINE
  8
0
 10
200.571
 20
8.93582
 11
200.463
 21
8.84795
  0
LINE
  8
0
 10
200.463
 20
8.84795
 11
200.351
 21
8.76393
  0
LINE
  8
0
 10
200.351
 20
8.76393
 11
200.237
 21
8.68384
  0
LINE
  8
0
 10
200.237
 20
8.68384
 11
200.12
 21
8.6078
  0
LINE
  8
0
 10
200.12
 20
8.6078
 11
200
 21
8.53589
  0
LINE
  8
0
 10
200
 20
8.53589
 11
199.878
 21
8.4682
  0
LINE
  8
0
 10
199.878
 20
8.4682
 11
199.753
 21
8.40482
  0
LINE
  8
0
 10
199.753
 20
8.40482
 11
199.627
 21
8.34581
  0
LINE
  8
0
 10
199.627
 20
8.34581
 11
199.498
 21
8.29126
  0
LINE
  8
0
 10
199.498
 20
8.29126
 11
199.368
 21
8.24123
  0
LINE
  8
0
 10
199.368
 20
8.24123
 11
199.236
 21
8.19577
  0
LINE
  8
0
 10
199.236
 20
8.19577
 11
199.103
 21
8.15495
  0
LINE
  8
0
 10
199.103
 20
8.15495
 11
198.968
 21
8.1188
  0
LINE
  8
0
 10
198.968
 20
8.1188
 11
198.832
 21
8.0874
  0
LINE
  8
0
 10
198.832
 20
8.0874
 11
198.695
 21
8.06076
  0
LINE
  8
0
 10
198.695
 20
8.06076
 11
198.557
 21
8.03893
  0
LINE
  8
0
 10
198.557
 20
8.03893
 11
198.418
 21
8.02191
  0
LINE
  8
0
 10
198.418
 20
8.02191
 11
198.279
 21
8.00974
  0
LINE
  8
0
 10
198.279
 20
8.00974
 11
198.14
 21
8.00243
  0
LINE
  8
0
 10
198.14
 20
8.00243
 11
198
 21
8
  0
ENDSEC
  0
SECTION
  2
OBJECTS
  0
DICTIONARY
  0
ENDSEC
  0
EOF
