  0
SECTION
  2
BLOCKS
  0
ENDSEC
  0
SECTION
  2
ENTITIES
  0
LINE
  8
0
 10
271.649
 20
42.6199
 11
265.998
 21
49.4757
  0
LINE
  8
0
 10
265.998
 20
49.4757
 11
258.392
 21
59.037
  0
LINE
  8
0
 10
258.392
 20
59.037
 11
250.955
 21
68.7295
  0
LINE
  8
0
 10
250.955
 20
68.7295
 11
243.688
 21
78.5503
  0
LINE
  8
0
 10
243.688
 20
78.5503
 11
236.594
 21
88.4965
  0
LINE
  8
0
 10
236.594
 20
88.4965
 11
229.674
 21
98.565
  0
LINE
  8
0
 10
229.674
 20
98.565
 11
222.931
 21
108.753
  0
LINE
  8
0
 10
222.931
 20
108.753
 11
216.366
 21
119.057
  0
LINE
  8
0
 10
216.366
 20
119.057
 11
209.983
 21
129.473
  0
LINE
  8
0
 10
209.983
 20
129.473
 11
203.782
 21
140
  0
LINE
  8
0
 10
203.782
 20
140
 11
197.766
 21
150.633
  0
LINE
  8
0
 10
197.766
 20
150.633
 11
191.937
 21
161.37
  0
LINE
  8
0
 10
191.937
 20
161.37
 11
186.295
 21
172.207
  0
LINE
  8
0
 10
186.295
 20
172.207
 11
180.844
 21
183.14
  0
LINE
  8
0
 10
180.844
 20
183.14
 11
175.585
 21
194.167
  0
LINE
  8
0
 10
175.585
 20
194.167
 11
170.518
 21
205.284
  0
LINE
  8
0
 10
170.518
 20
205.284
 11
165.647
 21
216.488
  0
LINE
  8
0
 10
165.647
 20
216.488
 11
160.971
 21
227.775
  0
LINE
  8
0
 10
160.971
 20
227.775
 11
156.494
 21
239.142
  0
LINE
  8
0
 10
156.494
 20
239.142
 11
152.215
 21
250.586
  0
LINE
  8
0
 10
152.215
 20
250.586
 11
148.137
 21
262.102
  0
LINE
  8
0
 10
148.137
 20
262.102
 11
144.26
 21
273.688
  0
LINE
  8
0
 10
144.26
 20
273.688
 11
140.587
 21
285.34
  0
LINE
  8
0
 10
140.587
 20
285.34
 11
137.117
 21
297.054
  0
LINE
  8
0
 10
137.117
 20
297.054
 11
133.852
 21
308.827
  0
LINE
  8
0
 10
133.852
 20
308.827
 11
130.793
 21
320.655
  0
LINE
  8
0
 10
130.793
 20
320.655
 11
127.941
 21
332.534
  0
LINE
  8
0
 10
127.941
 20
332.534
 11
125.297
 21
344.462
  0
LINE
  8
0
 10
125.297
 20
344.462
 11
122.861
 21
356.434
  0
LINE
  8
0
 10
122.861
 20
356.434
 11
120.635
 21
368.446
  0
LINE
  8
0
 10
120.635
 20
368.446
 11
118.618
 21
380.496
  0
LINE
  8
0
 10
118.618
 20
380.496
 11
116.812
 21
392.579
  0
LINE
  8
0
 10
116.812
 20
392.579
 11
115.218
 21
404.691
  0
LINE
  8
0
 10
115.218
 20
404.691
 11
113.835
 21
416.83
  0
LINE
  8
0
 10
113.835
 20
416.83
 11
112.664
 21
428.991
  0
LINE
  8
0
 10
112.664
 20
428.991
 11
111.705
 21
441.17
  0
LINE
  8
0
 10
111.705
 20
441.17
 11
110.959
 21
453.365
  0
LINE
  8
0
 10
110.959
 20
453.365
 11
110.426
 21
465.57
  0
LINE
  8
0
 10
110.426
 20
465.57
 11
110.107
 21
477.783
  0
LINE
  8
0
 10
110.107
 20
477.783
 11
110
 21
490
  0
LINE
  8
0
 10
110
 20
490
 11
110.107
 21
502.217
  0
LINE
  8
0
 10
110.107
 20
502.217
 11
110.426
 21
514.43
  0
LINE
  8
0
 10
110.426
 20
514.43
 11
110.959
 21
526.635
  0
LINE
  8
0
 10
110.959
 20
526.635
 11
111.705
 21
538.83
  0
LINE
  8
0
 10
111.705
 20
538.83
 11
112.664
 21
551.009
  0
LINE
  8
0
 10
112.664
 20
551.009
 11
113.835
 21
563.17
  0
LINE
  8
0
 10
113.835
 20
563.17
 11
115.218
 21
575.309
  0
LINE
  8
0
 10
115.218
 20
575.309
 11
116.812
 21
587.421
  0
LINE
  8
0
 10
116.812
 20
587.421
 11
118.618
 21
599.504
  0
LINE
  8
0
 10
118.618
 20
599.504
 11
120.635
 21
611.554
  0
LINE
  8
0
 10
120.635
 20
611.554
 11
122.861
 21
623.566
  0
LINE
  8
0
 10
122.861
 20
623.566
 11
125.297
 21
635.538
  0
LINE
  8
0
 10
125.297
 20
635.538
 11
127.941
 21
647.466
  0
LINE
  8
0
 10
127.941
 20
647.466
 11
130.793
 21
659.345
  0
LINE
  8
0
 10
130.793
 20
659.345
 11
133.852
 21
671.173
  0
LINE
  8
0
 10
133.852
 20
671.173
 11
137.117
 21
682.946
  0
LINE
  8
0
 10
137.117
 20
682.946
 11
140.587
 21
694.66
  0
LINE
  8
0
 10
140.587
 20
694.66
 11
144.26
 21
706.312
  0
LINE
  8
0
 10
144.26
 20
706.312
 11
145.494
 21
710
  0
LINE
  8
0
 10
145.494
 20
710
 11
34.128
 21
710
  0
LINE
  8
0
 10
34.128
 20
710
 11
30.1296
 21
674.907
  0
LINE
  8
0
 10
30.1296
 20
674.907
 11
20.9292
 21
579.357
  0
LINE
  8
0
 10
20.9292
 20
579.357
 11
13.3977
 21
483.661
  0
LINE
  8
0
 10
13.3977
 20
483.661
 11
7.53755
 21
387.848
  0
LINE
  8
0
 10
7.53755
 20
387.848
 11
3.35045
 21
291.947
  0
LINE
  8
0
 10
3.35045
 20
291.947
 11
0.837662
 21
195.988
  0
LINE
  8
0
 10
0.837662
 20
195.988
 11
0
 21
100
  0
LINE
  8
0
 10
0
 20
100
 11
0.837662
 21
4.01176
  0
LINE
  8
0
 10
0.837662
 20
4.01176
 11
0.942719
 21
0
  0
LINE
  8
0
 10
0.942719
 20
0
 11
40.001
 21
0
  0
LINE
  8
0
 10
40.001
 20
0
 11
40.6573
 21
1.20882
  0
LINE
  8
0
 10
40.6573
 20
1.20882
 11
41.3878
 21
2.49998
  0
LINE
  8
0
 10
41.3878
 20
2.49998
 11
42.1408
 21
3.77823
  0
LINE
  8
0
 10
42.1408
 20
3.77823
 11
42.9159
 21
5.04314
  0
LINE
  8
0
 10
42.9159
 20
5.04314
 11
43.713
 21
6.29431
  0
LINE
  8
0
 10
43.713
 20
6.29431
 11
44.5318
 21
7.53139
  0
LINE
  8
0
 10
44.5318
 20
7.53139
 11
45.3721
 21
8.75398
  0
LINE
  8
0
 10
45.3721
 20
8.75398
 11
46.2336
 21
9.96175
  0
LINE
  8
0
 10
46.2336
 20
9.96175
 11
47.116
 21
11.1543
  0
LINE
  8
0
 10
47.116
 20
11.1543
 11
48.0191
 21
12.3312
  0
LINE
  8
0
 10
48.0191
 20
12.3312
 11
48.9426
 21
13.4922
  0
LINE
  8
0
 10
48.9426
 20
13.4922
 11
49.8862
 21
14.6369
  0
LINE
  8
0
 10
49.8862
 20
14.6369
 11
50.8497
 21
15.765
  0
LINE
  8
0
 10
50.8497
 20
15.765
 11
51.8327
 21
16.8761
  0
LINE
  8
0
 10
51.8327
 20
16.8761
 11
52.8349
 21
17.9698
  0
LINE
  8
0
 10
52.8349
 20
17.9698
 11
53.8561
 21
19.046
  0
LINE
  8
0
 10
53.8561
 20
19.046
 11
54.8959
 21
20.1041
  0
LINE
  8
0
 10
54.8959
 20
20.1041
 11
55.954
 21
21.1439
  0
LINE
  8
0
 10
55.954
 20
21.1439
 11
57.0301
 21
22.1651
  0
LINE
  8
0
 10
57.0301
 20
22.1651
 11
58.1239
 21
23.1673
  0
LINE
  8
0
 10
58.1239
 20
23.1673
 11
59.235
 21
24.1503
  0
LINE
  8
0
 10
59.235
 20
24.1503
 11
60.3631
 21
25.1138
  0
LINE
  8
0
 10
60.3631
 20
25.1138
 11
61.5078
 21
26.0574
  0
LINE
  8
0
 10
61.5078
 20
26.0574
 11
62.6688
 21
26.9809
  0
LINE
  8
0
 10
62.6688
 20
26.9809
 11
63.8457
 21
27.884
  0
LINE
  8
0
 10
63.8457
 20
27.884
 11
65.0382
 21
28.7664
  0
LINE
  8
0
 10
65.0382
 20
28.7664
 11
66.246
 21
29.6279
  0
LINE
  8
0
 10
66.246
 20
29.6279
 11
67.4686
 21
30.4682
  0
LINE
  8
0
 10
67.4686
 20
30.4682
 11
68.7057
 21
31.287
  0
LINE
  8
0
 10
68.7057
 20
31.287
 11
69.9568
 21
32.0841
  0
LINE
  8
0
 10
69.9568
 20
32.0841
 11
71.2218
 21
32.8592
  0
LINE
  8
0
 10
71.2218
 20
32.8592
 11
72.5
 21
33.6122
  0
LINE
  8
0
 10
72.5
 20
33.6122
 11
73.7912
 21
34.3427
  0
LINE
  8
0
 10
73.7912
 20
34.3427
 11
75.0949
 21
35.0505
  0
LINE
  8
0
 10
75.0949
 20
35.0505
 11
76.4108
 21
35.7355
  0
LINE
  8
0
 10
76.4108
 20
35.7355
 11
77.7384
 21
36.3975
  0
LINE
  8
0
 10
77.7384
 20
36.3975
 11
79.0774
 21
37.0361
  0
LINE
  8
0
 10
79.0774
 20
37.0361
 11
80.4274
 21
37.6514
  0
LINE
  8
0
 10
80.4274
 20
37.6514
 11
81.7878
 21
38.2429
  0
LINE
  8
0
 10
81.7878
 20
38.2429
 11
83.1584
 21
38.8106
  0
LINE
  8
0
 10
83.1584
 20
38.8106
 11
84.5387
 21
39.3543
  0
LINE
  8
0
 10
84.5387
 20
39.3543
 11
85.9283
 21
39.8739
  0
LINE
  8
0
 10
85.9283
 20
39.8739
 11
87.3267
 21
40.3691
  0
LINE
  8
0
 10
87.3267
 20
40.3691
 11
88.7336
 21
40.8398
  0
LINE
  8
0
 10
88.7336
 20
40.8398
 11
90.1484
 21
41.2859
  0
LINE
  8
0
 10
90.1484
 20
41.2859
 11
91.5708
 21
41.7072
  0
LINE
  8
0
 10
91.5708
 20
41.7072
 11
93.0004
 21
42.1037
  0
LINE
  8
0
 10
93.0004
 20
42.1037
 11
94.4366
 21
42.4751
  0
LINE
  8
0
 10
94.4366
 20
42.4751
 11
95.8792
 21
42.8214
  0
LINE
  8
0
 10
95.8792
 20
42.8214
 11
97.3275
 21
43.1425
  0
LINE
  8
0
 10
97.3275
 20
43.1425
 11
98.7812
 21
43.4383
  0
LINE
  8
0
 10
98.7812
 20
43.4383
 11
100.24
 21
43.7086
  0
LINE
  8
0
 10
100.24
 20
43.7086
 11
101.703
 21
43.9535
  0
LINE
  8
0
 10
101.703
 20
43.9535
 11
103.17
 21
44.1728
  0
LINE
  8
0
 10
103.17
 20
44.1728
 11
104.641
 21
44.3664
  0
LINE
  8
0
 10
104.641
 20
44.3664
 11
106.115
 21
44.5343
  0
LINE
  8
0
 10
106.115
 20
44.5343
 11
107.592
 21
44.6765
  0
LINE
  8
0
 10
107.592
 20
44.6765
 11
109.071
 21
44.7929
  0
LINE
  8
0
 10
109.071
 20
44.7929
 11
110.551
 21
44.8835
  0
LINE
  8
0
 10
110.551
 20
44.8835
 11
112.034
 21
44.9482
  0
LINE
  8
0
 10
112.034
 20
44.9482
 11
113.517
 21
44.987
  0
LINE
  8
0
 10
113.517
 20
44.987
 11
115
 21
45
  0
LINE
  8
0
 10
115
 20
45
 11
116.483
 21
44.987
  0
LINE
  8
0
 10
116.483
 20
44.987
 11
117.966
 21
44.9482
  0
LINE
  8
0
 10
117.966
 20
44.9482
 11
119.449
 21
44.8835
  0
LINE
  8
0
 10
119.449
 20
44.8835
 11
120.929
 21
44.7929
  0
LINE
  8
0
 10
120.929
 20
44.7929
 11
122.408
 21
44.6765
  0
LINE
  8
0
 10
122.408
 20
44.6765
 11
123.885
 21
44.5343
  0
LINE
  8
0
 10
123.885
 20
44.5343
 11
125.359
 21
44.3664
  0
LINE
  8
0
 10
125.359
 20
44.3664
 11
126.83
 21
44.1728
  0
LINE
  8
0
 10
126.83
 20
44.1728
 11
128.297
 21
43.9535
  0
LINE
  8
0
 10
128.297
 20
43.9535
 11
129.76
 21
43.7086
  0
LINE
  8
0
 10
129.76
 20
43.7086
 11
131.219
 21
43.4383
  0
LINE
  8
0
 10
131.219
 20
43.4383
 11
132.672
 21
43.1425
  0
LINE
  8
0
 10
132.672
 20
43.1425
 11
134.121
 21
42.8214
  0
LINE
  8
0
 10
134.121
 20
42.8214
 11
135.563
 21
42.4751
  0
LINE
  8
0
 10
135.563
 20
42.4751
 11
137
 21
42.1037
  0
LINE
  8
0
 10
137
 20
42.1037
 11
138.429
 21
41.7072
  0
LINE
  8
0
 10
138.429
 20
41.7072
 11
139.852
 21
41.2859
  0
LINE
  8
0
 10
139.852
 20
41.2859
 11
141.266
 21
40.8398
  0
LINE
  8
0
 10
141.266
 20
40.8398
 11
142.673
 21
40.3691
  0
LINE
  8
0
 10
142.673
 20
40.3691
 11
144.072
 21
39.8739
  0
LINE
  8
0
 10
144.072
 20
39.8739
 11
145.461
 21
39.3543
  0
LINE
  8
0
 10
145.461
 20
39.3543
 11
146.842
 21
38.8106
  0
LINE
  8
0
 10
146.842
 20
38.8106
 11
148.212
 21
38.2429
  0
LINE
  8
0
 10
148.212
 20
38.2429
 11
149.573
 21
37.6514
  0
LINE
  8
0
 10
149.573
 20
37.6514
 11
150.923
 21
37.0361
  0
LINE
  8
0
 10
150.923
 20
37.0361
 11
152.262
 21
36.3975
  0
LINE
  8
0
 10
152.262
 20
36.3975
 11
153.589
 21
35.7355
  0
LINE
  8
0
 10
153.589
 20
35.7355
 11
154.905
 21
35.0505
  0
LINE
  8
0
 10
154.905
 20
35.0505
 11
156.209
 21
34.3427
  0
LINE
  8
0
 10
156.209
 20
34.3427
 11
157.5
 21
33.6122
  0
LINE
  8
0
 10
157.5
 20
33.6122
 11
158.778
 21
32.8592
  0
LINE
  8
0
 10
158.778
 20
32.8592
 11
160.043
 21
32.0841
  0
LINE
  8
0
 10
160.043
 20
32.0841
 11
161.294
 21
31.287
  0
LINE
  8
0
 10
161.294
 20
31.287
 11
162.531
 21
30.4682
  0
LINE
  8
0
 10
162.531
 20
30.4682
 11
163.754
 21
29.6279
  0
LINE
  8
0
 10
163.754
 20
29.6279
 11
164.962
 21
28.7664
  0
LINE
  8
0
 10
164.962
 20
28.7664
 11
166.154
 21
27.884
  0
LINE
  8
0
 10
166.154
 20
27.884
 11
167.331
 21
26.9809
  0
LINE
  8
0
 10
167.331
 20
26.9809
 11
168.492
 21
26.0574
  0
LINE
  8
0
 10
168.492
 20
26.0574
 11
169.637
 21
25.1138
  0
LINE
  8
0
 10
169.637
 20
25.1138
 11
170.765
 21
24.1503
  0
LINE
  8
0
 10
170.765
 20
24.1503
 11
171.876
 21
23.1673
  0
LINE
  8
0
 10
171.876
 20
23.1673
 11
172.97
 21
22.1651
  0
LINE
  8
0
 10
172.97
 20
22.1651
 11
174.046
 21
21.1439
  0
LINE
  8
0
 10
174.046
 20
21.1439
 11
175.104
 21
20.1041
  0
LINE
  8
0
 10
175.104
 20
20.1041
 11
176.144
 21
19.046
  0
LINE
  8
0
 10
176.144
 20
19.046
 11
177.165
 21
17.9698
  0
LINE
  8
0
 10
177.165
 20
17.9698
 11
178.167
 21
16.8761
  0
LINE
  8
0
 10
178.167
 20
16.8761
 11
179.15
 21
15.765
  0
LINE
  8
0
 10
179.15
 20
15.765
 11
180.114
 21
14.6369
  0
LINE
  8
0
 10
180.114
 20
14.6369
 11
181.057
 21
13.4922
  0
LINE
  8
0
 10
181.057
 20
13.4922
 11
181.981
 21
12.3312
  0
LINE
  8
0
 10
181.981
 20
12.3312
 11
182.884
 21
11.1543
  0
LINE
  8
0
 10
182.884
 20
11.1543
 11
183.766
 21
9.96175
  0
LINE
  8
0
 10
183.766
 20
9.96175
 11
184.628
 21
8.75398
  0
LINE
  8
0
 10
184.628
 20
8.75398
 11
185.468
 21
7.53139
  0
LINE
  8
0
 10
185.468
 20
7.53139
 11
186.287
 21
6.29431
  0
LINE
  8
0
 10
186.287
 20
6.29431
 11
187.084
 21
5.04314
  0
LINE
  8
0
 10
187.084
 20
5.04314
 11
187.859
 21
3.77823
  0
LINE
  8
0
 10
187.859
 20
3.77823
 11
188.612
 21
2.49998
  0
LINE
  8
0
 10
188.612
 20
2.49998
 11
189.343
 21
1.20882
  0
LINE
  8
0
 10
189.343
 20
1.20882
 11
189.999
 21
0
  0
LINE
  8
0
 10
189.999
 20
0
 11
230.492
 21
0
  0
LINE
  8
0
 10
230.492
 20
0
 11
271.649
 21
42.6199
  0
LINE
  8
0
 10
49
 20
692
 11
48.8604
 21
692.002
  0
LINE
  8
0
 10
48.8604
 20
692.002
 11
48.721
 21
692.01
  0
LINE
  8
0
 10
48.721
 20
692.01
 11
48.5819
 21
692.022
  0
LINE
  8
0
 10
48.5819
 20
692.022
 11
48.4433
 21
692.039
  0
LINE
  8
0
 10
48.4433
 20
692.039
 11
48.3054
 21
692.061
  0
LINE
  8
0
 10
48.3054
 20
692.061
 11
48.1684
 21
692.087
  0
LINE
  8
0
 10
48.1684
 20
692.087
 11
48.0323
 21
692.119
  0
LINE
  8
0
 10
48.0323
 20
692.119
 11
47.8974
 21
692.155
  0
LINE
  8
0
 10
47.8974
 20
692.155
 11
47.7639
 21
692.196
  0
LINE
  8
0
 10
47.7639
 20
692.196
 11
47.6319
 21
692.241
  0
LINE
  8
0
 10
47.6319
 20
692.241
 11
47.5016
 21
692.291
  0
LINE
  8
0
 10
47.5016
 20
692.291
 11
47.373
 21
692.346
  0
LINE
  8
0
 10
47.373
 20
692.346
 11
47.2465
 21
692.405
  0
LINE
  8
0
 10
47.2465
 20
692.405
 11
47.1221
 21
692.468
  0
LINE
  8
0
 10
47.1221
 20
692.468
 11
47
 21
692.536
  0
LINE
  8
0
 10
47
 20
692.536
 11
46.8803
 21
692.608
  0
LINE
  8
0
 10
46.8803
 20
692.608
 11
46.7632
 21
692.684
  0
LINE
  8
0
 10
46.7632
 20
692.684
 11
46.6488
 21
692.764
  0
LINE
  8
0
 10
46.6488
 20
692.764
 11
46.5374
 21
692.848
  0
LINE
  8
0
 10
46.5374
 20
692.848
 11
46.4288
 21
692.936
  0
LINE
  8
0
 10
46.4288
 20
692.936
 11
46.3235
 21
693.027
  0
LINE
  8
0
 10
46.3235
 20
693.027
 11
46.2214
 21
693.123
  0
LINE
  8
0
 10
46.2214
 20
693.123
 11
46.1226
 21
693.221
  0
LINE
  8
0
 10
46.1226
 20
693.221
 11
46.0274
 21
693.323
  0
LINE
  8
0
 10
46.0274
 20
693.323
 11
45.9358
 21
693.429
  0
LINE
  8
0
 10
45.9358
 20
693.429
 11
45.8479
 21
693.537
  0
LINE
  8
0
 10
45.8479
 20
693.537
 11
45.7639
 21
693.649
  0
LINE
  8
0
 10
45.7639
 20
693.649
 11
45.6838
 21
693.763
  0
LINE
  8
0
 10
45.6838
 20
693.763
 11
45.6078
 21
693.88
  0
LINE
  8
0
 10
45.6078
 20
693.88
 11
45.5359
 21
694
  0
LINE
  8
0
 10
45.5359
 20
694
 11
45.4682
 21
694.122
  0
LINE
  8
0
 10
45.4682
 20
694.122
 11
45.4048
 21
694.247
  0
LINE
  8
0
 10
45.4048
 20
694.247
 11
45.3458
 21
694.373
  0
LINE
  8
0
 10
45.3458
 20
694.373
 11
45.2913
 21
694.502
  0
LINE
  8
0
 10
45.2913
 20
694.502
 11
45.2412
 21
694.632
  0
LINE
  8
0
 10
45.2412
 20
694.632
 11
45.1958
 21
694.764
  0
LINE
  8
0
 10
45.1958
 20
694.764
 11
45.155
 21
694.897
  0
LINE
  8
0
 10
45.155
 20
694.897
 11
45.1188
 21
695.032
  0
LINE
  8
0
 10
45.1188
 20
695.032
 11
45.0874
 21
695.168
  0
LINE
  8
0
 10
45.0874
 20
695.168
 11
45.0608
 21
695.305
  0
LINE
  8
0
 10
45.0608
 20
695.305
 11
45.0389
 21
695.443
  0
LINE
  8
0
 10
45.0389
 20
695.443
 11
45.0219
 21
695.582
  0
LINE
  8
0
 10
45.0219
 20
695.582
 11
45.0097
 21
695.721
  0
LINE
  8
0
 10
45.0097
 20
695.721
 11
45.0024
 21
695.86
  0
LINE
  8
0
 10
45.0024
 20
695.86
 11
45
 21
696
  0
LINE
  8
0
 10
45
 20
696
 11
45.0024
 21
696.14
  0
LINE
  8
0
 10
45.0024
 20
696.14
 11
45.0097
 21
696.279
  0
LINE
  8
0
 10
45.0097
 20
696.279
 11
45.0219
 21
696.418
  0
LINE
  8
0
 10
45.0219
 20
696.418
 11
45.0389
 21
696.557
  0
LINE
  8
0
 10
45.0389
 20
696.557
 11
45.0608
 21
696.695
  0
LINE
  8
0
 10
45.0608
 20
696.695
 11
45.0874
 21
696.832
  0
LINE
  8
0
 10
45.0874
 20
696.832
 11
45.1188
 21
696.968
  0
LINE
  8
0
 10
45.1188
 20
696.968
 11
45.155
 21
697.103
  0
LINE
  8
0
 10
45.155
 20
697.103
 11
45.1958
 21
697.236
  0
LINE
  8
0
 10
45.1958
 20
697.236
 11
45.2412
 21
697.368
  0
LINE
  8
0
 10
45.2412
 20
697.368
 11
45.2913
 21
697.498
  0
LINE
  8
0
 10
45.2913
 20
697.498
 11
45.3458
 21
697.627
  0
LINE
  8
0
 10
45.3458
 20
697.627
 11
45.4048
 21
697.753
  0
LINE
  8
0
 10
45.4048
 20
697.753
 11
45.4682
 21
697.878
  0
LINE
  8
0
 10
45.4682
 20
697.878
 11
45.5359
 21
698
  0
LINE
  8
0
 10
45.5359
 20
698
 11
45.6078
 21
698.12
  0
LINE
  8
0
 10
45.6078
 20
698.12
 11
45.6838
 21
698.237
  0
LINE
  8
0
 10
45.6838
 20
698.237
 11
45.7639
 21
698.351
  0
LINE
  8
0
 10
45.7639
 20
698.351
 11
45.8479
 21
698.463
  0
LINE
  8
0
 10
45.8479
 20
698.463
 11
45.9358
 21
698.571
  0
LINE
  8
0
 10
45.9358
 20
698.571
 11
46.0274
 21
698.677
  0
LINE
  8
0
 10
46.0274
 20
698.677
 11
46.1226
 21
698.779
  0
LINE
  8
0
 10
46.1226
 20
698.779
 11
46.2214
 21
698.877
  0
LINE
  8
0
 10
46.2214
 20
698.877
 11
46.3235
 21
698.973
  0
LINE
  8
0
 10
46.3235
 20
698.973
 11
46.4288
 21
699.064
  0
LINE
  8
0
 10
46.4288
 20
699.064
 11
46.5374
 21
699.152
  0
LINE
  8
0
 10
46.5374
 20
699.152
 11
46.6488
 21
699.236
  0
LINE
  8
0
 10
46.6488
 20
699.236
 11
46.7632
 21
699.316
  0
LINE
  8
0
 10
46.7632
 20
699.316
 11
46.8803
 21
699.392
  0
LINE
  8
0
 10
46.8803
 20
699.392
 11
47
 21
699.464
  0
LINE
  8
0
 10
47
 20
699.464
 11
47.1221
 21
699.532
  0
LINE
  8
0
 10
47.1221
 20
699.532
 11
47.2465
 21
699.595
  0
LINE
  8
0
 10
47.2465
 20
699.595
 11
47.373
 21
699.654
  0
LINE
  8
0
 10
47.373
 20
699.654
 11
47.5016
 21
699.709
  0
LINE
  8
0
 10
47.5016
 20
699.709
 11
47.6319
 21
699.759
  0
LINE
  8
0
 10
47.6319
 20
699.759
 11
47.7639
 21
699.804
  0
LINE
  8
0
 10
47.7639
 20
699.804
 11
47.8974
 21
699.845
  0
LINE
  8
0
 10
47.8974
 20
699.845
 11
48.0323
 21
699.881
  0
LINE
  8
0
 10
48.0323
 20
699.881
 11
48.1684
 21
699.913
  0
LINE
  8
0
 10
48.1684
 20
699.913
 11
48.3054
 21
699.939
  0
LINE
  8
0
 10
48.3054
 20
699.939
 11
48.4433
 21
699.961
  0
LINE
  8
0
 10
48.4433
 20
699.961
 11
48.5819
 21
699.978
  0
LINE
  8
0
 10
48.5819
 20
699.978
 11
48.721
 21
699.99
  0
LINE
  8
0
 10
48.721
 20
699.99
 11
48.8604
 21
699.998
  0
LINE
  8
0
 10
48.8604
 20
699.998
 11
49
 21
700
  0
LINE
  8
0
 10
49
 20
700
 11
49.1396
 21
699.998
  0
LINE
  8
0
 10
49.1396
 20
699.998
 11
49.279
 21
699.99
  0
LINE
  8
0
 10
49.279
 20
699.99
 11
49.4181
 21
699.978
  0
LINE
  8
0
 10
49.4181
 20
699.978
 11
49.5567
 21
699.961
  0
LINE
  8
0
 10
49.5567
 20
699.961
 11
49.6946
 21
699.939
  0
LINE
  8
0
 10
49.6946
 20
699.939
 11
49.8316
 21
699.913
  0
LINE
  8
0
 10
49.8316
 20
699.913
 11
49.9677
 21
699.881
  0
LINE
  8
0
 10
49.9677
 20
699.881
 11
50.1025
 21
699.845
  0
LINE
  8
0
 10
50.1025
 20
699.845
 11
50.2361
 21
699.804
  0
LINE
  8
0
 10
50.2361
 20
699.804
 11
50.3681
 21
699.759
  0
LINE
  8
0
 10
50.3681
 20
699.759
 11
50.4984
 21
699.709
  0
LINE
  8
0
 10
50.4984
 20
699.709
 11
50.6269
 21
699.654
  0
LINE
  8
0
 10
50.6269
 20
699.654
 11
50.7535
 21
699.595
  0
LINE
  8
0
 10
50.7535
 20
699.595
 11
50.8779
 21
699.532
  0
LINE
  8
0
 10
50.8779
 20
699.532
 11
51
 21
699.464
  0
LINE
  8
0
 10
51
 20
699.464
 11
51.1197
 21
699.392
  0
LINE
  8
0
 10
51.1197
 20
699.392
 11
51.2368
 21
699.316
  0
LINE
  8
0
 10
51.2368
 20
699.316
 11
51.3511
 21
699.236
  0
LINE
  8
0
 10
51.3511
 20
699.236
 11
51.4626
 21
699.152
  0
LINE
  8
0
 10
51.4626
 20
699.152
 11
51.5711
 21
699.064
  0
LINE
  8
0
 10
51.5711
 20
699.064
 11
51.6765
 21
698.973
  0
LINE
  8
0
 10
51.6765
 20
698.973
 11
51.7786
 21
698.877
  0
LINE
  8
0
 10
51.7786
 20
698.877
 11
51.8773
 21
698.779
  0
LINE
  8
0
 10
51.8773
 20
698.779
 11
51.9726
 21
698.677
  0
LINE
  8
0
 10
51.9726
 20
698.677
 11
52.0642
 21
698.571
  0
LINE
  8
0
 10
52.0642
 20
698.571
 11
52.152
 21
698.463
  0
LINE
  8
0
 10
52.152
 20
698.463
 11
52.2361
 21
698.351
  0
LINE
  8
0
 10
52.2361
 20
698.351
 11
52.3161
 21
698.237
  0
LINE
  8
0
 10
52.3161
 20
698.237
 11
52.3922
 21
698.12
  0
LINE
  8
0
 10
52.3922
 20
698.12
 11
52.4641
 21
698
  0
LINE
  8
0
 10
52.4641
 20
698
 11
52.5318
 21
697.878
  0
LINE
  8
0
 10
52.5318
 20
697.878
 11
52.5952
 21
697.753
  0
LINE
  8
0
 10
52.5952
 20
697.753
 11
52.6542
 21
697.627
  0
LINE
  8
0
 10
52.6542
 20
697.627
 11
52.7087
 21
697.498
  0
LINE
  8
0
 10
52.7087
 20
697.498
 11
52.7588
 21
697.368
  0
LINE
  8
0
 10
52.7588
 20
697.368
 11
52.8042
 21
697.236
  0
LINE
  8
0
 10
52.8042
 20
697.236
 11
52.845
 21
697.103
  0
LINE
  8
0
 10
52.845
 20
697.103
 11
52.8812
 21
696.968
  0
LINE
  8
0
 10
52.8812
 20
696.968
 11
52.9126
 21
696.832
  0
LINE
  8
0
 10
52.9126
 20
696.832
 11
52.9392
 21
696.695
  0
LINE
  8
0
 10
52.9392
 20
696.695
 11
52.9611
 21
696.557
  0
LINE
  8
0
 10
52.9611
 20
696.557
 11
52.9781
 21
696.418
  0
LINE
  8
0
 10
52.9781
 20
696.418
 11
52.9902
 21
696.279
  0
LINE
  8
0
 10
52.9902
 20
696.279
 11
52.9976
 21
696.14
  0
LINE
  8
0
 10
52.9976
 20
696.14
 11
53
 21
696
  0
LINE
  8
0
 10
53
 20
696
 11
52.9976
 21
695.86
  0
LINE
  8
0
 10
52.9976
 20
695.86
 11
52.9902
 21
695.721
  0
LINE
  8
0
 10
52.9902
 20
695.721
 11
52.9781
 21
695.582
  0
LINE
  8
0
 10
52.9781
 20
695.582
 11
52.9611
 21
695.443
  0
LINE
  8
0
 10
52.9611
 20
695.443
 11
52.9392
 21
695.305
  0
LINE
  8
0
 10
52.9392
 20
695.305
 11
52.9126
 21
695.168
  0
LINE
  8
0
 10
52.9126
 20
695.168
 11
52.8812
 21
695.032
  0
LINE
  8
0
 10
52.8812
 20
695.032
 11
52.845
 21
694.897
  0
LINE
  8
0
 10
52.845
 20
694.897
 11
52.8042
 21
694.764
  0
LINE
  8
0
 10
52.8042
 20
694.764
 11
52.7588
 21
694.632
  0
LINE
  8
0
 10
52.7588
 20
694.632
 11
52.7087
 21
694.502
  0
LINE
  8
0
 10
52.7087
 20
694.502
 11
52.6542
 21
694.373
  0
LINE
  8
0
 10
52.6542
 20
694.373
 11
52.5952
 21
694.247
  0
LINE
  8
0
 10
52.5952
 20
694.247
 11
52.5318
 21
694.122
  0
LINE
  8
0
 10
52.5318
 20
694.122
 11
52.4641
 21
694
  0
LINE
  8
0
 10
52.4641
 20
694
 11
52.3922
 21
693.88
  0
LINE
  8
0
 10
52.3922
 20
693.88
 11
52.3161
 21
693.763
  0
LINE
  8
0
 10
52.3161
 20
693.763
 11
52.2361
 21
693.649
  0
LINE
  8
0
 10
52.2361
 20
693.649
 11
52.152
 21
693.537
  0
LINE
  8
0
 10
52.152
 20
693.537
 11
52.0642
 21
693.429
  0
LINE
  8
0
 10
52.0642
 20
693.429
 11
51.9726
 21
693.323
  0
LINE
  8
0
 10
51.9726
 20
693.323
 11
51.8773
 21
693.221
  0
LINE
  8
0
 10
51.8773
 20
693.221
 11
51.7786
 21
693.123
  0
LINE
  8
0
 10
51.7786
 20
693.123
 11
51.6765
 21
693.027
  0
LINE
  8
0
 10
51.6765
 20
693.027
 11
51.5711
 21
692.936
  0
LINE
  8
0
 10
51.5711
 20
692.936
 11
51.4626
 21
692.848
  0
LINE
  8
0
 10
51.4626
 20
692.848
 11
51.3511
 21
692.764
  0
LINE
  8
0
 10
51.3511
 20
692.764
 11
51.2368
 21
692.684
  0
LINE
  8
0
 10
51.2368
 20
692.684
 11
51.1197
 21
692.608
  0
LINE
  8
0
 10
51.1197
 20
692.608
 11
51
 21
692.536
  0
LINE
  8
0
 10
51
 20
692.536
 11
50.8779
 21
692.468
  0
LINE
  8
0
 10
50.8779
 20
692.468
 11
50.7535
 21
692.405
  0
LINE
  8
0
 10
50.7535
 20
692.405
 11
50.6269
 21
692.346
  0
LINE
  8
0
 10
50.6269
 20
692.346
 11
50.4984
 21
692.291
  0
LINE
  8
0
 10
50.4984
 20
692.291
 11
50.3681
 21
692.241
  0
LINE
  8
0
 10
50.3681
 20
692.241
 11
50.2361
 21
692.196
  0
LINE
  8
0
 10
50.2361
 20
692.196
 11
50.1025
 21
692.155
  0
LINE
  8
0
 10
50.1025
 20
692.155
 11
49.9677
 21
692.119
  0
LINE
  8
0
 10
49.9677
 20
692.119
 11
49.8316
 21
692.087
  0
LINE
  8
0
 10
49.8316
 20
692.087
 11
49.6946
 21
692.061
  0
LINE
  8
0
 10
49.6946
 20
692.061
 11
49.5567
 21
692.039
  0
LINE
  8
0
 10
49.5567
 20
692.039
 11
49.4181
 21
692.022
  0
LINE
  8
0
 10
49.4181
 20
692.022
 11
49.279
 21
692.01
  0
LINE
  8
0
 10
49.279
 20
692.01
 11
49.1396
 21
692.002
  0
LINE
  8
0
 10
49.1396
 20
692.002
 11
49
 21
692
  0
LINE
  8
0
 10
77.6831
 20
564.094
 11
103.251
 21
695.632
  0
LINE
  8
0
 10
103.251
 20
695.632
 11
132.7
 21
689.908
  0
LINE
  8
0
 10
132.7
 20
689.908
 11
107.132
 21
558.37
  0
LINE
  8
0
 10
107.132
 20
558.37
 11
77.6831
 21
564.094
  0
LINE
  8
0
 10
77
 20
423
 11
77
 21
557
  0
LINE
  8
0
 10
77
 20
557
 11
107
 21
557
  0
LINE
  8
0
 10
107
 20
557
 11
107
 21
423
  0
LINE
  8
0
 10
107
 20
423
 11
77
 21
423
  0
LINE
  8
0
 10
48.8604
 20
510.001
 11
48.7208
 21
510.005
  0
LINE
  8
0
 10
48.7208
 20
510.005
 11
48.5813
 21
510.011
  0
LINE
  8
0
 10
48.5813
 20
510.011
 11
48.4419
 21
510.019
  0
LINE
  8
0
 10
48.4419
 20
510.019
 11
48.3027
 21
510.03
  0
LINE
  8
0
 10
48.3027
 20
510.03
 11
48.1638
 21
510.044
  0
LINE
  8
0
 10
48.1638
 20
510.044
 11
48.025
 21
510.06
  0
LINE
  8
0
 10
48.025
 20
510.06
 11
47.8866
 21
510.078
  0
LINE
  8
0
 10
47.8866
 20
510.078
 11
47.7485
 21
510.098
  0
LINE
  8
0
 10
47.7485
 20
510.098
 11
47.6108
 21
510.122
  0
LINE
  8
0
 10
47.6108
 20
510.122
 11
47.4735
 21
510.147
  0
LINE
  8
0
 10
47.4735
 20
510.147
 11
47.3367
 21
510.175
  0
LINE
  8
0
 10
47.3367
 20
510.175
 11
47.2004
 21
510.205
  0
LINE
  8
0
 10
47.2004
 20
510.205
 11
47.0646
 21
510.238
  0
LINE
  8
0
 10
47.0646
 20
510.238
 11
46.9294
 21
510.273
  0
LINE
  8
0
 10
46.9294
 20
510.273
 11
46.7949
 21
510.31
  0
LINE
  8
0
 10
46.7949
 20
510.31
 11
46.661
 21
510.35
  0
LINE
  8
0
 10
46.661
 20
510.35
 11
46.5279
 21
510.392
  0
LINE
  8
0
 10
46.5279
 20
510.392
 11
46.3954
 21
510.436
  0
LINE
  8
0
 10
46.3954
 20
510.436
 11
46.2638
 21
510.482
  0
LINE
  8
0
 10
46.2638
 20
510.482
 11
46.133
 21
510.531
  0
LINE
  8
0
 10
46.133
 20
510.531
 11
46.0031
 21
510.583
  0
LINE
  8
0
 10
46.0031
 20
510.583
 11
45.8741
 21
510.636
  0
LINE
  8
0
 10
45.8741
 20
510.636
 11
45.7461
 21
510.692
  0
LINE
  8
0
 10
45.7461
 20
510.692
 11
45.619
 21
510.75
  0
LINE
  8
0
 10
45.619
 20
510.75
 11
45.493
 21
510.81
  0
LINE
  8
0
 10
45.493
 20
510.81
 11
45.3681
 21
510.872
  0
LINE
  8
0
 10
45.3681
 20
510.872
 11
45.2442
 21
510.936
  0
LINE
  8
0
 10
45.2442
 20
510.936
 11
45.1215
 21
511.003
  0
LINE
  8
0
 10
45.1215
 20
511.003
 11
45
 21
511.072
  0
LINE
  8
0
 10
45
 20
511.072
 11
44.8797
 21
511.143
  0
LINE
  8
0
 10
44.8797
 20
511.143
 11
44.7606
 21
511.216
  0
LINE
  8
0
 10
44.7606
 20
511.216
 11
44.6429
 21
511.291
  0
LINE
  8
0
 10
44.6429
 20
511.291
 11
44.5264
 21
511.368
  0
LINE
  8
0
 10
44.5264
 20
511.368
 11
44.4114
 21
511.447
  0
LINE
  8
0
 10
44.4114
 20
511.447
 11
44.2977
 21
511.528
  0
LINE
  8
0
 10
44.2977
 20
511.528
 11
44.1855
 21
511.611
  0
LINE
  8
0
 10
44.1855
 20
511.611
 11
44.0747
 21
511.696
  0
LINE
  8
0
 10
44.0747
 20
511.696
 11
43.9654
 21
511.783
  0
LINE
  8
0
 10
43.9654
 20
511.783
 11
43.8577
 21
511.872
  0
LINE
  8
0
 10
43.8577
 20
511.872
 11
43.7515
 21
511.962
  0
LINE
  8
0
 10
43.7515
 20
511.962
 11
43.6469
 21
512.055
  0
LINE
  8
0
 10
43.6469
 20
512.055
 11
43.544
 21
512.149
  0
LINE
  8
0
 10
43.544
 20
512.149
 11
43.4427
 21
512.245
  0
LINE
  8
0
 10
43.4427
 20
512.245
 11
43.3431
 21
512.343
  0
LINE
  8
0
 10
43.3431
 20
512.343
 11
43.2453
 21
512.443
  0
LINE
  8
0
 10
43.2453
 20
512.443
 11
43.1492
 21
512.544
  0
LINE
  8
0
 10
43.1492
 20
512.544
 11
43.0548
 21
512.647
  0
LINE
  8
0
 10
43.0548
 20
512.647
 11
42.9623
 21
512.752
  0
LINE
  8
0
 10
42.9623
 20
512.752
 11
42.8716
 21
512.858
  0
LINE
  8
0
 10
42.8716
 20
512.858
 11
42.7828
 21
512.965
  0
LINE
  8
0
 10
42.7828
 20
512.965
 11
42.6959
 21
513.075
  0
LINE
  8
0
 10
42.6959
 20
513.075
 11
42.6109
 21
513.185
  0
LINE
  8
0
 10
42.6109
 20
513.185
 11
42.5279
 21
513.298
  0
LINE
  8
0
 10
42.5279
 20
513.298
 11
42.4468
 21
513.411
  0
LINE
  8
0
 10
42.4468
 20
513.411
 11
42.3677
 21
513.526
  0
LINE
  8
0
 10
42.3677
 20
513.526
 11
42.2906
 21
513.643
  0
LINE
  8
0
 10
42.2906
 20
513.643
 11
42.2156
 21
513.761
  0
LINE
  8
0
 10
42.2156
 20
513.761
 11
42.1427
 21
513.88
  0
LINE
  8
0
 10
42.1427
 20
513.88
 11
42.0718
 21
514
  0
LINE
  8
0
 10
42.0718
 20
514
 11
42.003
 21
514.122
  0
LINE
  8
0
 10
42.003
 20
514.122
 11
41.9364
 21
514.244
  0
LINE
  8
0
 10
41.9364
 20
514.244
 11
41.8719
 21
514.368
  0
LINE
  8
0
 10
41.8719
 20
514.368
 11
41.8096
 21
514.493
  0
LINE
  8
0
 10
41.8096
 20
514.493
 11
41.7495
 21
514.619
  0
LINE
  8
0
 10
41.7495
 20
514.619
 11
41.6916
 21
514.746
  0
LINE
  8
0
 10
41.6916
 20
514.746
 11
41.636
 21
514.874
  0
LINE
  8
0
 10
41.636
 20
514.874
 11
41.5825
 21
515.003
  0
LINE
  8
0
 10
41.5825
 20
515.003
 11
41.5313
 21
515.133
  0
LINE
  8
0
 10
41.5313
 20
515.133
 11
41.4825
 21
515.264
  0
LINE
  8
0
 10
41.4825
 20
515.264
 11
41.4358
 21
515.395
  0
LINE
  8
0
 10
41.4358
 20
515.395
 11
41.3915
 21
515.528
  0
LINE
  8
0
 10
41.3915
 20
515.528
 11
41.3495
 21
515.661
  0
LINE
  8
0
 10
41.3495
 20
515.661
 11
41.3099
 21
515.795
  0
LINE
  8
0
 10
41.3099
 20
515.795
 11
41.2726
 21
515.929
  0
LINE
  8
0
 10
41.2726
 20
515.929
 11
41.2376
 21
516.065
  0
LINE
  8
0
 10
41.2376
 20
516.065
 11
41.205
 21
516.2
  0
LINE
  8
0
 10
41.205
 20
516.2
 11
41.1748
 21
516.337
  0
LINE
  8
0
 10
41.1748
 20
516.337
 11
41.147
 21
516.474
  0
LINE
  8
0
 10
41.147
 20
516.474
 11
41.1215
 21
516.611
  0
LINE
  8
0
 10
41.1215
 20
516.611
 11
41.0985
 21
516.749
  0
LINE
  8
0
 10
41.0985
 20
516.749
 11
41.0779
 21
516.887
  0
LINE
  8
0
 10
41.0779
 20
516.887
 11
41.0596
 21
517.025
  0
LINE
  8
0
 10
41.0596
 20
517.025
 11
41.0438
 21
517.164
  0
LINE
  8
0
 10
41.0438
 20
517.164
 11
41.0304
 21
517.303
  0
LINE
  8
0
 10
41.0304
 20
517.303
 11
41.0195
 21
517.442
  0
LINE
  8
0
 10
41.0195
 20
517.442
 11
41.011
 21
517.581
  0
LINE
  8
0
 10
41.011
 20
517.581
 11
41.0049
 21
517.721
  0
LINE
  8
0
 10
41.0049
 20
517.721
 11
41.0012
 21
517.86
  0
LINE
  8
0
 10
41.0012
 20
517.86
 11
41
 21
518
  0
LINE
  8
0
 10
41
 20
518
 11
41.0012
 21
518.14
  0
LINE
  8
0
 10
41.0012
 20
518.14
 11
41.0049
 21
518.279
  0
LINE
  8
0
 10
41.0049
 20
518.279
 11
41.011
 21
518.419
  0
LINE
  8
0
 10
41.011
 20
518.419
 11
41.0195
 21
518.558
  0
LINE
  8
0
 10
41.0195
 20
518.558
 11
41.0304
 21
518.697
  0
LINE
  8
0
 10
41.0304
 20
518.697
 11
41.0438
 21
518.836
  0
LINE
  8
0
 10
41.0438
 20
518.836
 11
41.0596
 21
518.975
  0
LINE
  8
0
 10
41.0596
 20
518.975
 11
41.0779
 21
519.113
  0
LINE
  8
0
 10
41.0779
 20
519.113
 11
41.0985
 21
519.251
  0
LINE
  8
0
 10
41.0985
 20
519.251
 11
41.1215
 21
519.389
  0
LINE
  8
0
 10
41.1215
 20
519.389
 11
41.147
 21
519.526
  0
LINE
  8
0
 10
41.147
 20
519.526
 11
41.1748
 21
519.663
  0
LINE
  8
0
 10
41.1748
 20
519.663
 11
41.205
 21
519.8
  0
LINE
  8
0
 10
41.205
 20
519.8
 11
41.2376
 21
519.935
  0
LINE
  8
0
 10
41.2376
 20
519.935
 11
41.2726
 21
520.071
  0
LINE
  8
0
 10
41.2726
 20
520.071
 11
41.3099
 21
520.205
  0
LINE
  8
0
 10
41.3099
 20
520.205
 11
41.3495
 21
520.339
  0
LINE
  8
0
 10
41.3495
 20
520.339
 11
41.3915
 21
520.472
  0
LINE
  8
0
 10
41.3915
 20
520.472
 11
41.4358
 21
520.605
  0
LINE
  8
0
 10
41.4358
 20
520.605
 11
41.4825
 21
520.736
  0
LINE
  8
0
 10
41.4825
 20
520.736
 11
41.5313
 21
520.867
  0
LINE
  8
0
 10
41.5313
 20
520.867
 11
41.5825
 21
520.997
  0
LINE
  8
0
 10
41.5825
 20
520.997
 11
41.636
 21
521.126
  0
LINE
  8
0
 10
41.636
 20
521.126
 11
41.6916
 21
521.254
  0
LINE
  8
0
 10
41.6916
 20
521.254
 11
41.7495
 21
521.381
  0
LINE
  8
0
 10
41.7495
 20
521.381
 11
41.8096
 21
521.507
  0
LINE
  8
0
 10
41.8096
 20
521.507
 11
41.8719
 21
521.632
  0
LINE
  8
0
 10
41.8719
 20
521.632
 11
41.9364
 21
521.756
  0
LINE
  8
0
 10
41.9364
 20
521.756
 11
42.003
 21
521.878
  0
LINE
  8
0
 10
42.003
 20
521.878
 11
42.0718
 21
522
  0
LINE
  8
0
 10
42.0718
 20
522
 11
42.1427
 21
522.12
  0
LINE
  8
0
 10
42.1427
 20
522.12
 11
42.2156
 21
522.239
  0
LINE
  8
0
 10
42.2156
 20
522.239
 11
42.2906
 21
522.357
  0
LINE
  8
0
 10
42.2906
 20
522.357
 11
42.3677
 21
522.474
  0
LINE
  8
0
 10
42.3677
 20
522.474
 11
42.4468
 21
522.589
  0
LINE
  8
0
 10
42.4468
 20
522.589
 11
42.5279
 21
522.702
  0
LINE
  8
0
 10
42.5279
 20
522.702
 11
42.6109
 21
522.815
  0
LINE
  8
0
 10
42.6109
 20
522.815
 11
42.6959
 21
522.925
  0
LINE
  8
0
 10
42.6959
 20
522.925
 11
42.7828
 21
523.035
  0
LINE
  8
0
 10
42.7828
 20
523.035
 11
42.8716
 21
523.142
  0
LINE
  8
0
 10
42.8716
 20
523.142
 11
42.9623
 21
523.248
  0
LINE
  8
0
 10
42.9623
 20
523.248
 11
43.0548
 21
523.353
  0
LINE
  8
0
 10
43.0548
 20
523.353
 11
43.1492
 21
523.456
  0
LINE
  8
0
 10
43.1492
 20
523.456
 11
43.2453
 21
523.557
  0
LINE
  8
0
 10
43.2453
 20
523.557
 11
43.3431
 21
523.657
  0
LINE
  8
0
 10
43.3431
 20
523.657
 11
43.4427
 21
523.755
  0
LINE
  8
0
 10
43.4427
 20
523.755
 11
43.544
 21
523.851
  0
LINE
  8
0
 10
43.544
 20
523.851
 11
43.6469
 21
523.945
  0
LINE
  8
0
 10
43.6469
 20
523.945
 11
43.7515
 21
524.038
  0
LINE
  8
0
 10
43.7515
 20
524.038
 11
43.8577
 21
524.128
  0
LINE
  8
0
 10
43.8577
 20
524.128
 11
43.9654
 21
524.217
  0
LINE
  8
0
 10
43.9654
 20
524.217
 11
44.0747
 21
524.304
  0
LINE
  8
0
 10
44.0747
 20
524.304
 11
44.1855
 21
524.389
  0
LINE
  8
0
 10
44.1855
 20
524.389
 11
44.2977
 21
524.472
  0
LINE
  8
0
 10
44.2977
 20
524.472
 11
44.4114
 21
524.553
  0
LINE
  8
0
 10
44.4114
 20
524.553
 11
44.5264
 21
524.632
  0
LINE
  8
0
 10
44.5264
 20
524.632
 11
44.6429
 21
524.709
  0
LINE
  8
0
 10
44.6429
 20
524.709
 11
44.7606
 21
524.784
  0
LINE
  8
0
 10
44.7606
 20
524.784
 11
44.8797
 21
524.857
  0
LINE
  8
0
 10
44.8797
 20
524.857
 11
45
 21
524.928
  0
LINE
  8
0
 10
45
 20
524.928
 11
45.1215
 21
524.997
  0
LINE
  8
0
 10
45.1215
 20
524.997
 11
45.2442
 21
525.064
  0
LINE
  8
0
 10
45.2442
 20
525.064
 11
45.3681
 21
525.128
  0
LINE
  8
0
 10
45.3681
 20
525.128
 11
45.493
 21
525.19
  0
LINE
  8
0
 10
45.493
 20
525.19
 11
45.619
 21
525.25
  0
LINE
  8
0
 10
45.619
 20
525.25
 11
45.7461
 21
525.308
  0
LINE
  8
0
 10
45.7461
 20
525.308
 11
45.8741
 21
525.364
  0
LINE
  8
0
 10
45.8741
 20
525.364
 11
46.0031
 21
525.417
  0
LINE
  8
0
 10
46.0031
 20
525.417
 11
46.133
 21
525.469
  0
LINE
  8
0
 10
46.133
 20
525.469
 11
46.2638
 21
525.518
  0
LINE
  8
0
 10
46.2638
 20
525.518
 11
46.3954
 21
525.564
  0
LINE
  8
0
 10
46.3954
 20
525.564
 11
46.5279
 21
525.608
  0
LINE
  8
0
 10
46.5279
 20
525.608
 11
46.661
 21
525.65
  0
LINE
  8
0
 10
46.661
 20
525.65
 11
46.7949
 21
525.69
  0
LINE
  8
0
 10
46.7949
 20
525.69
 11
46.9294
 21
525.727
  0
LINE
  8
0
 10
46.9294
 20
525.727
 11
47.0646
 21
525.762
  0
LINE
  8
0
 10
47.0646
 20
525.762
 11
47.2004
 21
525.795
  0
LINE
  8
0
 10
47.2004
 20
525.795
 11
47.3367
 21
525.825
  0
LINE
  8
0
 10
47.3367
 20
525.825
 11
47.4735
 21
525.853
  0
LINE
  8
0
 10
47.4735
 20
525.853
 11
47.6108
 21
525.878
  0
LINE
  8
0
 10
47.6108
 20
525.878
 11
47.7485
 21
525.902
  0
LINE
  8
0
 10
47.7485
 20
525.902
 11
47.8866
 21
525.922
  0
LINE
  8
0
 10
47.8866
 20
525.922
 11
48.025
 21
525.94
  0
LINE
  8
0
 10
48.025
 20
525.94
 11
48.1638
 21
525.956
  0
LINE
  8
0
 10
48.1638
 20
525.956
 11
48.3027
 21
525.97
  0
LINE
  8
0
 10
48.3027
 20
525.97
 11
48.4419
 21
525.98
  0
LINE
  8
0
 10
48.4419
 20
525.98
 11
48.5813
 21
525.989
  0
LINE
  8
0
 10
48.5813
 20
525.989
 11
48.7208
 21
525.995
  0
LINE
  8
0
 10
48.7208
 20
525.995
 11
48.8604
 21
525.999
  0
LINE
  8
0
 10
48.8604
 20
525.999
 11
49
 21
526
  0
LINE
  8
0
 10
49
 20
526
 11
49.1396
 21
525.999
  0
LINE
  8
0
 10
49.1396
 20
525.999
 11
49.2792
 21
525.995
  0
LINE
  8
0
 10
49.2792
 20
525.995
 11
49.4187
 21
525.989
  0
LINE
  8
0
 10
49.4187
 20
525.989
 11
49.558
 21
525.98
  0
LINE
  8
0
 10
49.558
 20
525.98
 11
49.6972
 21
525.97
  0
LINE
  8
0
 10
49.6972
 20
525.97
 11
49.8362
 21
525.956
  0
LINE
  8
0
 10
49.8362
 20
525.956
 11
49.9749
 21
525.94
  0
LINE
  8
0
 10
49.9749
 20
525.94
 11
50.1134
 21
525.922
  0
LINE
  8
0
 10
50.1134
 20
525.922
 11
50.2515
 21
525.902
  0
LINE
  8
0
 10
50.2515
 20
525.902
 11
50.3892
 21
525.878
  0
LINE
  8
0
 10
50.3892
 20
525.878
 11
50.5265
 21
525.853
  0
LINE
  8
0
 10
50.5265
 20
525.853
 11
50.6633
 21
525.825
  0
LINE
  8
0
 10
50.6633
 20
525.825
 11
50.7996
 21
525.795
  0
LINE
  8
0
 10
50.7996
 20
525.795
 11
50.9354
 21
525.762
  0
LINE
  8
0
 10
50.9354
 20
525.762
 11
51.0705
 21
525.727
  0
LINE
  8
0
 10
51.0705
 20
525.727
 11
51.2051
 21
525.69
  0
LINE
  8
0
 10
51.2051
 20
525.69
 11
51.339
 21
525.65
  0
LINE
  8
0
 10
51.339
 20
525.65
 11
51.4721
 21
525.608
  0
LINE
  8
0
 10
51.4721
 20
525.608
 11
51.6045
 21
525.564
  0
LINE
  8
0
 10
51.6045
 20
525.564
 11
51.7362
 21
525.518
  0
LINE
  8
0
 10
51.7362
 20
525.518
 11
51.8669
 21
525.469
  0
LINE
  8
0
 10
51.8669
 20
525.469
 11
51.9968
 21
525.417
  0
LINE
  8
0
 10
51.9968
 20
525.417
 11
52.1258
 21
525.364
  0
LINE
  8
0
 10
52.1258
 20
525.364
 11
52.2539
 21
525.308
  0
LINE
  8
0
 10
52.2539
 20
525.308
 11
52.3809
 21
525.25
  0
LINE
  8
0
 10
52.3809
 20
525.25
 11
52.507
 21
525.19
  0
LINE
  8
0
 10
52.507
 20
525.19
 11
52.6319
 21
525.128
  0
LINE
  8
0
 10
52.6319
 20
525.128
 11
52.7558
 21
525.064
  0
LINE
  8
0
 10
52.7558
 20
525.064
 11
52.8785
 21
524.997
  0
LINE
  8
0
 10
52.8785
 20
524.997
 11
53
 21
524.928
  0
LINE
  8
0
 10
53
 20
524.928
 11
53.1203
 21
524.857
  0
LINE
  8
0
 10
53.1203
 20
524.857
 11
53.2393
 21
524.784
  0
LINE
  8
0
 10
53.2393
 20
524.784
 11
53.3571
 21
524.709
  0
LINE
  8
0
 10
53.3571
 20
524.709
 11
53.4735
 21
524.632
  0
LINE
  8
0
 10
53.4735
 20
524.632
 11
53.5886
 21
524.553
  0
LINE
  8
0
 10
53.5886
 20
524.553
 11
53.7023
 21
524.472
  0
LINE
  8
0
 10
53.7023
 20
524.472
 11
53.8145
 21
524.389
  0
LINE
  8
0
 10
53.8145
 20
524.389
 11
53.9253
 21
524.304
  0
LINE
  8
0
 10
53.9253
 20
524.304
 11
54.0346
 21
524.217
  0
LINE
  8
0
 10
54.0346
 20
524.217
 11
54.1423
 21
524.128
  0
LINE
  8
0
 10
54.1423
 20
524.128
 11
54.2485
 21
524.038
  0
LINE
  8
0
 10
54.2485
 20
524.038
 11
54.353
 21
523.945
  0
LINE
  8
0
 10
54.353
 20
523.945
 11
54.456
 21
523.851
  0
LINE
  8
0
 10
54.456
 20
523.851
 11
54.5573
 21
523.755
  0
LINE
  8
0
 10
54.5573
 20
523.755
 11
54.6568
 21
523.657
  0
LINE
  8
0
 10
54.6568
 20
523.657
 11
54.7547
 21
523.557
  0
LINE
  8
0
 10
54.7547
 20
523.557
 11
54.8508
 21
523.456
  0
LINE
  8
0
 10
54.8508
 20
523.456
 11
54.9451
 21
523.353
  0
LINE
  8
0
 10
54.9451
 20
523.353
 11
55.0377
 21
523.248
  0
LINE
  8
0
 10
55.0377
 20
523.248
 11
55.1283
 21
523.142
  0
LINE
  8
0
 10
55.1283
 20
523.142
 11
55.2172
 21
523.035
  0
LINE
  8
0
 10
55.2172
 20
523.035
 11
55.3041
 21
522.925
  0
LINE
  8
0
 10
55.3041
 20
522.925
 11
55.3891
 21
522.815
  0
LINE
  8
0
 10
55.3891
 20
522.815
 11
55.4721
 21
522.702
  0
LINE
  8
0
 10
55.4721
 20
522.702
 11
55.5532
 21
522.589
  0
LINE
  8
0
 10
55.5532
 20
522.589
 11
55.6323
 21
522.474
  0
LINE
  8
0
 10
55.6323
 20
522.474
 11
55.7094
 21
522.357
  0
LINE
  8
0
 10
55.7094
 20
522.357
 11
55.7844
 21
522.239
  0
LINE
  8
0
 10
55.7844
 20
522.239
 11
55.8573
 21
522.12
  0
LINE
  8
0
 10
55.8573
 20
522.12
 11
55.9282
 21
522
  0
LINE
  8
0
 10
55.9282
 20
522
 11
55.9969
 21
521.878
  0
LINE
  8
0
 10
55.9969
 20
521.878
 11
56.0636
 21
521.756
  0
LINE
  8
0
 10
56.0636
 20
521.756
 11
56.1281
 21
521.632
  0
LINE
  8
0
 10
56.1281
 20
521.632
 11
56.1903
 21
521.507
  0
LINE
  8
0
 10
56.1903
 20
521.507
 11
56.2505
 21
521.381
  0
LINE
  8
0
 10
56.2505
 20
521.381
 11
56.3083
 21
521.254
  0
LINE
  8
0
 10
56.3083
 20
521.254
 11
56.364
 21
521.126
  0
LINE
  8
0
 10
56.364
 20
521.126
 11
56.4175
 21
520.997
  0
LINE
  8
0
 10
56.4175
 20
520.997
 11
56.4686
 21
520.867
  0
LINE
  8
0
 10
56.4686
 20
520.867
 11
56.5175
 21
520.736
  0
LINE
  8
0
 10
56.5175
 20
520.736
 11
56.5641
 21
520.605
  0
LINE
  8
0
 10
56.5641
 20
520.605
 11
56.6084
 21
520.472
  0
LINE
  8
0
 10
56.6084
 20
520.472
 11
56.6504
 21
520.339
  0
LINE
  8
0
 10
56.6504
 20
520.339
 11
56.6901
 21
520.205
  0
LINE
  8
0
 10
56.6901
 20
520.205
 11
56.7274
 21
520.071
  0
LINE
  8
0
 10
56.7274
 20
520.071
 11
56.7624
 21
519.935
  0
LINE
  8
0
 10
56.7624
 20
519.935
 11
56.795
 21
519.8
  0
LINE
  8
0
 10
56.795
 20
519.8
 11
56.8252
 21
519.663
  0
LINE
  8
0
 10
56.8252
 20
519.663
 11
56.853
 21
519.526
  0
LINE
  8
0
 10
56.853
 20
519.526
 11
56.8784
 21
519.389
  0
LINE
  8
0
 10
56.8784
 20
519.389
 11
56.9015
 21
519.251
  0
LINE
  8
0
 10
56.9015
 20
519.251
 11
56.9221
 21
519.113
  0
LINE
  8
0
 10
56.9221
 20
519.113
 11
56.9404
 21
518.975
  0
LINE
  8
0
 10
56.9404
 20
518.975
 11
56.9562
 21
518.836
  0
LINE
  8
0
 10
56.9562
 20
518.836
 11
56.9695
 21
518.697
  0
LINE
  8
0
 10
56.9695
 20
518.697
 11
56.9805
 21
518.558
  0
LINE
  8
0
 10
56.9805
 20
518.558
 11
56.989
 21
518.419
  0
LINE
  8
0
 10
56.989
 20
518.419
 11
56.9951
 21
518.279
  0
LINE
  8
0
 10
56.9951
 20
518.279
 11
56.9988
 21
518.14
  0
LINE
  8
0
 10
56.9988
 20
518.14
 11
57
 21
518
  0
LINE
  8
0
 10
57
 20
518
 11
56.9988
 21
517.86
  0
LINE
  8
0
 10
56.9988
 20
517.86
 11
56.9951
 21
517.721
  0
LINE
  8
0
 10
56.9951
 20
517.721
 11
56.989
 21
517.581
  0
LINE
  8
0
 10
56.989
 20
517.581
 11
56.9805
 21
517.442
  0
LINE
  8
0
 10
56.9805
 20
517.442
 11
56.9695
 21
517.303
  0
LINE
  8
0
 10
56.9695
 20
517.303
 11
56.9562
 21
517.164
  0
LINE
  8
0
 10
56.9562
 20
517.164
 11
56.9404
 21
517.025
  0
LINE
  8
0
 10
56.9404
 20
517.025
 11
56.9221
 21
516.887
  0
LINE
  8
0
 10
56.9221
 20
516.887
 11
56.9015
 21
516.749
  0
LINE
  8
0
 10
56.9015
 20
516.749
 11
56.8784
 21
516.611
  0
LINE
  8
0
 10
56.8784
 20
516.611
 11
56.853
 21
516.474
  0
LINE
  8
0
 10
56.853
 20
516.474
 11
56.8252
 21
516.337
  0
LINE
  8
0
 10
56.8252
 20
516.337
 11
56.795
 21
516.2
  0
LINE
  8
0
 10
56.795
 20
516.2
 11
56.7624
 21
516.065
  0
LINE
  8
0
 10
56.7624
 20
516.065
 11
56.7274
 21
515.929
  0
LINE
  8
0
 10
56.7274
 20
515.929
 11
56.6901
 21
515.795
  0
LINE
  8
0
 10
56.6901
 20
515.795
 11
56.6504
 21
515.661
  0
LINE
  8
0
 10
56.6504
 20
515.661
 11
56.6084
 21
515.528
  0
LINE
  8
0
 10
56.6084
 20
515.528
 11
56.5641
 21
515.395
  0
LINE
  8
0
 10
56.5641
 20
515.395
 11
56.5175
 21
515.264
  0
LINE
  8
0
 10
56.5175
 20
515.264
 11
56.4686
 21
515.133
  0
LINE
  8
0
 10
56.4686
 20
515.133
 11
56.4175
 21
515.003
  0
LINE
  8
0
 10
56.4175
 20
515.003
 11
56.364
 21
514.874
  0
LINE
  8
0
 10
56.364
 20
514.874
 11
56.3083
 21
514.746
  0
LINE
  8
0
 10
56.3083
 20
514.746
 11
56.2505
 21
514.619
  0
LINE
  8
0
 10
56.2505
 20
514.619
 11
56.1903
 21
514.493
  0
LINE
  8
0
 10
56.1903
 20
514.493
 11
56.1281
 21
514.368
  0
LINE
  8
0
 10
56.1281
 20
514.368
 11
56.0636
 21
514.244
  0
LINE
  8
0
 10
56.0636
 20
514.244
 11
55.9969
 21
514.122
  0
LINE
  8
0
 10
55.9969
 20
514.122
 11
55.9282
 21
514
  0
LINE
  8
0
 10
55.9282
 20
514
 11
55.8573
 21
513.88
  0
LINE
  8
0
 10
55.8573
 20
513.88
 11
55.7844
 21
513.761
  0
LINE
  8
0
 10
55.7844
 20
513.761
 11
55.7094
 21
513.643
  0
LINE
  8
0
 10
55.7094
 20
513.643
 11
55.6323
 21
513.526
  0
LINE
  8
0
 10
55.6323
 20
513.526
 11
55.5532
 21
513.411
  0
LINE
  8
0
 10
55.5532
 20
513.411
 11
55.4721
 21
513.298
  0
LINE
  8
0
 10
55.4721
 20
513.298
 11
55.3891
 21
513.185
  0
LINE
  8
0
 10
55.3891
 20
513.185
 11
55.3041
 21
513.075
  0
LINE
  8
0
 10
55.3041
 20
513.075
 11
55.2172
 21
512.965
  0
LINE
  8
0
 10
55.2172
 20
512.965
 11
55.1283
 21
512.858
  0
LINE
  8
0
 10
55.1283
 20
512.858
 11
55.0377
 21
512.752
  0
LINE
  8
0
 10
55.0377
 20
512.752
 11
54.9451
 21
512.647
  0
LINE
  8
0
 10
54.9451
 20
512.647
 11
54.8508
 21
512.544
  0
LINE
  8
0
 10
54.8508
 20
512.544
 11
54.7547
 21
512.443
  0
LINE
  8
0
 10
54.7547
 20
512.443
 11
54.6568
 21
512.343
  0
LINE
  8
0
 10
54.6568
 20
512.343
 11
54.5573
 21
512.245
  0
LINE
  8
0
 10
54.5573
 20
512.245
 11
54.456
 21
512.149
  0
LINE
  8
0
 10
54.456
 20
512.149
 11
54.353
 21
512.055
  0
LINE
  8
0
 10
54.353
 20
512.055
 11
54.2485
 21
511.962
  0
LINE
  8
0
 10
54.2485
 20
511.962
 11
54.1423
 21
511.872
  0
LINE
  8
0
 10
54.1423
 20
511.872
 11
54.0346
 21
511.783
  0
LINE
  8
0
 10
54.0346
 20
511.783
 11
53.9253
 21
511.696
  0
LINE
  8
0
 10
53.9253
 20
511.696
 11
53.8145
 21
511.611
  0
LINE
  8
0
 10
53.8145
 20
511.611
 11
53.7023
 21
511.528
  0
LINE
  8
0
 10
53.7023
 20
511.528
 11
53.5886
 21
511.447
  0
LINE
  8
0
 10
53.5886
 20
511.447
 11
53.4735
 21
511.368
  0
LINE
  8
0
 10
53.4735
 20
511.368
 11
53.3571
 21
511.291
  0
LINE
  8
0
 10
53.3571
 20
511.291
 11
53.2393
 21
511.216
  0
LINE
  8
0
 10
53.2393
 20
511.216
 11
53.1203
 21
511.143
  0
LINE
  8
0
 10
53.1203
 20
511.143
 11
53
 21
511.072
  0
LINE
  8
0
 10
53
 20
511.072
 11
52.8785
 21
511.003
  0
LINE
  8
0
 10
52.8785
 20
511.003
 11
52.7558
 21
510.936
  0
LINE
  8
0
 10
52.7558
 20
510.936
 11
52.6319
 21
510.872
  0
LINE
  8
0
 10
52.6319
 20
510.872
 11
52.507
 21
510.81
  0
LINE
  8
0
 10
52.507
 20
510.81
 11
52.3809
 21
510.75
  0
LINE
  8
0
 10
52.3809
 20
510.75
 11
52.2539
 21
510.692
  0
LINE
  8
0
 10
52.2539
 20
510.692
 11
52.1258
 21
510.636
  0
LINE
  8
0
 10
52.1258
 20
510.636
 11
51.9968
 21
510.583
  0
LINE
  8
0
 10
51.9968
 20
510.583
 11
51.8669
 21
510.531
  0
LINE
  8
0
 10
51.8669
 20
510.531
 11
51.7362
 21
510.482
  0
LINE
  8
0
 10
51.7362
 20
510.482
 11
51.6045
 21
510.436
  0
LINE
  8
0
 10
51.6045
 20
510.436
 11
51.4721
 21
510.392
  0
LINE
  8
0
 10
51.4721
 20
510.392
 11
51.339
 21
510.35
  0
LINE
  8
0
 10
51.339
 20
510.35
 11
51.2051
 21
510.31
  0
LINE
  8
0
 10
51.2051
 20
510.31
 11
51.0705
 21
510.273
  0
LINE
  8
0
 10
51.0705
 20
510.273
 11
50.9354
 21
510.238
  0
LINE
  8
0
 10
50.9354
 20
510.238
 11
50.7996
 21
510.205
  0
LINE
  8
0
 10
50.7996
 20
510.205
 11
50.6633
 21
510.175
  0
LINE
  8
0
 10
50.6633
 20
510.175
 11
50.5265
 21
510.147
  0
LINE
  8
0
 10
50.5265
 20
510.147
 11
50.3892
 21
510.122
  0
LINE
  8
0
 10
50.3892
 20
510.122
 11
50.2515
 21
510.098
  0
LINE
  8
0
 10
50.2515
 20
510.098
 11
50.1134
 21
510.078
  0
LINE
  8
0
 10
50.1134
 20
510.078
 11
49.9749
 21
510.06
  0
LINE
  8
0
 10
49.9749
 20
510.06
 11
49.8362
 21
510.044
  0
LINE
  8
0
 10
49.8362
 20
510.044
 11
49.6972
 21
510.03
  0
LINE
  8
0
 10
49.6972
 20
510.03
 11
49.558
 21
510.019
  0
LINE
  8
0
 10
49.558
 20
510.019
 11
49.4187
 21
510.011
  0
LINE
  8
0
 10
49.4187
 20
510.011
 11
49.2792
 21
510.005
  0
LINE
  8
0
 10
49.2792
 20
510.005
 11
49.1396
 21
510.001
  0
LINE
  8
0
 10
49.1396
 20
510.001
 11
49
 21
510
  0
LINE
  8
0
 10
49
 20
510
 11
48.8604
 21
510.001
  0
LINE
  8
0
 10
46.7382
 20
450.002
 11
46.4765
 21
450.009
  0
LINE
  8
0
 10
46.4765
 20
450.009
 11
46.215
 21
450.021
  0
LINE
  8
0
 10
46.215
 20
450.021
 11
45.9536
 21
450.037
  0
LINE
  8
0
 10
45.9536
 20
450.037
 11
45.6927
 21
450.057
  0
LINE
  8
0
 10
45.6927
 20
450.057
 11
45.4321
 21
450.082
  0
LINE
  8
0
 10
45.4321
 20
450.082
 11
45.172
 21
450.112
  0
LINE
  8
0
 10
45.172
 20
450.112
 11
44.9124
 21
450.146
  0
LINE
  8
0
 10
44.9124
 20
450.146
 11
44.6535
 21
450.185
  0
LINE
  8
0
 10
44.6535
 20
450.185
 11
44.3953
 21
450.228
  0
LINE
  8
0
 10
44.3953
 20
450.228
 11
44.1379
 21
450.276
  0
LINE
  8
0
 10
44.1379
 20
450.276
 11
43.8813
 21
450.328
  0
LINE
  8
0
 10
43.8813
 20
450.328
 11
43.6257
 21
450.384
  0
LINE
  8
0
 10
43.6257
 20
450.384
 11
43.3712
 21
450.446
  0
LINE
  8
0
 10
43.3712
 20
450.446
 11
43.1177
 21
450.511
  0
LINE
  8
0
 10
43.1177
 20
450.511
 11
42.8654
 21
450.581
  0
LINE
  8
0
 10
42.8654
 20
450.581
 11
42.6144
 21
450.655
  0
LINE
  8
0
 10
42.6144
 20
450.655
 11
42.3647
 21
450.734
  0
LINE
  8
0
 10
42.3647
 20
450.734
 11
42.1165
 21
450.817
  0
LINE
  8
0
 10
42.1165
 20
450.817
 11
41.8697
 21
450.905
  0
LINE
  8
0
 10
41.8697
 20
450.905
 11
41.6245
 21
450.996
  0
LINE
  8
0
 10
41.6245
 20
450.996
 11
41.3809
 21
451.092
  0
LINE
  8
0
 10
41.3809
 20
451.092
 11
41.139
 21
451.192
  0
LINE
  8
0
 10
41.139
 20
451.192
 11
40.8989
 21
451.297
  0
LINE
  8
0
 10
40.8989
 20
451.297
 11
40.6607
 21
451.405
  0
LINE
  8
0
 10
40.6607
 20
451.405
 11
40.4244
 21
451.518
  0
LINE
  8
0
 10
40.4244
 20
451.518
 11
40.1901
 21
451.635
  0
LINE
  8
0
 10
40.1901
 20
451.635
 11
39.9579
 21
451.756
  0
LINE
  8
0
 10
39.9579
 20
451.756
 11
39.7278
 21
451.881
  0
LINE
  8
0
 10
39.7278
 20
451.881
 11
39.5
 21
452.01
  0
LINE
  8
0
 10
39.5
 20
452.01
 11
39.2744
 21
452.142
  0
LINE
  8
0
 10
39.2744
 20
452.142
 11
39.0512
 21
452.279
  0
LINE
  8
0
 10
39.0512
 20
452.279
 11
38.8304
 21
452.42
  0
LINE
  8
0
 10
38.8304
 20
452.42
 11
38.6121
 21
452.564
  0
LINE
  8
0
 10
38.6121
 20
452.564
 11
38.3963
 21
452.713
  0
LINE
  8
0
 10
38.3963
 20
452.713
 11
38.1832
 21
452.865
  0
LINE
  8
0
 10
38.1832
 20
452.865
 11
37.9728
 21
453.02
  0
LINE
  8
0
 10
37.9728
 20
453.02
 11
37.7651
 21
453.18
  0
LINE
  8
0
 10
37.7651
 20
453.18
 11
37.5602
 21
453.343
  0
LINE
  8
0
 10
37.5602
 20
453.343
 11
37.3582
 21
453.509
  0
LINE
  8
0
 10
37.3582
 20
453.509
 11
37.1591
 21
453.679
  0
LINE
  8
0
 10
37.1591
 20
453.679
 11
36.963
 21
453.853
  0
LINE
  8
0
 10
36.963
 20
453.853
 11
36.77
 21
454.03
  0
LINE
  8
0
 10
36.77
 20
454.03
 11
36.5801
 21
454.21
  0
LINE
  8
0
 10
36.5801
 20
454.21
 11
36.3934
 21
454.393
  0
LINE
  8
0
 10
36.3934
 20
454.393
 11
36.2099
 21
454.58
  0
LINE
  8
0
 10
36.2099
 20
454.58
 11
36.0297
 21
454.77
  0
LINE
  8
0
 10
36.0297
 20
454.77
 11
35.8528
 21
454.963
  0
LINE
  8
0
 10
35.8528
 20
454.963
 11
35.6794
 21
455.159
  0
LINE
  8
0
 10
35.6794
 20
455.159
 11
35.5093
 21
455.358
  0
LINE
  8
0
 10
35.5093
 20
455.358
 11
35.3428
 21
455.56
  0
LINE
  8
0
 10
35.3428
 20
455.56
 11
35.1798
 21
455.765
  0
LINE
  8
0
 10
35.1798
 20
455.765
 11
35.0205
 21
455.973
  0
LINE
  8
0
 10
35.0205
 20
455.973
 11
34.8647
 21
456.183
  0
LINE
  8
0
 10
34.8647
 20
456.183
 11
34.7127
 21
456.396
  0
LINE
  8
0
 10
34.7127
 20
456.396
 11
34.5644
 21
456.612
  0
LINE
  8
0
 10
34.5644
 20
456.612
 11
34.4199
 21
456.83
  0
LINE
  8
0
 10
34.4199
 20
456.83
 11
34.2793
 21
457.051
  0
LINE
  8
0
 10
34.2793
 20
457.051
 11
34.1425
 21
457.274
  0
LINE
  8
0
 10
34.1425
 20
457.274
 11
34.0096
 21
457.5
  0
LINE
  8
0
 10
34.0096
 20
457.5
 11
33.8807
 21
457.728
  0
LINE
  8
0
 10
33.8807
 20
457.728
 11
33.7558
 21
457.958
  0
LINE
  8
0
 10
33.7558
 20
457.958
 11
33.6349
 21
458.19
  0
LINE
  8
0
 10
33.6349
 20
458.19
 11
33.5181
 21
458.424
  0
LINE
  8
0
 10
33.5181
 20
458.424
 11
33.4054
 21
458.661
  0
LINE
  8
0
 10
33.4054
 20
458.661
 11
33.2968
 21
458.899
  0
LINE
  8
0
 10
33.2968
 20
458.899
 11
33.1924
 21
459.139
  0
LINE
  8
0
 10
33.1924
 20
459.139
 11
33.0922
 21
459.381
  0
LINE
  8
0
 10
33.0922
 20
459.381
 11
32.9963
 21
459.624
  0
LINE
  8
0
 10
32.9963
 20
459.624
 11
32.9046
 21
459.87
  0
LINE
  8
0
 10
32.9046
 20
459.87
 11
32.8172
 21
460.116
  0
LINE
  8
0
 10
32.8172
 20
460.116
 11
32.7341
 21
460.365
  0
LINE
  8
0
 10
32.7341
 20
460.365
 11
32.6554
 21
460.614
  0
LINE
  8
0
 10
32.6554
 20
460.614
 11
32.5811
 21
460.865
  0
LINE
  8
0
 10
32.5811
 20
460.865
 11
32.5111
 21
461.118
  0
LINE
  8
0
 10
32.5111
 20
461.118
 11
32.4456
 21
461.371
  0
LINE
  8
0
 10
32.4456
 20
461.371
 11
32.3844
 21
461.626
  0
LINE
  8
0
 10
32.3844
 20
461.626
 11
32.3278
 21
461.881
  0
LINE
  8
0
 10
32.3278
 20
461.881
 11
32.2756
 21
462.138
  0
LINE
  8
0
 10
32.2756
 20
462.138
 11
32.2279
 21
462.395
  0
LINE
  8
0
 10
32.2279
 20
462.395
 11
32.1847
 21
462.653
  0
LINE
  8
0
 10
32.1847
 20
462.653
 11
32.146
 21
462.912
  0
LINE
  8
0
 10
32.146
 20
462.912
 11
32.1118
 21
463.172
  0
LINE
  8
0
 10
32.1118
 20
463.172
 11
32.0822
 21
463.432
  0
LINE
  8
0
 10
32.0822
 20
463.432
 11
32.0571
 21
463.693
  0
LINE
  8
0
 10
32.0571
 20
463.693
 11
32.0365
 21
463.954
  0
LINE
  8
0
 10
32.0365
 20
463.954
 11
32.0206
 21
464.215
  0
LINE
  8
0
 10
32.0206
 20
464.215
 11
32.0091
 21
464.477
  0
LINE
  8
0
 10
32.0091
 20
464.477
 11
32.0023
 21
464.738
  0
LINE
  8
0
 10
32.0023
 20
464.738
 11
32
 21
465
  0
LINE
  8
0
 10
32
 20
465
 11
32.0023
 21
465.262
  0
LINE
  8
0
 10
32.0023
 20
465.262
 11
32.0091
 21
465.523
  0
LINE
  8
0
 10
32.0091
 20
465.523
 11
32.0206
 21
465.785
  0
LINE
  8
0
 10
32.0206
 20
465.785
 11
32.0365
 21
466.046
  0
LINE
  8
0
 10
32.0365
 20
466.046
 11
32.0571
 21
466.307
  0
LINE
  8
0
 10
32.0571
 20
466.307
 11
32.0822
 21
466.568
  0
LINE
  8
0
 10
32.0822
 20
466.568
 11
32.1118
 21
466.828
  0
LINE
  8
0
 10
32.1118
 20
466.828
 11
32.146
 21
467.088
  0
LINE
  8
0
 10
32.146
 20
467.088
 11
32.1847
 21
467.347
  0
LINE
  8
0
 10
32.1847
 20
467.347
 11
32.2279
 21
467.605
  0
LINE
  8
0
 10
32.2279
 20
467.605
 11
32.2756
 21
467.862
  0
LINE
  8
0
 10
32.2756
 20
467.862
 11
32.3278
 21
468.119
  0
LINE
  8
0
 10
32.3278
 20
468.119
 11
32.3844
 21
468.374
  0
LINE
  8
0
 10
32.3844
 20
468.374
 11
32.4456
 21
468.629
  0
LINE
  8
0
 10
32.4456
 20
468.629
 11
32.5111
 21
468.882
  0
LINE
  8
0
 10
32.5111
 20
468.882
 11
32.5811
 21
469.135
  0
LINE
  8
0
 10
32.5811
 20
469.135
 11
32.6554
 21
469.386
  0
LINE
  8
0
 10
32.6554
 20
469.386
 11
32.7341
 21
469.635
  0
LINE
  8
0
 10
32.7341
 20
469.635
 11
32.8172
 21
469.884
  0
LINE
  8
0
 10
32.8172
 20
469.884
 11
32.9046
 21
470.13
  0
LINE
  8
0
 10
32.9046
 20
470.13
 11
32.9963
 21
470.376
  0
LINE
  8
0
 10
32.9963
 20
470.376
 11
33.0922
 21
470.619
  0
LINE
  8
0
 10
33.0922
 20
470.619
 11
33.1924
 21
470.861
  0
LINE
  8
0
 10
33.1924
 20
470.861
 11
33.2968
 21
471.101
  0
LINE
  8
0
 10
33.2968
 20
471.101
 11
33.4054
 21
471.339
  0
LINE
  8
0
 10
33.4054
 20
471.339
 11
33.5181
 21
471.576
  0
LINE
  8
0
 10
33.5181
 20
471.576
 11
33.6349
 21
471.81
  0
LINE
  8
0
 10
33.6349
 20
471.81
 11
33.7558
 21
472.042
  0
LINE
  8
0
 10
33.7558
 20
472.042
 11
33.8807
 21
472.272
  0
LINE
  8
0
 10
33.8807
 20
472.272
 11
34.0096
 21
472.5
  0
LINE
  8
0
 10
34.0096
 20
472.5
 11
34.1425
 21
472.726
  0
LINE
  8
0
 10
34.1425
 20
472.726
 11
34.2793
 21
472.949
  0
LINE
  8
0
 10
34.2793
 20
472.949
 11
34.4199
 21
473.17
  0
LINE
  8
0
 10
34.4199
 20
473.17
 11
34.5644
 21
473.388
  0
LINE
  8
0
 10
34.5644
 20
473.388
 11
34.7127
 21
473.604
  0
LINE
  8
0
 10
34.7127
 20
473.604
 11
34.8647
 21
473.817
  0
LINE
  8
0
 10
34.8647
 20
473.817
 11
35.0205
 21
474.027
  0
LINE
  8
0
 10
35.0205
 20
474.027
 11
35.1798
 21
474.235
  0
LINE
  8
0
 10
35.1798
 20
474.235
 11
35.3428
 21
474.44
  0
LINE
  8
0
 10
35.3428
 20
474.44
 11
35.5093
 21
474.642
  0
LINE
  8
0
 10
35.5093
 20
474.642
 11
35.6794
 21
474.841
  0
LINE
  8
0
 10
35.6794
 20
474.841
 11
35.8528
 21
475.037
  0
LINE
  8
0
 10
35.8528
 20
475.037
 11
36.0297
 21
475.23
  0
LINE
  8
0
 10
36.0297
 20
475.23
 11
36.2099
 21
475.42
  0
LINE
  8
0
 10
36.2099
 20
475.42
 11
36.3934
 21
475.607
  0
LINE
  8
0
 10
36.3934
 20
475.607
 11
36.5801
 21
475.79
  0
LINE
  8
0
 10
36.5801
 20
475.79
 11
36.77
 21
475.97
  0
LINE
  8
0
 10
36.77
 20
475.97
 11
36.963
 21
476.147
  0
LINE
  8
0
 10
36.963
 20
476.147
 11
37.1591
 21
476.321
  0
LINE
  8
0
 10
37.1591
 20
476.321
 11
37.3582
 21
476.491
  0
LINE
  8
0
 10
37.3582
 20
476.491
 11
37.5602
 21
476.657
  0
LINE
  8
0
 10
37.5602
 20
476.657
 11
37.7651
 21
476.82
  0
LINE
  8
0
 10
37.7651
 20
476.82
 11
37.9728
 21
476.98
  0
LINE
  8
0
 10
37.9728
 20
476.98
 11
38.1832
 21
477.135
  0
LINE
  8
0
 10
38.1832
 20
477.135
 11
38.3963
 21
477.287
  0
LINE
  8
0
 10
38.3963
 20
477.287
 11
38.6121
 21
477.436
  0
LINE
  8
0
 10
38.6121
 20
477.436
 11
38.8304
 21
477.58
  0
LINE
  8
0
 10
38.8304
 20
477.58
 11
39.0512
 21
477.721
  0
LINE
  8
0
 10
39.0512
 20
477.721
 11
39.2744
 21
477.857
  0
LINE
  8
0
 10
39.2744
 20
477.857
 11
39.5
 21
477.99
  0
LINE
  8
0
 10
39.5
 20
477.99
 11
39.7278
 21
478.119
  0
LINE
  8
0
 10
39.7278
 20
478.119
 11
39.9579
 21
478.244
  0
LINE
  8
0
 10
39.9579
 20
478.244
 11
40.1901
 21
478.365
  0
LINE
  8
0
 10
40.1901
 20
478.365
 11
40.4244
 21
478.482
  0
LINE
  8
0
 10
40.4244
 20
478.482
 11
40.6607
 21
478.595
  0
LINE
  8
0
 10
40.6607
 20
478.595
 11
40.8989
 21
478.703
  0
LINE
  8
0
 10
40.8989
 20
478.703
 11
41.139
 21
478.808
  0
LINE
  8
0
 10
41.139
 20
478.808
 11
41.3809
 21
478.908
  0
LINE
  8
0
 10
41.3809
 20
478.908
 11
41.6245
 21
479.004
  0
LINE
  8
0
 10
41.6245
 20
479.004
 11
41.8697
 21
479.095
  0
LINE
  8
0
 10
41.8697
 20
479.095
 11
42.1165
 21
479.183
  0
LINE
  8
0
 10
42.1165
 20
479.183
 11
42.3647
 21
479.266
  0
LINE
  8
0
 10
42.3647
 20
479.266
 11
42.6144
 21
479.345
  0
LINE
  8
0
 10
42.6144
 20
479.345
 11
42.8654
 21
479.419
  0
LINE
  8
0
 10
42.8654
 20
479.419
 11
43.1177
 21
479.489
  0
LINE
  8
0
 10
43.1177
 20
479.489
 11
43.3712
 21
479.554
  0
LINE
  8
0
 10
43.3712
 20
479.554
 11
43.6257
 21
479.616
  0
LINE
  8
0
 10
43.6257
 20
479.616
 11
43.8813
 21
479.672
  0
LINE
  8
0
 10
43.8813
 20
479.672
 11
44.1379
 21
479.724
  0
LINE
  8
0
 10
44.1379
 20
479.724
 11
44.3953
 21
479.772
  0
LINE
  8
0
 10
44.3953
 20
479.772
 11
44.6535
 21
479.815
  0
LINE
  8
0
 10
44.6535
 20
479.815
 11
44.9124
 21
479.854
  0
LINE
  8
0
 10
44.9124
 20
479.854
 11
45.172
 21
479.888
  0
LINE
  8
0
 10
45.172
 20
479.888
 11
45.4321
 21
479.918
  0
LINE
  8
0
 10
45.4321
 20
479.918
 11
45.6927
 21
479.943
  0
LINE
  8
0
 10
45.6927
 20
479.943
 11
45.9536
 21
479.963
  0
LINE
  8
0
 10
45.9536
 20
479.963
 11
46.215
 21
479.979
  0
LINE
  8
0
 10
46.215
 20
479.979
 11
46.4765
 21
479.991
  0
LINE
  8
0
 10
46.4765
 20
479.991
 11
46.7382
 21
479.998
  0
LINE
  8
0
 10
46.7382
 20
479.998
 11
47
 21
480
  0
LINE
  8
0
 10
47
 20
480
 11
47.2618
 21
479.998
  0
LINE
  8
0
 10
47.2618
 20
479.998
 11
47.5235
 21
479.991
  0
LINE
  8
0
 10
47.5235
 20
479.991
 11
47.785
 21
479.979
  0
LINE
  8
0
 10
47.785
 20
479.979
 11
48.0463
 21
479.963
  0
LINE
  8
0
 10
48.0463
 20
479.963
 11
48.3073
 21
479.943
  0
LINE
  8
0
 10
48.3073
 20
479.943
 11
48.5679
 21
479.918
  0
LINE
  8
0
 10
48.5679
 20
479.918
 11
48.828
 21
479.888
  0
LINE
  8
0
 10
48.828
 20
479.888
 11
49.0876
 21
479.854
  0
LINE
  8
0
 10
49.0876
 20
479.854
 11
49.3465
 21
479.815
  0
LINE
  8
0
 10
49.3465
 20
479.815
 11
49.6047
 21
479.772
  0
LINE
  8
0
 10
49.6047
 20
479.772
 11
49.8621
 21
479.724
  0
LINE
  8
0
 10
49.8621
 20
479.724
 11
50.1187
 21
479.672
  0
LINE
  8
0
 10
50.1187
 20
479.672
 11
50.3743
 21
479.616
  0
LINE
  8
0
 10
50.3743
 20
479.616
 11
50.6288
 21
479.554
  0
LINE
  8
0
 10
50.6288
 20
479.554
 11
50.8823
 21
479.489
  0
LINE
  8
0
 10
50.8823
 20
479.489
 11
51.1346
 21
479.419
  0
LINE
  8
0
 10
51.1346
 20
479.419
 11
51.3856
 21
479.345
  0
LINE
  8
0
 10
51.3856
 20
479.345
 11
51.6353
 21
479.266
  0
LINE
  8
0
 10
51.6353
 20
479.266
 11
51.8835
 21
479.183
  0
LINE
  8
0
 10
51.8835
 20
479.183
 11
52.1303
 21
479.095
  0
LINE
  8
0
 10
52.1303
 20
479.095
 11
52.3755
 21
479.004
  0
LINE
  8
0
 10
52.3755
 20
479.004
 11
52.6191
 21
478.908
  0
LINE
  8
0
 10
52.6191
 20
478.908
 11
52.861
 21
478.808
  0
LINE
  8
0
 10
52.861
 20
478.808
 11
53.101
 21
478.703
  0
LINE
  8
0
 10
53.101
 20
478.703
 11
53.3393
 21
478.595
  0
LINE
  8
0
 10
53.3393
 20
478.595
 11
53.5756
 21
478.482
  0
LINE
  8
0
 10
53.5756
 20
478.482
 11
53.8098
 21
478.365
  0
LINE
  8
0
 10
53.8098
 20
478.365
 11
54.0421
 21
478.244
  0
LINE
  8
0
 10
54.0421
 20
478.244
 11
54.2721
 21
478.119
  0
LINE
  8
0
 10
54.2721
 20
478.119
 11
54.5
 21
477.99
  0
LINE
  8
0
 10
54.5
 20
477.99
 11
54.7256
 21
477.857
  0
LINE
  8
0
 10
54.7256
 20
477.857
 11
54.9488
 21
477.721
  0
LINE
  8
0
 10
54.9488
 20
477.721
 11
55.1696
 21
477.58
  0
LINE
  8
0
 10
55.1696
 20
477.58
 11
55.3879
 21
477.436
  0
LINE
  8
0
 10
55.3879
 20
477.436
 11
55.6036
 21
477.287
  0
LINE
  8
0
 10
55.6036
 20
477.287
 11
55.8168
 21
477.135
  0
LINE
  8
0
 10
55.8168
 20
477.135
 11
56.0272
 21
476.98
  0
LINE
  8
0
 10
56.0272
 20
476.98
 11
56.2349
 21
476.82
  0
LINE
  8
0
 10
56.2349
 20
476.82
 11
56.4398
 21
476.657
  0
LINE
  8
0
 10
56.4398
 20
476.657
 11
56.6418
 21
476.491
  0
LINE
  8
0
 10
56.6418
 20
476.491
 11
56.8409
 21
476.321
  0
LINE
  8
0
 10
56.8409
 20
476.321
 11
57.037
 21
476.147
  0
LINE
  8
0
 10
57.037
 20
476.147
 11
57.23
 21
475.97
  0
LINE
  8
0
 10
57.23
 20
475.97
 11
57.4199
 21
475.79
  0
LINE
  8
0
 10
57.4199
 20
475.79
 11
57.6066
 21
475.607
  0
LINE
  8
0
 10
57.6066
 20
475.607
 11
57.7901
 21
475.42
  0
LINE
  8
0
 10
57.7901
 20
475.42
 11
57.9703
 21
475.23
  0
LINE
  8
0
 10
57.9703
 20
475.23
 11
58.1472
 21
475.037
  0
LINE
  8
0
 10
58.1472
 20
475.037
 11
58.3206
 21
474.841
  0
LINE
  8
0
 10
58.3206
 20
474.841
 11
58.4907
 21
474.642
  0
LINE
  8
0
 10
58.4907
 20
474.642
 11
58.6572
 21
474.44
  0
LINE
  8
0
 10
58.6572
 20
474.44
 11
58.8202
 21
474.235
  0
LINE
  8
0
 10
58.8202
 20
474.235
 11
58.9795
 21
474.027
  0
LINE
  8
0
 10
58.9795
 20
474.027
 11
59.1353
 21
473.817
  0
LINE
  8
0
 10
59.1353
 20
473.817
 11
59.2873
 21
473.604
  0
LINE
  8
0
 10
59.2873
 20
473.604
 11
59.4356
 21
473.388
  0
LINE
  8
0
 10
59.4356
 20
473.388
 11
59.58
 21
473.17
  0
LINE
  8
0
 10
59.58
 20
473.17
 11
59.7207
 21
472.949
  0
LINE
  8
0
 10
59.7207
 20
472.949
 11
59.8575
 21
472.726
  0
LINE
  8
0
 10
59.8575
 20
472.726
 11
59.9904
 21
472.5
  0
LINE
  8
0
 10
59.9904
 20
472.5
 11
60.1193
 21
472.272
  0
LINE
  8
0
 10
60.1193
 20
472.272
 11
60.2442
 21
472.042
  0
LINE
  8
0
 10
60.2442
 20
472.042
 11
60.3651
 21
471.81
  0
LINE
  8
0
 10
60.3651
 20
471.81
 11
60.4819
 21
471.576
  0
LINE
  8
0
 10
60.4819
 20
471.576
 11
60.5946
 21
471.339
  0
LINE
  8
0
 10
60.5946
 20
471.339
 11
60.7032
 21
471.101
  0
LINE
  8
0
 10
60.7032
 20
471.101
 11
60.8076
 21
470.861
  0
LINE
  8
0
 10
60.8076
 20
470.861
 11
60.9077
 21
470.619
  0
LINE
  8
0
 10
60.9077
 20
470.619
 11
61.0037
 21
470.376
  0
LINE
  8
0
 10
61.0037
 20
470.376
 11
61.0954
 21
470.13
  0
LINE
  8
0
 10
61.0954
 20
470.13
 11
61.1828
 21
469.884
  0
LINE
  8
0
 10
61.1828
 20
469.884
 11
61.2658
 21
469.635
  0
LINE
  8
0
 10
61.2658
 20
469.635
 11
61.3446
 21
469.386
  0
LINE
  8
0
 10
61.3446
 20
469.386
 11
61.4189
 21
469.135
  0
LINE
  8
0
 10
61.4189
 20
469.135
 11
61.4889
 21
468.882
  0
LINE
  8
0
 10
61.4889
 20
468.882
 11
61.5544
 21
468.629
  0
LINE
  8
0
 10
61.5544
 20
468.629
 11
61.6155
 21
468.374
  0
LINE
  8
0
 10
61.6155
 20
468.374
 11
61.6722
 21
468.119
  0
LINE
  8
0
 10
61.6722
 20
468.119
 11
61.7244
 21
467.862
  0
LINE
  8
0
 10
61.7244
 20
467.862
 11
61.7721
 21
467.605
  0
LINE
  8
0
 10
61.7721
 20
467.605
 11
61.8153
 21
467.347
  0
LINE
  8
0
 10
61.8153
 20
467.347
 11
61.854
 21
467.088
  0
LINE
  8
0
 10
61.854
 20
467.088
 11
61.8882
 21
466.828
  0
LINE
  8
0
 10
61.8882
 20
466.828
 11
61.9178
 21
466.568
  0
LINE
  8
0
 10
61.9178
 20
466.568
 11
61.9429
 21
466.307
  0
LINE
  8
0
 10
61.9429
 20
466.307
 11
61.9635
 21
466.046
  0
LINE
  8
0
 10
61.9635
 20
466.046
 11
61.9794
 21
465.785
  0
LINE
  8
0
 10
61.9794
 20
465.785
 11
61.9909
 21
465.523
  0
LINE
  8
0
 10
61.9909
 20
465.523
 11
61.9977
 21
465.262
  0
LINE
  8
0
 10
61.9977
 20
465.262
 11
62
 21
465
  0
LINE
  8
0
 10
62
 20
465
 11
61.9977
 21
464.738
  0
LINE
  8
0
 10
61.9977
 20
464.738
 11
61.9909
 21
464.477
  0
LINE
  8
0
 10
61.9909
 20
464.477
 11
61.9794
 21
464.215
  0
LINE
  8
0
 10
61.9794
 20
464.215
 11
61.9635
 21
463.954
  0
LINE
  8
0
 10
61.9635
 20
463.954
 11
61.9429
 21
463.693
  0
LINE
  8
0
 10
61.9429
 20
463.693
 11
61.9178
 21
463.432
  0
LINE
  8
0
 10
61.9178
 20
463.432
 11
61.8882
 21
463.172
  0
LINE
  8
0
 10
61.8882
 20
463.172
 11
61.854
 21
462.912
  0
LINE
  8
0
 10
61.854
 20
462.912
 11
61.8153
 21
462.653
  0
LINE
  8
0
 10
61.8153
 20
462.653
 11
61.7721
 21
462.395
  0
LINE
  8
0
 10
61.7721
 20
462.395
 11
61.7244
 21
462.138
  0
LINE
  8
0
 10
61.7244
 20
462.138
 11
61.6722
 21
461.881
  0
LINE
  8
0
 10
61.6722
 20
461.881
 11
61.6155
 21
461.626
  0
LINE
  8
0
 10
61.6155
 20
461.626
 11
61.5544
 21
461.371
  0
LINE
  8
0
 10
61.5544
 20
461.371
 11
61.4889
 21
461.118
  0
LINE
  8
0
 10
61.4889
 20
461.118
 11
61.4189
 21
460.865
  0
LINE
  8
0
 10
61.4189
 20
460.865
 11
61.3446
 21
460.614
  0
LINE
  8
0
 10
61.3446
 20
460.614
 11
61.2658
 21
460.365
  0
LINE
  8
0
 10
61.2658
 20
460.365
 11
61.1828
 21
460.116
  0
LINE
  8
0
 10
61.1828
 20
460.116
 11
61.0954
 21
459.87
  0
LINE
  8
0
 10
61.0954
 20
459.87
 11
61.0037
 21
459.624
  0
LINE
  8
0
 10
61.0037
 20
459.624
 11
60.9077
 21
459.381
  0
LINE
  8
0
 10
60.9077
 20
459.381
 11
60.8076
 21
459.139
  0
LINE
  8
0
 10
60.8076
 20
459.139
 11
60.7032
 21
458.899
  0
LINE
  8
0
 10
60.7032
 20
458.899
 11
60.5946
 21
458.661
  0
LINE
  8
0
 10
60.5946
 20
458.661
 11
60.4819
 21
458.424
  0
LINE
  8
0
 10
60.4819
 20
458.424
 11
60.3651
 21
458.19
  0
LINE
  8
0
 10
60.3651
 20
458.19
 11
60.2442
 21
457.958
  0
LINE
  8
0
 10
60.2442
 20
457.958
 11
60.1193
 21
457.728
  0
LINE
  8
0
 10
60.1193
 20
457.728
 11
59.9904
 21
457.5
  0
LINE
  8
0
 10
59.9904
 20
457.5
 11
59.8575
 21
457.274
  0
LINE
  8
0
 10
59.8575
 20
457.274
 11
59.7207
 21
457.051
  0
LINE
  8
0
 10
59.7207
 20
457.051
 11
59.58
 21
456.83
  0
LINE
  8
0
 10
59.58
 20
456.83
 11
59.4356
 21
456.612
  0
LINE
  8
0
 10
59.4356
 20
456.612
 11
59.2873
 21
456.396
  0
LINE
  8
0
 10
59.2873
 20
456.396
 11
59.1353
 21
456.183
  0
LINE
  8
0
 10
59.1353
 20
456.183
 11
58.9795
 21
455.973
  0
LINE
  8
0
 10
58.9795
 20
455.973
 11
58.8202
 21
455.765
  0
LINE
  8
0
 10
58.8202
 20
455.765
 11
58.6572
 21
455.56
  0
LINE
  8
0
 10
58.6572
 20
455.56
 11
58.4907
 21
455.358
  0
LINE
  8
0
 10
58.4907
 20
455.358
 11
58.3206
 21
455.159
  0
LINE
  8
0
 10
58.3206
 20
455.159
 11
58.1472
 21
454.963
  0
LINE
  8
0
 10
58.1472
 20
454.963
 11
57.9703
 21
454.77
  0
LINE
  8
0
 10
57.9703
 20
454.77
 11
57.7901
 21
454.58
  0
LINE
  8
0
 10
57.7901
 20
454.58
 11
57.6066
 21
454.393
  0
LINE
  8
0
 10
57.6066
 20
454.393
 11
57.4199
 21
454.21
  0
LINE
  8
0
 10
57.4199
 20
454.21
 11
57.23
 21
454.03
  0
LINE
  8
0
 10
57.23
 20
454.03
 11
57.037
 21
453.853
  0
LINE
  8
0
 10
57.037
 20
453.853
 11
56.8409
 21
453.679
  0
LINE
  8
0
 10
56.8409
 20
453.679
 11
56.6418
 21
453.509
  0
LINE
  8
0
 10
56.6418
 20
453.509
 11
56.4398
 21
453.343
  0
LINE
  8
0
 10
56.4398
 20
453.343
 11
56.2349
 21
453.18
  0
LINE
  8
0
 10
56.2349
 20
453.18
 11
56.0272
 21
453.02
  0
LINE
  8
0
 10
56.0272
 20
453.02
 11
55.8168
 21
452.865
  0
LINE
  8
0
 10
55.8168
 20
452.865
 11
55.6036
 21
452.713
  0
LINE
  8
0
 10
55.6036
 20
452.713
 11
55.3879
 21
452.564
  0
LINE
  8
0
 10
55.3879
 20
452.564
 11
55.1696
 21
452.42
  0
LINE
  8
0
 10
55.1696
 20
452.42
 11
54.9488
 21
452.279
  0
LINE
  8
0
 10
54.9488
 20
452.279
 11
54.7256
 21
452.142
  0
LINE
  8
0
 10
54.7256
 20
452.142
 11
54.5
 21
452.01
  0
LINE
  8
0
 10
54.5
 20
452.01
 11
54.2721
 21
451.881
  0
LINE
  8
0
 10
54.2721
 20
451.881
 11
54.0421
 21
451.756
  0
LINE
  8
0
 10
54.0421
 20
451.756
 11
53.8098
 21
451.635
  0
LINE
  8
0
 10
53.8098
 20
451.635
 11
53.5756
 21
451.518
  0
LINE
  8
0
 10
53.5756
 20
451.518
 11
53.3393
 21
451.405
  0
LINE
  8
0
 10
53.3393
 20
451.405
 11
53.101
 21
451.297
  0
LINE
  8
0
 10
53.101
 20
451.297
 11
52.861
 21
451.192
  0
LINE
  8
0
 10
52.861
 20
451.192
 11
52.6191
 21
451.092
  0
LINE
  8
0
 10
52.6191
 20
451.092
 11
52.3755
 21
450.996
  0
LINE
  8
0
 10
52.3755
 20
450.996
 11
52.1303
 21
450.905
  0
LINE
  8
0
 10
52.1303
 20
450.905
 11
51.8835
 21
450.817
  0
LINE
  8
0
 10
51.8835
 20
450.817
 11
51.6353
 21
450.734
  0
LINE
  8
0
 10
51.6353
 20
450.734
 11
51.3856
 21
450.655
  0
LINE
  8
0
 10
51.3856
 20
450.655
 11
51.1346
 21
450.581
  0
LINE
  8
0
 10
51.1346
 20
450.581
 11
50.8823
 21
450.511
  0
LINE
  8
0
 10
50.8823
 20
450.511
 11
50.6288
 21
450.446
  0
LINE
  8
0
 10
50.6288
 20
450.446
 11
50.3743
 21
450.384
  0
LINE
  8
0
 10
50.3743
 20
450.384
 11
50.1187
 21
450.328
  0
LINE
  8
0
 10
50.1187
 20
450.328
 11
49.8621
 21
450.276
  0
LINE
  8
0
 10
49.8621
 20
450.276
 11
49.6047
 21
450.228
  0
LINE
  8
0
 10
49.6047
 20
450.228
 11
49.3465
 21
450.185
  0
LINE
  8
0
 10
49.3465
 20
450.185
 11
49.0876
 21
450.146
  0
LINE
  8
0
 10
49.0876
 20
450.146
 11
48.828
 21
450.112
  0
LINE
  8
0
 10
48.828
 20
450.112
 11
48.5679
 21
450.082
  0
LINE
  8
0
 10
48.5679
 20
450.082
 11
48.3073
 21
450.057
  0
LINE
  8
0
 10
48.3073
 20
450.057
 11
48.0463
 21
450.037
  0
LINE
  8
0
 10
48.0463
 20
450.037
 11
47.785
 21
450.021
  0
LINE
  8
0
 10
47.785
 20
450.021
 11
47.5235
 21
450.009
  0
LINE
  8
0
 10
47.5235
 20
450.009
 11
47.2618
 21
450.002
  0
LINE
  8
0
 10
47.2618
 20
450.002
 11
47
 21
450
  0
LINE
  8
0
 10
47
 20
450
 11
46.7382
 21
450.002
  0
LINE
  8
0
 10
77.6831
 20
415.906
 11
107.132
 21
421.63
  0
LINE
  8
0
 10
107.132
 20
421.63
 11
132.7
 21
290.092
  0
LINE
  8
0
 10
132.7
 20
290.092
 11
103.251
 21
284.368
  0
LINE
  8
0
 10
103.251
 20
284.368
 11
77.6831
 21
415.906
  0
LINE
  8
0
 10
45.6509
 20
380.003
 11
45.302
 21
380.012
  0
LINE
  8
0
 10
45.302
 20
380.012
 11
44.9533
 21
380.027
  0
LINE
  8
0
 10
44.9533
 20
380.027
 11
44.6049
 21
380.049
  0
LINE
  8
0
 10
44.6049
 20
380.049
 11
44.2569
 21
380.076
  0
LINE
  8
0
 10
44.2569
 20
380.076
 11
43.9094
 21
380.11
  0
LINE
  8
0
 10
43.9094
 20
380.11
 11
43.5626
 21
380.149
  0
LINE
  8
0
 10
43.5626
 20
380.149
 11
43.2165
 21
380.195
  0
LINE
  8
0
 10
43.2165
 20
380.195
 11
42.8713
 21
380.246
  0
LINE
  8
0
 10
42.8713
 20
380.246
 11
42.527
 21
380.304
  0
LINE
  8
0
 10
42.527
 20
380.304
 11
42.1838
 21
380.367
  0
LINE
  8
0
 10
42.1838
 20
380.367
 11
41.8418
 21
380.437
  0
LINE
  8
0
 10
41.8418
 20
380.437
 11
41.501
 21
380.513
  0
LINE
  8
0
 10
41.501
 20
380.513
 11
41.1616
 21
380.594
  0
LINE
  8
0
 10
41.1616
 20
380.594
 11
40.8236
 21
380.681
  0
LINE
  8
0
 10
40.8236
 20
380.681
 11
40.4872
 21
380.775
  0
LINE
  8
0
 10
40.4872
 20
380.775
 11
40.1526
 21
380.874
  0
LINE
  8
0
 10
40.1526
 20
380.874
 11
39.8197
 21
380.979
  0
LINE
  8
0
 10
39.8197
 20
380.979
 11
39.4886
 21
381.09
  0
LINE
  8
0
 10
39.4886
 20
381.09
 11
39.1596
 21
381.206
  0
LINE
  8
0
 10
39.1596
 20
381.206
 11
38.8326
 21
381.328
  0
LINE
  8
0
 10
38.8326
 20
381.328
 11
38.5079
 21
381.456
  0
LINE
  8
0
 10
38.5079
 20
381.456
 11
38.1854
 21
381.59
  0
LINE
  8
0
 10
38.1854
 20
381.59
 11
37.8653
 21
381.729
  0
LINE
  8
0
 10
37.8653
 20
381.729
 11
37.5476
 21
381.874
  0
LINE
  8
0
 10
37.5476
 20
381.874
 11
37.2326
 21
382.024
  0
LINE
  8
0
 10
37.2326
 20
382.024
 11
36.9202
 21
382.18
  0
LINE
  8
0
 10
36.9202
 20
382.18
 11
36.6106
 21
382.341
  0
LINE
  8
0
 10
36.6106
 20
382.341
 11
36.3038
 21
382.508
  0
LINE
  8
0
 10
36.3038
 20
382.508
 11
36
 21
382.679
  0
LINE
  8
0
 10
36
 20
382.679
 11
35.6992
 21
382.857
  0
LINE
  8
0
 10
35.6992
 20
382.857
 11
35.4016
 21
383.039
  0
LINE
  8
0
 10
35.4016
 20
383.039
 11
35.1072
 21
383.227
  0
LINE
  8
0
 10
35.1072
 20
383.227
 11
34.8161
 21
383.419
  0
LINE
  8
0
 10
34.8161
 20
383.419
 11
34.5285
 21
383.617
  0
LINE
  8
0
 10
34.5285
 20
383.617
 11
34.2443
 21
383.82
  0
LINE
  8
0
 10
34.2443
 20
383.82
 11
33.9637
 21
384.027
  0
LINE
  8
0
 10
33.9637
 20
384.027
 11
33.6868
 21
384.24
  0
LINE
  8
0
 10
33.6868
 20
384.24
 11
33.4136
 21
384.457
  0
LINE
  8
0
 10
33.4136
 20
384.457
 11
33.1442
 21
384.679
  0
LINE
  8
0
 10
33.1442
 20
384.679
 11
32.8788
 21
384.906
  0
LINE
  8
0
 10
32.8788
 20
384.906
 11
32.6174
 21
385.137
  0
LINE
  8
0
 10
32.6174
 20
385.137
 11
32.36
 21
385.373
  0
LINE
  8
0
 10
32.36
 20
385.373
 11
32.1068
 21
385.613
  0
LINE
  8
0
 10
32.1068
 20
385.613
 11
31.8578
 21
385.858
  0
LINE
  8
0
 10
31.8578
 20
385.858
 11
31.6132
 21
386.107
  0
LINE
  8
0
 10
31.6132
 20
386.107
 11
31.3729
 21
386.36
  0
LINE
  8
0
 10
31.3729
 20
386.36
 11
31.1371
 21
386.617
  0
LINE
  8
0
 10
31.1371
 20
386.617
 11
30.9058
 21
386.879
  0
LINE
  8
0
 10
30.9058
 20
386.879
 11
30.6791
 21
387.144
  0
LINE
  8
0
 10
30.6791
 20
387.144
 11
30.4571
 21
387.414
  0
LINE
  8
0
 10
30.4571
 20
387.414
 11
30.2398
 21
387.687
  0
LINE
  8
0
 10
30.2398
 20
387.687
 11
30.0273
 21
387.964
  0
LINE
  8
0
 10
30.0273
 20
387.964
 11
29.8197
 21
388.244
  0
LINE
  8
0
 10
29.8197
 20
388.244
 11
29.617
 21
388.528
  0
LINE
  8
0
 10
29.617
 20
388.528
 11
29.4192
 21
388.816
  0
LINE
  8
0
 10
29.4192
 20
388.816
 11
29.2266
 21
389.107
  0
LINE
  8
0
 10
29.2266
 20
389.107
 11
29.039
 21
389.402
  0
LINE
  8
0
 10
29.039
 20
389.402
 11
28.8566
 21
389.699
  0
LINE
  8
0
 10
28.8566
 20
389.699
 11
28.6795
 21
390
  0
LINE
  8
0
 10
28.6795
 20
390
 11
28.5076
 21
390.304
  0
LINE
  8
0
 10
28.5076
 20
390.304
 11
28.341
 21
390.611
  0
LINE
  8
0
 10
28.341
 20
390.611
 11
28.1799
 21
390.92
  0
LINE
  8
0
 10
28.1799
 20
390.92
 11
28.0241
 21
391.233
  0
LINE
  8
0
 10
28.0241
 20
391.233
 11
27.8738
 21
391.548
  0
LINE
  8
0
 10
27.8738
 20
391.548
 11
27.7291
 21
391.865
  0
LINE
  8
0
 10
27.7291
 20
391.865
 11
27.5899
 21
392.185
  0
LINE
  8
0
 10
27.5899
 20
392.185
 11
27.4563
 21
392.508
  0
LINE
  8
0
 10
27.4563
 20
392.508
 11
27.3284
 21
392.833
  0
LINE
  8
0
 10
27.3284
 20
392.833
 11
27.2061
 21
393.16
  0
LINE
  8
0
 10
27.2061
 20
393.16
 11
27.0896
 21
393.489
  0
LINE
  8
0
 10
27.0896
 20
393.489
 11
26.9789
 21
393.82
  0
LINE
  8
0
 10
26.9789
 20
393.82
 11
26.8739
 21
394.153
  0
LINE
  8
0
 10
26.8739
 20
394.153
 11
26.7748
 21
394.487
  0
LINE
  8
0
 10
26.7748
 20
394.487
 11
26.6815
 21
394.824
  0
LINE
  8
0
 10
26.6815
 20
394.824
 11
26.5941
 21
395.162
  0
LINE
  8
0
 10
26.5941
 20
395.162
 11
26.5126
 21
395.501
  0
LINE
  8
0
 10
26.5126
 20
395.501
 11
26.437
 21
395.842
  0
LINE
  8
0
 10
26.437
 20
395.842
 11
26.3674
 21
396.184
  0
LINE
  8
0
 10
26.3674
 20
396.184
 11
26.3038
 21
396.527
  0
LINE
  8
0
 10
26.3038
 20
396.527
 11
26.2462
 21
396.871
  0
LINE
  8
0
 10
26.2462
 20
396.871
 11
26.1946
 21
397.217
  0
LINE
  8
0
 10
26.1946
 20
397.217
 11
26.1491
 21
397.563
  0
LINE
  8
0
 10
26.1491
 20
397.563
 11
26.1096
 21
397.909
  0
LINE
  8
0
 10
26.1096
 20
397.909
 11
26.0761
 21
398.257
  0
LINE
  8
0
 10
26.0761
 20
398.257
 11
26.0487
 21
398.605
  0
LINE
  8
0
 10
26.0487
 20
398.605
 11
26.0274
 21
398.953
  0
LINE
  8
0
 10
26.0274
 20
398.953
 11
26.0122
 21
399.302
  0
LINE
  8
0
 10
26.0122
 20
399.302
 11
26.003
 21
399.651
  0
LINE
  8
0
 10
26.003
 20
399.651
 11
26
 21
400
  0
LINE
  8
0
 10
26
 20
400
 11
26.003
 21
400.349
  0
LINE
  8
0
 10
26.003
 20
400.349
 11
26.0122
 21
400.698
  0
LINE
  8
0
 10
26.0122
 20
400.698
 11
26.0274
 21
401.047
  0
LINE
  8
0
 10
26.0274
 20
401.047
 11
26.0487
 21
401.395
  0
LINE
  8
0
 10
26.0487
 20
401.395
 11
26.0761
 21
401.743
  0
LINE
  8
0
 10
26.0761
 20
401.743
 11
26.1096
 21
402.091
  0
LINE
  8
0
 10
26.1096
 20
402.091
 11
26.1491
 21
402.437
  0
LINE
  8
0
 10
26.1491
 20
402.437
 11
26.1946
 21
402.783
  0
LINE
  8
0
 10
26.1946
 20
402.783
 11
26.2462
 21
403.129
  0
LINE
  8
0
 10
26.2462
 20
403.129
 11
26.3038
 21
403.473
  0
LINE
  8
0
 10
26.3038
 20
403.473
 11
26.3674
 21
403.816
  0
LINE
  8
0
 10
26.3674
 20
403.816
 11
26.437
 21
404.158
  0
LINE
  8
0
 10
26.437
 20
404.158
 11
26.5126
 21
404.499
  0
LINE
  8
0
 10
26.5126
 20
404.499
 11
26.5941
 21
404.838
  0
LINE
  8
0
 10
26.5941
 20
404.838
 11
26.6815
 21
405.176
  0
LINE
  8
0
 10
26.6815
 20
405.176
 11
26.7748
 21
405.513
  0
LINE
  8
0
 10
26.7748
 20
405.513
 11
26.8739
 21
405.847
  0
LINE
  8
0
 10
26.8739
 20
405.847
 11
26.9789
 21
406.18
  0
LINE
  8
0
 10
26.9789
 20
406.18
 11
27.0896
 21
406.511
  0
LINE
  8
0
 10
27.0896
 20
406.511
 11
27.2061
 21
406.84
  0
LINE
  8
0
 10
27.2061
 20
406.84
 11
27.3284
 21
407.167
  0
LINE
  8
0
 10
27.3284
 20
407.167
 11
27.4563
 21
407.492
  0
LINE
  8
0
 10
27.4563
 20
407.492
 11
27.5899
 21
407.815
  0
LINE
  8
0
 10
27.5899
 20
407.815
 11
27.7291
 21
408.135
  0
LINE
  8
0
 10
27.7291
 20
408.135
 11
27.8738
 21
408.452
  0
LINE
  8
0
 10
27.8738
 20
408.452
 11
28.0241
 21
408.767
  0
LINE
  8
0
 10
28.0241
 20
408.767
 11
28.1799
 21
409.08
  0
LINE
  8
0
 10
28.1799
 20
409.08
 11
28.341
 21
409.389
  0
LINE
  8
0
 10
28.341
 20
409.389
 11
28.5076
 21
409.696
  0
LINE
  8
0
 10
28.5076
 20
409.696
 11
28.6795
 21
410
  0
LINE
  8
0
 10
28.6795
 20
410
 11
28.8566
 21
410.301
  0
LINE
  8
0
 10
28.8566
 20
410.301
 11
29.039
 21
410.598
  0
LINE
  8
0
 10
29.039
 20
410.598
 11
29.2266
 21
410.893
  0
LINE
  8
0
 10
29.2266
 20
410.893
 11
29.4192
 21
411.184
  0
LINE
  8
0
 10
29.4192
 20
411.184
 11
29.617
 21
411.472
  0
LINE
  8
0
 10
29.617
 20
411.472
 11
29.8197
 21
411.756
  0
LINE
  8
0
 10
29.8197
 20
411.756
 11
30.0273
 21
412.036
  0
LINE
  8
0
 10
30.0273
 20
412.036
 11
30.2398
 21
412.313
  0
LINE
  8
0
 10
30.2398
 20
412.313
 11
30.4571
 21
412.586
  0
LINE
  8
0
 10
30.4571
 20
412.586
 11
30.6791
 21
412.856
  0
LINE
  8
0
 10
30.6791
 20
412.856
 11
30.9058
 21
413.121
  0
LINE
  8
0
 10
30.9058
 20
413.121
 11
31.1371
 21
413.383
  0
LINE
  8
0
 10
31.1371
 20
413.383
 11
31.3729
 21
413.64
  0
LINE
  8
0
 10
31.3729
 20
413.64
 11
31.6132
 21
413.893
  0
LINE
  8
0
 10
31.6132
 20
413.893
 11
31.8578
 21
414.142
  0
LINE
  8
0
 10
31.8578
 20
414.142
 11
32.1068
 21
414.387
  0
LINE
  8
0
 10
32.1068
 20
414.387
 11
32.36
 21
414.627
  0
LINE
  8
0
 10
32.36
 20
414.627
 11
32.6174
 21
414.863
  0
LINE
  8
0
 10
32.6174
 20
414.863
 11
32.8788
 21
415.094
  0
LINE
  8
0
 10
32.8788
 20
415.094
 11
33.1442
 21
415.321
  0
LINE
  8
0
 10
33.1442
 20
415.321
 11
33.4136
 21
415.543
  0
LINE
  8
0
 10
33.4136
 20
415.543
 11
33.6868
 21
415.76
  0
LINE
  8
0
 10
33.6868
 20
415.76
 11
33.9637
 21
415.973
  0
LINE
  8
0
 10
33.9637
 20
415.973
 11
34.2443
 21
416.18
  0
LINE
  8
0
 10
34.2443
 20
416.18
 11
34.5285
 21
416.383
  0
LINE
  8
0
 10
34.5285
 20
416.383
 11
34.8161
 21
416.581
  0
LINE
  8
0
 10
34.8161
 20
416.581
 11
35.1072
 21
416.773
  0
LINE
  8
0
 10
35.1072
 20
416.773
 11
35.4016
 21
416.961
  0
LINE
  8
0
 10
35.4016
 20
416.961
 11
35.6992
 21
417.143
  0
LINE
  8
0
 10
35.6992
 20
417.143
 11
36
 21
417.32
  0
LINE
  8
0
 10
36
 20
417.32
 11
36.3038
 21
417.492
  0
LINE
  8
0
 10
36.3038
 20
417.492
 11
36.6106
 21
417.659
  0
LINE
  8
0
 10
36.6106
 20
417.659
 11
36.9202
 21
417.82
  0
LINE
  8
0
 10
36.9202
 20
417.82
 11
37.2326
 21
417.976
  0
LINE
  8
0
 10
37.2326
 20
417.976
 11
37.5476
 21
418.126
  0
LINE
  8
0
 10
37.5476
 20
418.126
 11
37.8653
 21
418.271
  0
LINE
  8
0
 10
37.8653
 20
418.271
 11
38.1854
 21
418.41
  0
LINE
  8
0
 10
38.1854
 20
418.41
 11
38.5079
 21
418.544
  0
LINE
  8
0
 10
38.5079
 20
418.544
 11
38.8326
 21
418.672
  0
LINE
  8
0
 10
38.8326
 20
418.672
 11
39.1596
 21
418.794
  0
LINE
  8
0
 10
39.1596
 20
418.794
 11
39.4886
 21
418.91
  0
LINE
  8
0
 10
39.4886
 20
418.91
 11
39.8197
 21
419.021
  0
LINE
  8
0
 10
39.8197
 20
419.021
 11
40.1526
 21
419.126
  0
LINE
  8
0
 10
40.1526
 20
419.126
 11
40.4872
 21
419.225
  0
LINE
  8
0
 10
40.4872
 20
419.225
 11
40.8236
 21
419.319
  0
LINE
  8
0
 10
40.8236
 20
419.319
 11
41.1616
 21
419.406
  0
LINE
  8
0
 10
41.1616
 20
419.406
 11
41.501
 21
419.487
  0
LINE
  8
0
 10
41.501
 20
419.487
 11
41.8418
 21
419.563
  0
LINE
  8
0
 10
41.8418
 20
419.563
 11
42.1838
 21
419.633
  0
LINE
  8
0
 10
42.1838
 20
419.633
 11
42.527
 21
419.696
  0
LINE
  8
0
 10
42.527
 20
419.696
 11
42.8713
 21
419.754
  0
LINE
  8
0
 10
42.8713
 20
419.754
 11
43.2165
 21
419.805
  0
LINE
  8
0
 10
43.2165
 20
419.805
 11
43.5626
 21
419.851
  0
LINE
  8
0
 10
43.5626
 20
419.851
 11
43.9094
 21
419.89
  0
LINE
  8
0
 10
43.9094
 20
419.89
 11
44.2569
 21
419.924
  0
LINE
  8
0
 10
44.2569
 20
419.924
 11
44.6049
 21
419.951
  0
LINE
  8
0
 10
44.6049
 20
419.951
 11
44.9533
 21
419.973
  0
LINE
  8
0
 10
44.9533
 20
419.973
 11
45.302
 21
419.988
  0
LINE
  8
0
 10
45.302
 20
419.988
 11
45.6509
 21
419.997
  0
LINE
  8
0
 10
45.6509
 20
419.997
 11
46
 21
420
  0
LINE
  8
0
 10
46
 20
420
 11
46.349
 21
419.997
  0
LINE
  8
0
 10
46.349
 20
419.997
 11
46.698
 21
419.988
  0
LINE
  8
0
 10
46.698
 20
419.988
 11
47.0467
 21
419.973
  0
LINE
  8
0
 10
47.0467
 20
419.973
 11
47.3951
 21
419.951
  0
LINE
  8
0
 10
47.3951
 20
419.951
 11
47.7431
 21
419.924
  0
LINE
  8
0
 10
47.7431
 20
419.924
 11
48.0906
 21
419.89
  0
LINE
  8
0
 10
48.0906
 20
419.89
 11
48.4374
 21
419.851
  0
LINE
  8
0
 10
48.4374
 20
419.851
 11
48.7834
 21
419.805
  0
LINE
  8
0
 10
48.7834
 20
419.805
 11
49.1287
 21
419.754
  0
LINE
  8
0
 10
49.1287
 20
419.754
 11
49.473
 21
419.696
  0
LINE
  8
0
 10
49.473
 20
419.696
 11
49.8162
 21
419.633
  0
LINE
  8
0
 10
49.8162
 20
419.633
 11
50.1582
 21
419.563
  0
LINE
  8
0
 10
50.1582
 20
419.563
 11
50.499
 21
419.487
  0
LINE
  8
0
 10
50.499
 20
419.487
 11
50.8384
 21
419.406
  0
LINE
  8
0
 10
50.8384
 20
419.406
 11
51.1764
 21
419.319
  0
LINE
  8
0
 10
51.1764
 20
419.319
 11
51.5127
 21
419.225
  0
LINE
  8
0
 10
51.5127
 20
419.225
 11
51.8474
 21
419.126
  0
LINE
  8
0
 10
51.8474
 20
419.126
 11
52.1803
 21
419.021
  0
LINE
  8
0
 10
52.1803
 20
419.021
 11
52.5114
 21
418.91
  0
LINE
  8
0
 10
52.5114
 20
418.91
 11
52.8404
 21
418.794
  0
LINE
  8
0
 10
52.8404
 20
418.794
 11
53.1674
 21
418.672
  0
LINE
  8
0
 10
53.1674
 20
418.672
 11
53.4921
 21
418.544
  0
LINE
  8
0
 10
53.4921
 20
418.544
 11
53.8146
 21
418.41
  0
LINE
  8
0
 10
53.8146
 20
418.41
 11
54.1347
 21
418.271
  0
LINE
  8
0
 10
54.1347
 20
418.271
 11
54.4524
 21
418.126
  0
LINE
  8
0
 10
54.4524
 20
418.126
 11
54.7674
 21
417.976
  0
LINE
  8
0
 10
54.7674
 20
417.976
 11
55.0798
 21
417.82
  0
LINE
  8
0
 10
55.0798
 20
417.82
 11
55.3894
 21
417.659
  0
LINE
  8
0
 10
55.3894
 20
417.659
 11
55.6962
 21
417.492
  0
LINE
  8
0
 10
55.6962
 20
417.492
 11
56
 21
417.32
  0
LINE
  8
0
 10
56
 20
417.32
 11
56.3008
 21
417.143
  0
LINE
  8
0
 10
56.3008
 20
417.143
 11
56.5984
 21
416.961
  0
LINE
  8
0
 10
56.5984
 20
416.961
 11
56.8928
 21
416.773
  0
LINE
  8
0
 10
56.8928
 20
416.773
 11
57.1839
 21
416.581
  0
LINE
  8
0
 10
57.1839
 20
416.581
 11
57.4715
 21
416.383
  0
LINE
  8
0
 10
57.4715
 20
416.383
 11
57.7557
 21
416.18
  0
LINE
  8
0
 10
57.7557
 20
416.18
 11
58.0363
 21
415.973
  0
LINE
  8
0
 10
58.0363
 20
415.973
 11
58.3132
 21
415.76
  0
LINE
  8
0
 10
58.3132
 20
415.76
 11
58.5864
 21
415.543
  0
LINE
  8
0
 10
58.5864
 20
415.543
 11
58.8557
 21
415.321
  0
LINE
  8
0
 10
58.8557
 20
415.321
 11
59.1212
 21
415.094
  0
LINE
  8
0
 10
59.1212
 20
415.094
 11
59.3826
 21
414.863
  0
LINE
  8
0
 10
59.3826
 20
414.863
 11
59.64
 21
414.627
  0
LINE
  8
0
 10
59.64
 20
414.627
 11
59.8932
 21
414.387
  0
LINE
  8
0
 10
59.8932
 20
414.387
 11
60.1421
 21
414.142
  0
LINE
  8
0
 10
60.1421
 20
414.142
 11
60.3868
 21
413.893
  0
LINE
  8
0
 10
60.3868
 20
413.893
 11
60.6271
 21
413.64
  0
LINE
  8
0
 10
60.6271
 20
413.64
 11
60.8629
 21
413.383
  0
LINE
  8
0
 10
60.8629
 20
413.383
 11
61.0942
 21
413.121
  0
LINE
  8
0
 10
61.0942
 20
413.121
 11
61.3209
 21
412.856
  0
LINE
  8
0
 10
61.3209
 20
412.856
 11
61.5429
 21
412.586
  0
LINE
  8
0
 10
61.5429
 20
412.586
 11
61.7602
 21
412.313
  0
LINE
  8
0
 10
61.7602
 20
412.313
 11
61.9727
 21
412.036
  0
LINE
  8
0
 10
61.9727
 20
412.036
 11
62.1803
 21
411.756
  0
LINE
  8
0
 10
62.1803
 20
411.756
 11
62.383
 21
411.472
  0
LINE
  8
0
 10
62.383
 20
411.472
 11
62.5807
 21
411.184
  0
LINE
  8
0
 10
62.5807
 20
411.184
 11
62.7734
 21
410.893
  0
LINE
  8
0
 10
62.7734
 20
410.893
 11
62.961
 21
410.598
  0
LINE
  8
0
 10
62.961
 20
410.598
 11
63.1433
 21
410.301
  0
LINE
  8
0
 10
63.1433
 20
410.301
 11
63.3205
 21
410
  0
LINE
  8
0
 10
63.3205
 20
410
 11
63.4924
 21
409.696
  0
LINE
  8
0
 10
63.4924
 20
409.696
 11
63.659
 21
409.389
  0
LINE
  8
0
 10
63.659
 20
409.389
 11
63.8201
 21
409.08
  0
LINE
  8
0
 10
63.8201
 20
409.08
 11
63.9759
 21
408.767
  0
LINE
  8
0
 10
63.9759
 20
408.767
 11
64.1261
 21
408.452
  0
LINE
  8
0
 10
64.1261
 20
408.452
 11
64.2709
 21
408.135
  0
LINE
  8
0
 10
64.2709
 20
408.135
 11
64.4101
 21
407.815
  0
LINE
  8
0
 10
64.4101
 20
407.815
 11
64.5437
 21
407.492
  0
LINE
  8
0
 10
64.5437
 20
407.492
 11
64.6716
 21
407.167
  0
LINE
  8
0
 10
64.6716
 20
407.167
 11
64.7938
 21
406.84
  0
LINE
  8
0
 10
64.7938
 20
406.84
 11
64.9104
 21
406.511
  0
LINE
  8
0
 10
64.9104
 20
406.511
 11
65.0211
 21
406.18
  0
LINE
  8
0
 10
65.0211
 20
406.18
 11
65.1261
 21
405.847
  0
LINE
  8
0
 10
65.1261
 20
405.847
 11
65.2252
 21
405.513
  0
LINE
  8
0
 10
65.2252
 20
405.513
 11
65.3185
 21
405.176
  0
LINE
  8
0
 10
65.3185
 20
405.176
 11
65.4059
 21
404.838
  0
LINE
  8
0
 10
65.4059
 20
404.838
 11
65.4874
 21
404.499
  0
LINE
  8
0
 10
65.4874
 20
404.499
 11
65.5629
 21
404.158
  0
LINE
  8
0
 10
65.5629
 20
404.158
 11
65.6325
 21
403.816
  0
LINE
  8
0
 10
65.6325
 20
403.816
 11
65.6962
 21
403.473
  0
LINE
  8
0
 10
65.6962
 20
403.473
 11
65.7538
 21
403.129
  0
LINE
  8
0
 10
65.7538
 20
403.129
 11
65.8054
 21
402.783
  0
LINE
  8
0
 10
65.8054
 20
402.783
 11
65.8509
 21
402.437
  0
LINE
  8
0
 10
65.8509
 20
402.437
 11
65.8904
 21
402.091
  0
LINE
  8
0
 10
65.8904
 20
402.091
 11
65.9239
 21
401.743
  0
LINE
  8
0
 10
65.9239
 20
401.743
 11
65.9513
 21
401.395
  0
LINE
  8
0
 10
65.9513
 20
401.395
 11
65.9726
 21
401.047
  0
LINE
  8
0
 10
65.9726
 20
401.047
 11
65.9878
 21
400.698
  0
LINE
  8
0
 10
65.9878
 20
400.698
 11
65.9969
 21
400.349
  0
LINE
  8
0
 10
65.9969
 20
400.349
 11
66
 21
400
  0
LINE
  8
0
 10
66
 20
400
 11
65.9969
 21
399.651
  0
LINE
  8
0
 10
65.9969
 20
399.651
 11
65.9878
 21
399.302
  0
LINE
  8
0
 10
65.9878
 20
399.302
 11
65.9726
 21
398.953
  0
LINE
  8
0
 10
65.9726
 20
398.953
 11
65.9513
 21
398.605
  0
LINE
  8
0
 10
65.9513
 20
398.605
 11
65.9239
 21
398.257
  0
LINE
  8
0
 10
65.9239
 20
398.257
 11
65.8904
 21
397.909
  0
LINE
  8
0
 10
65.8904
 20
397.909
 11
65.8509
 21
397.563
  0
LINE
  8
0
 10
65.8509
 20
397.563
 11
65.8054
 21
397.217
  0
LINE
  8
0
 10
65.8054
 20
397.217
 11
65.7538
 21
396.871
  0
LINE
  8
0
 10
65.7538
 20
396.871
 11
65.6962
 21
396.527
  0
LINE
  8
0
 10
65.6962
 20
396.527
 11
65.6325
 21
396.184
  0
LINE
  8
0
 10
65.6325
 20
396.184
 11
65.5629
 21
395.842
  0
LINE
  8
0
 10
65.5629
 20
395.842
 11
65.4874
 21
395.501
  0
LINE
  8
0
 10
65.4874
 20
395.501
 11
65.4059
 21
395.162
  0
LINE
  8
0
 10
65.4059
 20
395.162
 11
65.3185
 21
394.824
  0
LINE
  8
0
 10
65.3185
 20
394.824
 11
65.2252
 21
394.487
  0
LINE
  8
0
 10
65.2252
 20
394.487
 11
65.1261
 21
394.153
  0
LINE
  8
0
 10
65.1261
 20
394.153
 11
65.0211
 21
393.82
  0
LINE
  8
0
 10
65.0211
 20
393.82
 11
64.9104
 21
393.489
  0
LINE
  8
0
 10
64.9104
 20
393.489
 11
64.7938
 21
393.16
  0
LINE
  8
0
 10
64.7938
 20
393.16
 11
64.6716
 21
392.833
  0
LINE
  8
0
 10
64.6716
 20
392.833
 11
64.5437
 21
392.508
  0
LINE
  8
0
 10
64.5437
 20
392.508
 11
64.4101
 21
392.185
  0
LINE
  8
0
 10
64.4101
 20
392.185
 11
64.2709
 21
391.865
  0
LINE
  8
0
 10
64.2709
 20
391.865
 11
64.1261
 21
391.548
  0
LINE
  8
0
 10
64.1261
 20
391.548
 11
63.9759
 21
391.233
  0
LINE
  8
0
 10
63.9759
 20
391.233
 11
63.8201
 21
390.92
  0
LINE
  8
0
 10
63.8201
 20
390.92
 11
63.659
 21
390.611
  0
LINE
  8
0
 10
63.659
 20
390.611
 11
63.4924
 21
390.304
  0
LINE
  8
0
 10
63.4924
 20
390.304
 11
63.3205
 21
390
  0
LINE
  8
0
 10
63.3205
 20
390
 11
63.1433
 21
389.699
  0
LINE
  8
0
 10
63.1433
 20
389.699
 11
62.961
 21
389.402
  0
LINE
  8
0
 10
62.961
 20
389.402
 11
62.7734
 21
389.107
  0
LINE
  8
0
 10
62.7734
 20
389.107
 11
62.5807
 21
388.816
  0
LINE
  8
0
 10
62.5807
 20
388.816
 11
62.383
 21
388.528
  0
LINE
  8
0
 10
62.383
 20
388.528
 11
62.1803
 21
388.244
  0
LINE
  8
0
 10
62.1803
 20
388.244
 11
61.9727
 21
387.964
  0
LINE
  8
0
 10
61.9727
 20
387.964
 11
61.7602
 21
387.687
  0
LINE
  8
0
 10
61.7602
 20
387.687
 11
61.5429
 21
387.414
  0
LINE
  8
0
 10
61.5429
 20
387.414
 11
61.3209
 21
387.144
  0
LINE
  8
0
 10
61.3209
 20
387.144
 11
61.0942
 21
386.879
  0
LINE
  8
0
 10
61.0942
 20
386.879
 11
60.8629
 21
386.617
  0
LINE
  8
0
 10
60.8629
 20
386.617
 11
60.6271
 21
386.36
  0
LINE
  8
0
 10
60.6271
 20
386.36
 11
60.3868
 21
386.107
  0
LINE
  8
0
 10
60.3868
 20
386.107
 11
60.1421
 21
385.858
  0
LINE
  8
0
 10
60.1421
 20
385.858
 11
59.8932
 21
385.613
  0
LINE
  8
0
 10
59.8932
 20
385.613
 11
59.64
 21
385.373
  0
LINE
  8
0
 10
59.64
 20
385.373
 11
59.3826
 21
385.137
  0
LINE
  8
0
 10
59.3826
 20
385.137
 11
59.1212
 21
384.906
  0
LINE
  8
0
 10
59.1212
 20
384.906
 11
58.8557
 21
384.679
  0
LINE
  8
0
 10
58.8557
 20
384.679
 11
58.5864
 21
384.457
  0
LINE
  8
0
 10
58.5864
 20
384.457
 11
58.3132
 21
384.24
  0
LINE
  8
0
 10
58.3132
 20
384.24
 11
58.0363
 21
384.027
  0
LINE
  8
0
 10
58.0363
 20
384.027
 11
57.7557
 21
383.82
  0
LINE
  8
0
 10
57.7557
 20
383.82
 11
57.4715
 21
383.617
  0
LINE
  8
0
 10
57.4715
 20
383.617
 11
57.1839
 21
383.419
  0
LINE
  8
0
 10
57.1839
 20
383.419
 11
56.8928
 21
383.227
  0
LINE
  8
0
 10
56.8928
 20
383.227
 11
56.5984
 21
383.039
  0
LINE
  8
0
 10
56.5984
 20
383.039
 11
56.3008
 21
382.857
  0
LINE
  8
0
 10
56.3008
 20
382.857
 11
56
 21
382.679
  0
LINE
  8
0
 10
56
 20
382.679
 11
55.6962
 21
382.508
  0
LINE
  8
0
 10
55.6962
 20
382.508
 11
55.3894
 21
382.341
  0
LINE
  8
0
 10
55.3894
 20
382.341
 11
55.0798
 21
382.18
  0
LINE
  8
0
 10
55.0798
 20
382.18
 11
54.7674
 21
382.024
  0
LINE
  8
0
 10
54.7674
 20
382.024
 11
54.4524
 21
381.874
  0
LINE
  8
0
 10
54.4524
 20
381.874
 11
54.1347
 21
381.729
  0
LINE
  8
0
 10
54.1347
 20
381.729
 11
53.8146
 21
381.59
  0
LINE
  8
0
 10
53.8146
 20
381.59
 11
53.4921
 21
381.456
  0
LINE
  8
0
 10
53.4921
 20
381.456
 11
53.1674
 21
381.328
  0
LINE
  8
0
 10
53.1674
 20
381.328
 11
52.8404
 21
381.206
  0
LINE
  8
0
 10
52.8404
 20
381.206
 11
52.5114
 21
381.09
  0
LINE
  8
0
 10
52.5114
 20
381.09
 11
52.1803
 21
380.979
  0
LINE
  8
0
 10
52.1803
 20
380.979
 11
51.8474
 21
380.874
  0
LINE
  8
0
 10
51.8474
 20
380.874
 11
51.5127
 21
380.775
  0
LINE
  8
0
 10
51.5127
 20
380.775
 11
51.1764
 21
380.681
  0
LINE
  8
0
 10
51.1764
 20
380.681
 11
50.8384
 21
380.594
  0
LINE
  8
0
 10
50.8384
 20
380.594
 11
50.499
 21
380.513
  0
LINE
  8
0
 10
50.499
 20
380.513
 11
50.1582
 21
380.437
  0
LINE
  8
0
 10
50.1582
 20
380.437
 11
49.8162
 21
380.367
  0
LINE
  8
0
 10
49.8162
 20
380.367
 11
49.473
 21
380.304
  0
LINE
  8
0
 10
49.473
 20
380.304
 11
49.1287
 21
380.246
  0
LINE
  8
0
 10
49.1287
 20
380.246
 11
48.7834
 21
380.195
  0
LINE
  8
0
 10
48.7834
 20
380.195
 11
48.4374
 21
380.149
  0
LINE
  8
0
 10
48.4374
 20
380.149
 11
48.0906
 21
380.11
  0
LINE
  8
0
 10
48.0906
 20
380.11
 11
47.7431
 21
380.076
  0
LINE
  8
0
 10
47.7431
 20
380.076
 11
47.3951
 21
380.049
  0
LINE
  8
0
 10
47.3951
 20
380.049
 11
47.0467
 21
380.027
  0
LINE
  8
0
 10
47.0467
 20
380.027
 11
46.698
 21
380.012
  0
LINE
  8
0
 10
46.698
 20
380.012
 11
46.349
 21
380.003
  0
LINE
  8
0
 10
46.349
 20
380.003
 11
46
 21
380
  0
LINE
  8
0
 10
46
 20
380
 11
45.6509
 21
380.003
  0
LINE
  8
0
 10
49.5637
 20
300.004
 11
49.1275
 21
300.015
  0
LINE
  8
0
 10
49.1275
 20
300.015
 11
48.6916
 21
300.034
  0
LINE
  8
0
 10
48.6916
 20
300.034
 11
48.2561
 21
300.061
  0
LINE
  8
0
 10
48.2561
 20
300.061
 11
47.8211
 21
300.095
  0
LINE
  8
0
 10
47.8211
 20
300.095
 11
47.3868
 21
300.137
  0
LINE
  8
0
 10
47.3868
 20
300.137
 11
46.9533
 21
300.186
  0
LINE
  8
0
 10
46.9533
 20
300.186
 11
46.5207
 21
300.243
  0
LINE
  8
0
 10
46.5207
 20
300.243
 11
46.0891
 21
300.308
  0
LINE
  8
0
 10
46.0891
 20
300.308
 11
45.6588
 21
300.38
  0
LINE
  8
0
 10
45.6588
 20
300.38
 11
45.2298
 21
300.459
  0
LINE
  8
0
 10
45.2298
 20
300.459
 11
44.8022
 21
300.546
  0
LINE
  8
0
 10
44.8022
 20
300.546
 11
44.3762
 21
300.641
  0
LINE
  8
0
 10
44.3762
 20
300.641
 11
43.952
 21
300.743
  0
LINE
  8
0
 10
43.952
 20
300.743
 11
43.5295
 21
300.852
  0
LINE
  8
0
 10
43.5295
 20
300.852
 11
43.1091
 21
300.968
  0
LINE
  8
0
 10
43.1091
 20
300.968
 11
42.6907
 21
301.092
  0
LINE
  8
0
 10
42.6907
 20
301.092
 11
42.2746
 21
301.224
  0
LINE
  8
0
 10
42.2746
 20
301.224
 11
41.8608
 21
301.362
  0
LINE
  8
0
 10
41.8608
 20
301.362
 11
41.4495
 21
301.508
  0
LINE
  8
0
 10
41.4495
 20
301.508
 11
41.0408
 21
301.66
  0
LINE
  8
0
 10
41.0408
 20
301.66
 11
40.6348
 21
301.82
  0
LINE
  8
0
 10
40.6348
 20
301.82
 11
40.2317
 21
301.987
  0
LINE
  8
0
 10
40.2317
 20
301.987
 11
39.8316
 21
302.161
  0
LINE
  8
0
 10
39.8316
 20
302.161
 11
39.4345
 21
302.342
  0
LINE
  8
0
 10
39.4345
 20
302.342
 11
39.0407
 21
302.53
  0
LINE
  8
0
 10
39.0407
 20
302.53
 11
38.6502
 21
302.725
  0
LINE
  8
0
 10
38.6502
 20
302.725
 11
38.2632
 21
302.926
  0
LINE
  8
0
 10
38.2632
 20
302.926
 11
37.8797
 21
303.135
  0
LINE
  8
0
 10
37.8797
 20
303.135
 11
37.5
 21
303.349
  0
LINE
  8
0
 10
37.5
 20
303.349
 11
37.124
 21
303.571
  0
LINE
  8
0
 10
37.124
 20
303.571
 11
36.752
 21
303.799
  0
LINE
  8
0
 10
36.752
 20
303.799
 11
36.384
 21
304.033
  0
LINE
  8
0
 10
36.384
 20
304.033
 11
36.0202
 21
304.274
  0
LINE
  8
0
 10
36.0202
 20
304.274
 11
35.6606
 21
304.521
  0
LINE
  8
0
 10
35.6606
 20
304.521
 11
35.3054
 21
304.775
  0
LINE
  8
0
 10
35.3054
 20
304.775
 11
34.9546
 21
305.034
  0
LINE
  8
0
 10
34.9546
 20
305.034
 11
34.6085
 21
305.3
  0
LINE
  8
0
 10
34.6085
 20
305.3
 11
34.267
 21
305.571
  0
LINE
  8
0
 10
34.267
 20
305.571
 11
33.9303
 21
305.849
  0
LINE
  8
0
 10
33.9303
 20
305.849
 11
33.5985
 21
306.132
  0
LINE
  8
0
 10
33.5985
 20
306.132
 11
33.2717
 21
306.421
  0
LINE
  8
0
 10
33.2717
 20
306.421
 11
32.95
 21
306.716
  0
LINE
  8
0
 10
32.95
 20
306.716
 11
32.6335
 21
307.016
  0
LINE
  8
0
 10
32.6335
 20
307.016
 11
32.3223
 21
307.322
  0
LINE
  8
0
 10
32.3223
 20
307.322
 11
32.0165
 21
307.634
  0
LINE
  8
0
 10
32.0165
 20
307.634
 11
31.7162
 21
307.95
  0
LINE
  8
0
 10
31.7162
 20
307.95
 11
31.4214
 21
308.272
  0
LINE
  8
0
 10
31.4214
 20
308.272
 11
31.1322
 21
308.599
  0
LINE
  8
0
 10
31.1322
 20
308.599
 11
30.8489
 21
308.93
  0
LINE
  8
0
 10
30.8489
 20
308.93
 11
30.5714
 21
309.267
  0
LINE
  8
0
 10
30.5714
 20
309.267
 11
30.2997
 21
309.608
  0
LINE
  8
0
 10
30.2997
 20
309.608
 11
30.0341
 21
309.955
  0
LINE
  8
0
 10
30.0341
 20
309.955
 11
29.7746
 21
310.305
  0
LINE
  8
0
 10
29.7746
 20
310.305
 11
29.5212
 21
310.661
  0
LINE
  8
0
 10
29.5212
 20
310.661
 11
29.274
 21
311.02
  0
LINE
  8
0
 10
29.274
 20
311.02
 11
29.0332
 21
311.384
  0
LINE
  8
0
 10
29.0332
 20
311.384
 11
28.7988
 21
311.752
  0
LINE
  8
0
 10
28.7988
 20
311.752
 11
28.5708
 21
312.124
  0
LINE
  8
0
 10
28.5708
 20
312.124
 11
28.3493
 21
312.5
  0
LINE
  8
0
 10
28.3493
 20
312.5
 11
28.1345
 21
312.88
  0
LINE
  8
0
 10
28.1345
 20
312.88
 11
27.9263
 21
313.263
  0
LINE
  8
0
 10
27.9263
 20
313.263
 11
27.7248
 21
313.65
  0
LINE
  8
0
 10
27.7248
 20
313.65
 11
27.5301
 21
314.041
  0
LINE
  8
0
 10
27.5301
 20
314.041
 11
27.3423
 21
314.435
  0
LINE
  8
0
 10
27.3423
 20
314.435
 11
27.1614
 21
314.832
  0
LINE
  8
0
 10
27.1614
 20
314.832
 11
26.9874
 21
315.232
  0
LINE
  8
0
 10
26.9874
 20
315.232
 11
26.8204
 21
315.635
  0
LINE
  8
0
 10
26.8204
 20
315.635
 11
26.6605
 21
316.041
  0
LINE
  8
0
 10
26.6605
 20
316.041
 11
26.5077
 21
316.449
  0
LINE
  8
0
 10
26.5077
 20
316.449
 11
26.362
 21
316.861
  0
LINE
  8
0
 10
26.362
 20
316.861
 11
26.2236
 21
317.275
  0
LINE
  8
0
 10
26.2236
 20
317.275
 11
26.0924
 21
317.691
  0
LINE
  8
0
 10
26.0924
 20
317.691
 11
25.9684
 21
318.109
  0
LINE
  8
0
 10
25.9684
 20
318.109
 11
25.8519
 21
318.53
  0
LINE
  8
0
 10
25.8519
 20
318.53
 11
25.7426
 21
318.952
  0
LINE
  8
0
 10
25.7426
 20
318.952
 11
25.6407
 21
319.376
  0
LINE
  8
0
 10
25.6407
 20
319.376
 11
25.5463
 21
319.802
  0
LINE
  8
0
 10
25.5463
 20
319.802
 11
25.4593
 21
320.23
  0
LINE
  8
0
 10
25.4593
 20
320.23
 11
25.3798
 21
320.659
  0
LINE
  8
0
 10
25.3798
 20
320.659
 11
25.3078
 21
321.089
  0
LINE
  8
0
 10
25.3078
 20
321.089
 11
25.2433
 21
321.521
  0
LINE
  8
0
 10
25.2433
 20
321.521
 11
25.1863
 21
321.953
  0
LINE
  8
0
 10
25.1863
 20
321.953
 11
25.1369
 21
322.387
  0
LINE
  8
0
 10
25.1369
 20
322.387
 11
25.0951
 21
322.821
  0
LINE
  8
0
 10
25.0951
 20
322.821
 11
25.0609
 21
323.256
  0
LINE
  8
0
 10
25.0609
 20
323.256
 11
25.0343
 21
323.692
  0
LINE
  8
0
 10
25.0343
 20
323.692
 11
25.0152
 21
324.128
  0
LINE
  8
0
 10
25.0152
 20
324.128
 11
25.0038
 21
324.564
  0
LINE
  8
0
 10
25.0038
 20
324.564
 11
25
 21
325
  0
LINE
  8
0
 10
25
 20
325
 11
25.0038
 21
325.436
  0
LINE
  8
0
 10
25.0038
 20
325.436
 11
25.0152
 21
325.872
  0
LINE
  8
0
 10
25.0152
 20
325.872
 11
25.0343
 21
326.308
  0
LINE
  8
0
 10
25.0343
 20
326.308
 11
25.0609
 21
326.744
  0
LINE
  8
0
 10
25.0609
 20
326.744
 11
25.0951
 21
327.179
  0
LINE
  8
0
 10
25.0951
 20
327.179
 11
25.1369
 21
327.613
  0
LINE
  8
0
 10
25.1369
 20
327.613
 11
25.1863
 21
328.047
  0
LINE
  8
0
 10
25.1863
 20
328.047
 11
25.2433
 21
328.479
  0
LINE
  8
0
 10
25.2433
 20
328.479
 11
25.3078
 21
328.911
  0
LINE
  8
0
 10
25.3078
 20
328.911
 11
25.3798
 21
329.341
  0
LINE
  8
0
 10
25.3798
 20
329.341
 11
25.4593
 21
329.77
  0
LINE
  8
0
 10
25.4593
 20
329.77
 11
25.5463
 21
330.198
  0
LINE
  8
0
 10
25.5463
 20
330.198
 11
25.6407
 21
330.624
  0
LINE
  8
0
 10
25.6407
 20
330.624
 11
25.7426
 21
331.048
  0
LINE
  8
0
 10
25.7426
 20
331.048
 11
25.8519
 21
331.47
  0
LINE
  8
0
 10
25.8519
 20
331.47
 11
25.9684
 21
331.891
  0
LINE
  8
0
 10
25.9684
 20
331.891
 11
26.0924
 21
332.309
  0
LINE
  8
0
 10
26.0924
 20
332.309
 11
26.2236
 21
332.725
  0
LINE
  8
0
 10
26.2236
 20
332.725
 11
26.362
 21
333.139
  0
LINE
  8
0
 10
26.362
 20
333.139
 11
26.5077
 21
333.55
  0
LINE
  8
0
 10
26.5077
 20
333.55
 11
26.6605
 21
333.959
  0
LINE
  8
0
 10
26.6605
 20
333.959
 11
26.8204
 21
334.365
  0
LINE
  8
0
 10
26.8204
 20
334.365
 11
26.9874
 21
334.768
  0
LINE
  8
0
 10
26.9874
 20
334.768
 11
27.1614
 21
335.168
  0
LINE
  8
0
 10
27.1614
 20
335.168
 11
27.3423
 21
335.565
  0
LINE
  8
0
 10
27.3423
 20
335.565
 11
27.5301
 21
335.959
  0
LINE
  8
0
 10
27.5301
 20
335.959
 11
27.7248
 21
336.35
  0
LINE
  8
0
 10
27.7248
 20
336.35
 11
27.9263
 21
336.737
  0
LINE
  8
0
 10
27.9263
 20
336.737
 11
28.1345
 21
337.12
  0
LINE
  8
0
 10
28.1345
 20
337.12
 11
28.3493
 21
337.5
  0
LINE
  8
0
 10
28.3493
 20
337.5
 11
28.5708
 21
337.876
  0
LINE
  8
0
 10
28.5708
 20
337.876
 11
28.7988
 21
338.248
  0
LINE
  8
0
 10
28.7988
 20
338.248
 11
29.0332
 21
338.616
  0
LINE
  8
0
 10
29.0332
 20
338.616
 11
29.274
 21
338.98
  0
LINE
  8
0
 10
29.274
 20
338.98
 11
29.5212
 21
339.339
  0
LINE
  8
0
 10
29.5212
 20
339.339
 11
29.7746
 21
339.695
  0
LINE
  8
0
 10
29.7746
 20
339.695
 11
30.0341
 21
340.045
  0
LINE
  8
0
 10
30.0341
 20
340.045
 11
30.2997
 21
340.392
  0
LINE
  8
0
 10
30.2997
 20
340.392
 11
30.5714
 21
340.733
  0
LINE
  8
0
 10
30.5714
 20
340.733
 11
30.8489
 21
341.07
  0
LINE
  8
0
 10
30.8489
 20
341.07
 11
31.1322
 21
341.401
  0
LINE
  8
0
 10
31.1322
 20
341.401
 11
31.4214
 21
341.728
  0
LINE
  8
0
 10
31.4214
 20
341.728
 11
31.7162
 21
342.05
  0
LINE
  8
0
 10
31.7162
 20
342.05
 11
32.0165
 21
342.366
  0
LINE
  8
0
 10
32.0165
 20
342.366
 11
32.3223
 21
342.678
  0
LINE
  8
0
 10
32.3223
 20
342.678
 11
32.6335
 21
342.983
  0
LINE
  8
0
 10
32.6335
 20
342.983
 11
32.95
 21
343.284
  0
LINE
  8
0
 10
32.95
 20
343.284
 11
33.2717
 21
343.579
  0
LINE
  8
0
 10
33.2717
 20
343.579
 11
33.5985
 21
343.868
  0
LINE
  8
0
 10
33.5985
 20
343.868
 11
33.9303
 21
344.151
  0
LINE
  8
0
 10
33.9303
 20
344.151
 11
34.267
 21
344.429
  0
LINE
  8
0
 10
34.267
 20
344.429
 11
34.6085
 21
344.7
  0
LINE
  8
0
 10
34.6085
 20
344.7
 11
34.9546
 21
344.966
  0
LINE
  8
0
 10
34.9546
 20
344.966
 11
35.3054
 21
345.225
  0
LINE
  8
0
 10
35.3054
 20
345.225
 11
35.6606
 21
345.479
  0
LINE
  8
0
 10
35.6606
 20
345.479
 11
36.0202
 21
345.726
  0
LINE
  8
0
 10
36.0202
 20
345.726
 11
36.384
 21
345.967
  0
LINE
  8
0
 10
36.384
 20
345.967
 11
36.752
 21
346.201
  0
LINE
  8
0
 10
36.752
 20
346.201
 11
37.124
 21
346.429
  0
LINE
  8
0
 10
37.124
 20
346.429
 11
37.5
 21
346.651
  0
LINE
  8
0
 10
37.5
 20
346.651
 11
37.8797
 21
346.865
  0
LINE
  8
0
 10
37.8797
 20
346.865
 11
38.2632
 21
347.074
  0
LINE
  8
0
 10
38.2632
 20
347.074
 11
38.6502
 21
347.275
  0
LINE
  8
0
 10
38.6502
 20
347.275
 11
39.0407
 21
347.47
  0
LINE
  8
0
 10
39.0407
 20
347.47
 11
39.4345
 21
347.658
  0
LINE
  8
0
 10
39.4345
 20
347.658
 11
39.8316
 21
347.839
  0
LINE
  8
0
 10
39.8316
 20
347.839
 11
40.2317
 21
348.013
  0
LINE
  8
0
 10
40.2317
 20
348.013
 11
40.6348
 21
348.18
  0
LINE
  8
0
 10
40.6348
 20
348.18
 11
41.0408
 21
348.34
  0
LINE
  8
0
 10
41.0408
 20
348.34
 11
41.4495
 21
348.492
  0
LINE
  8
0
 10
41.4495
 20
348.492
 11
41.8608
 21
348.638
  0
LINE
  8
0
 10
41.8608
 20
348.638
 11
42.2746
 21
348.776
  0
LINE
  8
0
 10
42.2746
 20
348.776
 11
42.6907
 21
348.908
  0
LINE
  8
0
 10
42.6907
 20
348.908
 11
43.1091
 21
349.032
  0
LINE
  8
0
 10
43.1091
 20
349.032
 11
43.5295
 21
349.148
  0
LINE
  8
0
 10
43.5295
 20
349.148
 11
43.952
 21
349.257
  0
LINE
  8
0
 10
43.952
 20
349.257
 11
44.3762
 21
349.359
  0
LINE
  8
0
 10
44.3762
 20
349.359
 11
44.8022
 21
349.454
  0
LINE
  8
0
 10
44.8022
 20
349.454
 11
45.2298
 21
349.541
  0
LINE
  8
0
 10
45.2298
 20
349.541
 11
45.6588
 21
349.62
  0
LINE
  8
0
 10
45.6588
 20
349.62
 11
46.0891
 21
349.692
  0
LINE
  8
0
 10
46.0891
 20
349.692
 11
46.5207
 21
349.757
  0
LINE
  8
0
 10
46.5207
 20
349.757
 11
46.9533
 21
349.814
  0
LINE
  8
0
 10
46.9533
 20
349.814
 11
47.3868
 21
349.863
  0
LINE
  8
0
 10
47.3868
 20
349.863
 11
47.8211
 21
349.905
  0
LINE
  8
0
 10
47.8211
 20
349.905
 11
48.2561
 21
349.939
  0
LINE
  8
0
 10
48.2561
 20
349.939
 11
48.6916
 21
349.966
  0
LINE
  8
0
 10
48.6916
 20
349.966
 11
49.1275
 21
349.985
  0
LINE
  8
0
 10
49.1275
 20
349.985
 11
49.5637
 21
349.996
  0
LINE
  8
0
 10
49.5637
 20
349.996
 11
50
 21
350
  0
LINE
  8
0
 10
50
 20
350
 11
50.4363
 21
349.996
  0
LINE
  8
0
 10
50.4363
 20
349.996
 11
50.8725
 21
349.985
  0
LINE
  8
0
 10
50.8725
 20
349.985
 11
51.3084
 21
349.966
  0
LINE
  8
0
 10
51.3084
 20
349.966
 11
51.7439
 21
349.939
  0
LINE
  8
0
 10
51.7439
 20
349.939
 11
52.1789
 21
349.905
  0
LINE
  8
0
 10
52.1789
 20
349.905
 11
52.6132
 21
349.863
  0
LINE
  8
0
 10
52.6132
 20
349.863
 11
53.0467
 21
349.814
  0
LINE
  8
0
 10
53.0467
 20
349.814
 11
53.4793
 21
349.757
  0
LINE
  8
0
 10
53.4793
 20
349.757
 11
53.9109
 21
349.692
  0
LINE
  8
0
 10
53.9109
 20
349.692
 11
54.3412
 21
349.62
  0
LINE
  8
0
 10
54.3412
 20
349.62
 11
54.7702
 21
349.541
  0
LINE
  8
0
 10
54.7702
 20
349.541
 11
55.1978
 21
349.454
  0
LINE
  8
0
 10
55.1978
 20
349.454
 11
55.6238
 21
349.359
  0
LINE
  8
0
 10
55.6238
 20
349.359
 11
56.048
 21
349.257
  0
LINE
  8
0
 10
56.048
 20
349.257
 11
56.4705
 21
349.148
  0
LINE
  8
0
 10
56.4705
 20
349.148
 11
56.8909
 21
349.032
  0
LINE
  8
0
 10
56.8909
 20
349.032
 11
57.3093
 21
348.908
  0
LINE
  8
0
 10
57.3093
 20
348.908
 11
57.7254
 21
348.776
  0
LINE
  8
0
 10
57.7254
 20
348.776
 11
58.1392
 21
348.638
  0
LINE
  8
0
 10
58.1392
 20
348.638
 11
58.5505
 21
348.492
  0
LINE
  8
0
 10
58.5505
 20
348.492
 11
58.9592
 21
348.34
  0
LINE
  8
0
 10
58.9592
 20
348.34
 11
59.3652
 21
348.18
  0
LINE
  8
0
 10
59.3652
 20
348.18
 11
59.7683
 21
348.013
  0
LINE
  8
0
 10
59.7683
 20
348.013
 11
60.1684
 21
347.839
  0
LINE
  8
0
 10
60.1684
 20
347.839
 11
60.5654
 21
347.658
  0
LINE
  8
0
 10
60.5654
 20
347.658
 11
60.9593
 21
347.47
  0
LINE
  8
0
 10
60.9593
 20
347.47
 11
61.3498
 21
347.275
  0
LINE
  8
0
 10
61.3498
 20
347.275
 11
61.7368
 21
347.074
  0
LINE
  8
0
 10
61.7368
 20
347.074
 11
62.1202
 21
346.865
  0
LINE
  8
0
 10
62.1202
 20
346.865
 11
62.5
 21
346.651
  0
LINE
  8
0
 10
62.5
 20
346.651
 11
62.8759
 21
346.429
  0
LINE
  8
0
 10
62.8759
 20
346.429
 11
63.248
 21
346.201
  0
LINE
  8
0
 10
63.248
 20
346.201
 11
63.616
 21
345.967
  0
LINE
  8
0
 10
63.616
 20
345.967
 11
63.9798
 21
345.726
  0
LINE
  8
0
 10
63.9798
 20
345.726
 11
64.3394
 21
345.479
  0
LINE
  8
0
 10
64.3394
 20
345.479
 11
64.6946
 21
345.225
  0
LINE
  8
0
 10
64.6946
 20
345.225
 11
65.0454
 21
344.966
  0
LINE
  8
0
 10
65.0454
 20
344.966
 11
65.3915
 21
344.7
  0
LINE
  8
0
 10
65.3915
 20
344.7
 11
65.733
 21
344.429
  0
LINE
  8
0
 10
65.733
 20
344.429
 11
66.0697
 21
344.151
  0
LINE
  8
0
 10
66.0697
 20
344.151
 11
66.4015
 21
343.868
  0
LINE
  8
0
 10
66.4015
 20
343.868
 11
66.7283
 21
343.579
  0
LINE
  8
0
 10
66.7283
 20
343.579
 11
67.05
 21
343.284
  0
LINE
  8
0
 10
67.05
 20
343.284
 11
67.3665
 21
342.983
  0
LINE
  8
0
 10
67.3665
 20
342.983
 11
67.6777
 21
342.678
  0
LINE
  8
0
 10
67.6777
 20
342.678
 11
67.9835
 21
342.366
  0
LINE
  8
0
 10
67.9835
 20
342.366
 11
68.2838
 21
342.05
  0
LINE
  8
0
 10
68.2838
 20
342.05
 11
68.5786
 21
341.728
  0
LINE
  8
0
 10
68.5786
 20
341.728
 11
68.8677
 21
341.401
  0
LINE
  8
0
 10
68.8677
 20
341.401
 11
69.1511
 21
341.07
  0
LINE
  8
0
 10
69.1511
 20
341.07
 11
69.4286
 21
340.733
  0
LINE
  8
0
 10
69.4286
 20
340.733
 11
69.7003
 21
340.392
  0
LINE
  8
0
 10
69.7003
 20
340.392
 11
69.9659
 21
340.045
  0
LINE
  8
0
 10
69.9659
 20
340.045
 11
70.2254
 21
339.695
  0
LINE
  8
0
 10
70.2254
 20
339.695
 11
70.4788
 21
339.339
  0
LINE
  8
0
 10
70.4788
 20
339.339
 11
70.7259
 21
338.98
  0
LINE
  8
0
 10
70.7259
 20
338.98
 11
70.9668
 21
338.616
  0
LINE
  8
0
 10
70.9668
 20
338.616
 11
71.2012
 21
338.248
  0
LINE
  8
0
 10
71.2012
 20
338.248
 11
71.4292
 21
337.876
  0
LINE
  8
0
 10
71.4292
 20
337.876
 11
71.6506
 21
337.5
  0
LINE
  8
0
 10
71.6506
 20
337.5
 11
71.8655
 21
337.12
  0
LINE
  8
0
 10
71.8655
 20
337.12
 11
72.0737
 21
336.737
  0
LINE
  8
0
 10
72.0737
 20
336.737
 11
72.2752
 21
336.35
  0
LINE
  8
0
 10
72.2752
 20
336.35
 11
72.4698
 21
335.959
  0
LINE
  8
0
 10
72.4698
 20
335.959
 11
72.6577
 21
335.565
  0
LINE
  8
0
 10
72.6577
 20
335.565
 11
72.8386
 21
335.168
  0
LINE
  8
0
 10
72.8386
 20
335.168
 11
73.0126
 21
334.768
  0
LINE
  8
0
 10
73.0126
 20
334.768
 11
73.1796
 21
334.365
  0
LINE
  8
0
 10
73.1796
 20
334.365
 11
73.3395
 21
333.959
  0
LINE
  8
0
 10
73.3395
 20
333.959
 11
73.4923
 21
333.55
  0
LINE
  8
0
 10
73.4923
 20
333.55
 11
73.638
 21
333.139
  0
LINE
  8
0
 10
73.638
 20
333.139
 11
73.7764
 21
332.725
  0
LINE
  8
0
 10
73.7764
 20
332.725
 11
73.9076
 21
332.309
  0
LINE
  8
0
 10
73.9076
 20
332.309
 11
74.0315
 21
331.891
  0
LINE
  8
0
 10
74.0315
 20
331.891
 11
74.1481
 21
331.47
  0
LINE
  8
0
 10
74.1481
 20
331.47
 11
74.2574
 21
331.048
  0
LINE
  8
0
 10
74.2574
 20
331.048
 11
74.3592
 21
330.624
  0
LINE
  8
0
 10
74.3592
 20
330.624
 11
74.4537
 21
330.198
  0
LINE
  8
0
 10
74.4537
 20
330.198
 11
74.5407
 21
329.77
  0
LINE
  8
0
 10
74.5407
 20
329.77
 11
74.6202
 21
329.341
  0
LINE
  8
0
 10
74.6202
 20
329.341
 11
74.6922
 21
328.911
  0
LINE
  8
0
 10
74.6922
 20
328.911
 11
74.7567
 21
328.479
  0
LINE
  8
0
 10
74.7567
 20
328.479
 11
74.8136
 21
328.047
  0
LINE
  8
0
 10
74.8136
 20
328.047
 11
74.863
 21
327.613
  0
LINE
  8
0
 10
74.863
 20
327.613
 11
74.9049
 21
327.179
  0
LINE
  8
0
 10
74.9049
 20
327.179
 11
74.9391
 21
326.744
  0
LINE
  8
0
 10
74.9391
 20
326.744
 11
74.9657
 21
326.308
  0
LINE
  8
0
 10
74.9657
 20
326.308
 11
74.9848
 21
325.872
  0
LINE
  8
0
 10
74.9848
 20
325.872
 11
74.9962
 21
325.436
  0
LINE
  8
0
 10
74.9962
 20
325.436
 11
75
 21
325
  0
LINE
  8
0
 10
75
 20
325
 11
74.9962
 21
324.564
  0
LINE
  8
0
 10
74.9962
 20
324.564
 11
74.9848
 21
324.128
  0
LINE
  8
0
 10
74.9848
 20
324.128
 11
74.9657
 21
323.692
  0
LINE
  8
0
 10
74.9657
 20
323.692
 11
74.9391
 21
323.256
  0
LINE
  8
0
 10
74.9391
 20
323.256
 11
74.9049
 21
322.821
  0
LINE
  8
0
 10
74.9049
 20
322.821
 11
74.863
 21
322.387
  0
LINE
  8
0
 10
74.863
 20
322.387
 11
74.8136
 21
321.953
  0
LINE
  8
0
 10
74.8136
 20
321.953
 11
74.7567
 21
321.521
  0
LINE
  8
0
 10
74.7567
 20
321.521
 11
74.6922
 21
321.089
  0
LINE
  8
0
 10
74.6922
 20
321.089
 11
74.6202
 21
320.659
  0
LINE
  8
0
 10
74.6202
 20
320.659
 11
74.5407
 21
320.23
  0
LINE
  8
0
 10
74.5407
 20
320.23
 11
74.4537
 21
319.802
  0
LINE
  8
0
 10
74.4537
 20
319.802
 11
74.3592
 21
319.376
  0
LINE
  8
0
 10
74.3592
 20
319.376
 11
74.2574
 21
318.952
  0
LINE
  8
0
 10
74.2574
 20
318.952
 11
74.1481
 21
318.53
  0
LINE
  8
0
 10
74.1481
 20
318.53
 11
74.0315
 21
318.109
  0
LINE
  8
0
 10
74.0315
 20
318.109
 11
73.9076
 21
317.691
  0
LINE
  8
0
 10
73.9076
 20
317.691
 11
73.7764
 21
317.275
  0
LINE
  8
0
 10
73.7764
 20
317.275
 11
73.638
 21
316.861
  0
LINE
  8
0
 10
73.638
 20
316.861
 11
73.4923
 21
316.449
  0
LINE
  8
0
 10
73.4923
 20
316.449
 11
73.3395
 21
316.041
  0
LINE
  8
0
 10
73.3395
 20
316.041
 11
73.1796
 21
315.635
  0
LINE
  8
0
 10
73.1796
 20
315.635
 11
73.0126
 21
315.232
  0
LINE
  8
0
 10
73.0126
 20
315.232
 11
72.8386
 21
314.832
  0
LINE
  8
0
 10
72.8386
 20
314.832
 11
72.6577
 21
314.435
  0
LINE
  8
0
 10
72.6577
 20
314.435
 11
72.4698
 21
314.041
  0
LINE
  8
0
 10
72.4698
 20
314.041
 11
72.2752
 21
313.65
  0
LINE
  8
0
 10
72.2752
 20
313.65
 11
72.0737
 21
313.263
  0
LINE
  8
0
 10
72.0737
 20
313.263
 11
71.8655
 21
312.88
  0
LINE
  8
0
 10
71.8655
 20
312.88
 11
71.6506
 21
312.5
  0
LINE
  8
0
 10
71.6506
 20
312.5
 11
71.4292
 21
312.124
  0
LINE
  8
0
 10
71.4292
 20
312.124
 11
71.2012
 21
311.752
  0
LINE
  8
0
 10
71.2012
 20
311.752
 11
70.9668
 21
311.384
  0
LINE
  8
0
 10
70.9668
 20
311.384
 11
70.7259
 21
311.02
  0
LINE
  8
0
 10
70.7259
 20
311.02
 11
70.4788
 21
310.661
  0
LINE
  8
0
 10
70.4788
 20
310.661
 11
70.2254
 21
310.305
  0
LINE
  8
0
 10
70.2254
 20
310.305
 11
69.9659
 21
309.955
  0
LINE
  8
0
 10
69.9659
 20
309.955
 11
69.7003
 21
309.608
  0
LINE
  8
0
 10
69.7003
 20
309.608
 11
69.4286
 21
309.267
  0
LINE
  8
0
 10
69.4286
 20
309.267
 11
69.1511
 21
308.93
  0
LINE
  8
0
 10
69.1511
 20
308.93
 11
68.8677
 21
308.599
  0
LINE
  8
0
 10
68.8677
 20
308.599
 11
68.5786
 21
308.272
  0
LINE
  8
0
 10
68.5786
 20
308.272
 11
68.2838
 21
307.95
  0
LINE
  8
0
 10
68.2838
 20
307.95
 11
67.9835
 21
307.634
  0
LINE
  8
0
 10
67.9835
 20
307.634
 11
67.6777
 21
307.322
  0
LINE
  8
0
 10
67.6777
 20
307.322
 11
67.3665
 21
307.016
  0
LINE
  8
0
 10
67.3665
 20
307.016
 11
67.05
 21
306.716
  0
LINE
  8
0
 10
67.05
 20
306.716
 11
66.7283
 21
306.421
  0
LINE
  8
0
 10
66.7283
 20
306.421
 11
66.4015
 21
306.132
  0
LINE
  8
0
 10
66.4015
 20
306.132
 11
66.0697
 21
305.849
  0
LINE
  8
0
 10
66.0697
 20
305.849
 11
65.733
 21
305.571
  0
LINE
  8
0
 10
65.733
 20
305.571
 11
65.3915
 21
305.3
  0
LINE
  8
0
 10
65.3915
 20
305.3
 11
65.0454
 21
305.034
  0
LINE
  8
0
 10
65.0454
 20
305.034
 11
64.6946
 21
304.775
  0
LINE
  8
0
 10
64.6946
 20
304.775
 11
64.3394
 21
304.521
  0
LINE
  8
0
 10
64.3394
 20
304.521
 11
63.9798
 21
304.274
  0
LINE
  8
0
 10
63.9798
 20
304.274
 11
63.616
 21
304.033
  0
LINE
  8
0
 10
63.616
 20
304.033
 11
63.248
 21
303.799
  0
LINE
  8
0
 10
63.248
 20
303.799
 11
62.8759
 21
303.571
  0
LINE
  8
0
 10
62.8759
 20
303.571
 11
62.5
 21
303.349
  0
LINE
  8
0
 10
62.5
 20
303.349
 11
62.1202
 21
303.135
  0
LINE
  8
0
 10
62.1202
 20
303.135
 11
61.7368
 21
302.926
  0
LINE
  8
0
 10
61.7368
 20
302.926
 11
61.3498
 21
302.725
  0
LINE
  8
0
 10
61.3498
 20
302.725
 11
60.9593
 21
302.53
  0
LINE
  8
0
 10
60.9593
 20
302.53
 11
60.5654
 21
302.342
  0
LINE
  8
0
 10
60.5654
 20
302.342
 11
60.1684
 21
302.161
  0
LINE
  8
0
 10
60.1684
 20
302.161
 11
59.7683
 21
301.987
  0
LINE
  8
0
 10
59.7683
 20
301.987
 11
59.3652
 21
301.82
  0
LINE
  8
0
 10
59.3652
 20
301.82
 11
58.9592
 21
301.66
  0
LINE
  8
0
 10
58.9592
 20
301.66
 11
58.5505
 21
301.508
  0
LINE
  8
0
 10
58.5505
 20
301.508
 11
58.1392
 21
301.362
  0
LINE
  8
0
 10
58.1392
 20
301.362
 11
57.7254
 21
301.224
  0
LINE
  8
0
 10
57.7254
 20
301.224
 11
57.3093
 21
301.092
  0
LINE
  8
0
 10
57.3093
 20
301.092
 11
56.8909
 21
300.968
  0
LINE
  8
0
 10
56.8909
 20
300.968
 11
56.4705
 21
300.852
  0
LINE
  8
0
 10
56.4705
 20
300.852
 11
56.048
 21
300.743
  0
LINE
  8
0
 10
56.048
 20
300.743
 11
55.6238
 21
300.641
  0
LINE
  8
0
 10
55.6238
 20
300.641
 11
55.1978
 21
300.546
  0
LINE
  8
0
 10
55.1978
 20
300.546
 11
54.7702
 21
300.459
  0
LINE
  8
0
 10
54.7702
 20
300.459
 11
54.3412
 21
300.38
  0
LINE
  8
0
 10
54.3412
 20
300.38
 11
53.9109
 21
300.308
  0
LINE
  8
0
 10
53.9109
 20
300.308
 11
53.4793
 21
300.243
  0
LINE
  8
0
 10
53.4793
 20
300.243
 11
53.0467
 21
300.186
  0
LINE
  8
0
 10
53.0467
 20
300.186
 11
52.6132
 21
300.137
  0
LINE
  8
0
 10
52.6132
 20
300.137
 11
52.1789
 21
300.095
  0
LINE
  8
0
 10
52.1789
 20
300.095
 11
51.7439
 21
300.061
  0
LINE
  8
0
 10
51.7439
 20
300.061
 11
51.3084
 21
300.034
  0
LINE
  8
0
 10
51.3084
 20
300.034
 11
50.8725
 21
300.015
  0
LINE
  8
0
 10
50.8725
 20
300.015
 11
50.4363
 21
300.004
  0
LINE
  8
0
 10
50.4363
 20
300.004
 11
50
 21
300
  0
LINE
  8
0
 10
50
 20
300
 11
49.5637
 21
300.004
  0
LINE
  8
0
 10
105.276
 20
277.535
 11
133.091
 21
288.773
  0
LINE
  8
0
 10
133.091
 20
288.773
 11
183.288
 21
164.53
  0
LINE
  8
0
 10
183.288
 20
164.53
 11
155.473
 21
153.292
  0
LINE
  8
0
 10
155.473
 20
153.292
 11
105.276
 21
277.535
  0
LINE
  8
0
 10
58.4415
 20
206.005
 11
57.8832
 21
206.019
  0
LINE
  8
0
 10
57.8832
 20
206.019
 11
57.3252
 21
206.044
  0
LINE
  8
0
 10
57.3252
 20
206.044
 11
56.7678
 21
206.078
  0
LINE
  8
0
 10
56.7678
 20
206.078
 11
56.211
 21
206.122
  0
LINE
  8
0
 10
56.211
 20
206.122
 11
55.6551
 21
206.175
  0
LINE
  8
0
 10
55.6551
 20
206.175
 11
55.1002
 21
206.239
  0
LINE
  8
0
 10
55.1002
 20
206.239
 11
54.5464
 21
206.311
  0
LINE
  8
0
 10
54.5464
 20
206.311
 11
53.9941
 21
206.394
  0
LINE
  8
0
 10
53.9941
 20
206.394
 11
53.4433
 21
206.486
  0
LINE
  8
0
 10
53.4433
 20
206.486
 11
52.8941
 21
206.588
  0
LINE
  8
0
 10
52.8941
 20
206.588
 11
52.3468
 21
206.699
  0
LINE
  8
0
 10
52.3468
 20
206.699
 11
51.8016
 21
206.82
  0
LINE
  8
0
 10
51.8016
 20
206.82
 11
51.2585
 21
206.951
  0
LINE
  8
0
 10
51.2585
 20
206.951
 11
50.7178
 21
207.09
  0
LINE
  8
0
 10
50.7178
 20
207.09
 11
50.1796
 21
207.24
  0
LINE
  8
0
 10
50.1796
 20
207.24
 11
49.6441
 21
207.398
  0
LINE
  8
0
 10
49.6441
 20
207.398
 11
49.1115
 21
207.566
  0
LINE
  8
0
 10
49.1115
 20
207.566
 11
48.5818
 21
207.743
  0
LINE
  8
0
 10
48.5818
 20
207.743
 11
48.0553
 21
207.93
  0
LINE
  8
0
 10
48.0553
 20
207.93
 11
47.5322
 21
208.125
  0
LINE
  8
0
 10
47.5322
 20
208.125
 11
47.0126
 21
208.33
  0
LINE
  8
0
 10
47.0126
 20
208.33
 11
46.4966
 21
208.544
  0
LINE
  8
0
 10
46.4966
 20
208.544
 11
45.9844
 21
208.767
  0
LINE
  8
0
 10
45.9844
 20
208.767
 11
45.4762
 21
208.998
  0
LINE
  8
0
 10
45.4762
 20
208.998
 11
44.9721
 21
209.239
  0
LINE
  8
0
 10
44.9721
 20
209.239
 11
44.4723
 21
209.488
  0
LINE
  8
0
 10
44.4723
 20
209.488
 11
43.9769
 21
209.746
  0
LINE
  8
0
 10
43.9769
 20
209.746
 11
43.4861
 21
210.012
  0
LINE
  8
0
 10
43.4861
 20
210.012
 11
43
 21
210.287
  0
LINE
  8
0
 10
43
 20
210.287
 11
42.5188
 21
210.571
  0
LINE
  8
0
 10
42.5188
 20
210.571
 11
42.0426
 21
210.862
  0
LINE
  8
0
 10
42.0426
 20
210.862
 11
41.5715
 21
211.163
  0
LINE
  8
0
 10
41.5715
 20
211.163
 11
41.1058
 21
211.471
  0
LINE
  8
0
 10
41.1058
 20
211.471
 11
40.6456
 21
211.787
  0
LINE
  8
0
 10
40.6456
 20
211.787
 11
40.1909
 21
212.111
  0
LINE
  8
0
 10
40.1909
 20
212.111
 11
39.7419
 21
212.444
  0
LINE
  8
0
 10
39.7419
 20
212.444
 11
39.2988
 21
212.784
  0
LINE
  8
0
 10
39.2988
 20
212.784
 11
38.8617
 21
213.131
  0
LINE
  8
0
 10
38.8617
 20
213.131
 11
38.4308
 21
213.487
  0
LINE
  8
0
 10
38.4308
 20
213.487
 11
38.0061
 21
213.849
  0
LINE
  8
0
 10
38.0061
 20
213.849
 11
37.5878
 21
214.219
  0
LINE
  8
0
 10
37.5878
 20
214.219
 11
37.176
 21
214.597
  0
LINE
  8
0
 10
37.176
 20
214.597
 11
36.7709
 21
214.981
  0
LINE
  8
0
 10
36.7709
 20
214.981
 11
36.3726
 21
215.373
  0
LINE
  8
0
 10
36.3726
 20
215.373
 11
35.9811
 21
215.771
  0
LINE
  8
0
 10
35.9811
 20
215.771
 11
35.5967
 21
216.176
  0
LINE
  8
0
 10
35.5967
 20
216.176
 11
35.2194
 21
216.588
  0
LINE
  8
0
 10
35.2194
 20
216.588
 11
34.8493
 21
217.006
  0
LINE
  8
0
 10
34.8493
 20
217.006
 11
34.4866
 21
217.431
  0
LINE
  8
0
 10
34.4866
 20
217.431
 11
34.1313
 21
217.862
  0
LINE
  8
0
 10
34.1313
 20
217.862
 11
33.7836
 21
218.299
  0
LINE
  8
0
 10
33.7836
 20
218.299
 11
33.4436
 21
218.742
  0
LINE
  8
0
 10
33.4436
 20
218.742
 11
33.1115
 21
219.191
  0
LINE
  8
0
 10
33.1115
 20
219.191
 11
32.7871
 21
219.646
  0
LINE
  8
0
 10
32.7871
 20
219.646
 11
32.4708
 21
220.106
  0
LINE
  8
0
 10
32.4708
 20
220.106
 11
32.1625
 21
220.572
  0
LINE
  8
0
 10
32.1625
 20
220.572
 11
31.8625
 21
221.043
  0
LINE
  8
0
 10
31.8625
 20
221.043
 11
31.5706
 21
221.519
  0
LINE
  8
0
 10
31.5706
 20
221.519
 11
31.2872
 21
222
  0
LINE
  8
0
 10
31.2872
 20
222
 11
31.0122
 21
222.486
  0
LINE
  8
0
 10
31.0122
 20
222.486
 11
30.7457
 21
222.977
  0
LINE
  8
0
 10
30.7457
 20
222.977
 11
30.4878
 21
223.472
  0
LINE
  8
0
 10
30.4878
 20
223.472
 11
30.2386
 21
223.972
  0
LINE
  8
0
 10
30.2386
 20
223.972
 11
29.9981
 21
224.476
  0
LINE
  8
0
 10
29.9981
 20
224.476
 11
29.7665
 21
224.984
  0
LINE
  8
0
 10
29.7665
 20
224.984
 11
29.5438
 21
225.497
  0
LINE
  8
0
 10
29.5438
 20
225.497
 11
29.3301
 21
226.013
  0
LINE
  8
0
 10
29.3301
 20
226.013
 11
29.1254
 21
226.532
  0
LINE
  8
0
 10
29.1254
 20
226.532
 11
28.9298
 21
227.055
  0
LINE
  8
0
 10
28.9298
 20
227.055
 11
28.7434
 21
227.582
  0
LINE
  8
0
 10
28.7434
 20
227.582
 11
28.5662
 21
228.111
  0
LINE
  8
0
 10
28.5662
 20
228.111
 11
28.3982
 21
228.644
  0
LINE
  8
0
 10
28.3982
 20
228.644
 11
28.2396
 21
229.18
  0
LINE
  8
0
 10
28.2396
 20
229.18
 11
28.0904
 21
229.718
  0
LINE
  8
0
 10
28.0904
 20
229.718
 11
27.9505
 21
230.258
  0
LINE
  8
0
 10
27.9505
 20
230.258
 11
27.8201
 21
230.802
  0
LINE
  8
0
 10
27.8201
 20
230.802
 11
27.6993
 21
231.347
  0
LINE
  8
0
 10
27.6993
 20
231.347
 11
27.5879
 21
231.894
  0
LINE
  8
0
 10
27.5879
 20
231.894
 11
27.4861
 21
232.443
  0
LINE
  8
0
 10
27.4861
 20
232.443
 11
27.394
 21
232.994
  0
LINE
  8
0
 10
27.394
 20
232.994
 11
27.3114
 21
233.546
  0
LINE
  8
0
 10
27.3114
 20
233.546
 11
27.2385
 21
234.1
  0
LINE
  8
0
 10
27.2385
 20
234.1
 11
27.1753
 21
234.655
  0
LINE
  8
0
 10
27.1753
 20
234.655
 11
27.1218
 21
235.211
  0
LINE
  8
0
 10
27.1218
 20
235.211
 11
27.0779
 21
235.768
  0
LINE
  8
0
 10
27.0779
 20
235.768
 11
27.0439
 21
236.325
  0
LINE
  8
0
 10
27.0439
 20
236.325
 11
27.0195
 21
236.883
  0
LINE
  8
0
 10
27.0195
 20
236.883
 11
27.0049
 21
237.442
  0
LINE
  8
0
 10
27.0049
 20
237.442
 11
27
 21
238
  0
LINE
  8
0
 10
27
 20
238
 11
27.0049
 21
238.558
  0
LINE
  8
0
 10
27.0049
 20
238.558
 11
27.0195
 21
239.117
  0
LINE
  8
0
 10
27.0195
 20
239.117
 11
27.0439
 21
239.675
  0
LINE
  8
0
 10
27.0439
 20
239.675
 11
27.0779
 21
240.232
  0
LINE
  8
0
 10
27.0779
 20
240.232
 11
27.1218
 21
240.789
  0
LINE
  8
0
 10
27.1218
 20
240.789
 11
27.1753
 21
241.345
  0
LINE
  8
0
 10
27.1753
 20
241.345
 11
27.2385
 21
241.9
  0
LINE
  8
0
 10
27.2385
 20
241.9
 11
27.3114
 21
242.454
  0
LINE
  8
0
 10
27.3114
 20
242.454
 11
27.394
 21
243.006
  0
LINE
  8
0
 10
27.394
 20
243.006
 11
27.4861
 21
243.557
  0
LINE
  8
0
 10
27.4861
 20
243.557
 11
27.5879
 21
244.106
  0
LINE
  8
0
 10
27.5879
 20
244.106
 11
27.6993
 21
244.653
  0
LINE
  8
0
 10
27.6993
 20
244.653
 11
27.8201
 21
245.198
  0
LINE
  8
0
 10
27.8201
 20
245.198
 11
27.9505
 21
245.741
  0
LINE
  8
0
 10
27.9505
 20
245.741
 11
28.0904
 21
246.282
  0
LINE
  8
0
 10
28.0904
 20
246.282
 11
28.2396
 21
246.82
  0
LINE
  8
0
 10
28.2396
 20
246.82
 11
28.3982
 21
247.356
  0
LINE
  8
0
 10
28.3982
 20
247.356
 11
28.5662
 21
247.889
  0
LINE
  8
0
 10
28.5662
 20
247.889
 11
28.7434
 21
248.418
  0
LINE
  8
0
 10
28.7434
 20
248.418
 11
28.9298
 21
248.945
  0
LINE
  8
0
 10
28.9298
 20
248.945
 11
29.1254
 21
249.468
  0
LINE
  8
0
 10
29.1254
 20
249.468
 11
29.3301
 21
249.987
  0
LINE
  8
0
 10
29.3301
 20
249.987
 11
29.5438
 21
250.503
  0
LINE
  8
0
 10
29.5438
 20
250.503
 11
29.7665
 21
251.016
  0
LINE
  8
0
 10
29.7665
 20
251.016
 11
29.9981
 21
251.524
  0
LINE
  8
0
 10
29.9981
 20
251.524
 11
30.2386
 21
252.028
  0
LINE
  8
0
 10
30.2386
 20
252.028
 11
30.4878
 21
252.528
  0
LINE
  8
0
 10
30.4878
 20
252.528
 11
30.7457
 21
253.023
  0
LINE
  8
0
 10
30.7457
 20
253.023
 11
31.0122
 21
253.514
  0
LINE
  8
0
 10
31.0122
 20
253.514
 11
31.2872
 21
254
  0
LINE
  8
0
 10
31.2872
 20
254
 11
31.5706
 21
254.481
  0
LINE
  8
0
 10
31.5706
 20
254.481
 11
31.8625
 21
254.957
  0
LINE
  8
0
 10
31.8625
 20
254.957
 11
32.1625
 21
255.428
  0
LINE
  8
0
 10
32.1625
 20
255.428
 11
32.4708
 21
255.894
  0
LINE
  8
0
 10
32.4708
 20
255.894
 11
32.7871
 21
256.354
  0
LINE
  8
0
 10
32.7871
 20
256.354
 11
33.1115
 21
256.809
  0
LINE
  8
0
 10
33.1115
 20
256.809
 11
33.4436
 21
257.258
  0
LINE
  8
0
 10
33.4436
 20
257.258
 11
33.7836
 21
257.701
  0
LINE
  8
0
 10
33.7836
 20
257.701
 11
34.1313
 21
258.138
  0
LINE
  8
0
 10
34.1313
 20
258.138
 11
34.4866
 21
258.569
  0
LINE
  8
0
 10
34.4866
 20
258.569
 11
34.8493
 21
258.994
  0
LINE
  8
0
 10
34.8493
 20
258.994
 11
35.2194
 21
259.412
  0
LINE
  8
0
 10
35.2194
 20
259.412
 11
35.5967
 21
259.824
  0
LINE
  8
0
 10
35.5967
 20
259.824
 11
35.9811
 21
260.229
  0
LINE
  8
0
 10
35.9811
 20
260.229
 11
36.3726
 21
260.627
  0
LINE
  8
0
 10
36.3726
 20
260.627
 11
36.7709
 21
261.019
  0
LINE
  8
0
 10
36.7709
 20
261.019
 11
37.176
 21
261.403
  0
LINE
  8
0
 10
37.176
 20
261.403
 11
37.5878
 21
261.781
  0
LINE
  8
0
 10
37.5878
 20
261.781
 11
38.0061
 21
262.151
  0
LINE
  8
0
 10
38.0061
 20
262.151
 11
38.4308
 21
262.513
  0
LINE
  8
0
 10
38.4308
 20
262.513
 11
38.8617
 21
262.869
  0
LINE
  8
0
 10
38.8617
 20
262.869
 11
39.2988
 21
263.216
  0
LINE
  8
0
 10
39.2988
 20
263.216
 11
39.7419
 21
263.556
  0
LINE
  8
0
 10
39.7419
 20
263.556
 11
40.1909
 21
263.889
  0
LINE
  8
0
 10
40.1909
 20
263.889
 11
40.6456
 21
264.213
  0
LINE
  8
0
 10
40.6456
 20
264.213
 11
41.1058
 21
264.529
  0
LINE
  8
0
 10
41.1058
 20
264.529
 11
41.5715
 21
264.837
  0
LINE
  8
0
 10
41.5715
 20
264.837
 11
42.0426
 21
265.138
  0
LINE
  8
0
 10
42.0426
 20
265.138
 11
42.5188
 21
265.429
  0
LINE
  8
0
 10
42.5188
 20
265.429
 11
43
 21
265.713
  0
LINE
  8
0
 10
43
 20
265.713
 11
43.4861
 21
265.988
  0
LINE
  8
0
 10
43.4861
 20
265.988
 11
43.9769
 21
266.254
  0
LINE
  8
0
 10
43.9769
 20
266.254
 11
44.4723
 21
266.512
  0
LINE
  8
0
 10
44.4723
 20
266.512
 11
44.9721
 21
266.761
  0
LINE
  8
0
 10
44.9721
 20
266.761
 11
45.4762
 21
267.002
  0
LINE
  8
0
 10
45.4762
 20
267.002
 11
45.9844
 21
267.233
  0
LINE
  8
0
 10
45.9844
 20
267.233
 11
46.4966
 21
267.456
  0
LINE
  8
0
 10
46.4966
 20
267.456
 11
47.0126
 21
267.67
  0
LINE
  8
0
 10
47.0126
 20
267.67
 11
47.5322
 21
267.875
  0
LINE
  8
0
 10
47.5322
 20
267.875
 11
48.0553
 21
268.07
  0
LINE
  8
0
 10
48.0553
 20
268.07
 11
48.5818
 21
268.257
  0
LINE
  8
0
 10
48.5818
 20
268.257
 11
49.1115
 21
268.434
  0
LINE
  8
0
 10
49.1115
 20
268.434
 11
49.6441
 21
268.602
  0
LINE
  8
0
 10
49.6441
 20
268.602
 11
50.1796
 21
268.76
  0
LINE
  8
0
 10
50.1796
 20
268.76
 11
50.7178
 21
268.91
  0
LINE
  8
0
 10
50.7178
 20
268.91
 11
51.2585
 21
269.049
  0
LINE
  8
0
 10
51.2585
 20
269.049
 11
51.8016
 21
269.18
  0
LINE
  8
0
 10
51.8016
 20
269.18
 11
52.3468
 21
269.301
  0
LINE
  8
0
 10
52.3468
 20
269.301
 11
52.8941
 21
269.412
  0
LINE
  8
0
 10
52.8941
 20
269.412
 11
53.4433
 21
269.514
  0
LINE
  8
0
 10
53.4433
 20
269.514
 11
53.9941
 21
269.606
  0
LINE
  8
0
 10
53.9941
 20
269.606
 11
54.5464
 21
269.689
  0
LINE
  8
0
 10
54.5464
 20
269.689
 11
55.1002
 21
269.761
  0
LINE
  8
0
 10
55.1002
 20
269.761
 11
55.6551
 21
269.825
  0
LINE
  8
0
 10
55.6551
 20
269.825
 11
56.211
 21
269.878
  0
LINE
  8
0
 10
56.211
 20
269.878
 11
56.7678
 21
269.922
  0
LINE
  8
0
 10
56.7678
 20
269.922
 11
57.3252
 21
269.956
  0
LINE
  8
0
 10
57.3252
 20
269.956
 11
57.8832
 21
269.98
  0
LINE
  8
0
 10
57.8832
 20
269.98
 11
58.4415
 21
269.995
  0
LINE
  8
0
 10
58.4415
 20
269.995
 11
59
 21
270
  0
LINE
  8
0
 10
59
 20
270
 11
59.5585
 21
269.995
  0
LINE
  8
0
 10
59.5585
 20
269.995
 11
60.1168
 21
269.98
  0
LINE
  8
0
 10
60.1168
 20
269.98
 11
60.6747
 21
269.956
  0
LINE
  8
0
 10
60.6747
 20
269.956
 11
61.2322
 21
269.922
  0
LINE
  8
0
 10
61.2322
 20
269.922
 11
61.789
 21
269.878
  0
LINE
  8
0
 10
61.789
 20
269.878
 11
62.3449
 21
269.825
  0
LINE
  8
0
 10
62.3449
 20
269.825
 11
62.8998
 21
269.761
  0
LINE
  8
0
 10
62.8998
 20
269.761
 11
63.4535
 21
269.689
  0
LINE
  8
0
 10
63.4535
 20
269.689
 11
64.0059
 21
269.606
  0
LINE
  8
0
 10
64.0059
 20
269.606
 11
64.5567
 21
269.514
  0
LINE
  8
0
 10
64.5567
 20
269.514
 11
65.1059
 21
269.412
  0
LINE
  8
0
 10
65.1059
 20
269.412
 11
65.6532
 21
269.301
  0
LINE
  8
0
 10
65.6532
 20
269.301
 11
66.1984
 21
269.18
  0
LINE
  8
0
 10
66.1984
 20
269.18
 11
66.7415
 21
269.049
  0
LINE
  8
0
 10
66.7415
 20
269.049
 11
67.2822
 21
268.91
  0
LINE
  8
0
 10
67.2822
 20
268.91
 11
67.8204
 21
268.76
  0
LINE
  8
0
 10
67.8204
 20
268.76
 11
68.3559
 21
268.602
  0
LINE
  8
0
 10
68.3559
 20
268.602
 11
68.8885
 21
268.434
  0
LINE
  8
0
 10
68.8885
 20
268.434
 11
69.4182
 21
268.257
  0
LINE
  8
0
 10
69.4182
 20
268.257
 11
69.9446
 21
268.07
  0
LINE
  8
0
 10
69.9446
 20
268.07
 11
70.4678
 21
267.875
  0
LINE
  8
0
 10
70.4678
 20
267.875
 11
70.9874
 21
267.67
  0
LINE
  8
0
 10
70.9874
 20
267.67
 11
71.5034
 21
267.456
  0
LINE
  8
0
 10
71.5034
 20
267.456
 11
72.0156
 21
267.233
  0
LINE
  8
0
 10
72.0156
 20
267.233
 11
72.5238
 21
267.002
  0
LINE
  8
0
 10
72.5238
 20
267.002
 11
73.0279
 21
266.761
  0
LINE
  8
0
 10
73.0279
 20
266.761
 11
73.5277
 21
266.512
  0
LINE
  8
0
 10
73.5277
 20
266.512
 11
74.0231
 21
266.254
  0
LINE
  8
0
 10
74.0231
 20
266.254
 11
74.5139
 21
265.988
  0
LINE
  8
0
 10
74.5139
 20
265.988
 11
75
 21
265.713
  0
LINE
  8
0
 10
75
 20
265.713
 11
75.4812
 21
265.429
  0
LINE
  8
0
 10
75.4812
 20
265.429
 11
75.9574
 21
265.138
  0
LINE
  8
0
 10
75.9574
 20
265.138
 11
76.4284
 21
264.837
  0
LINE
  8
0
 10
76.4284
 20
264.837
 11
76.8942
 21
264.529
  0
LINE
  8
0
 10
76.8942
 20
264.529
 11
77.3544
 21
264.213
  0
LINE
  8
0
 10
77.3544
 20
264.213
 11
77.8091
 21
263.889
  0
LINE
  8
0
 10
77.8091
 20
263.889
 11
78.2581
 21
263.556
  0
LINE
  8
0
 10
78.2581
 20
263.556
 11
78.7012
 21
263.216
  0
LINE
  8
0
 10
78.7012
 20
263.216
 11
79.1382
 21
262.869
  0
LINE
  8
0
 10
79.1382
 20
262.869
 11
79.5692
 21
262.513
  0
LINE
  8
0
 10
79.5692
 20
262.513
 11
79.9939
 21
262.151
  0
LINE
  8
0
 10
79.9939
 20
262.151
 11
80.4122
 21
261.781
  0
LINE
  8
0
 10
80.4122
 20
261.781
 11
80.8239
 21
261.403
  0
LINE
  8
0
 10
80.8239
 20
261.403
 11
81.2291
 21
261.019
  0
LINE
  8
0
 10
81.2291
 20
261.019
 11
81.6274
 21
260.627
  0
LINE
  8
0
 10
81.6274
 20
260.627
 11
82.0189
 21
260.229
  0
LINE
  8
0
 10
82.0189
 20
260.229
 11
82.4033
 21
259.824
  0
LINE
  8
0
 10
82.4033
 20
259.824
 11
82.7806
 21
259.412
  0
LINE
  8
0
 10
82.7806
 20
259.412
 11
83.1507
 21
258.994
  0
LINE
  8
0
 10
83.1507
 20
258.994
 11
83.5134
 21
258.569
  0
LINE
  8
0
 10
83.5134
 20
258.569
 11
83.8687
 21
258.138
  0
LINE
  8
0
 10
83.8687
 20
258.138
 11
84.2163
 21
257.701
  0
LINE
  8
0
 10
84.2163
 20
257.701
 11
84.5563
 21
257.258
  0
LINE
  8
0
 10
84.5563
 20
257.258
 11
84.8885
 21
256.809
  0
LINE
  8
0
 10
84.8885
 20
256.809
 11
85.2129
 21
256.354
  0
LINE
  8
0
 10
85.2129
 20
256.354
 11
85.5292
 21
255.894
  0
LINE
  8
0
 10
85.5292
 20
255.894
 11
85.8374
 21
255.428
  0
LINE
  8
0
 10
85.8374
 20
255.428
 11
86.1375
 21
254.957
  0
LINE
  8
0
 10
86.1375
 20
254.957
 11
86.4294
 21
254.481
  0
LINE
  8
0
 10
86.4294
 20
254.481
 11
86.7128
 21
254
  0
LINE
  8
0
 10
86.7128
 20
254
 11
86.9878
 21
253.514
  0
LINE
  8
0
 10
86.9878
 20
253.514
 11
87.2543
 21
253.023
  0
LINE
  8
0
 10
87.2543
 20
253.023
 11
87.5122
 21
252.528
  0
LINE
  8
0
 10
87.5122
 20
252.528
 11
87.7614
 21
252.028
  0
LINE
  8
0
 10
87.7614
 20
252.028
 11
88.0018
 21
251.524
  0
LINE
  8
0
 10
88.0018
 20
251.524
 11
88.2334
 21
251.016
  0
LINE
  8
0
 10
88.2334
 20
251.016
 11
88.4561
 21
250.503
  0
LINE
  8
0
 10
88.4561
 20
250.503
 11
88.6699
 21
249.987
  0
LINE
  8
0
 10
88.6699
 20
249.987
 11
88.8746
 21
249.468
  0
LINE
  8
0
 10
88.8746
 20
249.468
 11
89.0702
 21
248.945
  0
LINE
  8
0
 10
89.0702
 20
248.945
 11
89.2566
 21
248.418
  0
LINE
  8
0
 10
89.2566
 20
248.418
 11
89.4338
 21
247.889
  0
LINE
  8
0
 10
89.4338
 20
247.889
 11
89.6017
 21
247.356
  0
LINE
  8
0
 10
89.6017
 20
247.356
 11
89.7604
 21
246.82
  0
LINE
  8
0
 10
89.7604
 20
246.82
 11
89.9096
 21
246.282
  0
LINE
  8
0
 10
89.9096
 20
246.282
 11
90.0495
 21
245.741
  0
LINE
  8
0
 10
90.0495
 20
245.741
 11
90.1798
 21
245.198
  0
LINE
  8
0
 10
90.1798
 20
245.198
 11
90.3007
 21
244.653
  0
LINE
  8
0
 10
90.3007
 20
244.653
 11
90.4121
 21
244.106
  0
LINE
  8
0
 10
90.4121
 20
244.106
 11
90.5138
 21
243.557
  0
LINE
  8
0
 10
90.5138
 20
243.557
 11
90.606
 21
243.006
  0
LINE
  8
0
 10
90.606
 20
243.006
 11
90.6886
 21
242.454
  0
LINE
  8
0
 10
90.6886
 20
242.454
 11
90.7615
 21
241.9
  0
LINE
  8
0
 10
90.7615
 20
241.9
 11
90.8247
 21
241.345
  0
LINE
  8
0
 10
90.8247
 20
241.345
 11
90.8782
 21
240.789
  0
LINE
  8
0
 10
90.8782
 20
240.789
 11
90.922
 21
240.232
  0
LINE
  8
0
 10
90.922
 20
240.232
 11
90.9561
 21
239.675
  0
LINE
  8
0
 10
90.9561
 20
239.675
 11
90.9805
 21
239.117
  0
LINE
  8
0
 10
90.9805
 20
239.117
 11
90.9951
 21
238.558
  0
LINE
  8
0
 10
90.9951
 20
238.558
 11
91
 21
238
  0
LINE
  8
0
 10
91
 20
238
 11
90.9951
 21
237.442
  0
LINE
  8
0
 10
90.9951
 20
237.442
 11
90.9805
 21
236.883
  0
LINE
  8
0
 10
90.9805
 20
236.883
 11
90.9561
 21
236.325
  0
LINE
  8
0
 10
90.9561
 20
236.325
 11
90.922
 21
235.768
  0
LINE
  8
0
 10
90.922
 20
235.768
 11
90.8782
 21
235.211
  0
LINE
  8
0
 10
90.8782
 20
235.211
 11
90.8247
 21
234.655
  0
LINE
  8
0
 10
90.8247
 20
234.655
 11
90.7615
 21
234.1
  0
LINE
  8
0
 10
90.7615
 20
234.1
 11
90.6886
 21
233.546
  0
LINE
  8
0
 10
90.6886
 20
233.546
 11
90.606
 21
232.994
  0
LINE
  8
0
 10
90.606
 20
232.994
 11
90.5138
 21
232.443
  0
LINE
  8
0
 10
90.5138
 20
232.443
 11
90.4121
 21
231.894
  0
LINE
  8
0
 10
90.4121
 20
231.894
 11
90.3007
 21
231.347
  0
LINE
  8
0
 10
90.3007
 20
231.347
 11
90.1798
 21
230.802
  0
LINE
  8
0
 10
90.1798
 20
230.802
 11
90.0495
 21
230.258
  0
LINE
  8
0
 10
90.0495
 20
230.258
 11
89.9096
 21
229.718
  0
LINE
  8
0
 10
89.9096
 20
229.718
 11
89.7604
 21
229.18
  0
LINE
  8
0
 10
89.7604
 20
229.18
 11
89.6017
 21
228.644
  0
LINE
  8
0
 10
89.6017
 20
228.644
 11
89.4338
 21
228.111
  0
LINE
  8
0
 10
89.4338
 20
228.111
 11
89.2566
 21
227.582
  0
LINE
  8
0
 10
89.2566
 20
227.582
 11
89.0702
 21
227.055
  0
LINE
  8
0
 10
89.0702
 20
227.055
 11
88.8746
 21
226.532
  0
LINE
  8
0
 10
88.8746
 20
226.532
 11
88.6699
 21
226.013
  0
LINE
  8
0
 10
88.6699
 20
226.013
 11
88.4561
 21
225.497
  0
LINE
  8
0
 10
88.4561
 20
225.497
 11
88.2334
 21
224.984
  0
LINE
  8
0
 10
88.2334
 20
224.984
 11
88.0018
 21
224.476
  0
LINE
  8
0
 10
88.0018
 20
224.476
 11
87.7614
 21
223.972
  0
LINE
  8
0
 10
87.7614
 20
223.972
 11
87.5122
 21
223.472
  0
LINE
  8
0
 10
87.5122
 20
223.472
 11
87.2543
 21
222.977
  0
LINE
  8
0
 10
87.2543
 20
222.977
 11
86.9878
 21
222.486
  0
LINE
  8
0
 10
86.9878
 20
222.486
 11
86.7128
 21
222
  0
LINE
  8
0
 10
86.7128
 20
222
 11
86.4294
 21
221.519
  0
LINE
  8
0
 10
86.4294
 20
221.519
 11
86.1375
 21
221.043
  0
LINE
  8
0
 10
86.1375
 20
221.043
 11
85.8374
 21
220.572
  0
LINE
  8
0
 10
85.8374
 20
220.572
 11
85.5292
 21
220.106
  0
LINE
  8
0
 10
85.5292
 20
220.106
 11
85.2129
 21
219.646
  0
LINE
  8
0
 10
85.2129
 20
219.646
 11
84.8885
 21
219.191
  0
LINE
  8
0
 10
84.8885
 20
219.191
 11
84.5563
 21
218.742
  0
LINE
  8
0
 10
84.5563
 20
218.742
 11
84.2163
 21
218.299
  0
LINE
  8
0
 10
84.2163
 20
218.299
 11
83.8687
 21
217.862
  0
LINE
  8
0
 10
83.8687
 20
217.862
 11
83.5134
 21
217.431
  0
LINE
  8
0
 10
83.5134
 20
217.431
 11
83.1507
 21
217.006
  0
LINE
  8
0
 10
83.1507
 20
217.006
 11
82.7806
 21
216.588
  0
LINE
  8
0
 10
82.7806
 20
216.588
 11
82.4033
 21
216.176
  0
LINE
  8
0
 10
82.4033
 20
216.176
 11
82.0189
 21
215.771
  0
LINE
  8
0
 10
82.0189
 20
215.771
 11
81.6274
 21
215.373
  0
LINE
  8
0
 10
81.6274
 20
215.373
 11
81.2291
 21
214.981
  0
LINE
  8
0
 10
81.2291
 20
214.981
 11
80.8239
 21
214.597
  0
LINE
  8
0
 10
80.8239
 20
214.597
 11
80.4122
 21
214.219
  0
LINE
  8
0
 10
80.4122
 20
214.219
 11
79.9939
 21
213.849
  0
LINE
  8
0
 10
79.9939
 20
213.849
 11
79.5692
 21
213.487
  0
LINE
  8
0
 10
79.5692
 20
213.487
 11
79.1382
 21
213.131
  0
LINE
  8
0
 10
79.1382
 20
213.131
 11
78.7012
 21
212.784
  0
LINE
  8
0
 10
78.7012
 20
212.784
 11
78.2581
 21
212.444
  0
LINE
  8
0
 10
78.2581
 20
212.444
 11
77.8091
 21
212.111
  0
LINE
  8
0
 10
77.8091
 20
212.111
 11
77.3544
 21
211.787
  0
LINE
  8
0
 10
77.3544
 20
211.787
 11
76.8942
 21
211.471
  0
LINE
  8
0
 10
76.8942
 20
211.471
 11
76.4284
 21
211.163
  0
LINE
  8
0
 10
76.4284
 20
211.163
 11
75.9574
 21
210.862
  0
LINE
  8
0
 10
75.9574
 20
210.862
 11
75.4812
 21
210.571
  0
LINE
  8
0
 10
75.4812
 20
210.571
 11
75
 21
210.287
  0
LINE
  8
0
 10
75
 20
210.287
 11
74.5139
 21
210.012
  0
LINE
  8
0
 10
74.5139
 20
210.012
 11
74.0231
 21
209.746
  0
LINE
  8
0
 10
74.0231
 20
209.746
 11
73.5277
 21
209.488
  0
LINE
  8
0
 10
73.5277
 20
209.488
 11
73.0279
 21
209.239
  0
LINE
  8
0
 10
73.0279
 20
209.239
 11
72.5238
 21
208.998
  0
LINE
  8
0
 10
72.5238
 20
208.998
 11
72.0156
 21
208.767
  0
LINE
  8
0
 10
72.0156
 20
208.767
 11
71.5034
 21
208.544
  0
LINE
  8
0
 10
71.5034
 20
208.544
 11
70.9874
 21
208.33
  0
LINE
  8
0
 10
70.9874
 20
208.33
 11
70.4678
 21
208.125
  0
LINE
  8
0
 10
70.4678
 20
208.125
 11
69.9446
 21
207.93
  0
LINE
  8
0
 10
69.9446
 20
207.93
 11
69.4182
 21
207.743
  0
LINE
  8
0
 10
69.4182
 20
207.743
 11
68.8885
 21
207.566
  0
LINE
  8
0
 10
68.8885
 20
207.566
 11
68.3559
 21
207.398
  0
LINE
  8
0
 10
68.3559
 20
207.398
 11
67.8204
 21
207.24
  0
LINE
  8
0
 10
67.8204
 20
207.24
 11
67.2822
 21
207.09
  0
LINE
  8
0
 10
67.2822
 20
207.09
 11
66.7415
 21
206.951
  0
LINE
  8
0
 10
66.7415
 20
206.951
 11
66.1984
 21
206.82
  0
LINE
  8
0
 10
66.1984
 20
206.82
 11
65.6532
 21
206.699
  0
LINE
  8
0
 10
65.6532
 20
206.699
 11
65.1059
 21
206.588
  0
LINE
  8
0
 10
65.1059
 20
206.588
 11
64.5567
 21
206.486
  0
LINE
  8
0
 10
64.5567
 20
206.486
 11
64.0059
 21
206.394
  0
LINE
  8
0
 10
64.0059
 20
206.394
 11
63.4535
 21
206.311
  0
LINE
  8
0
 10
63.4535
 20
206.311
 11
62.8998
 21
206.239
  0
LINE
  8
0
 10
62.8998
 20
206.239
 11
62.3449
 21
206.175
  0
LINE
  8
0
 10
62.3449
 20
206.175
 11
61.789
 21
206.122
  0
LINE
  8
0
 10
61.789
 20
206.122
 11
61.2322
 21
206.078
  0
LINE
  8
0
 10
61.2322
 20
206.078
 11
60.6747
 21
206.044
  0
LINE
  8
0
 10
60.6747
 20
206.044
 11
60.1168
 21
206.019
  0
LINE
  8
0
 10
60.1168
 20
206.019
 11
59.5585
 21
206.005
  0
LINE
  8
0
 10
59.5585
 20
206.005
 11
59
 21
206
  0
LINE
  8
0
 10
59
 20
206
 11
58.4415
 21
206.005
  0
LINE
  8
0
 10
79.1274
 20
74.0076
 11
78.255
 21
74.0305
  0
LINE
  8
0
 10
78.255
 20
74.0305
 11
77.3832
 21
74.0685
  0
LINE
  8
0
 10
77.3832
 20
74.0685
 11
76.5122
 21
74.1218
  0
LINE
  8
0
 10
76.5122
 20
74.1218
 11
75.6422
 21
74.1903
  0
LINE
  8
0
 10
75.6422
 20
74.1903
 11
74.7736
 21
74.2739
  0
LINE
  8
0
 10
74.7736
 20
74.2739
 11
73.9065
 21
74.3727
  0
LINE
  8
0
 10
73.9065
 20
74.3727
 11
73.0413
 21
74.4866
  0
LINE
  8
0
 10
73.0413
 20
74.4866
 11
72.1783
 21
74.6156
  0
LINE
  8
0
 10
72.1783
 20
74.6156
 11
71.3176
 21
74.7596
  0
LINE
  8
0
 10
71.3176
 20
74.7596
 11
70.4595
 21
74.9186
  0
LINE
  8
0
 10
70.4595
 20
74.9186
 11
69.6044
 21
75.0926
  0
LINE
  8
0
 10
69.6044
 20
75.0926
 11
68.7524
 21
75.2815
  0
LINE
  8
0
 10
68.7524
 20
75.2815
 11
67.9039
 21
75.4852
  0
LINE
  8
0
 10
67.9039
 20
75.4852
 11
67.059
 21
75.7037
  0
LINE
  8
0
 10
67.059
 20
75.7037
 11
66.2181
 21
75.9369
  0
LINE
  8
0
 10
66.2181
 20
75.9369
 11
65.3814
 21
76.1848
  0
LINE
  8
0
 10
65.3814
 20
76.1848
 11
64.5491
 21
76.4472
  0
LINE
  8
0
 10
64.5491
 20
76.4472
 11
63.7216
 21
76.7241
  0
LINE
  8
0
 10
63.7216
 20
76.7241
 11
62.899
 21
77.0154
  0
LINE
  8
0
 10
62.899
 20
77.0154
 11
62.0816
 21
77.321
  0
LINE
  8
0
 10
62.0816
 20
77.321
 11
61.2697
 21
77.6408
  0
LINE
  8
0
 10
61.2697
 20
77.6408
 11
60.4634
 21
77.9747
  0
LINE
  8
0
 10
60.4634
 20
77.9747
 11
59.6632
 21
78.3227
  0
LINE
  8
0
 10
59.6632
 20
78.3227
 11
58.8691
 21
78.6846
  0
LINE
  8
0
 10
58.8691
 20
78.6846
 11
58.0814
 21
79.0603
  0
LINE
  8
0
 10
58.0814
 20
79.0603
 11
57.3005
 21
79.4497
  0
LINE
  8
0
 10
57.3005
 20
79.4497
 11
56.5264
 21
79.8526
  0
LINE
  8
0
 10
56.5264
 20
79.8526
 11
55.7595
 21
80.269
  0
LINE
  8
0
 10
55.7595
 20
80.269
 11
55
 21
80.6987
  0
LINE
  8
0
 10
55
 20
80.6987
 11
54.2481
 21
81.1416
  0
LINE
  8
0
 10
54.2481
 20
81.1416
 11
53.504
 21
81.5976
  0
LINE
  8
0
 10
53.504
 20
81.5976
 11
52.768
 21
82.0665
  0
LINE
  8
0
 10
52.768
 20
82.0665
 11
52.0403
 21
82.5481
  0
LINE
  8
0
 10
52.0403
 20
82.5481
 11
51.3212
 21
83.0424
  0
LINE
  8
0
 10
51.3212
 20
83.0424
 11
50.6107
 21
83.5491
  0
LINE
  8
0
 10
50.6107
 20
83.5491
 11
49.9092
 21
84.0682
  0
LINE
  8
0
 10
49.9092
 20
84.0682
 11
49.2169
 21
84.5995
  0
LINE
  8
0
 10
49.2169
 20
84.5995
 11
48.534
 21
85.1427
  0
LINE
  8
0
 10
48.534
 20
85.1427
 11
47.8606
 21
85.6978
  0
LINE
  8
0
 10
47.8606
 20
85.6978
 11
47.197
 21
86.2645
  0
LINE
  8
0
 10
47.197
 20
86.2645
 11
46.5435
 21
86.8428
  0
LINE
  8
0
 10
46.5435
 20
86.8428
 11
45.9001
 21
87.4323
  0
LINE
  8
0
 10
45.9001
 20
87.4323
 11
45.2671
 21
88.033
  0
LINE
  8
0
 10
45.2671
 20
88.033
 11
44.6447
 21
88.6447
  0
LINE
  8
0
 10
44.6447
 20
88.6447
 11
44.033
 21
89.2671
  0
LINE
  8
0
 10
44.033
 20
89.2671
 11
43.4323
 21
89.9001
  0
LINE
  8
0
 10
43.4323
 20
89.9001
 11
42.8428
 21
90.5435
  0
LINE
  8
0
 10
42.8428
 20
90.5435
 11
42.2645
 21
91.197
  0
LINE
  8
0
 10
42.2645
 20
91.197
 11
41.6978
 21
91.8606
  0
LINE
  8
0
 10
41.6978
 20
91.8606
 11
41.1427
 21
92.534
  0
LINE
  8
0
 10
41.1427
 20
92.534
 11
40.5995
 21
93.2169
  0
LINE
  8
0
 10
40.5995
 20
93.2169
 11
40.0682
 21
93.9092
  0
LINE
  8
0
 10
40.0682
 20
93.9092
 11
39.5491
 21
94.6107
  0
LINE
  8
0
 10
39.5491
 20
94.6107
 11
39.0424
 21
95.3212
  0
LINE
  8
0
 10
39.0424
 20
95.3212
 11
38.5481
 21
96.0403
  0
LINE
  8
0
 10
38.5481
 20
96.0403
 11
38.0665
 21
96.768
  0
LINE
  8
0
 10
38.0665
 20
96.768
 11
37.5976
 21
97.504
  0
LINE
  8
0
 10
37.5976
 20
97.504
 11
37.1416
 21
98.2481
  0
LINE
  8
0
 10
37.1416
 20
98.2481
 11
36.6987
 21
99
  0
LINE
  8
0
 10
36.6987
 20
99
 11
36.269
 21
99.7595
  0
LINE
  8
0
 10
36.269
 20
99.7595
 11
35.8526
 21
100.526
  0
LINE
  8
0
 10
35.8526
 20
100.526
 11
35.4497
 21
101.3
  0
LINE
  8
0
 10
35.4497
 20
101.3
 11
35.0603
 21
102.081
  0
LINE
  8
0
 10
35.0603
 20
102.081
 11
34.6846
 21
102.869
  0
LINE
  8
0
 10
34.6846
 20
102.869
 11
34.3227
 21
103.663
  0
LINE
  8
0
 10
34.3227
 20
103.663
 11
33.9747
 21
104.463
  0
LINE
  8
0
 10
33.9747
 20
104.463
 11
33.6408
 21
105.27
  0
LINE
  8
0
 10
33.6408
 20
105.27
 11
33.321
 21
106.082
  0
LINE
  8
0
 10
33.321
 20
106.082
 11
33.0154
 21
106.899
  0
LINE
  8
0
 10
33.0154
 20
106.899
 11
32.7241
 21
107.722
  0
LINE
  8
0
 10
32.7241
 20
107.722
 11
32.4472
 21
108.549
  0
LINE
  8
0
 10
32.4472
 20
108.549
 11
32.1848
 21
109.381
  0
LINE
  8
0
 10
32.1848
 20
109.381
 11
31.9369
 21
110.218
  0
LINE
  8
0
 10
31.9369
 20
110.218
 11
31.7037
 21
111.059
  0
LINE
  8
0
 10
31.7037
 20
111.059
 11
31.4852
 21
111.904
  0
LINE
  8
0
 10
31.4852
 20
111.904
 11
31.2815
 21
112.752
  0
LINE
  8
0
 10
31.2815
 20
112.752
 11
31.0926
 21
113.604
  0
LINE
  8
0
 10
31.0926
 20
113.604
 11
30.9186
 21
114.46
  0
LINE
  8
0
 10
30.9186
 20
114.46
 11
30.7596
 21
115.318
  0
LINE
  8
0
 10
30.7596
 20
115.318
 11
30.6156
 21
116.178
  0
LINE
  8
0
 10
30.6156
 20
116.178
 11
30.4866
 21
117.041
  0
LINE
  8
0
 10
30.4866
 20
117.041
 11
30.3727
 21
117.907
  0
LINE
  8
0
 10
30.3727
 20
117.907
 11
30.2739
 21
118.774
  0
LINE
  8
0
 10
30.2739
 20
118.774
 11
30.1903
 21
119.642
  0
LINE
  8
0
 10
30.1903
 20
119.642
 11
30.1218
 21
120.512
  0
LINE
  8
0
 10
30.1218
 20
120.512
 11
30.0685
 21
121.383
  0
LINE
  8
0
 10
30.0685
 20
121.383
 11
30.0305
 21
122.255
  0
LINE
  8
0
 10
30.0305
 20
122.255
 11
30.0076
 21
123.127
  0
LINE
  8
0
 10
30.0076
 20
123.127
 11
30
 21
124
  0
LINE
  8
0
 10
30
 20
124
 11
30.0076
 21
124.873
  0
LINE
  8
0
 10
30.0076
 20
124.873
 11
30.0305
 21
125.745
  0
LINE
  8
0
 10
30.0305
 20
125.745
 11
30.0685
 21
126.617
  0
LINE
  8
0
 10
30.0685
 20
126.617
 11
30.1218
 21
127.488
  0
LINE
  8
0
 10
30.1218
 20
127.488
 11
30.1903
 21
128.358
  0
LINE
  8
0
 10
30.1903
 20
128.358
 11
30.2739
 21
129.226
  0
LINE
  8
0
 10
30.2739
 20
129.226
 11
30.3727
 21
130.093
  0
LINE
  8
0
 10
30.3727
 20
130.093
 11
30.4866
 21
130.959
  0
LINE
  8
0
 10
30.4866
 20
130.959
 11
30.6156
 21
131.822
  0
LINE
  8
0
 10
30.6156
 20
131.822
 11
30.7596
 21
132.682
  0
LINE
  8
0
 10
30.7596
 20
132.682
 11
30.9186
 21
133.54
  0
LINE
  8
0
 10
30.9186
 20
133.54
 11
31.0926
 21
134.396
  0
LINE
  8
0
 10
31.0926
 20
134.396
 11
31.2815
 21
135.248
  0
LINE
  8
0
 10
31.2815
 20
135.248
 11
31.4852
 21
136.096
  0
LINE
  8
0
 10
31.4852
 20
136.096
 11
31.7037
 21
136.941
  0
LINE
  8
0
 10
31.7037
 20
136.941
 11
31.9369
 21
137.782
  0
LINE
  8
0
 10
31.9369
 20
137.782
 11
32.1848
 21
138.619
  0
LINE
  8
0
 10
32.1848
 20
138.619
 11
32.4472
 21
139.451
  0
LINE
  8
0
 10
32.4472
 20
139.451
 11
32.7241
 21
140.278
  0
LINE
  8
0
 10
32.7241
 20
140.278
 11
33.0154
 21
141.101
  0
LINE
  8
0
 10
33.0154
 20
141.101
 11
33.321
 21
141.918
  0
LINE
  8
0
 10
33.321
 20
141.918
 11
33.6408
 21
142.73
  0
LINE
  8
0
 10
33.6408
 20
142.73
 11
33.9747
 21
143.537
  0
LINE
  8
0
 10
33.9747
 20
143.537
 11
34.3227
 21
144.337
  0
LINE
  8
0
 10
34.3227
 20
144.337
 11
34.6846
 21
145.131
  0
LINE
  8
0
 10
34.6846
 20
145.131
 11
35.0603
 21
145.919
  0
LINE
  8
0
 10
35.0603
 20
145.919
 11
35.4497
 21
146.7
  0
LINE
  8
0
 10
35.4497
 20
146.7
 11
35.8526
 21
147.474
  0
LINE
  8
0
 10
35.8526
 20
147.474
 11
36.269
 21
148.24
  0
LINE
  8
0
 10
36.269
 20
148.24
 11
36.6987
 21
149
  0
LINE
  8
0
 10
36.6987
 20
149
 11
37.1416
 21
149.752
  0
LINE
  8
0
 10
37.1416
 20
149.752
 11
37.5976
 21
150.496
  0
LINE
  8
0
 10
37.5976
 20
150.496
 11
38.0665
 21
151.232
  0
LINE
  8
0
 10
38.0665
 20
151.232
 11
38.5481
 21
151.96
  0
LINE
  8
0
 10
38.5481
 20
151.96
 11
39.0424
 21
152.679
  0
LINE
  8
0
 10
39.0424
 20
152.679
 11
39.5491
 21
153.389
  0
LINE
  8
0
 10
39.5491
 20
153.389
 11
40.0682
 21
154.091
  0
LINE
  8
0
 10
40.0682
 20
154.091
 11
40.5995
 21
154.783
  0
LINE
  8
0
 10
40.5995
 20
154.783
 11
41.1427
 21
155.466
  0
LINE
  8
0
 10
41.1427
 20
155.466
 11
41.6978
 21
156.139
  0
LINE
  8
0
 10
41.6978
 20
156.139
 11
42.2645
 21
156.803
  0
LINE
  8
0
 10
42.2645
 20
156.803
 11
42.8428
 21
157.457
  0
LINE
  8
0
 10
42.8428
 20
157.457
 11
43.4323
 21
158.1
  0
LINE
  8
0
 10
43.4323
 20
158.1
 11
44.033
 21
158.733
  0
LINE
  8
0
 10
44.033
 20
158.733
 11
44.6447
 21
159.355
  0
LINE
  8
0
 10
44.6447
 20
159.355
 11
45.2671
 21
159.967
  0
LINE
  8
0
 10
45.2671
 20
159.967
 11
45.9001
 21
160.568
  0
LINE
  8
0
 10
45.9001
 20
160.568
 11
46.5435
 21
161.157
  0
LINE
  8
0
 10
46.5435
 20
161.157
 11
47.197
 21
161.735
  0
LINE
  8
0
 10
47.197
 20
161.735
 11
47.8606
 21
162.302
  0
LINE
  8
0
 10
47.8606
 20
162.302
 11
48.534
 21
162.857
  0
LINE
  8
0
 10
48.534
 20
162.857
 11
49.2169
 21
163.401
  0
LINE
  8
0
 10
49.2169
 20
163.401
 11
49.9092
 21
163.932
  0
LINE
  8
0
 10
49.9092
 20
163.932
 11
50.6107
 21
164.451
  0
LINE
  8
0
 10
50.6107
 20
164.451
 11
51.3212
 21
164.958
  0
LINE
  8
0
 10
51.3212
 20
164.958
 11
52.0403
 21
165.452
  0
LINE
  8
0
 10
52.0403
 20
165.452
 11
52.768
 21
165.934
  0
LINE
  8
0
 10
52.768
 20
165.934
 11
53.504
 21
166.402
  0
LINE
  8
0
 10
53.504
 20
166.402
 11
54.2481
 21
166.858
  0
LINE
  8
0
 10
54.2481
 20
166.858
 11
55
 21
167.301
  0
LINE
  8
0
 10
55
 20
167.301
 11
55.7595
 21
167.731
  0
LINE
  8
0
 10
55.7595
 20
167.731
 11
56.5264
 21
168.147
  0
LINE
  8
0
 10
56.5264
 20
168.147
 11
57.3005
 21
168.55
  0
LINE
  8
0
 10
57.3005
 20
168.55
 11
58.0814
 21
168.94
  0
LINE
  8
0
 10
58.0814
 20
168.94
 11
58.8691
 21
169.315
  0
LINE
  8
0
 10
58.8691
 20
169.315
 11
59.6632
 21
169.677
  0
LINE
  8
0
 10
59.6632
 20
169.677
 11
60.4634
 21
170.025
  0
LINE
  8
0
 10
60.4634
 20
170.025
 11
61.2697
 21
170.359
  0
LINE
  8
0
 10
61.2697
 20
170.359
 11
62.0816
 21
170.679
  0
LINE
  8
0
 10
62.0816
 20
170.679
 11
62.899
 21
170.985
  0
LINE
  8
0
 10
62.899
 20
170.985
 11
63.7216
 21
171.276
  0
LINE
  8
0
 10
63.7216
 20
171.276
 11
64.5491
 21
171.553
  0
LINE
  8
0
 10
64.5491
 20
171.553
 11
65.3814
 21
171.815
  0
LINE
  8
0
 10
65.3814
 20
171.815
 11
66.2181
 21
172.063
  0
LINE
  8
0
 10
66.2181
 20
172.063
 11
67.059
 21
172.296
  0
LINE
  8
0
 10
67.059
 20
172.296
 11
67.9039
 21
172.515
  0
LINE
  8
0
 10
67.9039
 20
172.515
 11
68.7524
 21
172.718
  0
LINE
  8
0
 10
68.7524
 20
172.718
 11
69.6044
 21
172.907
  0
LINE
  8
0
 10
69.6044
 20
172.907
 11
70.4595
 21
173.081
  0
LINE
  8
0
 10
70.4595
 20
173.081
 11
71.3176
 21
173.24
  0
LINE
  8
0
 10
71.3176
 20
173.24
 11
72.1783
 21
173.384
  0
LINE
  8
0
 10
72.1783
 20
173.384
 11
73.0413
 21
173.513
  0
LINE
  8
0
 10
73.0413
 20
173.513
 11
73.9065
 21
173.627
  0
LINE
  8
0
 10
73.9065
 20
173.627
 11
74.7736
 21
173.726
  0
LINE
  8
0
 10
74.7736
 20
173.726
 11
75.6422
 21
173.81
  0
LINE
  8
0
 10
75.6422
 20
173.81
 11
76.5122
 21
173.878
  0
LINE
  8
0
 10
76.5122
 20
173.878
 11
77.3832
 21
173.931
  0
LINE
  8
0
 10
77.3832
 20
173.931
 11
78.255
 21
173.97
  0
LINE
  8
0
 10
78.255
 20
173.97
 11
79.1274
 21
173.992
  0
LINE
  8
0
 10
79.1274
 20
173.992
 11
80
 21
174
  0
LINE
  8
0
 10
80
 20
174
 11
80.8726
 21
173.992
  0
LINE
  8
0
 10
80.8726
 20
173.992
 11
81.745
 21
173.97
  0
LINE
  8
0
 10
81.745
 20
173.97
 11
82.6168
 21
173.931
  0
LINE
  8
0
 10
82.6168
 20
173.931
 11
83.4878
 21
173.878
  0
LINE
  8
0
 10
83.4878
 20
173.878
 11
84.3578
 21
173.81
  0
LINE
  8
0
 10
84.3578
 20
173.81
 11
85.2264
 21
173.726
  0
LINE
  8
0
 10
85.2264
 20
173.726
 11
86.0935
 21
173.627
  0
LINE
  8
0
 10
86.0935
 20
173.627
 11
86.9586
 21
173.513
  0
LINE
  8
0
 10
86.9586
 20
173.513
 11
87.8217
 21
173.384
  0
LINE
  8
0
 10
87.8217
 20
173.384
 11
88.6824
 21
173.24
  0
LINE
  8
0
 10
88.6824
 20
173.24
 11
89.5404
 21
173.081
  0
LINE
  8
0
 10
89.5404
 20
173.081
 11
90.3956
 21
172.907
  0
LINE
  8
0
 10
90.3956
 20
172.907
 11
91.2475
 21
172.718
  0
LINE
  8
0
 10
91.2475
 20
172.718
 11
92.0961
 21
172.515
  0
LINE
  8
0
 10
92.0961
 20
172.515
 11
92.9409
 21
172.296
  0
LINE
  8
0
 10
92.9409
 20
172.296
 11
93.7819
 21
172.063
  0
LINE
  8
0
 10
93.7819
 20
172.063
 11
94.6186
 21
171.815
  0
LINE
  8
0
 10
94.6186
 20
171.815
 11
95.4508
 21
171.553
  0
LINE
  8
0
 10
95.4508
 20
171.553
 11
96.2784
 21
171.276
  0
LINE
  8
0
 10
96.2784
 20
171.276
 11
97.101
 21
170.985
  0
LINE
  8
0
 10
97.101
 20
170.985
 11
97.9184
 21
170.679
  0
LINE
  8
0
 10
97.9184
 20
170.679
 11
98.7303
 21
170.359
  0
LINE
  8
0
 10
98.7303
 20
170.359
 11
99.5365
 21
170.025
  0
LINE
  8
0
 10
99.5365
 20
170.025
 11
100.337
 21
169.677
  0
LINE
  8
0
 10
100.337
 20
169.677
 11
101.131
 21
169.315
  0
LINE
  8
0
 10
101.131
 20
169.315
 11
101.919
 21
168.94
  0
LINE
  8
0
 10
101.919
 20
168.94
 11
102.7
 21
168.55
  0
LINE
  8
0
 10
102.7
 20
168.55
 11
103.474
 21
168.147
  0
LINE
  8
0
 10
103.474
 20
168.147
 11
104.24
 21
167.731
  0
LINE
  8
0
 10
104.24
 20
167.731
 11
105
 21
167.301
  0
LINE
  8
0
 10
105
 20
167.301
 11
105.752
 21
166.858
  0
LINE
  8
0
 10
105.752
 20
166.858
 11
106.496
 21
166.402
  0
LINE
  8
0
 10
106.496
 20
166.402
 11
107.232
 21
165.934
  0
LINE
  8
0
 10
107.232
 20
165.934
 11
107.96
 21
165.452
  0
LINE
  8
0
 10
107.96
 20
165.452
 11
108.679
 21
164.958
  0
LINE
  8
0
 10
108.679
 20
164.958
 11
109.389
 21
164.451
  0
LINE
  8
0
 10
109.389
 20
164.451
 11
110.091
 21
163.932
  0
LINE
  8
0
 10
110.091
 20
163.932
 11
110.783
 21
163.401
  0
LINE
  8
0
 10
110.783
 20
163.401
 11
111.466
 21
162.857
  0
LINE
  8
0
 10
111.466
 20
162.857
 11
112.139
 21
162.302
  0
LINE
  8
0
 10
112.139
 20
162.302
 11
112.803
 21
161.735
  0
LINE
  8
0
 10
112.803
 20
161.735
 11
113.457
 21
161.157
  0
LINE
  8
0
 10
113.457
 20
161.157
 11
114.1
 21
160.568
  0
LINE
  8
0
 10
114.1
 20
160.568
 11
114.733
 21
159.967
  0
LINE
  8
0
 10
114.733
 20
159.967
 11
115.355
 21
159.355
  0
LINE
  8
0
 10
115.355
 20
159.355
 11
115.967
 21
158.733
  0
LINE
  8
0
 10
115.967
 20
158.733
 11
116.568
 21
158.1
  0
LINE
  8
0
 10
116.568
 20
158.1
 11
117.157
 21
157.457
  0
LINE
  8
0
 10
117.157
 20
157.457
 11
117.735
 21
156.803
  0
LINE
  8
0
 10
117.735
 20
156.803
 11
118.302
 21
156.139
  0
LINE
  8
0
 10
118.302
 20
156.139
 11
118.857
 21
155.466
  0
LINE
  8
0
 10
118.857
 20
155.466
 11
119.401
 21
154.783
  0
LINE
  8
0
 10
119.401
 20
154.783
 11
119.932
 21
154.091
  0
LINE
  8
0
 10
119.932
 20
154.091
 11
120.451
 21
153.389
  0
LINE
  8
0
 10
120.451
 20
153.389
 11
120.958
 21
152.679
  0
LINE
  8
0
 10
120.958
 20
152.679
 11
121.452
 21
151.96
  0
LINE
  8
0
 10
121.452
 20
151.96
 11
121.934
 21
151.232
  0
LINE
  8
0
 10
121.934
 20
151.232
 11
122.402
 21
150.496
  0
LINE
  8
0
 10
122.402
 20
150.496
 11
122.858
 21
149.752
  0
LINE
  8
0
 10
122.858
 20
149.752
 11
123.301
 21
149
  0
LINE
  8
0
 10
123.301
 20
149
 11
123.731
 21
148.24
  0
LINE
  8
0
 10
123.731
 20
148.24
 11
124.147
 21
147.474
  0
LINE
  8
0
 10
124.147
 20
147.474
 11
124.55
 21
146.7
  0
LINE
  8
0
 10
124.55
 20
146.7
 11
124.94
 21
145.919
  0
LINE
  8
0
 10
124.94
 20
145.919
 11
125.315
 21
145.131
  0
LINE
  8
0
 10
125.315
 20
145.131
 11
125.677
 21
144.337
  0
LINE
  8
0
 10
125.677
 20
144.337
 11
126.025
 21
143.537
  0
LINE
  8
0
 10
126.025
 20
143.537
 11
126.359
 21
142.73
  0
LINE
  8
0
 10
126.359
 20
142.73
 11
126.679
 21
141.918
  0
LINE
  8
0
 10
126.679
 20
141.918
 11
126.985
 21
141.101
  0
LINE
  8
0
 10
126.985
 20
141.101
 11
127.276
 21
140.278
  0
LINE
  8
0
 10
127.276
 20
140.278
 11
127.553
 21
139.451
  0
LINE
  8
0
 10
127.553
 20
139.451
 11
127.815
 21
138.619
  0
LINE
  8
0
 10
127.815
 20
138.619
 11
128.063
 21
137.782
  0
LINE
  8
0
 10
128.063
 20
137.782
 11
128.296
 21
136.941
  0
LINE
  8
0
 10
128.296
 20
136.941
 11
128.515
 21
136.096
  0
LINE
  8
0
 10
128.515
 20
136.096
 11
128.718
 21
135.248
  0
LINE
  8
0
 10
128.718
 20
135.248
 11
128.907
 21
134.396
  0
LINE
  8
0
 10
128.907
 20
134.396
 11
129.081
 21
133.54
  0
LINE
  8
0
 10
129.081
 20
133.54
 11
129.24
 21
132.682
  0
LINE
  8
0
 10
129.24
 20
132.682
 11
129.384
 21
131.822
  0
LINE
  8
0
 10
129.384
 20
131.822
 11
129.513
 21
130.959
  0
LINE
  8
0
 10
129.513
 20
130.959
 11
129.627
 21
130.093
  0
LINE
  8
0
 10
129.627
 20
130.093
 11
129.726
 21
129.226
  0
LINE
  8
0
 10
129.726
 20
129.226
 11
129.81
 21
128.358
  0
LINE
  8
0
 10
129.81
 20
128.358
 11
129.878
 21
127.488
  0
LINE
  8
0
 10
129.878
 20
127.488
 11
129.931
 21
126.617
  0
LINE
  8
0
 10
129.931
 20
126.617
 11
129.97
 21
125.745
  0
LINE
  8
0
 10
129.97
 20
125.745
 11
129.992
 21
124.873
  0
LINE
  8
0
 10
129.992
 20
124.873
 11
130
 21
124
  0
LINE
  8
0
 10
130
 20
124
 11
129.992
 21
123.127
  0
LINE
  8
0
 10
129.992
 20
123.127
 11
129.97
 21
122.255
  0
LINE
  8
0
 10
129.97
 20
122.255
 11
129.931
 21
121.383
  0
LINE
  8
0
 10
129.931
 20
121.383
 11
129.878
 21
120.512
  0
LINE
  8
0
 10
129.878
 20
120.512
 11
129.81
 21
119.642
  0
LINE
  8
0
 10
129.81
 20
119.642
 11
129.726
 21
118.774
  0
LINE
  8
0
 10
129.726
 20
118.774
 11
129.627
 21
117.907
  0
LINE
  8
0
 10
129.627
 20
117.907
 11
129.513
 21
117.041
  0
LINE
  8
0
 10
129.513
 20
117.041
 11
129.384
 21
116.178
  0
LINE
  8
0
 10
129.384
 20
116.178
 11
129.24
 21
115.318
  0
LINE
  8
0
 10
129.24
 20
115.318
 11
129.081
 21
114.46
  0
LINE
  8
0
 10
129.081
 20
114.46
 11
128.907
 21
113.604
  0
LINE
  8
0
 10
128.907
 20
113.604
 11
128.718
 21
112.752
  0
LINE
  8
0
 10
128.718
 20
112.752
 11
128.515
 21
111.904
  0
LINE
  8
0
 10
128.515
 20
111.904
 11
128.296
 21
111.059
  0
LINE
  8
0
 10
128.296
 20
111.059
 11
128.063
 21
110.218
  0
LINE
  8
0
 10
128.063
 20
110.218
 11
127.815
 21
109.381
  0
LINE
  8
0
 10
127.815
 20
109.381
 11
127.553
 21
108.549
  0
LINE
  8
0
 10
127.553
 20
108.549
 11
127.276
 21
107.722
  0
LINE
  8
0
 10
127.276
 20
107.722
 11
126.985
 21
106.899
  0
LINE
  8
0
 10
126.985
 20
106.899
 11
126.679
 21
106.082
  0
LINE
  8
0
 10
126.679
 20
106.082
 11
126.359
 21
105.27
  0
LINE
  8
0
 10
126.359
 20
105.27
 11
126.025
 21
104.463
  0
LINE
  8
0
 10
126.025
 20
104.463
 11
125.677
 21
103.663
  0
LINE
  8
0
 10
125.677
 20
103.663
 11
125.315
 21
102.869
  0
LINE
  8
0
 10
125.315
 20
102.869
 11
124.94
 21
102.081
  0
LINE
  8
0
 10
124.94
 20
102.081
 11
124.55
 21
101.3
  0
LINE
  8
0
 10
124.55
 20
101.3
 11
124.147
 21
100.526
  0
LINE
  8
0
 10
124.147
 20
100.526
 11
123.731
 21
99.7595
  0
LINE
  8
0
 10
123.731
 20
99.7595
 11
123.301
 21
99
  0
LINE
  8
0
 10
123.301
 20
99
 11
122.858
 21
98.2481
  0
LINE
  8
0
 10
122.858
 20
98.2481
 11
122.402
 21
97.504
  0
LINE
  8
0
 10
122.402
 20
97.504
 11
121.934
 21
96.768
  0
LINE
  8
0
 10
121.934
 20
96.768
 11
121.452
 21
96.0403
  0
LINE
  8
0
 10
121.452
 20
96.0403
 11
120.958
 21
95.3212
  0
LINE
  8
0
 10
120.958
 20
95.3212
 11
120.451
 21
94.6107
  0
LINE
  8
0
 10
120.451
 20
94.6107
 11
119.932
 21
93.9092
  0
LINE
  8
0
 10
119.932
 20
93.9092
 11
119.401
 21
93.2169
  0
LINE
  8
0
 10
119.401
 20
93.2169
 11
118.857
 21
92.534
  0
LINE
  8
0
 10
118.857
 20
92.534
 11
118.302
 21
91.8606
  0
LINE
  8
0
 10
118.302
 20
91.8606
 11
117.735
 21
91.197
  0
LINE
  8
0
 10
117.735
 20
91.197
 11
117.157
 21
90.5435
  0
LINE
  8
0
 10
117.157
 20
90.5435
 11
116.568
 21
89.9001
  0
LINE
  8
0
 10
116.568
 20
89.9001
 11
115.967
 21
89.2671
  0
LINE
  8
0
 10
115.967
 20
89.2671
 11
115.355
 21
88.6447
  0
LINE
  8
0
 10
115.355
 20
88.6447
 11
114.733
 21
88.033
  0
LINE
  8
0
 10
114.733
 20
88.033
 11
114.1
 21
87.4323
  0
LINE
  8
0
 10
114.1
 20
87.4323
 11
113.457
 21
86.8428
  0
LINE
  8
0
 10
113.457
 20
86.8428
 11
112.803
 21
86.2645
  0
LINE
  8
0
 10
112.803
 20
86.2645
 11
112.139
 21
85.6978
  0
LINE
  8
0
 10
112.139
 20
85.6978
 11
111.466
 21
85.1427
  0
LINE
  8
0
 10
111.466
 20
85.1427
 11
110.783
 21
84.5995
  0
LINE
  8
0
 10
110.783
 20
84.5995
 11
110.091
 21
84.0682
  0
LINE
  8
0
 10
110.091
 20
84.0682
 11
109.389
 21
83.5491
  0
LINE
  8
0
 10
109.389
 20
83.5491
 11
108.679
 21
83.0424
  0
LINE
  8
0
 10
108.679
 20
83.0424
 11
107.96
 21
82.5481
  0
LINE
  8
0
 10
107.96
 20
82.5481
 11
107.232
 21
82.0665
  0
LINE
  8
0
 10
107.232
 20
82.0665
 11
106.496
 21
81.5976
  0
LINE
  8
0
 10
106.496
 20
81.5976
 11
105.752
 21
81.1416
  0
LINE
  8
0
 10
105.752
 20
81.1416
 11
105
 21
80.6987
  0
LINE
  8
0
 10
105
 20
80.6987
 11
104.24
 21
80.269
  0
LINE
  8
0
 10
104.24
 20
80.269
 11
103.474
 21
79.8526
  0
LINE
  8
0
 10
103.474
 20
79.8526
 11
102.7
 21
79.4497
  0
LINE
  8
0
 10
102.7
 20
79.4497
 11
101.919
 21
79.0603
  0
LINE
  8
0
 10
101.919
 20
79.0603
 11
101.131
 21
78.6846
  0
LINE
  8
0
 10
101.131
 20
78.6846
 11
100.337
 21
78.3227
  0
LINE
  8
0
 10
100.337
 20
78.3227
 11
99.5365
 21
77.9747
  0
LINE
  8
0
 10
99.5365
 20
77.9747
 11
98.7303
 21
77.6408
  0
LINE
  8
0
 10
98.7303
 20
77.6408
 11
97.9184
 21
77.321
  0
LINE
  8
0
 10
97.9184
 20
77.321
 11
97.101
 21
77.0154
  0
LINE
  8
0
 10
97.101
 20
77.0154
 11
96.2784
 21
76.7241
  0
LINE
  8
0
 10
96.2784
 20
76.7241
 11
95.4508
 21
76.4472
  0
LINE
  8
0
 10
95.4508
 20
76.4472
 11
94.6186
 21
76.1848
  0
LINE
  8
0
 10
94.6186
 20
76.1848
 11
93.7819
 21
75.9369
  0
LINE
  8
0
 10
93.7819
 20
75.9369
 11
92.9409
 21
75.7037
  0
LINE
  8
0
 10
92.9409
 20
75.7037
 11
92.0961
 21
75.4852
  0
LINE
  8
0
 10
92.0961
 20
75.4852
 11
91.2475
 21
75.2815
  0
LINE
  8
0
 10
91.2475
 20
75.2815
 11
90.3956
 21
75.0926
  0
LINE
  8
0
 10
90.3956
 20
75.0926
 11
89.5404
 21
74.9186
  0
LINE
  8
0
 10
89.5404
 20
74.9186
 11
88.6824
 21
74.7596
  0
LINE
  8
0
 10
88.6824
 20
74.7596
 11
87.8217
 21
74.6156
  0
LINE
  8
0
 10
87.8217
 20
74.6156
 11
86.9586
 21
74.4866
  0
LINE
  8
0
 10
86.9586
 20
74.4866
 11
86.0935
 21
74.3727
  0
LINE
  8
0
 10
86.0935
 20
74.3727
 11
85.2264
 21
74.2739
  0
LINE
  8
0
 10
85.2264
 20
74.2739
 11
84.3578
 21
74.1903
  0
LINE
  8
0
 10
84.3578
 20
74.1903
 11
83.4878
 21
74.1218
  0
LINE
  8
0
 10
83.4878
 20
74.1218
 11
82.6168
 21
74.0685
  0
LINE
  8
0
 10
82.6168
 20
74.0685
 11
81.745
 21
74.0305
  0
LINE
  8
0
 10
81.745
 20
74.0305
 11
80.8726
 21
74.0076
  0
LINE
  8
0
 10
80.8726
 20
74.0076
 11
80
 21
74
  0
LINE
  8
0
 10
80
 20
74
 11
79.1274
 21
74.0076
  0
LINE
  8
0
 10
158.764
 20
146.971
 11
183.924
 21
163.31
  0
LINE
  8
0
 10
183.924
 20
163.31
 11
256.905
 21
50.9278
  0
LINE
  8
0
 10
256.905
 20
50.9278
 11
231.745
 21
34.5887
  0
LINE
  8
0
 10
231.745
 20
34.5887
 11
158.764
 21
146.971
  0
LINE
  8
0
 10
13
 20
8
 11
12.8604
 21
8.00243
  0
LINE
  8
0
 10
12.8604
 20
8.00243
 11
12.721
 21
8.00974
  0
LINE
  8
0
 10
12.721
 20
8.00974
 11
12.5819
 21
8.02191
  0
LINE
  8
0
 10
12.5819
 20
8.02191
 11
12.4433
 21
8.03893
  0
LINE
  8
0
 10
12.4433
 20
8.03893
 11
12.3054
 21
8.06076
  0
LINE
  8
0
 10
12.3054
 20
8.06076
 11
12.1684
 21
8.0874
  0
LINE
  8
0
 10
12.1684
 20
8.0874
 11
12.0323
 21
8.1188
  0
LINE
  8
0
 10
12.0323
 20
8.1188
 11
11.8974
 21
8.15495
  0
LINE
  8
0
 10
11.8974
 20
8.15495
 11
11.7639
 21
8.19577
  0
LINE
  8
0
 10
11.7639
 20
8.19577
 11
11.6319
 21
8.24123
  0
LINE
  8
0
 10
11.6319
 20
8.24123
 11
11.5016
 21
8.29126
  0
LINE
  8
0
 10
11.5016
 20
8.29126
 11
11.373
 21
8.34581
  0
LINE
  8
0
 10
11.373
 20
8.34581
 11
11.2465
 21
8.40482
  0
LINE
  8
0
 10
11.2465
 20
8.40482
 11
11.1221
 21
8.4682
  0
LINE
  8
0
 10
11.1221
 20
8.4682
 11
11
 21
8.53589
  0
LINE
  8
0
 10
11
 20
8.53589
 11
10.8803
 21
8.6078
  0
LINE
  8
0
 10
10.8803
 20
8.6078
 11
10.7632
 21
8.68384
  0
LINE
  8
0
 10
10.7632
 20
8.68384
 11
10.6488
 21
8.76393
  0
LINE
  8
0
 10
10.6488
 20
8.76393
 11
10.5374
 21
8.84795
  0
LINE
  8
0
 10
10.5374
 20
8.84795
 11
10.4288
 21
8.93582
  0
LINE
  8
0
 10
10.4288
 20
8.93582
 11
10.3235
 21
9.02742
  0
LINE
  8
0
 10
10.3235
 20
9.02742
 11
10.2214
 21
9.12263
  0
LINE
  8
0
 10
10.2214
 20
9.12263
 11
10.1226
 21
9.22136
  0
LINE
  8
0
 10
10.1226
 20
9.22136
 11
10.0274
 21
9.32347
  0
LINE
  8
0
 10
10.0274
 20
9.32347
 11
9.93582
 21
9.42885
  0
LINE
  8
0
 10
9.93582
 20
9.42885
 11
9.84795
 21
9.53735
  0
LINE
  8
0
 10
9.84795
 20
9.53735
 11
9.76393
 21
9.64885
  0
LINE
  8
0
 10
9.76393
 20
9.64885
 11
9.68384
 21
9.76321
  0
LINE
  8
0
 10
9.68384
 20
9.76321
 11
9.6078
 21
9.88031
  0
LINE
  8
0
 10
9.6078
 20
9.88031
 11
9.53589
 21
10
  0
LINE
  8
0
 10
9.53589
 20
10
 11
9.4682
 21
10.1221
  0
LINE
  8
0
 10
9.4682
 20
10.1221
 11
9.40482
 21
10.2465
  0
LINE
  8
0
 10
9.40482
 20
10.2465
 11
9.34581
 21
10.373
  0
LINE
  8
0
 10
9.34581
 20
10.373
 11
9.29126
 21
10.5016
  0
LINE
  8
0
 10
9.29126
 20
10.5016
 11
9.24123
 21
10.6319
  0
LINE
  8
0
 10
9.24123
 20
10.6319
 11
9.19577
 21
10.7639
  0
LINE
  8
0
 10
9.19577
 20
10.7639
 11
9.15495
 21
10.8974
  0
LINE
  8
0
 10
9.15495
 20
10.8974
 11
9.1188
 21
11.0323
  0
LINE
  8
0
 10
9.1188
 20
11.0323
 11
9.0874
 21
11.1684
  0
LINE
  8
0
 10
9.0874
 20
11.1684
 11
9.06076
 21
11.3054
  0
LINE
  8
0
 10
9.06076
 20
11.3054
 11
9.03893
 21
11.4433
  0
LINE
  8
0
 10
9.03893
 20
11.4433
 11
9.02191
 21
11.5819
  0
LINE
  8
0
 10
9.02191
 20
11.5819
 11
9.00974
 21
11.721
  0
LINE
  8
0
 10
9.00974
 20
11.721
 11
9.00243
 21
11.8604
  0
LINE
  8
0
 10
9.00243
 20
11.8604
 11
9
 21
12
  0
LINE
  8
0
 10
9
 20
12
 11
9.00243
 21
12.1396
  0
LINE
  8
0
 10
9.00243
 20
12.1396
 11
9.00974
 21
12.279
  0
LINE
  8
0
 10
9.00974
 20
12.279
 11
9.02191
 21
12.4181
  0
LINE
  8
0
 10
9.02191
 20
12.4181
 11
9.03893
 21
12.5567
  0
LINE
  8
0
 10
9.03893
 20
12.5567
 11
9.06076
 21
12.6946
  0
LINE
  8
0
 10
9.06076
 20
12.6946
 11
9.0874
 21
12.8316
  0
LINE
  8
0
 10
9.0874
 20
12.8316
 11
9.1188
 21
12.9677
  0
LINE
  8
0
 10
9.1188
 20
12.9677
 11
9.15495
 21
13.1025
  0
LINE
  8
0
 10
9.15495
 20
13.1025
 11
9.19577
 21
13.2361
  0
LINE
  8
0
 10
9.19577
 20
13.2361
 11
9.24123
 21
13.3681
  0
LINE
  8
0
 10
9.24123
 20
13.3681
 11
9.29126
 21
13.4984
  0
LINE
  8
0
 10
9.29126
 20
13.4984
 11
9.34581
 21
13.6269
  0
LINE
  8
0
 10
9.34581
 20
13.6269
 11
9.40482
 21
13.7535
  0
LINE
  8
0
 10
9.40482
 20
13.7535
 11
9.4682
 21
13.8779
  0
LINE
  8
0
 10
9.4682
 20
13.8779
 11
9.53589
 21
14
  0
LINE
  8
0
 10
9.53589
 20
14
 11
9.6078
 21
14.1197
  0
LINE
  8
0
 10
9.6078
 20
14.1197
 11
9.68384
 21
14.2368
  0
LINE
  8
0
 10
9.68384
 20
14.2368
 11
9.76393
 21
14.3511
  0
LINE
  8
0
 10
9.76393
 20
14.3511
 11
9.84795
 21
14.4626
  0
LINE
  8
0
 10
9.84795
 20
14.4626
 11
9.93582
 21
14.5711
  0
LINE
  8
0
 10
9.93582
 20
14.5711
 11
10.0274
 21
14.6765
  0
LINE
  8
0
 10
10.0274
 20
14.6765
 11
10.1226
 21
14.7786
  0
LINE
  8
0
 10
10.1226
 20
14.7786
 11
10.2214
 21
14.8773
  0
LINE
  8
0
 10
10.2214
 20
14.8773
 11
10.3235
 21
14.9726
  0
LINE
  8
0
 10
10.3235
 20
14.9726
 11
10.4288
 21
15.0642
  0
LINE
  8
0
 10
10.4288
 20
15.0642
 11
10.5374
 21
15.152
  0
LINE
  8
0
 10
10.5374
 20
15.152
 11
10.6488
 21
15.2361
  0
LINE
  8
0
 10
10.6488
 20
15.2361
 11
10.7632
 21
15.3161
  0
LINE
  8
0
 10
10.7632
 20
15.3161
 11
10.8803
 21
15.3922
  0
LINE
  8
0
 10
10.8803
 20
15.3922
 11
11
 21
15.4641
  0
LINE
  8
0
 10
11
 20
15.4641
 11
11.1221
 21
15.5318
  0
LINE
  8
0
 10
11.1221
 20
15.5318
 11
11.2465
 21
15.5952
  0
LINE
  8
0
 10
11.2465
 20
15.5952
 11
11.373
 21
15.6542
  0
LINE
  8
0
 10
11.373
 20
15.6542
 11
11.5016
 21
15.7087
  0
LINE
  8
0
 10
11.5016
 20
15.7087
 11
11.6319
 21
15.7588
  0
LINE
  8
0
 10
11.6319
 20
15.7588
 11
11.7639
 21
15.8042
  0
LINE
  8
0
 10
11.7639
 20
15.8042
 11
11.8974
 21
15.845
  0
LINE
  8
0
 10
11.8974
 20
15.845
 11
12.0323
 21
15.8812
  0
LINE
  8
0
 10
12.0323
 20
15.8812
 11
12.1684
 21
15.9126
  0
LINE
  8
0
 10
12.1684
 20
15.9126
 11
12.3054
 21
15.9392
  0
LINE
  8
0
 10
12.3054
 20
15.9392
 11
12.4433
 21
15.9611
  0
LINE
  8
0
 10
12.4433
 20
15.9611
 11
12.5819
 21
15.9781
  0
LINE
  8
0
 10
12.5819
 20
15.9781
 11
12.721
 21
15.9902
  0
LINE
  8
0
 10
12.721
 20
15.9902
 11
12.8604
 21
15.9976
  0
LINE
  8
0
 10
12.8604
 20
15.9976
 11
13
 21
16
  0
LINE
  8
0
 10
13
 20
16
 11
13.1396
 21
15.9976
  0
LINE
  8
0
 10
13.1396
 20
15.9976
 11
13.279
 21
15.9902
  0
LINE
  8
0
 10
13.279
 20
15.9902
 11
13.4181
 21
15.9781
  0
LINE
  8
0
 10
13.4181
 20
15.9781
 11
13.5567
 21
15.9611
  0
LINE
  8
0
 10
13.5567
 20
15.9611
 11
13.6946
 21
15.9392
  0
LINE
  8
0
 10
13.6946
 20
15.9392
 11
13.8316
 21
15.9126
  0
LINE
  8
0
 10
13.8316
 20
15.9126
 11
13.9677
 21
15.8812
  0
LINE
  8
0
 10
13.9677
 20
15.8812
 11
14.1025
 21
15.845
  0
LINE
  8
0
 10
14.1025
 20
15.845
 11
14.2361
 21
15.8042
  0
LINE
  8
0
 10
14.2361
 20
15.8042
 11
14.3681
 21
15.7588
  0
LINE
  8
0
 10
14.3681
 20
15.7588
 11
14.4984
 21
15.7087
  0
LINE
  8
0
 10
14.4984
 20
15.7087
 11
14.6269
 21
15.6542
  0
LINE
  8
0
 10
14.6269
 20
15.6542
 11
14.7535
 21
15.5952
  0
LINE
  8
0
 10
14.7535
 20
15.5952
 11
14.8779
 21
15.5318
  0
LINE
  8
0
 10
14.8779
 20
15.5318
 11
15
 21
15.4641
  0
LINE
  8
0
 10
15
 20
15.4641
 11
15.1197
 21
15.3922
  0
LINE
  8
0
 10
15.1197
 20
15.3922
 11
15.2368
 21
15.3161
  0
LINE
  8
0
 10
15.2368
 20
15.3161
 11
15.3511
 21
15.2361
  0
LINE
  8
0
 10
15.3511
 20
15.2361
 11
15.4626
 21
15.152
  0
LINE
  8
0
 10
15.4626
 20
15.152
 11
15.5711
 21
15.0642
  0
LINE
  8
0
 10
15.5711
 20
15.0642
 11
15.6765
 21
14.9726
  0
LINE
  8
0
 10
15.6765
 20
14.9726
 11
15.7786
 21
14.8773
  0
LINE
  8
0
 10
15.7786
 20
14.8773
 11
15.8773
 21
14.7786
  0
LINE
  8
0
 10
15.8773
 20
14.7786
 11
15.9726
 21
14.6765
  0
LINE
  8
0
 10
15.9726
 20
14.6765
 11
16.0642
 21
14.5711
  0
LINE
  8
0
 10
16.0642
 20
14.5711
 11
16.152
 21
14.4626
  0
LINE
  8
0
 10
16.152
 20
14.4626
 11
16.2361
 21
14.3511
  0
LINE
  8
0
 10
16.2361
 20
14.3511
 11
16.3161
 21
14.2368
  0
LINE
  8
0
 10
16.3161
 20
14.2368
 11
16.3922
 21
14.1197
  0
LINE
  8
0
 10
16.3922
 20
14.1197
 11
16.4641
 21
14
  0
LINE
  8
0
 10
16.4641
 20
14
 11
16.5318
 21
13.8779
  0
LINE
  8
0
 10
16.5318
 20
13.8779
 11
16.5952
 21
13.7535
  0
LINE
  8
0
 10
16.5952
 20
13.7535
 11
16.6542
 21
13.6269
  0
LINE
  8
0
 10
16.6542
 20
13.6269
 11
16.7087
 21
13.4984
  0
LINE
  8
0
 10
16.7087
 20
13.4984
 11
16.7588
 21
13.3681
  0
LINE
  8
0
 10
16.7588
 20
13.3681
 11
16.8042
 21
13.2361
  0
LINE
  8
0
 10
16.8042
 20
13.2361
 11
16.845
 21
13.1025
  0
LINE
  8
0
 10
16.845
 20
13.1025
 11
16.8812
 21
12.9677
  0
LINE
  8
0
 10
16.8812
 20
12.9677
 11
16.9126
 21
12.8316
  0
LINE
  8
0
 10
16.9126
 20
12.8316
 11
16.9392
 21
12.6946
  0
LINE
  8
0
 10
16.9392
 20
12.6946
 11
16.9611
 21
12.5567
  0
LINE
  8
0
 10
16.9611
 20
12.5567
 11
16.9781
 21
12.4181
  0
LINE
  8
0
 10
16.9781
 20
12.4181
 11
16.9902
 21
12.279
  0
LINE
  8
0
 10
16.9902
 20
12.279
 11
16.9976
 21
12.1396
  0
LINE
  8
0
 10
16.9976
 20
12.1396
 11
17
 21
12
  0
LINE
  8
0
 10
17
 20
12
 11
16.9976
 21
11.8604
  0
LINE
  8
0
 10
16.9976
 20
11.8604
 11
16.9902
 21
11.721
  0
LINE
  8
0
 10
16.9902
 20
11.721
 11
16.9781
 21
11.5819
  0
LINE
  8
0
 10
16.9781
 20
11.5819
 11
16.9611
 21
11.4433
  0
LINE
  8
0
 10
16.9611
 20
11.4433
 11
16.9392
 21
11.3054
  0
LINE
  8
0
 10
16.9392
 20
11.3054
 11
16.9126
 21
11.1684
  0
LINE
  8
0
 10
16.9126
 20
11.1684
 11
16.8812
 21
11.0323
  0
LINE
  8
0
 10
16.8812
 20
11.0323
 11
16.845
 21
10.8974
  0
LINE
  8
0
 10
16.845
 20
10.8974
 11
16.8042
 21
10.7639
  0
LINE
  8
0
 10
16.8042
 20
10.7639
 11
16.7588
 21
10.6319
  0
LINE
  8
0
 10
16.7588
 20
10.6319
 11
16.7087
 21
10.5016
  0
LINE
  8
0
 10
16.7087
 20
10.5016
 11
16.6542
 21
10.373
  0
LINE
  8
0
 10
16.6542
 20
10.373
 11
16.5952
 21
10.2465
  0
LINE
  8
0
 10
16.5952
 20
10.2465
 11
16.5318
 21
10.1221
  0
LINE
  8
0
 10
16.5318
 20
10.1221
 11
16.4641
 21
9.99998
  0
LINE
  8
0
 10
16.4641
 20
9.99998
 11
16.3922
 21
9.88031
  0
LINE
  8
0
 10
16.3922
 20
9.88031
 11
16.3161
 21
9.76321
  0
LINE
  8
0
 10
16.3161
 20
9.76321
 11
16.2361
 21
9.64885
  0
LINE
  8
0
 10
16.2361
 20
9.64885
 11
16.152
 21
9.53735
  0
LINE
  8
0
 10
16.152
 20
9.53735
 11
16.0642
 21
9.42885
  0
LINE
  8
0
 10
16.0642
 20
9.42885
 11
15.9726
 21
9.32347
  0
LINE
  8
0
 10
15.9726
 20
9.32347
 11
15.8773
 21
9.22136
  0
LINE
  8
0
 10
15.8773
 20
9.22136
 11
15.7786
 21
9.12263
  0
LINE
  8
0
 10
15.7786
 20
9.12263
 11
15.6765
 21
9.02742
  0
LINE
  8
0
 10
15.6765
 20
9.02742
 11
15.5711
 21
8.93582
  0
LINE
  8
0
 10
15.5711
 20
8.93582
 11
15.4626
 21
8.84795
  0
LINE
  8
0
 10
15.4626
 20
8.84795
 11
15.3511
 21
8.76393
  0
LINE
  8
0
 10
15.3511
 20
8.76393
 11
15.2368
 21
8.68384
  0
LINE
  8
0
 10
15.2368
 20
8.68384
 11
15.1197
 21
8.6078
  0
LINE
  8
0
 10
15.1197
 20
8.6078
 11
15
 21
8.53589
  0
LINE
  8
0
 10
15
 20
8.53589
 11
14.8779
 21
8.4682
  0
LINE
  8
0
 10
14.8779
 20
8.4682
 11
14.7535
 21
8.40482
  0
LINE
  8
0
 10
14.7535
 20
8.40482
 11
14.6269
 21
8.34581
  0
LINE
  8
0
 10
14.6269
 20
8.34581
 11
14.4984
 21
8.29126
  0
LINE
  8
0
 10
14.4984
 20
8.29126
 11
14.3681
 21
8.24123
  0
LINE
  8
0
 10
14.3681
 20
8.24123
 11
14.2361
 21
8.19577
  0
LINE
  8
0
 10
14.2361
 20
8.19577
 11
14.1025
 21
8.15495
  0
LINE
  8
0
 10
14.1025
 20
8.15495
 11
13.9677
 21
8.1188
  0
LINE
  8
0
 10
13.9677
 20
8.1188
 11
13.8316
 21
8.0874
  0
LINE
  8
0
 10
13.8316
 20
8.0874
 11
13.6946
 21
8.06076
  0
LINE
  8
0
 10
13.6946
 20
8.06076
 11
13.5567
 21
8.03893
  0
LINE
  8
0
 10
13.5567
 20
8.03893
 11
13.4181
 21
8.02191
  0
LINE
  8
0
 10
13.4181
 20
8.02191
 11
13.279
 21
8.00974
  0
LINE
  8
0
 10
13.279
 20
8.00974
 11
13.1396
 21
8.00243
  0
LINE
  8
0
 10
13.1396
 20
8.00243
 11
13
 21
8
  0
LINE
  8
0
 10
198
 20
8
 11
197.86
 21
8.00243
  0
LINE
  8
0
 10
197.86
 20
8.00243
 11
197.721
 21
8.00974
  0
LINE
  8
0
 10
197.721
 20
8.00974
 11
197.582
 21
8.02191
  0
LINE
  8
0
 10
197.582
 20
8.02191
 11
197.443
 21
8.03893
  0
LINE
  8
0
 10
197.443
 20
8.03893
 11
197.305
 21
8.06076
  0
LINE
  8
0
 10
197.305
 20
8.06076
 11
197.168
 21
8.0874
  0
LINE
  8
0
 10
197.168
 20
8.0874
 11
197.032
 21
8.1188
  0
LINE
  8
0
 10
197.032
 20
8.1188
 11
196.897
 21
8.15495
  0
LINE
  8
0
 10
196.897
 20
8.15495
 11
196.764
 21
8.19577
  0
LINE
  8
0
 10
196.764
 20
8.19577
 11
196.632
 21
8.24123
  0
LINE
  8
0
 10
196.632
 20
8.24123
 11
196.502
 21
8.29126
  0
LINE
  8
0
 10
196.502
 20
8.29126
 11
196.373
 21
8.34581
  0
LINE
  8
0
 10
196.373
 20
8.34581
 11
196.247
 21
8.40482
  0
LINE
  8
0
 10
196.247
 20
8.40482
 11
196.122
 21
8.4682
  0
LINE
  8
0
 10
196.122
 20
8.4682
 11
196
 21
8.53589
  0
LINE
  8
0
 10
196
 20
8.53589
 11
195.88
 21
8.6078
  0
LINE
  8
0
 10
195.88
 20
8.6078
 11
195.763
 21
8.68384
  0
LINE
  8
0
 10
195.763
 20
8.68384
 11
195.649
 21
8.76393
  0
LINE
  8
0
 10
195.649
 20
8.76393
 11
195.537
 21
8.84795
  0
LINE
  8
0
 10
195.537
 20
8.84795
 11
195.429
 21
8.93582
  0
LINE
  8
0
 10
195.429
 20
8.93582
 11
195.323
 21
9.02742
  0
LINE
  8
0
 10
195.323
 20
9.02742
 11
195.221
 21
9.12263
  0
LINE
  8
0
 10
195.221
 20
9.12263
 11
195.123
 21
9.22136
  0
LINE
  8
0
 10
195.123
 20
9.22136
 11
195.027
 21
9.32347
  0
LINE
  8
0
 10
195.027
 20
9.32347
 11
194.936
 21
9.42885
  0
LINE
  8
0
 10
194.936
 20
9.42885
 11
194.848
 21
9.53735
  0
LINE
  8
0
 10
194.848
 20
9.53735
 11
194.764
 21
9.64885
  0
LINE
  8
0
 10
194.764
 20
9.64885
 11
194.684
 21
9.76321
  0
LINE
  8
0
 10
194.684
 20
9.76321
 11
194.608
 21
9.88031
  0
LINE
  8
0
 10
194.608
 20
9.88031
 11
194.536
 21
10
  0
LINE
  8
0
 10
194.536
 20
10
 11
194.468
 21
10.1221
  0
LINE
  8
0
 10
194.468
 20
10.1221
 11
194.405
 21
10.2465
  0
LINE
  8
0
 10
194.405
 20
10.2465
 11
194.346
 21
10.373
  0
LINE
  8
0
 10
194.346
 20
10.373
 11
194.291
 21
10.5016
  0
LINE
  8
0
 10
194.291
 20
10.5016
 11
194.241
 21
10.6319
  0
LINE
  8
0
 10
194.241
 20
10.6319
 11
194.196
 21
10.7639
  0
LINE
  8
0
 10
194.196
 20
10.7639
 11
194.155
 21
10.8974
  0
LINE
  8
0
 10
194.155
 20
10.8974
 11
194.119
 21
11.0323
  0
LINE
  8
0
 10
194.119
 20
11.0323
 11
194.087
 21
11.1684
  0
LINE
  8
0
 10
194.087
 20
11.1684
 11
194.061
 21
11.3054
  0
LINE
  8
0
 10
194.061
 20
11.3054
 11
194.039
 21
11.4433
  0
LINE
  8
0
 10
194.039
 20
11.4433
 11
194.022
 21
11.5819
  0
LINE
  8
0
 10
194.022
 20
11.5819
 11
194.01
 21
11.721
  0
LINE
  8
0
 10
194.01
 20
11.721
 11
194.002
 21
11.8604
  0
LINE
  8
0
 10
194.002
 20
11.8604
 11
194
 21
12
  0
LINE
  8
0
 10
194
 20
12
 11
194.002
 21
12.1396
  0
LINE
  8
0
 10
194.002
 20
12.1396
 11
194.01
 21
12.279
  0
LINE
  8
0
 10
194.01
 20
12.279
 11
194.022
 21
12.4181
  0
LINE
  8
0
 10
194.022
 20
12.4181
 11
194.039
 21
12.5567
  0
LINE
  8
0
 10
194.039
 20
12.5567
 11
194.061
 21
12.6946
  0
LINE
  8
0
 10
194.061
 20
12.6946
 11
194.087
 21
12.8316
  0
LINE
  8
0
 10
194.087
 20
12.8316
 11
194.119
 21
12.9677
  0
LINE
  8
0
 10
194.119
 20
12.9677
 11
194.155
 21
13.1025
  0
LINE
  8
0
 10
194.155
 20
13.1025
 11
194.196
 21
13.2361
  0
LINE
  8
0
 10
194.196
 20
13.2361
 11
194.241
 21
13.3681
  0
LINE
  8
0
 10
194.241
 20
13.3681
 11
194.291
 21
13.4984
  0
LINE
  8
0
 10
194.291
 20
13.4984
 11
194.346
 21
13.6269
  0
LINE
  8
0
 10
194.346
 20
13.6269
 11
194.405
 21
13.7535
  0
LINE
  8
0
 10
194.405
 20
13.7535
 11
194.468
 21
13.8779
  0
LINE
  8
0
 10
194.468
 20
13.8779
 11
194.536
 21
14
  0
LINE
  8
0
 10
194.536
 20
14
 11
194.608
 21
14.1197
  0
LINE
  8
0
 10
194.608
 20
14.1197
 11
194.684
 21
14.2368
  0
LINE
  8
0
 10
194.684
 20
14.2368
 11
194.764
 21
14.3511
  0
LINE
  8
0
 10
194.764
 20
14.3511
 11
194.848
 21
14.4626
  0
LINE
  8
0
 10
194.848
 20
14.4626
 11
194.936
 21
14.5711
  0
LINE
  8
0
 10
194.936
 20
14.5711
 11
195.027
 21
14.6765
  0
LINE
  8
0
 10
195.027
 20
14.6765
 11
195.123
 21
14.7786
  0
LINE
  8
0
 10
195.123
 20
14.7786
 11
195.221
 21
14.8773
  0
LINE
  8
0
 10
195.221
 20
14.8773
 11
195.323
 21
14.9726
  0
LINE
  8
0
 10
195.323
 20
14.9726
 11
195.429
 21
15.0642
  0
LINE
  8
0
 10
195.429
 20
15.0642
 11
195.537
 21
15.152
  0
LINE
  8
0
 10
195.537
 20
15.152
 11
195.649
 21
15.2361
  0
LINE
  8
0
 10
195.649
 20
15.2361
 11
195.763
 21
15.3161
  0
LINE
  8
0
 10
195.763
 20
15.3161
 11
195.88
 21
15.3922
  0
LINE
  8
0
 10
195.88
 20
15.3922
 11
196
 21
15.4641
  0
LINE
  8
0
 10
196
 20
15.4641
 11
196.122
 21
15.5318
  0
LINE
  8
0
 10
196.122
 20
15.5318
 11
196.247
 21
15.5952
  0
LINE
  8
0
 10
196.247
 20
15.5952
 11
196.373
 21
15.6542
  0
LINE
  8
0
 10
196.373
 20
15.6542
 11
196.502
 21
15.7087
  0
LINE
  8
0
 10
196.502
 20
15.7087
 11
196.632
 21
15.7588
  0
LINE
  8
0
 10
196.632
 20
15.7588
 11
196.764
 21
15.8042
  0
LINE
  8
0
 10
196.764
 20
15.8042
 11
196.897
 21
15.845
  0
LINE
  8
0
 10
196.897
 20
15.845
 11
197.032
 21
15.8812
  0
LINE
  8
0
 10
197.032
 20
15.8812
 11
197.168
 21
15.9126
  0
LINE
  8
0
 10
197.168
 20
15.9126
 11
197.305
 21
15.9392
  0
LINE
  8
0
 10
197.305
 20
15.9392
 11
197.443
 21
15.9611
  0
LINE
  8
0
 10
197.443
 20
15.9611
 11
197.582
 21
15.9781
  0
LINE
  8
0
 10
197.582
 20
15.9781
 11
197.721
 21
15.9902
  0
LINE
  8
0
 10
197.721
 20
15.9902
 11
197.86
 21
15.9976
  0
LINE
  8
0
 10
197.86
 20
15.9976
 11
198
 21
16
  0
LINE
  8
0
 10
198
 20
16
 11
198.14
 21
15.9976
  0
LINE
  8
0
 10
198.14
 20
15.9976
 11
198.279
 21
15.9902
  0
LINE
  8
0
 10
198.279
 20
15.9902
 11
198.418
 21
15.9781
  0
LINE
  8
0
 10
198.418
 20
15.9781
 11
198.557
 21
15.9611
  0
LINE
  8
0
 10
198.557
 20
15.9611
 11
198.695
 21
15.9392
  0
LINE
  8
0
 10
198.695
 20
15.9392
 11
198.832
 21
15.9126
  0
LINE
  8
0
 10
198.832
 20
15.9126
 11
198.968
 21
15.8812
  0
LINE
  8
0
 10
198.968
 20
15.8812
 11
199.103
 21
15.845
  0
LINE
  8
0
 10
199.103
 20
15.845
 11
199.236
 21
15.8042
  0
LINE
  8
0
 10
199.236
 20
15.8042
 11
199.368
 21
15.7588
  0
LINE
  8
0
 10
199.368
 20
15.7588
 11
199.498
 21
15.7087
  0
LINE
  8
0
 10
199.498
 20
15.7087
 11
199.627
 21
15.6542
  0
LINE
  8
0
 10
199.627
 20
15.6542
 11
199.753
 21
15.5952
  0
LINE
  8
0
 10
199.753
 20
15.5952
 11
199.878
 21
15.5318
  0
LINE
  8
0
 10
199.878
 20
15.5318
 11
200
 21
15.4641
  0
LINE
  8
0
 10
200
 20
15.4641
 11
200.12
 21
15.3922
  0
LINE
  8
0
 10
200.12
 20
15.3922
 11
200.237
 21
15.3161
  0
LINE
  8
0
 10
200.237
 20
15.3161
 11
200.351
 21
15.2361
  0
LINE
  8
0
 10
200.351
 20
15.2361
 11
200.463
 21
15.152
  0
LINE
  8
0
 10
200.463
 20
15.152
 11
200.571
 21
15.0642
  0
LINE
  8
0
 10
200.571
 20
15.0642
 11
200.677
 21
14.9726
  0
LINE
  8
0
 10
200.677
 20
14.9726
 11
200.779
 21
14.8773
  0
LINE
  8
0
 10
200.779
 20
14.8773
 11
200.877
 21
14.7786
  0
LINE
  8
0
 10
200.877
 20
14.7786
 11
200.973
 21
14.6765
  0
LINE
  8
0
 10
200.973
 20
14.6765
 11
201.064
 21
14.5711
  0
LINE
  8
0
 10
201.064
 20
14.5711
 11
201.152
 21
14.4626
  0
LINE
  8
0
 10
201.152
 20
14.4626
 11
201.236
 21
14.3511
  0
LINE
  8
0
 10
201.236
 20
14.3511
 11
201.316
 21
14.2368
  0
LINE
  8
0
 10
201.316
 20
14.2368
 11
201.392
 21
14.1197
  0
LINE
  8
0
 10
201.392
 20
14.1197
 11
201.464
 21
14
  0
LINE
  8
0
 10
201.464
 20
14
 11
201.532
 21
13.8779
  0
LINE
  8
0
 10
201.532
 20
13.8779
 11
201.595
 21
13.7535
  0
LINE
  8
0
 10
201.595
 20
13.7535
 11
201.654
 21
13.6269
  0
LINE
  8
0
 10
201.654
 20
13.6269
 11
201.709
 21
13.4984
  0
LINE
  8
0
 10
201.709
 20
13.4984
 11
201.759
 21
13.3681
  0
LINE
  8
0
 10
201.759
 20
13.3681
 11
201.804
 21
13.2361
  0
LINE
  8
0
 10
201.804
 20
13.2361
 11
201.845
 21
13.1025
  0
LINE
  8
0
 10
201.845
 20
13.1025
 11
201.881
 21
12.9677
  0
LINE
  8
0
 10
201.881
 20
12.9677
 11
201.913
 21
12.8316
  0
LINE
  8
0
 10
201.913
 20
12.8316
 11
201.939
 21
12.6946
  0
LINE
  8
0
 10
201.939
 20
12.6946
 11
201.961
 21
12.5567
  0
LINE
  8
0
 10
201.961
 20
12.5567
 11
201.978
 21
12.4181
  0
LINE
  8
0
 10
201.978
 20
12.4181
 11
201.99
 21
12.279
  0
LINE
  8
0
 10
201.99
 20
12.279
 11
201.998
 21
12.1396
  0
LINE
  8
0
 10
201.998
 20
12.1396
 11
202
 21
12
  0
LINE
  8
0
 10
202
 20
12
 11
201.998
 21
11.8604
  0
LINE
  8
0
 10
201.998
 20
11.8604
 11
201.99
 21
11.721
  0
LINE
  8
0
 10
201.99
 20
11.721
 11
201.978
 21
11.5819
  0
LINE
  8
0
 10
201.978
 20
11.5819
 11
201.961
 21
11.4433
  0
LINE
  8
0
 10
201.961
 20
11.4433
 11
201.939
 21
11.3054
  0
LINE
  8
0
 10
201.939
 20
11.3054
 11
201.913
 21
11.1684
  0
LINE
  8
0
 10
201.913
 20
11.1684
 11
201.881
 21
11.0323
  0
LINE
  8
0
 10
201.881
 20
11.0323
 11
201.845
 21
10.8974
  0
LINE
  8
0
 10
201.845
 20
10.8974
 11
201.804
 21
10.7639
  0
LINE
  8
0
 10
201.804
 20
10.7639
 11
201.759
 21
10.6319
  0
LINE
  8
0
 10
201.759
 20
10.6319
 11
201.709
 21
10.5016
  0
LINE
  8
0
 10
201.709
 20
10.5016
 11
201.654
 21
10.373
  0
LINE
  8
0
 10
201.654
 20
10.373
 11
201.595
 21
10.2465
  0
LINE
  8
0
 10
201.595
 20
10.2465
 11
201.532
 21
10.1221
  0
LINE
  8
0
 10
201.532
 20
10.1221
 11
201.464
 21
9.99998
  0
LINE
  8
0
 10
201.464
 20
9.99998
 11
201.392
 21
9.88031
  0
LINE
  8
0
 10
201.392
 20
9.88031
 11
201.316
 21
9.76321
  0
LINE
  8
0
 10
201.316
 20
9.76321
 11
201.236
 21
9.64885
  0
LINE
  8
0
 10
201.236
 20
9.64885
 11
201.152
 21
9.53735
  0
LINE
  8
0
 10
201.152
 20
9.53735
 11
201.064
 21
9.42885
  0
LINE
  8
0
 10
201.064
 20
9.42885
 11
200.973
 21
9.32347
  0
LINE
  8
0
 10
200.973
 20
9.32347
 11
200.877
 21
9.22136
  0
LINE
  8
0
 10
200.877
 20
9.22136
 11
200.779
 21
9.12263
  0
LINE
  8
0
 10
200.779
 20
9.12263
 11
200.677
 21
9.02742
  0
LINE
  8
0
 10
200.677
 20
9.02742
 11
200.571
 21
8.93582
  0
LINE
  8
0
 10
200.571
 20
8.93582
 11
200.463
 21
8.84795
  0
LINE
  8
0
 10
200.463
 20
8.84795
 11
200.351
 21
8.76393
  0
LINE
  8
0
 10
200.351
 20
8.76393
 11
200.237
 21
8.68384
  0
LINE
  8
0
 10
200.237
 20
8.68384
 11
200.12
 21
8.6078
  0
LINE
  8
0
 10
200.12
 20
8.6078
 11
200
 21
8.53589
  0
LINE
  8
0
 10
200
 20
8.53589
 11
199.878
 21
8.4682
  0
LINE
  8
0
 10
199.878
 20
8.4682
 11
199.753
 21
8.40482
  0
LINE
  8
0
 10
199.753
 20
8.40482
 11
199.627
 21
8.34581
  0
LINE
  8
0
 10
199.627
 20
8.34581
 11
199.498
 21
8.29126
  0
LINE
  8
0
 10
199.498
 20
8.29126
 11
199.368
 21
8.24123
  0
LINE
  8
0
 10
199.368
 20
8.24123
 11
199.236
 21
8.19577
  0
LINE
  8
0
 10
199.236
 20
8.19577
 11
199.103
 21
8.15495
  0
LINE
  8
0
 10
199.103
 20
8.15495
 11
198.968
 21
8.1188
  0
LINE
  8
0
 10
198.968
 20
8.1188
 11
198.832
 21
8.0874
  0
LINE
  8
0
 10
198.832
 20
8.0874
 11
198.695
 21
8.06076
  0
LINE
  8
0
 10
198.695
 20
8.06076
 11
198.557
 21
8.03893
  0
LINE
  8
0
 10
198.557
 20
8.03893
 11
198.418
 21
8.02191
  0
LINE
  8
0
 10
198.418
 20
8.02191
 11
198.279
 21
8.00974
  0
LINE
  8
0
 10
198.279
 20
8.00974
 11
198.14
 21
8.00243
  0
LINE
  8
0
 10
198.14
 20
8.00243
 11
198
 21
8
  0
ENDSEC
  0
SECTION
  2
OBJECTS
  0
DICTIONARY
  0
ENDSEC
  0
EOF
