  0
SECTION
  2
BLOCKS
  0
ENDSEC
  0
SECTION
  2
ENTITIES
  0
LINE
  8
0
 10
472.55
 20
43.5525
 11
469.476
 21
45.9978
  0
LINE
  8
0
 10
469.476
 20
45.9978
 11
460.049
 21
53.7689
  0
LINE
  8
0
 10
460.049
 20
53.7689
 11
450.759
 21
61.7033
  0
LINE
  8
0
 10
450.759
 20
61.7033
 11
441.609
 21
69.7986
  0
LINE
  8
0
 10
441.609
 20
69.7986
 11
432.601
 21
78.0524
  0
LINE
  8
0
 10
432.601
 20
78.0524
 11
423.739
 21
86.4621
  0
LINE
  8
0
 10
423.739
 20
86.4621
 11
415.025
 21
95.0252
  0
LINE
  8
0
 10
415.025
 20
95.0252
 11
406.462
 21
103.739
  0
LINE
  8
0
 10
406.462
 20
103.739
 11
398.052
 21
112.601
  0
LINE
  8
0
 10
398.052
 20
112.601
 11
389.799
 21
121.609
  0
LINE
  8
0
 10
389.799
 20
121.609
 11
381.703
 21
130.759
  0
LINE
  8
0
 10
381.703
 20
130.759
 11
373.769
 21
140.049
  0
LINE
  8
0
 10
373.769
 20
140.049
 11
365.998
 21
149.476
  0
LINE
  8
0
 10
365.998
 20
149.476
 11
358.392
 21
159.037
  0
LINE
  8
0
 10
358.392
 20
159.037
 11
350.955
 21
168.729
  0
LINE
  8
0
 10
350.955
 20
168.729
 11
343.688
 21
178.55
  0
LINE
  8
0
 10
343.688
 20
178.55
 11
336.594
 21
188.496
  0
LINE
  8
0
 10
336.594
 20
188.496
 11
329.674
 21
198.565
  0
LINE
  8
0
 10
329.674
 20
198.565
 11
322.931
 21
208.753
  0
LINE
  8
0
 10
322.931
 20
208.753
 11
316.366
 21
219.057
  0
LINE
  8
0
 10
316.366
 20
219.057
 11
309.983
 21
229.473
  0
LINE
  8
0
 10
309.983
 20
229.473
 11
303.782
 21
240
  0
LINE
  8
0
 10
303.782
 20
240
 11
297.766
 21
250.633
  0
LINE
  8
0
 10
297.766
 20
250.633
 11
291.937
 21
261.37
  0
LINE
  8
0
 10
291.937
 20
261.37
 11
286.295
 21
272.207
  0
LINE
  8
0
 10
286.295
 20
272.207
 11
280.844
 21
283.14
  0
LINE
  8
0
 10
280.844
 20
283.14
 11
275.585
 21
294.167
  0
LINE
  8
0
 10
275.585
 20
294.167
 11
270.518
 21
305.284
  0
LINE
  8
0
 10
270.518
 20
305.284
 11
265.647
 21
316.488
  0
LINE
  8
0
 10
265.647
 20
316.488
 11
260.971
 21
327.775
  0
LINE
  8
0
 10
260.971
 20
327.775
 11
256.494
 21
339.142
  0
LINE
  8
0
 10
256.494
 20
339.142
 11
252.215
 21
350.586
  0
LINE
  8
0
 10
252.215
 20
350.586
 11
248.137
 21
362.102
  0
LINE
  8
0
 10
248.137
 20
362.102
 11
244.26
 21
373.688
  0
LINE
  8
0
 10
244.26
 20
373.688
 11
240.587
 21
385.34
  0
LINE
  8
0
 10
240.587
 20
385.34
 11
237.117
 21
397.054
  0
LINE
  8
0
 10
237.117
 20
397.054
 11
233.852
 21
408.827
  0
LINE
  8
0
 10
233.852
 20
408.827
 11
230.793
 21
420.655
  0
LINE
  8
0
 10
230.793
 20
420.655
 11
227.941
 21
432.534
  0
LINE
  8
0
 10
227.941
 20
432.534
 11
225.297
 21
444.462
  0
LINE
  8
0
 10
225.297
 20
444.462
 11
222.861
 21
456.434
  0
LINE
  8
0
 10
222.861
 20
456.434
 11
220.635
 21
468.446
  0
LINE
  8
0
 10
220.635
 20
468.446
 11
218.618
 21
480.496
  0
LINE
  8
0
 10
218.618
 20
480.496
 11
216.812
 21
492.579
  0
LINE
  8
0
 10
216.812
 20
492.579
 11
215.218
 21
504.691
  0
LINE
  8
0
 10
215.218
 20
504.691
 11
213.835
 21
516.83
  0
LINE
  8
0
 10
213.835
 20
516.83
 11
212.664
 21
528.991
  0
LINE
  8
0
 10
212.664
 20
528.991
 11
211.705
 21
541.17
  0
LINE
  8
0
 10
211.705
 20
541.17
 11
210.959
 21
553.365
  0
LINE
  8
0
 10
210.959
 20
553.365
 11
210.426
 21
565.57
  0
LINE
  8
0
 10
210.426
 20
565.57
 11
210.107
 21
577.783
  0
LINE
  8
0
 10
210.107
 20
577.783
 11
210
 21
590
  0
LINE
  8
0
 10
210
 20
590
 11
210.107
 21
602.217
  0
LINE
  8
0
 10
210.107
 20
602.217
 11
210.426
 21
614.43
  0
LINE
  8
0
 10
210.426
 20
614.43
 11
210.959
 21
626.635
  0
LINE
  8
0
 10
210.959
 20
626.635
 11
211.705
 21
638.83
  0
LINE
  8
0
 10
211.705
 20
638.83
 11
212.664
 21
651.009
  0
LINE
  8
0
 10
212.664
 20
651.009
 11
213.835
 21
663.17
  0
LINE
  8
0
 10
213.835
 20
663.17
 11
215.218
 21
675.309
  0
LINE
  8
0
 10
215.218
 20
675.309
 11
216.812
 21
687.421
  0
LINE
  8
0
 10
216.812
 20
687.421
 11
218.618
 21
699.504
  0
LINE
  8
0
 10
218.618
 20
699.504
 11
220.635
 21
711.554
  0
LINE
  8
0
 10
220.635
 20
711.554
 11
222.861
 21
723.566
  0
LINE
  8
0
 10
222.861
 20
723.566
 11
225.297
 21
735.538
  0
LINE
  8
0
 10
225.297
 20
735.538
 11
227.941
 21
747.466
  0
LINE
  8
0
 10
227.941
 20
747.466
 11
230.793
 21
759.345
  0
LINE
  8
0
 10
230.793
 20
759.345
 11
233.852
 21
771.173
  0
LINE
  8
0
 10
233.852
 20
771.173
 11
237.117
 21
782.946
  0
LINE
  8
0
 10
237.117
 20
782.946
 11
240.587
 21
794.66
  0
LINE
  8
0
 10
240.587
 20
794.66
 11
244.26
 21
806.312
  0
LINE
  8
0
 10
244.26
 20
806.312
 11
248.137
 21
817.898
  0
LINE
  8
0
 10
248.137
 20
817.898
 11
252.215
 21
829.414
  0
LINE
  8
0
 10
252.215
 20
829.414
 11
256.494
 21
840.858
  0
LINE
  8
0
 10
256.494
 20
840.858
 11
260.971
 21
852.225
  0
LINE
  8
0
 10
260.971
 20
852.225
 11
265.647
 21
863.512
  0
LINE
  8
0
 10
265.647
 20
863.512
 11
270.518
 21
874.716
  0
LINE
  8
0
 10
270.518
 20
874.716
 11
275.585
 21
885.833
  0
LINE
  8
0
 10
275.585
 20
885.833
 11
280.844
 21
896.86
  0
LINE
  8
0
 10
280.844
 20
896.86
 11
286.295
 21
907.793
  0
LINE
  8
0
 10
286.295
 20
907.793
 11
291.937
 21
918.63
  0
LINE
  8
0
 10
291.937
 20
918.63
 11
297.766
 21
929.367
  0
LINE
  8
0
 10
297.766
 20
929.367
 11
303.782
 21
940
  0
LINE
  8
0
 10
303.782
 20
940
 11
309.983
 21
950.527
  0
LINE
  8
0
 10
309.983
 20
950.527
 11
316.366
 21
960.943
  0
LINE
  8
0
 10
316.366
 20
960.943
 11
322.136
 21
970
  0
LINE
  8
0
 10
322.136
 20
970
 11
0
 21
970
  0
LINE
  8
0
 10
0
 20
970
 11
0
 21
0
  0
LINE
  8
0
 10
0
 20
0
 11
20.001
 21
0
  0
LINE
  8
0
 10
20.001
 20
0
 11
20.6573
 21
1.20882
  0
LINE
  8
0
 10
20.6573
 20
1.20882
 11
21.3878
 21
2.49998
  0
LINE
  8
0
 10
21.3878
 20
2.49998
 11
22.1408
 21
3.77823
  0
LINE
  8
0
 10
22.1408
 20
3.77823
 11
22.9159
 21
5.04314
  0
LINE
  8
0
 10
22.9159
 20
5.04314
 11
23.713
 21
6.29431
  0
LINE
  8
0
 10
23.713
 20
6.29431
 11
24.5318
 21
7.53139
  0
LINE
  8
0
 10
24.5318
 20
7.53139
 11
25.3721
 21
8.75398
  0
LINE
  8
0
 10
25.3721
 20
8.75398
 11
26.2336
 21
9.96175
  0
LINE
  8
0
 10
26.2336
 20
9.96175
 11
27.116
 21
11.1543
  0
LINE
  8
0
 10
27.116
 20
11.1543
 11
28.0191
 21
12.3312
  0
LINE
  8
0
 10
28.0191
 20
12.3312
 11
28.9426
 21
13.4922
  0
LINE
  8
0
 10
28.9426
 20
13.4922
 11
29.8862
 21
14.6369
  0
LINE
  8
0
 10
29.8862
 20
14.6369
 11
30.8497
 21
15.765
  0
LINE
  8
0
 10
30.8497
 20
15.765
 11
31.8327
 21
16.8761
  0
LINE
  8
0
 10
31.8327
 20
16.8761
 11
32.8349
 21
17.9698
  0
LINE
  8
0
 10
32.8349
 20
17.9698
 11
33.8561
 21
19.046
  0
LINE
  8
0
 10
33.8561
 20
19.046
 11
34.8959
 21
20.1041
  0
LINE
  8
0
 10
34.8959
 20
20.1041
 11
35.954
 21
21.1439
  0
LINE
  8
0
 10
35.954
 20
21.1439
 11
37.0301
 21
22.1651
  0
LINE
  8
0
 10
37.0301
 20
22.1651
 11
38.1239
 21
23.1673
  0
LINE
  8
0
 10
38.1239
 20
23.1673
 11
39.235
 21
24.1503
  0
LINE
  8
0
 10
39.235
 20
24.1503
 11
40.3631
 21
25.1138
  0
LINE
  8
0
 10
40.3631
 20
25.1138
 11
41.5078
 21
26.0574
  0
LINE
  8
0
 10
41.5078
 20
26.0574
 11
42.6688
 21
26.9809
  0
LINE
  8
0
 10
42.6688
 20
26.9809
 11
43.8457
 21
27.884
  0
LINE
  8
0
 10
43.8457
 20
27.884
 11
45.0382
 21
28.7664
  0
LINE
  8
0
 10
45.0382
 20
28.7664
 11
46.246
 21
29.6279
  0
LINE
  8
0
 10
46.246
 20
29.6279
 11
47.4686
 21
30.4682
  0
LINE
  8
0
 10
47.4686
 20
30.4682
 11
48.7057
 21
31.287
  0
LINE
  8
0
 10
48.7057
 20
31.287
 11
49.9568
 21
32.0841
  0
LINE
  8
0
 10
49.9568
 20
32.0841
 11
51.2218
 21
32.8592
  0
LINE
  8
0
 10
51.2218
 20
32.8592
 11
52.5
 21
33.6122
  0
LINE
  8
0
 10
52.5
 20
33.6122
 11
53.7912
 21
34.3427
  0
LINE
  8
0
 10
53.7912
 20
34.3427
 11
55.0949
 21
35.0505
  0
LINE
  8
0
 10
55.0949
 20
35.0505
 11
56.4108
 21
35.7355
  0
LINE
  8
0
 10
56.4108
 20
35.7355
 11
57.7384
 21
36.3975
  0
LINE
  8
0
 10
57.7384
 20
36.3975
 11
59.0774
 21
37.0361
  0
LINE
  8
0
 10
59.0774
 20
37.0361
 11
60.4274
 21
37.6514
  0
LINE
  8
0
 10
60.4274
 20
37.6514
 11
61.7878
 21
38.2429
  0
LINE
  8
0
 10
61.7878
 20
38.2429
 11
63.1584
 21
38.8106
  0
LINE
  8
0
 10
63.1584
 20
38.8106
 11
64.5387
 21
39.3543
  0
LINE
  8
0
 10
64.5387
 20
39.3543
 11
65.9283
 21
39.8739
  0
LINE
  8
0
 10
65.9283
 20
39.8739
 11
67.3267
 21
40.3691
  0
LINE
  8
0
 10
67.3267
 20
40.3691
 11
68.7336
 21
40.8398
  0
LINE
  8
0
 10
68.7336
 20
40.8398
 11
70.1484
 21
41.2859
  0
LINE
  8
0
 10
70.1484
 20
41.2859
 11
71.5708
 21
41.7072
  0
LINE
  8
0
 10
71.5708
 20
41.7072
 11
73.0004
 21
42.1037
  0
LINE
  8
0
 10
73.0004
 20
42.1037
 11
74.4366
 21
42.4751
  0
LINE
  8
0
 10
74.4366
 20
42.4751
 11
75.8792
 21
42.8214
  0
LINE
  8
0
 10
75.8792
 20
42.8214
 11
77.3275
 21
43.1425
  0
LINE
  8
0
 10
77.3275
 20
43.1425
 11
78.7812
 21
43.4383
  0
LINE
  8
0
 10
78.7812
 20
43.4383
 11
80.2399
 21
43.7086
  0
LINE
  8
0
 10
80.2399
 20
43.7086
 11
81.7031
 21
43.9535
  0
LINE
  8
0
 10
81.7031
 20
43.9535
 11
83.1703
 21
44.1728
  0
LINE
  8
0
 10
83.1703
 20
44.1728
 11
84.6411
 21
44.3664
  0
LINE
  8
0
 10
84.6411
 20
44.3664
 11
86.1151
 21
44.5343
  0
LINE
  8
0
 10
86.1151
 20
44.5343
 11
87.5918
 21
44.6765
  0
LINE
  8
0
 10
87.5918
 20
44.6765
 11
89.0707
 21
44.7929
  0
LINE
  8
0
 10
89.0707
 20
44.7929
 11
90.5514
 21
44.8835
  0
LINE
  8
0
 10
90.5514
 20
44.8835
 11
92.0335
 21
44.9482
  0
LINE
  8
0
 10
92.0335
 20
44.9482
 11
93.5165
 21
44.987
  0
LINE
  8
0
 10
93.5165
 20
44.987
 11
95
 21
45
  0
LINE
  8
0
 10
95
 20
45
 11
96.4834
 21
44.987
  0
LINE
  8
0
 10
96.4834
 20
44.987
 11
97.9664
 21
44.9482
  0
LINE
  8
0
 10
97.9664
 20
44.9482
 11
99.4485
 21
44.8835
  0
LINE
  8
0
 10
99.4485
 20
44.8835
 11
100.929
 21
44.7929
  0
LINE
  8
0
 10
100.929
 20
44.7929
 11
102.408
 21
44.6765
  0
LINE
  8
0
 10
102.408
 20
44.6765
 11
103.885
 21
44.5343
  0
LINE
  8
0
 10
103.885
 20
44.5343
 11
105.359
 21
44.3664
  0
LINE
  8
0
 10
105.359
 20
44.3664
 11
106.83
 21
44.1728
  0
LINE
  8
0
 10
106.83
 20
44.1728
 11
108.297
 21
43.9535
  0
LINE
  8
0
 10
108.297
 20
43.9535
 11
109.76
 21
43.7086
  0
LINE
  8
0
 10
109.76
 20
43.7086
 11
111.219
 21
43.4383
  0
LINE
  8
0
 10
111.219
 20
43.4383
 11
112.672
 21
43.1425
  0
LINE
  8
0
 10
112.672
 20
43.1425
 11
114.121
 21
42.8214
  0
LINE
  8
0
 10
114.121
 20
42.8214
 11
115.563
 21
42.4751
  0
LINE
  8
0
 10
115.563
 20
42.4751
 11
117
 21
42.1037
  0
LINE
  8
0
 10
117
 20
42.1037
 11
118.429
 21
41.7072
  0
LINE
  8
0
 10
118.429
 20
41.7072
 11
119.852
 21
41.2859
  0
LINE
  8
0
 10
119.852
 20
41.2859
 11
121.266
 21
40.8398
  0
LINE
  8
0
 10
121.266
 20
40.8398
 11
122.673
 21
40.3691
  0
LINE
  8
0
 10
122.673
 20
40.3691
 11
124.072
 21
39.8739
  0
LINE
  8
0
 10
124.072
 20
39.8739
 11
125.461
 21
39.3543
  0
LINE
  8
0
 10
125.461
 20
39.3543
 11
126.842
 21
38.8106
  0
LINE
  8
0
 10
126.842
 20
38.8106
 11
128.212
 21
38.2429
  0
LINE
  8
0
 10
128.212
 20
38.2429
 11
129.573
 21
37.6514
  0
LINE
  8
0
 10
129.573
 20
37.6514
 11
130.923
 21
37.0361
  0
LINE
  8
0
 10
130.923
 20
37.0361
 11
132.262
 21
36.3975
  0
LINE
  8
0
 10
132.262
 20
36.3975
 11
133.589
 21
35.7355
  0
LINE
  8
0
 10
133.589
 20
35.7355
 11
134.905
 21
35.0505
  0
LINE
  8
0
 10
134.905
 20
35.0505
 11
136.209
 21
34.3427
  0
LINE
  8
0
 10
136.209
 20
34.3427
 11
137.5
 21
33.6122
  0
LINE
  8
0
 10
137.5
 20
33.6122
 11
138.778
 21
32.8592
  0
LINE
  8
0
 10
138.778
 20
32.8592
 11
140.043
 21
32.0841
  0
LINE
  8
0
 10
140.043
 20
32.0841
 11
141.294
 21
31.287
  0
LINE
  8
0
 10
141.294
 20
31.287
 11
142.531
 21
30.4682
  0
LINE
  8
0
 10
142.531
 20
30.4682
 11
143.754
 21
29.6279
  0
LINE
  8
0
 10
143.754
 20
29.6279
 11
144.962
 21
28.7664
  0
LINE
  8
0
 10
144.962
 20
28.7664
 11
146.154
 21
27.884
  0
LINE
  8
0
 10
146.154
 20
27.884
 11
147.331
 21
26.9809
  0
LINE
  8
0
 10
147.331
 20
26.9809
 11
148.492
 21
26.0574
  0
LINE
  8
0
 10
148.492
 20
26.0574
 11
149.637
 21
25.1138
  0
LINE
  8
0
 10
149.637
 20
25.1138
 11
150.765
 21
24.1503
  0
LINE
  8
0
 10
150.765
 20
24.1503
 11
151.876
 21
23.1673
  0
LINE
  8
0
 10
151.876
 20
23.1673
 11
152.97
 21
22.1651
  0
LINE
  8
0
 10
152.97
 20
22.1651
 11
154.046
 21
21.1439
  0
LINE
  8
0
 10
154.046
 20
21.1439
 11
155.104
 21
20.1041
  0
LINE
  8
0
 10
155.104
 20
20.1041
 11
156.144
 21
19.046
  0
LINE
  8
0
 10
156.144
 20
19.046
 11
157.165
 21
17.9698
  0
LINE
  8
0
 10
157.165
 20
17.9698
 11
158.167
 21
16.8761
  0
LINE
  8
0
 10
158.167
 20
16.8761
 11
159.15
 21
15.765
  0
LINE
  8
0
 10
159.15
 20
15.765
 11
160.114
 21
14.6369
  0
LINE
  8
0
 10
160.114
 20
14.6369
 11
161.057
 21
13.4922
  0
LINE
  8
0
 10
161.057
 20
13.4922
 11
161.981
 21
12.3312
  0
LINE
  8
0
 10
161.981
 20
12.3312
 11
162.884
 21
11.1543
  0
LINE
  8
0
 10
162.884
 20
11.1543
 11
163.766
 21
9.96175
  0
LINE
  8
0
 10
163.766
 20
9.96175
 11
164.628
 21
8.75398
  0
LINE
  8
0
 10
164.628
 20
8.75398
 11
165.468
 21
7.53139
  0
LINE
  8
0
 10
165.468
 20
7.53139
 11
166.287
 21
6.29431
  0
LINE
  8
0
 10
166.287
 20
6.29431
 11
167.084
 21
5.04314
  0
LINE
  8
0
 10
167.084
 20
5.04314
 11
167.859
 21
3.77823
  0
LINE
  8
0
 10
167.859
 20
3.77823
 11
168.612
 21
2.49998
  0
LINE
  8
0
 10
168.612
 20
2.49998
 11
169.343
 21
1.20882
  0
LINE
  8
0
 10
169.343
 20
1.20882
 11
169.999
 21
0
  0
LINE
  8
0
 10
169.999
 20
0
 11
430.492
 21
0
  0
LINE
  8
0
 10
430.492
 20
0
 11
472.55
 21
43.5525
  0
LINE
  8
0
 10
12
 20
954
 11
11.8604
 21
954.002
  0
LINE
  8
0
 10
11.8604
 20
954.002
 11
11.721
 21
954.01
  0
LINE
  8
0
 10
11.721
 20
954.01
 11
11.5819
 21
954.022
  0
LINE
  8
0
 10
11.5819
 20
954.022
 11
11.4433
 21
954.039
  0
LINE
  8
0
 10
11.4433
 20
954.039
 11
11.3054
 21
954.061
  0
LINE
  8
0
 10
11.3054
 20
954.061
 11
11.1684
 21
954.087
  0
LINE
  8
0
 10
11.1684
 20
954.087
 11
11.0323
 21
954.119
  0
LINE
  8
0
 10
11.0323
 20
954.119
 11
10.8974
 21
954.155
  0
LINE
  8
0
 10
10.8974
 20
954.155
 11
10.7639
 21
954.196
  0
LINE
  8
0
 10
10.7639
 20
954.196
 11
10.6319
 21
954.241
  0
LINE
  8
0
 10
10.6319
 20
954.241
 11
10.5016
 21
954.291
  0
LINE
  8
0
 10
10.5016
 20
954.291
 11
10.373
 21
954.346
  0
LINE
  8
0
 10
10.373
 20
954.346
 11
10.2465
 21
954.405
  0
LINE
  8
0
 10
10.2465
 20
954.405
 11
10.1221
 21
954.468
  0
LINE
  8
0
 10
10.1221
 20
954.468
 11
9.99998
 21
954.536
  0
LINE
  8
0
 10
9.99998
 20
954.536
 11
9.88031
 21
954.608
  0
LINE
  8
0
 10
9.88031
 20
954.608
 11
9.76321
 21
954.684
  0
LINE
  8
0
 10
9.76321
 20
954.684
 11
9.64885
 21
954.764
  0
LINE
  8
0
 10
9.64885
 20
954.764
 11
9.53735
 21
954.848
  0
LINE
  8
0
 10
9.53735
 20
954.848
 11
9.42885
 21
954.936
  0
LINE
  8
0
 10
9.42885
 20
954.936
 11
9.32347
 21
955.027
  0
LINE
  8
0
 10
9.32347
 20
955.027
 11
9.22136
 21
955.123
  0
LINE
  8
0
 10
9.22136
 20
955.123
 11
9.12263
 21
955.221
  0
LINE
  8
0
 10
9.12263
 20
955.221
 11
9.02742
 21
955.323
  0
LINE
  8
0
 10
9.02742
 20
955.323
 11
8.93582
 21
955.429
  0
LINE
  8
0
 10
8.93582
 20
955.429
 11
8.84795
 21
955.537
  0
LINE
  8
0
 10
8.84795
 20
955.537
 11
8.76393
 21
955.649
  0
LINE
  8
0
 10
8.76393
 20
955.649
 11
8.68384
 21
955.763
  0
LINE
  8
0
 10
8.68384
 20
955.763
 11
8.6078
 21
955.88
  0
LINE
  8
0
 10
8.6078
 20
955.88
 11
8.53589
 21
956
  0
LINE
  8
0
 10
8.53589
 20
956
 11
8.4682
 21
956.122
  0
LINE
  8
0
 10
8.4682
 20
956.122
 11
8.40482
 21
956.247
  0
LINE
  8
0
 10
8.40482
 20
956.247
 11
8.34581
 21
956.373
  0
LINE
  8
0
 10
8.34581
 20
956.373
 11
8.29126
 21
956.502
  0
LINE
  8
0
 10
8.29126
 20
956.502
 11
8.24123
 21
956.632
  0
LINE
  8
0
 10
8.24123
 20
956.632
 11
8.19577
 21
956.764
  0
LINE
  8
0
 10
8.19577
 20
956.764
 11
8.15495
 21
956.897
  0
LINE
  8
0
 10
8.15495
 20
956.897
 11
8.1188
 21
957.032
  0
LINE
  8
0
 10
8.1188
 20
957.032
 11
8.0874
 21
957.168
  0
LINE
  8
0
 10
8.0874
 20
957.168
 11
8.06076
 21
957.305
  0
LINE
  8
0
 10
8.06076
 20
957.305
 11
8.03893
 21
957.443
  0
LINE
  8
0
 10
8.03893
 20
957.443
 11
8.02191
 21
957.582
  0
LINE
  8
0
 10
8.02191
 20
957.582
 11
8.00974
 21
957.721
  0
LINE
  8
0
 10
8.00974
 20
957.721
 11
8.00243
 21
957.86
  0
LINE
  8
0
 10
8.00243
 20
957.86
 11
8
 21
958
  0
LINE
  8
0
 10
8
 20
958
 11
8.00243
 21
958.14
  0
LINE
  8
0
 10
8.00243
 20
958.14
 11
8.00974
 21
958.279
  0
LINE
  8
0
 10
8.00974
 20
958.279
 11
8.02191
 21
958.418
  0
LINE
  8
0
 10
8.02191
 20
958.418
 11
8.03893
 21
958.557
  0
LINE
  8
0
 10
8.03893
 20
958.557
 11
8.06076
 21
958.695
  0
LINE
  8
0
 10
8.06076
 20
958.695
 11
8.0874
 21
958.832
  0
LINE
  8
0
 10
8.0874
 20
958.832
 11
8.1188
 21
958.968
  0
LINE
  8
0
 10
8.1188
 20
958.968
 11
8.15495
 21
959.103
  0
LINE
  8
0
 10
8.15495
 20
959.103
 11
8.19577
 21
959.236
  0
LINE
  8
0
 10
8.19577
 20
959.236
 11
8.24123
 21
959.368
  0
LINE
  8
0
 10
8.24123
 20
959.368
 11
8.29126
 21
959.498
  0
LINE
  8
0
 10
8.29126
 20
959.498
 11
8.34581
 21
959.627
  0
LINE
  8
0
 10
8.34581
 20
959.627
 11
8.40482
 21
959.753
  0
LINE
  8
0
 10
8.40482
 20
959.753
 11
8.4682
 21
959.878
  0
LINE
  8
0
 10
8.4682
 20
959.878
 11
8.53589
 21
960
  0
LINE
  8
0
 10
8.53589
 20
960
 11
8.6078
 21
960.12
  0
LINE
  8
0
 10
8.6078
 20
960.12
 11
8.68384
 21
960.237
  0
LINE
  8
0
 10
8.68384
 20
960.237
 11
8.76393
 21
960.351
  0
LINE
  8
0
 10
8.76393
 20
960.351
 11
8.84795
 21
960.463
  0
LINE
  8
0
 10
8.84795
 20
960.463
 11
8.93582
 21
960.571
  0
LINE
  8
0
 10
8.93582
 20
960.571
 11
9.02742
 21
960.677
  0
LINE
  8
0
 10
9.02742
 20
960.677
 11
9.12263
 21
960.779
  0
LINE
  8
0
 10
9.12263
 20
960.779
 11
9.22136
 21
960.877
  0
LINE
  8
0
 10
9.22136
 20
960.877
 11
9.32347
 21
960.973
  0
LINE
  8
0
 10
9.32347
 20
960.973
 11
9.42885
 21
961.064
  0
LINE
  8
0
 10
9.42885
 20
961.064
 11
9.53735
 21
961.152
  0
LINE
  8
0
 10
9.53735
 20
961.152
 11
9.64885
 21
961.236
  0
LINE
  8
0
 10
9.64885
 20
961.236
 11
9.76321
 21
961.316
  0
LINE
  8
0
 10
9.76321
 20
961.316
 11
9.88031
 21
961.392
  0
LINE
  8
0
 10
9.88031
 20
961.392
 11
10
 21
961.464
  0
LINE
  8
0
 10
10
 20
961.464
 11
10.1221
 21
961.532
  0
LINE
  8
0
 10
10.1221
 20
961.532
 11
10.2465
 21
961.595
  0
LINE
  8
0
 10
10.2465
 20
961.595
 11
10.373
 21
961.654
  0
LINE
  8
0
 10
10.373
 20
961.654
 11
10.5016
 21
961.709
  0
LINE
  8
0
 10
10.5016
 20
961.709
 11
10.6319
 21
961.759
  0
LINE
  8
0
 10
10.6319
 20
961.759
 11
10.7639
 21
961.804
  0
LINE
  8
0
 10
10.7639
 20
961.804
 11
10.8974
 21
961.845
  0
LINE
  8
0
 10
10.8974
 20
961.845
 11
11.0323
 21
961.881
  0
LINE
  8
0
 10
11.0323
 20
961.881
 11
11.1684
 21
961.913
  0
LINE
  8
0
 10
11.1684
 20
961.913
 11
11.3054
 21
961.939
  0
LINE
  8
0
 10
11.3054
 20
961.939
 11
11.4433
 21
961.961
  0
LINE
  8
0
 10
11.4433
 20
961.961
 11
11.5819
 21
961.978
  0
LINE
  8
0
 10
11.5819
 20
961.978
 11
11.721
 21
961.99
  0
LINE
  8
0
 10
11.721
 20
961.99
 11
11.8604
 21
961.998
  0
LINE
  8
0
 10
11.8604
 20
961.998
 11
12
 21
962
  0
LINE
  8
0
 10
12
 20
962
 11
12.1396
 21
961.998
  0
LINE
  8
0
 10
12.1396
 20
961.998
 11
12.279
 21
961.99
  0
LINE
  8
0
 10
12.279
 20
961.99
 11
12.4181
 21
961.978
  0
LINE
  8
0
 10
12.4181
 20
961.978
 11
12.5567
 21
961.961
  0
LINE
  8
0
 10
12.5567
 20
961.961
 11
12.6946
 21
961.939
  0
LINE
  8
0
 10
12.6946
 20
961.939
 11
12.8316
 21
961.913
  0
LINE
  8
0
 10
12.8316
 20
961.913
 11
12.9677
 21
961.881
  0
LINE
  8
0
 10
12.9677
 20
961.881
 11
13.1025
 21
961.845
  0
LINE
  8
0
 10
13.1025
 20
961.845
 11
13.2361
 21
961.804
  0
LINE
  8
0
 10
13.2361
 20
961.804
 11
13.3681
 21
961.759
  0
LINE
  8
0
 10
13.3681
 20
961.759
 11
13.4984
 21
961.709
  0
LINE
  8
0
 10
13.4984
 20
961.709
 11
13.6269
 21
961.654
  0
LINE
  8
0
 10
13.6269
 20
961.654
 11
13.7535
 21
961.595
  0
LINE
  8
0
 10
13.7535
 20
961.595
 11
13.8779
 21
961.532
  0
LINE
  8
0
 10
13.8779
 20
961.532
 11
14
 21
961.464
  0
LINE
  8
0
 10
14
 20
961.464
 11
14.1197
 21
961.392
  0
LINE
  8
0
 10
14.1197
 20
961.392
 11
14.2368
 21
961.316
  0
LINE
  8
0
 10
14.2368
 20
961.316
 11
14.3511
 21
961.236
  0
LINE
  8
0
 10
14.3511
 20
961.236
 11
14.4626
 21
961.152
  0
LINE
  8
0
 10
14.4626
 20
961.152
 11
14.5711
 21
961.064
  0
LINE
  8
0
 10
14.5711
 20
961.064
 11
14.6765
 21
960.973
  0
LINE
  8
0
 10
14.6765
 20
960.973
 11
14.7786
 21
960.877
  0
LINE
  8
0
 10
14.7786
 20
960.877
 11
14.8773
 21
960.779
  0
LINE
  8
0
 10
14.8773
 20
960.779
 11
14.9726
 21
960.677
  0
LINE
  8
0
 10
14.9726
 20
960.677
 11
15.0642
 21
960.571
  0
LINE
  8
0
 10
15.0642
 20
960.571
 11
15.152
 21
960.463
  0
LINE
  8
0
 10
15.152
 20
960.463
 11
15.2361
 21
960.351
  0
LINE
  8
0
 10
15.2361
 20
960.351
 11
15.3161
 21
960.237
  0
LINE
  8
0
 10
15.3161
 20
960.237
 11
15.3922
 21
960.12
  0
LINE
  8
0
 10
15.3922
 20
960.12
 11
15.4641
 21
960
  0
LINE
  8
0
 10
15.4641
 20
960
 11
15.5318
 21
959.878
  0
LINE
  8
0
 10
15.5318
 20
959.878
 11
15.5952
 21
959.753
  0
LINE
  8
0
 10
15.5952
 20
959.753
 11
15.6542
 21
959.627
  0
LINE
  8
0
 10
15.6542
 20
959.627
 11
15.7087
 21
959.498
  0
LINE
  8
0
 10
15.7087
 20
959.498
 11
15.7588
 21
959.368
  0
LINE
  8
0
 10
15.7588
 20
959.368
 11
15.8042
 21
959.236
  0
LINE
  8
0
 10
15.8042
 20
959.236
 11
15.845
 21
959.103
  0
LINE
  8
0
 10
15.845
 20
959.103
 11
15.8812
 21
958.968
  0
LINE
  8
0
 10
15.8812
 20
958.968
 11
15.9126
 21
958.832
  0
LINE
  8
0
 10
15.9126
 20
958.832
 11
15.9392
 21
958.695
  0
LINE
  8
0
 10
15.9392
 20
958.695
 11
15.9611
 21
958.557
  0
LINE
  8
0
 10
15.9611
 20
958.557
 11
15.9781
 21
958.418
  0
LINE
  8
0
 10
15.9781
 20
958.418
 11
15.9902
 21
958.279
  0
LINE
  8
0
 10
15.9902
 20
958.279
 11
15.9976
 21
958.14
  0
LINE
  8
0
 10
15.9976
 20
958.14
 11
16
 21
958
  0
LINE
  8
0
 10
16
 20
958
 11
15.9976
 21
957.86
  0
LINE
  8
0
 10
15.9976
 20
957.86
 11
15.9902
 21
957.721
  0
LINE
  8
0
 10
15.9902
 20
957.721
 11
15.9781
 21
957.582
  0
LINE
  8
0
 10
15.9781
 20
957.582
 11
15.9611
 21
957.443
  0
LINE
  8
0
 10
15.9611
 20
957.443
 11
15.9392
 21
957.305
  0
LINE
  8
0
 10
15.9392
 20
957.305
 11
15.9126
 21
957.168
  0
LINE
  8
0
 10
15.9126
 20
957.168
 11
15.8812
 21
957.032
  0
LINE
  8
0
 10
15.8812
 20
957.032
 11
15.845
 21
956.897
  0
LINE
  8
0
 10
15.845
 20
956.897
 11
15.8042
 21
956.764
  0
LINE
  8
0
 10
15.8042
 20
956.764
 11
15.7588
 21
956.632
  0
LINE
  8
0
 10
15.7588
 20
956.632
 11
15.7087
 21
956.502
  0
LINE
  8
0
 10
15.7087
 20
956.502
 11
15.6542
 21
956.373
  0
LINE
  8
0
 10
15.6542
 20
956.373
 11
15.5952
 21
956.247
  0
LINE
  8
0
 10
15.5952
 20
956.247
 11
15.5318
 21
956.122
  0
LINE
  8
0
 10
15.5318
 20
956.122
 11
15.4641
 21
956
  0
LINE
  8
0
 10
15.4641
 20
956
 11
15.3922
 21
955.88
  0
LINE
  8
0
 10
15.3922
 20
955.88
 11
15.3161
 21
955.763
  0
LINE
  8
0
 10
15.3161
 20
955.763
 11
15.2361
 21
955.649
  0
LINE
  8
0
 10
15.2361
 20
955.649
 11
15.152
 21
955.537
  0
LINE
  8
0
 10
15.152
 20
955.537
 11
15.0642
 21
955.429
  0
LINE
  8
0
 10
15.0642
 20
955.429
 11
14.9726
 21
955.323
  0
LINE
  8
0
 10
14.9726
 20
955.323
 11
14.8773
 21
955.221
  0
LINE
  8
0
 10
14.8773
 20
955.221
 11
14.7786
 21
955.123
  0
LINE
  8
0
 10
14.7786
 20
955.123
 11
14.6765
 21
955.027
  0
LINE
  8
0
 10
14.6765
 20
955.027
 11
14.5711
 21
954.936
  0
LINE
  8
0
 10
14.5711
 20
954.936
 11
14.4626
 21
954.848
  0
LINE
  8
0
 10
14.4626
 20
954.848
 11
14.3511
 21
954.764
  0
LINE
  8
0
 10
14.3511
 20
954.764
 11
14.2368
 21
954.684
  0
LINE
  8
0
 10
14.2368
 20
954.684
 11
14.1197
 21
954.608
  0
LINE
  8
0
 10
14.1197
 20
954.608
 11
14
 21
954.536
  0
LINE
  8
0
 10
14
 20
954.536
 11
13.8779
 21
954.468
  0
LINE
  8
0
 10
13.8779
 20
954.468
 11
13.7535
 21
954.405
  0
LINE
  8
0
 10
13.7535
 20
954.405
 11
13.6269
 21
954.346
  0
LINE
  8
0
 10
13.6269
 20
954.346
 11
13.4984
 21
954.291
  0
LINE
  8
0
 10
13.4984
 20
954.291
 11
13.3681
 21
954.241
  0
LINE
  8
0
 10
13.3681
 20
954.241
 11
13.2361
 21
954.196
  0
LINE
  8
0
 10
13.2361
 20
954.196
 11
13.1025
 21
954.155
  0
LINE
  8
0
 10
13.1025
 20
954.155
 11
12.9677
 21
954.119
  0
LINE
  8
0
 10
12.9677
 20
954.119
 11
12.8316
 21
954.087
  0
LINE
  8
0
 10
12.8316
 20
954.087
 11
12.6946
 21
954.061
  0
LINE
  8
0
 10
12.6946
 20
954.061
 11
12.5567
 21
954.039
  0
LINE
  8
0
 10
12.5567
 20
954.039
 11
12.4181
 21
954.022
  0
LINE
  8
0
 10
12.4181
 20
954.022
 11
12.279
 21
954.01
  0
LINE
  8
0
 10
12.279
 20
954.01
 11
12.1396
 21
954.002
  0
LINE
  8
0
 10
12.1396
 20
954.002
 11
12
 21
954
  0
LINE
  8
0
 10
205.276
 20
802.465
 11
255.473
 21
926.708
  0
LINE
  8
0
 10
255.473
 20
926.708
 11
283.288
 21
915.47
  0
LINE
  8
0
 10
283.288
 20
915.47
 11
233.091
 21
791.227
  0
LINE
  8
0
 10
233.091
 20
791.227
 11
205.276
 21
802.465
  0
LINE
  8
0
 10
100
 20
820
 11
100
 21
920
  0
LINE
  8
0
 10
100
 20
920
 11
120
 21
920
  0
LINE
  8
0
 10
120
 20
920
 11
120
 21
820
  0
LINE
  8
0
 10
120
 20
820
 11
100
 21
820
  0
LINE
  8
0
 10
177.683
 20
664.094
 11
203.251
 21
795.632
  0
LINE
  8
0
 10
203.251
 20
795.632
 11
232.7
 21
789.908
  0
LINE
  8
0
 10
232.7
 20
789.908
 11
207.132
 21
658.37
  0
LINE
  8
0
 10
207.132
 20
658.37
 11
177.683
 21
664.094
  0
LINE
  8
0
 10
85
 20
685
 11
85
 21
785
  0
LINE
  8
0
 10
85
 20
785
 11
105
 21
785
  0
LINE
  8
0
 10
105
 20
785
 11
105
 21
685
  0
LINE
  8
0
 10
105
 20
685
 11
85
 21
685
  0
LINE
  8
0
 10
177
 20
523
 11
177
 21
657
  0
LINE
  8
0
 10
177
 20
657
 11
207
 21
657
  0
LINE
  8
0
 10
207
 20
657
 11
207
 21
523
  0
LINE
  8
0
 10
207
 20
523
 11
177
 21
523
  0
LINE
  8
0
 10
75
 20
540
 11
75
 21
640
  0
LINE
  8
0
 10
75
 20
640
 11
95
 21
640
  0
LINE
  8
0
 10
95
 20
640
 11
95
 21
540
  0
LINE
  8
0
 10
95
 20
540
 11
75
 21
540
  0
LINE
  8
0
 10
177.683
 20
515.906
 11
207.132
 21
521.63
  0
LINE
  8
0
 10
207.132
 20
521.63
 11
232.7
 21
390.092
  0
LINE
  8
0
 10
232.7
 20
390.092
 11
203.251
 21
384.368
  0
LINE
  8
0
 10
203.251
 20
384.368
 11
177.683
 21
515.906
  0
LINE
  8
0
 10
85
 20
390
 11
85
 21
490
  0
LINE
  8
0
 10
85
 20
490
 11
105
 21
490
  0
LINE
  8
0
 10
105
 20
490
 11
105
 21
390
  0
LINE
  8
0
 10
105
 20
390
 11
85
 21
390
  0
LINE
  8
0
 10
205.276
 20
377.535
 11
233.091
 21
388.773
  0
LINE
  8
0
 10
233.091
 20
388.773
 11
283.288
 21
264.53
  0
LINE
  8
0
 10
283.288
 20
264.53
 11
255.473
 21
253.292
  0
LINE
  8
0
 10
255.473
 20
253.292
 11
205.276
 21
377.535
  0
LINE
  8
0
 10
100
 20
240
 11
100
 21
340
  0
LINE
  8
0
 10
100
 20
340
 11
120
 21
340
  0
LINE
  8
0
 10
120
 20
340
 11
120
 21
240
  0
LINE
  8
0
 10
120
 20
240
 11
100
 21
240
  0
LINE
  8
0
 10
258.764
 20
246.971
 11
283.924
 21
263.31
  0
LINE
  8
0
 10
283.924
 20
263.31
 11
356.905
 21
150.928
  0
LINE
  8
0
 10
356.905
 20
150.928
 11
331.745
 21
134.589
  0
LINE
  8
0
 10
331.745
 20
134.589
 11
258.764
 21
246.971
  0
LINE
  8
0
 10
20
 20
65
 11
20
 21
199
  0
LINE
  8
0
 10
20
 20
199
 11
220
 21
199
  0
LINE
  8
0
 10
220
 20
199
 11
220
 21
65
  0
LINE
  8
0
 10
220
 20
65
 11
20
 21
65
  0
LINE
  8
0
 10
336.182
 20
129.011
 11
357.762
 21
149.851
  0
LINE
  8
0
 10
357.762
 20
149.851
 11
450.846
 21
53.4594
  0
LINE
  8
0
 10
450.846
 20
53.4594
 11
429.266
 21
32.6196
  0
LINE
  8
0
 10
429.266
 20
32.6196
 11
336.182
 21
129.011
  0
LINE
  8
0
 10
210
 20
10
 11
210
 21
30
  0
LINE
  8
0
 10
210
 20
30
 11
310
 21
30
  0
LINE
  8
0
 10
310
 20
30
 11
310
 21
10
  0
LINE
  8
0
 10
310
 20
10
 11
210
 21
10
  0
LINE
  8
0
 10
12
 20
8
 11
11.8604
 21
8.00243
  0
LINE
  8
0
 10
11.8604
 20
8.00243
 11
11.721
 21
8.00974
  0
LINE
  8
0
 10
11.721
 20
8.00974
 11
11.5819
 21
8.02191
  0
LINE
  8
0
 10
11.5819
 20
8.02191
 11
11.4433
 21
8.03893
  0
LINE
  8
0
 10
11.4433
 20
8.03893
 11
11.3054
 21
8.06076
  0
LINE
  8
0
 10
11.3054
 20
8.06076
 11
11.1684
 21
8.0874
  0
LINE
  8
0
 10
11.1684
 20
8.0874
 11
11.0323
 21
8.1188
  0
LINE
  8
0
 10
11.0323
 20
8.1188
 11
10.8974
 21
8.15495
  0
LINE
  8
0
 10
10.8974
 20
8.15495
 11
10.7639
 21
8.19577
  0
LINE
  8
0
 10
10.7639
 20
8.19577
 11
10.6319
 21
8.24123
  0
LINE
  8
0
 10
10.6319
 20
8.24123
 11
10.5016
 21
8.29126
  0
LINE
  8
0
 10
10.5016
 20
8.29126
 11
10.373
 21
8.34581
  0
LINE
  8
0
 10
10.373
 20
8.34581
 11
10.2465
 21
8.40482
  0
LINE
  8
0
 10
10.2465
 20
8.40482
 11
10.1221
 21
8.4682
  0
LINE
  8
0
 10
10.1221
 20
8.4682
 11
9.99998
 21
8.53589
  0
LINE
  8
0
 10
9.99998
 20
8.53589
 11
9.88031
 21
8.6078
  0
LINE
  8
0
 10
9.88031
 20
8.6078
 11
9.76321
 21
8.68384
  0
LINE
  8
0
 10
9.76321
 20
8.68384
 11
9.64885
 21
8.76393
  0
LINE
  8
0
 10
9.64885
 20
8.76393
 11
9.53735
 21
8.84795
  0
LINE
  8
0
 10
9.53735
 20
8.84795
 11
9.42885
 21
8.93582
  0
LINE
  8
0
 10
9.42885
 20
8.93582
 11
9.32347
 21
9.02742
  0
LINE
  8
0
 10
9.32347
 20
9.02742
 11
9.22136
 21
9.12263
  0
LINE
  8
0
 10
9.22136
 20
9.12263
 11
9.12263
 21
9.22136
  0
LINE
  8
0
 10
9.12263
 20
9.22136
 11
9.02742
 21
9.32347
  0
LINE
  8
0
 10
9.02742
 20
9.32347
 11
8.93582
 21
9.42885
  0
LINE
  8
0
 10
8.93582
 20
9.42885
 11
8.84795
 21
9.53735
  0
LINE
  8
0
 10
8.84795
 20
9.53735
 11
8.76393
 21
9.64885
  0
LINE
  8
0
 10
8.76393
 20
9.64885
 11
8.68384
 21
9.76321
  0
LINE
  8
0
 10
8.68384
 20
9.76321
 11
8.6078
 21
9.88031
  0
LINE
  8
0
 10
8.6078
 20
9.88031
 11
8.53589
 21
10
  0
LINE
  8
0
 10
8.53589
 20
10
 11
8.4682
 21
10.1221
  0
LINE
  8
0
 10
8.4682
 20
10.1221
 11
8.40482
 21
10.2465
  0
LINE
  8
0
 10
8.40482
 20
10.2465
 11
8.34581
 21
10.373
  0
LINE
  8
0
 10
8.34581
 20
10.373
 11
8.29126
 21
10.5016
  0
LINE
  8
0
 10
8.29126
 20
10.5016
 11
8.24123
 21
10.6319
  0
LINE
  8
0
 10
8.24123
 20
10.6319
 11
8.19577
 21
10.7639
  0
LINE
  8
0
 10
8.19577
 20
10.7639
 11
8.15495
 21
10.8974
  0
LINE
  8
0
 10
8.15495
 20
10.8974
 11
8.1188
 21
11.0323
  0
LINE
  8
0
 10
8.1188
 20
11.0323
 11
8.0874
 21
11.1684
  0
LINE
  8
0
 10
8.0874
 20
11.1684
 11
8.06076
 21
11.3054
  0
LINE
  8
0
 10
8.06076
 20
11.3054
 11
8.03893
 21
11.4433
  0
LINE
  8
0
 10
8.03893
 20
11.4433
 11
8.02191
 21
11.5819
  0
LINE
  8
0
 10
8.02191
 20
11.5819
 11
8.00974
 21
11.721
  0
LINE
  8
0
 10
8.00974
 20
11.721
 11
8.00243
 21
11.8604
  0
LINE
  8
0
 10
8.00243
 20
11.8604
 11
8
 21
12
  0
LINE
  8
0
 10
8
 20
12
 11
8.00243
 21
12.1396
  0
LINE
  8
0
 10
8.00243
 20
12.1396
 11
8.00974
 21
12.279
  0
LINE
  8
0
 10
8.00974
 20
12.279
 11
8.02191
 21
12.4181
  0
LINE
  8
0
 10
8.02191
 20
12.4181
 11
8.03893
 21
12.5567
  0
LINE
  8
0
 10
8.03893
 20
12.5567
 11
8.06076
 21
12.6946
  0
LINE
  8
0
 10
8.06076
 20
12.6946
 11
8.0874
 21
12.8316
  0
LINE
  8
0
 10
8.0874
 20
12.8316
 11
8.1188
 21
12.9677
  0
LINE
  8
0
 10
8.1188
 20
12.9677
 11
8.15495
 21
13.1025
  0
LINE
  8
0
 10
8.15495
 20
13.1025
 11
8.19577
 21
13.2361
  0
LINE
  8
0
 10
8.19577
 20
13.2361
 11
8.24123
 21
13.3681
  0
LINE
  8
0
 10
8.24123
 20
13.3681
 11
8.29126
 21
13.4984
  0
LINE
  8
0
 10
8.29126
 20
13.4984
 11
8.34581
 21
13.6269
  0
LINE
  8
0
 10
8.34581
 20
13.6269
 11
8.40482
 21
13.7535
  0
LINE
  8
0
 10
8.40482
 20
13.7535
 11
8.4682
 21
13.8779
  0
LINE
  8
0
 10
8.4682
 20
13.8779
 11
8.53589
 21
14
  0
LINE
  8
0
 10
8.53589
 20
14
 11
8.6078
 21
14.1197
  0
LINE
  8
0
 10
8.6078
 20
14.1197
 11
8.68384
 21
14.2368
  0
LINE
  8
0
 10
8.68384
 20
14.2368
 11
8.76393
 21
14.3511
  0
LINE
  8
0
 10
8.76393
 20
14.3511
 11
8.84795
 21
14.4626
  0
LINE
  8
0
 10
8.84795
 20
14.4626
 11
8.93582
 21
14.5711
  0
LINE
  8
0
 10
8.93582
 20
14.5711
 11
9.02742
 21
14.6765
  0
LINE
  8
0
 10
9.02742
 20
14.6765
 11
9.12263
 21
14.7786
  0
LINE
  8
0
 10
9.12263
 20
14.7786
 11
9.22136
 21
14.8773
  0
LINE
  8
0
 10
9.22136
 20
14.8773
 11
9.32347
 21
14.9726
  0
LINE
  8
0
 10
9.32347
 20
14.9726
 11
9.42885
 21
15.0642
  0
LINE
  8
0
 10
9.42885
 20
15.0642
 11
9.53735
 21
15.152
  0
LINE
  8
0
 10
9.53735
 20
15.152
 11
9.64885
 21
15.2361
  0
LINE
  8
0
 10
9.64885
 20
15.2361
 11
9.76321
 21
15.3161
  0
LINE
  8
0
 10
9.76321
 20
15.3161
 11
9.88031
 21
15.3922
  0
LINE
  8
0
 10
9.88031
 20
15.3922
 11
10
 21
15.4641
  0
LINE
  8
0
 10
10
 20
15.4641
 11
10.1221
 21
15.5318
  0
LINE
  8
0
 10
10.1221
 20
15.5318
 11
10.2465
 21
15.5952
  0
LINE
  8
0
 10
10.2465
 20
15.5952
 11
10.373
 21
15.6542
  0
LINE
  8
0
 10
10.373
 20
15.6542
 11
10.5016
 21
15.7087
  0
LINE
  8
0
 10
10.5016
 20
15.7087
 11
10.6319
 21
15.7588
  0
LINE
  8
0
 10
10.6319
 20
15.7588
 11
10.7639
 21
15.8042
  0
LINE
  8
0
 10
10.7639
 20
15.8042
 11
10.8974
 21
15.845
  0
LINE
  8
0
 10
10.8974
 20
15.845
 11
11.0323
 21
15.8812
  0
LINE
  8
0
 10
11.0323
 20
15.8812
 11
11.1684
 21
15.9126
  0
LINE
  8
0
 10
11.1684
 20
15.9126
 11
11.3054
 21
15.9392
  0
LINE
  8
0
 10
11.3054
 20
15.9392
 11
11.4433
 21
15.9611
  0
LINE
  8
0
 10
11.4433
 20
15.9611
 11
11.5819
 21
15.9781
  0
LINE
  8
0
 10
11.5819
 20
15.9781
 11
11.721
 21
15.9902
  0
LINE
  8
0
 10
11.721
 20
15.9902
 11
11.8604
 21
15.9976
  0
LINE
  8
0
 10
11.8604
 20
15.9976
 11
12
 21
16
  0
LINE
  8
0
 10
12
 20
16
 11
12.1396
 21
15.9976
  0
LINE
  8
0
 10
12.1396
 20
15.9976
 11
12.279
 21
15.9902
  0
LINE
  8
0
 10
12.279
 20
15.9902
 11
12.4181
 21
15.9781
  0
LINE
  8
0
 10
12.4181
 20
15.9781
 11
12.5567
 21
15.9611
  0
LINE
  8
0
 10
12.5567
 20
15.9611
 11
12.6946
 21
15.9392
  0
LINE
  8
0
 10
12.6946
 20
15.9392
 11
12.8316
 21
15.9126
  0
LINE
  8
0
 10
12.8316
 20
15.9126
 11
12.9677
 21
15.8812
  0
LINE
  8
0
 10
12.9677
 20
15.8812
 11
13.1025
 21
15.845
  0
LINE
  8
0
 10
13.1025
 20
15.845
 11
13.2361
 21
15.8042
  0
LINE
  8
0
 10
13.2361
 20
15.8042
 11
13.3681
 21
15.7588
  0
LINE
  8
0
 10
13.3681
 20
15.7588
 11
13.4984
 21
15.7087
  0
LINE
  8
0
 10
13.4984
 20
15.7087
 11
13.6269
 21
15.6542
  0
LINE
  8
0
 10
13.6269
 20
15.6542
 11
13.7535
 21
15.5952
  0
LINE
  8
0
 10
13.7535
 20
15.5952
 11
13.8779
 21
15.5318
  0
LINE
  8
0
 10
13.8779
 20
15.5318
 11
14
 21
15.4641
  0
LINE
  8
0
 10
14
 20
15.4641
 11
14.1197
 21
15.3922
  0
LINE
  8
0
 10
14.1197
 20
15.3922
 11
14.2368
 21
15.3161
  0
LINE
  8
0
 10
14.2368
 20
15.3161
 11
14.3511
 21
15.2361
  0
LINE
  8
0
 10
14.3511
 20
15.2361
 11
14.4626
 21
15.152
  0
LINE
  8
0
 10
14.4626
 20
15.152
 11
14.5711
 21
15.0642
  0
LINE
  8
0
 10
14.5711
 20
15.0642
 11
14.6765
 21
14.9726
  0
LINE
  8
0
 10
14.6765
 20
14.9726
 11
14.7786
 21
14.8773
  0
LINE
  8
0
 10
14.7786
 20
14.8773
 11
14.8773
 21
14.7786
  0
LINE
  8
0
 10
14.8773
 20
14.7786
 11
14.9726
 21
14.6765
  0
LINE
  8
0
 10
14.9726
 20
14.6765
 11
15.0642
 21
14.5711
  0
LINE
  8
0
 10
15.0642
 20
14.5711
 11
15.152
 21
14.4626
  0
LINE
  8
0
 10
15.152
 20
14.4626
 11
15.2361
 21
14.3511
  0
LINE
  8
0
 10
15.2361
 20
14.3511
 11
15.3161
 21
14.2368
  0
LINE
  8
0
 10
15.3161
 20
14.2368
 11
15.3922
 21
14.1197
  0
LINE
  8
0
 10
15.3922
 20
14.1197
 11
15.4641
 21
14
  0
LINE
  8
0
 10
15.4641
 20
14
 11
15.5318
 21
13.8779
  0
LINE
  8
0
 10
15.5318
 20
13.8779
 11
15.5952
 21
13.7535
  0
LINE
  8
0
 10
15.5952
 20
13.7535
 11
15.6542
 21
13.6269
  0
LINE
  8
0
 10
15.6542
 20
13.6269
 11
15.7087
 21
13.4984
  0
LINE
  8
0
 10
15.7087
 20
13.4984
 11
15.7588
 21
13.3681
  0
LINE
  8
0
 10
15.7588
 20
13.3681
 11
15.8042
 21
13.2361
  0
LINE
  8
0
 10
15.8042
 20
13.2361
 11
15.845
 21
13.1025
  0
LINE
  8
0
 10
15.845
 20
13.1025
 11
15.8812
 21
12.9677
  0
LINE
  8
0
 10
15.8812
 20
12.9677
 11
15.9126
 21
12.8316
  0
LINE
  8
0
 10
15.9126
 20
12.8316
 11
15.9392
 21
12.6946
  0
LINE
  8
0
 10
15.9392
 20
12.6946
 11
15.9611
 21
12.5567
  0
LINE
  8
0
 10
15.9611
 20
12.5567
 11
15.9781
 21
12.4181
  0
LINE
  8
0
 10
15.9781
 20
12.4181
 11
15.9902
 21
12.279
  0
LINE
  8
0
 10
15.9902
 20
12.279
 11
15.9976
 21
12.1396
  0
LINE
  8
0
 10
15.9976
 20
12.1396
 11
16
 21
12
  0
LINE
  8
0
 10
16
 20
12
 11
15.9976
 21
11.8604
  0
LINE
  8
0
 10
15.9976
 20
11.8604
 11
15.9902
 21
11.721
  0
LINE
  8
0
 10
15.9902
 20
11.721
 11
15.9781
 21
11.5819
  0
LINE
  8
0
 10
15.9781
 20
11.5819
 11
15.9611
 21
11.4433
  0
LINE
  8
0
 10
15.9611
 20
11.4433
 11
15.9392
 21
11.3054
  0
LINE
  8
0
 10
15.9392
 20
11.3054
 11
15.9126
 21
11.1684
  0
LINE
  8
0
 10
15.9126
 20
11.1684
 11
15.8812
 21
11.0323
  0
LINE
  8
0
 10
15.8812
 20
11.0323
 11
15.845
 21
10.8974
  0
LINE
  8
0
 10
15.845
 20
10.8974
 11
15.8042
 21
10.7639
  0
LINE
  8
0
 10
15.8042
 20
10.7639
 11
15.7588
 21
10.6319
  0
LINE
  8
0
 10
15.7588
 20
10.6319
 11
15.7087
 21
10.5016
  0
LINE
  8
0
 10
15.7087
 20
10.5016
 11
15.6542
 21
10.373
  0
LINE
  8
0
 10
15.6542
 20
10.373
 11
15.5952
 21
10.2465
  0
LINE
  8
0
 10
15.5952
 20
10.2465
 11
15.5318
 21
10.1221
  0
LINE
  8
0
 10
15.5318
 20
10.1221
 11
15.4641
 21
9.99998
  0
LINE
  8
0
 10
15.4641
 20
9.99998
 11
15.3922
 21
9.88031
  0
LINE
  8
0
 10
15.3922
 20
9.88031
 11
15.3161
 21
9.76321
  0
LINE
  8
0
 10
15.3161
 20
9.76321
 11
15.2361
 21
9.64885
  0
LINE
  8
0
 10
15.2361
 20
9.64885
 11
15.152
 21
9.53735
  0
LINE
  8
0
 10
15.152
 20
9.53735
 11
15.0642
 21
9.42885
  0
LINE
  8
0
 10
15.0642
 20
9.42885
 11
14.9726
 21
9.32347
  0
LINE
  8
0
 10
14.9726
 20
9.32347
 11
14.8773
 21
9.22136
  0
LINE
  8
0
 10
14.8773
 20
9.22136
 11
14.7786
 21
9.12263
  0
LINE
  8
0
 10
14.7786
 20
9.12263
 11
14.6765
 21
9.02742
  0
LINE
  8
0
 10
14.6765
 20
9.02742
 11
14.5711
 21
8.93582
  0
LINE
  8
0
 10
14.5711
 20
8.93582
 11
14.4626
 21
8.84795
  0
LINE
  8
0
 10
14.4626
 20
8.84795
 11
14.3511
 21
8.76393
  0
LINE
  8
0
 10
14.3511
 20
8.76393
 11
14.2368
 21
8.68384
  0
LINE
  8
0
 10
14.2368
 20
8.68384
 11
14.1197
 21
8.6078
  0
LINE
  8
0
 10
14.1197
 20
8.6078
 11
14
 21
8.53589
  0
LINE
  8
0
 10
14
 20
8.53589
 11
13.8779
 21
8.4682
  0
LINE
  8
0
 10
13.8779
 20
8.4682
 11
13.7535
 21
8.40482
  0
LINE
  8
0
 10
13.7535
 20
8.40482
 11
13.6269
 21
8.34581
  0
LINE
  8
0
 10
13.6269
 20
8.34581
 11
13.4984
 21
8.29126
  0
LINE
  8
0
 10
13.4984
 20
8.29126
 11
13.3681
 21
8.24123
  0
LINE
  8
0
 10
13.3681
 20
8.24123
 11
13.2361
 21
8.19577
  0
LINE
  8
0
 10
13.2361
 20
8.19577
 11
13.1025
 21
8.15495
  0
LINE
  8
0
 10
13.1025
 20
8.15495
 11
12.9677
 21
8.1188
  0
LINE
  8
0
 10
12.9677
 20
8.1188
 11
12.8316
 21
8.0874
  0
LINE
  8
0
 10
12.8316
 20
8.0874
 11
12.6946
 21
8.06076
  0
LINE
  8
0
 10
12.6946
 20
8.06076
 11
12.5567
 21
8.03893
  0
LINE
  8
0
 10
12.5567
 20
8.03893
 11
12.4181
 21
8.02191
  0
LINE
  8
0
 10
12.4181
 20
8.02191
 11
12.279
 21
8.00974
  0
LINE
  8
0
 10
12.279
 20
8.00974
 11
12.1396
 21
8.00243
  0
LINE
  8
0
 10
12.1396
 20
8.00243
 11
12
 21
8
  0
LINE
  8
0
 10
425
 20
8
 11
424.86
 21
8.00243
  0
LINE
  8
0
 10
424.86
 20
8.00243
 11
424.721
 21
8.00974
  0
LINE
  8
0
 10
424.721
 20
8.00974
 11
424.582
 21
8.02191
  0
LINE
  8
0
 10
424.582
 20
8.02191
 11
424.443
 21
8.03893
  0
LINE
  8
0
 10
424.443
 20
8.03893
 11
424.305
 21
8.06076
  0
LINE
  8
0
 10
424.305
 20
8.06076
 11
424.168
 21
8.0874
  0
LINE
  8
0
 10
424.168
 20
8.0874
 11
424.032
 21
8.1188
  0
LINE
  8
0
 10
424.032
 20
8.1188
 11
423.897
 21
8.15495
  0
LINE
  8
0
 10
423.897
 20
8.15495
 11
423.764
 21
8.19577
  0
LINE
  8
0
 10
423.764
 20
8.19577
 11
423.632
 21
8.24123
  0
LINE
  8
0
 10
423.632
 20
8.24123
 11
423.502
 21
8.29126
  0
LINE
  8
0
 10
423.502
 20
8.29126
 11
423.373
 21
8.34581
  0
LINE
  8
0
 10
423.373
 20
8.34581
 11
423.247
 21
8.40482
  0
LINE
  8
0
 10
423.247
 20
8.40482
 11
423.122
 21
8.4682
  0
LINE
  8
0
 10
423.122
 20
8.4682
 11
423
 21
8.53589
  0
LINE
  8
0
 10
423
 20
8.53589
 11
422.88
 21
8.6078
  0
LINE
  8
0
 10
422.88
 20
8.6078
 11
422.763
 21
8.68384
  0
LINE
  8
0
 10
422.763
 20
8.68384
 11
422.649
 21
8.76393
  0
LINE
  8
0
 10
422.649
 20
8.76393
 11
422.537
 21
8.84795
  0
LINE
  8
0
 10
422.537
 20
8.84795
 11
422.429
 21
8.93582
  0
LINE
  8
0
 10
422.429
 20
8.93582
 11
422.323
 21
9.02742
  0
LINE
  8
0
 10
422.323
 20
9.02742
 11
422.221
 21
9.12263
  0
LINE
  8
0
 10
422.221
 20
9.12263
 11
422.123
 21
9.22136
  0
LINE
  8
0
 10
422.123
 20
9.22136
 11
422.027
 21
9.32347
  0
LINE
  8
0
 10
422.027
 20
9.32347
 11
421.936
 21
9.42885
  0
LINE
  8
0
 10
421.936
 20
9.42885
 11
421.848
 21
9.53735
  0
LINE
  8
0
 10
421.848
 20
9.53735
 11
421.764
 21
9.64885
  0
LINE
  8
0
 10
421.764
 20
9.64885
 11
421.684
 21
9.76321
  0
LINE
  8
0
 10
421.684
 20
9.76321
 11
421.608
 21
9.88031
  0
LINE
  8
0
 10
421.608
 20
9.88031
 11
421.536
 21
10
  0
LINE
  8
0
 10
421.536
 20
10
 11
421.468
 21
10.1221
  0
LINE
  8
0
 10
421.468
 20
10.1221
 11
421.405
 21
10.2465
  0
LINE
  8
0
 10
421.405
 20
10.2465
 11
421.346
 21
10.373
  0
LINE
  8
0
 10
421.346
 20
10.373
 11
421.291
 21
10.5016
  0
LINE
  8
0
 10
421.291
 20
10.5016
 11
421.241
 21
10.6319
  0
LINE
  8
0
 10
421.241
 20
10.6319
 11
421.196
 21
10.7639
  0
LINE
  8
0
 10
421.196
 20
10.7639
 11
421.155
 21
10.8974
  0
LINE
  8
0
 10
421.155
 20
10.8974
 11
421.119
 21
11.0323
  0
LINE
  8
0
 10
421.119
 20
11.0323
 11
421.087
 21
11.1684
  0
LINE
  8
0
 10
421.087
 20
11.1684
 11
421.061
 21
11.3054
  0
LINE
  8
0
 10
421.061
 20
11.3054
 11
421.039
 21
11.4433
  0
LINE
  8
0
 10
421.039
 20
11.4433
 11
421.022
 21
11.5819
  0
LINE
  8
0
 10
421.022
 20
11.5819
 11
421.01
 21
11.721
  0
LINE
  8
0
 10
421.01
 20
11.721
 11
421.002
 21
11.8604
  0
LINE
  8
0
 10
421.002
 20
11.8604
 11
421
 21
12
  0
LINE
  8
0
 10
421
 20
12
 11
421.002
 21
12.1396
  0
LINE
  8
0
 10
421.002
 20
12.1396
 11
421.01
 21
12.279
  0
LINE
  8
0
 10
421.01
 20
12.279
 11
421.022
 21
12.4181
  0
LINE
  8
0
 10
421.022
 20
12.4181
 11
421.039
 21
12.5567
  0
LINE
  8
0
 10
421.039
 20
12.5567
 11
421.061
 21
12.6946
  0
LINE
  8
0
 10
421.061
 20
12.6946
 11
421.087
 21
12.8316
  0
LINE
  8
0
 10
421.087
 20
12.8316
 11
421.119
 21
12.9677
  0
LINE
  8
0
 10
421.119
 20
12.9677
 11
421.155
 21
13.1025
  0
LINE
  8
0
 10
421.155
 20
13.1025
 11
421.196
 21
13.2361
  0
LINE
  8
0
 10
421.196
 20
13.2361
 11
421.241
 21
13.3681
  0
LINE
  8
0
 10
421.241
 20
13.3681
 11
421.291
 21
13.4984
  0
LINE
  8
0
 10
421.291
 20
13.4984
 11
421.346
 21
13.6269
  0
LINE
  8
0
 10
421.346
 20
13.6269
 11
421.405
 21
13.7535
  0
LINE
  8
0
 10
421.405
 20
13.7535
 11
421.468
 21
13.8779
  0
LINE
  8
0
 10
421.468
 20
13.8779
 11
421.536
 21
14
  0
LINE
  8
0
 10
421.536
 20
14
 11
421.608
 21
14.1197
  0
LINE
  8
0
 10
421.608
 20
14.1197
 11
421.684
 21
14.2368
  0
LINE
  8
0
 10
421.684
 20
14.2368
 11
421.764
 21
14.3511
  0
LINE
  8
0
 10
421.764
 20
14.3511
 11
421.848
 21
14.4626
  0
LINE
  8
0
 10
421.848
 20
14.4626
 11
421.936
 21
14.5711
  0
LINE
  8
0
 10
421.936
 20
14.5711
 11
422.027
 21
14.6765
  0
LINE
  8
0
 10
422.027
 20
14.6765
 11
422.123
 21
14.7786
  0
LINE
  8
0
 10
422.123
 20
14.7786
 11
422.221
 21
14.8773
  0
LINE
  8
0
 10
422.221
 20
14.8773
 11
422.323
 21
14.9726
  0
LINE
  8
0
 10
422.323
 20
14.9726
 11
422.429
 21
15.0642
  0
LINE
  8
0
 10
422.429
 20
15.0642
 11
422.537
 21
15.152
  0
LINE
  8
0
 10
422.537
 20
15.152
 11
422.649
 21
15.2361
  0
LINE
  8
0
 10
422.649
 20
15.2361
 11
422.763
 21
15.3161
  0
LINE
  8
0
 10
422.763
 20
15.3161
 11
422.88
 21
15.3922
  0
LINE
  8
0
 10
422.88
 20
15.3922
 11
423
 21
15.4641
  0
LINE
  8
0
 10
423
 20
15.4641
 11
423.122
 21
15.5318
  0
LINE
  8
0
 10
423.122
 20
15.5318
 11
423.247
 21
15.5952
  0
LINE
  8
0
 10
423.247
 20
15.5952
 11
423.373
 21
15.6542
  0
LINE
  8
0
 10
423.373
 20
15.6542
 11
423.502
 21
15.7087
  0
LINE
  8
0
 10
423.502
 20
15.7087
 11
423.632
 21
15.7588
  0
LINE
  8
0
 10
423.632
 20
15.7588
 11
423.764
 21
15.8042
  0
LINE
  8
0
 10
423.764
 20
15.8042
 11
423.897
 21
15.845
  0
LINE
  8
0
 10
423.897
 20
15.845
 11
424.032
 21
15.8812
  0
LINE
  8
0
 10
424.032
 20
15.8812
 11
424.168
 21
15.9126
  0
LINE
  8
0
 10
424.168
 20
15.9126
 11
424.305
 21
15.9392
  0
LINE
  8
0
 10
424.305
 20
15.9392
 11
424.443
 21
15.9611
  0
LINE
  8
0
 10
424.443
 20
15.9611
 11
424.582
 21
15.9781
  0
LINE
  8
0
 10
424.582
 20
15.9781
 11
424.721
 21
15.9902
  0
LINE
  8
0
 10
424.721
 20
15.9902
 11
424.86
 21
15.9976
  0
LINE
  8
0
 10
424.86
 20
15.9976
 11
425
 21
16
  0
LINE
  8
0
 10
425
 20
16
 11
425.14
 21
15.9976
  0
LINE
  8
0
 10
425.14
 20
15.9976
 11
425.279
 21
15.9902
  0
LINE
  8
0
 10
425.279
 20
15.9902
 11
425.418
 21
15.9781
  0
LINE
  8
0
 10
425.418
 20
15.9781
 11
425.557
 21
15.9611
  0
LINE
  8
0
 10
425.557
 20
15.9611
 11
425.695
 21
15.9392
  0
LINE
  8
0
 10
425.695
 20
15.9392
 11
425.832
 21
15.9126
  0
LINE
  8
0
 10
425.832
 20
15.9126
 11
425.968
 21
15.8812
  0
LINE
  8
0
 10
425.968
 20
15.8812
 11
426.103
 21
15.845
  0
LINE
  8
0
 10
426.103
 20
15.845
 11
426.236
 21
15.8042
  0
LINE
  8
0
 10
426.236
 20
15.8042
 11
426.368
 21
15.7588
  0
LINE
  8
0
 10
426.368
 20
15.7588
 11
426.498
 21
15.7087
  0
LINE
  8
0
 10
426.498
 20
15.7087
 11
426.627
 21
15.6542
  0
LINE
  8
0
 10
426.627
 20
15.6542
 11
426.753
 21
15.5952
  0
LINE
  8
0
 10
426.753
 20
15.5952
 11
426.878
 21
15.5318
  0
LINE
  8
0
 10
426.878
 20
15.5318
 11
427
 21
15.4641
  0
LINE
  8
0
 10
427
 20
15.4641
 11
427.12
 21
15.3922
  0
LINE
  8
0
 10
427.12
 20
15.3922
 11
427.237
 21
15.3161
  0
LINE
  8
0
 10
427.237
 20
15.3161
 11
427.351
 21
15.2361
  0
LINE
  8
0
 10
427.351
 20
15.2361
 11
427.463
 21
15.152
  0
LINE
  8
0
 10
427.463
 20
15.152
 11
427.571
 21
15.0642
  0
LINE
  8
0
 10
427.571
 20
15.0642
 11
427.677
 21
14.9726
  0
LINE
  8
0
 10
427.677
 20
14.9726
 11
427.779
 21
14.8773
  0
LINE
  8
0
 10
427.779
 20
14.8773
 11
427.877
 21
14.7786
  0
LINE
  8
0
 10
427.877
 20
14.7786
 11
427.973
 21
14.6765
  0
LINE
  8
0
 10
427.973
 20
14.6765
 11
428.064
 21
14.5711
  0
LINE
  8
0
 10
428.064
 20
14.5711
 11
428.152
 21
14.4626
  0
LINE
  8
0
 10
428.152
 20
14.4626
 11
428.236
 21
14.3511
  0
LINE
  8
0
 10
428.236
 20
14.3511
 11
428.316
 21
14.2368
  0
LINE
  8
0
 10
428.316
 20
14.2368
 11
428.392
 21
14.1197
  0
LINE
  8
0
 10
428.392
 20
14.1197
 11
428.464
 21
14
  0
LINE
  8
0
 10
428.464
 20
14
 11
428.532
 21
13.8779
  0
LINE
  8
0
 10
428.532
 20
13.8779
 11
428.595
 21
13.7535
  0
LINE
  8
0
 10
428.595
 20
13.7535
 11
428.654
 21
13.6269
  0
LINE
  8
0
 10
428.654
 20
13.6269
 11
428.709
 21
13.4984
  0
LINE
  8
0
 10
428.709
 20
13.4984
 11
428.759
 21
13.3681
  0
LINE
  8
0
 10
428.759
 20
13.3681
 11
428.804
 21
13.2361
  0
LINE
  8
0
 10
428.804
 20
13.2361
 11
428.845
 21
13.1025
  0
LINE
  8
0
 10
428.845
 20
13.1025
 11
428.881
 21
12.9677
  0
LINE
  8
0
 10
428.881
 20
12.9677
 11
428.913
 21
12.8316
  0
LINE
  8
0
 10
428.913
 20
12.8316
 11
428.939
 21
12.6946
  0
LINE
  8
0
 10
428.939
 20
12.6946
 11
428.961
 21
12.5567
  0
LINE
  8
0
 10
428.961
 20
12.5567
 11
428.978
 21
12.4181
  0
LINE
  8
0
 10
428.978
 20
12.4181
 11
428.99
 21
12.279
  0
LINE
  8
0
 10
428.99
 20
12.279
 11
428.998
 21
12.1396
  0
LINE
  8
0
 10
428.998
 20
12.1396
 11
429
 21
12
  0
LINE
  8
0
 10
429
 20
12
 11
428.998
 21
11.8604
  0
LINE
  8
0
 10
428.998
 20
11.8604
 11
428.99
 21
11.721
  0
LINE
  8
0
 10
428.99
 20
11.721
 11
428.978
 21
11.5819
  0
LINE
  8
0
 10
428.978
 20
11.5819
 11
428.961
 21
11.4433
  0
LINE
  8
0
 10
428.961
 20
11.4433
 11
428.939
 21
11.3054
  0
LINE
  8
0
 10
428.939
 20
11.3054
 11
428.913
 21
11.1684
  0
LINE
  8
0
 10
428.913
 20
11.1684
 11
428.881
 21
11.0323
  0
LINE
  8
0
 10
428.881
 20
11.0323
 11
428.845
 21
10.8974
  0
LINE
  8
0
 10
428.845
 20
10.8974
 11
428.804
 21
10.7639
  0
LINE
  8
0
 10
428.804
 20
10.7639
 11
428.759
 21
10.6319
  0
LINE
  8
0
 10
428.759
 20
10.6319
 11
428.709
 21
10.5016
  0
LINE
  8
0
 10
428.709
 20
10.5016
 11
428.654
 21
10.373
  0
LINE
  8
0
 10
428.654
 20
10.373
 11
428.595
 21
10.2465
  0
LINE
  8
0
 10
428.595
 20
10.2465
 11
428.532
 21
10.1221
  0
LINE
  8
0
 10
428.532
 20
10.1221
 11
428.464
 21
9.99998
  0
LINE
  8
0
 10
428.464
 20
9.99998
 11
428.392
 21
9.88031
  0
LINE
  8
0
 10
428.392
 20
9.88031
 11
428.316
 21
9.76321
  0
LINE
  8
0
 10
428.316
 20
9.76321
 11
428.236
 21
9.64885
  0
LINE
  8
0
 10
428.236
 20
9.64885
 11
428.152
 21
9.53735
  0
LINE
  8
0
 10
428.152
 20
9.53735
 11
428.064
 21
9.42885
  0
LINE
  8
0
 10
428.064
 20
9.42885
 11
427.973
 21
9.32347
  0
LINE
  8
0
 10
427.973
 20
9.32347
 11
427.877
 21
9.22136
  0
LINE
  8
0
 10
427.877
 20
9.22136
 11
427.779
 21
9.12263
  0
LINE
  8
0
 10
427.779
 20
9.12263
 11
427.677
 21
9.02742
  0
LINE
  8
0
 10
427.677
 20
9.02742
 11
427.571
 21
8.93582
  0
LINE
  8
0
 10
427.571
 20
8.93582
 11
427.463
 21
8.84795
  0
LINE
  8
0
 10
427.463
 20
8.84795
 11
427.351
 21
8.76393
  0
LINE
  8
0
 10
427.351
 20
8.76393
 11
427.237
 21
8.68384
  0
LINE
  8
0
 10
427.237
 20
8.68384
 11
427.12
 21
8.6078
  0
LINE
  8
0
 10
427.12
 20
8.6078
 11
427
 21
8.53589
  0
LINE
  8
0
 10
427
 20
8.53589
 11
426.878
 21
8.4682
  0
LINE
  8
0
 10
426.878
 20
8.4682
 11
426.753
 21
8.40482
  0
LINE
  8
0
 10
426.753
 20
8.40482
 11
426.627
 21
8.34581
  0
LINE
  8
0
 10
426.627
 20
8.34581
 11
426.498
 21
8.29126
  0
LINE
  8
0
 10
426.498
 20
8.29126
 11
426.368
 21
8.24123
  0
LINE
  8
0
 10
426.368
 20
8.24123
 11
426.236
 21
8.19577
  0
LINE
  8
0
 10
426.236
 20
8.19577
 11
426.103
 21
8.15495
  0
LINE
  8
0
 10
426.103
 20
8.15495
 11
425.968
 21
8.1188
  0
LINE
  8
0
 10
425.968
 20
8.1188
 11
425.832
 21
8.0874
  0
LINE
  8
0
 10
425.832
 20
8.0874
 11
425.695
 21
8.06076
  0
LINE
  8
0
 10
425.695
 20
8.06076
 11
425.557
 21
8.03893
  0
LINE
  8
0
 10
425.557
 20
8.03893
 11
425.418
 21
8.02191
  0
LINE
  8
0
 10
425.418
 20
8.02191
 11
425.279
 21
8.00974
  0
LINE
  8
0
 10
425.279
 20
8.00974
 11
425.14
 21
8.00243
  0
LINE
  8
0
 10
425.14
 20
8.00243
 11
425
 21
8
  0
ENDSEC
  0
SECTION
  2
OBJECTS
  0
DICTIONARY
  0
ENDSEC
  0
EOF
